# Blender 4.1.0
# www.blender.org
mtllib naboj.mtl
o naboj
v 157.479645 1.219106 -1.257550
v 157.479645 1.219106 -1.281325
v 157.503418 1.219106 -1.257550
v 157.503418 1.219106 -1.281325
v 157.479645 1.294676 -1.257550
v 157.479645 1.294676 -1.281325
v 157.503418 1.294676 -1.281325
v 157.503418 1.294676 -1.257550
v 157.491531 1.219106 -1.285151
v 157.491531 1.219106 -1.253550
v 157.491531 1.294676 -1.253550
v 157.491531 1.294676 -1.285151
v 157.475906 1.219106 -1.269437
v 157.507248 1.219106 -1.269437
v 157.507248 1.294676 -1.269437
v 157.475906 1.294676 -1.269437
v 157.491531 1.219106 -1.269351
v 157.478394 1.294676 -1.256323
v 157.478668 1.309027 -1.256585
v 157.474579 1.309076 -1.269437
v 157.478668 1.309026 -1.282298
v 157.491531 1.309074 -1.286492
v 157.504395 1.309027 -1.282300
v 157.508591 1.309074 -1.269437
v 157.504410 1.309028 -1.256582
v 157.491531 1.309070 -1.252206
v 157.478409 1.294676 -1.282561
v 157.504669 1.294676 -1.282565
v 157.504669 1.294676 -1.256318
v 157.491531 1.294676 -1.251797
v 157.509003 1.294676 -1.269437
v 157.491531 1.294676 -1.286904
v 157.474167 1.294676 -1.269437
v 157.491531 1.309697 -1.269351
vn -0.0000 -1.0000 -0.0000
vn -0.3189 -0.0000 0.9478
vn 0.9520 -0.0000 0.3060
vn 0.3064 -0.0000 -0.9519
vn -0.9541 -0.0000 -0.2996
vn -0.3064 -0.0000 -0.9519
vn 0.3189 -0.0000 0.9478
vn -0.9541 -0.0000 0.2996
vn 0.9520 -0.0000 -0.3060
vn -0.9519 0.0253 -0.3054
vn 0.3118 0.0252 -0.9498
vn 0.9500 0.0253 0.3112
vn -0.3238 0.0251 0.9458
vn -0.0261 0.9993 0.0261
vn 0.0261 0.9993 0.0261
vn 0.3236 0.0251 0.9458
vn -0.3120 0.0252 -0.9498
vn 0.0260 0.9993 -0.0260
vn -0.0260 0.9993 -0.0260
vn 0.9499 0.0252 -0.3115
vn -0.9520 0.0253 0.3052
vt 0.703311 0.753567
vt 0.572908 0.752254
vt 0.606165 0.654076
vt 0.705355 0.622419
vt 0.656328 0.021302
vt 0.569698 0.086217
vt 0.556142 0.079499
vt 0.651590 0.006934
vt 0.526700 0.777176
vt 0.150991 0.777176
vt 0.150991 0.670355
vt 0.526700 0.670355
vt 0.526700 0.139043
vt 0.150991 0.139043
vt 0.150991 0.032695
vt 0.526700 0.032695
vt 0.526700 0.351751
vt 0.150991 0.351751
vt 0.150991 0.245392
vt 0.526700 0.245392
vt 0.526700 0.564233
vt 0.150991 0.564233
vt 0.150991 0.458111
vt 0.526700 0.458111
vt 0.526700 0.883997
vt 0.150991 0.883997
vt 0.827318 0.109295
vt 0.764580 0.021947
vt 0.771525 0.008506
vt 0.841687 0.104557
vt 0.832962 0.756308
vt 0.803510 0.657152
vt 0.569698 0.086217
vt 0.570510 0.193988
vt 0.556142 0.198727
vt 0.556142 0.079500
vt 0.828850 0.216829
vt 0.842385 0.223590
vt 0.800434 0.854497
vt 0.701266 0.884714
vt 0.741751 0.280323
vt 0.746490 0.294692
vt 0.633968 0.281099
vt 0.627157 0.294609
vt 0.603089 0.851421
vt 0.138469 0.616311
vt 0.015676 0.616311
vt 0.015676 0.499083
vt 0.138469 0.499083
vt 0.138469 0.381832
vt 0.015676 0.381832
vt 0.015676 0.264446
vt 0.138469 0.264446
vt 0.138469 0.147219
vt 0.015676 0.147219
vt 0.015676 0.030021
vt 0.138469 0.030021
vt 0.138469 0.850760
vt 0.015676 0.850760
vt 0.015676 0.733509
vt 0.138469 0.733509
vt 0.695847 0.449171
vt 0.827185 0.450737
vt 0.794046 0.550395
vt 0.693380 0.581250
vt 0.563838 0.446254
vt 0.594517 0.546349
vt 0.138469 0.968146
vt 0.015676 0.968146
vt 0.597949 0.347203
vt 0.698106 0.316446
vt 0.797187 0.350617
s 0
g naboj_Material.045
usemtl Material.045
f 17/1/1 14/2/1 3/3/1 10/4/1
f 11/5/1 8/6/1 29/7/1 30/8/1
f 10/9/2 11/10/2 5/11/2 1/12/2
f 14/13/3 15/14/3 8/15/3 3/16/3
f 9/17/4 12/18/4 7/19/4 4/20/4
f 13/21/5 16/22/5 6/23/5 2/24/5
f 2/24/6 6/23/6 12/18/6 9/17/6
f 3/25/7 8/26/7 11/10/7 10/9/7
f 16/27/1 5/28/1 18/29/1 33/30/1
f 13/31/1 17/1/1 10/4/1 1/32/1
f 8/33/1 15/34/1 31/35/1 29/36/1
f 6/37/1 16/27/1 33/30/1 27/38/1
f 2/39/1 9/40/1 17/1/1 13/31/1
f 12/41/1 6/37/1 27/38/1 32/42/1
f 1/12/8 5/11/8 16/22/8 13/21/8
f 4/20/9 7/19/9 15/14/9 14/13/9
f 15/34/1 7/43/1 28/44/1 31/35/1
f 9/40/1 4/45/1 14/2/1 17/1/1
f 5/28/1 11/5/1 30/8/1 18/29/1
f 7/43/1 12/41/1 32/42/1 28/44/1
f 33/46/10 20/47/10 21/48/10 27/49/10
f 32/50/11 22/51/11 23/52/11 28/53/11
f 31/54/12 24/55/12 25/56/12 29/57/12
f 30/58/13 26/59/13 19/60/13 18/61/13
f 34/62/14 20/63/14 19/64/14 26/65/14
f 24/66/15 34/62/15 26/65/15 25/67/15
f 29/68/16 25/69/16 26/59/16 30/58/16
f 27/49/17 21/48/17 22/51/17 32/50/17
f 23/70/18 22/71/18 34/62/18 24/66/18
f 22/71/19 21/72/19 20/63/19 34/62/19
f 28/53/20 23/52/20 24/55/20 31/54/20
f 18/61/21 19/60/21 20/47/21 33/46/21
