# Blender 4.1.0
# www.blender.org
mtllib batoh.mtl
o batoh
v 101.128853 1.916837 -1.510508
v 101.153351 1.942540 -1.510508
v 101.128853 1.916837 -1.546015
v 101.153351 1.942540 -1.546015
v 101.209953 1.954988 -1.514279
v 101.209953 1.954988 -1.549786
v 101.263008 1.943577 -1.515955
v 101.263008 1.943577 -1.551462
v 101.278702 1.918162 -1.514675
v 101.278702 1.918162 -1.550182
v 101.129128 1.923980 -1.546015
v 101.129128 1.923980 -1.510508
v 101.153625 1.949682 -1.510508
v 101.153625 1.949682 -1.546015
v 101.210228 1.962130 -1.514279
v 101.210228 1.962130 -1.549786
v 101.263283 1.950719 -1.515955
v 101.263283 1.950719 -1.551462
v 101.278976 1.925304 -1.514675
v 101.278976 1.925304 -1.550182
v 101.295578 1.840755 -1.597858
v 101.374405 1.840755 -1.597858
v 101.295578 1.840755 -1.676684
v 101.374405 1.840755 -1.676684
v 101.296165 1.790529 -1.772347
v 101.374992 1.790529 -1.772347
v 101.267296 1.625177 -1.851004
v 101.346123 1.625177 -1.851004
v 101.236412 1.542501 -1.785433
v 101.315239 1.542501 -1.785433
v 101.220612 1.555836 -1.634259
v 101.299438 1.555836 -1.634259
v 101.295578 1.848492 -1.678588
v 101.295578 1.848723 -1.597858
v 101.374405 1.848723 -1.597858
v 101.374405 1.848491 -1.678595
v 101.374992 1.796147 -1.777998
v 101.296165 1.795963 -1.778175
v 101.346123 1.625000 -1.858969
v 101.267296 1.623617 -1.858817
v 101.315239 1.535394 -1.789034
v 101.236412 1.534978 -1.788057
v 101.299438 1.547899 -1.633558
v 101.220612 1.547899 -1.633558
v 101.127968 1.825627 -1.615660
v 101.049141 1.825627 -1.615660
v 101.127968 1.825627 -1.694486
v 101.049141 1.825627 -1.694486
v 101.127373 1.775401 -1.790149
v 101.048546 1.775401 -1.790149
v 101.156250 1.610049 -1.868805
v 101.077423 1.610049 -1.868805
v 101.187134 1.527373 -1.803234
v 101.108307 1.527373 -1.803234
v 101.202927 1.540708 -1.652060
v 101.124100 1.540708 -1.652060
v 101.127968 1.833364 -1.696390
v 101.127968 1.833595 -1.615660
v 101.049141 1.833595 -1.615660
v 101.049141 1.833363 -1.696397
v 101.048546 1.781019 -1.795799
v 101.127373 1.780835 -1.795977
v 101.077423 1.609872 -1.876771
v 101.156250 1.608489 -1.876619
v 101.108307 1.520266 -1.806836
v 101.187134 1.519850 -1.805858
v 101.124100 1.532771 -1.651360
v 101.202927 1.532771 -1.651360
v 101.025230 1.511447 -1.410224
v 101.025230 1.826014 -1.410224
v 101.025230 1.511447 -1.691795
v 101.025230 1.900470 -1.635765
v 101.392006 1.511447 -1.410224
v 101.392006 1.826014 -1.410224
v 101.392006 1.511447 -1.691795
v 101.392006 1.900470 -1.635765
v 101.025230 1.511447 -1.552360
v 101.025230 1.929895 -1.522995
v 101.392006 1.511447 -1.552360
v 101.392006 1.929895 -1.522995
vn 0.7239 -0.6899 -0.0000
vn 0.2148 -0.9767 -0.0000
vn -0.2103 -0.9776 -0.0000
vn -0.8509 -0.5254 -0.0000
vn -0.7239 0.6899 -0.0000
vn -0.2148 0.9767 -0.0000
vn 0.2103 0.9776 -0.0000
vn 0.8509 0.5254 -0.0000
vn -0.9993 0.0386 -0.0000
vn 0.0765 -0.0030 -0.9971
vn -0.0000 -0.0000 1.0000
vn -0.0313 0.0012 -0.9995
vn -0.0670 0.0026 -0.9977
vn -0.0765 0.0030 0.9971
vn 0.0313 -0.0012 0.9995
vn 0.0670 -0.0026 0.9977
vn -0.0000 -0.0000 -1.0000
vn 0.9993 -0.0386 -0.0000
vn -0.0000 -1.0000 -0.0000
vn -0.0000 -0.8854 0.4649
vn -0.0000 -0.4296 0.9030
vn -0.0000 0.6214 0.7835
vn -0.0000 0.9961 -0.0879
vn -0.0000 1.0000 -0.0029
vn -0.0005 0.8847 -0.4662
vn -0.0041 0.4263 -0.9046
vn 0.0014 -0.6199 -0.7847
vn 0.0031 -0.9966 0.0821
vn -0.9945 0.0129 -0.1039
vn -0.9624 0.2050 -0.1784
vn -0.9879 0.1490 0.0423
vn 0.9944 -0.0201 0.1041
vn -1.0000 -0.0027 -0.0046
vn 0.9621 -0.2307 0.1453
vn 1.0000 -0.0000 -0.0000
vn 0.9881 -0.1426 -0.0570
vn 1.0000 0.0026 0.0047
vn -0.0000 0.0879 0.9961
vn -1.0000 -0.0000 -0.0000
vn -0.0000 1.0000 -0.0000
vn -0.0000 0.8854 -0.4649
vn -0.0000 0.4296 -0.9030
vn -0.0000 -0.6214 -0.7835
vn -0.0000 -0.9961 0.0879
vn -0.0000 -1.0000 0.0029
vn -0.0005 -0.8847 0.4662
vn -0.0041 -0.4263 0.9046
vn 0.0014 0.6199 0.7847
vn 0.0031 0.9966 -0.0821
vn -0.9945 -0.0129 0.1039
vn -0.9624 -0.2050 0.1784
vn -0.9879 -0.1490 -0.0423
vn 0.9944 0.0201 -0.1041
vn -1.0000 0.0027 0.0046
vn 0.9621 0.2307 -0.1453
vn 0.9881 0.1426 0.0570
vn 1.0000 -0.0026 -0.0047
vn -0.0000 -0.0879 -0.9961
vn -0.0000 0.1426 -0.9898
vn -0.0000 0.7355 0.6775
vn -0.0000 0.9676 -0.2525
vt 0.719315 0.236874
vt 0.682812 0.235804
vt 0.683883 0.199301
vt 0.720385 0.200372
vt 0.681753 0.139608
vt 0.718255 0.140678
vt 0.681666 0.083765
vt 0.718169 0.084835
vt 0.683883 0.053097
vt 0.720385 0.054167
vt 0.749221 0.233820
vt 0.748166 0.197861
vt 0.784125 0.196807
vt 0.785179 0.232765
vt 0.750264 0.139057
vt 0.786223 0.138002
vt 0.750350 0.084045
vt 0.786308 0.082991
vt 0.748166 0.053834
vt 0.784125 0.052779
vt 0.811214 0.144531
vt 0.811214 0.121390
vt 0.815872 0.121390
vt 0.815872 0.144531
vt 0.815847 0.242220
vt 0.832004 0.231329
vt 0.836662 0.231329
vt 0.820505 0.242220
vt 0.828569 0.106083
vt 0.833227 0.106083
vt 0.838100 0.196470
vt 0.842758 0.196470
vt 0.828569 0.159839
vt 0.833227 0.159839
vt 0.832004 0.034593
vt 0.815847 0.023702
vt 0.820505 0.023702
vt 0.836662 0.034593
vt 0.838100 0.069451
vt 0.842758 0.069451
vt 0.815847 0.265361
vt 0.820505 0.265361
vt 0.736106 0.629386
vt 0.740725 0.592267
vt 0.777844 0.596886
vt 0.773225 0.634004
vt 0.747334 0.541423
vt 0.784453 0.546042
vt 0.744466 0.453508
vt 0.781585 0.458126
vt 0.736106 0.402009
vt 0.773225 0.406627
vt 0.737560 0.329620
vt 0.774679 0.334238
vt 0.858164 0.647888
vt 0.820507 0.652371
vt 0.815916 0.613801
vt 0.853573 0.609322
vt 0.809246 0.560167
vt 0.846889 0.555569
vt 0.812273 0.468077
vt 0.849864 0.463028
vt 0.820560 0.412021
vt 0.858164 0.407089
vt 0.819238 0.336609
vt 0.856895 0.332127
vt 0.785905 0.128090
vt 0.785743 0.050187
vt 0.789453 0.048516
vt 0.789973 0.128082
vt 0.739573 0.018256
vt 0.740190 0.014234
vt 0.633805 0.104886
vt 0.632700 0.145118
vt 0.628633 0.145006
vt 0.629739 0.104774
vt 0.655642 0.061995
vt 0.652772 0.059111
vt 0.786150 0.246240
vt 0.785989 0.168337
vt 0.790057 0.168328
vt 0.789615 0.248373
vt 0.631599 0.111647
vt 0.627620 0.110803
vt 0.740020 0.278229
vt 0.739958 0.282297
vt 0.631594 0.185349
vt 0.627620 0.186216
vt 0.655887 0.234878
vt 0.652941 0.237683
vt 0.632908 0.151872
vt 0.628842 0.152004
vt 0.108370 0.339256
vt 0.137915 0.661386
vt 0.050486 0.640561
vt 0.000869 0.341557
vt 0.998563 0.360533
vt 0.961785 0.661386
vt 0.681035 0.627065
vt 0.717814 0.326212
vt 0.610313 0.328513
vt 0.594577 0.651612
vt 0.505920 0.573383
vt 0.500729 0.330859
vt 0.223144 0.579435
vt 0.217954 0.336911
vt 0.730509 0.283493
vt 0.730509 -0.000000
vt 0.840371 -0.000000
vt 0.840371 0.283493
vt 0.715918 0.982439
vt 0.715918 0.698946
vt 0.834428 0.698946
vt 0.834428 0.982439
vt 0.625835 0.982439
vt 0.625835 0.698946
vt 0.622734 0.283493
vt 0.622734 0.000000
s 0
usemtl Material.011
f 1/1/1 3/2/1 4/3/1 2/4/1
f 4/3/2 6/5/2 5/6/2 2/4/2
f 6/5/3 8/7/3 7/8/3 5/6/3
f 8/7/4 10/9/4 9/10/4 7/8/4
f 12/11/5 13/12/5 14/13/5 11/14/5
f 14/13/6 13/12/6 15/15/6 16/16/6
f 16/16/7 15/15/7 17/17/7 18/18/7
f 18/18/8 17/17/8 19/19/8 20/20/8
f 3/21/9 1/22/9 12/23/9 11/24/9
f 10/25/10 8/26/10 18/27/10 20/28/10
f 1/22/11 2/29/11 13/30/11 12/23/11
f 8/26/12 6/31/12 16/32/12 18/27/12
f 6/31/13 4/33/13 14/34/13 16/32/13
f 7/35/14 9/36/14 19/37/14 17/38/14
f 5/39/15 7/35/15 17/38/15 15/40/15
f 2/29/16 5/39/16 15/40/16 13/30/16
f 4/33/17 3/21/17 11/24/17 14/34/17
f 9/41/18 10/25/18 20/28/18 19/42/18
usemtl Material.019
f 21/43/19 23/44/19 24/45/19 22/46/19
f 23/44/20 25/47/20 26/48/20 24/45/20
f 25/47/21 27/49/21 28/50/21 26/48/21
f 27/49/22 29/51/22 30/52/22 28/50/22
f 29/51/23 31/53/23 32/54/23 30/52/23
f 34/55/24 35/56/24 36/57/24 33/58/24
f 33/58/25 36/57/25 37/59/25 38/60/25
f 38/60/26 37/59/26 39/61/26 40/62/26
f 40/62/27 39/61/27 41/63/27 42/64/27
f 42/64/28 41/63/28 43/65/28 44/66/28
f 31/67/29 29/68/29 42/69/29 44/70/29
f 29/68/30 27/71/30 40/72/30 42/69/30
f 21/73/11 22/74/11 35/75/11 34/76/11
f 27/71/31 25/77/31 38/78/31 40/72/31
f 30/79/32 32/80/32 43/81/32 41/82/32
f 25/77/33 23/83/33 33/84/33 38/78/33
f 28/85/34 30/79/34 41/82/34 39/86/34
f 22/74/35 24/87/35 36/88/35 35/75/35
f 26/89/36 28/85/36 39/86/36 37/90/36
f 24/87/37 26/89/37 37/90/37 36/88/37
f 32/80/38 31/67/38 44/70/38 43/81/38
f 23/83/39 21/91/39 34/92/39 33/84/39
f 45/43/40 47/44/40 48/45/40 46/46/40
f 47/44/41 49/47/41 50/48/41 48/45/41
f 49/47/42 51/49/42 52/50/42 50/48/42
f 51/49/43 53/51/43 54/52/43 52/50/43
f 53/51/44 55/53/44 56/54/44 54/52/44
f 58/55/45 59/56/45 60/57/45 57/58/45
f 57/58/46 60/57/46 61/59/46 62/60/46
f 62/60/47 61/59/47 63/61/47 64/62/47
f 64/62/48 63/61/48 65/63/48 66/64/48
f 66/64/49 65/63/49 67/65/49 68/66/49
f 55/67/50 53/68/50 66/69/50 68/70/50
f 53/68/51 51/71/51 64/72/51 66/69/51
f 45/73/17 46/74/17 59/75/17 58/76/17
f 51/71/52 49/77/52 62/78/52 64/72/52
f 54/79/53 56/80/53 67/81/53 65/82/53
f 49/77/54 47/83/54 57/84/54 62/78/54
f 52/85/55 54/79/55 65/82/55 63/86/55
f 46/74/35 48/87/35 60/88/35 59/75/35
f 50/89/56 52/85/56 63/86/56 61/90/56
f 48/87/57 50/89/57 61/90/57 60/88/57
f 56/80/58 55/67/58 68/70/58 67/81/58
f 47/83/39 45/91/39 58/92/39 57/84/39
usemtl Material.006
f 77/93/39 78/94/39 72/95/39 71/96/39
f 71/97/59 72/98/59 76/99/59 75/100/59
f 79/101/35 80/102/35 74/103/35 73/104/35
f 73/104/11 74/103/11 70/105/11 69/106/11
f 77/107/19 79/108/19 73/109/19 69/110/19
f 80/111/60 78/112/60 70/113/60 74/114/60
f 76/115/61 72/116/61 78/112/61 80/111/61
f 71/117/19 75/118/19 79/108/19 77/107/19
f 75/100/35 76/99/35 80/102/35 79/101/35
f 69/106/39 70/105/39 78/94/39 77/93/39
