# Blender 4.1.0
# www.blender.org
mtllib pytel.mtl
o pytel_na_smeti
v 131.652390 0.813084 -1.199032
v 131.680557 1.235460 -1.227198
v 131.652390 0.813084 -1.569103
v 131.680557 1.235460 -1.540937
v 132.022461 0.813084 -1.199032
v 131.994293 1.235460 -1.227198
v 132.022461 0.813084 -1.569103
v 131.994293 1.235460 -1.540937
v 131.774475 1.266982 -1.321112
v 131.774475 1.266982 -1.447023
v 131.900391 1.266982 -1.447023
v 131.900391 1.266982 -1.321112
v 131.772079 1.289951 -1.318714
v 131.772079 1.289951 -1.449421
v 131.902786 1.289951 -1.449421
v 131.902786 1.289951 -1.318714
v 131.714600 0.768963 -1.506891
v 131.714600 0.768963 -1.261243
v 131.960251 0.768963 -1.506891
v 131.960251 0.768963 -1.261243
v 131.646530 1.111344 -1.193168
v 131.646530 1.111344 -1.574966
v 132.028336 1.111344 -1.574966
v 132.028336 1.111344 -1.193168
v 131.740112 1.296757 -1.286753
v 131.740112 1.296757 -1.481382
v 131.934738 1.296757 -1.481382
v 131.934738 1.296757 -1.286753
vn -0.9644 0.2644 -0.0000
vn -0.0000 0.2644 -0.9644
vn 0.9644 0.2644 -0.0000
vn -0.0000 0.2644 0.9644
vn -0.0000 -0.8157 -0.5785
vn -0.3182 0.9480 -0.0000
vn -0.0000 -0.7557 0.6549
vn -0.0000 0.9480 0.3182
vn -0.0000 0.9480 -0.3182
vn 0.3182 0.9480 -0.0000
vn -0.0000 1.0000 -0.0000
vn -0.0000 -0.7557 -0.6549
vn 0.6549 -0.7557 -0.0000
vn -0.6549 -0.7557 -0.0000
vn -0.0000 -1.0000 -0.0000
vn -0.5785 -0.8157 -0.0000
vn 0.5785 -0.8157 -0.0000
vn -0.0000 -0.8157 0.5785
vn -0.0000 -0.0197 0.9998
vn 0.9998 -0.0197 -0.0000
vn -0.0000 -0.0197 -0.9998
vn -0.9998 -0.0197 -0.0000
vn 0.2083 0.9781 -0.0000
vn -0.0000 0.9781 0.2083
vn -0.2083 0.9781 -0.0000
vn -0.0000 0.9781 -0.2083
vt 0.434429 0.802809
vt 0.358581 0.759683
vt 0.411148 0.560882
vt 0.498398 0.560882
vt 0.358581 0.362080
vt 0.434429 0.318955
vt 0.214623 0.215244
vt 0.259241 0.140265
vt 0.259241 0.981499
vt 0.214623 0.906520
vt 0.464364 0.055544
vt 0.683824 0.010525
vt 0.656209 0.063322
vt 0.510535 0.093205
vt 0.750054 0.586369
vt 0.949763 0.575704
vt 0.893350 0.641954
vt 0.813202 0.646234
vt 0.735836 0.850109
vt 0.656445 0.827580
vt 0.642915 0.792765
vt 0.765635 0.827589
vt 0.971061 0.774560
vt 0.901897 0.721760
vt 0.750054 0.786362
vt 0.813202 0.726496
vt 0.949763 0.797026
vt 0.893350 0.730776
vt 0.637823 0.558931
vt 0.552154 0.558930
vt 0.552154 0.473261
vt 0.637823 0.473261
vt 0.656445 0.955163
vt 0.735836 0.932634
vt 0.765635 0.955154
vt 0.642915 0.989978
vt 0.613099 0.884937
vt 0.575913 0.881425
vt 0.972165 0.975917
vt 0.811160 0.975917
vt 0.811160 0.814912
vt 0.972165 0.814912
vt 0.464364 0.279574
vt 0.510535 0.241913
vt 0.772026 0.216461
vt 0.714756 0.200020
vt 0.683824 0.324593
vt 0.656209 0.271796
vt -0.000000 0.015357
vt 0.194960 -0.000000
vt 0.209705 0.249807
vt 0.014292 0.257491
vt 0.014292 0.742509
vt 0.209705 0.750193
vt 0.194960 1.000000
vt -0.000000 0.984642
vt 0.019059 0.500000
vt 0.214623 0.500000
vt 0.742969 0.359940
vt 0.742969 0.453360
vt 0.719613 0.476204
vt 0.719613 0.337096
vt 0.836367 0.455432
vt 0.858687 0.479288
vt 0.840508 0.362102
vt 0.864854 0.340317
vt 0.836367 0.357869
vt 0.858687 0.334012
s 0
usemtl Material.038
f 21/1/1 2/2/1 4/3/1 22/4/1
f 22/4/2 4/3/2 8/5/2 23/6/2
f 23/6/3 8/5/3 6/7/3 24/8/3
f 24/9/4 6/10/4 2/2/4 21/1/4
f 3/11/5 7/12/5 19/13/5 17/14/5
f 4/15/6 2/16/6 9/17/6 10/18/6
f 9/19/7 12/20/7 28/21/7 25/22/7
f 2/16/8 6/23/8 12/24/8 9/17/8
f 8/25/9 4/15/9 10/18/9 11/26/9
f 6/27/10 8/25/10 11/26/10 12/28/10
f 15/29/11 14/30/11 13/31/11 16/32/11
f 11/33/12 10/34/12 26/35/12 27/36/12
f 12/37/13 11/33/13 27/36/13 28/38/13
f 10/34/14 9/19/14 25/22/14 26/35/14
f 17/39/15 19/40/15 20/41/15 18/42/15
f 1/43/16 3/11/16 17/14/16 18/44/16
f 7/12/17 5/45/17 20/46/17 19/13/17
f 5/47/18 1/43/18 18/44/18 20/48/18
f 5/49/19 24/50/19 21/51/19 1/52/19
f 7/53/20 23/54/20 24/55/20 5/56/20
f 3/57/21 22/58/21 23/54/21 7/53/21
f 1/52/22 21/51/22 22/58/22 3/57/22
f 13/59/23 14/60/23 26/61/23 25/62/23
f 14/60/24 15/63/24 27/64/24 26/61/24
f 15/63/25 16/65/25 28/66/25 27/64/25
f 16/67/26 13/59/26 25/62/26 28/68/26
