# Blender 4.1.0
# www.blender.org
mtllib mrize s dverama.mtl
o mrize_s_dverma
v 173.656433 1.135284 -3.397400
v 173.656433 4.245009 -3.397400
v 176.640747 1.135284 -3.397400
v 176.640747 4.245009 -3.397400
v 173.876770 4.245009 -3.397400
v 173.938217 4.245009 -3.397400
v 174.219040 4.245009 -3.397400
v 174.274536 4.245009 -3.397400
v 174.565002 4.245009 -3.397400
v 174.631363 4.245009 -3.397400
v 174.910950 4.245009 -3.397400
v 174.966766 4.245009 -3.397400
v 175.256912 4.245009 -3.397400
v 175.318146 4.245009 -3.397400
v 175.602875 4.245009 -3.397400
v 175.664246 4.245009 -3.397400
v 175.948822 4.245009 -3.397400
v 176.010406 4.245009 -3.397400
v 176.294785 4.245009 -3.397400
v 176.356323 4.245009 -3.397400
v 176.356323 1.135284 -3.397400
v 176.294785 1.135284 -3.397400
v 176.010406 1.135284 -3.397400
v 175.948822 1.135284 -3.397400
v 175.664246 1.135284 -3.397400
v 175.602875 1.135284 -3.397400
v 175.318146 1.135284 -3.397400
v 175.256912 1.135284 -3.397400
v 174.966766 1.135284 -3.397400
v 174.910950 1.135284 -3.397400
v 174.631363 1.135284 -3.397400
v 174.565002 1.135284 -3.397400
v 174.274536 1.135284 -3.397400
v 174.219040 1.135284 -3.397400
v 173.938217 1.135284 -3.397400
v 173.876770 1.135284 -3.397400
v 173.656433 1.135284 -3.465055
v 173.656433 4.245009 -3.465054
v 176.356323 4.245009 -3.465054
v 176.640747 4.245009 -3.465054
v 176.640747 1.135284 -3.465055
v 173.876770 1.135284 -3.465055
v 173.876770 4.245009 -3.465054
v 173.938217 4.245009 -3.465054
v 174.219040 4.245009 -3.465054
v 174.274536 4.245009 -3.465054
v 174.565002 4.245009 -3.465054
v 174.631363 4.245009 -3.465054
v 174.910950 4.245009 -3.465054
v 174.966766 4.245009 -3.465054
v 175.256912 4.245009 -3.465054
v 175.318146 4.245009 -3.465054
v 175.602875 4.245009 -3.465054
v 175.664246 4.245009 -3.465054
v 175.948822 4.245009 -3.465054
v 176.010406 4.245009 -3.465054
v 176.294785 4.245009 -3.465054
v 176.356323 1.135284 -3.465055
v 176.294785 1.135284 -3.465055
v 176.010406 1.135284 -3.465055
v 175.948822 1.135284 -3.465055
v 175.664246 1.135284 -3.465055
v 175.602875 1.135284 -3.465055
v 175.318146 1.135284 -3.465055
v 175.256912 1.135284 -3.465055
v 174.966766 1.135284 -3.465055
v 174.910950 1.135284 -3.465055
v 174.631363 1.135284 -3.465055
v 174.565002 1.135284 -3.465055
v 174.274536 1.135284 -3.465055
v 174.219040 1.135284 -3.465055
v 173.938217 1.135284 -3.465055
v 176.356323 4.280037 -3.397400
v 176.640747 4.280037 -3.397400
v 173.656433 4.280037 -3.397400
v 173.876770 4.280037 -3.397400
v 173.938217 4.280037 -3.397400
v 174.219040 4.280037 -3.397400
v 174.274536 4.280037 -3.397400
v 174.565002 4.280037 -3.397400
v 174.631363 4.280037 -3.397400
v 174.910950 4.280037 -3.397400
v 174.966766 4.280037 -3.397400
v 175.256912 4.280037 -3.397400
v 175.318146 4.280037 -3.397400
v 175.602875 4.280037 -3.397400
v 175.664246 4.280037 -3.397400
v 175.948822 4.280037 -3.397400
v 176.010406 4.280037 -3.397400
v 176.294785 4.280037 -3.397400
v 176.356323 4.280037 -3.465054
v 176.640747 4.280037 -3.465054
v 173.656433 4.280037 -3.465054
v 173.876770 4.280037 -3.465054
v 173.938217 4.280037 -3.465054
v 174.219040 4.280037 -3.465054
v 174.274536 4.280037 -3.465054
v 174.565002 4.280037 -3.465054
v 174.631363 4.280037 -3.465054
v 174.910950 4.280037 -3.465054
v 174.966766 4.280037 -3.465054
v 175.256912 4.280037 -3.465054
v 175.318146 4.280037 -3.465054
v 175.602875 4.280037 -3.465054
v 175.664246 4.280037 -3.465054
v 175.948822 4.280037 -3.465054
v 176.010406 4.280037 -3.465054
v 176.294785 4.280037 -3.465054
v 173.876770 1.105565 -3.397400
v 173.656433 1.105565 -3.397400
v 176.640747 1.105565 -3.397400
v 176.356323 1.105565 -3.397400
v 176.294785 1.105565 -3.397400
v 176.010406 1.105565 -3.397400
v 175.948822 1.105565 -3.397400
v 175.664246 1.105565 -3.397400
v 175.602875 1.105565 -3.397400
v 175.318146 1.105565 -3.397400
v 175.256912 1.105565 -3.397400
v 174.966766 1.105565 -3.397400
v 174.910950 1.105565 -3.397400
v 174.631363 1.105565 -3.397400
v 174.565002 1.105565 -3.397400
v 174.274536 1.105565 -3.397400
v 174.219040 1.105565 -3.397400
v 173.938217 1.105565 -3.397400
v 173.876770 1.105565 -3.465055
v 173.656433 1.105565 -3.465055
v 176.640747 1.105565 -3.465055
v 176.356323 1.105565 -3.465055
v 176.294785 1.105565 -3.465055
v 176.010406 1.105565 -3.465055
v 175.948822 1.105565 -3.465055
v 175.664246 1.105565 -3.465055
v 175.602875 1.105565 -3.465055
v 175.318146 1.105565 -3.465055
v 175.256912 1.105565 -3.465055
v 174.966766 1.105565 -3.465055
v 174.910950 1.105565 -3.465055
v 174.631363 1.105565 -3.465055
v 174.565002 1.105565 -3.465055
v 174.274536 1.105565 -3.465055
v 174.219040 1.105565 -3.465055
v 173.938217 1.105565 -3.465055
v 173.601059 1.135284 -3.397400
v 173.601059 4.245009 -3.397400
v 173.601059 1.135284 -3.465055
v 173.601059 4.245009 -3.465054
v 173.601059 4.280037 -3.397400
v 173.601059 4.280037 -3.465054
v 173.601059 1.105565 -3.465055
v 173.601059 1.105565 -3.397400
v 176.670715 4.245009 -3.397400
v 176.670715 1.135284 -3.397400
v 176.670715 4.245009 -3.465054
v 176.670715 1.135284 -3.465055
v 176.670715 4.280037 -3.397400
v 176.670715 4.280037 -3.465054
v 176.670715 1.105565 -3.397400
v 176.670715 1.105565 -3.465055
v 174.966766 3.447098 -3.397400
v 174.910950 3.447098 -3.397400
v 174.966766 3.447098 -3.465055
v 174.910950 3.447098 -3.465055
v 175.318146 3.446606 -3.397400
v 175.256912 3.446606 -3.397400
v 175.318146 3.446606 -3.465055
v 175.256912 3.446606 -3.465055
v 175.664246 3.451257 -3.397400
v 175.602875 3.451257 -3.397400
v 175.664246 3.451257 -3.465055
v 175.602875 3.451257 -3.465055
v 174.631363 3.443947 -3.397400
v 174.565002 3.443947 -3.397400
v 174.631363 3.443947 -3.465055
v 174.565002 3.443947 -3.465055
v 174.631363 3.386356 -3.397400
v 174.565002 3.386356 -3.397400
v 174.631363 3.386356 -3.465055
v 174.565002 3.386356 -3.465055
v 175.664246 3.394824 -3.397400
v 175.602875 3.394824 -3.397400
v 175.664246 3.394824 -3.465055
v 175.602875 3.394824 -3.465055
v 174.910950 3.390661 -3.397400
v 174.910950 3.390661 -3.465055
v 174.966766 3.390661 -3.397400
v 174.966766 3.390661 -3.465055
v 175.256912 3.392300 -3.397400
v 175.256912 3.392300 -3.465055
v 175.318146 3.392300 -3.397400
v 175.318146 3.392300 -3.465055
vn -0.0000 -0.0000 -1.0000
vn -0.0000 -0.0000 1.0000
vn 1.0000 -0.0000 -0.0000
vn -1.0000 -0.0000 -0.0000
vn -0.0000 1.0000 -0.0000
vn -0.0000 -1.0000 -0.0000
vn -0.0113 0.9999 -0.0000
vn -0.0154 0.9999 -0.0000
vn 0.0056 -1.0000 -0.0000
vn 0.0017 1.0000 -0.0000
vn 0.0089 -1.0000 -0.0000
vn 0.0163 -0.9999 -0.0000
vt 0.461015 -0.000000
vt 0.461015 0.933837
vt 0.442536 0.933837
vt 0.442536 -0.000000
vt 0.424045 -0.000000
vt 0.424045 0.933837
vt 0.405555 0.933837
vt 0.405555 -0.000000
vt 0.553260 0.250337
vt 0.553260 0.933837
vt 0.534830 0.933837
vt 0.534830 0.250337
vt 0.405555 0.257850
vt 0.385626 0.933837
vt 0.385626 0.257850
vt 0.640221 0.000000
vt 0.640221 0.933837
vt 0.623555 0.933837
vt 0.623555 0.000000
vt 0.516401 0.000000
vt 0.516401 0.933837
vt 0.497948 0.933837
vt 0.497948 0.000000
vt 0.461015 -0.000000
vt 0.479494 -0.000000
vt 0.479494 0.933837
vt 0.461015 0.933837
vt 0.424045 -0.000000
vt 0.424045 0.933837
vt 0.516401 0.250337
vt 0.516401 0.933837
vt 0.365697 0.257850
vt 0.385626 0.257850
vt 0.385626 0.933837
vt 0.365697 0.933837
vt 0.640221 0.000000
vt 0.656886 0.000000
vt 0.656886 0.933837
vt 0.640221 0.933837
vt 0.479494 -0.000000
vt 0.497948 -0.000000
vt 0.497948 0.933837
vt 0.203165 -0.000000
vt 0.203165 0.933837
vt 0.182848 0.933837
vt 0.182848 -0.000000
vt 0.020317 0.933837
vt 0.020317 -0.000000
vt 0.040633 0.000000
vt 0.040633 0.933837
vt 0.000000 0.000000
vt 0.223481 -0.000000
vt 0.223481 0.933837
vt 0.203165 0.933837
vt 0.203165 -0.000000
vt 0.697519 0.066163
vt 0.717836 0.066163
vt 0.553260 -0.000000
vt 0.534830 -0.000000
vt 0.590037 0.933837
vt 0.606796 0.933837
vt 0.516401 -0.000000
vt 0.590036 -0.000000
vt 0.571648 -0.000000
vt 0.040633 0.933837
vt 0.040633 -0.000000
vt 0.060949 0.000000
vt 0.060949 0.933837
vt 0.264114 -0.000000
vt 0.264114 0.933837
vt 0.243798 0.933837
vt 0.243798 -0.000000
vt 0.060949 0.933837
vt 0.060949 -0.000000
vt 0.081266 0.000000
vt 0.081266 0.933837
vt 0.284431 -0.000000
vt 0.284431 0.933837
vt 0.264115 0.933837
vt 0.264114 -0.000000
vt 0.553260 0.933837
vt 0.571648 0.933837
vt 0.081266 0.238360
vt 0.081266 -0.000000
vt 0.101582 0.000000
vt 0.101582 0.238360
vt 0.606796 0.000000
vt 0.590036 0.000000
vt 0.304747 0.250337
vt 0.304747 0.933837
vt 0.284431 0.933837
vt 0.284431 0.250337
vt 0.697519 0.000000
vt 0.677203 0.000000
vt 0.101582 0.241445
vt 0.101582 -0.000000
vt 0.121899 0.000000
vt 0.121899 0.241445
vt 0.121899 0.239609
vt 0.121899 -0.000000
vt 0.142215 0.000000
vt 0.142215 0.239610
vt 0.623555 0.000000
vt 0.405555 -0.000000
vt 0.385626 -0.000000
vt 0.142215 0.240556
vt 0.142215 -0.000000
vt 0.162532 0.000000
vt 0.162532 0.240556
vt 0.623555 0.933837
vt 0.365697 0.257850
vt 0.365697 0.933837
vt 0.345381 0.933837
vt 0.345381 0.257850
vt 0.162532 0.933837
vt 0.162532 -0.000000
vt 0.182848 0.000000
vt 0.182848 0.933837
vt 0.571648 0.933837
vt 0.590036 0.933837
vt 0.677203 0.170821
vt 0.677203 0.085410
vt 0.697519 0.085410
vt 0.697519 0.170821
vt 0.717836 0.000000
vt 0.715973 0.147429
vt 0.697519 0.147429
vt 0.697519 0.127113
vt 0.715973 0.127113
vt 0.677203 0.513906
vt 0.677203 0.429576
vt 0.697519 0.429576
vt 0.697519 0.513906
vt 0.714185 0.330277
vt 0.697519 0.330277
vt 0.697519 0.309960
vt 0.714185 0.309960
vt 0.677203 0.087224
vt 0.677203 0.174447
vt 0.656886 0.174447
vt 0.656886 0.087224
vt 0.676815 0.710947
vt 0.656886 0.710947
vt 0.656886 0.690631
vt 0.676815 0.690631
vt 0.697519 0.513906
vt 0.697519 0.597867
vt 0.677203 0.597867
vt 0.677203 0.513906
vt 0.714278 0.289644
vt 0.697519 0.289644
vt 0.697519 0.269328
vt 0.714278 0.269328
vt 0.677203 0.261578
vt 0.656886 0.261578
vt 0.715908 0.228695
vt 0.697519 0.228695
vt 0.697519 0.208378
vt 0.715908 0.208378
vt 0.656886 0.519710
vt 0.656886 0.434209
vt 0.677203 0.434209
vt 0.677203 0.519710
vt 0.715949 0.188062
vt 0.697519 0.188062
vt 0.697519 0.167745
vt 0.715949 0.167745
vt 0.677203 0.519710
vt 0.677203 0.605171
vt 0.656886 0.605171
vt 0.656886 0.519710
vt 0.716010 0.086480
vt 0.697519 0.086480
vt 0.697519 0.066163
vt 0.716010 0.066163
vt 0.677203 0.345245
vt 0.677203 0.259846
vt 0.697519 0.259846
vt 0.697519 0.345245
vt 0.715998 0.127113
vt 0.697519 0.127113
vt 0.697519 0.106796
vt 0.715998 0.106796
vt 0.385626 -0.000000
vt 0.365697 -0.000000
vt 0.715622 0.702144
vt 0.697132 0.702144
vt 0.697132 0.681827
vt 0.715622 0.681827
vt 0.677203 0.690631
vt 0.715949 0.208378
vt 0.656886 0.348708
vt 0.677203 0.348708
vt 0.677203 0.434209
vt 0.715908 0.249011
vt 0.697519 0.249011
vt 0.697519 0.228695
vt 0.715908 0.228695
vt 0.677203 0.348708
vt 0.656886 0.348708
vt 0.714278 0.269328
vt 0.697519 0.269328
vt 0.697519 0.249011
vt 0.714278 0.249011
vt 0.000000 1.000000
vt 0.000000 0.933837
vt 0.020316 0.933837
vt 0.020316 1.000000
vt 0.697519 0.597867
vt 0.697519 0.681827
vt 0.677203 0.681827
vt 0.677203 0.597867
vt 0.677203 0.702144
vt 0.677203 -0.000000
vt 0.656886 -0.000000
vt 0.714185 0.309960
vt 0.697519 0.309960
vt 0.714185 0.289644
vt 0.697519 0.345245
vt 0.697519 0.429576
vt 0.677203 0.429576
vt 0.677203 0.345245
vt 0.715973 0.167745
vt 0.697519 0.147429
vt 0.697519 0.085410
vt 0.677203 0.085410
vt 0.715998 0.106796
vt 0.697519 0.106796
vt 0.697519 0.086480
vt 0.715998 0.086480
vt 0.697519 0.174448
vt 0.697519 0.259847
vt 0.677203 0.259847
vt 0.677203 0.174448
vt 0.571648 0.000000
vt 0.553260 0.000000
vt 0.020316 0.000000
vt 0.243798 -0.000000
vt 0.243798 0.933837
vt 0.223481 0.933837
vt 0.223481 -0.000000
vt 0.345380 -0.000000
vt 0.345380 0.239609
vt 0.325064 0.239609
vt 0.325064 -0.000000
vt 0.623555 0.239609
vt 0.606796 0.239609
vt 0.606796 0.239609
vt 0.590036 0.239609
vt 0.325064 -0.000000
vt 0.325064 0.241445
vt 0.304748 0.241445
vt 0.304748 -0.000000
vt 0.553260 0.692391
vt 0.571648 0.692391
vt 0.590036 0.241445
vt 0.571648 0.241445
vt 0.304747 -0.000000
vt 0.304747 0.238360
vt 0.284431 0.238360
vt 0.284431 -0.000000
vt 0.081266 0.250337
vt 0.101582 0.250337
vt 0.534830 0.238360
vt 0.516401 0.238360
vt 0.553260 0.238360
vt 0.365697 -0.000000
vt 0.365697 0.240556
vt 0.345381 0.240556
vt 0.345381 -0.000000
vt 0.142215 0.257850
vt 0.162532 0.257850
vt 0.385626 0.240556
vt 0.365697 0.240556
vt 0.405555 0.240556
vt 0.385626 0.240556
vt 0.142215 0.933837
vt 0.162532 0.933837
vt 0.081266 0.933837
vt 0.101582 0.933837
s 0
g mrize_s_dverma_Material.223
usemtl Material.223
f 20/1/1 21/2/1 22/3/1 19/4/1
f 18/5/1 23/6/1 24/7/1 17/8/1
f 181/9/1 25/10/1 26/11/1 182/12/1
f 177/13/1 31/7/1 32/14/1 178/15/1
f 8/16/1 33/17/1 34/18/1 7/19/1
f 6/20/1 35/21/1 36/22/1 5/23/1
f 39/24/2 57/25/2 59/26/2 58/27/2
f 56/28/2 55/4/2 61/3/2 60/29/2
f 183/30/2 184/12/2 63/11/2 62/31/2
f 179/32/2 180/33/2 69/34/2 68/35/2
f 46/36/2 45/37/2 71/38/2 70/39/2
f 44/40/2 43/41/2 42/42/2 72/26/2
f 7/43/3 34/44/3 71/45/3 45/46/3
f 58/27/2 59/26/2 131/26/2 130/27/2
f 35/47/4 6/48/4 44/49/4 72/50/4
f 72/51/1 71/51/1 143/51/1 144/51/1
f 5/52/3 36/53/3 42/54/3 43/55/3
f 32/51/2 33/51/2 124/51/2 123/51/2
f 58/51/1 41/51/1 129/51/1 130/51/1
f 75/56/5 93/57/5 150/57/5 149/56/5
f 70/39/2 71/38/2 143/38/2 142/39/2
f 55/4/2 56/28/2 107/28/2 106/4/2
f 32/14/1 31/7/1 122/7/1 123/14/1
f 3/51/2 111/51/2 159/51/2 154/51/2
f 70/51/1 69/51/1 141/51/1 142/51/1
f 30/51/2 31/51/2 122/51/2 121/51/2
f 36/51/2 1/51/2 110/51/2 109/51/2
f 16/58/1 15/59/1 86/59/1 87/58/1
f 68/35/2 69/34/2 141/34/2 140/35/2
f 20/51/2 4/51/2 74/51/2 73/51/2
f 30/60/1 29/61/1 120/61/1 121/60/1
f 55/51/1 54/51/1 105/51/1 106/51/1
f 68/51/1 67/51/1 139/51/1 140/51/1
f 14/51/2 15/51/2 86/51/2 85/51/2
f 37/51/1 42/51/1 127/51/1 128/51/1
f 53/59/2 54/62/2 105/62/2 104/59/2
f 28/51/2 29/51/2 120/51/2 119/51/2
f 14/63/1 13/64/1 84/64/1 85/63/1
f 21/65/4 20/66/4 39/67/4 58/68/4
f 40/51/1 39/51/1 91/51/1 92/51/1
f 19/69/3 22/70/3 59/71/3 57/72/3
f 53/51/1 52/51/1 103/51/1 104/51/1
f 23/73/4 18/74/4 56/75/4 60/76/4
f 12/51/2 13/51/2 84/51/2 83/51/2
f 17/77/3 24/78/3 61/79/3 55/80/3
f 51/81/2 52/82/2 103/82/2 102/81/2
f 169/83/4 16/84/4 54/85/4 171/86/4
f 12/87/1 11/88/1 82/88/1 83/87/1
f 182/89/3 26/90/3 63/91/3 184/92/3
f 111/93/6 129/94/6 160/94/6 159/93/6
f 165/95/4 14/96/4 52/97/4 167/98/4
f 51/51/1 50/51/1 101/51/1 102/51/1
f 10/51/2 11/51/2 82/51/2 81/51/2
f 161/99/4 12/100/4 50/101/4 163/102/4
f 49/103/2 50/87/2 101/87/2 100/103/2
f 10/104/1 9/105/1 80/105/1 81/104/1
f 173/106/4 10/107/4 48/108/4 175/109/4
f 66/61/2 67/110/2 139/110/2 138/61/2
f 178/111/3 32/112/3 69/113/3 180/114/3
f 40/51/1 92/51/1 158/51/1 155/51/1
f 33/115/4 8/116/4 46/117/4 70/118/4
f 28/119/1 27/120/1 118/120/1 119/119/1
f 73/121/5 74/122/5 92/123/5 91/124/5
f 75/56/5 76/93/5 94/125/5 93/57/5
f 77/126/6 76/127/6 94/128/6 95/129/6
f 77/130/5 78/131/5 96/132/5 95/133/5
f 79/134/6 78/135/6 96/136/6 97/137/6
f 79/138/5 80/139/5 98/140/5 97/141/5
f 81/142/6 80/143/6 98/144/6 99/145/6
f 81/146/5 82/147/5 100/148/5 99/149/5
f 83/150/6 82/151/6 100/152/6 101/153/6
f 83/139/5 84/154/5 102/155/5 101/140/5
f 85/156/6 84/157/6 102/158/6 103/159/6
f 85/160/5 86/161/5 104/162/5 103/163/5
f 87/164/6 86/165/6 104/166/6 105/167/6
f 87/168/5 88/169/5 106/170/5 105/171/5
f 89/172/6 88/173/6 106/174/6 107/175/6
f 89/176/5 90/177/5 108/178/5 107/179/5
f 73/180/6 90/181/6 108/182/6 91/183/6
f 43/51/1 38/51/1 93/51/1 94/51/1
f 16/51/2 17/51/2 88/51/2 87/51/2
f 57/51/1 56/51/1 107/51/1 108/51/1
f 43/41/2 44/40/2 95/40/2 94/41/2
f 18/5/1 17/8/1 88/8/1 89/5/1
f 57/25/2 39/24/2 91/24/2 108/25/2
f 2/51/2 5/51/2 76/51/2 75/51/2
f 45/51/1 44/51/1 95/51/1 96/51/1
f 18/51/2 19/51/2 90/51/2 89/51/2
f 6/20/1 5/23/1 76/23/1 77/20/1
f 45/37/2 46/36/2 97/36/2 96/37/2
f 20/1/1 19/4/1 90/4/1 73/1/1
f 6/51/2 7/51/2 78/51/2 77/51/2
f 47/51/1 46/51/1 97/51/1 98/51/1
f 8/16/1 7/19/1 78/19/1 79/16/1
f 47/184/2 48/185/2 99/185/2 98/184/2
f 93/51/1 38/51/1 148/51/1 150/51/1
f 8/51/2 9/51/2 80/51/2 79/51/2
f 49/51/1 48/51/1 99/51/1 100/51/1
f 115/186/5 114/187/5 132/188/5 133/189/5
f 115/144/6 116/170/6 134/169/6 133/190/6
f 117/191/5 116/158/5 134/165/5 135/164/5
f 117/161/6 118/192/6 136/193/6 135/194/6
f 119/195/5 118/196/5 136/197/5 137/198/5
f 119/154/6 120/199/6 138/200/6 137/155/6
f 121/201/5 120/202/5 138/203/5 139/204/5
f 109/205/6 110/206/6 128/207/6 127/208/6
f 121/209/6 122/210/6 140/211/6 139/212/6
f 123/187/5 122/213/5 140/211/5 141/188/5
f 123/214/6 124/138/6 142/141/6 141/215/6
f 125/216/5 124/217/5 142/151/5 143/218/5
f 125/219/6 126/220/6 144/221/6 143/222/6
f 109/223/5 126/166/5 144/224/5 127/126/5
f 111/93/6 112/225/6 130/226/6 129/94/6
f 113/227/5 112/228/5 130/229/5 131/230/5
f 113/231/6 114/232/6 132/233/6 131/234/6
f 34/18/1 33/17/1 124/17/1 125/18/1
f 72/26/2 42/42/2 127/42/2 144/26/2
f 3/51/2 21/51/2 112/51/2 111/51/2
f 60/51/1 59/51/1 131/51/1 132/51/1
f 34/51/2 35/51/2 126/51/2 125/51/2
f 22/3/1 21/2/1 112/2/1 113/3/1
f 60/29/2 61/3/2 133/3/2 132/29/2
f 36/22/1 35/21/1 126/21/1 109/22/1
f 22/51/2 23/51/2 114/51/2 113/51/2
f 1/51/2 2/51/2 146/51/2 145/51/2
f 62/51/1 61/51/1 133/51/1 134/51/1
f 24/7/1 23/6/1 114/6/1 115/7/1
f 62/31/2 63/11/2 135/11/2 134/31/2
f 24/51/2 25/51/2 116/51/2 115/51/2
f 64/51/1 63/51/1 135/51/1 136/51/1
f 26/11/1 25/10/1 116/10/1 117/11/1
f 64/235/2 65/236/2 137/236/2 136/235/2
f 26/51/2 27/51/2 118/51/2 117/51/2
f 66/51/1 65/51/1 137/51/1 138/51/1
f 145/206/4 146/51/4 148/237/4 147/207/4
f 148/237/4 146/51/4 149/51/4 150/237/4
f 145/206/4 147/207/4 151/207/4 152/206/4
f 2/51/2 75/51/2 149/51/2 146/51/2
f 38/51/1 37/51/1 147/51/1 148/51/1
f 110/51/2 1/51/2 145/51/2 152/51/2
f 128/207/6 110/206/6 152/206/6 151/207/6
f 37/51/1 128/51/1 151/51/1 147/51/1
f 153/238/3 154/239/3 156/240/3 155/241/3
f 153/238/3 155/241/3 158/241/3 157/238/3
f 156/240/3 154/239/3 159/239/3 160/240/3
f 74/51/2 4/51/2 153/51/2 157/51/2
f 41/51/1 40/51/1 155/51/1 156/51/1
f 129/51/1 41/51/1 156/51/1 160/51/1
f 4/51/2 3/51/2 154/51/2 153/51/2
f 92/123/5 74/122/5 157/122/5 158/123/5
f 11/242/3 162/243/3 164/244/3 49/245/3
f 50/87/2 49/103/2 164/246/2 163/247/2
f 12/87/1 161/248/1 162/249/1 11/88/1
f 13/250/3 166/251/3 168/252/3 51/253/3
f 52/82/2 51/81/2 168/254/2 167/255/2
f 14/63/1 165/256/1 166/257/1 13/64/1
f 15/258/3 170/259/3 172/260/3 53/261/3
f 181/262/4 169/83/4 171/86/4 183/263/4
f 54/62/2 53/59/2 172/264/2 171/265/2
f 16/58/1 169/266/1 170/264/1 15/59/1
f 9/267/3 174/268/3 176/269/3 47/270/3
f 177/271/4 173/106/4 175/109/4 179/272/4
f 48/185/2 47/184/2 176/273/2 175/274/2
f 10/104/1 173/275/1 174/276/1 9/105/1
f 163/247/2 164/246/2 186/246/2 188/247/2
f 166/257/1 165/256/1 191/256/1 189/257/1
f 31/277/4 177/271/4 179/272/4 68/278/4
f 174/268/3 178/111/3 180/114/3 176/269/3
f 175/274/2 176/273/2 180/33/2 179/32/2
f 173/275/1 177/13/1 178/15/1 174/276/1
f 25/279/4 181/262/4 183/263/4 62/280/4
f 170/259/3 182/89/3 184/92/3 172/260/3
f 171/265/2 172/264/2 184/12/2 183/30/2
f 169/266/1 181/9/1 182/12/1 170/264/1
f 175/109/7 173/106/7 162/243/7 164/244/7
f 186/246/5 185/249/5 187/99/5 188/247/5
f 164/244/3 162/243/3 185/243/3 186/244/3
f 162/249/1 161/248/1 187/248/1 185/249/1
f 161/99/4 163/102/4 188/102/4 187/99/4
f 179/272/8 177/271/8 185/249/8 186/246/8
f 173/51/1 162/51/1 185/51/1 177/51/1
f 164/51/2 175/51/2 179/51/2 186/51/2
f 190/254/5 189/257/5 191/95/5 192/255/5
f 165/95/4 167/98/4 192/98/4 191/95/4
f 167/255/2 168/254/2 190/254/2 192/255/2
f 168/252/3 166/251/3 189/251/3 190/252/3
f 161/248/2 187/248/2 189/257/2 166/257/2
f 189/51/9 187/51/9 188/51/9 190/51/9
f 190/51/1 188/51/1 163/51/1 168/51/1
f 161/51/10 166/51/10 168/51/10 163/51/10
f 165/256/2 191/256/2 182/89/2 170/259/2
f 182/51/11 191/51/11 192/51/11 184/51/11
f 172/51/2 167/51/2 192/51/2 184/51/2
f 170/51/12 165/51/12 167/51/12 172/51/12
f 31/277/5 30/51/5 67/51/5 68/278/5
f 30/51/6 67/51/6 66/61/6 29/61/6
f 29/61/5 28/51/5 65/51/5 66/61/5
f 28/51/6 65/51/6 64/235/6 27/120/6
f 27/120/5 26/90/5 63/51/5 64/235/5
