# Blender 4.1.0
# www.blender.org
mtllib mrize zelezo.mtl
o mrize
v 169.489227 1.135284 -3.397400
v 169.489227 4.245009 -3.397400
v 172.473526 1.135284 -3.397400
v 172.473526 4.245009 -3.397400
v 169.709549 4.245009 -3.397400
v 169.771011 4.245009 -3.397400
v 170.051834 4.245009 -3.397400
v 170.107330 4.245009 -3.397400
v 170.397781 4.245009 -3.397400
v 170.464157 4.245009 -3.397400
v 170.743744 4.245009 -3.397400
v 170.799561 4.245009 -3.397400
v 171.089706 4.245009 -3.397400
v 171.150940 4.245009 -3.397400
v 171.435654 4.245009 -3.397400
v 171.497025 4.245009 -3.397400
v 171.781616 4.245009 -3.397400
v 171.843185 4.245009 -3.397400
v 172.127579 4.245009 -3.397400
v 172.189117 4.245009 -3.397400
v 172.189117 1.135284 -3.397400
v 172.127579 1.135284 -3.397400
v 171.843185 1.135284 -3.397400
v 171.781616 1.135284 -3.397400
v 171.497025 1.135284 -3.397400
v 171.435654 1.135284 -3.397400
v 171.150940 1.135284 -3.397400
v 171.089706 1.135284 -3.397400
v 170.799561 1.135284 -3.397400
v 170.743744 1.135284 -3.397400
v 170.464157 1.135284 -3.397400
v 170.397781 1.135284 -3.397400
v 170.107330 1.135284 -3.397400
v 170.051834 1.135284 -3.397400
v 169.771011 1.135284 -3.397400
v 169.709549 1.135284 -3.397400
v 169.489227 1.135284 -3.465055
v 169.489227 4.245009 -3.465054
v 172.189117 4.245009 -3.465054
v 172.473526 4.245009 -3.465054
v 172.473526 1.135284 -3.465055
v 169.709549 1.135284 -3.465055
v 169.709549 4.245009 -3.465054
v 169.771011 4.245009 -3.465054
v 170.051834 4.245009 -3.465054
v 170.107330 4.245009 -3.465054
v 170.397781 4.245009 -3.465054
v 170.464157 4.245009 -3.465054
v 170.743744 4.245009 -3.465054
v 170.799561 4.245009 -3.465054
v 171.089706 4.245009 -3.465054
v 171.150940 4.245009 -3.465054
v 171.435654 4.245009 -3.465054
v 171.497025 4.245009 -3.465054
v 171.781616 4.245009 -3.465054
v 171.843185 4.245009 -3.465054
v 172.127579 4.245009 -3.465054
v 172.189117 1.135284 -3.465055
v 172.127579 1.135284 -3.465055
v 171.843185 1.135284 -3.465055
v 171.781616 1.135284 -3.465055
v 171.497025 1.135284 -3.465055
v 171.435654 1.135284 -3.465055
v 171.150940 1.135284 -3.465055
v 171.089706 1.135284 -3.465055
v 170.799561 1.135284 -3.465055
v 170.743744 1.135284 -3.465055
v 170.464157 1.135284 -3.465055
v 170.397781 1.135284 -3.465055
v 170.107330 1.135284 -3.465055
v 170.051834 1.135284 -3.465055
v 169.771011 1.135284 -3.465055
v 172.189117 4.280037 -3.397400
v 172.473526 4.280037 -3.397400
v 169.489227 4.280037 -3.397400
v 169.709549 4.280037 -3.397400
v 169.771011 4.280037 -3.397400
v 170.051834 4.280037 -3.397400
v 170.107330 4.280037 -3.397400
v 170.397781 4.280037 -3.397400
v 170.464157 4.280037 -3.397400
v 170.743744 4.280037 -3.397400
v 170.799561 4.280037 -3.397400
v 171.089706 4.280037 -3.397400
v 171.150940 4.280037 -3.397400
v 171.435654 4.280037 -3.397400
v 171.497025 4.280037 -3.397400
v 171.781616 4.280037 -3.397400
v 171.843185 4.280037 -3.397400
v 172.127579 4.280037 -3.397400
v 172.189117 4.280037 -3.465054
v 172.473526 4.280037 -3.465054
v 169.489227 4.280037 -3.465054
v 169.709549 4.280037 -3.465054
v 169.771011 4.280037 -3.465054
v 170.051834 4.280037 -3.465054
v 170.107330 4.280037 -3.465054
v 170.397781 4.280037 -3.465054
v 170.464157 4.280037 -3.465054
v 170.743744 4.280037 -3.465054
v 170.799561 4.280037 -3.465054
v 171.089706 4.280037 -3.465054
v 171.150940 4.280037 -3.465054
v 171.435654 4.280037 -3.465054
v 171.497025 4.280037 -3.465054
v 171.781616 4.280037 -3.465054
v 171.843185 4.280037 -3.465054
v 172.127579 4.280037 -3.465054
v 169.709549 1.105565 -3.397400
v 169.489227 1.105565 -3.397400
v 172.473526 1.105565 -3.397400
v 172.189117 1.105565 -3.397400
v 172.127579 1.105565 -3.397400
v 171.843185 1.105565 -3.397400
v 171.781616 1.105565 -3.397400
v 171.497025 1.105565 -3.397400
v 171.435654 1.105565 -3.397400
v 171.150940 1.105565 -3.397400
v 171.089706 1.105565 -3.397400
v 170.799561 1.105565 -3.397400
v 170.743744 1.105565 -3.397400
v 170.464157 1.105565 -3.397400
v 170.397781 1.105565 -3.397400
v 170.107330 1.105565 -3.397400
v 170.051834 1.105565 -3.397400
v 169.771011 1.105565 -3.397400
v 169.709549 1.105565 -3.465055
v 169.489227 1.105565 -3.465055
v 172.473526 1.105565 -3.465055
v 172.189117 1.105565 -3.465055
v 172.127579 1.105565 -3.465055
v 171.843185 1.105565 -3.465055
v 171.781616 1.105565 -3.465055
v 171.497025 1.105565 -3.465055
v 171.435654 1.105565 -3.465055
v 171.150940 1.105565 -3.465055
v 171.089706 1.105565 -3.465055
v 170.799561 1.105565 -3.465055
v 170.743744 1.105565 -3.465055
v 170.464157 1.105565 -3.465055
v 170.397781 1.105565 -3.465055
v 170.107330 1.105565 -3.465055
v 170.051834 1.105565 -3.465055
v 169.771011 1.105565 -3.465055
v 169.433838 1.135284 -3.397400
v 169.433838 4.245009 -3.397400
v 169.433838 1.135284 -3.465055
v 169.433838 4.245009 -3.465054
v 169.433838 4.280037 -3.397400
v 169.433838 4.280037 -3.465054
v 169.433838 1.105565 -3.465055
v 169.433838 1.105565 -3.397400
v 172.503510 4.245009 -3.397400
v 172.503510 1.135284 -3.397400
v 172.503510 4.245009 -3.465054
v 172.503510 1.135284 -3.465055
v 172.503510 4.280037 -3.397400
v 172.503510 4.280037 -3.465054
v 172.503510 1.105565 -3.397400
v 172.503510 1.105565 -3.465055
vn -0.0000 -0.0000 -1.0000
vn -0.0000 -0.0000 1.0000
vn 1.0000 -0.0000 -0.0000
vn -1.0000 -0.0000 -0.0000
vn -0.0000 1.0000 -0.0000
vn -0.0000 -1.0000 -0.0000
vt 0.461015 -0.000000
vt 0.461015 0.933837
vt 0.442536 0.933837
vt 0.442536 -0.000000
vt 0.424045 -0.000000
vt 0.424045 0.933837
vt 0.405555 0.933837
vt 0.405555 -0.000000
vt 0.553260 -0.000000
vt 0.553260 0.933837
vt 0.534830 0.933837
vt 0.534830 -0.000000
vt 0.590036 -0.000000
vt 0.590036 0.933837
vt 0.571648 0.933837
vt 0.571648 -0.000000
vt 0.606796 0.000000
vt 0.606796 0.933837
vt 0.590037 0.933837
vt 0.590036 0.000000
vt 0.405555 -0.000000
vt 0.385626 0.933837
vt 0.385626 -0.000000
vt 0.640221 0.000000
vt 0.640221 0.933837
vt 0.623555 0.933837
vt 0.623555 0.000000
vt 0.516401 0.000000
vt 0.516401 0.933837
vt 0.497948 0.933837
vt 0.497948 0.000000
vt 0.461015 -0.000000
vt 0.479494 -0.000000
vt 0.479494 0.933837
vt 0.461015 0.933837
vt 0.424045 -0.000000
vt 0.424045 0.933837
vt 0.516401 -0.000000
vt 0.516401 0.933837
vt 0.571648 0.933837
vt 0.553260 0.933837
vt 0.553260 0.000000
vt 0.571648 0.000000
vt 0.623555 0.000000
vt 0.623555 0.933837
vt 0.365697 -0.000000
vt 0.385626 -0.000000
vt 0.385626 0.933837
vt 0.365697 0.933837
vt 0.640221 0.000000
vt 0.656886 0.000000
vt 0.656886 0.933837
vt 0.640221 0.933837
vt 0.479494 -0.000000
vt 0.497948 -0.000000
vt 0.497948 0.933837
vt 0.203165 -0.000000
vt 0.203165 0.933837
vt 0.182848 0.933837
vt 0.182848 -0.000000
vt 0.020317 0.933837
vt 0.020317 -0.000000
vt 0.040633 0.000000
vt 0.040633 0.933837
vt 0.000000 0.000000
vt 0.223481 -0.000000
vt 0.223481 0.933837
vt 0.203165 0.933837
vt 0.203165 -0.000000
vt 0.697519 0.066163
vt 0.717836 0.066163
vt 0.040633 0.933837
vt 0.040633 -0.000000
vt 0.060949 0.000000
vt 0.060949 0.933837
vt 0.264114 -0.000000
vt 0.264114 0.933837
vt 0.243798 0.933837
vt 0.243798 -0.000000
vt 0.060949 0.933837
vt 0.060949 -0.000000
vt 0.081266 0.000000
vt 0.081266 0.933837
vt 0.284431 -0.000000
vt 0.284431 0.933837
vt 0.264115 0.933837
vt 0.264114 -0.000000
vt 0.081266 0.933837
vt 0.081266 -0.000000
vt 0.101582 0.000000
vt 0.101582 0.933837
vt 0.304747 -0.000000
vt 0.304747 0.933837
vt 0.284431 0.933837
vt 0.284431 -0.000000
vt 0.697519 0.000000
vt 0.677203 0.000000
vt 0.101582 0.933837
vt 0.101582 -0.000000
vt 0.121899 0.000000
vt 0.121899 0.933837
vt 0.325064 -0.000000
vt 0.325064 0.933837
vt 0.304748 0.933837
vt 0.304748 -0.000000
vt 0.121899 0.933837
vt 0.121899 -0.000000
vt 0.142215 0.000000
vt 0.142215 0.933837
vt 0.345380 -0.000000
vt 0.345381 0.933837
vt 0.325064 0.933837
vt 0.325064 -0.000000
vt 0.142215 0.933837
vt 0.142215 -0.000000
vt 0.162532 0.000000
vt 0.162532 0.933837
vt 0.365697 -0.000000
vt 0.365697 0.933837
vt 0.345381 0.933837
vt 0.345381 -0.000000
vt 0.162532 0.933837
vt 0.162532 -0.000000
vt 0.182848 0.000000
vt 0.182848 0.933837
vt 0.677203 0.170821
vt 0.677203 0.085410
vt 0.697519 0.085410
vt 0.697519 0.170821
vt 0.717836 0.000000
vt 0.715973 0.147429
vt 0.697519 0.147429
vt 0.697519 0.127113
vt 0.715973 0.127113
vt 0.677203 0.513906
vt 0.677203 0.429576
vt 0.697519 0.429576
vt 0.697519 0.513906
vt 0.714185 0.330277
vt 0.697519 0.330277
vt 0.697519 0.309960
vt 0.714185 0.309960
vt 0.677203 0.087224
vt 0.677203 0.174447
vt 0.656886 0.174447
vt 0.656886 0.087224
vt 0.676815 0.710947
vt 0.656886 0.710947
vt 0.656886 0.690631
vt 0.676815 0.690631
vt 0.697519 0.513906
vt 0.697519 0.597867
vt 0.677203 0.597867
vt 0.677203 0.513906
vt 0.714278 0.289644
vt 0.697519 0.289644
vt 0.697519 0.269328
vt 0.714278 0.269328
vt 0.677203 0.261578
vt 0.656886 0.261578
vt 0.715908 0.228695
vt 0.697519 0.228695
vt 0.697519 0.208378
vt 0.715908 0.208378
vt 0.656886 0.519710
vt 0.656886 0.434209
vt 0.677203 0.434209
vt 0.677203 0.519710
vt 0.715949 0.188062
vt 0.697519 0.188062
vt 0.697519 0.167745
vt 0.715949 0.167745
vt 0.677203 0.519710
vt 0.677203 0.605171
vt 0.656886 0.605171
vt 0.656886 0.519710
vt 0.716010 0.086480
vt 0.697519 0.086480
vt 0.697519 0.066163
vt 0.716010 0.066163
vt 0.677203 0.345245
vt 0.677203 0.259846
vt 0.697519 0.259846
vt 0.697519 0.345245
vt 0.715998 0.127113
vt 0.697519 0.127113
vt 0.697519 0.106796
vt 0.715998 0.106796
vt 0.715622 0.702144
vt 0.697132 0.702144
vt 0.697132 0.681827
vt 0.715622 0.681827
vt 0.677203 0.690631
vt 0.715949 0.208378
vt 0.656886 0.348708
vt 0.677203 0.348708
vt 0.677203 0.434209
vt 0.715908 0.249011
vt 0.697519 0.249011
vt 0.697519 0.228695
vt 0.715908 0.228695
vt 0.677203 0.348708
vt 0.656886 0.348708
vt 0.714278 0.269328
vt 0.697519 0.269328
vt 0.697519 0.249011
vt 0.714278 0.249011
vt 0.000000 1.000000
vt 0.000000 0.933837
vt 0.020316 0.933837
vt 0.020316 1.000000
vt 0.697519 0.597867
vt 0.697519 0.681827
vt 0.677203 0.681827
vt 0.677203 0.597867
vt 0.677203 0.702144
vt 0.677203 -0.000000
vt 0.656886 -0.000000
vt 0.714185 0.309960
vt 0.697519 0.309960
vt 0.714185 0.289644
vt 0.697519 0.345245
vt 0.697519 0.429576
vt 0.677203 0.429576
vt 0.677203 0.345245
vt 0.715973 0.167745
vt 0.697519 0.147429
vt 0.697519 0.085410
vt 0.677203 0.085410
vt 0.715998 0.106796
vt 0.697519 0.106796
vt 0.697519 0.086480
vt 0.715998 0.086480
vt 0.697519 0.174448
vt 0.697519 0.259847
vt 0.677203 0.259847
vt 0.677203 0.174448
vt 0.020316 0.000000
vt 0.243798 -0.000000
vt 0.243798 0.933837
vt 0.223481 0.933837
vt 0.223481 -0.000000
s 0
g mrize_Material.071
usemtl Material.071
f 20/1/1 21/2/1 22/3/1 19/4/1
f 18/5/1 23/6/1 24/7/1 17/8/1
f 16/9/1 25/10/1 26/11/1 15/12/1
f 14/13/1 27/14/1 28/15/1 13/16/1
f 12/17/1 29/18/1 30/19/1 11/20/1
f 10/21/1 31/7/1 32/22/1 9/23/1
f 8/24/1 33/25/1 34/26/1 7/27/1
f 6/28/1 35/29/1 36/30/1 5/31/1
f 39/32/2 57/33/2 59/34/2 58/35/2
f 56/36/2 55/4/2 61/3/2 60/37/2
f 54/38/2 53/12/2 63/11/2 62/39/2
f 52/40/2 51/41/2 65/42/2 64/43/2
f 50/17/2 49/44/2 67/45/2 66/18/2
f 48/46/2 47/47/2 69/48/2 68/49/2
f 46/50/2 45/51/2 71/52/2 70/53/2
f 44/54/2 43/55/2 42/56/2 72/34/2
f 7/57/3 34/58/3 71/59/3 45/60/3
f 58/35/2 59/34/2 131/34/2 130/35/2
f 35/61/4 6/62/4 44/63/4 72/64/4
f 72/65/1 71/65/1 143/65/1 144/65/1
f 5/66/3 36/67/3 42/68/3 43/69/3
f 32/65/2 33/65/2 124/65/2 123/65/2
f 58/65/1 41/65/1 129/65/1 130/65/1
f 75/70/5 93/71/5 150/71/5 149/70/5
f 70/53/2 71/52/2 143/52/2 142/53/2
f 55/4/2 56/36/2 107/36/2 106/4/2
f 32/22/1 31/7/1 122/7/1 123/22/1
f 3/65/2 111/65/2 159/65/2 154/65/2
f 70/65/1 69/65/1 141/65/1 142/65/1
f 30/65/2 31/65/2 122/65/2 121/65/2
f 36/65/2 1/65/2 110/65/2 109/65/2
f 16/9/1 15/12/1 86/12/1 87/9/1
f 68/49/2 69/48/2 141/48/2 140/49/2
f 20/65/2 4/65/2 74/65/2 73/65/2
f 30/19/1 29/18/1 120/18/1 121/19/1
f 55/65/1 54/65/1 105/65/1 106/65/1
f 68/65/1 67/65/1 139/65/1 140/65/1
f 14/65/2 15/65/2 86/65/2 85/65/2
f 37/65/1 42/65/1 127/65/1 128/65/1
f 53/12/2 54/38/2 105/38/2 104/12/2
f 28/65/2 29/65/2 120/65/2 119/65/2
f 14/13/1 13/16/1 84/16/1 85/13/1
f 21/72/4 20/73/4 39/74/4 58/75/4
f 40/65/1 39/65/1 91/65/1 92/65/1
f 19/76/3 22/77/3 59/78/3 57/79/3
f 53/65/1 52/65/1 103/65/1 104/65/1
f 23/80/4 18/81/4 56/82/4 60/83/4
f 12/65/2 13/65/2 84/65/2 83/65/2
f 17/84/3 24/85/3 61/86/3 55/87/3
f 51/41/2 52/40/2 103/40/2 102/41/2
f 25/88/4 16/89/4 54/90/4 62/91/4
f 12/17/1 11/20/1 82/20/1 83/17/1
f 15/92/3 26/93/3 63/94/3 53/95/3
f 111/96/6 129/97/6 160/97/6 159/96/6
f 27/98/4 14/99/4 52/100/4 64/101/4
f 51/65/1 50/65/1 101/65/1 102/65/1
f 13/102/3 28/103/3 65/104/3 51/105/3
f 10/65/2 11/65/2 82/65/2 81/65/2
f 29/106/4 12/107/4 50/108/4 66/109/4
f 49/44/2 50/17/2 101/17/2 100/44/2
f 11/110/3 30/111/3 67/112/3 49/113/3
f 10/21/1 9/23/1 80/23/1 81/21/1
f 31/114/4 10/115/4 48/116/4 68/117/4
f 66/18/2 67/45/2 139/45/2 138/18/2
f 9/118/3 32/119/3 69/120/3 47/121/3
f 40/65/1 92/65/1 158/65/1 155/65/1
f 33/122/4 8/123/4 46/124/4 70/125/4
f 28/15/1 27/14/1 118/14/1 119/15/1
f 73/126/5 74/127/5 92/128/5 91/129/5
f 75/70/5 76/96/5 94/130/5 93/71/5
f 77/131/6 76/132/6 94/133/6 95/134/6
f 77/135/5 78/136/5 96/137/5 95/138/5
f 79/139/6 78/140/6 96/141/6 97/142/6
f 79/143/5 80/144/5 98/145/5 97/146/5
f 81/147/6 80/148/6 98/149/6 99/150/6
f 81/151/5 82/152/5 100/153/5 99/154/5
f 83/155/6 82/156/6 100/157/6 101/158/6
f 83/144/5 84/159/5 102/160/5 101/145/5
f 85/161/6 84/162/6 102/163/6 103/164/6
f 85/165/5 86/166/5 104/167/5 103/168/5
f 87/169/6 86/170/6 104/171/6 105/172/6
f 87/173/5 88/174/5 106/175/5 105/176/5
f 89/177/6 88/178/6 106/179/6 107/180/6
f 89/181/5 90/182/5 108/183/5 107/184/5
f 73/185/6 90/186/6 108/187/6 91/188/6
f 43/65/1 38/65/1 93/65/1 94/65/1
f 16/65/2 17/65/2 88/65/2 87/65/2
f 57/65/1 56/65/1 107/65/1 108/65/1
f 43/55/2 44/54/2 95/54/2 94/55/2
f 18/5/1 17/8/1 88/8/1 89/5/1
f 57/33/2 39/32/2 91/32/2 108/33/2
f 2/65/2 5/65/2 76/65/2 75/65/2
f 45/65/1 44/65/1 95/65/1 96/65/1
f 18/65/2 19/65/2 90/65/2 89/65/2
f 6/28/1 5/31/1 76/31/1 77/28/1
f 45/51/2 46/50/2 97/50/2 96/51/2
f 20/1/1 19/4/1 90/4/1 73/1/1
f 6/65/2 7/65/2 78/65/2 77/65/2
f 47/65/1 46/65/1 97/65/1 98/65/1
f 8/24/1 7/27/1 78/27/1 79/24/1
f 47/47/2 48/46/2 99/46/2 98/47/2
f 93/65/1 38/65/1 148/65/1 150/65/1
f 8/65/2 9/65/2 80/65/2 79/65/2
f 49/65/1 48/65/1 99/65/1 100/65/1
f 115/189/5 114/190/5 132/191/5 133/192/5
f 115/149/6 116/175/6 134/174/6 133/193/6
f 117/194/5 116/163/5 134/170/5 135/169/5
f 117/166/6 118/195/6 136/196/6 135/197/6
f 119/198/5 118/199/5 136/200/5 137/201/5
f 119/159/6 120/202/6 138/203/6 137/160/6
f 121/204/5 120/205/5 138/206/5 139/207/5
f 109/208/6 110/209/6 128/210/6 127/211/6
f 121/212/6 122/213/6 140/214/6 139/215/6
f 123/190/5 122/216/5 140/214/5 141/191/5
f 123/217/6 124/143/6 142/146/6 141/218/6
f 125/219/5 124/220/5 142/156/5 143/221/5
f 125/222/6 126/223/6 144/224/6 143/225/6
f 109/226/5 126/171/5 144/227/5 127/131/5
f 111/96/6 112/228/6 130/229/6 129/97/6
f 113/230/5 112/231/5 130/232/5 131/233/5
f 113/234/6 114/235/6 132/236/6 131/237/6
f 34/26/1 33/25/1 124/25/1 125/26/1
f 72/34/2 42/56/2 127/56/2 144/34/2
f 3/65/2 21/65/2 112/65/2 111/65/2
f 60/65/1 59/65/1 131/65/1 132/65/1
f 34/65/2 35/65/2 126/65/2 125/65/2
f 22/3/1 21/2/1 112/2/1 113/3/1
f 60/37/2 61/3/2 133/3/2 132/37/2
f 36/30/1 35/29/1 126/29/1 109/30/1
f 22/65/2 23/65/2 114/65/2 113/65/2
f 1/65/2 2/65/2 146/65/2 145/65/2
f 62/65/1 61/65/1 133/65/1 134/65/1
f 24/7/1 23/6/1 114/6/1 115/7/1
f 62/39/2 63/11/2 135/11/2 134/39/2
f 24/65/2 25/65/2 116/65/2 115/65/2
f 64/65/1 63/65/1 135/65/1 136/65/1
f 26/11/1 25/10/1 116/10/1 117/11/1
f 64/43/2 65/42/2 137/42/2 136/43/2
f 26/65/2 27/65/2 118/65/2 117/65/2
f 66/65/1 65/65/1 137/65/1 138/65/1
f 145/209/4 146/65/4 148/238/4 147/210/4
f 148/238/4 146/65/4 149/65/4 150/238/4
f 145/209/4 147/210/4 151/210/4 152/209/4
f 2/65/2 75/65/2 149/65/2 146/65/2
f 38/65/1 37/65/1 147/65/1 148/65/1
f 110/65/2 1/65/2 145/65/2 152/65/2
f 128/210/6 110/209/6 152/209/6 151/210/6
f 37/65/1 128/65/1 151/65/1 147/65/1
f 153/239/3 154/240/3 156/241/3 155/242/3
f 153/239/3 155/242/3 158/242/3 157/239/3
f 156/241/3 154/240/3 159/240/3 160/241/3
f 74/65/2 4/65/2 153/65/2 157/65/2
f 41/65/1 40/65/1 155/65/1 156/65/1
f 129/65/1 41/65/1 156/65/1 160/65/1
f 4/65/2 3/65/2 154/65/2 153/65/2
f 92/128/5 74/127/5 157/127/5 158/128/5
