# Blender 4.1.0
# www.blender.org
mtllib mrize s oknem.mtl
o mrize_s_oknem
v 160.796204 1.135284 -3.397400
v 160.796204 4.245009 -3.397400
v 163.780502 1.135284 -3.397400
v 163.780502 4.245009 -3.397400
v 161.016525 4.245009 -3.397400
v 161.077988 4.245009 -3.397400
v 161.358810 4.245009 -3.397400
v 161.414307 4.245009 -3.397400
v 161.704758 4.245009 -3.397400
v 161.771133 4.245009 -3.397400
v 162.050720 4.245009 -3.397400
v 162.106537 4.245009 -3.397400
v 162.396683 4.245009 -3.397400
v 162.457916 4.245009 -3.397400
v 162.742630 4.245009 -3.397400
v 162.804001 4.245009 -3.397400
v 163.088593 4.245009 -3.397400
v 163.150162 4.245009 -3.397400
v 163.434555 4.245009 -3.397400
v 163.496094 4.245009 -3.397400
v 163.496094 1.135284 -3.397400
v 163.434555 1.135284 -3.397400
v 163.150162 1.135284 -3.397400
v 163.088593 1.135284 -3.397400
v 162.804001 1.135284 -3.397400
v 162.742630 1.135284 -3.397400
v 162.457916 1.135284 -3.397400
v 162.396683 1.135284 -3.397400
v 162.106537 1.135284 -3.397400
v 162.050720 1.135284 -3.397400
v 161.771133 1.135284 -3.397400
v 161.704758 1.135284 -3.397400
v 161.414307 1.135284 -3.397400
v 161.358810 1.135284 -3.397400
v 161.077988 1.135284 -3.397400
v 161.016525 1.135284 -3.397400
v 160.796204 1.135284 -3.465055
v 160.796204 4.245009 -3.465054
v 163.496094 4.245009 -3.465054
v 163.780502 4.245009 -3.465054
v 163.780502 1.135284 -3.465055
v 161.016525 1.135284 -3.465055
v 161.016525 4.245009 -3.465054
v 161.077988 4.245009 -3.465054
v 161.358810 4.245009 -3.465054
v 161.414307 4.245009 -3.465054
v 161.704758 4.245009 -3.465054
v 161.771133 4.245009 -3.465054
v 162.050720 4.245009 -3.465054
v 162.106537 4.245009 -3.465054
v 162.396683 4.245009 -3.465054
v 162.457916 4.245009 -3.465054
v 162.742630 4.245009 -3.465054
v 162.804001 4.245009 -3.465054
v 163.088593 4.245009 -3.465054
v 163.150162 4.245009 -3.465054
v 163.434555 4.245009 -3.465054
v 163.496094 1.135284 -3.465055
v 163.434555 1.135284 -3.465055
v 163.150162 1.135284 -3.465055
v 163.088593 1.135284 -3.465055
v 162.804001 1.135284 -3.465055
v 162.742630 1.135284 -3.465055
v 162.457916 1.135284 -3.465055
v 162.396683 1.135284 -3.465055
v 162.106537 1.135284 -3.465055
v 162.050720 1.135284 -3.465055
v 161.771133 1.135284 -3.465055
v 161.704758 1.135284 -3.465055
v 161.414307 1.135284 -3.465055
v 161.358810 1.135284 -3.465055
v 161.077988 1.135284 -3.465055
v 163.496094 4.280037 -3.397400
v 163.780502 4.280037 -3.397400
v 160.796204 4.280037 -3.397400
v 161.016525 4.280037 -3.397400
v 161.077988 4.280037 -3.397400
v 161.358810 4.280037 -3.397400
v 161.414307 4.280037 -3.397400
v 161.704758 4.280037 -3.397400
v 161.771133 4.280037 -3.397400
v 162.050720 4.280037 -3.397400
v 162.106537 4.280037 -3.397400
v 162.396683 4.280037 -3.397400
v 162.457916 4.280037 -3.397400
v 162.742630 4.280037 -3.397400
v 162.804001 4.280037 -3.397400
v 163.088593 4.280037 -3.397400
v 163.150162 4.280037 -3.397400
v 163.434555 4.280037 -3.397400
v 163.496094 4.280037 -3.465054
v 163.780502 4.280037 -3.465054
v 160.796204 4.280037 -3.465054
v 161.016525 4.280037 -3.465054
v 161.077988 4.280037 -3.465054
v 161.358810 4.280037 -3.465054
v 161.414307 4.280037 -3.465054
v 161.704758 4.280037 -3.465054
v 161.771133 4.280037 -3.465054
v 162.050720 4.280037 -3.465054
v 162.106537 4.280037 -3.465054
v 162.396683 4.280037 -3.465054
v 162.457916 4.280037 -3.465054
v 162.742630 4.280037 -3.465054
v 162.804001 4.280037 -3.465054
v 163.088593 4.280037 -3.465054
v 163.150162 4.280037 -3.465054
v 163.434555 4.280037 -3.465054
v 161.016525 1.105565 -3.397400
v 160.796204 1.105565 -3.397400
v 163.780502 1.105565 -3.397400
v 163.496094 1.105565 -3.397400
v 163.434555 1.105565 -3.397400
v 163.150162 1.105565 -3.397400
v 163.088593 1.105565 -3.397400
v 162.804001 1.105565 -3.397400
v 162.742630 1.105565 -3.397400
v 162.457916 1.105565 -3.397400
v 162.396683 1.105565 -3.397400
v 162.106537 1.105565 -3.397400
v 162.050720 1.105565 -3.397400
v 161.771133 1.105565 -3.397400
v 161.704758 1.105565 -3.397400
v 161.414307 1.105565 -3.397400
v 161.358810 1.105565 -3.397400
v 161.077988 1.105565 -3.397400
v 161.016525 1.105565 -3.465055
v 160.796204 1.105565 -3.465055
v 163.780502 1.105565 -3.465055
v 163.496094 1.105565 -3.465055
v 163.434555 1.105565 -3.465055
v 163.150162 1.105565 -3.465055
v 163.088593 1.105565 -3.465055
v 162.804001 1.105565 -3.465055
v 162.742630 1.105565 -3.465055
v 162.457916 1.105565 -3.465055
v 162.396683 1.105565 -3.465055
v 162.106537 1.105565 -3.465055
v 162.050720 1.105565 -3.465055
v 161.771133 1.105565 -3.465055
v 161.704758 1.105565 -3.465055
v 161.414307 1.105565 -3.465055
v 161.358810 1.105565 -3.465055
v 161.077988 1.105565 -3.465055
v 160.740814 1.135284 -3.397400
v 160.740814 4.245009 -3.397400
v 160.740814 1.135284 -3.465055
v 160.740814 4.245009 -3.465054
v 160.740814 4.280037 -3.397400
v 160.740814 4.280037 -3.465054
v 160.740814 1.105565 -3.465055
v 160.740814 1.105565 -3.397400
v 163.810486 4.245009 -3.397400
v 163.810486 1.135284 -3.397400
v 163.810486 4.245009 -3.465054
v 163.810486 1.135284 -3.465055
v 163.810486 4.280037 -3.397400
v 163.810486 4.280037 -3.465054
v 163.810486 1.105565 -3.397400
v 163.810486 1.105565 -3.465055
v 162.457916 2.993637 -3.397400
v 162.457916 2.653469 -3.397400
v 162.396683 2.993637 -3.397400
v 162.396683 2.653469 -3.397400
v 162.457916 2.993637 -3.465055
v 162.457916 2.653469 -3.465055
v 162.396683 2.993637 -3.465055
v 162.396683 2.653469 -3.465055
v 162.106537 2.992003 -3.397400
v 162.106537 2.651948 -3.397400
v 162.050720 2.992003 -3.397400
v 162.050720 2.651948 -3.397400
v 162.106537 2.992003 -3.465055
v 162.106537 2.651948 -3.465055
v 162.050720 2.992003 -3.465055
v 162.050720 2.651948 -3.465055
v 162.457916 2.702696 -3.397400
v 162.396683 2.702696 -3.397400
v 162.457916 2.702696 -3.465055
v 162.396683 2.702696 -3.465055
v 162.106537 2.701175 -3.397400
v 162.050720 2.701175 -3.397400
v 162.106537 2.701175 -3.465055
v 162.050720 2.701175 -3.465055
v 162.457916 2.941780 -3.397400
v 162.396683 2.941780 -3.397400
v 162.457916 2.941780 -3.465055
v 162.396683 2.941780 -3.465055
v 162.106537 2.940147 -3.397400
v 162.050720 2.940147 -3.397400
v 162.106537 2.940147 -3.465055
v 162.050720 2.940147 -3.465055
v 161.771133 2.699183 -3.397400
v 161.704758 2.699183 -3.397400
v 161.771133 2.699183 -3.465055
v 161.704758 2.699183 -3.465055
v 161.771133 2.943112 -3.397400
v 161.704758 2.943112 -3.397400
v 161.771133 2.943112 -3.465055
v 161.704758 2.943112 -3.465055
v 161.771133 2.651289 -3.397400
v 161.704758 2.651289 -3.397400
v 161.771133 2.651289 -3.465055
v 161.704758 2.651289 -3.465055
v 161.771133 2.996002 -3.397400
v 161.704758 2.996002 -3.397400
v 161.771133 2.996002 -3.465055
v 161.704758 2.996002 -3.465055
v 162.804001 2.652175 -3.397400
v 162.742630 2.652175 -3.397400
v 162.804001 2.652175 -3.465055
v 162.742630 2.652175 -3.465055
v 162.804001 2.707628 -3.397400
v 162.742630 2.707628 -3.397400
v 162.804001 2.707628 -3.465055
v 162.742630 2.707628 -3.465055
v 162.804001 2.940479 -3.397400
v 162.742630 2.940479 -3.397400
v 162.804001 2.940479 -3.465055
v 162.742630 2.940479 -3.465055
v 162.804001 2.990948 -3.397400
v 162.742630 2.990948 -3.397400
v 162.804001 2.990948 -3.465055
v 162.742630 2.990948 -3.465055
vn -0.0000 -0.0000 -1.0000
vn -0.0000 -0.0000 1.0000
vn 1.0000 -0.0000 -0.0000
vn -1.0000 -0.0000 -0.0000
vn -0.0000 1.0000 -0.0000
vn -0.0000 -1.0000 -0.0000
vn -0.0046 -1.0000 -0.0000
vn 0.0094 1.0000 -0.0000
vn -0.0045 -1.0000 -0.0000
vn 0.0173 -0.9999 -0.0000
vn -0.0056 1.0000 -0.0000
vn 0.0052 -1.0000 -0.0000
vn -0.0052 1.0000 -0.0000
vn -0.0106 -0.9999 -0.0000
vn 0.0143 0.9999 -0.0000
vn -0.0024 1.0000 -0.0000
vn 0.0071 -1.0000 -0.0000
vt 0.424016 0.000000
vt 0.424016 0.319884
vt 0.417686 0.319884
vt 0.417686 0.000000
vt 0.411352 -0.000000
vt 0.411352 0.319884
vt 0.405018 0.319884
vt 0.405018 -0.000000
vt 0.449301 0.163848
vt 0.449301 0.319884
vt 0.442988 0.319884
vt 0.442988 0.163848
vt 0.479497 0.312046
vt 0.479497 0.468216
vt 0.473198 0.468216
vt 0.473198 0.312046
vt 0.332592 0.324948
vt 0.332592 0.480961
vt 0.326851 0.480961
vt 0.326851 0.324948
vt 0.398192 0.163939
vt 0.398192 0.319884
vt 0.391365 0.319884
vt 0.391365 0.163939
vt 0.461323 -0.000000
vt 0.461323 0.319884
vt 0.455614 0.319884
vt 0.455614 -0.000000
vt 0.436667 0.000000
vt 0.436667 0.319884
vt 0.430346 0.319884
vt 0.430346 0.000000
vt 0.424016 0.000000
vt 0.430346 0.000000
vt 0.424016 0.319884
vt 0.411352 0.000000
vt 0.417686 0.000000
vt 0.417686 0.319884
vt 0.411352 0.319884
vt 0.449301 0.163848
vt 0.455614 0.163848
vt 0.455614 0.319884
vt 0.449301 0.319884
vt 0.314812 0.324948
vt 0.321111 0.324948
vt 0.321111 0.481117
vt 0.314812 0.481117
vt 0.321111 0.324948
vt 0.326851 0.324948
vt 0.321111 0.480961
vt 0.398192 0.163939
vt 0.405018 0.163939
vt 0.405018 0.319884
vt 0.461323 -0.000000
vt 0.467032 -0.000000
vt 0.467032 0.319884
vt 0.436667 0.000000
vt 0.442988 0.000000
vt 0.442988 0.319884
vt 0.436667 0.319884
vt 0.356568 0.000000
vt 0.356568 0.319884
vt 0.349609 0.319884
vt 0.349609 0.000000
vt 0.010334 0.019572
vt 0.011540 0.024544
vt 0.008900 0.024873
vt 0.008152 0.019892
vt 0.314812 0.319884
vt 0.314812 -0.000000
vt 0.321771 0.000000
vt 0.321771 0.319884
vt 0.036707 0.298642
vt 0.033103 0.278241
vt 0.030651 0.278529
vt 0.034955 0.298967
vt 0.363527 0.000000
vt 0.363527 0.319884
vt 0.356568 0.319884
vt 0.356568 0.000000
vt 0.015078 0.244309
vt 0.020729 0.275362
vt 0.023631 0.274659
vt 0.018456 0.243710
vt 0.008196 0.001502
vt 0.006737 0.002104
vt 0.310755 0.006611
vt 0.304929 0.006527
vt 0.306193 0.002583
vt 0.309402 0.003201
vt 0.033077 0.273261
vt 0.030200 0.273541
vt 0.300334 0.245797
vt 0.300362 0.252224
vt 0.304009 0.252218
vt 0.303997 0.245791
vt 0.013453 0.236370
vt 0.017125 0.235814
vt 0.001637 0.001772
vt 0.003141 0.002252
vt 0.003479 0.001174
vt 0.002924 0.000159
vt 0.029445 0.242352
vt 0.026093 0.242668
vt 0.008995 0.200212
vt 0.012942 0.199743
vt 0.031317 0.304417
vt 0.038755 0.315145
vt 0.040909 0.312832
vt 0.032873 0.303391
vt 0.314766 0.215963
vt 0.314784 0.209510
vt 0.311096 0.209505
vt 0.311088 0.215958
vt 0.029089 0.234533
vt 0.025442 0.234836
vt 0.314570 0.288135
vt 0.313697 0.317201
vt 0.310021 0.315461
vt 0.310980 0.288069
vt 0.008000 0.192614
vt 0.012077 0.192189
vt 0.300305 0.215963
vt 0.303984 0.215958
vt 0.025791 0.198528
vt 0.021872 0.198846
vt 0.314801 0.179492
vt 0.311106 0.179490
vt 0.044669 0.308182
vt 0.036782 0.301546
vt 0.035491 0.302199
vt 0.043559 0.309490
vt 0.300288 0.209509
vt 0.303975 0.209505
vt 0.004442 0.152091
vt 0.008596 0.151764
vt 0.314808 0.173028
vt 0.311109 0.173026
vt 0.321771 0.319884
vt 0.321771 -0.000000
vt 0.328730 0.000000
vt 0.328730 0.319884
vt 0.301513 0.317013
vt 0.300481 0.288095
vt 0.304044 0.288042
vt 0.304874 0.315443
vt 0.370487 0.000000
vt 0.370487 0.319884
vt 0.363527 0.319884
vt 0.363527 0.000000
vt 0.300273 0.179491
vt 0.303968 0.179490
vt 0.328730 0.319884
vt 0.328730 -0.000000
vt 0.335690 0.000000
vt 0.335690 0.319884
vt 0.314812 0.142371
vt 0.311112 0.142372
vt 0.377446 0.000000
vt 0.377446 0.319884
vt 0.370487 0.319884
vt 0.370487 0.000000
vt 0.300266 0.173027
vt 0.303965 0.173026
vt 0.349609 0.190884
vt 0.349609 0.319884
vt 0.342649 0.319884
vt 0.342649 0.190884
vt 0.314809 0.136477
vt 0.311111 0.136478
vt 0.356568 0.319884
vt 0.356568 0.475920
vt 0.349609 0.475920
vt 0.006311 0.001057
vt 0.422404 0.448608
vt 0.422404 0.319884
vt 0.429363 0.319884
vt 0.429363 0.448608
vt 0.300266 0.142370
vt 0.303966 0.142371
vt 0.339552 0.319884
vt 0.339552 0.476053
vt 0.332592 0.476053
vt 0.332592 0.319884
vt 0.314800 0.106973
vt 0.311109 0.106976
vt 0.415444 0.319884
vt 0.415444 0.448776
vt 0.408485 0.448776
vt 0.408485 0.319884
vt 0.300271 0.136476
vt 0.303969 0.136477
vt 0.370487 0.319884
vt 0.370487 0.475897
vt 0.363527 0.475897
vt 0.363527 0.319884
vt 0.314787 0.099985
vt 0.311103 0.099988
vt 0.437305 0.448364
vt 0.437305 0.319884
vt 0.444265 0.319884
vt 0.444265 0.448364
vt 0.025358 0.191048
vt 0.021310 0.191355
vt 0.384406 0.155945
vt 0.384406 -0.000000
vt 0.391365 -0.000000
vt 0.391365 0.155945
vt 0.305864 0.317268
vt 0.303491 0.320395
vt 0.335690 0.000000
vt 0.342649 0.000000
vt 0.342649 0.319884
vt 0.003836 0.143483
vt 0.007971 0.143202
vt 0.473198 0.029257
vt 0.473198 -0.000000
vt 0.480158 -0.000000
vt 0.480158 0.029257
vt 0.473198 0.306983
vt 0.473198 0.284319
vt 0.480158 0.284319
vt 0.480158 0.306983
vt 0.473198 0.277997
vt 0.480158 0.277997
vt 0.473198 0.249110
vt 0.480158 0.249110
vt 0.473198 0.243401
vt 0.480158 0.243401
vt 0.473198 0.213523
vt 0.480158 0.213523
vt 0.473198 0.206696
vt 0.480158 0.206696
vt 0.473198 0.177936
vt 0.480158 0.177936
vt 0.473198 0.172195
vt 0.480158 0.172195
vt 0.473198 0.142349
vt 0.480158 0.142349
vt 0.473198 0.136050
vt 0.480158 0.136050
vt 0.473198 0.106761
vt 0.480158 0.106762
vt 0.473198 0.100449
vt 0.480158 0.100449
vt 0.473198 0.071174
vt 0.480158 0.071174
vt 0.473198 0.064840
vt 0.480158 0.064840
vt 0.473198 0.035587
vt 0.480158 0.035587
vt 0.300504 0.028018
vt 0.301203 0.005301
vt 0.304115 0.028087
vt 0.314734 0.245798
vt 0.311071 0.245791
vt 0.300403 0.281760
vt 0.304018 0.281739
vt 0.300422 0.034405
vt 0.304063 0.034429
vt 0.314705 0.252226
vt 0.311057 0.252218
vt 0.313956 0.005727
vt 0.314649 0.028078
vt 0.311076 0.028118
vt 0.300364 0.063665
vt 0.304022 0.063674
vt 0.314652 0.281767
vt 0.311026 0.281744
vt 0.314718 0.034420
vt 0.311092 0.034438
vt 0.300338 0.069473
vt 0.304009 0.069481
vt 0.314746 0.063672
vt 0.311089 0.063677
vt 0.300303 0.099982
vt 0.303987 0.099986
vt 0.314768 0.069478
vt 0.311098 0.069483
vt 0.300287 0.106971
vt 0.303979 0.106974
vt 0.304778 0.000000
vt 0.034219 0.302861
vt 0.033458 0.303399
vt 0.034980 0.302322
vt 0.034219 0.302861
vt 0.034219 0.302861
vt 0.034219 0.302861
vt 0.034219 0.302861
vt 0.034217 0.302862
vt 0.034221 0.302859
vt 0.034096 0.302948
vt 0.034342 0.302774
vt 0.022583 0.280448
vt 0.025063 0.279705
vt 0.000994 0.019958
vt 0.003197 0.020097
vt 0.013906 0.052726
vt 0.010747 0.053043
vt 0.029017 0.301021
vt 0.030880 0.300212
vt 0.000204 0.025020
vt 0.002866 0.025119
vt 0.014959 0.059606
vt 0.011474 0.059940
vt 0.000351 0.053379
vt 0.003542 0.053391
vt -0.000000 0.999310
vt 0.012186 1.000000
vt 0.047652 0.315808
vt 0.017628 0.094979
vt 0.013819 0.095298
vt 0.000000 0.060400
vt 0.003516 0.060363
vt 0.018501 0.103021
vt 0.014520 0.103355
vt 0.001295 0.095951
vt 0.005134 0.095815
vt 0.021439 0.142207
vt 0.017333 0.142523
vt 0.001427 0.104128
vt 0.005438 0.103944
vt 0.022126 0.150686
vt 0.018001 0.151016
vt 0.300133 0.321942
vt 0.300266 0.316449
vt 0.047785 0.310315
vt 0.311651 0.000351
vt 0.046412 0.310793
vt 0.045702 0.314166
vt 0.164443 0.133216
vt 0.167559 0.135349
vt 0.384406 0.000000
vt 0.384406 0.319884
vt 0.377446 0.319884
vt 0.377446 0.000000
vt 0.310939 0.320372
vt 0.309222 0.317696
vt 0.006781 0.000000
vt 0.470115 0.319884
vt 0.470115 -0.000000
vt 0.473198 -0.000000
vt 0.473198 0.319884
vt 0.470115 -0.000000
vt 0.470115 0.319884
vt 0.467032 0.319884
vt 0.467032 -0.000000
vt 0.437305 0.319884
vt 0.437305 0.448608
vt 0.430346 0.448608
vt 0.430346 0.319884
vt 0.427467 0.455567
vt 0.427467 0.462526
vt 0.422404 0.462526
vt 0.422404 0.455567
vt 0.339552 0.476053
vt 0.339552 0.319884
vt 0.346511 0.319884
vt 0.346511 0.476053
vt 0.408485 0.462694
vt 0.408485 0.455735
vt 0.413549 0.455735
vt 0.413549 0.462694
vt 0.395227 0.319884
vt 0.401526 0.319884
vt 0.401526 0.448608
vt 0.395227 0.448608
vt 0.473198 0.306983
vt 0.479497 0.306983
vt 0.388928 0.453942
vt 0.388928 0.325218
vt 0.395227 0.325218
vt 0.395227 0.453942
vt 0.433766 0.455567
vt 0.433766 0.462526
vt 0.428703 0.462526
vt 0.428703 0.455567
vt 0.422404 0.448776
vt 0.415444 0.448776
vt 0.415444 0.319884
vt 0.326851 0.319884
vt 0.332592 0.319884
vt 0.356568 0.475897
vt 0.356568 0.319884
vt 0.363527 0.319884
vt 0.363527 0.475897
vt 0.314812 0.319884
vt 0.321111 0.319884
vt 0.383187 0.319884
vt 0.388928 0.319884
vt 0.388928 0.448776
vt 0.383187 0.448776
vt 0.321111 0.319884
vt 0.383187 0.319884
vt 0.383187 0.448776
vt 0.377446 0.448776
vt 0.377446 0.319884
vt 0.414226 0.462694
vt 0.414226 0.455735
vt 0.419290 0.455735
vt 0.419290 0.462694
vt 0.388928 0.319884
vt 0.395227 0.319884
vt 0.401526 0.453942
vt 0.395227 0.453942
vt 0.383187 0.454110
vt 0.377446 0.454110
vt 0.382780 0.454110
vt 0.382780 0.461069
vt 0.377446 0.461069
vt 0.377446 0.454110
vt 0.388928 0.454110
vt 0.388115 0.454110
vt 0.388115 0.461069
vt 0.382780 0.461069
vt 0.382780 0.454110
vt 0.388928 0.460901
vt 0.388928 0.453942
vt 0.394262 0.453942
vt 0.394262 0.460901
vt 0.394262 0.460901
vt 0.394262 0.453942
vt 0.399596 0.453942
vt 0.399596 0.460901
vt 0.384406 0.185964
vt 0.384406 0.160872
vt 0.391365 0.160872
vt 0.391365 0.185964
vt 0.406452 0.462803
vt 0.401526 0.462803
vt 0.401526 0.455843
vt 0.406452 0.455843
vt 0.398192 0.133921
vt 0.405018 0.133921
vt 0.405018 0.159013
vt 0.398192 0.159013
vt 0.398192 0.133921
vt 0.398192 0.159013
vt 0.391365 0.159013
vt 0.391365 0.133921
vt 0.398192 0.128480
vt 0.391365 0.128480
vt 0.398192 0.128480
vt 0.405018 0.128480
vt 0.384406 0.191404
vt 0.391365 0.191404
vt 0.307226 0.439839
vt 0.307226 0.464931
vt 0.300266 0.464931
vt 0.300266 0.439839
vt 0.370487 0.475829
vt 0.377446 0.319884
vt 0.377446 0.475829
vt 0.391365 0.319884
vt 0.398192 0.000000
vt 0.405018 0.000000
vt 0.398192 0.000000
vt 0.391365 0.000000
vt 0.406966 0.455843
vt 0.401526 0.455843
vt 0.401526 0.448884
vt 0.406966 0.448884
vt 0.419930 0.455735
vt 0.414226 0.455735
vt 0.414226 0.448776
vt 0.419930 0.448776
vt 0.349609 0.000000
vt 0.349609 0.156036
vt 0.342649 0.156036
vt 0.342649 -0.000000
vt 0.449301 0.158144
vt 0.455614 0.158144
vt 0.449301 0.158144
vt 0.442988 0.158144
vt 0.449301 0.134191
vt 0.442988 0.134191
vt 0.449301 0.134191
vt 0.455614 0.134191
vt 0.314185 0.439839
vt 0.314185 0.463792
vt 0.307226 0.463792
vt 0.307226 0.439839
vt 0.349609 0.161740
vt 0.342649 0.161740
vt 0.442497 0.462283
vt 0.437305 0.462283
vt 0.437305 0.455324
vt 0.442497 0.455324
vt 0.449301 0.129000
vt 0.455614 0.129000
vt 0.449301 0.129000
vt 0.442988 0.129000
vt 0.349609 0.185693
vt 0.342649 0.185693
vt 0.449301 0.000000
vt 0.442988 0.000000
vt 0.449301 0.000000
vt 0.455614 -0.000000
vt 0.408485 0.448884
vt 0.401526 0.448884
vt 0.401526 0.319884
vt 0.451224 0.378466
vt 0.451224 0.407755
vt 0.444265 0.407755
vt 0.444265 0.378466
vt 0.451224 0.378510
vt 0.451224 0.349221
vt 0.456558 0.349197
vt 0.456415 0.378486
vt 0.451367 0.349173
vt 0.451224 0.319884
vt 0.456558 0.319909
vt 0.456558 0.349197
vt 0.451224 0.349177
vt 0.451224 0.378466
vt 0.444265 0.378466
vt 0.444265 0.349177
vt 0.451224 0.407755
vt 0.451224 0.437044
vt 0.444265 0.437044
vt 0.444265 0.407755
vt 0.456928 0.407798
vt 0.456421 0.437087
vt 0.451357 0.437087
vt 0.451224 0.407798
vt 0.444265 0.349177
vt 0.444265 0.319884
vt 0.451224 0.319884
vt 0.451224 0.349177
vt 0.451224 0.407798
vt 0.451357 0.378510
vt 0.456421 0.378510
vt 0.456928 0.407798
vt 0.443604 0.455324
vt 0.437305 0.455324
vt 0.437305 0.448364
vt 0.443604 0.448364
vt 0.300266 0.350242
vt 0.300266 0.320395
vt 0.307226 0.320395
vt 0.307226 0.350242
vt 0.310935 0.380119
vt 0.310935 0.409966
vt 0.305601 0.409936
vt 0.305601 0.380089
vt 0.300266 0.409966
vt 0.300266 0.380119
vt 0.314185 0.320395
vt 0.314185 0.350242
vt 0.422404 0.448608
vt 0.428703 0.448608
vt 0.300266 0.350242
vt 0.307226 0.350242
vt 0.307226 0.380089
vt 0.300266 0.380089
vt 0.310664 0.409992
vt 0.310664 0.439839
vt 0.305601 0.439813
vt 0.305601 0.409966
vt 0.314185 0.350242
vt 0.314185 0.380089
vt 0.300266 0.409992
vt 0.305330 0.409966
vt 0.305330 0.439813
vt 0.463518 0.377410
vt 0.456558 0.377410
vt 0.456558 0.348648
vt 0.463518 0.348648
vt 0.462368 0.436617
vt 0.462368 0.465379
vt 0.457034 0.465322
vt 0.456928 0.436559
vt 0.456558 0.319884
vt 0.463518 0.319884
vt 0.449705 0.437044
vt 0.449599 0.465807
vt 0.444265 0.465864
vt 0.444265 0.437101
vt 0.456928 0.407798
vt 0.463887 0.407798
vt 0.463887 0.436559
vt 0.456928 0.436559
vt 0.456288 0.437087
vt 0.456288 0.465847
vt 0.451224 0.465859
vt 0.451361 0.437098
vt 0.467295 0.436571
vt 0.467432 0.465332
vt 0.462368 0.465320
vt 0.462368 0.436559
vt 0.463887 0.378510
vt 0.463887 0.407271
vt 0.456928 0.407271
vt 0.456928 0.378510
vt 0.414226 0.455735
vt 0.408485 0.455735
vt 0.408485 0.448776
vt 0.414226 0.448776
vt 0.434443 0.455567
vt 0.434443 0.448608
s 0
g mrize_s_oknem_Material.208
usemtl Material.208
f 20/1/1 21/2/1 22/3/1 19/4/1
f 18/5/1 23/6/1 24/7/1 17/8/1
f 209/9/1 25/10/1 26/11/1 210/12/1
f 162/13/1 27/14/1 28/15/1 164/16/1
f 170/17/1 29/18/1 30/19/1 172/20/1
f 201/21/1 31/22/1 32/23/1 202/24/1
f 8/25/1 33/26/1 34/27/1 7/28/1
f 6/29/1 35/30/1 36/31/1 5/32/1
f 39/33/2 57/34/2 59/31/2 58/35/2
f 56/36/2 55/37/2 61/38/2 60/39/2
f 211/40/2 212/41/2 63/42/2 62/43/2
f 166/44/2 168/45/2 65/46/2 64/47/2
f 174/48/2 176/49/2 67/19/2 66/50/2
f 203/51/2 204/52/2 69/53/2 68/22/2
f 46/54/2 45/55/2 71/56/2 70/26/2
f 44/57/2 43/58/2 42/59/2 72/60/2
f 7/61/3 34/62/3 71/63/3 45/64/3
f 58/65/2 59/66/2 131/67/2 130/68/2
f 35/69/4 6/70/4 44/71/4 72/72/4
f 72/73/1 71/74/1 143/75/1 144/76/1
f 5/77/3 36/78/3 42/79/3 43/80/3
f 32/81/2 33/82/2 124/83/2 123/84/2
f 58/65/1 41/85/1 129/86/1 130/68/1
f 75/87/5 93/88/5 150/89/5 149/90/5
f 70/91/2 71/74/2 143/75/2 142/92/2
f 55/93/2 56/94/2 107/95/2 106/96/2
f 32/81/1 31/97/1 122/98/1 123/84/1
f 3/99/2 111/100/2 159/101/2 154/102/2
f 70/91/1 69/103/1 141/104/1 142/92/1
f 30/105/2 31/97/2 122/98/2 121/106/2
f 36/107/2 1/108/2 110/109/2 109/110/2
f 16/111/1 15/112/1 86/113/1 87/114/1
f 68/115/2 69/103/2 141/104/2 140/116/2
f 20/117/2 4/118/2 74/119/2 73/120/2
f 30/105/1 29/121/1 120/122/1 121/106/1
f 55/93/1 54/123/1 105/124/1 106/96/1
f 68/115/1 67/125/1 139/126/1 140/116/1
f 14/127/2 15/112/2 86/113/2 85/128/2
f 37/129/1 42/130/1 127/131/1 128/132/1
f 53/133/2 54/123/2 105/124/2 104/134/2
f 28/135/2 29/121/2 120/122/2 119/136/2
f 14/127/1 13/137/1 84/138/1 85/128/1
f 21/139/4 20/140/4 39/141/4 58/142/4
f 40/143/1 39/144/1 91/145/1 92/146/1
f 19/147/3 22/148/3 59/149/3 57/150/3
f 53/133/1 52/151/1 103/152/1 104/134/1
f 23/153/4 18/154/4 56/155/4 60/156/4
f 12/157/2 13/137/2 84/138/2 83/158/2
f 17/159/3 24/160/3 61/161/3 55/162/3
f 51/163/2 52/151/2 103/152/2 102/164/2
f 221/165/4 16/166/4 54/167/4 223/168/4
f 12/157/1 11/169/1 82/170/1 83/158/1
f 210/171/3 26/172/3 63/173/3 212/166/3
f 111/100/6 129/86/6 160/174/6 159/101/6
f 161/175/4 14/176/4 52/177/4 165/178/4
f 51/163/1 50/179/1 101/180/1 102/164/1
f 164/181/3 28/182/3 65/183/3 168/184/3
f 10/185/2 11/169/2 82/170/2 81/186/2
f 169/187/4 12/188/4 50/189/4 173/190/4
f 49/191/2 50/179/2 101/180/2 100/192/2
f 172/193/3 30/194/3 67/195/3 176/196/3
f 10/185/1 9/197/1 80/198/1 81/186/1
f 205/199/4 10/200/4 48/201/4 207/202/4
f 66/203/2 67/125/2 139/126/2 138/204/2
f 202/205/3 32/206/3 69/207/3 204/208/3
f 40/143/1 92/146/1 158/209/1 155/210/1
f 33/156/4 8/211/4 46/212/4 70/213/4
f 28/135/1 27/214/1 118/215/1 119/136/1
f 73/216/5 74/217/5 92/218/5 91/219/5
f 75/220/5 76/221/5 94/222/5 93/223/5
f 77/224/6 76/221/6 94/222/6 95/225/6
f 77/224/5 78/226/5 96/227/5 95/225/5
f 79/228/6 78/226/6 96/227/6 97/229/6
f 79/228/5 80/230/5 98/231/5 97/229/5
f 81/232/6 80/230/6 98/231/6 99/233/6
f 81/232/5 82/234/5 100/235/5 99/233/5
f 83/236/6 82/234/6 100/235/6 101/237/6
f 83/236/5 84/238/5 102/239/5 101/237/5
f 85/240/6 84/238/6 102/239/6 103/241/6
f 85/240/5 86/242/5 104/243/5 103/241/5
f 87/244/6 86/242/6 104/243/6 105/245/6
f 87/244/5 88/246/5 106/247/5 105/245/5
f 89/248/6 88/246/6 106/247/6 107/249/6
f 89/248/5 90/250/5 108/251/5 107/249/5
f 73/216/6 90/250/6 108/251/6 91/219/6
f 43/252/1 38/253/1 93/88/1 94/254/1
f 16/111/2 17/255/2 88/256/2 87/114/2
f 57/257/1 56/94/1 107/95/1 108/258/1
f 43/252/2 44/259/2 95/260/2 94/254/2
f 18/261/1 17/255/1 88/256/1 89/262/1
f 57/257/2 39/144/2 91/145/2 108/258/2
f 2/263/2 5/264/2 76/265/2 75/87/2
f 45/266/1 44/259/1 95/260/1 96/267/1
f 18/261/2 19/268/2 90/269/2 89/262/2
f 6/270/1 5/264/1 76/265/1 77/271/1
f 45/266/2 46/272/2 97/273/2 96/267/2
f 20/117/1 19/268/1 90/269/1 73/120/1
f 6/270/2 7/274/2 78/275/2 77/271/2
f 47/276/1 46/272/1 97/273/1 98/277/1
f 8/278/1 7/274/1 78/275/1 79/279/1
f 47/276/2 48/280/2 99/281/2 98/277/2
f 93/88/1 38/253/1 148/282/1 150/89/1
f 8/278/2 9/197/2 80/198/2 79/279/2
f 49/191/1 48/280/1 99/281/1 100/192/1
f 115/283/5 114/283/5 132/283/5 133/283/5
f 115/283/6 116/283/6 134/283/6 133/283/6
f 117/283/5 116/283/5 134/283/5 135/283/5
f 117/283/6 118/283/6 136/283/6 135/283/6
f 119/283/5 118/283/5 136/283/5 137/283/5
f 119/283/6 120/283/6 138/283/6 137/283/6
f 121/283/5 120/283/5 138/283/5 139/283/5
f 109/284/6 110/109/6 128/132/6 127/285/6
f 121/283/6 122/283/6 140/283/6 139/283/6
f 123/286/5 122/283/5 140/283/5 141/287/5
f 123/286/6 124/288/6 142/289/6 141/287/6
f 125/290/5 124/288/5 142/289/5 143/291/5
f 125/290/6 126/292/6 144/293/6 143/291/6
f 109/284/5 126/292/5 144/293/5 127/285/5
f 111/283/6 112/283/6 130/283/6 129/283/6
f 113/283/5 112/283/5 130/283/5 131/283/5
f 113/283/6 114/283/6 132/283/6 131/283/6
f 34/294/1 33/82/1 124/83/1 125/295/1
f 72/73/2 42/130/2 127/131/2 144/76/2
f 3/99/2 21/296/2 112/297/2 111/100/2
f 60/298/1 59/66/1 131/67/1 132/299/1
f 34/294/2 35/300/2 126/301/2 125/295/2
f 22/302/1 21/296/1 112/297/1 113/303/1
f 60/298/2 61/304/2 133/305/2 132/299/2
f 36/107/1 35/300/1 126/301/1 109/110/1
f 22/302/2 23/306/2 114/307/2 113/303/2
f 1/108/2 2/308/2 146/309/2 145/310/2
f 62/311/1 61/304/1 133/305/1 134/312/1
f 24/313/1 23/306/1 114/307/1 115/314/1
f 62/311/2 63/315/2 135/316/2 134/312/2
f 24/313/2 25/317/2 116/318/2 115/314/2
f 64/319/1 63/315/1 135/316/1 136/320/1
f 26/321/1 25/317/1 116/318/1 117/322/1
f 64/319/2 65/323/2 137/324/2 136/320/2
f 26/321/2 27/214/2 118/215/2 117/322/2
f 66/203/1 65/323/1 137/324/1 138/204/1
f 145/310/4 146/325/4 148/326/4 147/327/4
f 148/282/4 146/328/4 149/90/4 150/89/4
f 145/310/4 147/327/4 151/329/4 152/330/4
f 2/263/2 75/87/2 149/90/2 146/328/2
f 38/331/1 37/129/1 147/327/1 148/332/1
f 110/109/2 1/108/2 145/310/2 152/330/2
f 128/132/6 110/109/6 152/330/6 151/329/6
f 37/129/1 128/132/1 151/329/1 147/327/1
f 153/333/3 154/334/3 156/335/3 155/336/3
f 153/337/3 155/210/3 158/209/3 157/338/3
f 156/339/3 154/102/3 159/101/3 160/174/3
f 74/119/2 4/118/2 153/337/2 157/338/2
f 41/340/1 40/341/1 155/342/1 156/343/1
f 129/86/1 41/85/1 156/339/1 160/174/1
f 4/344/2 3/345/2 154/346/2 153/347/2
f 92/146/5 74/119/5 157/338/5 158/209/5
f 13/348/3 163/349/3 167/350/3 51/351/3
f 174/352/4 170/353/4 181/354/4 183/355/4
f 27/356/4 162/357/4 166/358/4 64/359/4
f 172/360/3 176/361/3 184/362/3 182/363/3
f 52/364/2 51/365/2 167/366/2 165/367/2
f 162/13/1 164/16/1 178/368/1 177/369/1
f 14/370/1 161/371/1 163/372/1 13/373/1
f 166/374/4 162/375/4 177/376/4 179/377/4
f 11/176/3 171/378/3 175/379/3 49/380/3
f 170/17/1 172/20/1 182/381/1 181/382/1
f 29/383/4 170/384/4 174/385/4 66/386/4
f 168/45/2 166/44/2 179/387/2 180/388/2
f 50/389/2 49/390/2 175/391/2 173/392/2
f 176/49/2 174/48/2 183/393/2 184/381/2
f 12/394/1 169/395/1 171/396/1 11/397/1
f 164/398/3 168/399/3 180/400/3 178/401/3
f 163/372/1 161/371/1 185/402/1 186/403/1
f 165/367/2 167/366/2 188/404/2 187/405/2
f 171/396/1 169/395/1 189/406/1 190/407/1
f 167/408/3 163/409/3 186/410/3 188/411/3
f 173/392/2 175/391/2 192/412/2 191/406/2
f 175/413/3 171/414/3 190/415/3 192/416/3
f 161/417/4 165/418/4 187/419/4 185/420/4
f 169/421/4 173/422/4 191/423/4 189/424/4
f 198/425/3 194/426/3 196/427/3 200/428/3
f 201/429/4 193/430/4 195/431/4 203/432/4
f 199/433/2 200/434/2 196/435/2 195/436/2
f 197/437/1 193/438/1 194/439/1 198/440/1
f 205/441/1 197/437/1 198/440/1 206/442/1
f 207/443/2 208/444/2 200/434/2 199/433/2
f 206/445/3 198/425/3 200/428/3 208/446/3
f 193/447/4 197/448/4 199/449/4 195/450/4
f 31/451/4 201/193/4 203/452/4 68/453/4
f 194/426/3 202/205/3 204/208/3 196/427/3
f 195/436/2 196/435/2 204/52/2 203/51/2
f 193/438/1 201/21/1 202/24/1 194/439/1
f 9/334/3 206/445/3 208/446/3 47/454/3
f 48/455/2 47/456/2 208/444/2 207/443/2
f 10/457/1 205/441/1 206/442/1 9/458/1
f 197/459/4 205/460/4 207/461/4 199/462/4
f 214/463/3 210/464/3 212/465/3 216/466/3
f 25/467/4 209/468/4 211/469/4 62/470/4
f 215/471/2 216/472/2 212/41/2 211/40/2
f 213/473/1 209/9/1 210/12/1 214/474/1
f 217/475/1 213/473/1 214/474/1 218/476/1
f 219/477/2 220/478/2 216/472/2 215/471/2
f 218/479/3 214/480/3 216/481/3 220/482/3
f 209/468/4 213/483/4 215/484/4 211/469/4
f 222/485/3 218/486/3 220/487/3 224/488/3
f 223/489/2 224/490/2 220/478/2 219/477/2
f 221/491/1 217/475/1 218/476/1 222/492/1
f 213/483/4 217/493/4 219/494/4 215/484/4
f 16/495/1 221/491/1 222/492/1 15/496/1
f 54/497/2 53/498/2 224/490/2 223/489/2
f 15/190/3 222/499/3 224/500/3 53/501/3
f 217/493/4 221/165/4 223/168/4 219/494/4
f 218/502/7 185/503/7 187/504/7 220/505/7
f 220/506/1 187/507/1 165/508/1 224/509/1
f 222/510/2 161/511/2 185/512/2 218/513/2
f 161/514/8 222/515/8 224/516/8 165/517/8
f 210/518/9 162/519/9 166/520/9 212/521/9
f 216/522/2 179/523/2 166/524/2 212/525/2
f 214/526/10 177/527/10 179/528/10 216/529/10
f 210/530/1 162/531/1 177/532/1 214/533/1
f 186/534/5 185/535/5 187/536/5 188/537/5
f 189/538/11 186/539/11 188/540/11 191/541/11
f 173/542/1 167/543/1 188/544/1 191/545/1
f 189/545/2 186/544/2 163/546/2 169/547/2
f 169/541/11 163/540/11 167/548/11 173/549/11
f 177/377/6 178/355/6 180/550/6 179/551/6
f 168/552/12 164/553/12 170/554/12 174/555/12
f 183/556/1 180/557/1 168/558/1 174/559/1
f 181/554/13 178/553/13 180/560/13 183/561/13
f 170/450/2 164/562/2 178/563/2 181/564/2
f 197/565/14 199/566/14 192/567/14 190/568/14
f 197/569/2 190/570/2 171/571/2 205/572/2
f 205/567/15 171/573/15 175/574/15 207/568/15
f 207/575/1 175/576/1 192/577/1 199/578/1
f 203/579/16 201/580/16 172/581/16 176/582/16
f 203/583/2 176/584/2 184/585/2 195/586/2
f 193/587/1 182/588/1 172/589/1 201/590/1
f 182/591/17 193/592/17 195/593/17 184/594/17
f 190/595/5 189/596/5 191/597/5 192/598/5
f 181/599/6 182/377/6 184/551/6 183/600/6
