# Blender 4.1.0
# www.blender.org
mtllib vana.mtl
o vanec
v 93.249420 1.170605 0.712417
v 93.258049 1.348959 0.742213
v 93.288124 1.170605 0.785970
v 93.289803 1.348959 0.797516
v 93.175865 1.170605 0.751121
v 93.117348 1.348959 0.791398
v 93.214569 1.170605 0.824674
v 93.183517 1.348959 0.890068
v 91.976097 1.340880 1.577375
v 92.006035 1.857614 1.512586
v 91.976097 1.340880 0.723633
v 92.006035 1.857614 0.788051
v 93.259743 1.340880 1.577375
v 93.227295 1.857614 1.512586
v 93.259743 1.340880 0.723633
v 93.227295 1.857614 0.788051
v 91.875084 1.857614 1.643539
v 91.875084 1.857614 0.657098
v 93.358246 1.857614 0.657098
v 93.358246 1.857614 1.643539
v 93.227295 1.501050 0.788051
v 92.006035 1.501050 0.788051
v 92.006035 1.501050 1.512586
v 93.227295 1.501050 1.512586
v 91.802284 1.340880 1.154083
v 91.674248 1.857614 1.154454
v 93.482025 1.340880 1.154083
v 93.615082 1.857614 1.154453
v 91.805199 1.857614 1.153356
v 93.484131 1.857614 1.153355
v 91.872253 1.501050 1.153356
v 93.484131 1.501050 1.153355
v 91.875084 1.474277 1.643539
v 91.875084 1.474277 0.657098
v 93.358246 1.474277 0.657098
v 93.358246 1.474277 1.643539
v 93.615082 1.474277 1.154453
v 91.674248 1.474277 1.154453
v 91.963623 1.170605 0.771843
v 91.993973 1.348959 0.765440
v 92.039841 1.170605 0.738690
v 92.051476 1.348959 0.737869
v 91.996773 1.170605 0.848060
v 92.032608 1.348959 0.909395
v 92.072990 1.170605 0.814907
v 92.135910 1.348959 0.850718
v 92.022911 1.169920 1.573890
v 92.014259 1.348274 1.544099
v 91.984169 1.169920 1.500357
v 91.982483 1.348274 1.488812
v 92.096443 1.169920 1.535148
v 92.154938 1.348274 1.494841
v 92.057701 1.169920 1.461615
v 92.088722 1.348274 1.396206
v 93.297447 1.169920 1.486857
v 93.273987 1.348274 1.507156
v 93.246811 1.169920 1.552767
v 93.237030 1.348274 1.559120
v 93.231537 1.169920 1.436222
v 93.170486 1.348274 1.399906
v 93.180901 1.169920 1.502132
v 93.108513 1.348274 1.501261
vn 0.8770 0.0302 -0.4795
vn 0.5849 -0.1247 0.8014
vn -0.8014 -0.3458 0.4880
vn -0.3764 0.1276 -0.9176
vn -0.0000 -1.0000 -0.0000
vn -0.0000 1.0000 -0.0000
vn -0.9273 -0.0000 -0.3744
vn -0.0000 -0.0000 -1.0000
vn 0.8854 -0.0000 0.4649
vn -0.0000 -0.0000 1.0000
vn 0.9059 0.0852 0.4149
vn -0.8135 -0.0000 -0.5816
vn -0.8181 -0.0000 0.5751
vn 0.9032 0.0849 -0.4207
vn 0.8885 -0.0000 -0.4588
vn -0.9250 -0.0000 0.3799
vn -0.6914 -0.6644 0.2839
vn 0.6654 -0.6627 -0.3436
vn -0.0000 -0.4443 0.8959
vn 0.6632 -0.6625 0.3483
vn -0.0000 -0.4463 -0.8949
vn -0.6930 -0.6644 -0.2798
vn -0.4133 0.0302 -0.9101
vn 0.8425 -0.1247 -0.5240
vn 0.4273 -0.3458 0.8354
vn -0.9430 0.1276 0.3075
vn -0.8768 0.0302 0.4800
vn -0.5853 -0.1247 -0.8011
vn 0.8012 -0.3458 -0.4884
vn 0.3769 0.1276 0.9174
vn 0.8023 0.0302 0.5962
vn -0.4835 -0.1247 0.8664
vn -0.7784 -0.3458 -0.5240
vn 0.6762 0.1276 -0.7256
vt 0.483536 0.525453
vt 0.475995 0.525453
vt 0.475995 0.522423
vt 0.483536 0.522423
vt 0.475995 0.518460
vt 0.483536 0.518460
vt 0.475995 0.515430
vt 0.483536 0.515430
vt 0.483536 0.529416
vt 0.475995 0.529416
vt 0.487425 0.518526
vt 0.487425 0.522030
vt 0.483920 0.522030
vt 0.483920 0.518526
vt 0.488130 0.529775
vt 0.488130 0.523786
vt 0.491975 0.523786
vt 0.491975 0.529775
vt 0.499665 0.552326
vt 0.499665 0.549108
vt 0.504041 0.549108
vt 0.504041 0.552326
vt 0.516607 0.549108
vt 0.516607 0.552326
vt 0.478463 0.552326
vt 0.478463 0.549108
vt 0.482782 0.549108
vt 0.482782 0.552326
vt 0.495347 0.549108
vt 0.495347 0.552326
vt 0.499922 0.514589
vt 0.499922 0.526901
vt 0.495556 0.526901
vt 0.495556 0.514589
vt 0.517148 0.546520
vt 0.521142 0.546520
vt 0.521142 0.547563
vt 0.517148 0.547563
vt 0.482331 0.546520
vt 0.493800 0.546520
vt 0.493800 0.547563
vt 0.482331 0.547563
vt 0.497795 0.546520
vt 0.501737 0.546520
vt 0.501737 0.547563
vt 0.497795 0.547563
vt 0.513206 0.546520
vt 0.513206 0.547563
vt 0.497795 0.544288
vt 0.497795 0.535613
vt 0.501737 0.535613
vt 0.501737 0.544288
vt 0.482331 0.544288
vt 0.493800 0.544288
vt 0.478336 0.546520
vt 0.478336 0.544288
vt 0.513206 0.544288
vt 0.501737 0.533381
vt 0.497795 0.533381
vt 0.493800 0.535613
vt 0.504347 0.514589
vt 0.504347 0.526901
vt 0.520983 0.549108
vt 0.520983 0.552326
vt 0.482850 0.526901
vt 0.482850 0.528512
vt 0.478484 0.528512
vt 0.478484 0.526901
vt 0.504347 0.528512
vt 0.499922 0.528512
vt 0.495556 0.528512
vt 0.517053 0.526901
vt 0.517053 0.528512
vt 0.521478 0.526901
vt 0.521478 0.528512
s 0
usemtl Material.002
f 1/1/1 2/2/1 4/3/1 3/4/1
f 3/4/2 4/3/2 8/5/2 7/6/2
f 7/6/3 8/5/3 6/7/3 5/8/3
f 5/9/4 6/10/4 2/2/4 1/1/4
f 3/11/5 7/12/5 5/13/5 1/14/5
f 8/15/6 4/16/6 2/17/6 6/18/6
f 39/1/23 40/2/23 42/3/23 41/4/23
f 41/4/24 42/3/24 46/5/24 45/6/24
f 45/6/25 46/5/25 44/7/25 43/8/25
f 43/9/26 44/10/26 40/2/26 39/1/26
f 41/11/5 45/12/5 43/13/5 39/14/5
f 46/15/6 42/16/6 40/17/6 44/18/6
f 47/1/27 48/2/27 50/3/27 49/4/27
f 49/4/28 50/3/28 54/5/28 53/6/28
f 53/6/29 54/5/29 52/7/29 51/8/29
f 51/9/30 52/10/30 48/2/30 47/1/30
f 49/11/5 53/12/5 51/13/5 47/14/5
f 54/15/6 50/16/6 48/17/6 52/18/6
f 55/1/31 56/2/31 58/3/31 57/4/31
f 57/4/32 58/3/32 62/5/32 61/6/32
f 61/6/33 62/5/33 60/7/33 59/8/33
f 59/9/34 60/10/34 56/2/34 55/1/34
f 57/11/5 61/12/5 59/13/5 55/14/5
f 62/15/6 58/16/6 56/17/6 60/18/6
usemtl Material.001
f 38/19/7 26/20/7 18/21/7 34/22/7
f 34/22/8 18/21/8 19/23/8 35/24/8
f 37/25/9 28/26/9 20/27/9 36/28/9
f 36/28/10 20/27/10 17/29/10 33/30/10
f 25/31/5 27/32/5 13/33/5 9/34/5
f 29/35/6 12/36/6 18/37/6 26/38/6
f 12/39/6 16/40/6 19/41/6 18/42/6
f 30/43/6 14/44/6 20/45/6 28/46/6
f 14/44/6 10/47/6 17/48/6 20/45/6
f 32/49/6 31/50/6 23/51/6 24/52/6
f 12/39/10 22/53/10 21/54/10 16/40/10
f 29/55/11 31/56/11 22/53/11 12/39/11
f 14/44/8 24/52/8 23/57/8 10/47/8
f 30/43/12 32/49/12 24/52/12 14/44/12
f 16/40/13 21/54/13 32/49/13 30/43/13
f 10/58/14 23/51/14 31/50/14 29/59/14
f 21/54/6 22/60/6 31/50/6 32/49/6
f 16/40/6 30/43/6 28/46/6 19/41/6
f 10/47/6 29/35/6 26/38/6 17/48/6
f 11/61/5 15/62/5 27/32/5 25/31/5
f 35/24/15 19/23/15 28/63/15 37/64/15
f 33/30/16 17/29/16 26/20/16 38/19/16
f 9/65/17 33/66/17 38/67/17 25/68/17
f 15/62/18 35/69/18 37/70/18 27/32/18
f 13/33/19 36/71/19 33/66/19 9/65/19
f 27/32/20 37/70/20 36/71/20 13/33/20
f 11/72/21 34/73/21 35/69/21 15/62/21
f 25/74/22 38/75/22 34/73/22 11/72/22
