# Blender 4.1.0
# www.blender.org
mtllib pivko.mtl
o pivec
v 102.288979 1.519709 -1.451964
v 102.288979 1.671754 -1.451964
v 102.270340 1.519709 -1.399957
v 102.270340 1.671754 -1.399957
v 102.215118 1.519709 -1.401611
v 102.215118 1.671754 -1.401611
v 102.199623 1.519709 -1.454639
v 102.199623 1.671754 -1.454639
v 102.245270 1.519709 -1.485759
v 102.245270 1.671754 -1.485759
v 102.288979 1.667913 -1.451964
v 102.270340 1.667913 -1.399957
v 102.215118 1.667913 -1.401611
v 102.199623 1.667913 -1.454639
v 102.245270 1.667913 -1.485759
v 102.265816 1.676996 -1.406592
v 102.281265 1.676996 -1.449712
v 102.220032 1.676996 -1.407963
v 102.207184 1.676996 -1.451930
v 102.245033 1.676996 -1.477733
v 102.285561 1.513114 -1.450968
v 102.268333 1.513114 -1.402893
v 102.217293 1.513114 -1.404421
v 102.202972 1.513114 -1.453441
v 102.245163 1.513114 -1.482208
v 102.288994 1.509925 -1.451970
v 102.270348 1.509925 -1.399940
v 102.215103 1.509925 -1.401595
v 102.199608 1.509925 -1.454646
v 102.245270 1.509925 -1.485779
vn 0.9414 -0.0000 0.3373
vn -0.0299 -0.0000 0.9996
vn -0.9599 -0.0000 0.2804
vn -0.3537 0.7782 -0.5189
vn -0.5633 -0.0000 -0.8262
vn 0.6117 -0.0000 -0.7911
vn 0.5608 -0.3996 -0.7252
vn -0.0000 1.0000 -0.0000
vn -0.0188 0.7782 0.6277
vn 0.3841 0.7782 -0.4968
vn 0.5912 0.7782 0.2118
vn -0.6028 0.7782 0.1761
vn 0.6975 0.6716 0.2499
vn 0.8630 -0.3996 0.3092
vn -0.8799 -0.3996 0.2571
vn -0.5164 -0.3996 -0.7574
vn -0.0274 -0.3996 0.9163
vn -0.0000 -1.0000 -0.0000
vn -0.4174 0.6716 -0.6122
vn -0.0222 0.6716 0.7406
vn 0.4533 0.6716 -0.5861
vn -0.7112 0.6716 0.2078
vt 0.489316 0.030392
vt 0.489316 0.000881
vt 0.580399 0.000881
vt 0.580399 0.030392
vt 0.124984 0.030392
vt 0.124984 0.000881
vt 0.216067 0.000881
vt 0.216067 0.030392
vt 0.307150 0.000881
vt 0.307150 0.030392
vt 0.638077 0.997972
vt 0.638077 0.915171
vt 0.650588 0.922245
vt 0.650588 0.990898
vt 0.398233 0.000881
vt 0.398233 0.030392
vt 0.143726 0.096854
vt 0.002534 0.096854
vt 0.143726 0.909995
vt 0.002534 0.909995
vt 0.285302 0.096854
vt 0.285302 0.909995
vt 0.144110 0.909995
vt 0.144110 0.096854
vt 0.426879 0.096854
vt 0.426879 0.909995
vt 0.285687 0.909995
vt 0.285687 0.096854
vt 0.568455 0.096854
vt 0.568455 0.909995
vt 0.427263 0.909995
vt 0.427263 0.096854
vt 0.710031 0.096854
vt 0.710031 0.909995
vt 0.568839 0.909995
vt 0.568839 0.096854
vt 0.999915 0.398953
vt 0.906726 0.527217
vt 0.755944 0.478224
vt 0.755944 0.319682
vt 0.906726 0.270690
vt 0.625116 0.915171
vt 0.625115 0.997972
vt 0.612605 0.990898
vt 0.612605 0.922245
vt 0.663324 0.915171
vt 0.663324 0.997972
vt 0.650814 0.990898
vt 0.650814 0.922245
vt 0.625341 0.997972
vt 0.625341 0.915171
vt 0.637852 0.922245
vt 0.637852 0.990898
vt 0.676061 0.915171
vt 0.676061 0.997972
vt 0.663550 0.990898
vt 0.663550 0.922245
vt 0.903491 0.151335
vt 0.944762 0.489701
vt 0.892656 0.716999
vt 0.819182 0.519111
vt 0.825879 0.169511
s 0
usemtl pivecko_hmmmm_
f 11/1/1 2/2/1 4/3/1 12/4/1
f 12/5/2 4/6/2 6/7/2 13/8/2
f 13/8/3 6/7/3 8/9/3 14/10/3
f 10/11/4 8/12/4 19/13/4 20/14/4
f 14/10/5 8/9/5 10/15/5 15/16/5
f 15/16/6 10/15/6 2/2/6 11/1/6
f 9/17/7 1/18/7 21/18/7 25/17/7
f 9/17/6 15/19/6 11/20/6 1/18/6
f 7/21/5 14/22/5 15/23/5 9/24/5
f 5/25/3 13/26/3 14/27/3 7/28/3
f 3/29/2 12/30/2 13/31/2 5/32/2
f 1/33/1 11/34/1 12/35/1 3/36/1
f 16/37/8 17/38/8 20/39/8 19/40/8 18/41/8
f 6/42/9 4/43/9 16/44/9 18/45/9
f 2/46/10 10/47/10 20/48/10 17/49/10
f 4/50/11 2/51/11 17/52/11 16/53/11
f 8/54/12 6/55/12 18/56/12 19/57/12
f 21/33/13 22/36/13 27/36/13 26/33/13
f 1/33/14 3/36/14 22/36/14 21/33/14
f 5/25/15 7/28/15 24/28/15 23/25/15
f 7/21/16 9/24/16 25/24/16 24/21/16
f 3/29/17 5/32/17 23/32/17 22/29/17
f 26/58/18 27/59/18 28/60/18 29/61/18 30/62/18
f 24/21/19 25/24/19 30/24/19 29/21/19
f 22/29/20 23/32/20 28/32/20 27/29/20
f 25/17/21 21/18/21 26/18/21 30/17/21
f 23/25/22 24/28/22 29/28/22 28/25/22
