# Blender 4.1.0
# www.blender.org
mtllib tabula.mtl
o korkova_tabula
v 104.471916 1.361498 -1.490052
v 104.471916 1.897547 -1.490052
v 104.415581 1.305161 -1.537701
v 104.415581 1.953883 -1.537701
v 105.514435 1.361498 -1.490052
v 105.514435 1.897547 -1.490052
v 105.570778 1.305161 -1.537701
v 105.570778 1.953883 -1.537701
v 104.415581 1.305161 -1.490052
v 104.415581 1.953883 -1.490052
v 105.570778 1.953883 -1.490052
v 105.570778 1.305161 -1.490052
vn -1.0000 -0.0000 -0.0000
vn -0.0000 -0.0000 -1.0000
vn 1.0000 -0.0000 -0.0000
vn -0.0000 -0.0000 1.0000
vn -0.0000 -1.0000 -0.0000
vn -0.0000 1.0000 -0.0000
vt 0.023956 0.498840
vt 0.118510 0.700073
vt 0.106700 0.716659
vt 0.000143 0.499574
vt 0.879333 0.525477
vt 0.584320 0.525477
vt 0.584320 0.000143
vt 0.879333 0.000143
vt 0.226619 0.064605
vt 0.585743 0.000143
vt 0.591417 0.034428
vt 0.243847 0.087791
vt 0.707359 0.528223
vt 0.951132 0.528223
vt 0.951132 1.002318
vt 0.707359 1.002318
vt 0.587218 0.818462
vt 0.591417 0.798642
vt 0.048031 0.499968
vt 0.136621 0.677825
vt 0.564607 0.070823
vt 0.263907 0.116425
vt 0.572830 0.770084
s 0
usemtl Material.020
f 9/1/1 10/2/1 4/3/1 3/4/1
f 3/5/2 4/6/2 8/7/2 7/8/2
f 7/9/3 8/10/3 11/11/3 12/12/3
f 3/4/5 7/9/5 12/12/5 9/1/5
f 8/17/6 4/3/6 10/2/6 11/18/6
f 1/19/4 2/20/4 10/2/4 9/1/4
f 6/21/4 5/22/4 12/12/4 11/11/4
f 5/22/4 1/19/4 9/1/4 12/12/4
f 2/20/4 6/23/4 11/18/4 10/2/4
usemtl Material.021
f 5/13/4 6/14/4 2/15/4 1/16/4
