# Blender 4.1.0
# www.blender.org
mtllib krabica na naboje.mtl
o krabica_s_nabojama
v 157.620316 1.177074 -1.381590
v 157.620316 1.245356 -1.381590
v 157.620316 1.177074 -1.541548
v 157.620316 1.245356 -1.541548
v 157.869598 1.177074 -1.381590
v 157.869598 1.245356 -1.381590
v 157.869598 1.177074 -1.541548
v 157.869598 1.245356 -1.541548
vn -1.0000 -0.0000 -0.0000
vn -0.0000 -0.0000 -1.0000
vn 1.0000 -0.0000 -0.0000
vn -0.0000 -0.0000 1.0000
vn -0.0000 -1.0000 -0.0000
vn -0.0000 1.0000 -0.0000
vt 0.409531 0.515819
vt 0.409531 0.616056
vt 0.174712 0.616056
vt 0.174712 0.515819
vt 0.349780 0.522843
vt 0.349780 0.608152
vt 0.038332 0.608152
vt 0.038332 0.522843
vt 0.928638 0.525345
vt 0.928638 0.595371
vt 0.764592 0.595371
vt 0.764592 0.525345
vt 0.768646 0.515562
vt 0.768647 0.613821
vt 0.409918 0.613821
vt 0.409918 0.515562
vt 0.519804 0.415678
vt 0.071546 0.415678
vt 0.071546 0.128045
vt 0.519804 0.128045
vt 0.444404 0.939822
vt 0.047281 0.939822
vt 0.047281 0.685000
vt 0.444405 0.685000
s 0
g krabica_s_nabojama_Material.050
usemtl Material.050
f 1/1/1 2/2/1 4/3/1 3/4/1
f 3/5/2 4/6/2 8/7/2 7/8/2
f 7/9/3 8/10/3 6/11/3 5/12/3
f 5/13/4 6/14/4 2/15/4 1/16/4
f 3/17/5 7/18/5 5/19/5 1/20/5
f 8/21/6 4/22/6 2/23/6 6/24/6
