# Blender 4.1.0
# www.blender.org
mtllib bus.mtl
o bus
v 155.428787 1.443434 2.049008
v 155.428787 4.201855 2.049008
v 155.428787 1.443434 -4.907088
v 155.428787 4.201855 -4.907088
v 158.187210 1.443434 2.049008
v 158.187210 4.201855 2.049008
v 158.187210 1.443434 -4.907088
v 158.187210 4.201855 -4.907088
v 155.746536 1.180276 1.105471
v 155.779922 1.421578 1.105471
v 155.746536 1.421578 1.346773
v 155.779922 1.832685 1.105471
v 155.746536 2.073987 1.105471
v 155.746536 1.832685 1.346773
v 155.335419 1.180276 1.105471
v 155.335419 1.421578 1.346773
v 155.296143 1.421578 1.105471
v 155.335419 2.073987 1.105471
v 155.296143 1.832685 1.105471
v 155.335419 1.832685 1.346773
v 155.746536 1.180276 0.694364
v 155.746536 1.421578 0.453062
v 155.779922 1.421578 0.694364
v 155.746536 2.073987 0.694364
v 155.779922 1.832685 0.694364
v 155.746536 1.832685 0.453062
v 155.335419 1.180276 0.694364
v 155.296143 1.421578 0.694364
v 155.335419 1.421578 0.453062
v 155.335419 2.073987 0.694364
v 155.335419 1.832685 0.453062
v 155.296143 1.832685 0.694364
v 155.746536 1.180276 -3.365043
v 155.779922 1.421578 -3.365043
v 155.746536 1.421578 -3.123741
v 155.779922 1.832685 -3.365043
v 155.746536 2.073987 -3.365043
v 155.746536 1.832685 -3.123741
v 155.335419 1.180276 -3.365043
v 155.335419 1.421578 -3.123741
v 155.296143 1.421578 -3.365043
v 155.335419 2.073987 -3.365043
v 155.296143 1.832685 -3.365043
v 155.335419 1.832685 -3.123741
v 155.746536 1.180276 -3.776150
v 155.746536 1.421578 -4.017453
v 155.779922 1.421578 -3.776150
v 155.746536 2.073987 -3.776150
v 155.779922 1.832685 -3.776150
v 155.746536 1.832685 -4.017453
v 155.335419 1.180276 -3.776150
v 155.296143 1.421578 -3.776150
v 155.335419 1.421578 -4.017453
v 155.335419 2.073987 -3.776150
v 155.335419 1.832685 -4.017453
v 155.296143 1.832685 -3.776150
v 158.307449 1.180276 -3.365043
v 158.340851 1.421578 -3.365043
v 158.307449 1.421578 -3.123741
v 158.340851 1.832685 -3.365043
v 158.307449 2.073987 -3.365043
v 158.307449 1.832685 -3.123741
v 157.896347 1.180276 -3.365043
v 157.896347 1.421578 -3.123741
v 157.857056 1.421578 -3.365043
v 157.896347 2.073987 -3.365043
v 157.857056 1.832685 -3.365043
v 157.896347 1.832685 -3.123741
v 158.307449 1.180276 -3.776150
v 158.307449 1.421578 -4.017453
v 158.340851 1.421578 -3.776150
v 158.307449 2.073987 -3.776150
v 158.340851 1.832685 -3.776150
v 158.307449 1.832685 -4.017453
v 157.896347 1.180276 -3.776150
v 157.857056 1.421578 -3.776150
v 157.896347 1.421578 -4.017453
v 157.896347 2.073987 -3.776150
v 157.896347 1.832685 -4.017453
v 157.857056 1.832685 -3.776150
v 158.308578 1.180276 0.823083
v 158.341980 1.421578 0.823083
v 158.308578 1.421578 1.064385
v 158.341980 1.832686 0.823083
v 158.308578 2.073988 0.823083
v 158.308578 1.832686 1.064385
v 157.897476 1.180276 0.823083
v 157.897476 1.421578 1.064385
v 157.858185 1.421578 0.823083
v 157.897476 2.073988 0.823083
v 157.858185 1.832686 0.823083
v 157.897476 1.832686 1.064385
v 158.308578 1.180276 0.411976
v 158.308578 1.421578 0.170674
v 158.341980 1.421578 0.411976
v 158.308578 2.073988 0.411976
v 158.341980 1.832686 0.411976
v 158.308578 1.832686 0.170674
v 157.897476 1.180276 0.411976
v 157.858185 1.421578 0.411976
v 157.897476 1.421578 0.170674
v 157.897476 2.073988 0.411976
v 157.897476 1.832686 0.170674
v 157.858185 1.832686 0.411976
v 156.369125 4.089439 -3.124815
v 156.369125 4.199163 -3.015091
v 156.259399 4.199163 -3.124815
v 156.369125 4.471559 -3.015091
v 156.369125 4.581282 -3.124815
v 156.259399 4.471559 -3.124815
v 156.369125 4.089439 -4.226991
v 156.259399 4.199163 -4.226991
v 156.369125 4.199163 -4.336715
v 156.369125 4.581282 -4.226991
v 156.369125 4.471559 -4.336715
v 156.259399 4.471559 -4.226991
v 157.561569 4.089439 -3.124815
v 157.671295 4.199163 -3.124815
v 157.561569 4.199163 -3.015091
v 157.561569 4.581282 -3.124815
v 157.561569 4.471559 -3.015091
v 157.671295 4.471559 -3.124815
v 157.561569 4.089439 -4.226991
v 157.561569 4.199163 -4.336715
v 157.671295 4.199163 -4.226991
v 157.561569 4.581282 -4.226991
v 157.671295 4.471559 -4.226991
v 157.561569 4.471559 -4.336715
vn -1.0000 -0.0000 -0.0000
vn -0.0000 -0.0000 -1.0000
vn 1.0000 -0.0000 -0.0000
vn -0.0000 -0.0000 1.0000
vn -0.0000 -1.0000 -0.0000
vn -0.0000 1.0000 -0.0000
vn 0.9814 -0.1358 0.1358
vn 0.9814 0.1358 0.1358
vn -0.9745 -0.1587 0.1587
vn -0.9745 0.1587 0.1587
vn 0.9814 -0.1358 -0.1358
vn 0.9814 0.1358 -0.1358
vn -0.9745 -0.1587 -0.1587
vn -0.9745 0.1587 -0.1587
vn -0.0000 -0.7071 0.7071
vn 0.9906 -0.0000 0.1371
vn -0.0000 0.7071 0.7071
vn -0.9870 -0.0000 0.1607
vn -0.9870 -0.1607 -0.0000
vn -0.9870 0.1607 -0.0000
vn -0.9870 -0.0000 -0.1607
vn -0.0000 -0.7071 -0.7071
vn -0.0000 0.7071 -0.7071
vn 0.9906 -0.0000 -0.1371
vn 0.9906 -0.1371 -0.0000
vn 0.9906 0.1371 -0.0000
vn -0.5774 -0.5773 0.5774
vn -0.5774 0.5773 0.5774
vn -0.5774 -0.5774 -0.5773
vn -0.5773 0.5774 -0.5773
vn 0.5773 -0.5773 0.5774
vn 0.5774 0.5773 0.5774
vn 0.5774 -0.5773 -0.5774
vn 0.5774 0.5774 -0.5774
vn -0.7071 -0.7071 -0.0000
vn -0.7071 -0.0000 0.7071
vn -0.7071 0.7071 -0.0000
vn -0.7071 -0.0000 -0.7071
vn 0.7071 -0.0000 -0.7071
vn 0.7071 -0.7071 -0.0000
vn 0.7071 0.7071 -0.0000
vn 0.7071 -0.0000 0.7071
vt 0.058230 0.457829
vt 0.058230 0.295484
vt 0.467626 0.295484
vt 0.467626 0.457829
vt 0.465825 0.818929
vt 0.618629 0.818929
vt 0.618629 0.971733
vt 0.465825 0.971733
vt 0.490742 0.452983
vt 0.490742 0.292210
vt 0.896174 0.292210
vt 0.896174 0.452983
vt 0.461423 0.627968
vt 0.619340 0.627968
vt 0.619340 0.785886
vt 0.461423 0.785886
vt 0.041939 0.971702
vt 0.041939 0.818500
vt 0.428277 0.818500
vt 0.428277 0.971701
vt 0.431295 0.629986
vt 0.431295 0.786177
vt 0.037419 0.786177
vt 0.037419 0.629986
vt 0.298520 0.172447
vt 0.383598 0.173333
vt 0.383187 0.258411
vt 0.298109 0.257524
vt 0.082975 0.349790
vt 0.082975 0.267712
vt 0.165053 0.267712
vt 0.165053 0.349790
vt 0.082975 0.800420
vt 0.082975 0.718342
vt 0.165053 0.718342
vt 0.165053 0.800420
vt 0.165053 0.568132
vt 0.165053 0.650210
vt 0.082975 0.650210
vt 0.082975 0.568132
vt 0.429550 0.518823
vt 0.430228 0.433371
vt 0.515679 0.433683
vt 0.515001 0.519135
vt 0.244362 0.259283
vt 0.296228 0.311759
vt 0.437346 0.260190
vt 0.384880 0.312077
vt 0.428196 0.572169
vt 0.376578 0.520112
vt 0.428889 0.380336
vt 0.376822 0.431941
vt 0.244362 0.170667
vt 0.296828 0.118781
vt 0.437346 0.171574
vt 0.385479 0.119098
vt 0.516339 0.572169
vt 0.568406 0.520565
vt 0.517032 0.380336
vt 0.568650 0.432394
vt 0.082975 0.500000
vt 0.165053 0.500000
vt 0.165053 0.417922
vt 0.082975 0.417922
vt 0.082975 0.199580
vt 0.165053 0.199580
vt 0.392863 0.905994
vt 0.395217 0.906052
vt 0.395569 0.917708
vt 0.392511 0.917715
vt 0.392886 0.895523
vt 0.395146 0.895600
vt 0.395183 0.904728
vt 0.392856 0.904660
vt 0.408846 0.636329
vt 0.408234 0.784428
vt 0.271348 0.783863
vt 0.271960 0.635764
vt 0.392584 0.872821
vt 0.395321 0.872876
vt 0.395219 0.883138
vt 0.392809 0.883062
vt 0.392845 0.884391
vt 0.395201 0.884470
vt 0.395141 0.894362
vt 0.392878 0.894286
vt 0.390916 0.872509
vt 0.392281 0.871161
vt 0.395569 0.871082
vt 0.397040 0.872491
vt 0.391309 0.883761
vt 0.396738 0.883828
vt 0.391297 0.905314
vt 0.396724 0.905348
vt 0.391494 0.894908
vt 0.396529 0.894980
vt 0.390904 0.917664
vt 0.397278 0.917650
vt 0.172454 0.756419
vt 0.172454 0.667765
vt 0.254397 0.667765
vt 0.254397 0.756419
s 0
g bus_Material.027
usemtl Material.027
f 1/1/1 2/2/1 4/3/1 3/4/1
f 3/5/2 4/6/2 8/7/2 7/8/2
f 7/9/3 8/10/3 6/11/3 5/12/3
f 5/13/4 6/14/4 2/15/4 1/16/4
f 3/17/5 7/18/5 5/19/5 1/20/5
f 8/21/6 4/22/6 2/23/6 6/24/6
g bus_Material.029
usemtl Material.029
f 23/25/3 25/26/3 12/27/3 10/28/3
f 29/29/2 31/30/2 26/31/2 22/32/2
f 30/33/6 18/34/6 13/35/6 24/36/6
f 11/37/4 14/38/4 20/39/4 16/40/4
f 17/41/1 19/42/1 32/43/1 28/44/1
f 9/45/7 10/28/7 11/46/7
f 12/27/8 13/47/8 14/48/8
f 15/49/9 16/50/9 17/41/9
f 18/51/10 19/42/10 20/52/10
f 21/53/11 22/54/11 23/25/11
f 24/55/12 25/26/12 26/56/12
f 27/57/13 28/44/13 29/58/13
f 30/59/14 31/60/14 32/43/14
f 15/61/15 9/62/15 11/37/15 16/40/15
f 10/28/16 12/27/16 14/48/16 11/46/16
f 13/35/17 18/34/17 20/39/17 14/38/17
f 19/42/18 17/41/18 16/50/18 20/52/18
f 27/57/19 15/49/19 17/41/19 28/44/19
f 18/51/20 30/59/20 32/43/20 19/42/20
f 31/60/21 29/58/21 28/44/21 32/43/21
f 21/63/22 27/64/22 29/29/22 22/32/22
f 30/65/23 24/66/23 26/31/23 31/30/23
f 25/26/24 23/25/24 22/54/24 26/56/24
f 9/45/25 21/53/25 23/25/25 10/28/25
f 24/55/26 13/47/26 12/27/26 25/26/26
f 15/61/5 27/64/5 21/63/5 9/62/5
f 47/25/3 49/26/3 36/27/3 34/28/3
f 53/29/2 55/30/2 50/31/2 46/32/2
f 54/33/6 42/34/6 37/35/6 48/36/6
f 35/37/4 38/38/4 44/39/4 40/40/4
f 41/41/1 43/42/1 56/43/1 52/44/1
f 33/45/7 34/28/7 35/46/7
f 36/27/8 37/47/8 38/48/8
f 39/49/9 40/50/9 41/41/9
f 42/51/10 43/42/10 44/52/10
f 45/53/11 46/54/11 47/25/11
f 48/55/12 49/26/12 50/56/12
f 51/57/13 52/44/13 53/58/13
f 54/59/14 55/60/14 56/43/14
f 39/61/15 33/62/15 35/37/15 40/40/15
f 34/28/16 36/27/16 38/48/16 35/46/16
f 37/35/17 42/34/17 44/39/17 38/38/17
f 43/42/18 41/41/18 40/50/18 44/52/18
f 51/57/19 39/49/19 41/41/19 52/44/19
f 42/51/20 54/59/20 56/43/20 43/42/20
f 55/60/21 53/58/21 52/44/21 56/43/21
f 45/63/22 51/64/22 53/29/22 46/32/22
f 54/65/23 48/66/23 50/31/23 55/30/23
f 49/26/24 47/25/24 46/54/24 50/56/24
f 33/45/25 45/53/25 47/25/25 34/28/25
f 48/55/26 37/47/26 36/27/26 49/26/26
f 39/61/5 51/64/5 45/63/5 33/62/5
f 71/25/3 73/26/3 60/27/3 58/28/3
f 77/29/2 79/30/2 74/31/2 70/32/2
f 78/33/6 66/34/6 61/35/6 72/36/6
f 59/37/4 62/38/4 68/39/4 64/40/4
f 65/41/1 67/42/1 80/43/1 76/44/1
f 57/45/7 58/28/7 59/46/7
f 60/27/8 61/47/8 62/48/8
f 63/49/9 64/50/9 65/41/9
f 66/51/10 67/42/10 68/52/10
f 69/53/11 70/54/11 71/25/11
f 72/55/12 73/26/12 74/56/12
f 75/57/13 76/44/13 77/58/13
f 78/59/14 79/60/14 80/43/14
f 63/61/15 57/62/15 59/37/15 64/40/15
f 58/28/16 60/27/16 62/48/16 59/46/16
f 61/35/17 66/34/17 68/39/17 62/38/17
f 67/42/18 65/41/18 64/50/18 68/52/18
f 75/57/19 63/49/19 65/41/19 76/44/19
f 66/51/20 78/59/20 80/43/20 67/42/20
f 79/60/21 77/58/21 76/44/21 80/43/21
f 69/63/22 75/64/22 77/29/22 70/32/22
f 78/65/23 72/66/23 74/31/23 79/30/23
f 73/26/24 71/25/24 70/54/24 74/56/24
f 57/45/25 69/53/25 71/25/25 58/28/25
f 72/55/26 61/47/26 60/27/26 73/26/26
f 63/61/5 75/64/5 69/63/5 57/62/5
f 95/25/3 97/26/3 84/27/3 82/28/3
f 101/29/2 103/30/2 98/31/2 94/32/2
f 102/33/6 90/34/6 85/35/6 96/36/6
f 83/37/4 86/38/4 92/39/4 88/40/4
f 89/41/1 91/42/1 104/43/1 100/44/1
f 81/45/7 82/28/7 83/46/7
f 84/27/8 85/47/8 86/48/8
f 87/49/9 88/50/9 89/41/9
f 90/51/10 91/42/10 92/52/10
f 93/53/11 94/54/11 95/25/11
f 96/55/12 97/26/12 98/56/12
f 99/57/13 100/44/13 101/58/13
f 102/59/14 103/60/14 104/43/14
f 87/61/15 81/62/15 83/37/15 88/40/15
f 82/28/16 84/27/16 86/48/16 83/46/16
f 85/35/17 90/34/17 92/39/17 86/38/17
f 91/42/18 89/41/18 88/50/18 92/52/18
f 99/57/19 87/49/19 89/41/19 100/44/19
f 90/51/20 102/59/20 104/43/20 91/42/20
f 103/60/21 101/58/21 100/44/21 104/43/21
f 93/63/22 99/64/22 101/29/22 94/32/22
f 102/65/23 96/66/23 98/31/23 103/30/23
f 97/26/24 95/25/24 94/54/24 98/56/24
f 81/45/25 93/53/25 95/25/25 82/28/25
f 96/55/26 85/47/26 84/27/26 97/26/26
f 87/61/5 99/64/5 93/63/5 81/62/5
g bus_Material.083
usemtl Material.083
f 119/67/4 121/68/4 108/69/4 106/70/4
f 125/71/3 127/72/3 122/73/3 118/74/3
f 126/75/6 114/76/6 109/77/6 120/78/6
f 107/79/1 110/80/1 116/81/1 112/82/1
f 113/83/2 115/84/2 128/85/2 124/86/2
f 105/87/27 106/88/27 107/79/27
f 108/89/28 109/90/28 110/80/28
f 111/91/29 112/82/29 113/83/29
f 114/92/30 115/84/30 116/81/30
f 117/93/31 118/74/31 119/67/31
f 120/94/32 121/68/32 122/73/32
f 123/95/33 124/86/33 125/71/33
f 126/96/34 127/72/34 128/85/34
f 111/91/35 105/87/35 107/79/35 112/82/35
f 106/88/36 108/89/36 110/80/36 107/79/36
f 109/90/37 114/92/37 116/81/37 110/80/37
f 115/84/38 113/83/38 112/82/38 116/81/38
f 123/95/22 111/91/22 113/83/22 124/86/22
f 114/92/23 126/96/23 128/85/23 115/84/23
f 127/72/39 125/71/39 124/86/39 128/85/39
f 117/93/40 123/95/40 125/71/40 118/74/40
f 126/96/41 120/94/41 122/73/41 127/72/41
f 121/68/42 119/67/42 118/74/42 122/73/42
f 105/97/15 117/93/15 119/67/15 106/70/15
f 120/94/17 109/98/17 108/69/17 121/68/17
f 111/99/5 123/100/5 117/101/5 105/102/5
