# Blender 4.1.0
# www.blender.org
mtllib auto sede.mtl
o auto_s_pruhlednym
v 115.742584 2.125226 -1.853424
v 116.869049 2.125226 -1.853424
v 115.816406 2.633515 -1.347135
v 116.795227 2.633515 -1.347135
v 115.695412 2.070718 0.497705
v 116.858284 2.070718 0.497705
v 115.816147 2.609753 0.102948
v 116.737549 2.609753 0.102948
v 116.969452 1.110386 0.555786
v 116.990662 1.263693 0.555786
v 116.969452 1.263694 0.709094
v 116.990662 1.524884 0.555786
v 116.969452 1.678192 0.555786
v 116.969452 1.524884 0.709094
v 116.708260 1.110386 0.555786
v 116.708260 1.263694 0.709094
v 116.683296 1.263693 0.555786
v 116.708260 1.678192 0.555786
v 116.683296 1.524884 0.555786
v 116.708260 1.524884 0.709094
v 116.969452 1.110385 0.294595
v 116.969452 1.263693 0.141287
v 116.990662 1.263694 0.294595
v 116.969452 1.678192 0.294595
v 116.990662 1.524885 0.294595
v 116.969452 1.524885 0.141287
v 116.708260 1.110385 0.294595
v 116.683296 1.263694 0.294595
v 116.708260 1.263693 0.141287
v 116.708260 1.678192 0.294595
v 116.708260 1.524885 0.141287
v 116.683296 1.524885 0.294595
v 116.969452 1.110386 -1.560314
v 116.990662 1.263693 -1.560315
v 116.969452 1.263693 -1.407007
v 116.990662 1.524885 -1.560315
v 116.969452 1.678192 -1.560315
v 116.969452 1.524885 -1.407007
v 116.708260 1.110386 -1.560314
v 116.708260 1.263693 -1.407007
v 116.683296 1.263693 -1.560315
v 116.708260 1.678192 -1.560315
v 116.683296 1.524885 -1.560315
v 116.708260 1.524885 -1.407007
v 116.969452 1.110386 -1.821506
v 116.969452 1.263693 -1.974813
v 116.990662 1.263694 -1.821506
v 116.969452 1.678192 -1.821506
v 116.990662 1.524885 -1.821506
v 116.969452 1.524884 -1.974813
v 116.708260 1.110386 -1.821506
v 116.683296 1.263694 -1.821506
v 116.708260 1.263693 -1.974813
v 116.708260 1.678192 -1.821506
v 116.708260 1.524884 -1.974813
v 116.683296 1.524885 -1.821506
v 115.871689 1.110385 0.555787
v 115.892906 1.263693 0.555787
v 115.871689 1.263693 0.709095
v 115.892906 1.524885 0.555787
v 115.871689 1.678192 0.555787
v 115.871689 1.524884 0.709095
v 115.610504 1.110385 0.555787
v 115.610504 1.263693 0.709095
v 115.585541 1.263693 0.555787
v 115.610504 1.678192 0.555787
v 115.585541 1.524885 0.555787
v 115.610504 1.524884 0.709095
v 115.871689 1.110386 0.294596
v 115.871689 1.263693 0.141288
v 115.892906 1.263693 0.294596
v 115.871689 1.678192 0.294596
v 115.892906 1.524885 0.294596
v 115.871689 1.524885 0.141288
v 115.610504 1.110386 0.294596
v 115.585541 1.263693 0.294596
v 115.610504 1.263693 0.141288
v 115.610504 1.678193 0.294596
v 115.610504 1.524885 0.141288
v 115.585541 1.524885 0.294596
v 115.871689 1.110386 -1.682648
v 115.892906 1.263693 -1.682648
v 115.871689 1.263694 -1.529340
v 115.892906 1.524884 -1.682648
v 115.871689 1.678192 -1.682648
v 115.871689 1.524884 -1.529340
v 115.610504 1.110386 -1.682648
v 115.610504 1.263694 -1.529340
v 115.585541 1.263693 -1.682648
v 115.610504 1.678192 -1.682648
v 115.585541 1.524884 -1.682648
v 115.610504 1.524884 -1.529340
v 115.871689 1.110386 -1.943839
v 115.871689 1.263694 -2.097147
v 115.892906 1.263694 -1.943839
v 115.871689 1.678192 -1.943839
v 115.892906 1.524885 -1.943839
v 115.871689 1.524884 -2.097147
v 115.610504 1.110386 -1.943839
v 115.585541 1.263694 -1.943839
v 115.610504 1.263694 -2.097147
v 115.610504 1.678192 -1.943839
v 115.610504 1.524884 -2.097147
v 115.585541 1.524885 -1.943839
v 116.922043 1.508402 1.268634
v 116.922043 1.998574 1.327859
v 115.669861 1.508402 1.268634
v 115.669861 1.998575 1.327859
v 116.932755 1.538501 -2.909753
v 116.916382 1.847493 -3.056814
v 115.659157 1.530158 -2.909753
v 115.675522 1.847493 -3.056814
v 115.689255 1.477542 -1.947121
v 115.669861 1.508402 0.489588
v 115.693077 2.165872 0.285750
v 115.762054 2.126581 -1.858658
v 116.922043 1.508402 0.489588
v 116.902649 1.517231 -1.932922
v 116.829849 2.126581 -1.858658
v 116.901718 2.150291 0.316537
v 115.799339 2.544679 0.003536
v 115.832390 2.620884 -1.382254
v 116.759514 2.620884 -1.382254
v 116.788902 2.560005 0.011678
v 115.688431 2.138601 -1.723282
v 116.899971 2.151618 -1.697744
v 115.739052 2.596474 -1.292809
v 116.855820 2.583416 -1.292200
v 115.669861 1.386623 1.268634
v 116.922043 1.386623 1.268634
v 115.669861 1.371980 0.491133
v 116.947525 1.381057 -2.832139
v 115.644386 1.381057 -2.832139
v 116.922043 1.389202 -1.932458
v 115.669861 1.346076 -1.973164
v 116.922043 1.371980 0.491133
v 115.669861 1.508401 1.373674
v 116.922043 1.508401 1.373674
v 115.669861 1.386622 1.373674
v 116.922043 1.386622 1.373674
v 115.659309 1.540198 -3.054988
v 115.644539 1.391048 -3.040890
v 116.947678 1.391048 -3.040890
v 116.932907 1.548542 -3.054988
v 115.679558 1.492972 -0.728767
v 115.682198 2.138416 -0.793033
v 116.912346 1.512816 -0.721667
v 116.894890 2.149800 -0.582167
v 115.774422 2.585822 -0.741352
v 116.824127 2.571019 -0.533527
v 115.669861 1.359028 -0.741015
v 116.922043 1.380591 -0.720663
v 116.908813 2.151847 -0.793767
v 116.800117 2.120698 0.473934
v 116.818459 2.572515 -0.745188
v 116.681786 2.587792 0.128224
v 116.922043 2.043572 -1.946291
v 116.839561 2.692958 -1.334533
v 116.922043 2.042107 -0.706552
v 116.801353 2.680403 -0.632781
v 115.700874 2.165103 -0.564491
v 115.669861 2.043572 -1.946291
v 115.764542 2.555475 -0.519422
v 115.752342 2.692958 -1.334533
v 115.910118 2.587792 0.128224
v 115.791786 2.120698 0.473934
v 115.669861 2.042107 -0.706552
v 115.790550 2.680403 -0.632781
v 115.669861 2.040641 0.533186
v 116.922043 2.040641 0.533186
v 115.828758 2.667848 0.068971
v 116.763145 2.667848 0.068971
v 115.733086 2.121673 -1.606737
v 116.800873 2.121673 -1.606737
v 115.840256 1.897251 -1.589309
v 116.693710 1.897251 -1.589309
vn -0.0000 -0.7057 0.7085
vn -0.0000 0.5908 0.8068
vn 1.0000 -0.0000 -0.0000
vn -0.0000 -0.0000 -1.0000
vn -0.0000 1.0000 -0.0000
vn -0.0000 -0.0000 1.0000
vn -1.0000 -0.0000 -0.0000
vn 0.9814 -0.1358 0.1358
vn 0.9814 0.1358 0.1358
vn -0.9745 -0.1587 0.1587
vn -0.9745 0.1587 0.1587
vn 0.9814 -0.1358 -0.1358
vn 0.9814 0.1358 -0.1358
vn -0.9745 -0.1587 -0.1587
vn -0.9745 0.1587 -0.1587
vn -0.0000 -0.7071 0.7071
vn 0.9906 -0.0000 0.1371
vn -0.0000 0.7071 0.7071
vn -0.9870 -0.0000 0.1607
vn -0.9870 -0.1607 -0.0000
vn -0.9870 0.1607 -0.0000
vn -0.9870 -0.0000 -0.1607
vn -0.0000 -0.7071 -0.7071
vn -0.0000 0.7071 -0.7071
vn 0.9906 -0.0000 -0.1371
vn 0.9906 -0.1371 -0.0000
vn 0.9906 0.1371 -0.0000
vn -0.0000 -1.0000 -0.0000
vn -0.0000 -0.1200 0.9928
vn -0.9999 -0.0015 0.0119
vn -0.0000 -0.9989 -0.0478
vn 0.9993 0.0360 -0.0038
vn -0.0000 0.9986 0.0529
vn -0.0000 0.9848 -0.1739
vn 0.9915 0.1269 0.0303
vn -0.9912 0.1274 0.0364
vn 0.9999 -0.0014 0.0118
vn 1.0000 -0.0089 -0.0040
vn -0.9997 -0.0260 -0.0038
vn -0.0000 0.9998 0.0179
vn 0.9892 0.1452 0.0205
vn -0.9749 0.2218 0.0208
vn -0.0000 0.7260 -0.6877
vn -0.0000 0.5521 -0.8338
vn -0.1256 0.6750 -0.7271
vn 0.1256 0.6750 -0.7271
vn -0.0000 -0.9998 0.0188
vn 0.0171 -0.9997 -0.0153
vn -0.9940 0.1097 -0.0052
vn 0.0086 -1.0000 0.0018
vn 0.0014 -0.4251 -0.9052
vn 0.0003 -0.0916 -0.9958
vn -0.0065 0.9976 0.0690
vn -0.9950 0.1000 0.0048
vn 0.9954 0.0952 0.0063
vn 0.0258 -0.9997 0.0018
vn -0.9993 0.0360 -0.0044
vn -0.9892 0.1452 0.0205
vn 0.9749 0.2218 0.0208
vn -1.0000 -0.0087 -0.0039
vn 0.9996 -0.0275 -0.0040
vn 0.9938 0.1111 -0.0034
vn 0.9772 0.2122 -0.0030
vn 0.9715 0.2289 0.0615
vn 0.9632 0.2679 0.0209
vn 0.9843 0.1755 0.0206
vn 0.9950 0.0974 0.0204
vn 0.9866 0.1629 -0.0040
vn 0.9893 0.1317 0.0623
vn 0.9810 0.1931 0.0208
vn -0.9869 0.1614 -0.0027
vn -0.9895 0.1312 0.0605
vn -0.9947 0.1004 0.0204
vn -0.9815 0.1901 0.0208
vn -0.9628 0.2693 0.0209
vn -0.9773 0.2120 -0.0036
vn -0.9714 0.2290 0.0623
vn -0.9845 0.1741 0.0206
vn -0.0000 0.5949 0.8038
vn -0.0000 0.9998 0.0195
vn -0.0000 0.0774 0.9970
vt 0.000000 0.000000
vt 1.000000 0.000000
vt 1.000000 1.000000
vt 0.000000 1.000000
vt 0.298520 0.172447
vt 0.383598 0.173333
vt 0.383187 0.258411
vt 0.298109 0.257524
vt 0.082975 0.349790
vt 0.082975 0.267712
vt 0.165053 0.267712
vt 0.165053 0.349790
vt 0.082975 0.800420
vt 0.082975 0.718342
vt 0.165053 0.718342
vt 0.165053 0.800420
vt 0.165053 0.568132
vt 0.165053 0.650210
vt 0.082975 0.650210
vt 0.082975 0.568132
vt 0.429550 0.518823
vt 0.430228 0.433371
vt 0.515679 0.433683
vt 0.515001 0.519135
vt 0.244362 0.259283
vt 0.296228 0.311759
vt 0.437346 0.260190
vt 0.384880 0.312077
vt 0.428196 0.572169
vt 0.376578 0.520112
vt 0.428889 0.380336
vt 0.376822 0.431941
vt 0.244362 0.170667
vt 0.296828 0.118781
vt 0.437346 0.171574
vt 0.385479 0.119098
vt 0.516339 0.572169
vt 0.568406 0.520565
vt 0.517032 0.380336
vt 0.568650 0.432394
vt 0.082975 0.500000
vt 0.165053 0.500000
vt 0.165053 0.417922
vt 0.082975 0.417922
vt 0.082975 0.199580
vt 0.165053 0.199580
vt 0.199078 0.064906
vt 0.199204 0.137853
vt 0.014201 0.138172
vt 0.014075 0.065225
vt 0.527845 0.676133
vt 0.614214 0.675209
vt 0.585846 0.844966
vt 0.537156 0.822946
vt 0.739009 0.109609
vt 0.932121 0.109466
vt 0.932121 0.140436
vt 0.739009 0.140579
vt 0.424376 0.313893
vt 0.343837 0.307402
vt 0.350023 0.187149
vt 0.424205 0.196000
vt 0.423991 0.497258
vt 0.445023 0.313625
vt 0.444052 0.497056
vt 0.014404 0.255745
vt 0.199407 0.255426
vt 0.015644 0.877804
vt 0.014705 0.710487
vt 0.200493 0.710376
vt 0.199753 0.877695
vt 0.421099 0.828230
vt 0.423691 0.680462
vt 0.443271 0.680363
vt 0.445023 0.816458
vt 0.514131 0.811380
vt 0.507631 0.680339
vt 0.374388 0.850677
vt 0.344084 0.682800
vt 0.343802 0.495115
vt 0.527077 0.185612
vt 0.601730 0.175725
vt 0.609532 0.296846
vt 0.528443 0.304433
vt 0.528209 0.490354
vt 0.611994 0.486033
vt 0.032612 0.474698
vt 0.038078 0.370991
vt 0.176130 0.370753
vt 0.181953 0.474440
vt 0.327088 0.508416
vt 0.327312 0.645198
vt 0.261425 0.584077
vt 0.261964 0.501088
vt 0.631106 0.464093
vt 0.629395 0.334381
vt 0.689922 0.376655
vt 0.691378 0.456566
vt 0.028434 0.692591
vt 0.186716 0.692499
vt 0.175799 0.590939
vt 0.039134 0.591141
vt 0.027146 0.578404
vt 0.187777 0.578127
vt 0.743597 0.748413
vt 0.743444 0.633175
vt 0.929004 0.632930
vt 0.929156 0.748168
vt 0.928557 0.273771
vt 0.742880 0.267973
vt 0.507631 0.304435
vt 0.508504 0.185826
vt 0.507734 0.492441
vt 0.508320 0.169805
vt 0.526893 0.169592
vt 0.442633 0.195972
vt 0.743176 0.450574
vt 0.928767 0.453350
vt 0.013246 0.929699
vt 0.202211 0.928466
vt 0.199052 0.049387
vt 0.014049 0.049706
vt 0.014018 0.031714
vt 0.199021 0.031395
vt 0.929177 0.763734
vt 0.743617 0.763979
vt 0.424182 0.180105
vt 0.442609 0.180078
vt 0.013420 0.951299
vt 0.202385 0.950066
vt 0.204576 0.973527
vt 0.011228 0.973527
vt 0.538960 0.845103
vt 0.516048 0.843235
vt 0.443551 0.848058
vt 0.419609 0.850216
vt 0.628615 0.641017
vt 0.626962 0.499106
vt 0.696575 0.490385
vt 0.698235 0.574687
vt 0.327003 0.340224
vt 0.326957 0.476270
vt 0.262275 0.469034
vt 0.262713 0.386357
vt 0.245370 0.484099
vt 0.245914 0.377680
vt 0.244660 0.590548
vt 0.711051 0.473657
vt 0.713169 0.580910
vt 0.709131 0.366419
vt 0.181418 0.270172
vt 0.032443 0.270429
vt 0.050074 0.356255
vt 0.164084 0.356059
vt 0.179762 0.725532
vt 0.033063 0.725617
vt 0.186716 0.735956
vt 0.028434 0.736048
s 0
usemtl Material.093
f 1/1/1 2/2/1 4/3/1 3/4/1
s 1
f 5/1/2 6/2/2 8/3/2 7/4/2
s 0
usemtl Material.136
f 23/5/3 25/6/3 12/7/3 10/8/3
f 29/9/4 31/10/4 26/11/4 22/12/4
f 30/13/5 18/14/5 13/15/5 24/16/5
f 11/17/6 14/18/6 20/19/6 16/20/6
f 17/21/7 19/22/7 32/23/7 28/24/7
f 9/25/8 10/8/8 11/26/8
f 12/7/9 13/27/9 14/28/9
f 15/29/10 16/30/10 17/21/10
f 18/31/11 19/22/11 20/32/11
f 21/33/12 22/34/12 23/5/12
f 24/35/13 25/6/13 26/36/13
f 27/37/14 28/24/14 29/38/14
f 30/39/15 31/40/15 32/23/15
f 15/41/16 9/42/16 11/17/16 16/20/16
f 10/8/17 12/7/17 14/28/17 11/26/17
f 13/15/18 18/14/18 20/19/18 14/18/18
f 19/22/19 17/21/19 16/30/19 20/32/19
f 27/37/20 15/29/20 17/21/20 28/24/20
f 18/31/21 30/39/21 32/23/21 19/22/21
f 31/40/22 29/38/22 28/24/22 32/23/22
f 21/43/23 27/44/23 29/9/23 22/12/23
f 30/45/24 24/46/24 26/11/24 31/10/24
f 25/6/25 23/5/25 22/34/25 26/36/25
f 9/25/26 21/33/26 23/5/26 10/8/26
f 24/35/27 13/27/27 12/7/27 25/6/27
f 15/41/28 27/44/28 21/43/28 9/42/28
f 47/5/3 49/6/3 36/7/3 34/8/3
f 53/9/4 55/10/4 50/11/4 46/12/4
f 54/13/5 42/14/5 37/15/5 48/16/5
f 35/17/6 38/18/6 44/19/6 40/20/6
f 41/21/7 43/22/7 56/23/7 52/24/7
f 33/25/8 34/8/8 35/26/8
f 36/7/9 37/27/9 38/28/9
f 39/29/10 40/30/10 41/21/10
f 42/31/11 43/22/11 44/32/11
f 45/33/12 46/34/12 47/5/12
f 48/35/13 49/6/13 50/36/13
f 51/37/14 52/24/14 53/38/14
f 54/39/15 55/40/15 56/23/15
f 39/41/16 33/42/16 35/17/16 40/20/16
f 34/8/17 36/7/17 38/28/17 35/26/17
f 37/15/18 42/14/18 44/19/18 38/18/18
f 43/22/19 41/21/19 40/30/19 44/32/19
f 51/37/20 39/29/20 41/21/20 52/24/20
f 42/31/21 54/39/21 56/23/21 43/22/21
f 55/40/22 53/38/22 52/24/22 56/23/22
f 45/43/23 51/44/23 53/9/23 46/12/23
f 54/45/24 48/46/24 50/11/24 55/10/24
f 49/6/25 47/5/25 46/34/25 50/36/25
f 33/25/26 45/33/26 47/5/26 34/8/26
f 48/35/27 37/27/27 36/7/27 49/6/27
f 39/41/28 51/44/28 45/43/28 33/42/28
f 71/5/3 73/6/3 60/7/3 58/8/3
f 77/9/4 79/10/4 74/11/4 70/12/4
f 78/13/5 66/14/5 61/15/5 72/16/5
f 59/17/6 62/18/6 68/19/6 64/20/6
f 65/21/7 67/22/7 80/23/7 76/24/7
f 57/25/8 58/8/8 59/26/8
f 60/7/9 61/27/9 62/28/9
f 63/29/10 64/30/10 65/21/10
f 66/31/11 67/22/11 68/32/11
f 69/33/12 70/34/12 71/5/12
f 72/35/13 73/6/13 74/36/13
f 75/37/14 76/24/14 77/38/14
f 78/39/15 79/40/15 80/23/15
f 63/41/16 57/42/16 59/17/16 64/20/16
f 58/8/17 60/7/17 62/28/17 59/26/17
f 61/15/18 66/14/18 68/19/18 62/18/18
f 67/22/19 65/21/19 64/30/19 68/32/19
f 75/37/20 63/29/20 65/21/20 76/24/20
f 66/31/21 78/39/21 80/23/21 67/22/21
f 79/40/22 77/38/22 76/24/22 80/23/22
f 69/43/23 75/44/23 77/9/23 70/12/23
f 78/45/24 72/46/24 74/11/24 79/10/24
f 73/6/25 71/5/25 70/34/25 74/36/25
f 57/25/26 69/33/26 71/5/26 58/8/26
f 72/35/27 61/27/27 60/7/27 73/6/27
f 63/41/28 75/44/28 69/43/28 57/42/28
f 95/5/3 97/6/3 84/7/3 82/8/3
f 101/9/4 103/10/4 98/11/4 94/12/4
f 102/13/5 90/14/5 85/15/5 96/16/5
f 83/17/6 86/18/6 92/19/6 88/20/6
f 89/21/7 91/22/7 104/23/7 100/24/7
f 81/25/8 82/8/8 83/26/8
f 84/7/9 85/27/9 86/28/9
f 87/29/10 88/30/10 89/21/10
f 90/31/11 91/22/11 92/32/11
f 93/33/12 94/34/12 95/5/12
f 96/35/13 97/6/13 98/36/13
f 99/37/14 100/24/14 101/38/14
f 102/39/15 103/40/15 104/23/15
f 87/41/16 81/42/16 83/17/16 88/20/16
f 82/8/17 84/7/17 86/28/17 83/26/17
f 85/15/18 90/14/18 92/19/18 86/18/18
f 91/22/19 89/21/19 88/30/19 92/32/19
f 99/37/20 87/29/20 89/21/20 100/24/20
f 90/31/21 102/39/21 104/23/21 91/22/21
f 103/40/22 101/38/22 100/24/22 104/23/22
f 93/43/23 99/44/23 101/9/23 94/12/23
f 102/45/24 96/46/24 98/11/24 103/10/24
f 97/6/25 95/5/25 94/34/25 98/36/25
f 81/25/26 93/33/26 95/5/26 82/8/26
f 96/35/27 85/27/27 84/7/27 97/6/27
f 87/41/28 99/44/28 93/43/28 81/42/28
usemtl Material.055
f 105/47/29 106/48/29 108/49/29 107/50/29
f 113/51/30 162/52/30 112/53/30 111/54/30
f 142/55/31 143/56/31 132/57/31 133/58/31
f 117/59/3 170/60/3 106/61/3 105/62/3
f 147/63/32 117/59/32 136/64/32 152/65/32
f 169/66/33 108/49/33 106/48/33 170/67/33
f 112/68/34 162/69/34 157/70/34 110/71/34
f 109/72/35 118/73/35 134/74/35 132/75/35
f 113/51/36 111/54/36 133/76/36 135/77/36
f 109/72/37 110/78/37 157/79/37 118/73/37
f 147/63/38 159/80/38 170/60/38 117/59/38
f 107/81/7 108/82/7 169/83/7 114/84/7
f 145/85/39 167/86/39 162/52/39 113/51/39
f 168/87/40 171/88/40 172/89/40 160/90/40
f 153/91/41 126/92/41 128/93/41 155/94/41
f 161/95/42 115/96/42 121/97/42 163/98/42
f 116/99/43 119/100/43 157/70/43 162/69/43
f 123/101/44 122/102/44 164/103/44 158/104/44
f 119/100/45 123/101/45 158/104/45 157/70/45
f 122/102/46 116/99/46 162/69/46 164/103/46
f 129/105/47 131/106/47 136/107/47 130/108/47
f 134/109/48 135/110/48 133/58/48 132/57/48
f 107/81/7 114/84/7 131/111/7 129/112/7
f 145/85/49 113/51/49 135/77/49 151/113/49
f 107/81/7 129/112/7 139/114/7 137/115/7
f 117/59/3 105/62/3 130/116/3 136/64/3
f 151/117/50 152/118/50 136/107/50 131/106/50
f 111/119/51 112/68/51 110/71/51 109/120/51
f 138/121/6 137/122/6 139/123/6 140/124/6
f 129/105/28 130/108/28 140/125/28 139/126/28
f 130/116/3 105/62/3 138/127/3 140/128/3
f 105/47/5 107/50/5 137/122/5 138/121/5
f 141/129/52 144/130/52 143/131/52 142/132/52
f 111/119/53 109/120/53 144/130/53 141/129/53
f 133/76/54 111/54/54 141/133/54 142/134/54
f 109/72/55 132/75/55 143/135/55 144/136/55
f 135/110/56 134/109/56 152/118/56 151/117/56
f 114/84/57 145/85/57 151/113/57 131/111/57
f 125/137/58 146/138/58 149/139/58 127/140/58
f 120/141/59 148/142/59 150/143/59 124/144/59
f 164/103/40 168/87/40 160/90/40 158/104/40
f 114/84/60 169/83/60 167/86/60 145/85/60
f 118/73/61 157/79/61 159/80/61 147/63/61
f 118/73/62 147/63/62 152/65/62 134/74/62
f 148/142/63 120/141/63 170/60/63 159/80/63
f 124/144/64 150/143/64 160/145/64 172/146/64
f 120/141/65 124/144/65 172/146/65 170/60/65
f 150/143/66 148/142/66 159/80/66 160/145/66
f 128/93/67 126/92/67 157/79/67 158/147/67
f 126/92/68 153/91/68 159/80/68 157/79/68
f 155/94/69 128/93/69 158/147/69 160/145/69
f 153/91/70 155/94/70 160/145/70 159/80/70
f 146/138/71 125/137/71 162/52/71 167/86/71
f 127/140/72 149/139/72 168/148/72 164/149/72
f 125/137/73 127/140/73 164/149/73 162/52/73
f 149/139/74 146/138/74 167/86/74 168/148/74
f 121/97/75 115/96/75 169/83/75 171/150/75
f 115/96/76 161/95/76 167/86/76 169/83/76
f 163/98/77 121/97/77 171/150/77 168/148/77
f 161/95/78 163/98/78 168/148/78 167/86/78
f 154/151/79 166/152/79 169/66/79 170/67/79
f 165/153/79 156/154/79 172/89/79 171/88/79
f 156/154/79 154/151/79 170/67/79 172/89/79
f 166/152/79 165/153/79 171/88/79 169/66/79
f 119/155/80 116/156/80 173/156/80 174/155/80
f 174/157/81 173/158/81 175/158/81 176/157/81
