# Blender 4.1.0
# www.blender.org
mtllib auto cervene resave.mtl
o auto_cervene
v 90.700912 1.105407 0.377731
v 90.719597 1.240399 0.377731
v 90.700912 1.240399 0.512723
v 90.719597 1.470385 0.377731
v 90.700912 1.605376 0.377731
v 90.700912 1.470385 0.512723
v 90.470932 1.105407 0.377731
v 90.470932 1.240399 0.512723
v 90.448952 1.240399 0.377731
v 90.470932 1.605376 0.377731
v 90.448952 1.470385 0.377731
v 90.470932 1.470385 0.512723
v 90.700912 1.105407 0.147745
v 90.700912 1.240399 0.012753
v 90.719597 1.240399 0.147745
v 90.700912 1.605376 0.147745
v 90.719597 1.470385 0.147745
v 90.700912 1.470385 0.012753
v 90.470932 1.105407 0.147745
v 90.448952 1.240399 0.147745
v 90.470932 1.240399 0.012753
v 90.470932 1.605376 0.147745
v 90.470932 1.470385 0.012753
v 90.448952 1.470385 0.147745
v 91.742775 1.105407 0.371928
v 91.761459 1.240399 0.371928
v 91.742775 1.240399 0.506920
v 91.761459 1.470385 0.371928
v 91.742775 1.605376 0.371928
v 91.742775 1.470385 0.506920
v 91.512787 1.105407 0.371928
v 91.512787 1.240399 0.506920
v 91.490814 1.240399 0.371928
v 91.512787 1.605376 0.371928
v 91.490814 1.470385 0.371928
v 91.512787 1.470385 0.506920
v 91.742775 1.105407 0.141942
v 91.742775 1.240399 0.006951
v 91.761459 1.240399 0.141942
v 91.742775 1.605376 0.141942
v 91.761459 1.470385 0.141942
v 91.742775 1.470385 0.006951
v 91.512787 1.105407 0.141942
v 91.490814 1.240399 0.141942
v 91.512787 1.240399 0.006951
v 91.512787 1.605376 0.141942
v 91.512787 1.470385 0.006951
v 91.490814 1.470385 0.141942
v 91.742775 1.105407 -1.563920
v 91.761452 1.240399 -1.563920
v 91.742775 1.240399 -1.428929
v 91.761452 1.470385 -1.563920
v 91.742775 1.605376 -1.563920
v 91.742775 1.470385 -1.428929
v 91.512787 1.105407 -1.563920
v 91.512787 1.240399 -1.428929
v 91.490814 1.240399 -1.563920
v 91.512787 1.605376 -1.563920
v 91.490814 1.470385 -1.563920
v 91.512787 1.470385 -1.428929
v 91.742775 1.105407 -1.793906
v 91.742775 1.240399 -1.928898
v 91.761452 1.240399 -1.793906
v 91.742775 1.605376 -1.793906
v 91.761452 1.470385 -1.793906
v 91.742775 1.470385 -1.928898
v 91.512787 1.105407 -1.793906
v 91.490814 1.240399 -1.793906
v 91.512787 1.240399 -1.928898
v 91.512787 1.605376 -1.793906
v 91.512787 1.470385 -1.928898
v 91.490814 1.470385 -1.793906
v 90.700912 1.105407 -1.563920
v 90.719597 1.240399 -1.563920
v 90.700912 1.240399 -1.428929
v 90.719597 1.470385 -1.563920
v 90.700912 1.605376 -1.563920
v 90.700912 1.470385 -1.428929
v 90.470932 1.105407 -1.563920
v 90.470932 1.240399 -1.428929
v 90.448952 1.240399 -1.563920
v 90.470932 1.605376 -1.563920
v 90.448952 1.470385 -1.563920
v 90.470932 1.470385 -1.428929
v 90.700912 1.105407 -1.793906
v 90.700912 1.240399 -1.928898
v 90.719597 1.240399 -1.793906
v 90.700912 1.605376 -1.793906
v 90.719597 1.470385 -1.793906
v 90.700912 1.470385 -1.928898
v 90.470932 1.105407 -1.793906
v 90.448952 1.240399 -1.793906
v 90.470932 1.240399 -1.928898
v 90.470932 1.605376 -1.793906
v 90.470932 1.470385 -1.928898
v 90.448952 1.470385 -1.793906
v 91.681496 1.506462 1.083463
v 91.681496 1.962498 1.138564
v 90.516518 1.506462 1.083463
v 90.516518 1.962498 1.138564
v 91.691460 1.534466 -2.803928
v 91.676231 1.821938 -2.940747
v 90.506554 1.526703 -2.803928
v 90.521782 1.821938 -2.940747
v 90.534561 1.477752 -1.908336
v 90.516518 1.506462 0.358672
v 90.538116 2.118145 0.169030
v 90.602295 2.081590 -1.826035
v 91.681496 1.506462 0.358672
v 91.663452 1.514677 -1.895126
v 91.595718 2.081590 -1.826035
v 91.662582 2.103648 0.197673
v 90.636978 2.470570 -0.093529
v 90.667732 2.541468 -1.382809
v 91.530281 2.541468 -1.382809
v 91.557632 2.484828 -0.085954
v 90.533798 2.092772 -1.700086
v 91.660957 2.104883 -1.676327
v 90.580887 2.518757 -1.299593
v 91.619888 2.506610 -1.299026
v 90.516518 1.393164 1.083463
v 91.681496 1.393164 1.083463
v 90.516518 1.379542 0.360110
v 91.705200 1.387986 -2.731718
v 90.492813 1.387986 -2.731718
v 91.681496 1.395564 -1.894695
v 90.516518 1.355441 -1.932566
v 91.681496 1.379542 0.360110
v 90.516518 1.506462 1.181188
v 91.681496 1.506462 1.181188
v 90.516518 1.393164 1.181188
v 91.681496 1.393164 1.181188
v 90.506699 1.536045 -2.939049
v 90.492958 1.397282 -2.925932
v 91.705345 1.397282 -2.925932
v 91.691605 1.543807 -2.939049
v 90.525543 1.492107 -0.774832
v 90.528000 2.092600 -0.834623
v 91.672470 1.510569 -0.768227
v 91.656235 2.103191 -0.638442
v 90.613792 2.508848 -0.786541
v 91.590393 2.495075 -0.593189
v 90.516518 1.367491 -0.786228
v 91.681496 1.387553 -0.767292
v 91.669182 2.105096 -0.835306
v 91.568062 2.076117 0.344108
v 91.585121 2.496468 -0.790110
v 91.457970 2.510680 0.022475
v 91.681496 2.004361 -1.907565
v 91.604759 2.608523 -1.338411
v 91.681496 2.002998 -0.754165
v 91.569214 2.596842 -0.685531
v 90.545372 2.117429 -0.621998
v 90.516518 2.004361 -1.907565
v 90.604607 2.480614 -0.580067
v 90.593254 2.608523 -1.338411
v 90.740044 2.510680 0.022475
v 90.629951 2.076117 0.344108
v 90.516518 2.002998 -0.754165
v 90.628799 2.596842 -0.685531
v 90.516518 2.001635 0.399235
v 91.681496 2.001635 0.399234
v 90.664345 2.585162 -0.032651
v 91.533669 2.585162 -0.032651
vn 1.0000 -0.0000 -0.0000
vn -0.0000 -0.0000 -1.0000
vn -0.0000 1.0000 -0.0000
vn -0.0000 -0.0000 1.0000
vn -1.0000 -0.0000 -0.0000
vn 0.9814 -0.1358 0.1358
vn 0.9814 0.1358 0.1358
vn -0.9745 -0.1587 0.1587
vn -0.9745 0.1587 0.1587
vn 0.9814 -0.1358 -0.1358
vn 0.9814 0.1358 -0.1358
vn -0.9745 -0.1587 -0.1587
vn -0.9745 0.1587 -0.1587
vn -0.0000 -0.7071 0.7071
vn 0.9906 -0.0000 0.1371
vn -0.0000 0.7071 0.7071
vn -0.9870 -0.0000 0.1607
vn -0.9870 -0.1607 -0.0000
vn -0.9870 0.1607 -0.0000
vn -0.9870 -0.0000 -0.1607
vn -0.0000 -0.7071 -0.7071
vn -0.0000 0.7071 -0.7071
vn 0.9906 -0.0000 -0.1371
vn 0.9906 -0.1371 -0.0000
vn 0.9906 0.1371 -0.0000
vn -0.0000 -1.0000 -0.0000
vn -0.0000 -0.1200 0.9928
vn -0.9999 -0.0015 0.0119
vn -0.0000 -0.9989 -0.0478
vn 0.9993 0.0360 -0.0038
vn -0.0000 0.9986 0.0529
vn -0.0000 0.9848 -0.1739
vn -0.0000 0.5949 0.8038
vn 0.9915 0.1269 0.0303
vn -0.9912 0.1274 0.0364
vn 0.9999 -0.0014 0.0118
vn 1.0000 -0.0089 -0.0040
vn -0.9997 -0.0260 -0.0038
vn -0.0000 0.9998 0.0179
vn 0.9892 0.1452 0.0205
vn -0.9749 0.2218 0.0208
vn -0.0000 0.6940 -0.7200
vn -0.0000 0.7260 -0.6877
vn -0.0000 0.5521 -0.8338
vn -0.1256 0.6750 -0.7271
vn 0.1256 0.6750 -0.7271
vn -0.0000 -0.9998 0.0188
vn 0.0171 -0.9997 -0.0153
vn -0.9940 0.1097 -0.0052
vn 0.0086 -1.0000 0.0018
vn 0.0014 -0.4251 -0.9052
vn 0.0003 -0.0916 -0.9958
vn -0.0065 0.9976 0.0690
vn -0.9950 0.1000 0.0048
vn 0.9954 0.0952 0.0063
vn 0.0258 -0.9997 0.0018
vn -0.9993 0.0360 -0.0044
vn -0.9892 0.1452 0.0205
vn 0.9749 0.2218 0.0208
vn -1.0000 -0.0087 -0.0039
vn 0.9996 -0.0275 -0.0040
vn 0.9938 0.1111 -0.0034
vn 0.9772 0.2122 -0.0030
vn 0.9715 0.2289 0.0615
vn 0.9632 0.2679 0.0209
vn 0.9843 0.1755 0.0206
vn 0.9950 0.0974 0.0204
vn 0.9866 0.1629 -0.0040
vn 0.9893 0.1317 0.0623
vn 0.9810 0.1931 0.0208
vn -0.9869 0.1614 -0.0027
vn -0.9895 0.1312 0.0605
vn -0.9947 0.1004 0.0204
vn -0.9815 0.1901 0.0208
vn -0.9628 0.2693 0.0209
vn -0.9773 0.2120 -0.0036
vn -0.9714 0.2290 0.0623
vn -0.9845 0.1741 0.0206
vt 0.298520 0.172447
vt 0.383598 0.173333
vt 0.383187 0.258411
vt 0.298109 0.257524
vt 0.082975 0.349790
vt 0.082975 0.267712
vt 0.165053 0.267712
vt 0.165053 0.349790
vt 0.082975 0.800420
vt 0.082975 0.718342
vt 0.165053 0.718342
vt 0.165053 0.800420
vt 0.165053 0.568132
vt 0.165053 0.650210
vt 0.082975 0.650210
vt 0.082975 0.568132
vt 0.429550 0.518823
vt 0.430228 0.433371
vt 0.515679 0.433683
vt 0.515001 0.519135
vt 0.244362 0.259283
vt 0.296228 0.311759
vt 0.437346 0.260190
vt 0.384880 0.312077
vt 0.428196 0.572169
vt 0.376578 0.520112
vt 0.428889 0.380336
vt 0.376822 0.431941
vt 0.244362 0.170667
vt 0.296828 0.118781
vt 0.437346 0.171574
vt 0.385479 0.119098
vt 0.516339 0.572169
vt 0.568406 0.520565
vt 0.517032 0.380336
vt 0.568650 0.432394
vt 0.082975 0.500000
vt 0.165053 0.500000
vt 0.165053 0.417922
vt 0.082975 0.417922
vt 0.082975 0.199580
vt 0.165053 0.199580
vt 0.196528 0.060456
vt 0.196654 0.133735
vt 0.010810 0.134055
vt 0.010684 0.060777
vt 0.527845 0.676133
vt 0.614214 0.675209
vt 0.585846 0.844966
vt 0.537156 0.822946
vt 0.739009 0.109609
vt 0.932121 0.109466
vt 0.932121 0.140436
vt 0.739009 0.140579
vt 0.425499 0.311049
vt 0.343823 0.304467
vt 0.350096 0.182517
vt 0.425325 0.191493
vt 0.425108 0.497002
vt 0.446437 0.310778
vt 0.445453 0.496797
vt 0.011014 0.252163
vt 0.196858 0.251843
vt 0.012260 0.877049
vt 0.011317 0.708971
vt 0.197949 0.708860
vt 0.197205 0.876939
vt 0.029135 0.266914
vt 0.178788 0.266656
vt 0.161374 0.352932
vt 0.046846 0.353130
vt 0.422175 0.832645
vt 0.424804 0.682791
vt 0.444660 0.682692
vt 0.446437 0.820707
vt 0.514131 0.811380
vt 0.507631 0.680339
vt 0.374805 0.855409
vt 0.344073 0.685162
vt 0.343787 0.494829
vt 0.527077 0.185612
vt 0.601730 0.175725
vt 0.609532 0.296846
vt 0.528443 0.304433
vt 0.528209 0.490354
vt 0.611994 0.486033
vt 0.029305 0.472111
vt 0.034796 0.367933
vt 0.173475 0.367694
vt 0.179325 0.471852
vt 0.326837 0.508317
vt 0.327064 0.647030
vt 0.260248 0.585046
vt 0.260795 0.500886
vt 0.631106 0.464093
vt 0.629395 0.334381
vt 0.689922 0.376655
vt 0.691378 0.456566
vt 0.184109 0.690902
vt 0.025108 0.690994
vt 0.035856 0.589083
vt 0.173143 0.588881
vt 0.023814 0.576288
vt 0.185175 0.576010
vt 0.743597 0.748413
vt 0.743444 0.633175
vt 0.929004 0.632930
vt 0.929156 0.748168
vt 0.928557 0.273771
vt 0.742880 0.267973
vt 0.507631 0.304435
vt 0.508504 0.185826
vt 0.507734 0.492441
vt 0.508320 0.169805
vt 0.526893 0.169592
vt 0.444013 0.191465
vt 0.743176 0.450574
vt 0.928767 0.453350
vt 0.009851 0.929180
vt 0.199675 0.927942
vt 0.196501 0.044867
vt 0.010657 0.045187
vt 0.010626 0.027113
vt 0.196470 0.026793
vt 0.929177 0.763734
vt 0.743617 0.763979
vt 0.425301 0.175374
vt 0.443989 0.175346
vt 0.010025 0.950878
vt 0.199849 0.949640
vt 0.202051 0.973207
vt 0.007824 0.973207
vt 0.538960 0.845103
vt 0.516048 0.843235
vt 0.444944 0.852753
vt 0.420665 0.854941
vt 0.628615 0.641017
vt 0.626962 0.499106
vt 0.696575 0.490385
vt 0.698235 0.574687
vt 0.326751 0.337752
vt 0.326705 0.475718
vt 0.261109 0.468380
vt 0.261554 0.384536
vt 0.243967 0.483657
vt 0.244518 0.375737
vt 0.243246 0.591609
vt 0.711051 0.473657
vt 0.713169 0.580910
vt 0.709131 0.366419
s 0
g auto_cervene_Material.143
usemtl Material.143
f 15/1/1 17/2/1 4/3/1 2/4/1
f 21/5/2 23/6/2 18/7/2 14/8/2
f 22/9/3 10/10/3 5/11/3 16/12/3
f 3/13/4 6/14/4 12/15/4 8/16/4
f 9/17/5 11/18/5 24/19/5 20/20/5
f 1/21/6 2/4/6 3/22/6
f 4/3/7 5/23/7 6/24/7
f 7/25/8 8/26/8 9/17/8
f 10/27/9 11/18/9 12/28/9
f 13/29/10 14/30/10 15/1/10
f 16/31/11 17/2/11 18/32/11
f 19/33/12 20/20/12 21/34/12
f 22/35/13 23/36/13 24/19/13
f 7/37/14 1/38/14 3/13/14 8/16/14
f 2/4/15 4/3/15 6/24/15 3/22/15
f 5/11/16 10/10/16 12/15/16 6/14/16
f 11/18/17 9/17/17 8/26/17 12/28/17
f 19/33/18 7/25/18 9/17/18 20/20/18
f 10/27/19 22/35/19 24/19/19 11/18/19
f 23/36/20 21/34/20 20/20/20 24/19/20
f 13/39/21 19/40/21 21/5/21 14/8/21
f 22/41/22 16/42/22 18/7/22 23/6/22
f 17/2/23 15/1/23 14/30/23 18/32/23
f 1/21/24 13/29/24 15/1/24 2/4/24
f 16/31/25 5/23/25 4/3/25 17/2/25
f 7/37/26 19/40/26 13/39/26 1/38/26
f 39/1/1 41/2/1 28/3/1 26/4/1
f 45/5/2 47/6/2 42/7/2 38/8/2
f 46/9/3 34/10/3 29/11/3 40/12/3
f 27/13/4 30/14/4 36/15/4 32/16/4
f 33/17/5 35/18/5 48/19/5 44/20/5
f 25/21/6 26/4/6 27/22/6
f 28/3/7 29/23/7 30/24/7
f 31/25/8 32/26/8 33/17/8
f 34/27/9 35/18/9 36/28/9
f 37/29/10 38/30/10 39/1/10
f 40/31/11 41/2/11 42/32/11
f 43/33/12 44/20/12 45/34/12
f 46/35/13 47/36/13 48/19/13
f 31/37/14 25/38/14 27/13/14 32/16/14
f 26/4/15 28/3/15 30/24/15 27/22/15
f 29/11/16 34/10/16 36/15/16 30/14/16
f 35/18/17 33/17/17 32/26/17 36/28/17
f 43/33/18 31/25/18 33/17/18 44/20/18
f 34/27/19 46/35/19 48/19/19 35/18/19
f 47/36/20 45/34/20 44/20/20 48/19/20
f 37/39/21 43/40/21 45/5/21 38/8/21
f 46/41/22 40/42/22 42/7/22 47/6/22
f 41/2/23 39/1/23 38/30/23 42/32/23
f 25/21/24 37/29/24 39/1/24 26/4/24
f 40/31/25 29/23/25 28/3/25 41/2/25
f 31/37/26 43/40/26 37/39/26 25/38/26
f 63/1/1 65/2/1 52/3/1 50/4/1
f 69/5/2 71/6/2 66/7/2 62/8/2
f 70/9/3 58/10/3 53/11/3 64/12/3
f 51/13/4 54/14/4 60/15/4 56/16/4
f 57/17/5 59/18/5 72/19/5 68/20/5
f 49/21/6 50/4/6 51/22/6
f 52/3/7 53/23/7 54/24/7
f 55/25/8 56/26/8 57/17/8
f 58/27/9 59/18/9 60/28/9
f 61/29/10 62/30/10 63/1/10
f 64/31/11 65/2/11 66/32/11
f 67/33/12 68/20/12 69/34/12
f 70/35/13 71/36/13 72/19/13
f 55/37/14 49/38/14 51/13/14 56/16/14
f 50/4/15 52/3/15 54/24/15 51/22/15
f 53/11/16 58/10/16 60/15/16 54/14/16
f 59/18/17 57/17/17 56/26/17 60/28/17
f 67/33/18 55/25/18 57/17/18 68/20/18
f 58/27/19 70/35/19 72/19/19 59/18/19
f 71/36/20 69/34/20 68/20/20 72/19/20
f 61/39/21 67/40/21 69/5/21 62/8/21
f 70/41/22 64/42/22 66/7/22 71/6/22
f 65/2/23 63/1/23 62/30/23 66/32/23
f 49/21/24 61/29/24 63/1/24 50/4/24
f 64/31/25 53/23/25 52/3/25 65/2/25
f 55/37/26 67/40/26 61/39/26 49/38/26
f 87/1/1 89/2/1 76/3/1 74/4/1
f 93/5/2 95/6/2 90/7/2 86/8/2
f 94/9/3 82/10/3 77/11/3 88/12/3
f 75/13/4 78/14/4 84/15/4 80/16/4
f 81/17/5 83/18/5 96/19/5 92/20/5
f 73/21/6 74/4/6 75/22/6
f 76/3/7 77/23/7 78/24/7
f 79/25/8 80/26/8 81/17/8
f 82/27/9 83/18/9 84/28/9
f 85/29/10 86/30/10 87/1/10
f 88/31/11 89/2/11 90/32/11
f 91/33/12 92/20/12 93/34/12
f 94/35/13 95/36/13 96/19/13
f 79/37/14 73/38/14 75/13/14 80/16/14
f 74/4/15 76/3/15 78/24/15 75/22/15
f 77/11/16 82/10/16 84/15/16 78/14/16
f 83/18/17 81/17/17 80/26/17 84/28/17
f 91/33/18 79/25/18 81/17/18 92/20/18
f 82/27/19 94/35/19 96/19/19 83/18/19
f 95/36/20 93/34/20 92/20/20 96/19/20
f 85/39/21 91/40/21 93/5/21 86/8/21
f 94/41/22 88/42/22 90/7/22 95/6/22
f 89/2/23 87/1/23 86/30/23 90/32/23
f 73/21/24 85/29/24 87/1/24 74/4/24
f 88/31/25 77/23/25 76/3/25 89/2/25
f 79/37/26 91/40/26 85/39/26 73/38/26
g auto_cervene_Material.056
usemtl Material.056
f 97/43/27 98/44/27 100/45/27 99/46/27
f 105/47/28 154/48/28 104/49/28 103/50/28
f 134/51/29 135/52/29 124/53/29 125/54/29
f 109/55/1 162/56/1 98/57/1 97/58/1
f 139/59/30 109/55/30 128/60/30 144/61/30
f 161/62/31 100/45/31 98/44/31 162/63/31
f 104/64/32 154/65/32 149/66/32 102/67/32
f 158/68/33 146/69/33 148/70/33 157/71/33
f 101/72/34 110/73/34 126/74/34 124/75/34
f 105/47/35 103/50/35 125/76/35 127/77/35
f 101/72/36 102/78/36 149/79/36 110/73/36
f 139/59/37 151/80/37 162/56/37 109/55/37
f 99/81/5 100/82/5 161/83/5 106/84/5
f 137/85/38 159/86/38 154/48/38 105/47/38
f 160/87/39 163/88/39 164/89/39 152/90/39
f 145/91/40 118/92/40 120/93/40 147/94/40
f 153/95/41 107/96/41 113/97/41 155/98/41
f 111/99/42 108/100/42 114/101/42 115/102/42
f 108/100/43 111/99/43 149/66/43 154/65/43
f 115/102/44 114/101/44 156/103/44 150/104/44
f 111/99/45 115/102/45 150/104/45 149/66/45
f 114/101/46 108/100/46 154/65/46 156/103/46
f 121/105/47 123/106/47 128/107/47 122/108/47
f 126/109/48 127/110/48 125/54/48 124/53/48
f 99/81/5 106/84/5 123/111/5 121/112/5
f 137/85/49 105/47/49 127/77/49 143/113/49
f 99/81/5 121/112/5 131/114/5 129/115/5
f 109/55/1 97/58/1 122/116/1 128/60/1
f 143/117/50 144/118/50 128/107/50 123/106/50
f 103/119/51 104/64/51 102/67/51 101/120/51
f 130/121/4 129/122/4 131/123/4 132/124/4
f 121/105/26 122/108/26 132/125/26 131/126/26
f 122/116/1 97/58/1 130/127/1 132/128/1
f 97/43/3 99/46/3 129/122/3 130/121/3
f 133/129/52 136/130/52 135/131/52 134/132/52
f 103/119/53 101/120/53 136/130/53 133/129/53
f 125/76/54 103/50/54 133/133/54 134/134/54
f 101/72/55 124/75/55 135/135/55 136/136/55
f 127/110/56 126/109/56 144/118/56 143/117/56
f 106/84/57 137/85/57 143/113/57 123/111/57
f 117/137/58 138/138/58 141/139/58 119/140/58
f 112/141/59 140/142/59 142/143/59 116/144/59
f 156/103/39 160/87/39 152/90/39 150/104/39
f 106/84/60 161/83/60 159/86/60 137/85/60
f 110/73/61 149/79/61 151/80/61 139/59/61
f 110/73/62 139/59/62 144/61/62 126/74/62
f 140/142/63 112/141/63 162/56/63 151/80/63
f 116/144/64 142/143/64 152/145/64 164/146/64
f 112/141/65 116/144/65 164/146/65 162/56/65
f 142/143/66 140/142/66 151/80/66 152/145/66
f 120/93/67 118/92/67 149/79/67 150/147/67
f 118/92/68 145/91/68 151/80/68 149/79/68
f 147/94/69 120/93/69 150/147/69 152/145/69
f 145/91/70 147/94/70 152/145/70 151/80/70
f 138/138/71 117/137/71 154/48/71 159/86/71
f 119/140/72 141/139/72 160/148/72 156/149/72
f 117/137/73 119/140/73 156/149/73 154/48/73
f 141/139/74 138/138/74 159/86/74 160/148/74
f 113/97/75 107/96/75 161/83/75 163/150/75
f 107/96/76 153/95/76 159/86/76 161/83/76
f 155/98/77 113/97/77 163/150/77 160/148/77
f 153/95/78 155/98/78 160/148/78 159/86/78
f 146/69/33 158/68/33 161/62/33 162/63/33
f 157/71/33 148/70/33 164/89/33 163/88/33
f 148/70/33 146/69/33 162/63/33 164/89/33
f 158/68/33 157/71/33 163/88/33 161/62/33
