# Blender 4.1.0
# www.blender.org
mtllib kocicka.mtl
o kocka
v 131.382980 0.788586 -2.803152
v 131.388229 0.884048 -2.800509
v 131.369125 0.790939 -3.076854
v 131.378616 0.884105 -3.061328
v 131.473618 0.788586 -2.803152
v 131.468018 0.884048 -2.800509
v 131.482269 0.790939 -3.076169
v 131.478104 0.884105 -3.061328
v 131.401779 0.806850 -2.761955
v 131.395035 0.898933 -2.784740
v 131.461609 0.898933 -2.784740
v 131.454941 0.806850 -2.761955
v 131.405899 0.845854 -2.717209
v 131.401138 0.917922 -2.706356
v 131.457779 0.918686 -2.706356
v 131.450592 0.845854 -2.717209
v 131.369125 0.787665 -2.998245
v 131.382782 0.786587 -2.837408
v 131.384552 0.886240 -2.837408
v 131.378616 0.884105 -3.016333
v 131.473831 0.786587 -2.837408
v 131.482269 0.787665 -2.993640
v 131.478104 0.884105 -3.016333
v 131.470825 0.879868 -2.833450
v 131.452072 0.790939 -3.076169
v 131.404633 0.790939 -3.076854
v 131.414734 0.892460 -3.071013
v 131.443405 0.892460 -3.071013
v 131.411606 0.783140 -2.803152
v 131.445114 0.783140 -2.803152
v 131.452072 0.887001 -2.803152
v 131.404633 0.887001 -2.803152
v 131.450592 0.826214 -2.748281
v 131.458221 0.916611 -2.743914
v 131.398499 0.916611 -2.743914
v 131.406128 0.826214 -2.748281
v 131.404633 0.904324 -3.006648
v 131.452072 0.904324 -3.006648
v 131.408966 0.891778 -2.837408
v 131.447739 0.891778 -2.837408
v 131.452072 0.787665 -2.993640
v 131.404633 0.787665 -2.998245
v 131.452072 0.782510 -2.838564
v 131.404633 0.782510 -2.838564
v 131.377441 0.662375 -2.826880
v 131.377441 0.662375 -2.809236
v 131.394119 0.662375 -2.824950
v 131.394531 0.662375 -2.809236
v 131.458786 0.662976 -2.810549
v 131.476929 0.662976 -2.810549
v 131.476929 0.662976 -2.830256
v 131.458786 0.662976 -2.830920
v 131.483566 0.664364 -3.006408
v 131.483917 0.664364 -3.030283
v 131.467682 0.664364 -3.030283
v 131.468033 0.664364 -3.006408
v 131.388443 0.663406 -3.025773
v 131.373383 0.663406 -3.025773
v 131.371536 0.663406 -3.005354
v 131.390289 0.663406 -3.005354
v 131.414307 0.878230 -2.665874
v 131.391907 0.889983 -2.706356
v 131.464600 0.889983 -2.706356
v 131.417297 0.863483 -2.665225
v 131.439407 0.863483 -2.665225
v 131.442413 0.878230 -2.665874
v 131.414734 0.868275 -3.071013
v 131.443405 0.868275 -3.071013
v 131.419052 0.887890 -3.257265
v 131.433960 0.887890 -3.257621
v 131.419052 0.872846 -3.257265
v 131.433960 0.872846 -3.257621
v 131.459641 0.892119 -2.682943
v 131.448822 0.854990 -2.676284
v 131.407898 0.854990 -2.676284
v 131.399460 0.892119 -2.682943
v 131.378143 0.730857 -2.831226
v 131.378143 0.730857 -2.809546
v 131.398682 0.730857 -2.831957
v 131.398682 0.730857 -2.809546
v 131.457977 0.734638 -2.831885
v 131.457977 0.734638 -2.809616
v 131.477982 0.734638 -2.809616
v 131.477982 0.734638 -2.831158
v 131.486465 0.744471 -3.024350
v 131.481537 0.745663 -3.060472
v 131.465118 0.744471 -3.024350
v 131.462006 0.745663 -3.060472
v 131.391464 0.745270 -3.019304
v 131.395172 0.746678 -3.059151
v 131.374710 0.746678 -3.059151
v 131.370377 0.745270 -3.019304
v 131.439178 0.876741 -3.161381
v 131.415741 0.876741 -3.161194
v 131.415741 0.859846 -3.161194
v 131.439178 0.859846 -3.161381
v 131.428360 0.916611 -2.743914
v 131.429459 0.918304 -2.706356
v 131.419891 0.924594 -2.697857
v 131.437988 0.925956 -2.696424
v 131.429474 0.917568 -2.703022
v 131.401154 0.917185 -2.703022
v 131.457794 0.917950 -2.703022
v 131.419891 0.923857 -2.694523
v 131.438004 0.925220 -2.693090
v 131.429794 0.892119 -2.682943
v 131.458633 0.676368 -2.831101
v 131.477127 0.676368 -2.810375
v 131.458633 0.676368 -2.810375
v 131.477127 0.676368 -2.830424
v 131.461884 0.663059 -2.802798
v 131.473846 0.663059 -2.802798
v 131.473969 0.671882 -2.802683
v 131.461777 0.671882 -2.802683
v 131.377579 0.676333 -2.827766
v 131.395050 0.676333 -2.826378
v 131.377579 0.676333 -2.809299
v 131.395370 0.676333 -2.809299
v 131.380249 0.662145 -2.800973
v 131.391876 0.662145 -2.800973
v 131.380341 0.671650 -2.801016
v 131.392456 0.671650 -2.801016
v 131.389893 0.676303 -3.006523
v 131.373825 0.676462 -3.028614
v 131.389099 0.676462 -3.028614
v 131.372131 0.676303 -3.006523
v 131.387344 0.663608 -2.999452
v 131.374527 0.663608 -2.999452
v 131.387054 0.672423 -3.000251
v 131.374924 0.672423 -3.000251
v 131.484161 0.674731 -3.008436
v 131.467331 0.674731 -3.008436
v 131.466965 0.675995 -3.032130
v 131.483582 0.675995 -3.032130
v 131.480698 0.664587 -3.002148
v 131.469788 0.664587 -3.002148
v 131.481110 0.673004 -3.003571
v 131.469299 0.673004 -3.003571
vn -0.1230 0.1188 -0.9853
vn 0.9980 0.0424 0.0469
vn -0.0000 0.0439 0.9990
vn -0.0000 -0.5768 0.8169
vn -0.9999 -0.0112 -0.0000
vn -0.1969 0.9759 0.0938
vn 0.9982 0.0441 0.0410
vn -0.0041 0.6223 0.7827
vn -0.9950 0.0996 0.0026
vn -0.0000 0.9177 -0.3974
vn -0.9190 0.0349 0.3928
vn 0.9222 0.0361 0.3851
vn -0.4139 0.9001 -0.1359
vn -0.4605 0.8868 0.0401
vn 0.9999 -0.0130 -0.0054
vn 0.0786 -0.9967 -0.0178
vn 0.9820 -0.0589 0.1793
vn 0.9990 0.0440 0.0011
vn -0.0040 0.6164 0.7874
vn -0.9979 0.0352 0.0546
vn -0.0712 -0.9973 -0.0164
vn 0.0016 -0.9995 -0.0327
vn 0.9979 -0.0191 -0.0619
vn 0.0023 -0.9992 -0.0406
vn 0.5512 0.8324 0.0579
vn -0.0000 0.9973 0.0739
vn 0.4221 0.8971 -0.1308
vn -0.0000 0.9834 -0.1813
vn -0.0066 0.9990 -0.0448
vn -0.0000 -0.8453 0.5343
vn -0.9567 -0.2274 -0.1817
vn -0.1658 -0.8713 0.4619
vn 0.3559 0.9345 0.0002
vn -0.0000 0.9904 0.1381
vn -0.9999 0.0102 -0.0000
vn -0.0000 -0.9998 0.0178
vn -0.9964 0.0625 0.0573
vn -0.0000 0.8262 -0.5633
vn 0.1372 0.1082 -0.9846
vn 0.0016 0.9933 0.1152
vn -0.0000 -1.0000 -0.0000
vn 0.0963 -0.0859 -0.9916
vn -0.0000 0.8705 0.4922
vn 0.9977 -0.0647 -0.0222
vn 0.9999 -0.0146 -0.0000
vn 0.0366 -0.0131 -0.9992
vn 0.9286 -0.0184 0.3707
vn -0.0000 0.9424 0.3344
vn -0.9980 -0.0620 0.0133
vn -0.0000 -0.1569 -0.9876
vn -0.9962 0.0262 -0.0830
vn -0.0000 -0.2126 -0.9771
vn 0.8932 0.0684 0.4445
vn 0.0090 0.0708 -0.9974
vn -0.0000 -0.9760 0.2179
vn -0.0000 -0.7931 0.6091
vn -0.0000 0.7757 0.6312
vn 0.7319 -0.1001 0.6740
vn -0.0239 -0.0000 -0.9997
vn -0.0019 -0.9910 -0.1340
vn -0.9994 -0.0000 -0.0345
vn 0.9985 -0.0000 -0.0542
vn -0.7624 -0.0776 0.6424
vn 0.9433 -0.2959 0.1505
vn 0.9148 -0.3026 -0.2676
vn -0.9443 -0.2704 0.1875
vn -0.9729 -0.2313 0.0013
vn 0.9835 -0.1461 -0.1064
vn -0.9818 -0.0591 0.1806
vn -0.9479 0.3136 0.0560
vn 0.9772 -0.1778 -0.1158
vn -0.0126 -0.1135 0.9935
vn -0.0550 -0.1127 -0.9921
vn -0.9965 0.0833 0.0007
vn 0.0138 -0.1229 0.9923
vn 0.0566 -0.1226 -0.9908
vn 0.9968 0.0800 0.0010
vn -0.9749 -0.1901 -0.1157
vn -0.0000 -0.3276 -0.9448
vn -0.9671 -0.2539 0.0158
vn -0.0000 -0.5795 0.8150
vn 0.9982 0.0458 -0.0397
vn -0.0000 -0.4449 0.8956
vn -0.0000 -0.3714 -0.9285
vn -0.9963 -0.0769 -0.0394
vn 0.9671 -0.2535 0.0203
vn 0.9989 -0.0000 -0.0467
vn -0.9999 -0.0000 -0.0111
vn 0.0003 -0.9957 0.0930
vn -0.0006 0.9852 -0.1715
vn -0.4228 -0.8852 -0.1942
vn 0.4072 -0.8916 -0.1981
vn -0.0107 0.7965 -0.6045
vn -0.0108 0.7979 -0.6027
vn -0.6392 -0.7514 -0.1640
vn -0.0132 0.9764 0.2157
vn 0.7488 -0.6468 -0.1451
vn 0.0107 -0.7965 0.6045
vn 0.0108 -0.7979 0.6027
vn -0.9962 0.0848 0.0217
vn 0.9964 0.0838 0.0155
vn -0.9830 -0.1453 -0.1123
vn -0.0000 -0.0130 0.9999
vn 0.0364 -0.0131 -0.9993
vn -0.0000 -0.9999 0.0107
vn -0.0000 0.8638 0.5038
vn -0.9283 -0.0152 0.3715
vn 0.9979 -0.0639 -0.0082
vn -0.0000 0.0045 1.0000
vn 0.0172 -0.0832 -0.9964
vn 0.9513 -0.0563 0.3031
vn -0.0000 -0.9996 -0.0279
vn -0.9468 0.0111 0.3216
vn -0.0000 0.1822 0.9833
vn -0.0000 -0.3988 -0.9170
vn -0.9945 -0.0366 -0.0976
vn 0.9981 -0.0405 0.0462
vn -0.0000 0.0902 0.9959
vn -0.8908 0.0808 0.4471
vn -0.0000 -0.9994 0.0342
vn -0.0000 0.8505 0.5260
vn -0.0000 -0.3768 -0.9263
vn -0.9978 -0.0332 0.0568
vn -0.0000 0.2225 0.9749
vn 0.9952 -0.0314 -0.0930
vn -0.0000 0.1667 0.9860
vn -0.9250 0.0113 0.3799
vn 0.8331 0.0560 0.5502
vn -0.0000 -0.9986 0.0524
vn 0.1665 -0.8713 0.4617
vn -0.0000 -0.8667 0.4988
vt 0.154756 0.389319
vt 0.164948 0.279564
vt 0.208656 0.271228
vt 0.207776 0.299298
vt 0.195991 0.389347
vt 0.291549 0.489981
vt 0.395781 0.470359
vt 0.382859 0.665750
vt 0.283316 0.657130
vt 0.795074 0.308870
vt 0.798328 0.333494
vt 0.767858 0.333494
vt 0.771112 0.308870
vt 0.752284 0.157357
vt 0.816640 0.157357
vt 0.811384 0.186057
vt 0.757540 0.186057
vt 0.431177 0.789781
vt 0.447179 0.788541
vt 0.447841 0.798892
vt 0.432113 0.800111
vt 0.466529 0.668623
vt 0.493887 0.672086
vt 0.485229 0.712262
vt 0.467292 0.707067
vt 0.385898 0.701263
vt 0.283848 0.693830
vt 0.784497 0.370779
vt 0.784638 0.422245
vt 0.749856 0.422245
vt 0.740239 0.371247
vt 0.147620 0.483748
vt 0.039938 0.473893
vt 0.035341 0.424752
vt 0.136031 0.398229
vt 0.729107 0.562480
vt 0.729717 0.638825
vt 0.678158 0.635038
vt 0.678012 0.600440
vt 0.678174 0.565840
vt 0.720603 0.740765
vt 0.677790 0.643551
vt 0.732012 0.644427
vt 0.744350 0.749325
vt 0.797361 0.453167
vt 0.753391 0.553857
vt 0.741345 0.454345
vt 0.487438 0.415637
vt 0.528844 0.430191
vt 0.526266 0.481004
vt 0.489744 0.488591
vt 0.434336 0.791281
vt 0.451450 0.790465
vt 0.453663 0.797774
vt 0.436514 0.799502
vt 0.249913 0.488273
vt 0.283318 0.488190
vt 0.274410 0.661043
vt 0.249913 0.659915
vt 0.717854 0.469355
vt 0.299000 0.401954
vt 0.397938 0.422282
vt 0.828755 0.370310
vt 0.819421 0.422245
vt 0.165280 0.697659
vt 0.061098 0.710005
vt 0.055252 0.669681
vt 0.164154 0.660035
vt 0.158151 0.483087
vt 0.197434 0.483181
vt 0.197434 0.659915
vt 0.172825 0.661047
vt 0.446038 0.801125
vt 0.430484 0.801018
vt 0.429628 0.791942
vt 0.444054 0.791924
vt 0.197436 0.396147
vt 0.249915 0.396906
vt 0.405646 0.468310
vt 0.439727 0.483054
vt 0.424169 0.664053
vt 0.395282 0.666373
vt 0.413439 0.418410
vt 0.455095 0.412565
vt 0.893305 0.248275
vt 0.892583 0.278130
vt 0.891863 0.307984
vt 0.854356 0.304428
vt 0.855024 0.276117
vt 0.855689 0.247807
vt 0.912901 0.115177
vt 0.913158 0.159649
vt 0.879899 0.164669
vt 0.879586 0.110541
vt 0.910169 0.416964
vt 0.908342 0.379633
vt 0.872414 0.377684
vt 0.729048 0.102999
vt 0.764178 0.099808
vt 0.415091 0.701379
vt 0.397011 0.703218
vt 0.442632 0.786429
vt 0.443235 0.806875
vt 0.427751 0.806351
vt 0.427175 0.786815
vt 0.242207 0.699095
vt 0.205140 0.699095
vt 0.754363 0.572770
vt 0.755070 0.627444
vt 0.754784 0.647028
vt 0.251083 0.389325
vt 0.241070 0.299319
vt 0.240274 0.271246
vt 0.282360 0.279758
vt 0.286148 0.389347
vt 0.251365 0.138429
vt 0.277978 0.141649
vt 0.260423 0.251117
vt 0.243529 0.248928
vt 0.432723 0.785569
vt 0.452714 0.787882
vt 0.453201 0.806716
vt 0.432723 0.806716
vt 0.435731 0.788494
vt 0.454145 0.787342
vt 0.454213 0.802148
vt 0.436563 0.803198
vt 0.443749 0.759984
vt 0.414893 0.761818
vt 0.418387 0.746099
vt 0.438037 0.744850
vt 0.454204 0.804852
vt 0.428965 0.806975
vt 0.427157 0.786321
vt 0.450381 0.784356
vt 0.431455 0.804948
vt 0.432155 0.789464
vt 0.448967 0.789609
vt 0.448834 0.805098
vt 0.455174 0.803806
vt 0.435246 0.804053
vt 0.435254 0.790739
vt 0.454841 0.790495
vt 0.432108 0.788833
vt 0.450246 0.788654
vt 0.450190 0.801779
vt 0.432390 0.801954
vt 0.452022 0.798422
vt 0.434523 0.802134
vt 0.437999 0.790004
vt 0.449528 0.787559
vt 0.444395 0.792817
vt 0.444424 0.800751
vt 0.432755 0.800625
vt 0.432727 0.793028
vt 0.442317 0.757919
vt 0.419182 0.760157
vt 0.421201 0.752803
vt 0.437438 0.751232
vt 0.431444 0.794174
vt 0.451174 0.792203
vt 0.450074 0.802000
vt 0.430145 0.802923
vt 0.427764 0.788884
vt 0.450656 0.787296
vt 0.452237 0.803482
vt 0.429883 0.805033
vt 0.430682 0.804128
vt 0.429582 0.788610
vt 0.450496 0.785212
vt 0.451866 0.804541
vt 0.453514 0.798349
vt 0.435083 0.799071
vt 0.437120 0.788129
vt 0.454179 0.787578
vt 0.433750 0.789407
vt 0.446613 0.790068
vt 0.445483 0.801290
vt 0.432808 0.800638
vt 0.449710 0.803110
vt 0.433484 0.803492
vt 0.438723 0.795100
vt 0.449814 0.794839
vt 0.754468 0.232157
vt 0.810980 0.232157
vt 0.803479 0.282770
vt 0.761968 0.282770
vt 0.794265 0.303099
vt 0.771183 0.303099
vt 0.765122 0.338986
vt 0.799653 0.338621
vt 0.852577 0.322794
vt 0.831549 0.368661
vt 0.835217 0.341528
vt 0.253493 0.008403
vt 0.253493 0.024391
vt 0.237649 0.024391
vt 0.237649 0.008403
vt 0.206698 0.136948
vt 0.232343 0.137252
vt 0.227224 0.245903
vt 0.209693 0.245932
vt 0.187746 0.138023
vt 0.192740 0.248672
vt 0.701200 0.375667
vt 0.721367 0.323628
vt 0.737143 0.342912
vt 0.739366 0.369527
vt 0.910169 0.312240
vt 0.665504 0.377500
vt 0.665830 0.414263
vt 0.665504 0.311735
vt 0.857808 0.216595
vt 0.754638 0.658725
vt 0.793855 0.751662
vt 0.892026 0.026785
vt 0.856897 0.058873
vt 0.854356 0.027430
vt 0.468794 0.973246
vt 0.432344 0.981516
vt 0.428464 0.922158
vt 0.453196 0.919630
vt 0.402198 0.982424
vt 0.405964 0.920213
vt 0.348700 0.981493
vt 0.323904 0.977820
vt 0.328896 0.919034
vt 0.351983 0.918379
vt 0.387317 0.981493
vt 0.376314 0.916834
vt 0.983493 0.982570
vt 0.949462 0.985614
vt 0.946390 0.920932
vt 0.971799 0.916752
vt 0.907288 0.980949
vt 0.881203 0.978689
vt 0.891968 0.916182
vt 0.917117 0.920313
vt 0.865415 0.981342
vt 0.823054 0.981342
vt 0.834936 0.915111
vt 0.861483 0.916669
vt 0.687046 0.815402
vt 0.687300 0.845028
vt 0.638550 0.845760
vt 0.640117 0.825547
vt 0.657679 0.945219
vt 0.593396 0.987917
vt 0.578485 0.944405
vt 0.606702 0.910515
vt 0.668700 0.921480
vt 0.619816 0.886762
vt 0.051523 0.942230
vt 0.036513 0.912768
vt 0.084451 0.881787
vt 0.100472 0.905587
vt 0.006975 0.840218
vt 0.007864 0.803500
vt 0.056917 0.814479
vt 0.058503 0.836694
vt 0.126424 0.993993
vt 0.137112 0.938777
vt 0.174538 0.034312
vt 0.202047 0.035561
vt 0.235952 0.035931
vt 0.262621 0.034312
vt 0.295143 0.038179
vt 0.817649 0.542706
vt 0.817649 0.492057
vt 0.823610 0.492126
vt 0.823610 0.542775
vt 0.823610 0.641754
vt 0.823610 0.689407
vt 0.817649 0.689332
vt 0.817649 0.641679
vt 0.930852 0.569053
vt 0.930852 0.613041
vt 0.894564 0.590069
vt 0.929480 0.607874
vt 0.929480 0.655321
vt 0.893760 0.630160
vt 0.817649 0.492057
vt 0.817649 0.438354
vt 0.823610 0.438287
vt 0.823610 0.491990
vt 0.823611 0.592227
vt 0.823611 0.641679
vt 0.817649 0.592227
vt 0.817649 0.542774
vt 0.823611 0.542774
vt 0.823611 0.592227
vt 0.824153 0.692947
vt 0.824153 0.741232
vt 0.818191 0.741304
vt 0.818191 0.693020
vt 0.926965 0.605844
vt 0.926965 0.648013
vt 0.892177 0.627866
vt 0.925837 0.561133
vt 0.925837 0.605844
vt 0.892177 0.584843
vt 0.669745 0.413552
vt 0.906132 0.416379
vt 0.944117 0.846823
vt 0.965909 0.845619
vt 0.897757 0.845619
vt 0.919702 0.846864
vt 0.840087 0.843351
vt 0.864795 0.844801
vt 0.449398 0.802925
vt 0.433122 0.803088
vt 0.433135 0.791303
vt 0.449108 0.791143
vt 0.451862 0.802331
vt 0.427354 0.803932
vt 0.430846 0.793194
vt 0.446993 0.792139
vt 0.444834 0.759845
vt 0.415647 0.760739
vt 0.420189 0.746538
vt 0.439419 0.745949
vt 0.453220 0.802854
vt 0.435431 0.804730
vt 0.434461 0.793623
vt 0.446181 0.792387
vt 0.426636 0.861855
vt 0.444465 0.861194
vt 0.407387 0.861194
vt 0.331826 0.857206
vt 0.351617 0.856967
vt 0.372369 0.855538
vt 0.451813 0.803129
vt 0.433851 0.803009
vt 0.433800 0.788916
vt 0.451051 0.789031
vt 0.424716 0.789281
vt 0.445322 0.786984
vt 0.439542 0.800562
vt 0.425510 0.802126
vt 0.455940 0.801100
vt 0.430738 0.803681
vt 0.433393 0.791089
vt 0.450555 0.789331
vt 0.437903 0.788072
vt 0.436813 0.804750
vt 0.426369 0.804354
vt 0.427111 0.792997
vt 0.156083 0.835796
vt 0.166888 0.850160
vt 0.137602 0.803500
vt 0.141145 0.819289
vt 0.178080 0.869113
vt 0.449014 0.802806
vt 0.433806 0.802857
vt 0.433268 0.791770
vt 0.449324 0.791716
vt 0.450674 0.802088
vt 0.434450 0.801374
vt 0.434568 0.793087
vt 0.445657 0.793575
vt 0.452545 0.800170
vt 0.428571 0.800177
vt 0.432345 0.792625
vt 0.448732 0.792620
vt 0.442926 0.759850
vt 0.417671 0.759440
vt 0.421817 0.749017
vt 0.439080 0.749298
vt 0.560082 0.832210
vt 0.563532 0.815402
vt 0.529021 0.884046
vt 0.536759 0.863096
vt 0.545097 0.849312
vt 0.435579 0.792537
vt 0.446521 0.792117
vt 0.446371 0.800039
vt 0.436270 0.800426
vt 0.448309 0.801447
vt 0.433729 0.800474
vt 0.433167 0.794127
vt 0.444960 0.794596
vt 0.432482 0.791492
vt 0.447084 0.791661
vt 0.443141 0.798939
vt 0.431351 0.798502
vt 0.452394 0.800994
vt 0.431454 0.801531
vt 0.435178 0.795684
vt 0.449875 0.795307
vt 0.804746 0.099808
vt 0.839742 0.102998
s 0
usemtl Material.036
f 3/1/1 4/2/1 27/3/1 67/4/1 26/5/1
f 22/6/2 23/7/2 24/8/2 21/9/2
f 65/10/3 66/11/3 61/12/3 64/13/3
f 9/14/4 12/15/4 33/16/4 36/17/4
f 109/18/5 107/19/5 52/20/5 49/21/5
f 39/22/6 19/23/6 2/24/6 32/25/6
f 21/9/7 24/8/7 6/26/7 5/27/7
f 106/28/8 101/29/8 102/30/8 76/31/8
f 17/32/9 20/33/9 4/34/9 3/35/9
f 11/36/10 10/37/10 35/38/10 97/39/10 34/40/10
f 2/41/11 1/42/11 9/43/11 10/44/11
f 5/45/12 6/46/12 11/36/12 12/47/12
f 27/48/13 4/49/13 20/50/13 37/51/13
f 37/51/14 20/50/14 19/23/14 39/22/14
f 134/52/15 131/53/15 53/54/15 54/55/15
f 41/56/16 22/57/16 21/58/16 43/59/16
f 12/47/17 11/36/17 34/40/17 33/60/17
f 7/61/18 8/62/18 23/7/18 22/6/18
f 73/63/19 103/64/19 101/29/19 106/28/19
f 1/65/20 2/66/20 19/67/20 18/68/20
f 17/69/21 42/70/21 44/71/21 18/72/21
f 42/70/22 41/56/22 43/59/22 44/71/22
f 125/73/23 123/74/23 60/75/23 57/76/23
f 26/77/24 25/78/24 41/56/24 42/70/24
f 23/79/25 38/80/25 40/81/25 24/82/25
f 38/80/26 37/51/26 39/22/26 40/81/26
f 8/83/27 28/84/27 38/80/27 23/79/27
f 28/84/28 27/48/28 37/51/28 38/80/28
f 34/85/29 97/86/29 35/87/29 14/88/29 98/89/29 15/90/29
f 36/91/30 33/92/30 16/93/30 13/94/30
f 15/95/31 63/96/31 73/97/31
f 9/14/32 1/98/32 29/99/32
f 24/82/33 40/81/33 31/100/33 6/101/33
f 40/81/34 39/22/34 32/25/34 31/100/34
f 117/102/35 115/103/35 45/104/35 46/105/35
f 44/71/36 43/59/36 30/106/36 29/107/36
f 18/68/37 19/67/37 20/33/37 17/32/37
f 6/46/38 31/108/38 32/109/38 2/110/38 10/37/38 11/36/38
f 25/111/39 68/112/39 28/113/39 8/114/39 7/115/39
f 94/116/40 93/117/40 70/118/40 69/119/40
f 45/120/41 47/121/41 48/122/41 46/123/41
f 115/124/42 116/125/42 47/126/42 45/127/42
f 118/128/43 117/129/43 121/130/43 122/131/43
f 116/132/44 118/133/44 48/134/44 47/135/44
f 52/136/41 51/137/41 50/138/41 49/139/41
f 110/140/45 108/141/45 50/142/45 51/143/45
f 107/144/46 110/145/46 51/146/46 52/147/46
f 50/148/47 108/149/47 113/150/47 112/151/47
f 55/152/41 54/153/41 53/154/41 56/155/41
f 131/156/48 132/157/48 138/158/48 137/159/48
f 132/160/49 133/161/49 55/162/49 56/163/49
f 133/164/50 134/165/50 54/166/50 55/167/50
f 58/168/41 57/169/41 60/170/41 59/171/41
f 126/172/51 124/173/51 58/174/51 59/175/51
f 124/176/52 125/177/52 57/178/52 58/179/52
f 60/180/53 123/181/53 129/182/53 127/183/53
f 26/5/54 67/4/54 68/112/54 25/111/54
f 13/184/55 16/185/55 74/186/55 75/187/55
f 75/187/56 74/186/56 65/188/56 64/189/56
f 73/63/57 106/28/57 76/31/57 61/190/57 66/191/57
f 74/192/58 73/97/58 66/193/58 65/194/58
f 71/195/59 69/196/59 70/197/59 72/198/59
f 96/199/60 95/200/60 71/201/60 72/202/60
f 95/200/61 94/116/61 69/119/61 71/201/61
f 93/203/62 96/199/62 72/202/62 70/204/62
f 76/205/63 75/206/63 64/207/63 61/208/63
f 16/209/64 63/96/64 73/97/64 74/192/64
f 62/210/65 14/211/65 76/205/65
f 62/210/66 13/212/66 75/206/66 76/205/66
f 15/90/67 34/85/67 63/213/67
f 16/93/68 33/92/68 34/85/68 63/213/68
f 10/44/69 9/43/69 36/214/69 35/215/69
f 35/216/70 62/217/70 14/218/70
f 44/219/71 29/220/71 80/221/71 79/222/71
f 29/220/72 1/223/72 78/224/72 80/221/72
f 18/225/73 44/226/73 79/227/73 77/228/73
f 1/229/74 18/225/74 77/228/74 78/230/74
f 5/231/75 30/232/75 82/233/75 83/234/75
f 43/235/76 21/236/76 84/237/76 81/238/76
f 21/239/77 5/240/77 83/241/77 84/242/77
f 30/232/78 43/235/78 81/238/78 82/233/78
f 25/243/79 7/244/79 86/245/79 88/246/79
f 41/247/80 25/248/80 88/249/80 87/250/80
f 22/251/81 41/247/81 87/250/81 85/252/81
f 7/244/82 22/251/82 85/252/82 86/245/82
f 42/253/83 17/254/83 92/255/83 89/256/83
f 3/257/84 26/258/84 90/259/84 91/260/84
f 17/254/85 3/257/85 91/260/85 92/255/85
f 26/261/86 42/253/86 89/256/86 90/262/86
f 28/263/87 68/264/87 96/199/87 93/203/87
f 67/265/88 27/266/88 94/116/88 95/200/88
f 68/264/89 67/265/89 95/200/89 96/199/89
f 27/266/90 28/267/90 93/117/90 94/116/90
f 100/268/91 15/269/91 103/270/91 105/271/91
f 14/272/92 99/273/92 104/274/92 102/275/92
f 105/276/93 103/277/93 101/278/93
f 104/279/94 101/280/94 102/281/94
f 99/282/95 98/283/95 101/284/95 104/285/95
f 15/286/96 98/287/96 101/275/96 103/288/96
f 98/288/96 14/289/96 102/290/96 101/291/96
f 98/292/97 100/293/97 105/294/97 101/295/97
f 15/296/98 100/297/98 98/298/98
f 98/299/99 99/300/99 14/301/99
f 14/211/100 76/205/100 102/302/100
f 15/95/101 103/303/101 73/97/101
f 13/94/102 62/217/102 35/216/102 36/91/102
f 83/234/103 82/233/103 109/304/103 108/305/103
f 81/238/104 84/237/104 110/306/104 107/307/104
f 84/242/45 83/241/45 108/308/45 110/309/45
f 82/233/5 81/238/5 107/307/5 109/304/5
f 113/310/103 114/311/103 111/312/103 112/313/103
f 49/314/105 50/315/105 112/316/105 111/317/105
f 108/318/106 109/319/106 114/320/106 113/321/106
f 109/322/107 49/323/107 111/324/107 114/325/107
f 79/222/108 80/221/108 118/326/108 116/327/108
f 80/221/109 78/224/109 117/328/109 118/326/109
f 77/228/110 79/227/110 116/329/110 115/330/110
f 78/230/35 77/228/35 115/330/35 117/331/35
f 122/332/109 121/333/109 119/334/109 120/335/109
f 48/336/111 118/337/111 122/338/111 120/339/111
f 46/340/112 48/341/112 120/342/112 119/343/112
f 117/344/113 46/345/113 119/346/113 121/347/113
f 89/256/114 92/255/114 126/348/114 123/349/114
f 91/260/115 90/259/115 125/350/115 124/351/115
f 92/255/116 91/260/116 124/351/116 126/348/116
f 90/262/117 89/256/117 123/349/117 125/352/117
f 129/353/118 130/354/118 128/355/118 127/356/118
f 126/357/119 59/358/119 128/359/119 130/360/119
f 59/361/120 60/362/120 127/363/120 128/364/120
f 123/365/121 126/366/121 130/367/121 129/368/121
f 88/246/122 86/245/122 134/369/122 133/370/122
f 87/250/123 88/249/123 133/371/123 132/372/123
f 85/252/124 87/250/124 132/372/124 131/373/124
f 86/245/125 85/252/125 131/373/125 134/369/125
f 137/374/126 138/375/126 136/376/126 135/377/126
f 132/378/127 56/379/127 136/380/127 138/381/127
f 53/382/128 131/383/128 137/384/128 135/385/128
f 56/386/129 53/387/129 135/388/129 136/389/129
f 30/390/130 5/391/130 12/15/130
f 30/390/131 12/15/131 9/14/131 29/99/131
