# Blender 4.1.0
# www.blender.org
mtllib cigi.mtl
o boxik_na_cig
v 103.019630 1.628024 -1.310339
v 103.019630 1.717793 -1.310339
v 102.988579 1.628024 -1.310339
v 102.988579 1.717793 -1.310339
v 103.019630 1.628024 -1.377597
v 103.019630 1.717793 -1.377597
v 102.988579 1.628024 -1.377597
v 102.988579 1.717793 -1.377597
vn -0.0000 -0.0000 1.0000
vn -1.0000 -0.0000 -0.0000
vn -0.0000 -0.0000 -1.0000
vn 1.0000 -0.0000 -0.0000
vn -0.0000 -1.0000 -0.0000
vn -0.0000 1.0000 -0.0000
vt 0.012478 0.319617
vt 0.352726 0.319617
vt 0.352726 0.508124
vt 0.012478 0.508124
vt 0.970431 0.574476
vt 0.970431 0.958127
vt 0.682984 0.958127
vt 0.682984 0.574476
vt 0.014025 0.317011
vt 0.357873 0.317011
vt 0.357873 0.507513
vt 0.014025 0.507513
vt 0.657911 0.574937
vt 0.657911 0.958588
vt 0.370465 0.958588
vt 0.370464 0.574937
vt 0.798541 0.268343
vt 0.798541 0.018174
vt 0.983529 0.018174
vt 0.983529 0.268343
vt 0.568209 0.304672
vt 0.568209 0.017226
vt 0.780763 0.017225
vt 0.780763 0.304672
s 0
usemtl Material.031
f 1/1/1 2/2/1 4/3/1 3/4/1
f 3/5/2 4/6/2 8/7/2 7/8/2
f 7/9/3 8/10/3 6/11/3 5/12/3
f 5/13/4 6/14/4 2/15/4 1/16/4
f 3/17/5 7/18/5 5/19/5 1/20/5
f 8/21/6 4/22/6 2/23/6 6/24/6
