# Blender 4.1.0
# www.blender.org
mtllib cig.mtl
o cigi
v 103.161346 1.773549 -1.179480
v 103.167953 1.766567 -1.180832
v 103.154266 1.766928 -1.179895
v 103.160873 1.759946 -1.181247
v 103.165413 1.765284 -1.116951
v 103.172020 1.758302 -1.118303
v 103.158333 1.758662 -1.117366
v 103.164932 1.751681 -1.118718
v 103.157677 1.759988 -1.127392
v 103.157555 1.760239 -1.129291
v 103.164162 1.753257 -1.130643
v 103.164284 1.753006 -1.128744
v 103.164642 1.766860 -1.128876
v 103.164764 1.766609 -1.126977
v 103.171364 1.759627 -1.128329
v 103.171242 1.759878 -1.130228
vn -0.0643 0.1308 -0.9893
vn -0.7299 -0.6822 -0.0427
vn 0.0643 -0.1308 0.9893
vn 0.7299 0.6822 0.0427
vn -0.6805 0.7194 0.1393
vn 0.6805 -0.7194 -0.1393
vt 0.250043 0.000087
vt 0.500000 0.000087
vt 0.500000 0.250043
vt 0.250043 0.250043
vt 0.250043 0.475741
vt 0.500000 0.475741
vt 0.500000 0.500000
vt 0.250043 0.500000
vt 0.500000 0.749957
vt 0.250043 0.749957
vt 0.250043 0.857535
vt 0.500000 0.857535
vt 0.500000 0.999913
vt 0.250043 0.999913
vt 0.225784 0.500000
vt 0.225784 0.749957
vt 0.607578 0.500000
vt 0.749957 0.500000
vt 0.749957 0.749957
vt 0.607578 0.749957
vt 0.524259 0.500000
vt 0.524259 0.749957
vt 0.000087 0.500000
vt 0.142465 0.500000
vt 0.142465 0.749957
vt 0.000087 0.749957
vt 0.500000 0.774216
vt 0.250043 0.774216
vt 0.500000 0.392422
vt 0.250043 0.392422
s 0
usemtl Material.013
f 1/1/1 2/2/1 4/3/1 3/4/1
f 13/11/4 16/12/4 2/13/4 1/14/4
f 11/17/6 4/18/6 2/19/6 16/20/6
f 12/21/6 11/17/6 16/20/6 15/22/6
f 3/23/5 10/24/5 13/25/5 1/26/5
f 10/24/5 9/15/5 14/16/5 13/25/5
f 14/28/4 15/27/4 16/12/4 13/11/4
f 3/4/2 4/3/2 11/29/2 10/30/2
f 10/30/2 11/29/2 12/6/2 9/5/2
usemtl Material.014
f 9/5/2 12/6/2 8/7/2 7/8/2
f 9/15/5 7/8/5 5/10/5 14/16/5
f 8/7/6 12/21/6 15/22/6 6/9/6
f 5/10/4 6/9/4 15/27/4 14/28/4
usemtl Material.015
f 7/8/3 8/7/3 6/9/3 5/10/3
