# Blender 4.1.0
# www.blender.org
mtllib pocitac.mtl
o pc_build_idk
v 130.607742 0.992559 -1.590055
v 130.607742 1.147588 -1.590055
v 130.607742 0.992559 -1.272431
v 130.607742 1.147588 -1.272431
v 130.156204 0.992559 -1.590055
v 130.156204 1.147588 -1.590055
v 130.156204 0.992559 -1.272431
v 130.156204 1.147588 -1.272431
v 130.233292 1.230340 -1.353658
v 130.233292 1.537024 -1.353658
v 130.251144 1.247593 -1.586167
v 130.251144 1.519174 -1.586167
v 130.569382 1.230340 -1.353658
v 130.569382 1.537024 -1.353658
v 130.551529 1.247593 -1.586167
v 130.551529 1.519174 -1.586167
v 130.228409 1.193238 -1.404049
v 130.196198 1.574126 -1.371838
v 130.606476 1.574126 -1.371838
v 130.574265 1.193238 -1.404049
v 130.275024 1.272079 -1.236221
v 130.275024 1.495285 -1.236221
v 130.527649 1.495285 -1.236221
v 130.527649 1.272079 -1.236221
v 130.196198 1.574126 -1.586167
v 130.228409 1.193238 -1.553955
v 130.574265 1.193238 -1.553955
v 130.606476 1.574126 -1.586167
v 130.251144 1.519174 -1.551259
v 130.251144 1.247593 -1.551259
v 130.551529 1.247593 -1.551259
v 130.551529 1.519174 -1.551259
v 130.196198 1.193238 -1.586167
v 130.196198 1.193238 -1.371838
v 130.606476 1.193238 -1.586167
v 130.606476 1.193238 -1.371838
v 130.228409 1.171461 -1.553955
v 130.228409 1.171461 -1.404049
v 130.574265 1.171461 -1.553955
v 130.574265 1.171461 -1.404049
v 130.203934 1.171461 -1.578423
v 130.203934 1.171461 -1.379582
v 130.598740 1.171461 -1.578423
v 130.598740 1.171461 -1.379582
v 130.203934 1.154047 -1.578423
v 130.203934 1.154047 -1.379582
v 130.598740 1.154047 -1.578423
v 130.598740 1.154047 -1.379582
vn 1.0000 -0.0000 -0.0000
vn -0.0000 -0.0000 1.0000
vn -1.0000 -0.0000 -0.0000
vn -0.0000 -0.0000 -1.0000
vn -0.0000 -1.0000 -0.0000
vn -0.0000 1.0000 -0.0000
vn 0.9423 -0.0000 0.3349
vn -0.4400 -0.0000 0.8980
vn 0.4400 -0.0000 0.8980
vn -0.0000 -0.4400 0.8980
vn -0.0000 0.4400 0.8980
vn -0.0000 -0.9423 0.3349
vn -0.9423 -0.0000 0.3349
vn -0.0000 0.9423 0.3349
vt 0.161501 0.500000
vt 0.072160 0.500000
vt 0.072160 0.316957
vt 0.161501 0.316957
vt 0.072160 0.056750
vt 0.161501 0.056750
vt 0.161501 0.943250
vt 0.072160 0.943250
vt 0.072160 0.760208
vt 0.161501 0.760208
vt 0.949191 0.234359
vt 0.687692 0.234359
vt 0.687692 0.050408
vt 0.949191 0.050408
vt 0.363671 0.053661
vt 0.623566 0.053661
vt 0.623566 0.236484
vt 0.363671 0.236484
vt 0.221304 0.986319
vt 0.221304 0.713989
vt 0.374546 0.713989
vt 0.374546 0.986319
vt 0.012451 0.817900
vt 0.012451 0.623724
vt 0.037409 0.623724
vt 0.037409 0.817900
vt 0.210182 0.715391
vt 0.210182 0.987720
vt 0.056940 0.987720
vt 0.056940 0.715391
vt 0.301753 0.695860
vt 0.118416 0.575573
vt 0.192251 0.517437
vt 0.325685 0.604982
vt 0.956545 0.154056
vt 0.956545 0.046875
vt 0.972115 0.046875
vt 0.972115 0.154056
vt 0.829711 0.062500
vt 0.829711 0.355853
vt 0.676469 0.355853
vt 0.676469 0.062500
vt 0.399225 0.320164
vt 0.618500 0.320164
vt 0.645027 0.349705
vt 0.372698 0.349705
vt 0.614816 0.078291
vt 0.395370 0.076467
vt 0.369068 0.046683
vt 0.641609 0.048948
vt 0.384166 0.082001
vt 0.388958 0.322251
vt 0.359953 0.349362
vt 0.354102 0.056068
vt 0.629255 0.322327
vt 0.633057 0.082059
vt 0.663014 0.056002
vt 0.658372 0.349319
vt 0.349731 0.434904
vt 0.190141 0.434904
vt 0.190141 0.254291
vt 0.349731 0.254291
vt 0.102724 0.140019
vt 0.298014 0.000000
vt 0.325685 0.089810
vt 0.178902 0.195051
vt 0.037409 0.349340
vt 0.131365 0.347396
vt 0.596603 0.415643
vt 0.424266 0.415642
vt 0.389773 0.380772
vt 0.631473 0.380772
vt 0.424266 0.606260
vt 0.389773 0.641131
vt 0.596603 0.606260
vt 0.631473 0.641131
vt 0.582269 0.764310
vt 0.776445 0.764310
vt 0.776445 0.979083
vt 0.582269 0.979083
vt 0.012451 0.408950
vt 0.037409 0.408950
vt 0.012451 0.214774
vt 0.012451 0.000000
vt 0.037409 0.000000
vt 0.037409 0.214774
vt 0.671772 0.652175
vt 0.778953 0.652175
vt 0.801983 0.675206
vt 0.648741 0.675206
vt 0.671772 0.404884
vt 0.648741 0.381853
vt 0.778953 0.404884
vt 0.801983 0.381853
vt 0.778953 0.404883
vt 0.801983 0.381853
vt 0.563804 0.992572
vt 0.421636 0.992572
vt 0.421636 0.710292
vt 0.563804 0.710292
vt 0.956545 0.508528
vt 0.956545 0.401347
vt 0.972115 0.401347
vt 0.972115 0.508528
vt 0.956545 0.755820
vt 0.972115 0.755820
vt 0.827290 0.497003
vt 0.827290 0.744295
vt 0.809796 0.761789
vt 0.809796 0.479509
vt 0.934470 0.744295
vt 0.934470 0.497003
vt 0.951964 0.479509
vt 0.951964 0.761789
vt 0.974609 0.882099
vt 0.974609 0.599820
vt 0.987060 0.599820
vt 0.987060 0.882099
vt 0.974609 0.457651
vt 0.974609 0.175371
vt 0.987060 0.175371
vt 0.987060 0.457651
vt 0.974609 0.033203
vt 0.987060 0.033203
vt 0.934470 0.744295
vt 0.951964 0.761789
s 0
usemtl Material.033
f 1/1/1 2/2/1 4/3/1 3/4/1
f 3/4/2 4/3/2 8/5/2 7/6/2
f 7/7/3 8/8/3 6/9/3 5/10/3
f 5/10/4 6/9/4 2/2/4 1/1/4
f 3/11/5 7/12/5 5/13/5 1/14/5
f 8/15/6 4/16/6 2/17/6 6/18/6
usemtl Material.010
f 34/19/3 18/20/3 25/21/3 33/22/3
f 16/23/3 15/24/3 31/25/3 32/26/3
f 35/27/1 28/28/1 19/29/1 36/30/1
f 13/31/7 14/32/7 23/33/7 24/34/7
f 27/35/1 20/36/1 40/37/1 39/38/1
f 28/39/6 25/40/6 18/41/6 19/42/6
f 9/43/8 10/44/8 18/45/8 34/46/8
f 14/47/9 13/48/9 36/49/9 19/50/9
f 13/51/10 9/52/10 34/53/10 36/54/10
f 10/55/11 14/56/11 19/57/11 18/58/11
f 24/59/2 23/60/2 22/61/2 21/62/2
f 9/63/12 13/64/12 24/65/12 21/66/12
f 10/67/13 9/63/13 21/66/13 22/68/13
f 14/32/14 10/67/14 22/68/14 23/33/14
f 12/69/4 11/70/4 33/71/4 25/72/4
f 11/70/4 15/73/4 35/74/4 33/71/4
f 16/75/4 12/69/4 25/72/4 28/76/4
f 15/73/4 16/75/4 28/76/4 35/74/4
f 30/77/4 29/78/4 32/79/4 31/80/4
f 15/24/6 11/81/6 30/82/6 31/25/6
f 12/83/5 16/84/5 32/85/5 29/86/5
f 11/81/1 12/83/1 29/86/1 30/82/1
f 26/87/5 17/88/5 34/89/5 33/90/5
f 27/91/5 26/87/5 33/90/5 35/92/5
f 20/93/5 27/91/5 35/92/5 36/94/5
f 17/88/5 20/95/5 36/96/5 34/89/5
f 46/97/5 45/98/5 47/99/5 48/100/5
f 17/101/3 26/102/3 37/103/3 38/104/3
f 20/105/2 17/101/2 38/104/2 40/106/2
f 26/102/4 27/35/4 39/38/4 37/103/4
f 37/107/6 39/108/6 43/109/6 41/110/6
f 40/111/6 38/112/6 42/113/6 44/114/6
f 44/115/2 42/116/2 46/117/2 48/118/2
f 41/119/4 43/120/4 47/121/4 45/122/4
f 43/120/1 44/123/1 48/124/1 47/121/1
f 42/116/3 41/119/3 45/122/3 46/117/3
f 39/108/6 40/125/6 44/126/6 43/109/6
f 38/112/6 37/107/6 41/110/6 42/113/6
