# Blender 4.1.0
# www.blender.org
mtllib gauc pls uz.mtl
o pohovka
v 99.011749 1.228630 -1.387786
v 99.011749 1.228630 -2.378897
v 100.618858 1.228630 -1.387786
v 100.618858 1.228630 -2.378897
v 100.330727 1.228630 -2.378897
v 99.282860 1.228630 -2.378897
v 99.282860 1.228630 -1.387786
v 100.330727 1.228630 -1.387786
v 100.330727 1.476062 -1.387786
v 99.282860 1.476062 -1.387786
v 100.330727 1.476062 -2.070300
v 99.282860 1.476062 -2.070300
v 99.079445 1.790573 -1.455480
v 99.011749 1.722879 -1.387786
v 99.079445 1.790573 -2.311203
v 99.011749 1.722879 -2.378897
v 100.551170 1.790573 -1.455480
v 100.618858 1.722879 -1.387786
v 100.551170 1.790573 -2.311203
v 100.618858 1.722879 -2.378897
v 99.215164 1.790573 -2.311203
v 99.350555 1.790573 -2.378897
v 100.398422 1.790573 -2.311203
v 100.263031 1.790573 -2.378897
v 100.398422 1.790573 -1.455480
v 100.330727 1.722879 -1.387786
v 99.282860 1.722879 -1.387786
v 99.215164 1.790573 -1.455480
v 100.282860 1.742706 -2.070300
v 100.398422 1.790573 -2.070300
v 99.215164 1.790573 -2.070300
v 99.330727 1.742706 -2.070300
vn -0.0000 0.9882 0.1533
vn -0.0000 1.0000 -0.0000
vn 0.9951 -0.0928 0.0335
vn -0.0000 -1.0000 -0.0000
vn 1.0000 -0.0000 -0.0000
vn -0.9951 -0.0928 0.0335
vn -0.0000 -0.0000 -1.0000
vn -0.0000 -0.0000 1.0000
vn 0.1150 0.8643 -0.4897
vn -0.0000 0.7071 0.7071
vn -0.1229 0.8617 -0.4923
vn -0.7071 0.7071 -0.0000
vn 0.7071 0.7071 -0.0000
vn -0.2106 0.9732 0.0924
vn -0.5245 0.8508 0.0324
vn 0.2106 0.9732 0.0924
vn 0.5245 0.8508 0.0324
vn -1.0000 -0.0000 -0.0000
vt 0.452223 0.622578
vt 0.627820 0.622578
vt 0.631635 0.681964
vt 0.448408 0.681964
vt 0.291188 0.303399
vt 0.291188 0.468074
vt 0.265070 0.468074
vt 0.265070 0.349759
vt 0.265070 0.303399
vt 0.392868 0.470436
vt 0.345371 0.470436
vt 0.345371 0.339093
vt 0.396683 0.339093
vt 0.672837 0.201821
vt 0.672837 0.011092
vt 0.725009 0.011092
vt 0.725009 0.201821
vt 0.814973 0.349759
vt 0.814973 0.468074
vt 0.785579 0.468074
vt 0.785579 0.303400
vt 0.814973 0.303400
vt 0.949005 0.295755
vt 0.949005 0.486484
vt 0.853892 0.486484
vt 0.853892 0.295755
vt 0.720152 0.335227
vt 0.723967 0.466569
vt 0.672655 0.466569
vt 0.672655 0.335227
vt 0.436736 0.233811
vt 0.436736 0.043082
vt 0.638386 0.043082
vt 0.638386 0.233811
vt 0.442941 0.818590
vt 0.455968 0.710450
vt 0.631564 0.710450
vt 0.644591 0.818590
vt 0.675993 0.819179
vt 0.662965 0.711039
vt 0.731441 0.724066
vt 0.731441 0.819179
vt 0.360190 0.819640
vt 0.360190 0.724526
vt 0.425389 0.711499
vt 0.412362 0.819640
vt 0.344375 0.199360
vt 0.344375 0.008631
vt 0.399824 0.008631
vt 0.399824 0.199360
vt 0.668610 0.322200
vt 0.668610 0.227087
vt 0.724059 0.227087
vt 0.724059 0.274584
vt 0.724059 0.322200
vt 0.347886 0.321739
vt 0.347886 0.274123
vt 0.347886 0.226626
vt 0.400058 0.226626
vt 0.400058 0.321739
vt 0.448892 0.506360
vt 0.632119 0.506360
vt 0.641330 0.557672
vt 0.439680 0.557672
vt 0.437286 0.307291
vt 0.437286 0.259676
vt 0.638937 0.259676
vt 0.638937 0.307291
vt 0.639536 0.463585
vt 0.437885 0.463585
vt 0.437885 0.332242
vt 0.639536 0.332242
vt 0.689020 0.711039
vt 0.718414 0.711039
vt 0.360913 0.213599
vt 0.387031 0.213599
vt 0.373217 0.711499
vt 0.399335 0.711499
vt 0.681637 0.214060
vt 0.711032 0.214060
vt 0.304215 0.290372
vt 0.304215 0.481101
vt 0.772552 0.481101
vt 0.772552 0.290372
vt 0.439196 0.681964
vt 0.439196 0.635605
vt 0.733179 0.348254
vt 0.733179 0.466569
vt 0.640847 0.635605
vt 0.640847 0.681964
vt 0.252043 0.481101
vt 0.252043 0.349759
vt 0.215691 0.302676
vt 0.215691 0.493405
vt 0.120578 0.493405
vt 0.120578 0.302676
s 0
usemtl Material.026
f 24/1/1 22/2/1 32/3/1 29/4/1
f 15/5/2 13/6/2 28/7/2 31/8/2 21/9/2
f 27/10/3 10/11/3 12/12/3 32/13/3
f 6/14/4 7/15/4 1/16/4 2/17/4
f 30/18/2 25/19/2 17/20/2 19/21/2 23/22/2
f 20/23/5 18/24/5 3/25/5 4/26/5
f 26/27/6 29/28/6 11/29/6 9/30/6
f 5/31/4 8/32/4 7/33/4 6/34/4
f 6/35/7 22/36/7 24/37/7 5/38/7
f 5/39/7 24/40/7 20/41/7 4/42/7
f 2/43/7 16/44/7 22/45/7 6/46/7
f 4/47/4 3/48/4 8/49/4 5/50/4
f 3/51/8 18/52/8 26/53/8 9/54/8 8/55/8
f 7/56/8 10/57/8 27/58/8 14/59/8 1/60/8
f 29/61/8 32/62/8 12/63/8 11/64/8
f 8/65/8 9/66/8 10/67/8 7/68/8
f 11/69/2 12/70/2 10/71/2 9/72/2
f 23/73/9 19/74/9 20/41/9 24/40/9
f 28/75/10 13/76/10 14/59/10 27/58/10
f 15/77/11 21/78/11 22/45/11 16/44/11
f 17/79/10 25/80/10 26/53/10 18/52/10
f 13/6/12 15/5/12 16/81/12 14/82/12
f 19/21/13 17/20/13 18/83/13 20/84/13
f 24/1/14 29/4/14 30/85/14 23/86/14
f 29/28/15 26/27/15 25/87/15 30/88/15
f 21/89/16 31/90/16 32/3/16 22/2/16
f 31/8/17 28/7/17 27/91/17 32/92/17
f 14/93/18 16/94/18 2/95/18 1/96/18
