# Blender 4.1.0
# www.blender.org
mtllib tmave drevo dvere.mtl
o zed_tm_drevo_dvere
v 166.073090 1.118367 -3.553922
v 166.073090 1.118367 -3.475950
v 166.073090 4.311910 -3.553922
v 166.073090 4.311910 -3.475950
v 169.266632 1.118367 -3.553922
v 169.266632 1.118367 -3.475950
v 169.266632 4.311910 -3.553922
v 169.266632 4.311910 -3.475950
v 168.018677 4.311910 -3.553922
v 166.982407 4.311910 -3.553922
v 166.982407 4.311910 -3.475950
v 168.018677 4.311910 -3.475950
v 166.988205 1.118367 -3.553922
v 168.211212 1.118367 -3.553922
v 168.208145 1.118367 -3.475950
v 166.991623 1.118367 -3.475950
v 166.073090 3.441174 -3.553922
v 166.073090 3.441174 -3.475950
v 169.266632 3.441174 -3.553922
v 169.266632 3.441174 -3.475950
v 168.208145 3.363978 -3.475950
v 166.991623 3.363978 -3.475950
v 166.988205 3.364651 -3.553922
v 168.211212 3.364651 -3.553922
vn -1.0000 -0.0000 -0.0000
vn -0.0000 1.0000 -0.0000
vn 1.0000 -0.0000 -0.0000
vn -0.0000 -1.0000 -0.0000
vn -0.0000 -0.0000 -1.0000
vn -0.0000 -0.0000 1.0000
vn 0.9990 -0.0000 -0.0438
vn -0.9992 -0.0000 -0.0394
vn -0.0000 -1.0000 -0.0086
vt 0.162401 0.500000
vt 0.162402 0.511917
vt 0.029323 0.511917
vt 0.029323 0.500000
vt 0.529323 0.190732
vt 0.517406 0.190732
vt 0.517406 -0.000000
vt 0.529323 -0.000000
vt 0.162401 0.011917
vt 0.162401 -0.000000
vt 0.517406 -0.000000
vt 0.517406 0.011917
vt 0.529323 0.349215
vt 0.541240 0.348692
vt 0.541240 0.489076
vt 0.529323 0.489076
vt 0.174097 0.173221
vt 0.517406 0.173221
vt 0.377022 0.656793
vt 0.517406 0.644995
vt 0.517406 1.000000
vt 0.377022 1.000000
vt 0.029323 0.644995
vt 0.191097 0.656793
vt 0.191097 1.000000
vt 0.029323 1.000000
vt 0.029323 0.342868
vt 0.017405 0.343370
vt 0.000000 0.000605
vt 0.011913 -0.000000
vt 0.174097 0.360139
vt 0.517406 0.360139
vt 0.517406 0.500000
vt 0.017082 0.529295
vt 0.028998 0.529786
vt 0.011911 0.872670
vt 0.000000 0.872076
vt 0.529323 0.186918
vt 0.541240 0.186918
vt 0.541240 0.348692
vt 0.529323 0.348222
vt 0.529323 0.000000
vt 0.541240 0.000470
vt 0.541240 0.186395
vt 0.529323 0.186918
vt 0.529323 0.488083
vt 0.517406 0.488083
vt 0.517406 0.349109
vt 0.529323 0.349109
vt 0.029323 0.361025
vt 0.029323 0.202649
vt 0.220055 0.511917
vt 0.378432 0.511917
vt 0.029323 0.511917
vt 0.517406 0.511917
vt 0.029323 0.011917
vt 0.029323 0.000000
vt 0.517406 0.511917
s 0
g zed_tm_drevo_dvere_Material.218
usemtl Material.218
f 17/1/1 18/2/1 4/3/1 3/4/1
f 9/5/2 12/6/2 8/7/2 7/8/2
f 19/9/3 20/10/3 6/11/3 5/12/3
f 13/13/4 16/14/4 2/15/4 1/16/4
f 24/17/5 19/9/5 5/12/5 14/18/5
f 22/19/6 18/20/6 2/21/6 16/22/6
f 20/23/6 21/24/6 15/25/6 6/26/6
f 23/27/7 22/28/7 16/29/7 13/30/7
f 17/1/5 23/31/5 13/32/5 1/33/5
f 21/34/8 24/35/8 14/36/8 15/37/8
f 5/38/4 6/39/4 15/40/4 14/41/4
f 14/42/4 15/43/4 16/44/4 13/45/4
f 3/46/2 4/47/2 11/48/2 10/49/2
f 10/49/2 11/48/2 12/6/2 9/5/2
f 10/50/5 9/51/5 24/17/5 23/31/5
f 3/4/5 10/50/5 23/31/5 17/1/5
f 12/52/6 11/53/6 22/19/6 21/24/6
f 8/54/6 12/52/6 21/24/6 20/23/6
f 11/53/6 4/55/6 18/20/6 22/19/6
f 9/51/5 7/56/5 19/9/5 24/17/5
f 7/56/3 8/57/3 20/10/3 19/9/3
f 1/33/1 2/58/1 18/2/1 17/1/1
f 24/35/9 21/34/9 22/28/9 23/27/9
