# Blender 4.1.0
# www.blender.org
mtllib vyvojari toto neznaji.mtl
o sprcha
v 160.797394 1.202146 -0.801557
v 160.797394 1.242863 -0.801557
v 160.797394 1.202146 -1.965149
v 160.797394 1.242863 -1.965149
v 161.921570 1.202146 -0.801557
v 161.921570 1.242863 -0.801557
v 161.921570 1.202146 -1.965149
v 161.921570 1.242863 -1.965149
v 160.853775 1.202146 -1.965149
v 160.853775 1.242863 -1.965149
v 160.853775 1.202146 -0.801557
v 160.853775 1.242863 -0.801557
v 160.797394 1.202146 -1.905569
v 160.797394 1.242863 -1.905569
v 161.921570 1.202146 -1.905569
v 161.921570 1.242863 -1.905569
v 160.853775 1.242863 -1.905569
v 160.853775 1.202146 -1.905569
v 160.797394 3.521459 -1.905569
v 160.797394 3.521459 -1.965149
v 160.853775 3.521459 -1.965149
v 161.921570 3.521459 -1.965149
v 160.853775 3.521459 -0.801557
v 160.797394 3.521459 -0.801557
v 160.853775 3.521459 -1.905569
v 161.921570 3.521459 -1.905569
v 160.797394 1.202146 -0.853962
v 161.921570 1.242863 -0.853962
v 160.853775 1.242863 -0.853962
v 160.853775 1.202146 -0.853962
v 160.797394 1.242863 -0.853962
v 161.921570 1.202146 -0.853962
v 160.853775 3.521459 -0.853962
v 160.797394 3.521459 -0.853962
v 161.880569 1.242863 -1.965149
v 161.880569 1.202146 -0.801557
v 161.880569 1.202146 -1.965149
v 161.880569 1.242863 -0.801557
v 161.880569 1.242863 -1.905569
v 161.880569 1.202146 -1.905569
v 161.880569 3.521459 -1.965149
v 161.880569 3.521459 -1.905569
v 161.880569 1.242863 -0.853962
v 161.880569 1.202146 -0.853962
v 161.921570 1.390286 -0.853962
v 161.921570 1.390286 -0.801557
v 161.880569 1.390286 -0.801557
v 160.853775 1.390286 -0.801557
v 160.853775 1.390286 -0.853962
v 161.880569 1.390286 -1.905569
v 161.921570 1.390286 -1.905569
v 161.880569 1.390286 -0.853962
v 160.797394 3.137218 -0.801557
v 160.797394 3.067696 -0.801557
v 160.853775 3.067696 -0.801557
v 160.853775 3.137218 -0.801557
v 161.921570 3.067696 -1.905569
v 161.921570 3.137218 -1.905569
v 160.853775 3.137218 -1.905569
v 160.853775 3.067696 -1.905569
v 160.853775 3.067696 -1.965149
v 160.853775 3.137218 -1.965149
v 161.921570 3.137218 -1.965149
v 161.921570 3.067696 -1.965149
v 160.797394 3.137218 -1.905569
v 160.797394 3.067696 -1.905569
v 160.797394 3.137218 -1.965149
v 160.797394 3.067696 -1.965149
v 160.797394 3.067696 -0.853962
v 160.797394 3.137218 -0.853962
v 160.853775 3.074692 -1.255996
v 160.853775 3.130221 -1.255996
v 161.880569 3.067696 -1.965149
v 161.880569 3.137218 -1.965149
v 161.880569 3.067696 -1.905569
v 161.880569 3.137218 -1.905569
v 160.797394 1.242863 -1.835461
v 161.921570 1.202146 -1.835461
v 160.797394 3.521459 -1.835461
v 160.797394 1.202146 -1.835461
v 161.921570 1.242863 -1.835461
v 160.853775 1.242863 -1.835461
v 160.853775 1.202146 -1.835461
v 160.853775 3.521459 -1.835461
v 161.880569 1.202146 -1.835461
v 161.880569 1.242863 -1.835461
v 161.921570 1.390286 -1.835461
v 161.880569 1.390286 -1.835461
v 160.797394 3.067696 -1.835461
v 160.797394 3.137218 -1.835461
v 160.853775 3.074692 -1.317230
v 160.853775 3.130221 -1.317230
v 160.960892 3.074692 -1.255996
v 160.960892 3.130221 -1.255996
v 160.960892 3.074692 -1.317230
v 160.960892 3.130221 -1.317230
v 161.002075 3.077739 -1.255996
v 161.027359 3.127178 -1.255996
v 161.002075 3.077739 -1.317230
v 161.027359 3.127178 -1.317230
v 161.042786 3.058510 -1.255996
v 161.082352 3.097467 -1.255996
v 161.042786 3.058510 -1.317230
v 161.082352 3.097467 -1.317230
v 161.022690 2.962575 -1.165983
v 161.178604 3.116064 -1.165983
v 161.022690 2.962575 -1.407243
v 161.178604 3.116064 -1.407243
v 161.027985 2.958445 -1.165983
v 161.202011 3.091041 -1.165983
v 161.027985 2.958445 -1.407243
v 161.202011 3.091041 -1.407243
v 160.797394 2.307209 -0.801557
v 160.797394 2.248018 -0.801557
v 160.853775 2.307209 -1.905569
v 160.853775 2.248018 -1.905569
v 161.921570 2.307209 -1.965149
v 161.921570 2.248018 -1.965149
v 160.797394 2.307209 -1.905569
v 160.797394 2.248018 -1.905569
v 160.797394 2.307209 -1.965149
v 160.797394 2.248018 -1.965149
v 160.853775 2.248018 -0.801557
v 160.853775 2.307209 -0.801557
v 161.921570 2.248018 -1.905569
v 161.921570 2.307209 -1.905569
v 160.853775 2.248018 -1.965149
v 160.853775 2.307209 -1.965149
v 160.797394 2.248018 -0.853962
v 160.797394 2.307209 -0.853962
v 160.853775 2.251066 -1.160004
v 160.873917 2.312589 -1.183309
v 161.880569 2.248018 -1.965149
v 161.880569 2.307209 -1.965149
v 161.880569 2.248018 -1.905569
v 161.880569 2.307209 -1.905569
v 160.853775 2.251066 -1.443267
v 160.873917 2.312589 -1.416750
v 160.797394 2.248018 -1.835461
v 160.797394 2.307209 -1.835461
v 161.010880 2.251066 -1.160004
v 160.990723 2.312589 -1.183309
v 161.010880 2.251066 -1.443267
v 160.990723 2.312589 -1.416750
v 160.853775 2.312589 -1.436903
v 160.853775 2.312589 -1.163156
v 161.010880 2.312590 -1.436903
v 161.010880 2.312590 -1.163156
v 160.873917 2.286060 -1.416750
v 160.873917 2.286060 -1.183309
v 160.990723 2.286061 -1.416750
v 160.990723 2.286061 -1.183309
vn -1.0000 -0.0000 -0.0000
vn -0.0000 -0.0000 -1.0000
vn 1.0000 -0.0000 -0.0000
vn -0.0000 -0.0000 1.0000
vn -0.0000 -1.0000 -0.0000
vn -0.0000 1.0000 -0.0000
vn 0.4754 0.8798 -0.0000
vn 0.0738 -0.9973 -0.0000
vn 0.0457 0.9990 -0.0000
vn -0.1897 0.9818 -0.0000
vn -0.4272 -0.9042 -0.0000
vn -0.6008 0.6103 0.5164
vn -0.6008 0.6103 -0.5164
vn -0.9788 0.2049 -0.0000
vn 0.6061 -0.7954 -0.0000
vn -0.6152 -0.7884 -0.0000
vn 0.7303 0.6832 -0.0000
vn -0.0000 0.1029 -0.9947
vn -0.0000 0.0512 0.9987
vt 0.261247 0.244761
vt 0.261247 0.249774
vt 0.253912 0.249774
vt 0.253912 0.244761
vt 0.224787 0.541850
vt 0.224787 0.536642
vt 0.230031 0.536642
vt 0.230031 0.541850
vt 0.182054 0.562686
vt 0.182054 0.567368
vt 0.176027 0.567368
vt 0.176027 0.562686
vt 0.320816 0.560812
vt 0.320816 0.565561
vt 0.314242 0.565561
vt 0.314242 0.560812
vt 0.970461 0.642787
vt 0.974764 0.642787
vt 0.974764 0.648287
vt 0.970461 0.648287
vt 0.570739 0.911544
vt 0.583320 0.911544
vt 0.704197 0.912981
vt 0.704197 0.991926
vt 0.689793 0.991926
vt 0.488139 0.991926
vt 0.477372 0.991926
vt 0.477372 0.912981
vt 0.048900 0.572423
vt 0.048900 0.581454
vt 0.023492 0.581454
vt 0.023492 0.572423
vt 0.856784 0.642787
vt 0.862700 0.642787
vt 0.862700 0.648287
vt 0.856784 0.648287
vt 0.440557 0.560812
vt 0.440557 0.565561
vt 0.086241 0.541850
vt 0.086241 0.536642
vt 0.093452 0.536642
vt 0.093452 0.541850
vt 0.856784 0.526170
vt 0.862700 0.526170
vt 0.862700 0.532423
vt 0.856784 0.532423
vt 0.375334 0.211012
vt 0.375334 0.203946
vt 0.441557 0.203946
vt 0.441557 0.211012
vt 0.314242 0.786471
vt 0.320816 0.786471
vt 0.320816 0.831280
vt 0.314242 0.831280
vt 0.970461 0.526170
vt 0.974764 0.526170
vt 0.974764 0.532423
vt 0.970461 0.532423
vt 0.309840 0.562686
vt 0.309840 0.567368
vt 0.302988 0.567368
vt 0.302988 0.562686
vt 0.269879 0.244761
vt 0.269879 0.249774
vt 0.766321 0.395943
vt 0.766321 0.405971
vt 0.756998 0.405971
vt 0.756998 0.395943
vt 0.963996 0.213279
vt 0.963996 0.395943
vt 0.953397 0.395943
vt 0.953397 0.213279
vt 0.963996 0.405972
vt 0.953397 0.405972
vt 0.224787 0.294341
vt 0.093452 0.294341
vt 0.093452 0.245194
vt 0.224787 0.245194
vt 0.302988 0.785219
vt 0.309840 0.785219
vt 0.309840 0.829406
vt 0.302988 0.829406
vt 0.390726 0.483015
vt 0.397178 0.483015
vt 0.397178 0.530325
vt 0.390726 0.530325
vt 0.253912 0.483015
vt 0.261247 0.483015
vt 0.261247 0.530325
vt 0.253912 0.530325
vt 0.086241 0.294341
vt 0.086241 0.245194
vt 0.269879 0.483015
vt 0.269879 0.530325
vt 0.940925 0.395943
vt 0.940925 0.405972
vt 0.397178 0.244761
vt 0.397178 0.249774
vt 0.390726 0.249774
vt 0.390726 0.244761
vt 0.856784 0.539781
vt 0.862700 0.539781
vt 0.980250 0.971560
vt 0.803764 0.971560
vt 0.803764 0.802861
vt 0.980250 0.802861
vt 0.970461 0.539781
vt 0.974764 0.539781
vt 0.294926 0.562686
vt 0.294926 0.567368
vt 0.048846 0.191863
vt 0.048846 0.203946
vt 0.023438 0.203946
vt 0.023438 0.191863
vt 0.230031 0.294341
vt 0.230031 0.245194
vt 0.963996 0.205986
vt 0.953397 0.205986
vt 0.485413 0.416438
vt 0.701323 0.416438
vt 0.701323 0.497233
vt 0.485413 0.497233
vt 0.445338 0.560812
vt 0.445338 0.565561
vt 0.048846 0.223095
vt 0.048846 0.392254
vt 0.023438 0.392254
vt 0.023437 0.223095
vt 0.930805 0.374076
vt 0.930805 0.197109
vt 0.939837 0.197109
vt 0.939837 0.374076
vt 0.761646 0.381142
vt 0.761646 0.374076
vt 0.930805 0.381142
vt 0.939837 0.381142
vt 0.048846 0.211012
vt 0.023438 0.211012
vt 0.048900 0.758422
vt 0.048900 0.765488
vt 0.023492 0.765488
vt 0.023492 0.758422
vt 0.048846 0.013672
vt 0.048846 0.022704
vt 0.023438 0.022704
vt 0.023438 0.013672
vt 0.048846 0.569222
vt 0.023438 0.569222
vt 0.485413 0.241909
vt 0.701323 0.241909
vt 0.701323 0.401819
vt 0.485413 0.401819
vt 0.230031 0.400505
vt 0.224787 0.400505
vt 0.224787 0.303233
vt 0.230031 0.303233
vt 0.551665 0.743557
vt 0.607907 0.743557
vt 0.704197 0.742452
vt 0.704197 0.898698
vt 0.583320 0.900135
vt 0.570739 0.900135
vt 0.477372 0.898698
vt 0.477372 0.742452
vt 0.269879 0.380821
vt 0.390726 0.380821
vt 0.390726 0.474455
vt 0.269879 0.474455
vt 0.093452 0.400505
vt 0.086241 0.400505
vt 0.086241 0.303233
vt 0.093452 0.303233
vt 0.253912 0.380821
vt 0.261247 0.380821
vt 0.261247 0.474455
vt 0.253912 0.474455
vt 0.397178 0.380821
vt 0.397178 0.474455
vt 0.302988 0.689768
vt 0.309840 0.689768
vt 0.309840 0.777224
vt 0.302988 0.777224
vt 0.314242 0.689680
vt 0.320816 0.689680
vt 0.320816 0.778364
vt 0.314242 0.778364
vt 0.232283 0.211012
vt 0.232283 0.203946
vt 0.363352 0.203946
vt 0.363352 0.211012
vt 0.901446 0.061473
vt 0.901591 0.052044
vt 0.920128 0.052216
vt 0.919636 0.061752
vt 0.749563 0.381142
vt 0.749563 0.374076
vt 0.980250 0.983610
vt 0.803764 0.983610
vt 0.920052 0.041328
vt 0.919550 0.031884
vt 0.930031 0.031419
vt 0.927579 0.040743
vt 0.901625 0.041600
vt 0.901483 0.032190
vt 0.901309 0.021782
vt 0.919450 0.021506
vt 0.930695 0.021644
vt 0.941021 0.022530
vt 0.940153 0.032648
vt 0.928069 0.052800
vt 0.930687 0.062616
vt 0.868300 0.049889
vt 0.870061 0.039483
vt 0.889309 0.027006
vt 0.882371 0.068004
vt 0.936083 0.051886
vt 0.941021 0.059975
vt 0.935951 0.041418
vt 0.785897 0.104401
vt 0.782542 0.141959
vt 0.776676 0.141284
vt 0.784741 0.104449
vt 0.866006 0.036333
vt 0.856968 0.039483
vt 0.837723 0.027007
vt 0.873330 0.014596
vt 0.858730 0.049889
vt 0.844663 0.068004
vt 0.988086 0.021386
vt 0.988086 0.062966
vt 0.950379 0.062966
vt 0.950379 0.021386
vt 0.784171 0.062856
vt 0.783015 0.062904
vt 0.777789 0.183267
vt 0.771922 0.182592
vt 0.777712 0.025706
vt 0.771922 0.026866
vt 0.269879 0.373533
vt 0.261247 0.373533
vt 0.689793 0.523776
vt 0.704197 0.523776
vt 0.704197 0.730291
vt 0.609215 0.730917
vt 0.551017 0.730917
vt 0.477372 0.730291
vt 0.477372 0.523776
vt 0.488139 0.523776
vt 0.810700 0.147207
vt 0.810700 0.127077
vt 0.815273 0.127077
vt 0.815273 0.147207
vt 0.222082 0.203946
vt 0.222082 0.211012
vt 0.320816 0.682777
vt 0.314242 0.682777
vt 0.093452 0.408076
vt 0.224787 0.408076
vt 0.309840 0.682961
vt 0.302988 0.682961
vt 0.397178 0.373533
vt 0.390726 0.373533
vt 0.253912 0.373533
vt 0.086241 0.408076
vt 0.230031 0.408076
vt 0.485413 0.018106
vt 0.701323 0.018106
vt 0.701323 0.229463
vt 0.485413 0.229463
vt 0.987408 0.113257
vt 0.988083 0.162072
vt 0.977466 0.161122
vt 0.976813 0.113947
vt 0.985671 0.189041
vt 0.975053 0.188091
vt 0.975053 0.086927
vt 0.985648 0.086237
vt 0.939832 0.159248
vt 0.939832 0.110428
vt 0.966908 0.110428
vt 0.966908 0.159248
vt 0.923905 0.153348
vt 0.923905 0.113115
vt 0.927378 0.109642
vt 0.927378 0.156822
vt 0.903775 0.113115
vt 0.903775 0.153348
vt 0.900302 0.156822
vt 0.900302 0.109642
vt 0.887372 0.111896
vt 0.887372 0.152129
vt 0.867242 0.152130
vt 0.867242 0.111896
vt 0.810700 0.066714
vt 0.810700 0.026481
vt 0.815273 0.026481
vt 0.815273 0.066714
vt 0.810700 0.086844
vt 0.815273 0.086844
s 0
g sprcha_Material.054
usemtl Material.054
f 13/1/1 14/2/1 4/3/1 3/4/1
f 37/5/2 35/6/2 8/7/2 7/8/2
f 32/9/3 28/10/3 6/11/3 5/12/3
f 11/13/4 12/14/4 2/15/4 1/16/4
f 44/17/5 32/18/5 5/19/5 36/20/5
f 72/21/3 92/22/3 59/23/3 25/24/3 84/25/3 33/26/3 23/27/3 56/28/3
f 29/29/1 12/30/1 48/31/1 49/32/1
f 27/33/5 30/34/5 11/35/5 1/36/5
f 36/37/4 38/38/4 12/14/4 11/13/4
f 3/39/2 4/40/2 10/41/2 9/42/2
f 3/43/5 9/44/5 18/45/5 13/46/5
f 76/47/4 58/48/4 26/49/4 42/50/4
f 53/51/4 56/52/4 23/53/4 24/54/4
f 37/55/5 7/56/5 15/57/5 40/58/5
f 7/59/3 8/60/3 16/61/3 15/62/3
f 80/63/1 77/64/1 14/2/1 13/1/1
f 33/65/6 34/66/6 24/67/6 23/68/6
f 41/69/6 21/70/6 25/71/6 42/72/6
f 21/70/6 20/73/6 19/74/6 25/71/6
f 74/75/2 62/76/2 21/77/2 41/78/2
f 58/79/3 63/80/3 22/81/3 26/82/3
f 70/83/1 53/84/1 24/85/1 34/86/1
f 67/87/1 65/88/1 19/89/1 20/90/1
f 62/76/2 67/91/2 20/92/2 21/77/2
f 90/93/1 70/83/1 34/86/1 79/94/1
f 84/95/6 79/96/6 34/66/6 33/65/6
f 1/97/1 2/98/1 31/99/1 27/100/1
f 80/101/5 83/102/5 30/34/5 27/33/5
f 86/103/6 82/104/6 29/105/6 43/106/6
f 85/107/5 78/108/5 32/18/5 44/17/5
f 78/109/3 81/110/3 28/10/3 32/9/3
f 83/102/5 85/107/5 44/17/5 30/34/5
f 81/111/3 16/112/3 51/113/3 87/114/3
f 63/115/2 74/75/2 41/78/2 22/116/2
f 22/117/6 41/69/6 42/72/6 26/118/6
f 9/44/5 37/55/5 40/58/5 18/45/5
f 59/119/4 76/120/4 42/121/4 25/122/4
f 5/123/4 6/124/4 38/38/4 36/37/4
f 86/125/1 43/126/1 52/127/1 88/128/1
f 30/34/5 44/17/5 36/20/5 11/35/5
f 9/42/2 10/41/2 35/6/2 37/5/2
f 52/129/6 49/130/6 48/131/6 47/132/6
f 87/133/6 88/134/6 52/129/6 45/135/6
f 45/135/6 52/129/6 47/132/6 46/136/6
f 16/112/2 39/137/2 50/138/2 51/113/2
f 38/139/4 6/140/4 46/141/4 47/142/4
f 6/143/3 28/144/3 45/145/3 46/146/3
f 43/126/2 29/147/2 49/148/2 52/127/2
f 12/30/4 38/139/4 47/142/4 48/31/4
f 115/149/4 136/150/4 75/151/4 60/152/4
f 60/152/4 75/151/4 76/120/4 59/119/4
f 117/153/2 134/154/2 73/155/2 64/156/2
f 64/156/2 73/155/2 74/75/2 63/115/2
f 146/157/3 145/158/3 115/159/3 60/160/3 91/161/3 71/162/3 55/163/3 124/164/3
f 55/163/3 71/162/3 72/21/3 56/28/3
f 140/165/1 130/166/1 69/167/1 89/168/1
f 89/168/1 69/167/1 70/83/1 90/93/1
f 128/169/2 121/170/2 68/171/2 61/172/2
f 61/172/2 68/171/2 67/91/2 62/76/2
f 121/173/1 119/174/1 66/175/1 68/176/1
f 68/176/1 66/175/1 65/88/1 67/87/1
f 130/166/1 113/177/1 54/178/1 69/167/1
f 69/167/1 54/178/1 53/84/1 70/83/1
f 126/179/3 117/180/3 64/181/3 57/182/3
f 57/182/3 64/181/3 63/80/3 58/79/3
f 134/154/2 128/169/2 61/172/2 73/155/2
f 73/155/2 61/172/2 62/76/2 74/75/2
f 113/183/4 124/184/4 55/185/4 54/186/4
f 54/186/4 55/185/4 56/52/4 53/51/4
f 136/187/4 126/188/4 57/189/4 75/190/4
f 75/190/4 57/189/4 58/48/4 76/47/4
f 91/161/3 60/160/3 59/23/3 92/22/3
f 72/191/4 71/192/4 93/193/4 94/194/4
f 66/175/1 89/168/1 90/93/1 65/88/1
f 119/174/1 140/165/1 89/168/1 66/175/1
f 51/195/6 50/196/6 88/134/6 87/133/6
f 39/137/1 86/125/1 88/128/1 50/138/1
f 28/144/3 81/111/3 87/114/3 45/145/3
f 18/45/5 40/58/5 85/107/5 83/102/5
f 15/62/3 16/61/3 81/110/3 78/109/3
f 40/58/5 15/57/5 78/108/5 85/107/5
f 39/197/6 17/198/6 82/104/6 86/103/6
f 13/46/5 18/45/5 83/102/5 80/101/5
f 25/71/6 19/74/6 79/96/6 84/95/6
f 65/88/1 90/93/1 79/94/1 19/89/1
f 27/100/1 31/99/1 77/64/1 80/63/1
f 95/199/2 96/200/2 100/201/2 99/202/2
f 71/192/5 91/203/5 95/199/5 93/193/5
f 91/203/2 92/204/2 96/200/2 95/199/2
f 92/204/6 72/205/6 94/206/6 96/200/6
f 100/201/7 98/207/7 102/208/7 104/209/7
f 93/193/8 95/199/8 99/202/8 97/210/8
f 96/200/9 94/206/9 98/207/9 100/201/9
f 94/194/4 93/193/4 97/210/4 98/211/4
f 104/212/10 102/213/10 106/214/10 108/215/10
f 98/211/4 97/210/4 101/216/4 102/217/4
f 99/202/2 100/201/2 104/209/2 103/218/2
f 97/210/11 99/202/11 103/218/11 101/216/11
f 107/219/2 108/220/2 112/221/2 111/222/2
f 102/223/12 101/224/12 105/225/12 106/226/12
f 103/227/13 104/212/13 108/215/13 107/228/13
f 101/224/14 103/227/14 107/228/14 105/225/14
f 109/229/15 111/230/15 112/231/15 110/232/15
f 105/233/16 107/219/16 111/222/16 109/234/16
f 108/220/17 106/235/17 110/236/17 112/221/17
f 106/237/4 105/233/4 109/234/4 110/238/4
f 14/2/1 77/64/1 139/239/1 120/240/1
f 120/240/1 139/239/1 140/165/1 119/174/1
f 82/241/3 17/242/3 116/243/3 137/244/3 131/245/3 123/246/3 12/247/3 29/248/3
f 132/249/2 142/250/2 152/251/2 150/252/2
f 137/244/3 116/243/3 115/159/3 145/158/3
f 39/137/4 16/112/4 125/253/4 135/254/4
f 135/254/4 125/253/4 126/188/4 136/187/4
f 2/15/4 12/14/4 123/255/4 114/256/4
f 114/256/4 123/255/4 124/184/4 113/183/4
f 35/6/2 10/41/2 127/257/2 133/258/2
f 133/258/2 127/257/2 128/169/2 134/154/2
f 16/61/3 8/60/3 118/259/3 125/260/3
f 125/260/3 118/259/3 117/180/3 126/179/3
f 31/99/1 2/98/1 114/261/1 129/262/1
f 129/262/1 114/261/1 113/177/1 130/166/1
f 4/3/1 14/2/1 120/240/1 122/263/1
f 122/263/1 120/240/1 119/174/1 121/173/1
f 10/41/2 4/40/2 122/264/2 127/257/2
f 127/257/2 122/264/2 121/170/2 128/169/2
f 77/64/1 31/99/1 129/262/1 139/239/1
f 139/239/1 129/262/1 130/166/1 140/165/1
f 123/246/3 131/245/3 146/157/3 124/164/3
f 8/7/2 35/6/2 133/258/2 118/265/2
f 118/265/2 133/258/2 134/154/2 117/153/2
f 17/266/4 39/267/4 135/268/4 116/269/4
f 116/269/4 135/268/4 136/150/4 115/149/4
f 141/270/3 143/271/3 147/272/3 148/273/3
f 137/274/18 145/275/18 147/272/18 143/271/18
f 146/276/19 131/277/19 141/270/19 148/273/19
f 131/278/5 137/279/5 143/280/5 141/281/5
f 132/282/6 138/283/6 145/284/6 146/285/6
f 144/286/6 142/287/6 148/288/6 147/289/6
f 142/287/6 132/282/6 146/285/6 148/288/6
f 138/283/6 144/286/6 147/289/6 145/284/6
f 149/290/6 150/291/6 152/292/6 151/293/6
f 138/294/3 132/295/3 150/296/3 149/297/3
f 144/298/4 138/294/4 149/297/4 151/299/4
f 142/250/1 144/298/1 151/299/1 152/251/1
