# Blender 4.1.0
# www.blender.org
mtllib doggy.mtl
o pes_
v 130.912491 0.817708 -2.961891
v 130.922501 0.999721 -2.989501
v 130.905319 0.822193 -3.491387
v 130.918625 0.999830 -3.476796
v 131.085312 0.817708 -2.961891
v 131.074615 0.999721 -2.989501
v 131.087189 0.822193 -3.480474
v 131.080460 0.999830 -3.470425
v 130.948334 0.832501 -2.919986
v 130.935471 1.028101 -2.959435
v 131.062408 1.028101 -2.959435
v 131.049683 0.832501 -2.919986
v 130.947403 0.920707 -2.849368
v 130.947113 1.075944 -2.829790
v 131.055099 1.077401 -2.829790
v 131.050613 0.920707 -2.849368
v 130.886078 0.815950 -3.366516
v 130.912094 0.813894 -3.041681
v 130.915482 1.003900 -3.059855
v 130.904160 0.999830 -3.401004
v 131.085724 0.813894 -3.042758
v 131.101807 0.815950 -3.357735
v 131.093857 0.999830 -3.401004
v 131.079987 0.991751 -3.052307
v 131.044235 0.822193 -3.491487
v 130.953781 0.822193 -3.495044
v 130.973022 1.008433 -3.483578
v 131.027695 1.008433 -3.483578
v 130.967056 0.807323 -2.961891
v 131.030945 0.807323 -2.961891
v 131.044235 1.005351 -2.994539
v 130.953781 1.005351 -2.994539
v 131.041397 0.864032 -2.891784
v 131.055939 1.063050 -2.902564
v 130.942062 1.063050 -2.902564
v 130.956604 0.864032 -2.891784
v 130.953781 1.017585 -3.382537
v 131.044235 1.017585 -3.382537
v 130.962036 1.014458 -3.059855
v 131.035950 1.014458 -3.059855
v 131.044235 0.815950 -3.357735
v 130.953781 0.815950 -3.366516
v 131.044235 0.806121 -3.044962
v 130.953781 0.806121 -3.043885
v 130.901917 0.577066 -3.028959
v 130.901917 0.577066 -3.006140
v 130.933716 0.577066 -3.025280
v 130.934494 0.577066 -3.006140
v 131.057007 0.578211 -3.008644
v 131.091629 0.578211 -3.008644
v 131.091629 0.578211 -3.029303
v 131.057007 0.578211 -3.030571
v 131.104279 0.580857 -3.446538
v 131.104935 0.580857 -3.492059
v 131.073975 0.580857 -3.492059
v 131.074646 0.580857 -3.446538
v 130.922897 0.579031 -3.496844
v 130.894196 0.579031 -3.496844
v 130.890671 0.579031 -3.457914
v 130.926422 0.579031 -3.457914
v 130.966629 1.009849 -2.711318
v 130.919189 1.022673 -2.829790
v 131.078812 1.022673 -2.829790
v 130.966080 0.958376 -2.729257
v 131.031921 0.958376 -2.729257
v 131.031387 1.009849 -2.711318
v 130.973022 0.969646 -3.505261
v 131.027695 0.969646 -3.505261
v 131.027695 0.981918 -3.527213
v 130.973022 0.981918 -3.527213
v 131.027695 1.027684 -3.500150
v 130.973022 1.027684 -3.500150
v 131.070465 1.012609 -2.773877
v 131.036911 0.927337 -2.757173
v 130.961105 0.927337 -2.757173
v 130.933044 1.012609 -2.773877
v 130.903259 0.707638 -3.028467
v 130.903259 0.707638 -2.988725
v 130.942413 0.707638 -3.029862
v 130.942413 0.707638 -2.988725
v 131.055481 0.714846 -3.030821
v 131.055481 0.714846 -2.988886
v 131.093613 0.714846 -2.988886
v 131.093613 0.714846 -3.029435
v 131.109802 0.733594 -3.416289
v 131.100418 0.735868 -3.485163
v 131.069107 0.733594 -3.416289
v 131.063171 0.735868 -3.485163
v 130.928650 0.735118 -3.416424
v 130.935730 0.737802 -3.482643
v 130.896698 0.737802 -3.482643
v 130.888458 0.735118 -3.416424
v 130.973022 1.056191 -3.503070
v 131.027695 1.056191 -3.503070
v 131.027695 1.010424 -3.530132
v 130.973022 1.010424 -3.530132
v 130.999008 1.073445 -2.901402
v 131.001114 1.076673 -2.829790
v 130.966721 1.123158 -2.820092
v 131.024902 1.122481 -2.819088
v 131.001129 1.075269 -2.823433
v 130.947144 1.074540 -2.823433
v 131.055115 1.075997 -2.823433
v 130.966736 1.121753 -2.813735
v 131.024933 1.121076 -2.812731
v 131.001755 1.012609 -2.773877
v 131.056732 0.603745 -3.033751
v 131.091995 0.603745 -2.990334
v 131.056732 0.603745 -2.990334
v 131.091995 0.603745 -3.032461
v 131.062927 0.578370 -2.981378
v 131.085724 0.578370 -2.981378
v 131.085968 0.595192 -2.981158
v 131.062729 0.595192 -2.981158
v 130.902191 0.603678 -3.031080
v 130.935501 0.603678 -3.028435
v 130.902191 0.603678 -2.988255
v 130.936111 0.603678 -2.988255
v 130.907272 0.576627 -2.977621
v 130.929443 0.576627 -2.977621
v 130.907455 0.594749 -2.977703
v 130.930542 0.594749 -2.977703
v 130.925659 0.603621 -3.460142
v 130.895020 0.603924 -3.502261
v 130.924149 0.603924 -3.502261
v 130.891785 0.603621 -3.460142
v 130.920792 0.579416 -3.446660
v 130.896362 0.579416 -3.446660
v 130.920273 0.596224 -3.448183
v 130.897125 0.596224 -3.448183
v 131.105408 0.600623 -3.450404
v 131.073303 0.600623 -3.450404
v 131.072601 0.603035 -3.495581
v 131.104309 0.603035 -3.495581
v 131.098801 0.581283 -3.438415
v 131.078003 0.581283 -3.438415
v 131.099594 0.597332 -3.441128
v 131.077057 0.597332 -3.441128
v 130.981323 1.030783 -3.469893
v 131.019608 1.030783 -3.469893
v 131.019608 1.057200 -3.472813
v 130.981323 1.057200 -3.472813
v 130.981323 1.028596 -3.457393
v 131.019608 1.028596 -3.457393
v 131.019608 1.049265 -3.458087
v 130.981323 1.049265 -3.458087
vn -0.2773 0.0954 -0.9560
vn 0.9980 0.0445 0.0457
vn -0.0000 -0.3291 0.9443
vn -0.0000 -0.6667 0.7454
vn -0.9999 -0.0112 -0.0000
vn -0.1969 0.9759 0.0938
vn 0.9981 0.0493 0.0362
vn -0.0037 0.6228 0.7824
vn -0.9837 0.0765 -0.1629
vn -0.0000 0.8214 -0.5703
vn -0.8478 0.0865 0.5232
vn 0.8529 0.0868 0.5148
vn -0.2345 0.9675 -0.0948
vn -0.2836 0.9589 0.0070
vn 0.9999 -0.0131 -0.0054
vn 0.0786 -0.9968 -0.0169
vn 0.9784 -0.0419 0.2022
vn 0.9893 0.0270 -0.1433
vn -0.0037 0.6178 0.7863
vn -0.9979 0.0420 0.0493
vn -0.0712 -0.9973 -0.0154
vn 0.0013 -0.9995 -0.0309
vn 0.9979 -0.0191 -0.0619
vn 0.0032 -0.9989 -0.0476
vn 0.3993 0.9164 0.0285
vn -0.0000 1.0000 0.0097
vn 0.2436 0.9653 -0.0946
vn -0.0000 0.9959 -0.0902
vn -0.0066 0.9935 -0.1139
vn -0.0000 -0.5992 0.8006
vn -0.8982 -0.3893 -0.2044
vn -0.1668 -0.8763 0.4520
vn 0.3559 0.9345 0.0002
vn -0.0000 0.9904 0.1381
vn -0.9999 0.0102 -0.0000
vn 0.0001 -0.9999 0.0146
vn -0.9963 0.0651 0.0557
vn -0.0000 0.8262 -0.5633
vn 0.4144 0.0757 -0.9069
vn 1.0000 -0.0000 -0.0000
vn -0.0000 -1.0000 -0.0000
vn 0.0962 -0.1019 -0.9901
vn -0.0000 0.7634 0.6460
vn 0.9981 -0.0570 -0.0234
vn 0.9999 -0.0146 -0.0000
vn 0.0363 -0.1231 -0.9917
vn 0.9504 -0.1362 0.2796
vn -0.0000 0.9424 0.3344
vn -0.9980 -0.0620 0.0133
vn -0.0000 -0.1569 -0.9876
vn -0.9962 0.0262 -0.0830
vn -0.0000 -0.2126 -0.9771
vn 0.8932 0.0684 0.4445
vn 0.0244 -0.0813 -0.9964
vn -0.0000 -0.9974 0.0717
vn -0.0000 -0.6687 0.7435
vn -0.0000 0.9990 0.0441
vn 0.8516 -0.2099 0.4803
vn -0.0000 -0.8729 -0.4880
vn -0.0000 0.9994 -0.0334
vn -0.0000 -0.1019 -0.9948
vn -0.0000 0.5090 -0.8608
vn -0.8829 -0.1815 0.4331
vn 0.9406 -0.3123 0.1328
vn 0.8476 -0.4444 -0.2901
vn -0.9432 -0.2860 0.1689
vn -0.9154 -0.3968 0.0676
vn 0.9598 -0.1291 -0.2491
vn -0.9781 -0.0420 0.2037
vn -0.8855 0.4642 -0.0207
vn 0.9797 -0.1713 -0.1040
vn -0.0270 -0.2437 0.9695
vn -0.0562 -0.1262 -0.9904
vn -0.9965 0.0832 0.0006
vn 0.0294 -0.2617 0.9647
vn 0.0579 -0.1369 -0.9889
vn 0.9968 0.0800 0.0009
vn -0.9777 -0.1833 -0.1021
vn 0.1360 0.0160 -0.9906
vn -0.9664 -0.2564 0.0176
vn -0.0000 -0.5795 0.8150
vn 0.9793 0.1665 -0.1153
vn -0.0000 -0.5254 0.8509
vn -0.0415 -0.1177 -0.9922
vn -0.9877 0.0718 -0.1388
vn 0.9659 -0.2577 0.0233
vn -0.0000 0.6524 0.7579
vn -1.0000 -0.0000 -0.0000
vn -0.8378 -0.5337 -0.1154
vn 0.9264 -0.3672 -0.0839
vn -0.0031 0.2290 -0.9734
vn -0.0027 0.2023 -0.9793
vn -0.8099 -0.5733 -0.1242
vn -0.0132 0.9764 0.2157
vn 0.8923 -0.4402 -0.0999
vn 0.0031 -0.2290 0.9734
vn 0.0027 -0.2023 0.9793
vn -0.9613 0.2685 0.0622
vn 0.9588 0.2778 0.0585
vn -0.9599 -0.1291 -0.2491
vn -0.0000 -0.0130 0.9999
vn 0.0364 0.0267 -0.9990
vn -0.0000 -1.0000 0.0058
vn -0.0000 0.7315 0.6819
vn -0.9506 -0.1332 0.2803
vn 0.9979 -0.0636 -0.0076
vn -0.0000 0.0045 1.0000
vn 0.0173 0.0050 -0.9998
vn 0.9628 -0.1483 0.2258
vn -0.0000 -0.9999 -0.0154
vn -0.9665 -0.0863 0.2417
vn -0.0000 -0.3155 0.9489
vn -0.0000 0.1450 -0.9894
vn -0.9943 0.0188 -0.1049
vn 0.9966 -0.0666 0.0495
vn -0.0000 0.0902 0.9959
vn -0.8908 0.0808 0.4471
vn -0.0000 -0.9994 0.0342
vn -0.0000 0.8505 0.5260
vn -0.0000 0.0782 -0.9969
vn -0.9966 -0.0605 0.0556
vn -0.0000 -0.2485 0.9686
vn 0.9957 0.0134 -0.0912
vn -0.0000 0.1667 0.9860
vn -0.9250 0.0113 0.3799
vn 0.8332 0.0560 0.5502
vn -0.0000 -0.9986 0.0524
vn 0.1674 -0.8763 0.4517
vn -0.0000 -0.8572 0.5150
vn 0.9662 0.0273 0.2564
vn -0.9646 0.0279 0.2624
vn -0.0000 -0.9948 0.1019
vn -0.0000 0.0336 0.9994
vn -0.0000 -0.9850 -0.1723
vn -0.0000 0.8803 0.4744
vt 0.508050 0.747167
vt 0.502768 0.874844
vt 0.464205 0.884165
vt 0.459100 0.852808
vt 0.473305 0.747190
vt 0.544403 0.098094
vt 0.675991 0.066558
vt 0.671772 0.316343
vt 0.544452 0.323816
vt 0.820373 0.404387
vt 0.820369 0.435441
vt 0.783482 0.435802
vt 0.782870 0.404754
vt 0.763664 0.215726
vt 0.836120 0.215017
vt 0.830499 0.245318
vt 0.769877 0.245911
vt 0.111802 0.612839
vt 0.083371 0.616976
vt 0.084241 0.604447
vt 0.094572 0.600604
vt 0.956753 0.300150
vt 0.990799 0.300075
vt 0.987447 0.351187
vt 0.963801 0.348754
vt 0.677831 0.361410
vt 0.547420 0.381681
vt 0.814154 0.480754
vt 0.814247 0.528054
vt 0.782279 0.528029
vt 0.773478 0.481152
vt 0.199845 0.098270
vt 0.067684 0.073057
vt 0.067042 0.017828
vt 0.194593 0.007872
vt 0.882756 0.378701
vt 0.975873 0.380207
vt 0.969900 0.429312
vt 0.928415 0.432153
vt 0.887045 0.427973
vt 0.065439 0.368004
vt 0.195790 0.388636
vt 0.182241 0.427192
vt 0.043933 0.390358
vt 0.699276 0.383591
vt 0.560926 0.420141
vt 0.949551 -0.000000
vt 0.989171 0.004583
vt 1.000000 0.058826
vt 0.962770 0.072306
vt 0.391130 0.000000
vt 0.389394 0.032342
vt 0.375224 0.035107
vt 0.375253 0.002526
vt 0.831062 0.864069
vt 0.789933 0.865783
vt 0.792048 0.640298
vt 0.822267 0.640511
vt 0.726523 0.423104
vt 0.584506 0.440034
vt 0.548795 0.009626
vt 0.676063 0.015960
vt 0.838784 0.473801
vt 0.829252 0.526590
vt 0.793892 0.526562
vt 0.793790 0.474241
vt 0.062997 0.317365
vt 0.198911 0.331541
vt 0.944303 0.866003
vt 0.895929 0.867797
vt 0.886857 0.637200
vt 0.917103 0.634603
vt 0.634094 0.831518
vt 0.604065 0.830897
vt 0.602654 0.813349
vt 0.630508 0.813698
vt 0.899540 0.959727
vt 0.834820 0.959727
vt 0.861820 0.058570
vt 0.898941 0.072134
vt 0.903839 0.300064
vt 0.868922 0.305113
vt 0.871924 0.009039
vt 0.910358 0.000048
vt 0.966039 0.483611
vt 0.926162 0.483611
vt 0.886293 0.482504
vt 0.837575 0.295863
vt 0.763791 0.296585
vt 0.743350 0.475553
vt 0.701647 0.478543
vt 0.697834 0.518756
vt 0.737198 0.184650
vt 0.776712 0.180644
vt 0.895596 0.348080
vt 0.872743 0.350100
vt 0.349398 0.370780
vt 0.349601 0.340125
vt 0.368641 0.341769
vt 0.368533 0.358103
vt 0.829421 0.580785
vt 0.875063 0.578990
vt 0.408587 0.746737
vt 0.420014 0.852663
vt 0.412368 0.883499
vt 0.374354 0.873269
vt 0.376894 0.745998
vt 0.290258 0.883010
vt 0.290258 0.844996
vt 0.302428 0.861477
vt 0.302428 0.899491
vt 0.617438 0.593687
vt 0.602910 0.604958
vt 0.593155 0.602524
vt 0.602945 0.583069
vt 0.626427 0.612392
vt 0.603767 0.619305
vt 0.766649 0.031207
vt 0.742478 0.029237
vt 0.747029 0.019692
vt 0.763489 0.021033
vt 0.577082 0.616174
vt 0.071088 0.589922
vt 0.083592 0.581572
vt 0.393848 0.331769
vt 0.393965 0.361919
vt 0.375638 0.348885
vt 0.375580 0.334100
vt 0.059241 0.608199
vt 0.387258 0.369281
vt 0.375224 0.368846
vt 0.033465 0.802617
vt 0.035579 0.779785
vt 0.067744 0.785855
vt 0.060818 0.801150
vt 0.085641 0.805682
vt 0.064159 0.814101
vt 0.066858 0.806572
vt 0.079883 0.801030
vt 0.031990 0.817258
vt 0.391725 0.589280
vt 0.369072 0.588644
vt 0.369072 0.572582
vt 0.391192 0.573204
vt 0.632607 0.793352
vt 0.605268 0.788007
vt 0.351448 0.030236
vt 0.351063 0.000000
vt 0.368906 0.003812
vt 0.369072 0.031792
vt 0.516685 0.589833
vt 0.495862 0.589664
vt 0.496902 0.571458
vt 0.517422 0.571625
vt 0.612324 0.809784
vt 0.612466 0.825881
vt 0.604220 0.820562
vt 0.605139 0.811492
vt 0.828429 0.362042
vt 0.774230 0.362572
vt 0.825156 0.391922
vt 0.778088 0.392382
vt 0.837402 0.472984
vt 0.804407 0.473307
vt 0.771412 0.473630
vt 0.787243 0.443399
vt 0.818341 0.443095
vt 0.632681 0.469828
vt 0.697834 0.453545
vt 0.690443 0.506248
vt 0.654103 0.491274
vt 0.254405 0.920652
vt 0.215320 0.920652
vt 0.215320 0.902672
vt 0.254405 0.902672
vt 0.254405 0.844170
vt 0.215320 0.844170
vt 0.221246 0.822526
vt 0.248623 0.822526
vt 0.215320 0.882184
vt 0.254405 0.882184
vt 0.042318 0.508089
vt 0.107671 0.517986
vt 0.087815 0.541052
vt 0.052431 0.558521
vt 0.639644 0.467879
vt 0.713951 0.478543
vt 0.710138 0.518756
vt 0.644985 0.535039
vt 0.041892 0.484787
vt 0.000000 0.482980
vt 0.045407 0.525563
vt 0.027742 0.474329
vt 0.101576 0.464356
vt 0.095238 0.531701
vt 0.031258 0.515105
vt 0.627340 0.467879
vt 0.158621 0.447045
vt 0.016611 0.429840
vt 0.615363 0.766597
vt 0.554119 0.766597
vt 0.577613 0.691960
vt 0.608074 0.692347
vt 0.737198 0.103380
vt 0.765106 0.105655
vt 0.645927 0.765756
vt 0.636892 0.687530
vt 0.275170 0.341503
vt 0.274982 0.369951
vt 0.861820 0.183429
vt 0.822387 0.180197
vt 0.832988 0.109916
vt 0.860115 0.107184
vt 0.070299 0.763771
vt 0.040056 0.762614
vt 0.049303 0.689357
vt 0.077773 0.693910
vt 0.473489 0.362646
vt 0.473377 0.333627
vt 0.132883 0.763771
vt 0.109193 0.693719
vt 0.369173 0.683946
vt 0.395795 0.684694
vt 0.146031 0.981819
vt 0.055916 0.968538
vt 0.068364 0.909979
vt 0.118607 0.910449
vt 0.154483 0.965522
vt 0.122105 0.986214
vt 0.094681 0.914844
vt 0.122739 0.901447
vt 0.484506 0.057165
vt 0.486240 0.007420
vt 0.545123 0.994922
vt 0.506349 0.970232
vt 0.542326 0.913631
vt 0.568970 0.927127
vt 0.486796 0.686334
vt 0.514701 0.686560
vt 0.255283 0.014442
vt 0.257514 0.062196
vt 0.634094 0.985536
vt 0.618537 0.927038
vt 0.273054 0.877193
vt 0.272283 0.845432
vt 0.213221 0.937885
vt 0.252307 0.937885
vt 0.252307 0.956046
vt 0.213221 0.956046
vt 0.198424 0.852815
vt 0.197653 0.884575
vt 0.180448 0.890392
vt 0.180448 0.852378
vt 0.168278 0.906873
vt 0.168278 0.868859
vt 0.271631 0.647195
vt 0.271631 0.607658
vt 0.276285 0.607712
vt 0.276285 0.647249
vt 0.290247 0.607717
vt 0.290247 0.644915
vt 0.285593 0.644857
vt 0.285593 0.607658
vt 0.342698 0.674802
vt 0.309292 0.695950
vt 0.309292 0.657347
vt 0.343564 0.633206
vt 0.309292 0.618744
vt 0.363518 0.618744
vt 0.363518 0.576823
vt 0.368172 0.576771
vt 0.368172 0.618692
vt 0.276285 0.646261
vt 0.276285 0.607658
vt 0.280939 0.607658
vt 0.280939 0.646261
vt 0.285593 0.607658
vt 0.285593 0.646261
vt 0.280939 0.607658
vt 0.309379 0.573444
vt 0.271687 0.573444
vt 0.271631 0.568790
vt 0.309323 0.568790
vt 0.291501 0.607658
vt 0.338910 0.576823
vt 0.338910 0.618744
vt 0.307350 0.599053
vt 0.000792 0.487644
vt 0.742648 0.480199
vt 0.115726 0.474814
vt 0.825909 0.030788
vt 0.851001 0.028261
vt 0.845817 0.019770
vt 0.829285 0.021435
vt 0.828213 0.009453
vt 0.844437 0.007819
vt 0.103474 0.576771
vt 0.110746 0.591826
vt 0.116475 0.603357
vt 0.747950 0.006767
vt 0.763758 0.008056
vt 0.571328 0.606937
vt 0.576000 0.594425
vt 0.581275 0.578841
vt 0.369072 0.378869
vt 0.356099 0.378976
vt 0.582485 0.822260
vt 0.589469 0.814659
vt 0.594756 0.803684
vt 0.368546 0.040806
vt 0.356500 0.039742
vt 0.596386 0.796562
vt 0.055916 0.812863
vt 0.088085 0.809707
vt 0.065135 0.800756
vt 0.071005 0.791463
vt 0.387036 0.040178
vt 0.375536 0.042120
vt 0.187173 0.918980
vt 0.198579 0.903781
vt 0.207069 0.906982
vt 0.199123 0.919451
vt 0.283563 0.911575
vt 0.272157 0.896377
vt 0.246524 0.977792
vt 0.219148 0.977792
vt 0.221246 0.795780
vt 0.248623 0.795780
vt 0.248623 0.810566
vt 0.221246 0.810566
vt 0.246524 0.986865
vt 0.219148 0.986865
vt 0.271613 0.912047
vt 0.263667 0.899577
s 0
usemtl Material.037
f 3/1/1 4/2/1 27/3/1 67/4/1 26/5/1
f 22/6/2 23/7/2 24/8/2 21/9/2
f 65/10/3 66/11/3 61/12/3 64/13/3
f 9/14/4 12/15/4 33/16/4 36/17/4
f 109/18/5 107/19/5 52/20/5 49/21/5
f 39/22/6 19/23/6 2/24/6 32/25/6
f 21/9/7 24/8/7 6/26/7 5/27/7
f 106/28/8 101/29/8 102/30/8 76/31/8
f 17/32/9 20/33/9 4/34/9 3/35/9
f 11/36/10 10/37/10 35/38/10 97/39/10 34/40/10
f 2/41/11 1/42/11 9/43/11 10/44/11
f 5/27/12 6/26/12 11/45/12 12/46/12
f 27/47/13 4/48/13 20/49/13 37/50/13
f 37/50/14 20/49/14 19/23/14 39/22/14
f 134/51/15 131/52/15 53/53/15 54/54/15
f 41/55/16 22/56/16 21/57/16 43/58/16
f 12/46/17 11/45/17 34/59/17 33/60/17
f 7/61/18 8/62/18 23/7/18 22/6/18
f 73/63/19 103/64/19 101/65/19 106/66/19
f 1/42/20 2/41/20 19/67/20 18/68/20
f 17/69/21 42/70/21 44/71/21 18/72/21
f 42/70/22 41/55/22 43/58/22 44/71/22
f 125/73/23 123/74/23 60/75/23 57/76/23
f 26/77/24 25/78/24 41/55/24 42/70/24
f 23/79/25 38/80/25 40/81/25 24/82/25
f 38/80/26 37/50/26 39/22/26 40/81/26
f 8/83/27 28/84/27 38/80/27 23/79/27
f 28/84/28 27/47/28 37/50/28 38/80/28
f 34/40/29 97/39/29 35/38/29 14/85/29 98/86/29 15/87/29
f 36/17/30 33/16/30 16/88/30 13/89/30
f 15/90/31 63/91/31 73/92/31
f 9/14/32 1/93/32 29/94/32
f 24/82/33 40/81/33 31/95/33 6/96/33
f 40/81/34 39/22/34 32/25/34 31/95/34
f 117/97/35 115/98/35 45/99/35 46/100/35
f 44/71/36 43/58/36 30/101/36 29/102/36
f 18/68/37 19/67/37 20/33/37 17/32/37
f 6/96/38 31/95/38 32/25/38 2/24/38 10/37/38 11/36/38
f 25/103/39 68/104/39 28/105/39 8/106/39 7/107/39
f 71/108/40 69/109/40 95/110/40 94/111/40
f 45/112/41 47/113/41 48/114/41 46/115/41
f 115/116/42 116/117/42 47/113/42 45/112/42
f 118/118/43 117/119/43 121/120/43 122/121/43
f 116/117/44 118/122/44 48/114/44 47/113/44
f 52/20/41 51/123/41 50/124/41 49/21/41
f 110/125/45 108/126/45 50/127/45 51/128/45
f 107/19/46 110/129/46 51/123/46 52/20/46
f 50/127/47 108/126/47 113/130/47 112/131/47
f 55/132/41 54/133/41 53/134/41 56/135/41
f 131/136/48 132/137/48 138/138/48 137/139/48
f 132/137/49 133/140/49 55/132/49 56/135/49
f 133/141/50 134/142/50 54/143/50 55/144/50
f 58/145/41 57/76/41 60/75/41 59/146/41
f 126/147/51 124/148/51 58/149/51 59/150/51
f 124/151/52 125/152/52 57/153/52 58/154/52
f 60/155/53 123/156/53 129/157/53 127/158/53
f 26/5/54 67/4/54 68/104/54 25/103/54
f 13/89/55 16/88/55 74/159/55 75/160/55
f 75/160/56 74/159/56 65/161/56 64/162/56
f 73/163/57 106/164/57 76/165/57 61/166/57 66/167/57
f 74/168/58 73/169/58 66/170/58 65/171/58
f 68/172/59 67/173/59 70/174/59 69/175/59
f 94/176/60 93/177/60 142/178/60 141/179/60
f 69/175/61 70/174/61 96/180/61 95/181/61
f 94/176/62 95/181/62 96/180/62 93/177/62
f 76/182/63 75/183/63 64/184/63 61/185/63
f 16/186/64 63/187/64 73/188/64 74/189/64
f 62/190/65 14/191/65 76/192/65
f 62/193/66 13/194/66 75/195/66 76/196/66
f 15/90/67 34/59/67 63/91/67
f 16/197/68 33/60/68 34/59/68 63/91/68
f 10/44/69 9/43/69 36/198/69 35/199/69
f 35/199/70 62/190/70 14/191/70
f 44/200/71 29/201/71 80/202/71 79/203/71
f 29/94/72 1/93/72 78/204/72 80/205/72
f 18/206/73 44/200/73 79/203/73 77/207/73
f 1/42/74 18/68/74 77/208/74 78/209/74
f 5/210/75 30/211/75 82/212/75 83/213/75
f 43/214/76 21/215/76 84/216/76 81/217/76
f 21/9/77 5/27/77 83/218/77 84/219/77
f 30/220/78 43/214/78 81/217/78 82/221/78
f 25/103/79 7/107/79 86/222/79 88/223/79
f 41/224/80 25/225/80 88/226/80 87/227/80
f 22/228/81 41/229/81 87/230/81 85/231/81
f 7/61/82 22/6/82 85/232/82 86/233/82
f 42/234/83 17/235/83 92/236/83 89/237/83
f 3/1/84 26/5/84 90/238/84 91/239/84
f 17/32/85 3/35/85 91/240/85 92/241/85
f 26/242/86 42/234/86 89/237/86 90/243/86
f 28/244/40 68/245/40 69/109/40 71/108/40
f 27/246/87 28/247/87 71/248/87 72/249/87
f 67/250/88 27/251/88 72/252/88 70/253/88
f 70/253/88 72/252/88 93/254/88 96/255/88
f 100/256/89 15/257/89 103/258/89 105/259/89
f 14/260/90 99/261/90 104/262/90 102/263/90
f 105/264/91 103/265/91 101/266/91
f 104/267/92 101/266/92 102/268/92
f 99/269/93 98/270/93 101/271/93 104/272/93
f 15/273/94 98/274/94 101/275/94 103/276/94
f 98/277/94 14/278/94 102/276/94 101/279/94
f 98/280/95 100/281/95 105/282/95 101/283/95
f 15/284/96 100/281/96 98/280/96
f 98/285/97 99/286/97 14/287/97
f 14/191/98 76/192/98 102/288/98
f 15/90/99 103/289/99 73/92/99
f 13/290/100 62/190/100 35/199/100 36/198/100
f 83/213/101 82/212/101 109/291/101 108/292/101
f 81/217/102 84/216/102 110/129/102 107/19/102
f 84/219/45 83/218/45 108/126/45 110/125/45
f 82/221/5 81/217/5 107/19/5 109/18/5
f 113/293/101 114/294/101 111/295/101 112/296/101
f 49/21/103 50/124/103 112/297/103 111/298/103
f 108/292/104 109/291/104 114/294/104 113/293/104
f 109/18/105 49/21/105 111/298/105 114/299/105
f 79/203/106 80/202/106 118/122/106 116/117/106
f 80/205/107 78/204/107 117/119/107 118/118/107
f 77/207/108 79/203/108 116/117/108 115/116/108
f 78/209/35 77/208/35 115/98/35 117/97/35
f 122/121/107 121/120/107 119/300/107 120/301/107
f 48/114/109 118/122/109 122/302/109 120/303/109
f 46/115/110 48/114/110 120/303/110 119/304/110
f 117/97/111 46/100/111 119/305/111 121/306/111
f 89/237/112 92/236/112 126/307/112 123/74/112
f 91/239/113 90/238/113 125/152/113 124/151/113
f 92/241/114 91/240/114 124/148/114 126/147/114
f 90/243/115 89/237/115 123/74/115 125/73/115
f 129/157/116 130/308/116 128/309/116 127/158/116
f 126/147/117 59/150/117 128/310/117 130/311/117
f 59/312/118 60/155/118 127/158/118 128/309/118
f 123/74/119 126/307/119 130/308/119 129/157/119
f 88/223/120 86/222/120 134/142/120 133/141/120
f 87/227/121 88/226/121 133/313/121 132/314/121
f 85/231/122 87/230/122 132/137/122 131/136/122
f 86/233/123 85/232/123 131/52/123 134/51/123
f 137/139/124 138/138/124 136/315/124 135/316/124
f 132/137/125 56/135/125 136/315/125 138/138/125
f 53/53/126 131/52/126 137/317/126 135/318/126
f 56/135/127 53/134/127 135/316/127 136/315/127
f 30/211/128 5/210/128 12/15/128
f 30/211/129 12/15/129 9/14/129 29/94/129
f 142/319/88 139/320/88 143/321/88 146/322/88
f 71/108/130 94/111/130 141/323/130 140/324/130
f 93/254/131 72/252/131 139/320/131 142/319/131
f 72/249/132 71/248/132 140/325/132 139/326/132
f 143/327/133 144/328/133 145/329/133 146/330/133
f 139/326/134 140/325/134 144/331/134 143/332/134
f 141/179/135 142/178/135 146/330/135 145/329/135
f 140/324/40 141/323/40 145/333/40 144/334/40
