# Blender 4.1.0
# www.blender.org
mtllib dvere veznice .mtl
o dvere_vezeni
v 174.774185 2.146335 -3.285398
v 174.774185 2.185876 -3.285398
v 174.774185 2.146335 -3.330406
v 174.774185 2.185876 -3.330406
v 175.478729 2.146335 -3.285398
v 175.478729 2.185876 -3.285398
v 175.478729 2.146335 -3.330406
v 175.478729 2.185876 -3.330406
v 175.437012 2.146335 -3.330406
v 175.437012 2.185876 -3.330406
v 175.437012 2.146335 -3.285398
v 175.437012 2.185876 -3.285398
v 174.814194 2.146335 -3.330406
v 174.814194 2.185876 -3.285398
v 174.814194 2.185876 -3.330406
v 174.814194 2.146335 -3.285398
v 174.774185 2.185876 -3.426319
v 174.774185 2.146335 -3.426319
v 174.814194 2.146335 -3.426319
v 174.814194 2.185876 -3.426319
v 175.437012 2.185876 -3.439014
v 175.478729 2.185876 -3.439014
v 175.478729 2.146335 -3.439014
v 175.437012 2.146335 -3.439014
v 174.645966 1.137221 -3.407409
v 174.645966 1.187085 -3.407409
v 174.645966 1.137221 -3.454904
v 174.645966 1.187085 -3.454904
v 175.591492 1.137221 -3.407409
v 175.591492 1.187085 -3.407409
v 175.591492 1.137221 -3.454904
v 175.591492 1.187085 -3.454904
v 175.544815 1.137221 -3.454904
v 175.544815 1.187085 -3.454904
v 175.544815 1.137221 -3.407409
v 175.544815 1.187085 -3.407409
v 174.694458 1.137221 -3.454904
v 174.692017 1.187085 -3.407409
v 174.692017 1.187085 -3.454904
v 174.694458 1.137221 -3.407409
v 174.645966 3.334016 -3.407409
v 174.645966 3.334016 -3.454904
v 174.692017 3.329663 -3.407409
v 174.692017 3.329663 -3.454904
v 175.544815 3.323905 -3.454904
v 175.591492 3.324405 -3.454904
v 175.591492 3.324405 -3.407409
v 175.544815 3.323905 -3.407409
v 174.645966 3.361516 -3.407409
v 174.645966 3.361516 -3.454904
v 174.692017 3.361516 -3.407409
v 174.692017 3.361516 -3.454904
v 175.544815 3.354074 -3.454904
v 175.591492 3.354074 -3.454904
v 175.591492 3.354074 -3.407409
v 175.544815 3.354074 -3.407409
v 174.813812 1.187085 -3.454904
v 174.866760 1.187085 -3.454904
v 175.057465 1.187085 -3.454904
v 175.116028 1.187085 -3.454904
v 175.301117 1.187085 -3.454904
v 175.361755 1.187085 -3.454904
v 174.815887 1.137221 -3.407409
v 174.868500 1.137221 -3.407409
v 175.058853 1.137221 -3.407409
v 175.117081 1.137221 -3.407409
v 175.301819 1.137221 -3.407409
v 175.362106 1.137221 -3.407409
v 175.362106 1.137221 -3.454904
v 175.301819 1.137221 -3.454904
v 175.117081 1.137221 -3.454904
v 175.058853 1.137221 -3.454904
v 174.868500 1.137221 -3.454904
v 174.815887 1.137221 -3.454904
v 175.361755 1.187085 -3.407409
v 175.301117 1.187085 -3.407409
v 175.116028 1.187085 -3.407409
v 175.057465 1.187085 -3.407409
v 174.866760 1.187085 -3.407409
v 174.813812 1.187085 -3.407409
v 174.813843 3.328840 -3.454904
v 174.858704 3.328018 -3.454904
v 175.057510 3.327195 -3.454904
v 175.097412 3.326373 -3.454904
v 175.304916 3.325550 -3.454904
v 175.346405 3.324728 -3.454904
v 174.813843 3.328840 -3.407409
v 174.858704 3.328018 -3.407409
v 175.057510 3.327195 -3.407409
v 175.097412 3.326373 -3.407409
v 175.304916 3.325550 -3.407409
v 175.346405 3.324728 -3.407409
v 174.813843 3.360453 -3.407409
v 174.858704 3.359390 -3.407409
v 175.057510 3.358327 -3.407409
v 175.097412 3.357264 -3.407409
v 175.304916 3.356200 -3.407409
v 175.346405 3.355137 -3.407409
v 174.813843 3.360453 -3.454904
v 174.858704 3.359390 -3.454904
v 175.057510 3.358327 -3.454904
v 175.097412 3.357264 -3.454904
v 175.304916 3.356200 -3.454904
v 175.346405 3.355137 -3.454904
v 174.862732 2.141650 -3.407409
v 174.813828 2.142061 -3.407409
v 174.813828 2.142061 -3.454904
v 174.862732 2.141650 -3.454904
v 175.106720 2.140828 -3.407409
v 175.057480 2.141239 -3.407409
v 175.057480 2.141239 -3.454904
v 175.106720 2.140828 -3.454904
v 175.354080 2.140005 -3.407409
v 175.303024 2.140416 -3.407409
v 175.303024 2.140416 -3.454904
v 175.354080 2.140005 -3.454904
v 175.544815 2.139594 -3.454904
v 175.591492 2.139594 -3.454904
v 175.544815 2.139594 -3.407409
v 175.591492 2.139594 -3.407409
v 174.645966 2.142473 -3.407409
v 174.645966 2.142473 -3.454904
v 174.692017 2.142473 -3.407409
v 174.692017 2.142473 -3.454904
v 174.645966 2.190726 -3.407409
v 174.692017 2.190726 -3.407409
v 174.645966 2.190726 -3.454904
v 174.692017 2.190726 -3.454904
v 174.862534 2.189075 -3.407409
v 174.813828 2.189507 -3.407409
v 174.813828 2.189507 -3.454904
v 174.862534 2.189075 -3.454904
v 175.106262 2.188532 -3.407409
v 175.057480 2.188963 -3.407409
v 175.057480 2.188963 -3.454904
v 175.106262 2.188532 -3.454904
v 175.353683 2.189960 -3.407409
v 175.303116 2.190393 -3.407409
v 175.303116 2.190393 -3.454904
v 175.353683 2.189960 -3.454904
v 175.544815 2.186507 -3.454904
v 175.544815 2.186507 -3.407409
v 175.591492 2.186507 -3.454904
v 175.591492 2.186507 -3.407409
vn -1.0000 -0.0000 -0.0000
vn -0.0000 1.0000 -0.0000
vn 1.0000 -0.0000 -0.0000
vn -0.0000 -0.0000 1.0000
vn -0.0000 -1.0000 -0.0000
vn -0.0000 -0.0000 -1.0000
vn 0.0041 1.0000 -0.0000
vn -0.0054 -1.0000 -0.0000
vn -0.0087 -1.0000 -0.0000
vn -0.0237 -0.9997 -0.0000
vn -0.0053 -1.0000 -0.0000
vn -0.0266 -0.9996 -0.0000
vn -0.0051 -1.0000 -0.0000
vn -0.0256 -0.9997 -0.0000
vn 0.0068 1.0000 -0.0000
vn 0.0183 0.9998 -0.0000
vn 0.0206 0.9998 -0.0000
vn 0.0040 1.0000 -0.0000
vn 0.0198 0.9998 -0.0000
vn -1.0000 0.0020 -0.0000
vn -1.0000 -0.0081 -0.0000
vn -1.0000 -0.0098 -0.0000
vn -1.0000 -0.0042 -0.0000
vn -1.0000 -0.0034 -0.0000
vn -1.0000 -0.0078 -0.0000
vn -1.0000 0.0016 -0.0000
vn -1.0000 -0.0064 -0.0000
vn -0.0034 -1.0000 -0.0000
vn 0.0100 0.9999 -0.0000
vn 0.0021 1.0000 -0.0000
vn 0.0006 1.0000 -0.0000
vn -0.0021 -1.0000 -0.0000
vn 0.0095 -1.0000 -0.0000
vn -0.0022 -1.0000 -0.0000
vn -0.0181 -0.9998 -0.0000
vt 0.113101 0.734806
vt 0.100817 0.734806
vt 0.100817 0.720824
vt 0.113101 0.720824
vt 0.621244 0.881454
vt 0.621244 0.894416
vt 0.587503 0.894416
vt 0.587503 0.881454
vt 0.071306 0.705009
vt 0.059022 0.705009
vt 0.059022 0.691026
vt 0.071306 0.691026
vt 0.709991 0.687962
vt 0.697707 0.687962
vt 0.697707 0.675535
vt 0.709991 0.675535
vt 0.649210 0.881454
vt 0.649210 0.894415
vt 0.635227 0.894415
vt 0.635227 0.881454
vt 0.621244 0.687962
vt 0.621244 0.675535
vt 0.635227 0.675535
vt 0.635227 0.687962
vt 0.635227 0.881454
vt 0.635227 0.894416
vt 0.649210 0.687962
vt 0.635227 0.687962
vt 0.709991 0.894417
vt 0.697707 0.894417
vt 0.697707 0.881456
vt 0.709991 0.881456
vt 0.722275 0.869029
vt 0.709991 0.869029
vt 0.709991 0.675535
vt 0.722275 0.675535
vt 0.125385 0.691026
vt 0.137669 0.691026
vt 0.137669 0.720824
vt 0.125385 0.720824
vt 0.649210 0.675535
vt 0.635227 0.675535
vt 0.191047 0.703453
vt 0.178763 0.703453
vt 0.178763 0.691026
vt 0.191047 0.691026
vt 0.591447 0.687962
vt 0.591447 0.675535
vt 0.100817 0.691026
vt 0.113101 0.691026
vt 0.679007 0.675535
vt 0.679007 0.687962
vt 0.178763 0.703988
vt 0.166479 0.703988
vt 0.166479 0.691026
vt 0.178763 0.691026
vt 0.682951 0.881454
vt 0.682951 0.894415
vt 0.125385 0.724768
vt 0.113101 0.724768
vt 0.113101 0.691026
vt 0.125385 0.691026
vt 0.071306 0.738751
vt 0.059022 0.738751
vt 0.852444 0.691025
vt 0.852444 0.675534
vt 0.867200 0.675534
vt 0.867200 0.691025
vt 0.279250 0.691026
vt 0.279250 0.675535
vt 0.293751 0.675535
vt 0.293751 0.691026
vt 0.867200 0.688714
vt 0.867200 0.673223
vt 0.881955 0.673223
vt 0.881955 0.688714
vt 0.572437 0.691026
vt 0.573194 0.675535
vt 0.587503 0.675535
vt 0.587503 0.691026
vt 0.955733 0.944118
vt 0.955733 0.958620
vt 0.940978 0.958620
vt 0.940978 0.944118
vt 0.867200 0.363731
vt 0.852444 0.363731
vt 0.852444 0.008543
vt 0.867200 0.008543
vt 0.293751 0.365042
vt 0.279250 0.365042
vt 0.279250 0.011685
vt 0.293751 0.011529
vt 0.955733 0.887356
vt 0.940978 0.887356
vt 0.293751 0.691026
vt 0.293751 0.675535
vt 0.308253 0.675535
vt 0.308253 0.691026
vt 0.222487 0.691026
vt 0.222379 0.675535
vt 0.000000 0.691026
vt 0.000000 0.675535
vt 0.014308 0.675535
vt 0.015065 0.691026
vt 0.955733 0.664871
vt 0.955733 0.679936
vt 0.940978 0.679936
vt 0.940978 0.664871
vt 0.682951 0.713370
vt 0.682951 0.675535
vt 0.697707 0.675535
vt 0.697707 0.713371
vt 0.534710 0.691026
vt 0.535359 0.675535
vt 0.896711 0.009896
vt 0.881956 0.009896
vt 0.881956 0.000000
vt 0.896711 0.000000
vt 0.587503 0.363732
vt 0.573194 0.363732
vt 0.573194 0.009896
vt 0.587503 0.008544
vt 0.014308 0.363732
vt 0.000000 0.363732
vt 0.000000 0.008544
vt 0.014308 0.009896
vt 0.896711 0.363732
vt 0.881956 0.363732
vt 0.308253 0.011685
vt 0.293751 0.011529
vt 0.293751 0.002312
vt 0.308253 0.002312
vt 0.911467 0.362730
vt 0.896711 0.362730
vt 0.896711 0.009373
vt 0.911467 0.009373
vt 0.881955 0.362730
vt 0.867200 0.362730
vt 0.867200 0.009217
vt 0.881956 0.009217
vt 0.308253 0.365042
vt 0.293751 0.365042
vt 0.166479 0.705782
vt 0.152171 0.705782
vt 0.152171 0.691026
vt 0.166479 0.691026
vt 0.573194 0.000000
vt 0.587503 0.000000
vt 0.000000 0.000000
vt 0.014308 0.000000
vt 0.852444 0.000000
vt 0.867200 0.000000
vt 0.137669 0.691026
vt 0.152171 0.705782
vt 0.137669 0.705782
vt 0.279250 0.002312
vt 0.293751 0.002312
vt 0.896711 0.000000
vt 0.911467 0.000000
vt 0.867200 0.000000
vt 0.881956 0.000000
vt 0.911467 0.876525
vt 0.911467 0.938168
vt 0.896711 0.938168
vt 0.896711 0.876525
vt 0.790802 0.001982
vt 0.852444 0.002312
vt 0.852444 0.011685
vt 0.790802 0.011429
vt 0.935888 0.868773
vt 0.935609 0.930415
vt 0.926236 0.930334
vt 0.926441 0.868691
vt 0.926222 0.868688
vt 0.926222 0.930331
vt 0.911467 0.930331
vt 0.911467 0.868688
vt 0.365124 0.675535
vt 0.365016 0.691026
vt 0.383963 0.675535
vt 0.383747 0.691026
vt 0.441465 0.675535
vt 0.441140 0.691026
vt 0.459661 0.675535
vt 0.459228 0.691026
vt 0.518908 0.675535
vt 0.518367 0.691026
vt 0.682951 0.940475
vt 0.682951 0.883604
vt 0.697707 0.883604
vt 0.697707 0.940475
vt 0.682951 0.864765
vt 0.697707 0.864765
vt 0.682951 0.807264
vt 0.697707 0.807264
vt 0.682951 0.789068
vt 0.697707 0.789068
vt 0.682951 0.729821
vt 0.697707 0.729821
vt 0.052144 0.675535
vt 0.052793 0.691026
vt 0.068595 0.675535
vt 0.069136 0.691026
vt 0.127842 0.675535
vt 0.128275 0.691026
vt 0.146038 0.675535
vt 0.146362 0.691026
vt 0.203539 0.675535
vt 0.203756 0.691026
vt 0.955733 0.717664
vt 0.940978 0.717664
vt 0.955733 0.734006
vt 0.940978 0.734006
vt 0.955733 0.793144
vt 0.940978 0.793144
vt 0.955733 0.811232
vt 0.940978 0.811232
vt 0.955733 0.868625
vt 0.940978 0.868625
vt 0.926222 0.665382
vt 0.926222 0.703232
vt 0.911467 0.703232
vt 0.911467 0.665382
vt 0.926222 0.717167
vt 0.911467 0.717167
vt 0.926222 0.778932
vt 0.911467 0.778932
vt 0.926222 0.791333
vt 0.911467 0.791333
vt 0.926222 0.855798
vt 0.911467 0.855798
vt 0.936118 0.665468
vt 0.936045 0.703318
vt 0.926224 0.703232
vt 0.926222 0.665382
vt 0.936180 0.717253
vt 0.926434 0.717168
vt 0.935900 0.779017
vt 0.926228 0.778933
vt 0.936048 0.791418
vt 0.926451 0.791335
vt 0.935744 0.855883
vt 0.926222 0.855800
vt 0.587503 -0.000000
vt 0.625351 0.000330
vt 0.625351 0.010152
vt 0.587503 0.009896
vt 0.639285 0.000660
vt 0.639285 0.010407
vt 0.701049 0.000991
vt 0.701049 0.010663
vt 0.713449 0.001321
vt 0.713449 0.010918
vt 0.777914 0.001651
vt 0.777914 0.011174
vt 0.911467 0.673222
vt 0.911467 0.711071
vt 0.896711 0.711071
vt 0.896711 0.673222
vt 0.911467 0.725005
vt 0.896711 0.725005
vt 0.911467 0.786770
vt 0.896711 0.786770
vt 0.911467 0.799171
vt 0.896711 0.799171
vt 0.911467 0.863636
vt 0.896711 0.863636
vt 0.625345 0.364111
vt 0.640475 0.364245
vt 0.701043 0.364279
vt 0.716196 0.364413
vt 0.777355 0.363835
vt 0.793063 0.363970
vt 0.204160 0.363835
vt 0.204719 0.011174
vt 0.217608 0.011429
vt 0.219868 0.363970
vt 0.985244 0.368186
vt 0.985244 0.664358
vt 0.970489 0.664358
vt 0.970489 0.368186
vt 1.000000 0.368064
vt 1.000000 0.664113
vt 0.985244 0.664113
vt 0.985244 0.368064
vt 0.127849 0.364279
vt 0.127855 0.010663
vt 0.140255 0.010918
vt 0.143002 0.364413
vt 0.970489 0.368320
vt 0.970489 0.664626
vt 0.955733 0.664626
vt 0.955733 0.368320
vt 0.955733 0.368443
vt 0.955733 0.664871
vt 0.940978 0.664871
vt 0.940978 0.368443
vt 0.052151 0.364111
vt 0.052157 0.010152
vt 0.066091 0.010407
vt 0.067281 0.364245
vt 0.940978 0.368573
vt 0.940978 0.665131
vt 0.926222 0.665131
vt 0.926222 0.368573
vt 0.926222 0.368698
vt 0.926222 0.665382
vt 0.911467 0.665382
vt 0.911467 0.368698
vt 0.926222 0.353958
vt 0.911467 0.353958
vt 0.940978 0.353839
vt 0.926222 0.353839
vt 0.052151 0.378850
vt 0.067343 0.378978
vt 0.625338 0.675535
vt 0.625345 0.378850
vt 0.640537 0.378978
vt 0.641789 0.675535
vt 0.955733 0.353616
vt 0.940978 0.353616
vt 0.970489 0.353500
vt 0.955733 0.353500
vt 0.127848 0.379106
vt 0.143146 0.379234
vt 0.701036 0.675535
vt 0.701043 0.379106
vt 0.716341 0.379234
vt 0.719232 0.675535
vt 1.000000 0.352544
vt 0.985244 0.352544
vt 0.985244 0.352660
vt 0.970489 0.352660
vt 0.204129 0.379362
vt 0.219993 0.379489
vt 0.776734 0.675535
vt 0.777324 0.379362
vt 0.793188 0.379489
vt 0.795573 0.675535
vt 0.293751 0.379617
vt 0.308253 0.379617
vt 0.867200 0.377305
vt 0.881955 0.377305
vt 0.896711 0.377304
vt 0.911467 0.377304
vt 0.279250 0.379617
vt 0.293751 0.379617
vt 0.896711 0.675535
vt 0.881956 0.675535
vt 0.881956 0.378723
vt 0.896711 0.378723
vt 0.000000 0.378723
vt 0.014308 0.378723
vt 0.573194 0.378723
vt 0.587503 0.378723
vt 0.852444 0.378722
vt 0.867200 0.378722
vt 0.940978 -0.000000
vt 0.926222 -0.000000
vt 0.926222 0.000000
vt 0.911467 0.000000
vt 0.970489 -0.000000
vt 0.955733 -0.000000
vt 0.955733 0.000000
vt 0.940978 0.000000
vt 0.985244 0.000000
vt 0.970489 0.000000
vt 1.000000 -0.000000
vt 0.985244 -0.000000
vt 0.100817 0.691026
vt 0.100817 0.728869
vt 0.086062 0.728869
vt 0.086062 0.691026
vt 0.535352 0.378850
vt 0.535352 0.364111
vt 0.071306 0.728870
vt 0.071306 0.691026
vt 0.086062 0.728870
vt 0.014755 0.751532
vt 0.014755 0.691026
vt 0.029511 0.691026
vt 0.029511 0.751532
vt -0.000000 0.751594
vt -0.000000 0.691026
vt 0.014755 0.691026
vt 0.014755 0.751594
vt 0.751786 0.675535
vt 0.751786 0.736518
vt 0.737031 0.736518
vt 0.737031 0.675535
vt 0.737031 0.675535
vt 0.737031 0.736690
vt 0.722275 0.736690
vt 0.722275 0.675535
vt 0.852444 0.365042
vt 0.852444 0.379617
vt 0.059022 0.691026
vt 0.059022 0.750283
vt 0.044266 0.750283
vt 0.044266 0.691026
vt 0.044266 0.691026
vt 0.044266 0.750412
vt 0.029511 0.750412
vt 0.029511 0.691026
s 0
g dvere_vezeni_Material.065
usemtl Material.065
f 1/1/1 2/2/1 4/3/1 3/4/1
f 10/5/2 8/6/2 22/7/2 21/8/2
f 7/9/3 8/10/3 6/11/3 5/12/3
f 16/13/4 14/14/4 2/15/4 1/16/4
f 9/17/5 7/18/5 5/19/5 11/20/5
f 15/21/2 4/22/2 2/23/2 14/24/2
f 8/6/2 10/5/2 12/25/2 6/26/2
f 13/27/5 9/17/5 11/20/5 16/28/5
f 5/29/4 6/30/4 12/31/4 11/32/4
f 13/33/6 15/34/6 10/35/6 9/36/6
f 15/37/3 13/38/3 19/39/3 20/40/3
f 3/41/5 13/27/5 16/28/5 1/42/5
f 10/5/2 15/21/2 14/24/2 12/25/2
f 11/32/4 12/31/4 14/14/4 16/13/4
f 18/43/6 17/44/6 20/45/6 19/46/6
f 4/22/2 15/21/2 20/47/2 17/48/2
f 3/4/1 4/3/1 17/49/1 18/50/1
f 13/27/5 3/41/5 18/51/5 19/52/5
f 24/53/6 21/54/6 22/55/6 23/56/6
f 7/18/5 9/17/5 24/57/5 23/58/5
f 9/59/1 10/60/1 21/61/1 24/62/1
f 8/10/3 7/9/3 23/63/3 22/64/3
f 25/65/1 26/66/1 28/67/1 27/68/1
f 33/69/6 34/70/6 32/71/6 31/72/6
f 31/73/3 32/74/3 30/75/3 29/76/3
f 40/77/4 38/78/4 26/79/4 25/80/4
f 33/81/5 31/82/5 29/83/5 35/84/5
f 127/85/1 125/86/1 41/87/1 42/88/1
f 143/89/6 141/90/6 45/91/6 46/92/6
f 69/93/5 33/81/5 35/84/5 68/94/5
f 29/95/4 30/96/4 36/97/4 35/98/4
f 69/99/6 62/100/6 34/70/6 33/69/6
f 27/101/6 28/102/6 39/103/6 37/104/6
f 27/105/5 37/106/5 40/107/5 25/108/5
f 57/109/2 39/110/2 38/111/2 80/112/2
f 63/113/4 80/114/4 38/78/4 40/77/4
f 43/115/3 44/116/3 52/117/3 51/118/3
f 125/119/4 126/120/4 43/121/4 41/122/4
f 128/123/6 127/124/6 42/125/6 44/126/6
f 126/127/3 128/128/3 44/116/3 43/115/3
f 48/129/4 47/130/4 55/131/4 56/132/4
f 141/133/1 142/134/1 48/135/1 45/136/1
f 144/137/3 143/138/3 46/139/3 47/140/3
f 142/141/4 144/142/4 47/130/4 48/129/4
f 52/143/2 50/144/2 49/145/2 51/146/2
f 41/122/4 43/121/4 51/147/4 49/148/4
f 44/126/6 42/125/6 50/149/6 52/150/6
f 42/88/1 41/87/1 49/151/1 50/152/1
f 54/153/2 53/145/2 56/154/2 55/155/2
f 46/92/6 45/91/6 53/156/6 54/157/6
f 45/136/1 48/135/1 56/158/1 53/159/1
f 47/140/3 46/139/3 54/160/3 55/161/3
f 92/162/7 48/163/7 45/164/7 86/165/7
f 98/166/6 56/167/6 48/168/6 92/169/6
f 86/170/4 45/171/4 53/172/4 104/173/4
f 104/174/8 53/175/8 56/176/8 98/177/8
f 35/98/4 36/97/4 75/178/4 68/179/4
f 68/179/4 75/178/4 76/180/4 67/181/4
f 67/181/4 76/180/4 77/182/4 66/183/4
f 66/183/4 77/182/4 78/184/4 65/185/4
f 65/185/4 78/184/4 79/186/4 64/187/4
f 64/187/4 79/186/4 80/114/4 63/113/4
f 34/188/2 62/189/2 75/190/2 36/191/2
f 62/189/2 61/192/2 76/193/2 75/190/2
f 61/192/2 60/194/2 77/195/2 76/193/2
f 60/194/2 59/196/2 78/197/2 77/195/2
f 59/196/2 58/198/2 79/199/2 78/197/2
f 58/198/2 57/109/2 80/112/2 79/199/2
f 37/104/6 39/103/6 57/200/6 74/201/6
f 74/201/6 57/200/6 58/202/6 73/203/6
f 73/203/6 58/202/6 59/204/6 72/205/6
f 72/205/6 59/204/6 60/206/6 71/207/6
f 71/207/6 60/206/6 61/208/6 70/209/6
f 70/209/6 61/208/6 62/100/6 69/99/6
f 37/106/5 74/210/5 63/211/5 40/107/5
f 74/210/5 73/212/5 64/213/5 63/211/5
f 73/212/5 72/214/5 65/215/5 64/213/5
f 72/214/5 71/216/5 66/217/5 65/215/5
f 71/216/5 70/218/5 67/219/5 66/217/5
f 70/218/5 69/93/5 68/94/5 67/219/5
f 52/220/9 99/221/9 93/222/9 51/223/9
f 99/221/10 100/224/10 94/225/10 93/222/10
f 100/224/11 101/226/11 95/227/11 94/225/11
f 101/226/12 102/228/12 96/229/12 95/227/12
f 102/228/13 103/230/13 97/231/13 96/229/13
f 103/230/14 104/174/14 98/177/14 97/231/14
f 44/232/4 81/233/4 99/234/4 52/235/4
f 81/233/4 82/236/4 100/237/4 99/234/4
f 82/236/4 83/238/4 101/239/4 100/237/4
f 83/238/4 84/240/4 102/241/4 101/239/4
f 84/240/4 85/242/4 103/243/4 102/241/4
f 85/242/4 86/170/4 104/173/4 103/243/4
f 51/244/6 93/245/6 87/246/6 43/247/6
f 93/245/6 94/248/6 88/249/6 87/246/6
f 94/248/6 95/250/6 89/251/6 88/249/6
f 95/250/6 96/252/6 90/253/6 89/251/6
f 96/252/6 97/254/6 91/255/6 90/253/6
f 97/254/6 98/166/6 92/169/6 91/255/6
f 43/256/15 87/257/15 81/258/15 44/259/15
f 87/257/16 88/260/16 82/261/16 81/258/16
f 88/260/7 89/262/7 83/263/7 82/261/7
f 89/262/17 90/264/17 84/265/17 83/263/17
f 90/264/18 91/266/18 85/267/18 84/265/18
f 91/266/19 92/162/19 86/165/19 85/267/19
f 130/268/6 87/246/6 88/249/6 129/269/6
f 134/270/6 89/251/6 90/253/6 133/271/6
f 138/272/6 91/255/6 92/169/6 137/273/6
f 139/274/6 85/275/6 86/276/6 140/277/6
f 115/278/20 61/279/20 76/280/20 114/281/20
f 116/282/21 62/283/21 75/284/21 113/285/21
f 135/286/6 83/287/6 84/288/6 136/289/6
f 112/290/22 60/291/22 77/292/22 109/293/22
f 111/294/1 59/295/1 78/296/1 110/297/1
f 131/298/6 81/299/6 82/300/6 132/301/6
f 108/302/23 58/303/23 79/304/23 105/305/23
f 107/306/1 57/307/1 80/308/1 106/309/1
f 131/310/1 107/306/1 106/309/1 130/311/1
f 132/312/23 108/302/23 105/305/23 129/313/23
f 57/200/6 107/314/6 108/315/6 58/202/6
f 80/316/6 106/317/6 105/318/6 79/319/6
f 135/320/1 111/294/1 110/297/1 134/321/1
f 136/322/22 112/290/22 109/293/22 133/323/22
f 59/204/6 111/324/6 112/325/6 60/206/6
f 78/326/6 110/327/6 109/328/6 77/329/6
f 140/330/21 116/282/21 113/285/21 137/331/21
f 139/332/20 115/278/20 114/281/20 138/333/20
f 61/208/6 115/334/6 116/335/6 62/100/6
f 76/336/6 114/337/6 113/338/6 75/339/6
f 36/97/4 30/96/4 120/340/4 119/341/4
f 30/75/3 32/74/3 118/342/3 120/343/3
f 34/256/1 36/259/1 119/344/1 117/345/1
f 32/71/6 34/70/6 117/346/6 118/347/6
f 38/348/3 39/349/3 124/350/3 123/351/3
f 39/103/6 28/102/6 122/352/6 124/353/6
f 26/79/4 38/78/4 123/354/4 121/355/4
f 28/67/1 26/66/1 121/356/1 122/357/1
f 123/351/3 124/350/3 128/128/3 126/127/3
f 124/353/6 122/352/6 127/124/6 128/123/6
f 121/355/4 123/354/4 126/120/4 125/119/4
f 122/357/1 121/356/1 125/86/1 127/85/1
f 82/358/24 132/312/24 129/313/24 88/359/24
f 81/360/1 131/310/1 130/311/1 87/361/1
f 107/314/6 131/298/6 132/301/6 108/315/6
f 106/317/6 130/268/6 129/269/6 105/318/6
f 84/362/25 136/322/25 133/323/25 90/363/25
f 83/364/1 135/320/1 134/321/1 89/365/1
f 111/324/6 135/286/6 136/289/6 112/325/6
f 110/327/6 134/270/6 133/271/6 109/328/6
f 85/366/26 139/332/26 138/333/26 91/367/26
f 86/368/27 140/330/27 137/331/27 92/369/27
f 115/334/6 139/274/6 140/277/6 116/335/6
f 114/337/6 138/272/6 137/273/6 113/338/6
f 119/341/4 120/340/4 144/142/4 142/141/4
f 120/343/3 118/342/3 143/138/3 144/137/3
f 117/345/1 119/344/1 142/134/1 141/133/1
f 118/347/6 117/346/6 141/90/6 143/89/6
f 124/370/28 107/371/28 106/372/28 123/373/28
f 123/354/4 106/374/4 130/375/4 126/120/4
f 128/123/6 131/298/6 107/314/6 124/353/6
f 131/376/29 128/377/29 126/373/29 130/378/29
f 129/269/6 134/270/6 110/327/6 105/318/6
f 111/379/30 108/380/30 105/381/30 110/382/30
f 111/324/6 108/315/6 132/301/6 135/286/6
f 135/383/31 132/384/31 129/385/31 134/386/31
f 112/387/32 115/388/32 114/389/32 109/390/32
f 136/391/33 139/392/33 138/393/33 133/394/33
f 115/334/6 112/325/6 136/289/6 139/274/6
f 114/337/6 109/328/6 133/271/6 138/272/6
f 113/338/6 137/273/6 142/395/6 119/396/6
f 116/397/34 117/398/34 119/399/34 113/400/34
f 117/346/6 116/335/6 140/277/6 141/90/6
f 140/401/35 141/402/35 142/403/35 137/404/35
