# Blender 4.1.0
# www.blender.org
mtllib komoda.mtl
o komoda
v 108.462158 1.030183 -1.382804
v 108.462158 1.692235 -1.382804
v 107.694931 1.030183 -1.382804
v 107.694931 1.692235 -1.382804
v 108.512421 0.979915 -1.954190
v 108.512421 1.742503 -1.954190
v 107.644669 0.979915 -1.954190
v 107.644669 1.742503 -1.954190
v 107.644669 0.979915 -1.382804
v 108.512421 0.979915 -1.382804
v 108.512421 1.742503 -1.382804
v 107.644669 1.742503 -1.382804
v 108.512421 1.307962 -1.382804
v 108.512421 1.370996 -1.382804
v 107.644669 1.370996 -1.382804
v 107.644669 1.307962 -1.382804
v 107.644669 1.370996 -1.954190
v 107.644669 1.307962 -1.954190
v 108.512421 1.370996 -1.954190
v 108.512421 1.307962 -1.954190
v 108.462158 1.324718 -1.382804
v 108.462158 1.354240 -1.382804
v 107.694931 1.354240 -1.382804
v 107.694931 1.324718 -1.382804
v 108.396431 1.493230 -1.347611
v 108.396431 1.553246 -1.347611
v 107.763474 1.553246 -1.347611
v 107.763474 1.493230 -1.347611
v 107.764801 1.148037 -1.340078
v 108.399414 1.148037 -1.340078
v 107.764801 1.206864 -1.340078
v 108.399414 1.206864 -1.340078
v 108.462158 1.354240 -1.347611
v 108.462158 1.692235 -1.347611
v 107.694931 1.692235 -1.347611
v 107.694931 1.354240 -1.347611
v 107.694931 1.030183 -1.340078
v 108.462158 1.030183 -1.340078
v 107.694931 1.324718 -1.340078
v 108.462158 1.324718 -1.340078
v 108.396431 1.493230 -1.329914
v 108.396431 1.553246 -1.329914
v 107.763474 1.553246 -1.329914
v 107.763474 1.493230 -1.329914
v 107.764801 1.148037 -1.329493
v 108.399414 1.148037 -1.329493
v 107.764801 1.206864 -1.329493
v 108.399414 1.206864 -1.329493
vn -0.0000 1.0000 -0.0000
vn -1.0000 -0.0000 -0.0000
vn -0.0000 -0.0000 -1.0000
vn 1.0000 -0.0000 -0.0000
vn -0.0000 -1.0000 -0.0000
vn -0.0000 -0.0000 1.0000
vt 0.017561 0.783962
vt 0.017561 0.517461
vt 0.088398 0.500000
vt 0.000100 0.500000
vt 0.000100 0.301524
vt 0.088398 0.301524
vt 0.000100 0.000100
vt 0.088398 0.000100
vt 0.088398 0.999900
vt 0.000100 0.999900
vt 0.000100 0.801423
vt 0.088398 0.801423
vt 0.637240 0.301724
vt 0.835716 0.301724
vt 0.835716 0.603148
vt 0.637240 0.603148
vt 0.358204 0.000100
vt 0.556681 0.000100
vt 0.556681 0.301524
vt 0.358204 0.301524
vt 0.247531 0.783962
vt 0.247531 0.517461
vt 0.264992 0.500000
vt 0.264992 0.801423
vt 0.170874 0.783962
vt 0.176695 0.801423
vt 0.094218 0.517461
vt 0.170874 0.517461
vt 0.176695 0.500000
vt 0.094218 0.783962
vt 0.264992 0.999900
vt 0.176695 0.999900
vt 0.264992 0.301524
vt 0.176695 0.301524
vt 0.176695 0.000100
vt 0.264992 0.000100
vt 0.049084 0.565740
vt 0.062695 0.565740
vt 0.216858 0.743025
vt 0.201547 0.743025
vt 0.049084 0.735683
vt 0.062695 0.735683
vt 0.216858 0.558399
vt 0.201547 0.558399
s 0
usemtl Material.004
f 15/3/2 12/4/2 8/5/2 17/6/2
f 17/6/3 8/5/3 6/7/3 19/8/3
f 19/9/4 6/10/4 11/11/4 14/12/4
f 9/13/5 7/14/5 5/15/5 10/16/5
f 8/17/1 12/18/1 11/19/1 6/20/1
f 1/21/6 3/22/6 9/23/6 10/24/6
f 21/25/6 1/21/6 10/24/6 13/26/6
f 4/2/6 2/1/6 11/11/6 12/4/6
f 23/27/6 4/2/6 12/4/6 15/3/6
f 3/22/6 24/28/6 16/29/6 9/23/6
f 24/28/6 23/27/6 15/3/6 16/29/6
f 2/1/6 22/30/6 14/12/6 11/11/6
f 22/30/6 21/25/6 13/26/6 14/12/6
f 5/31/4 20/32/4 13/26/4 10/24/4
f 20/32/4 19/9/4 14/12/4 13/26/4
f 7/33/3 18/34/3 20/35/3 5/36/3
f 18/34/3 17/6/3 19/8/3 20/35/3
f 9/23/2 16/29/2 18/34/2 7/33/2
f 16/29/2 15/3/2 17/6/2 18/34/2
f 21/25/6 22/30/6 23/27/6 24/28/6
f 27/37/2 28/38/2 44/38/2 43/37/2
f 30/39/4 32/40/4 48/40/4 46/39/4
f 41/42/6 42/41/6 43/37/6 44/38/6
f 25/42/4 26/41/4 42/41/4 41/42/4
f 28/38/5 25/42/5 41/42/5 44/38/5
f 26/41/1 27/37/1 43/37/1 42/41/1
f 46/39/6 48/40/6 47/44/6 45/43/6
f 29/43/5 30/39/5 46/39/5 45/43/5
f 32/40/1 31/44/1 47/44/1 48/40/1
f 31/44/2 29/43/2 45/43/2 47/44/2
usemtl Material.005
f 2/1/1 4/2/1 35/2/1 34/1/1
f 21/25/1 24/28/1 39/28/1 40/25/1
f 23/27/5 22/30/5 33/30/5 36/27/5
f 4/2/2 23/27/2 36/27/2 35/2/2
f 22/30/4 2/1/4 34/1/4 33/30/4
f 3/22/5 1/21/5 38/21/5 37/22/5
f 1/21/4 21/25/4 40/25/4 38/21/4
f 24/28/2 3/22/2 37/22/2 39/28/2
f 26/41/6 25/42/6 33/30/6 34/1/6
f 27/37/6 26/41/6 34/1/6 35/2/6
f 28/38/6 27/37/6 35/2/6 36/27/6
f 25/42/6 28/38/6 36/27/6 33/30/6
f 30/39/6 29/43/6 37/22/6 38/21/6
f 29/43/6 31/44/6 39/28/6 37/22/6
f 32/40/6 30/39/6 38/21/6 40/25/6
f 31/44/6 32/40/6 40/25/6 39/28/6
