# Blender 4.1.0
# www.blender.org
mtllib podlaha svetla .mtl
o podlaha_bile_drevo_
v 151.151245 1.112198 -0.082023
v 151.151245 1.190175 -0.082023
v 151.151245 1.112198 -3.275793
v 151.151245 1.190175 -3.275793
v 154.345016 1.112198 -0.082023
v 154.345016 1.190175 -0.082023
v 154.345016 1.112198 -3.275793
v 154.345016 1.190175 -3.275793
vn -1.0000 -0.0000 -0.0000
vn -0.0000 -0.0000 -1.0000
vn 1.0000 -0.0000 -0.0000
vn -0.0000 -0.0000 1.0000
vn -0.0000 -1.0000 -0.0000
vn -0.0000 1.0000 -0.0000
vt 0.491043 0.955383
vt 0.485484 0.955383
vt 0.485484 0.727692
vt 0.491043 0.727692
vt 0.485484 0.500000
vt 0.491043 0.500000
vt 0.485484 0.272308
vt 0.491043 0.272308
vt 0.485484 0.044617
vt 0.491043 0.044617
vt 0.113526 0.646484
vt 0.363526 0.646484
vt 0.363526 0.896484
vt 0.113526 0.896484
vt 0.896729 0.355469
vt 0.646729 0.355469
vt 0.646729 0.105469
vt 0.896729 0.105469
s 0
g podlaha_bile_drevo__Material.052
usemtl Material.052
f 1/1/1 2/2/1 4/3/1 3/4/1
f 3/4/2 4/3/2 8/5/2 7/6/2
f 7/6/3 8/5/3 6/7/3 5/8/3
f 5/8/4 6/7/4 2/9/4 1/10/4
f 3/11/5 7/12/5 5/13/5 1/14/5
f 8/15/6 4/16/6 2/17/6 6/18/6
