# Blender 4.1.0
# www.blender.org
mtllib lavka.mtl
o lavka
v 101.149147 1.501680 -1.877697
v 101.149147 1.703305 -1.955531
v 101.149147 1.479280 -1.936463
v 101.149147 1.680905 -2.014297
v 101.227318 1.501680 -1.877697
v 101.227318 1.703305 -1.955531
v 101.227318 1.479280 -1.936463
v 101.227318 1.680905 -2.014297
v 101.149147 1.978440 -2.060407
v 101.149147 1.956040 -2.119173
v 101.227318 1.956040 -2.119173
v 101.227318 1.978440 -2.060407
v 102.204750 1.136577 -1.317137
v 102.204750 1.437295 -1.317137
v 102.204750 1.136577 -1.879723
v 102.204750 1.437295 -1.879723
v 102.298424 1.136577 -1.317137
v 102.298424 1.437295 -1.317137
v 102.298424 1.136577 -1.879723
v 102.298424 1.437295 -1.879723
v 100.989586 1.436233 -1.303902
v 100.989586 1.514806 -1.303902
v 100.989586 1.436233 -1.879723
v 100.989586 1.514806 -1.879723
v 102.314362 1.436233 -1.303902
v 102.314362 1.514806 -1.303902
v 102.314362 1.436233 -1.879723
v 102.314362 1.514806 -1.879723
v 101.052162 1.622212 -1.870517
v 101.052162 2.038878 -2.027256
v 101.052162 1.599371 -1.931238
v 101.052162 2.016037 -2.087976
v 102.254776 1.622212 -1.870517
v 102.254776 2.038878 -2.027256
v 102.254776 1.599371 -1.931238
v 102.254776 2.016037 -2.087976
v 101.001968 1.136577 -1.317137
v 101.001968 1.437295 -1.317137
v 101.001968 1.136577 -1.879723
v 101.001968 1.437295 -1.879723
v 101.095634 1.136577 -1.317137
v 101.095634 1.437295 -1.317137
v 101.095634 1.136577 -1.879723
v 101.095634 1.437295 -1.879723
v 102.069481 1.501680 -1.877697
v 102.069481 1.703305 -1.955531
v 102.069481 1.479280 -1.936463
v 102.069481 1.680905 -2.014297
v 102.147644 1.501680 -1.877697
v 102.147644 1.703305 -1.955531
v 102.147644 1.479280 -1.936463
v 102.147644 1.680905 -2.014297
v 102.069481 1.978440 -2.060407
v 102.069481 1.956040 -2.119173
v 102.147644 1.956040 -2.119173
v 102.147644 1.978440 -2.060407
vn -1.0000 -0.0000 -0.0000
vn -0.0000 -0.3601 -0.9329
vn 1.0000 -0.0000 -0.0000
vn -0.0000 0.3601 0.9329
vn -0.0000 -0.9344 0.3562
vn -0.0000 0.9344 -0.3562
vn -0.0000 0.3562 0.9344
vn -0.0000 -0.3562 -0.9344
vn -0.0000 -0.0000 -1.0000
vn -0.0000 -0.0000 1.0000
vn -0.0000 -1.0000 -0.0000
vn -0.0000 1.0000 -0.0000
vn -0.0000 -0.3521 -0.9360
vn -0.0000 0.3521 0.9360
vn -0.0000 -0.9360 0.3521
vn -0.0000 0.9360 -0.3521
vt 0.375000 0.000000
vt 0.625000 0.000000
vt 0.625000 0.250000
vt 0.375000 0.250000
vt 0.625000 0.500000
vt 0.375000 0.500000
vt 0.625000 0.750000
vt 0.375000 0.750000
vt 0.625000 1.000000
vt 0.375000 1.000000
vt 0.125000 0.500000
vt 0.125000 0.750000
vt 0.875000 0.500000
vt 0.875000 0.750000
vt 0.380242 0.000071
vt 0.380242 0.174213
vt 0.054455 0.174213
vt 0.054455 0.000071
vt 0.000071 0.500000
vt 0.000071 0.325858
vt 0.054313 0.325858
vt 0.054313 0.500000
vt 0.054455 0.348497
vt 0.054455 0.174355
vt 0.380242 0.174355
vt 0.380242 0.348497
vt 0.054313 0.825787
vt 0.054313 0.999929
vt 0.000071 0.999929
vt 0.000071 0.825787
vt 0.000071 0.000071
vt 0.054313 0.000071
vt 0.020789 0.999877
vt 0.000123 0.999877
vt 0.000123 0.848431
vt 0.020789 0.848431
vt 0.000123 0.500000
vt 0.020788 0.500000
vt 0.000123 0.348554
vt 0.020788 0.348554
vt 0.000123 0.000123
vt 0.020788 0.000123
vt 0.190036 0.827069
vt 0.190036 0.478639
vt 0.341482 0.478639
vt 0.341482 0.827069
vt 0.330415 0.000123
vt 0.330415 0.348553
vt 0.178968 0.348553
vt 0.178968 0.000123
vt 0.021034 0.866892
vt 0.021035 0.749808
vt 0.038097 0.749808
vt 0.038097 0.866892
vt 0.576143 0.822282
vt 0.459058 0.822282
vt 0.459058 0.505982
vt 0.576143 0.505982
vt 0.124035 0.316423
vt 0.124035 0.433508
vt 0.106972 0.433508
vt 0.106972 0.316423
vt 0.511650 0.025514
vt 0.628734 0.025514
vt 0.628734 0.341814
vt 0.511650 0.341814
vt 0.038097 0.000123
vt 0.038097 0.316423
vt 0.021035 0.316423
vt 0.021034 0.000123
vt 0.038097 0.433508
vt 0.021035 0.433508
s 0
usemtl Material.007
f 1/1/1 2/2/1 4/3/1 3/4/1
f 3/4/2 4/3/2 8/5/2 7/6/2
f 7/6/3 8/5/3 6/7/3 5/8/3
f 5/8/4 6/7/4 2/9/4 1/10/4
f 3/11/5 7/6/5 5/8/5 1/12/5
f 4/3/1 2/2/1 9/2/1 10/3/1
f 11/5/6 10/13/6 9/14/6 12/7/6
f 2/9/7 6/7/7 12/7/7 9/9/7
f 8/5/8 4/3/8 10/3/8 11/5/8
f 6/7/3 8/5/3 11/5/3 12/7/3
f 13/15/1 14/16/1 16/17/1 15/18/1
f 15/19/9 16/20/9 20/21/9 19/22/9
f 19/23/3 20/24/3 18/25/3 17/26/3
f 17/27/10 18/28/10 14/29/10 13/30/10
f 15/19/11 19/22/11 17/27/11 13/30/11
f 20/21/12 16/20/12 14/31/12 18/32/12
f 37/15/1 38/16/1 40/17/1 39/18/1
f 39/19/9 40/20/9 44/21/9 43/22/9
f 43/23/3 44/24/3 42/25/3 41/26/3
f 41/27/10 42/28/10 38/29/10 37/30/10
f 39/19/11 43/22/11 41/27/11 37/30/11
f 44/21/12 40/20/12 38/31/12 42/32/12
f 45/1/1 46/2/1 48/3/1 47/4/1
f 47/4/2 48/3/2 52/5/2 51/6/2
f 51/6/3 52/5/3 50/7/3 49/8/3
f 49/8/4 50/7/4 46/9/4 45/10/4
f 47/11/5 51/6/5 49/8/5 45/12/5
f 48/3/1 46/2/1 53/2/1 54/3/1
f 55/5/6 54/13/6 53/14/6 56/7/6
f 46/9/7 50/7/7 56/7/7 53/9/7
f 52/5/8 48/3/8 54/3/8 55/5/8
f 50/7/3 52/5/3 55/5/3 56/7/3
usemtl Material.012
f 21/33/1 22/34/1 24/35/1 23/36/1
f 23/36/9 24/35/9 28/37/9 27/38/9
f 27/38/3 28/37/3 26/39/3 25/40/3
f 25/40/10 26/39/10 22/41/10 21/42/10
f 23/43/11 27/44/11 25/45/11 21/46/11
f 28/47/12 24/48/12 22/49/12 26/50/12
f 29/51/1 30/52/1 32/53/1 31/54/1
f 31/55/13 32/56/13 36/57/13 35/58/13
f 35/59/3 36/60/3 34/61/3 33/62/3
f 33/63/14 34/64/14 30/65/14 29/66/14
f 31/67/15 35/68/15 33/69/15 29/70/15
f 36/71/16 32/53/16 30/52/16 34/72/16
