# Blender 4.1.0
# www.blender.org
mtllib garaz vrata.mtl
o garazove_dvere
v 179.643921 1.286818 -3.924404
v 179.719818 4.069669 -3.924404
v 179.557541 1.200431 -4.140211
v 179.557541 4.231944 -4.140211
v 184.371552 1.296970 -3.924404
v 184.292236 4.056081 -3.924404
v 184.468094 1.200431 -4.140211
v 184.468094 4.231944 -4.140211
v 179.719818 3.465128 -3.924404
v 179.557541 3.302853 -4.140211
v 184.468094 3.302853 -4.140211
v 184.292236 3.478716 -3.924404
v 183.240448 1.200431 -4.140211
v 182.012817 1.200431 -4.140211
v 180.785172 1.200431 -4.140211
v 180.785172 4.231944 -4.140211
v 182.012817 4.231944 -4.140211
v 183.240448 4.231944 -4.140211
v 180.865982 1.281235 -3.924404
v 182.103271 1.290889 -3.924404
v 183.336990 1.296970 -3.924404
v 183.416321 4.056081 -3.924404
v 182.171188 4.073572 -3.924404
v 180.943436 4.073691 -3.924404
v 183.416321 3.478716 -3.924404
v 182.171188 3.461225 -3.924404
v 180.943436 3.461107 -3.924404
v 180.785172 3.302853 -4.140211
v 182.012817 3.302853 -4.140211
v 183.240448 3.302853 -4.140211
v 184.468094 4.231944 -3.924404
v 184.385849 3.220612 -3.924404
v 183.082077 4.073572 -3.924404
v 183.082077 3.461225 -3.924404
v 183.240448 4.231944 -3.924404
v 181.854568 4.073691 -3.924404
v 183.165283 3.227682 -3.924404
v 181.854568 3.461107 -3.924404
v 182.012817 4.231944 -3.924404
v 180.622894 4.069669 -3.924404
v 181.938889 3.228933 -3.924404
v 180.622894 3.465128 -3.924404
v 179.644821 3.215575 -3.924404
v 179.557541 4.231944 -3.924404
v 180.785172 4.231944 -3.924404
v 180.697891 3.215575 -3.924404
v 179.719818 3.465128 -3.993356
v 179.719818 4.069669 -3.993356
v 180.622894 4.069669 -3.993356
v 180.622894 3.465128 -3.993356
v 181.854568 4.073691 -3.989679
v 180.943436 4.073691 -3.989679
v 181.854568 3.461107 -3.989679
v 180.943436 3.461107 -3.989679
v 183.082077 4.073572 -3.986918
v 182.171188 4.073572 -3.986918
v 183.082077 3.461225 -3.986918
v 182.171188 3.461225 -3.986918
v 184.292236 4.056081 -3.989145
v 184.292236 3.478716 -3.989145
v 183.416321 4.056081 -3.989145
v 183.416321 3.478716 -3.989145
v 179.557541 2.251642 -4.140211
v 184.468094 2.251642 -4.140211
v 184.385849 2.333883 -3.924404
v 179.644821 2.338920 -3.924404
v 180.785172 2.251642 -4.140211
v 182.012817 2.251642 -4.140211
v 183.240448 2.251642 -4.140211
v 183.165283 2.326814 -3.924404
v 181.938889 2.325562 -3.924404
v 180.697891 2.338920 -3.924404
v 179.643921 2.165255 -3.924404
v 179.557541 3.302853 -3.924404
v 180.859100 3.228933 -3.924404
v 180.859100 2.325562 -3.924404
v 182.087982 3.227682 -3.924404
v 180.785172 3.302853 -3.924404
v 182.087982 2.326814 -3.924404
v 180.865982 2.170838 -3.924404
v 183.322693 3.220612 -3.924404
v 182.012817 3.302853 -3.924404
v 183.322693 2.333883 -3.924404
v 182.103271 2.161184 -3.924404
v 184.468094 3.302853 -3.924404
v 183.240448 3.302853 -3.924404
v 184.371552 2.155103 -3.924404
v 183.336990 2.155103 -3.924404
v 184.468094 2.251642 -3.924404
v 184.468094 1.200431 -3.924404
v 183.149994 1.290889 -3.924404
v 183.149994 2.161184 -3.924404
v 181.932007 1.281235 -3.924404
v 183.240448 1.200431 -3.924404
v 183.240448 2.251642 -3.924404
v 181.932007 2.170838 -3.924404
v 180.698792 1.286818 -3.924404
v 182.012817 1.200431 -3.924404
v 182.012817 2.251642 -3.924404
v 180.698792 2.165255 -3.924404
v 179.557541 1.200431 -3.924404
v 180.785172 1.200431 -3.924404
v 180.785172 2.251642 -3.924404
v 179.557541 2.251642 -3.924404
vn -1.0000 -0.0000 -0.0000
vn -0.0000 -0.0000 -1.0000
vn 1.0000 -0.0000 -0.0000
vn -0.0000 -1.0000 -0.0000
vn -0.0000 1.0000 -0.0000
vn -0.0000 -0.0000 1.0000
vt 0.215584 0.166145
vt 0.215584 0.121915
vt 0.225857 0.121915
vt 0.225857 0.166145
vt 0.697508 0.183108
vt 0.697508 0.252948
vt 0.605226 0.252948
vt 0.605226 0.183108
vt 0.225857 0.600086
vt 0.225857 0.644316
vt 0.215583 0.644316
vt 0.215583 0.600086
vt 0.075413 0.266633
vt 0.073853 0.232954
vt 0.078004 0.228134
vt 0.081177 0.270903
vt 0.225857 0.441558
vt 0.225857 0.500000
vt 0.215584 0.500000
vt 0.215584 0.441558
vt 0.225857 0.819642
vt 0.225857 0.878085
vt 0.215583 0.878085
vt 0.215583 0.819642
vt 0.431079 0.663729
vt 0.431079 0.789195
vt 0.280363 0.789195
vt 0.280363 0.663729
vt 0.225857 0.550043
vt 0.215584 0.550043
vt 0.697508 0.104089
vt 0.605226 0.104089
vt 0.215584 0.216188
vt 0.225857 0.216188
vt 0.974353 0.104089
vt 0.974353 0.183108
vt 0.882071 0.183108
vt 0.882071 0.104089
vt 0.789789 0.183108
vt 0.789789 0.104089
vt 0.958893 0.663009
vt 0.958893 0.789916
vt 0.806736 0.789916
vt 0.806736 0.663009
vt 0.784207 0.661997
vt 0.784207 0.790928
vt 0.630026 0.790928
vt 0.630026 0.661997
vt 0.608688 0.661818
vt 0.608688 0.791107
vt 0.454149 0.791107
vt 0.454149 0.661818
vt 0.225857 0.702758
vt 0.215583 0.702758
vt 0.225857 0.761200
vt 0.215583 0.761200
vt 0.225857 0.266231
vt 0.225857 0.324674
vt 0.215584 0.324674
vt 0.215584 0.266231
vt 0.225857 0.383116
vt 0.215584 0.383116
vt 0.069193 0.268077
vt 0.073130 0.232518
vt 0.078142 0.227272
vt 0.074404 0.272493
vt 0.013586 0.272797
vt 0.017588 0.225609
vt 0.022588 0.229877
vt 0.018423 0.267726
vt 0.076543 0.225933
vt 0.081610 0.273594
vt 0.075400 0.269283
vt 0.072338 0.231155
vt 0.974353 0.252948
vt 0.882071 0.252948
vt 0.789789 0.252948
vt 0.945494 0.947573
vt 0.945494 0.864941
vt 0.970664 0.839772
vt 0.970664 0.972742
vt 0.820135 0.947573
vt 0.794966 0.972742
vt 0.820135 0.864941
vt 0.794966 0.839772
vt 0.641934 0.950076
vt 0.772300 0.950076
vt 0.619268 0.972742
vt 0.772300 0.862438
vt 0.641934 0.862438
vt 0.619268 0.839772
vt 0.466219 0.950093
vt 0.596619 0.950093
vt 0.443570 0.972742
vt 0.596619 0.862421
vt 0.466219 0.862421
vt 0.443570 0.839772
vt 0.291097 0.862997
vt 0.291097 0.949518
vt 0.267872 0.972742
vt 0.267872 0.839772
vt 0.420345 0.949518
vt 0.420345 0.862997
vt 0.038254 0.715390
vt 0.038243 0.635355
vt 0.157803 0.635339
vt 0.157814 0.715374
vt 0.027420 0.230599
vt 0.021656 0.226328
vt 0.028980 0.264277
vt 0.024829 0.269097
vt 0.034916 0.716303
vt 0.034915 0.634483
vt 0.156611 0.634483
vt 0.156611 0.716303
vt 0.018653 0.273594
vt 0.022859 0.268372
vt 0.013586 0.225933
vt 0.019797 0.230243
vt 0.034916 0.717050
vt 0.034915 0.635262
vt 0.156579 0.635262
vt 0.156579 0.717050
vt 0.080434 0.225609
vt 0.075598 0.230679
vt 0.076433 0.272797
vt 0.071433 0.268529
vt 0.037628 0.713901
vt 0.037628 0.636785
vt 0.154620 0.636785
vt 0.154620 0.713901
vt 0.022535 0.231689
vt 0.018598 0.267248
vt 0.013586 0.272493
vt 0.017325 0.227272
vt 0.607703 0.512355
vt 0.607703 0.639674
vt 0.455135 0.639674
vt 0.455135 0.512355
vt 0.782019 0.513737
vt 0.782019 0.638292
vt 0.632214 0.638292
vt 0.632214 0.513737
vt 0.956847 0.514607
vt 0.956847 0.637422
vt 0.808782 0.637422
vt 0.808782 0.514607
vt 0.789789 0.025069
vt 0.697508 0.025069
vt 0.882071 0.025069
vt 0.974353 0.025069
vt 0.605226 0.025069
vt 0.431206 0.513154
vt 0.431206 0.638875
vt 0.280236 0.638875
vt 0.280236 0.513154
vt 0.267872 0.801686
vt 0.267872 0.651239
vt 0.443570 0.801686
vt 0.443570 0.651239
vt 0.619268 0.801686
vt 0.619268 0.651239
vt 0.794966 0.801686
vt 0.794966 0.651239
vt 0.970664 0.801686
vt 0.970664 0.651239
vt 0.970664 0.500791
vt 0.794966 0.500791
vt 0.619268 0.500791
vt 0.443570 0.500791
vt 0.267872 0.500791
s 0
g garazove_dvere_Material.022
usemtl Material.022
f 74/1/1 44/2/1 4/3/1 10/4/1
f 30/5/2 18/6/2 8/7/2 11/8/2
f 11/9/3 8/10/3 31/11/3 85/12/3
f 42/13/1 40/14/1 49/15/1 50/16/1
f 13/17/4 7/18/4 90/19/4 94/20/4
f 16/21/5 4/22/5 44/23/5 45/24/5
f 72/25/6 46/26/6 43/27/6 66/28/6
f 64/29/3 11/9/3 85/12/3 89/30/3
f 69/31/2 30/5/2 11/8/2 64/32/2
f 104/33/1 74/1/1 10/4/1 63/34/1
f 63/35/2 10/36/2 28/37/2 67/38/2
f 67/38/2 28/37/2 29/39/2 68/40/2
f 68/40/2 29/39/2 30/5/2 69/31/2
f 65/41/6 32/42/6 81/43/6 83/44/6
f 70/45/6 37/46/6 77/47/6 79/48/6
f 71/49/6 41/50/6 75/51/6 76/52/6
f 8/10/5 18/53/5 35/54/5 31/11/5
f 18/53/5 17/55/5 39/56/5 35/54/5
f 17/55/5 16/21/5 45/24/5 39/56/5
f 3/57/4 15/58/4 102/59/4 101/60/4
f 15/58/4 14/61/4 98/62/4 102/59/4
f 14/61/4 13/17/4 94/20/4 98/62/4
f 12/63/1 6/64/1 59/65/1 60/66/1
f 23/67/3 26/68/3 58/69/3 56/70/3
f 38/71/1 36/72/1 51/73/1 53/74/1
f 10/36/2 4/75/2 16/76/2 28/37/2
f 28/37/2 16/76/2 17/77/2 29/39/2
f 29/39/2 17/77/2 18/6/2 30/5/2
f 6/78/6 12/79/6 85/80/6 31/81/6
f 22/82/6 6/78/6 31/81/6 35/83/6
f 12/79/6 25/84/6 86/85/6 85/80/6
f 25/84/6 22/82/6 35/83/6 86/85/6
f 23/86/6 33/87/6 35/83/6 39/88/6
f 34/89/6 26/90/6 82/91/6 86/85/6
f 33/87/6 34/89/6 86/85/6 35/83/6
f 26/90/6 23/86/6 39/88/6 82/91/6
f 24/92/6 36/93/6 39/88/6 45/94/6
f 38/95/6 27/96/6 78/97/6 82/91/6
f 36/93/6 38/95/6 82/91/6 39/88/6
f 27/96/6 24/92/6 45/94/6 78/97/6
f 9/98/6 2/99/6 44/100/6 74/101/6
f 2/99/6 40/102/6 45/94/6 44/100/6
f 42/103/6 9/98/6 74/101/6 78/97/6
f 40/102/6 42/103/6 78/97/6 45/94/6
f 50/104/6 49/105/6 48/106/6 47/107/6
f 40/14/4 2/108/4 48/109/4 49/15/4
f 9/110/5 42/13/5 50/16/5 47/111/5
f 2/108/3 9/110/3 47/111/3 48/109/3
f 53/112/6 51/113/6 52/114/6 54/115/6
f 36/72/4 24/116/4 52/117/4 51/73/4
f 24/116/3 27/118/3 54/119/3 52/117/3
f 27/118/5 38/71/5 53/74/5 54/119/5
f 57/120/6 55/121/6 56/122/6 58/123/6
f 26/68/5 34/124/5 57/125/5 58/69/5
f 34/124/1 33/126/1 55/127/1 57/125/1
f 33/126/4 23/67/4 56/70/4 55/127/4
f 60/128/6 59/129/6 61/130/6 62/131/6
f 22/132/3 25/133/3 62/134/3 61/135/3
f 6/64/4 22/132/4 61/135/4 59/65/4
f 25/133/5 12/63/5 60/66/5 62/134/5
f 93/136/6 96/137/6 80/138/6 19/139/6
f 91/140/6 92/141/6 84/142/6 20/143/6
f 5/144/6 87/145/6 88/146/6 21/147/6
f 14/148/2 68/40/2 69/31/2 13/149/2
f 15/150/2 67/38/2 68/40/2 14/148/2
f 3/151/2 63/35/2 67/38/2 15/150/2
f 101/60/1 104/33/1 63/34/1 3/57/1
f 13/149/2 69/31/2 64/32/2 7/152/2
f 7/18/3 64/29/3 89/30/3 90/19/3
f 97/153/6 100/154/6 73/155/6 1/156/6
f 66/28/6 43/27/6 74/157/6 104/158/6
f 43/27/6 46/26/6 78/159/6 74/157/6
f 46/26/6 72/25/6 103/160/6 78/159/6
f 72/25/6 66/28/6 104/158/6 103/160/6
f 75/51/6 41/50/6 82/161/6 78/159/6
f 41/50/6 71/49/6 99/162/6 82/161/6
f 76/52/6 75/51/6 78/159/6 103/160/6
f 71/49/6 76/52/6 103/160/6 99/162/6
f 77/47/6 37/46/6 86/163/6 82/161/6
f 37/46/6 70/45/6 95/164/6 86/163/6
f 79/48/6 77/47/6 82/161/6 99/162/6
f 70/45/6 79/48/6 99/162/6 95/164/6
f 81/43/6 32/42/6 85/165/6 86/163/6
f 32/42/6 65/41/6 89/166/6 85/165/6
f 83/44/6 81/43/6 86/163/6 95/164/6
f 65/41/6 83/44/6 95/164/6 89/166/6
f 87/145/6 5/144/6 90/167/6 89/166/6
f 5/144/6 21/147/6 94/168/6 90/167/6
f 21/147/6 88/146/6 95/164/6 94/168/6
f 88/146/6 87/145/6 89/166/6 95/164/6
f 91/140/6 20/143/6 98/169/6 94/168/6
f 92/141/6 91/140/6 94/168/6 95/164/6
f 20/143/6 84/142/6 99/162/6 98/169/6
f 84/142/6 92/141/6 95/164/6 99/162/6
f 93/136/6 19/139/6 102/170/6 98/169/6
f 96/137/6 93/136/6 98/169/6 99/162/6
f 19/139/6 80/138/6 103/160/6 102/170/6
f 80/138/6 96/137/6 99/162/6 103/160/6
f 97/153/6 1/156/6 101/171/6 102/170/6
f 100/154/6 97/153/6 102/170/6 103/160/6
f 1/156/6 73/155/6 104/158/6 101/171/6
f 73/155/6 100/154/6 103/160/6 104/158/6
