# Blender 4.1.0
# www.blender.org
mtllib klavesnica.mtl
o pc_klavesnice
v 130.246506 1.073119 -1.866996
v 130.246506 1.112903 -1.866996
v 130.246506 1.073119 -2.060004
v 130.246506 1.112903 -2.060004
v 130.606140 1.073119 -1.866996
v 130.606140 1.112903 -1.866996
v 130.606140 1.073119 -2.060004
v 130.606140 1.112903 -2.060004
vn -1.0000 -0.0000 -0.0000
vn -0.0000 -0.0000 -1.0000
vn 1.0000 -0.0000 -0.0000
vn -0.0000 -0.0000 1.0000
vn -0.0000 -1.0000 -0.0000
vn -0.0000 1.0000 -0.0000
vt 0.000000 0.500000
vt 0.035995 0.500000
vt 0.035995 0.674624
vt 0.000000 0.674624
vt 0.035995 1.000000
vt 0.000000 1.000000
vt 0.000000 -0.000000
vt 0.035995 -0.000000
vt 0.035995 0.174624
vt 0.000000 0.174624
vt 0.361371 0.349248
vt 0.035995 0.349248
vt 0.035995 0.174624
vt 0.361371 0.174624
vt 0.035995 0.000000
vt 0.361371 -0.000000
vt 0.361371 0.174624
vt 0.035995 0.174624
s 0
usemtl Material.034
f 1/1/1 2/2/1 4/3/1 3/4/1
f 3/4/2 4/3/2 8/5/2 7/6/2
f 7/7/3 8/8/3 6/9/3 5/10/3
f 5/10/4 6/9/4 2/2/4 1/1/4
f 3/11/5 7/12/5 5/13/5 1/14/5
f 8/15/6 4/16/6 2/17/6 6/18/6
