# Blender 4.1.0
# www.blender.org
mtllib kuchynska linka.mtl
o kuchynska_linka_
v 163.839188 1.211192 -2.455886
v 163.851105 1.852329 -2.454445
v 163.823395 1.191219 -3.071317
v 163.823395 1.880045 -3.071317
v 166.213470 1.221551 -2.454445
v 166.205338 1.841579 -2.454445
v 166.243805 1.191219 -3.071317
v 166.243805 1.880045 -3.071317
v 165.638702 1.191219 -3.071317
v 165.033600 1.191219 -3.071317
v 164.428497 1.191219 -3.071317
v 164.428497 1.880045 -3.071317
v 165.033600 1.880045 -3.071317
v 165.638702 1.880045 -3.071317
v 164.412689 1.211192 -2.455886
v 165.070267 1.227893 -2.454445
v 165.669022 1.221552 -2.454445
v 165.605408 1.846758 -2.454445
v 165.033600 1.846758 -2.454445
v 164.400772 1.852329 -2.454445
v 163.851105 1.718591 -2.454445
v 163.823395 1.690874 -3.071317
v 166.243805 1.690874 -3.071317
v 166.205338 1.729340 -2.454445
v 165.605408 1.724161 -2.454445
v 165.033600 1.724161 -2.454445
v 164.400772 1.718591 -2.454445
v 164.428497 1.690874 -3.071317
v 165.033600 1.690874 -3.071317
v 165.638702 1.690874 -3.071317
v 163.839188 1.670901 -2.455886
v 163.823395 1.880045 -2.454445
v 164.461777 1.846758 -2.454445
v 164.412689 1.670901 -2.455886
v 163.851105 1.718591 -2.430264
v 163.851105 1.852329 -2.430264
v 164.400772 1.852329 -2.430264
v 164.400772 1.718591 -2.430264
v 163.823395 1.191219 -2.454445
v 164.462723 1.225448 -2.454445
v 164.461777 1.724161 -2.454445
v 163.823395 1.690874 -2.454445
v 163.839188 1.211192 -2.426334
v 164.412689 1.211192 -2.426334
v 164.412689 1.670901 -2.426334
v 163.839188 1.670901 -2.426334
v 165.677155 1.841579 -2.454445
v 165.033600 1.880045 -2.454445
v 164.428497 1.880045 -2.454445
v 165.677155 1.729340 -2.454445
v 164.462723 1.656645 -2.454445
v 165.070267 1.654200 -2.454445
v 165.605408 1.846758 -2.430805
v 165.033600 1.846758 -2.430805
v 164.461777 1.846758 -2.430805
v 165.605408 1.724161 -2.430805
v 164.461777 1.724161 -2.430805
v 165.033600 1.724161 -2.430805
v 166.243805 1.880045 -2.454445
v 165.638702 1.880045 -2.454445
v 166.213470 1.660541 -2.454445
v 165.669022 1.660541 -2.454445
v 166.205276 1.841579 -2.434481
v 165.677109 1.841579 -2.434481
v 166.205276 1.729340 -2.434481
v 165.677109 1.729340 -2.434481
v 166.243805 1.690874 -2.454445
v 166.243805 1.191219 -2.454445
v 165.602020 1.227893 -2.454445
v 165.602020 1.654200 -2.454445
v 166.213470 1.660541 -2.411897
v 166.213470 1.221551 -2.411897
v 165.669022 1.221552 -2.411897
v 165.669022 1.660541 -2.411897
v 164.999359 1.225448 -2.454445
v 165.638702 1.191219 -2.454445
v 165.638702 1.690874 -2.454445
v 164.999359 1.656645 -2.454445
v 165.070267 1.227893 -2.409301
v 165.602020 1.227893 -2.409301
v 165.602020 1.654200 -2.409301
v 165.070267 1.654200 -2.409301
v 164.428497 1.191219 -2.454445
v 165.033600 1.191219 -2.454445
v 165.033600 1.690874 -2.454445
v 164.428497 1.690874 -2.454445
v 164.462723 1.225448 -2.415257
v 164.999359 1.225448 -2.415257
v 164.999359 1.656645 -2.415257
v 164.462723 1.656645 -2.415257
v 163.823395 1.908319 -2.454445
v 163.823395 1.908319 -3.071317
v 165.638702 1.908319 -3.071317
v 166.243805 1.908319 -3.071317
v 166.243805 1.908319 -2.454445
v 164.428497 1.908319 -2.454445
v 164.428497 1.908319 -3.071317
v 165.033600 1.908319 -3.071317
v 165.638702 1.908319 -2.454445
v 165.033600 1.908319 -2.454445
vn -1.0000 -0.0000 -0.0000
vn -0.0000 -0.0000 -1.0000
vn 1.0000 -0.0000 -0.0000
vn -0.0000 -1.0000 -0.0000
vn -0.0000 -0.0000 1.0000
vn -0.0000 1.0000 -0.0000
vn -0.0000 0.0720 0.9974
vn -0.0909 -0.0000 0.9959
vn 0.0909 -0.0000 0.9959
vn -0.0000 -0.0720 0.9974
vn 1.0000 -0.0000 0.0029
vn -1.0000 -0.0000 -0.0029
vt 0.632279 0.717733
vt 0.632279 0.667753
vt 0.795261 0.667753
vt 0.795261 0.717733
vt 0.848609 0.661262
vt 0.817802 0.661262
vt 0.817802 0.562721
vt 0.848609 0.562721
vt 0.817802 0.462264
vt 0.848609 0.462264
vt 0.107171 0.207178
vt 0.107171 0.115989
vt 0.111182 0.115989
vt 0.111182 0.207178
vt 0.924655 0.336237
vt 0.924655 0.442683
vt 0.816138 0.442683
vt 0.816138 0.336237
vt 0.817802 0.858343
vt 0.817802 0.956883
vt 0.813198 0.956883
vt 0.813198 0.858343
vt 0.813198 0.562721
vt 0.813198 0.462264
vt 0.344277 0.067531
vt 0.344259 0.291620
vt 0.333788 0.291620
vt 0.333807 0.067530
vt 0.344259 0.739803
vt 0.344259 0.963891
vt 0.333789 0.963891
vt 0.333788 0.739803
vt 0.924655 0.016897
vt 0.924655 0.123344
vt 0.816138 0.123344
vt 0.816138 0.016897
vt 0.924655 0.229790
vt 0.816138 0.229790
vt 0.128971 0.195086
vt 0.129259 0.295159
vt 0.125477 0.295159
vt 0.125189 0.195086
vt 0.848609 0.956883
vt 0.848609 0.858343
vt 0.817802 0.759802
vt 0.848609 0.759802
vt 0.929977 0.759802
vt 0.929977 0.661262
vt 0.929977 0.858343
vt 0.929977 0.956883
vt 0.071753 0.288262
vt 0.071753 0.227522
vt 0.077273 0.227522
vt 0.077273 0.288262
vt 0.023614 0.124772
vt 0.023614 0.194470
vt 0.016233 0.194470
vt 0.016233 0.124772
vt 0.035533 0.084214
vt 0.035533 0.159520
vt 0.029648 0.159520
vt 0.029648 0.084214
vt 0.055108 0.335099
vt 0.055108 0.261004
vt 0.058926 0.261004
vt 0.058926 0.335099
vt 0.929977 0.562721
vt 0.929977 0.462264
vt 0.632279 0.849746
vt 0.795261 0.849746
vt 0.404069 0.077801
vt 0.354541 0.077797
vt 0.414334 0.067538
vt 0.354524 0.281356
vt 0.404051 0.281358
vt 0.414314 0.291623
vt 0.941575 0.387720
vt 0.982118 0.387720
vt 0.982118 0.554355
vt 0.941575 0.554355
vt 0.107171 0.320554
vt 0.107171 0.229365
vt 0.111182 0.229365
vt 0.111182 0.320554
vt 0.107171 0.093802
vt 0.111182 0.093802
vt 0.591951 0.285760
vt 0.591978 0.073427
vt 0.599398 0.067551
vt 0.599363 0.291632
vt 0.421730 0.285747
vt 0.421751 0.073412
vt 0.022884 0.751095
vt 0.221497 0.751095
vt 0.221497 0.998874
vt 0.022884 0.998874
vt 0.055108 0.127516
vt 0.055108 0.068123
vt 0.058926 0.068123
vt 0.058926 0.127516
vt 0.055108 0.201611
vt 0.058926 0.201611
vt 0.096238 0.273107
vt 0.096238 0.350701
vt 0.093030 0.350701
vt 0.093030 0.273107
vt 0.356586 0.515714
vt 0.356586 0.727476
vt 0.344259 0.515714
vt 0.356586 0.303948
vt 0.401987 0.727476
vt 0.414315 0.739803
vt 0.401987 0.303949
vt 0.401989 0.515714
vt 0.414316 0.515714
vt 0.979971 0.192404
vt 0.979971 0.365752
vt 0.942805 0.365752
vt 0.942805 0.192404
vt 0.942805 0.019056
vt 0.979971 0.019056
vt 0.096238 0.178877
vt 0.096238 0.195514
vt 0.093030 0.195514
vt 0.093030 0.178877
vt 0.096238 0.101284
vt 0.093030 0.101284
vt 0.096238 0.367337
vt 0.093030 0.367337
vt 0.096238 0.023690
vt 0.093030 0.023690
vt 0.358504 0.754049
vt 0.358504 0.949646
vt 0.400070 0.949646
vt 0.414315 0.963891
vt 0.400070 0.754049
vt 0.946637 0.572537
vt 0.980663 0.572537
vt 0.980663 0.732654
vt 0.946637 0.732654
vt 0.129259 0.316425
vt 0.125477 0.316425
vt 0.128971 0.173820
vt 0.125189 0.173820
vt 0.129259 0.073747
vt 0.125477 0.073747
vt 0.425548 0.952658
vt 0.588119 0.952657
vt 0.599353 0.963891
vt 0.588119 0.751036
vt 0.599352 0.739803
vt 0.425548 0.751036
vt 0.312229 0.260720
vt 0.126117 0.260720
vt 0.126117 0.029904
vt 0.312229 0.029904
vt 0.035533 0.220242
vt 0.035533 0.295549
vt 0.029648 0.295549
vt 0.029648 0.220242
vt 0.035533 0.356270
vt 0.029648 0.356270
vt 0.585770 0.726221
vt 0.585769 0.529297
vt 0.599351 0.515716
vt 0.427896 0.726222
vt 0.427898 0.529296
vt 0.314228 0.248274
vt 0.127614 0.248274
vt 0.127614 0.015501
vt 0.314228 0.015501
vt 0.023614 0.281407
vt 0.016233 0.281407
vt 0.023614 0.037835
vt 0.016233 0.037835
vt 0.023614 0.351104
vt 0.016233 0.351104
vt 0.586676 0.503040
vt 0.586688 0.304304
vt 0.426989 0.503040
vt 0.426991 0.304300
vt 0.309413 0.471545
vt 0.128702 0.471545
vt 0.128702 0.246643
vt 0.309413 0.246643
vt 0.071753 0.151927
vt 0.077273 0.151927
vt 0.071753 0.363857
vt 0.077273 0.363857
vt 0.071753 0.091187
vt 0.077273 0.091187
vt 0.795261 0.500410
vt 0.795261 0.660283
vt 0.632279 0.660283
vt 0.632279 0.500410
vt 0.795261 0.020794
vt 0.795261 0.180666
vt 0.632279 0.180666
vt 0.632279 0.020794
vt 0.795261 0.340538
vt 0.632279 0.340538
vt 0.813198 0.661262
vt 0.333788 0.515714
vt 0.813198 0.759802
s 0
g kuchynska_linka__Material.051
usemtl Material.051
f 42/1/1 32/2/1 4/3/1 22/4/1
f 30/5/2 14/6/2 8/7/2 23/8/2
f 23/8/3 8/7/3 59/9/3 67/10/3
f 21/11/4 27/12/4 38/13/4 35/14/4
f 9/15/4 7/16/4 68/17/4 76/18/4
f 12/19/2 4/20/2 92/21/2 97/22/2
f 59/9/3 8/7/3 94/23/3 95/24/3
f 32/25/5 49/26/5 96/27/5 91/28/5
f 60/29/5 59/30/5 95/31/5 99/32/5
f 3/33/4 11/34/4 83/35/4 39/36/4
f 11/34/4 10/37/4 84/38/4 83/35/4
f 10/37/4 9/15/4 76/18/4 84/38/4
f 50/39/4 24/40/4 65/41/4 66/42/4
f 22/43/2 4/20/2 12/19/2 28/44/2
f 28/44/2 12/19/2 13/45/2 29/46/2
f 29/46/2 13/45/2 14/6/2 30/5/2
f 10/47/2 29/46/2 30/5/2 9/48/2
f 11/49/2 28/44/2 29/46/2 10/47/2
f 3/50/2 22/43/2 28/44/2 11/49/2
f 51/51/1 40/52/1 87/53/1 90/54/1
f 52/55/1 16/56/1 79/57/1 82/58/1
f 61/59/6 62/60/6 74/61/6 71/62/6
f 34/63/6 31/64/6 46/65/6 45/66/6
f 7/67/3 23/8/3 67/10/3 68/68/3
f 9/48/2 30/5/2 23/8/2 7/67/2
f 39/69/1 42/1/1 22/4/1 3/70/1
f 21/71/5 2/72/5 32/25/5 42/73/5
f 2/72/5 20/74/5 49/26/5 32/25/5
f 20/74/5 27/75/5 86/76/5 49/26/5
f 27/75/5 21/71/5 42/73/5 86/76/5
f 38/77/5 37/78/5 36/79/5 35/80/5
f 20/81/6 2/82/6 36/83/6 37/84/6
f 27/12/3 20/85/3 37/86/3 38/13/3
f 2/82/1 21/11/1 35/14/1 36/83/1
f 15/87/7 1/88/7 39/89/7 83/90/7
f 34/91/8 15/87/8 83/90/8 86/76/8
f 1/88/9 31/92/9 42/73/9 39/89/9
f 31/92/10 34/91/10 86/76/10 42/73/10
f 44/93/5 45/94/5 46/95/5 43/96/5
f 15/97/3 34/98/3 45/99/3 44/100/3
f 31/64/1 1/101/1 43/102/1 46/65/1
f 1/101/4 15/97/4 44/100/4 43/102/4
f 26/103/4 25/104/4 56/105/4 58/106/4
f 19/107/5 18/108/5 60/29/5 48/109/5
f 33/110/5 19/107/5 48/109/5 49/26/5
f 18/108/5 25/111/5 77/112/5 60/29/5
f 41/113/5 33/110/5 49/26/5 86/76/5
f 26/114/5 41/113/5 86/76/5 85/115/5
f 25/111/5 26/114/5 85/115/5 77/112/5
f 54/116/5 55/117/5 57/118/5 58/119/5 56/120/5 53/121/5
f 33/122/1 41/123/1 57/124/1 55/125/1
f 19/126/6 33/122/6 55/125/6 54/127/6
f 41/123/4 26/103/4 58/106/4 57/124/4
f 25/104/3 18/128/3 53/129/3 56/105/3
f 18/130/6 19/126/6 54/127/6 53/131/6
f 47/132/5 6/133/5 59/30/5 60/29/5
f 6/133/5 24/134/5 67/135/5 59/30/5
f 50/136/5 47/132/5 60/29/5 77/112/5
f 24/134/5 50/136/5 77/112/5 67/135/5
f 65/137/5 63/138/5 64/139/5 66/140/5
f 24/40/11 6/141/11 63/142/11 65/41/11
f 47/143/12 50/39/12 66/42/12 64/144/12
f 6/145/6 47/143/6 64/144/6 63/146/6
f 61/147/5 5/148/5 68/149/5 67/135/5
f 5/148/5 17/150/5 76/151/5 68/149/5
f 17/150/5 62/152/5 77/112/5 76/151/5
f 62/152/5 61/147/5 67/135/5 77/112/5
f 72/153/5 71/154/5 74/155/5 73/156/5
f 17/157/4 5/158/4 72/159/4 73/160/4
f 62/60/1 17/157/1 73/160/1 74/61/1
f 5/158/3 61/161/3 71/162/3 72/159/3
f 69/163/5 16/164/5 84/165/5 76/151/5
f 70/166/5 69/163/5 76/151/5 77/112/5
f 16/164/5 52/167/5 85/115/5 84/165/5
f 52/167/5 70/166/5 77/112/5 85/115/5
f 80/168/5 81/169/5 82/170/5 79/171/5
f 16/56/4 69/172/4 80/173/4 79/57/4
f 70/174/6 52/55/6 82/58/6 81/175/6
f 69/172/3 70/176/3 81/177/3 80/173/3
f 75/178/5 40/179/5 83/90/5 84/165/5
f 78/180/5 75/178/5 84/165/5 85/115/5
f 40/179/5 51/181/5 86/76/5 83/90/5
f 51/181/5 78/180/5 85/115/5 86/76/5
f 88/182/5 89/183/5 90/184/5 87/185/5
f 40/52/4 75/186/4 88/187/4 87/53/4
f 78/188/6 51/51/6 90/54/6 89/189/6
f 75/186/3 78/190/3 89/191/3 88/187/3
f 97/192/6 92/193/6 91/194/6 96/195/6
f 94/196/6 93/197/6 99/198/6 95/199/6
f 93/197/6 98/200/6 100/201/6 99/198/6
f 98/200/6 97/192/6 96/195/6 100/201/6
f 8/7/2 14/6/2 93/202/2 94/23/2
f 48/109/5 60/29/5 99/32/5 100/203/5
f 4/3/1 32/2/1 91/194/1 92/193/1
f 13/45/2 12/19/2 97/22/2 98/204/2
f 49/26/5 48/109/5 100/203/5 96/27/5
f 14/6/2 13/45/2 98/204/2 93/202/2
