# Blender 4.1.0
# www.blender.org
mtllib lampa.mtl
o lampa.001
v 155.714355 1.029539 -2.131370
v 155.714355 1.051730 -2.131370
v 155.714355 1.029539 -2.300299
v 155.714355 1.051730 -2.300299
v 155.883270 1.029539 -2.131370
v 155.883270 1.051730 -2.131370
v 155.883270 1.029539 -2.300299
v 155.883270 1.051730 -2.300299
v 155.798813 1.029539 -2.334354
v 155.798813 1.051730 -2.334354
v 155.798813 1.029539 -2.097314
v 155.798813 1.051730 -2.097314
v 155.678604 1.029539 -2.215195
v 155.678604 1.051730 -2.215195
v 155.919022 1.029539 -2.215195
v 155.919022 1.051730 -2.215195
v 155.798813 1.029539 -2.215195
v 155.770096 1.053270 -2.215519
v 155.778625 1.053270 -2.235852
v 155.798813 1.053270 -2.243989
v 155.819000 1.053270 -2.235852
v 155.827530 1.053270 -2.215519
v 155.819000 1.053270 -2.195491
v 155.798813 1.053270 -2.187355
v 155.778625 1.053270 -2.195491
v 155.694885 1.637609 -2.215272
v 155.770096 1.392443 -2.215519
v 155.778625 1.392443 -2.235852
v 155.798813 1.392443 -2.243989
v 155.819000 1.392443 -2.235852
v 155.827530 1.392443 -2.215519
v 155.819000 1.392443 -2.195491
v 155.798813 1.392443 -2.187355
v 155.778625 1.392443 -2.195491
v 155.725784 1.637609 -2.288848
v 155.798813 1.637609 -2.318291
v 155.871841 1.637609 -2.288848
v 155.902725 1.637609 -2.215272
v 155.871841 1.637609 -2.142801
v 155.798813 1.637609 -2.113358
v 155.725784 1.637609 -2.142801
v 155.798813 1.645226 -2.215098
v 155.652573 1.399180 -2.215050
v 155.696045 1.399180 -2.318588
v 155.798813 1.399180 -2.360019
v 155.901566 1.399180 -2.318588
v 155.945053 1.399180 -2.215050
v 155.901566 1.399180 -2.113069
v 155.798813 1.399180 -2.071637
v 155.696045 1.399180 -2.113069
v 155.696045 1.419431 -2.318588
v 155.945053 1.419431 -2.215050
v 155.901566 1.419431 -2.318588
v 155.798813 1.419431 -2.360019
v 155.652573 1.419431 -2.215050
v 155.901566 1.419431 -2.113069
v 155.798813 1.419431 -2.071637
v 155.696045 1.419431 -2.113069
v 155.826462 1.307496 -2.188034
v 155.838165 1.307496 -2.215477
v 155.798813 1.307496 -2.254487
v 155.771164 1.307496 -2.243338
v 155.759460 1.307496 -2.215477
v 155.771164 1.307496 -2.188034
v 155.798813 1.307496 -2.176885
v 155.826462 1.307496 -2.243338
v 155.815659 1.248466 -2.198818
v 155.798813 1.248466 -2.239306
v 155.798813 1.248466 -2.192025
v 155.815659 1.248466 -2.232513
v 155.822784 1.248466 -2.215538
v 155.781967 1.248466 -2.232513
v 155.774841 1.248466 -2.215538
v 155.781967 1.248466 -2.198818
v 155.811813 1.205762 -2.202652
v 155.798813 1.205762 -2.233909
v 155.798813 1.205762 -2.197408
v 155.811813 1.205762 -2.228665
v 155.817322 1.205762 -2.215560
v 155.785812 1.205762 -2.228665
v 155.780304 1.205762 -2.215560
v 155.785812 1.205762 -2.202652
v 155.823959 1.119897 -2.190543
v 155.798813 1.119897 -2.250955
v 155.798813 1.119897 -2.180408
v 155.823959 1.119897 -2.240819
v 155.834595 1.119897 -2.215491
v 155.773682 1.119897 -2.240819
v 155.763046 1.119897 -2.215491
v 155.773682 1.119897 -2.190543
vn -0.9220 -0.0000 -0.3872
vn 0.3739 -0.0000 -0.9275
vn 0.9199 -0.0000 0.3922
vn -0.3739 -0.0000 0.9275
vn -0.0000 -1.0000 -0.0000
vn 0.0168 0.9998 0.0072
vn -0.0168 0.9998 0.0072
vn 0.3739 -0.0000 0.9275
vn -0.3739 -0.0000 -0.9275
vn 0.0169 0.9998 -0.0071
vn 0.0069 0.9998 -0.0170
vn 0.9220 -0.0000 -0.3872
vn -0.9199 -0.0000 0.3922
vn -0.9138 0.1146 0.3896
vn -0.9159 0.1144 -0.3846
vn 0.9138 0.1146 0.3896
vn -0.3715 0.1139 -0.9214
vn 0.0069 0.9998 0.0171
vn -0.0069 0.9998 -0.0170
vn -0.0169 0.9998 -0.0071
vn -0.0069 0.9998 0.0171
vn 0.9077 0.1757 -0.3812
vn -0.9077 0.1757 -0.3812
vn 0.0234 -0.9980 -0.0580
vn -0.9055 0.1760 0.3861
vn 0.3715 0.1136 0.9215
vn -0.3715 0.1136 0.9215
vn 0.3715 0.1139 -0.9214
vn 0.9159 0.1145 -0.3846
vn -0.0518 0.9973 0.0528
vn 0.0518 0.9973 0.0528
vn 0.0515 0.9973 -0.0520
vn -0.0515 0.9973 -0.0520
vn 0.0573 -0.9981 -0.0241
vn -0.0573 -0.9981 -0.0241
vn -0.0571 -0.9981 0.0244
vn 0.3682 0.1746 0.9132
vn 0.0571 -0.9981 0.0244
vn 0.3682 0.1747 -0.9132
vn -0.0234 -0.9980 0.0581
vn 0.9055 0.1760 0.3861
vn -0.0234 -0.9980 -0.0580
vn -0.3682 0.1746 0.9132
vn 0.0234 -0.9980 0.0581
vn -0.3682 0.1747 -0.9132
vn 0.8966 -0.2332 -0.3765
vn 0.3637 -0.2320 -0.9021
vn -0.3638 -0.2314 0.9023
vn 0.3638 -0.2314 0.9023
vn -0.3637 -0.2320 -0.9021
vn 0.8945 -0.2334 0.3814
vn -0.8966 -0.2331 -0.3765
vn -0.8945 -0.2334 0.3814
vn -0.9136 -0.1171 0.3895
vn -0.9157 -0.1170 -0.3845
vn 0.9135 -0.1172 0.3895
vn -0.3714 -0.1164 -0.9211
vn 0.3714 -0.1161 0.9212
vn -0.3714 -0.1161 0.9212
vn 0.3714 -0.1164 -0.9211
vn 0.9157 -0.1171 -0.3845
vn 0.9066 0.1820 -0.3807
vn 0.3678 0.1811 -0.9121
vn -0.3678 0.1806 0.9122
vn 0.3678 0.1806 0.9122
vn -0.3678 0.1811 -0.9121
vn 0.9045 0.1822 0.3856
vn -0.9066 0.1820 -0.3807
vn -0.9045 0.1822 0.3856
vn -0.9155 -0.0971 0.3903
vn -0.9177 -0.0970 -0.3854
vn 0.9155 -0.0971 0.3903
vn -0.3722 -0.0965 -0.9231
vn 0.3722 -0.0963 0.9231
vn -0.3722 -0.0962 0.9231
vn 0.3722 -0.0965 -0.9231
vn 0.9177 -0.0970 -0.3854
vt 0.246033 0.221522
vt 0.268608 0.221522
vt 0.268608 0.315419
vt 0.246033 0.315419
vt 0.246033 0.408063
vt 0.268608 0.408063
vt 0.268608 0.500707
vt 0.246033 0.500707
vt 0.246033 0.594604
vt 0.268608 0.594604
vt 0.268608 0.687303
vt 0.246033 0.687303
vt 0.246033 0.036179
vt 0.268608 0.036179
vt 0.268608 0.128823
vt 0.246033 0.128823
vt 0.693988 0.578995
vt 0.740569 0.463463
vt 0.807289 0.530297
vt 0.807289 0.624677
vt 0.811446 0.907762
vt 0.742338 0.977005
vt 0.705268 0.886041
vt 0.721779 0.869497
vt 0.645715 0.737646
vt 0.743526 0.739508
vt 0.705552 0.829297
vt 0.682182 0.828852
vt 0.647406 0.694527
vt 0.741824 0.692662
vt 0.268608 0.779947
vt 0.246033 0.779947
vt 0.579458 0.627198
vt 0.579458 0.532818
vt 0.643255 0.975610
vt 0.681595 0.885708
vt 0.575414 0.905206
vt 0.665386 0.868886
vt 0.644923 0.464832
vt 0.457942 0.552131
vt 0.480694 0.552131
vt 0.480694 0.640900
vt 0.457942 0.640900
vt 0.434896 0.552131
vt 0.434896 0.640900
vt 0.343622 0.552131
vt 0.366374 0.552131
vt 0.366374 0.640900
vt 0.343622 0.640900
vt 0.412158 0.552131
vt 0.412158 0.640900
vt 0.811446 0.809991
vt 0.721779 0.846137
vt 0.575368 0.807436
vt 0.665375 0.845527
vt 0.811401 0.809879
vt 0.721769 0.846110
vt 0.009321 0.382339
vt 0.009961 0.262922
vt 0.216997 0.264388
vt 0.216380 0.383058
vt 0.010111 0.737319
vt 0.009400 0.617976
vt 0.216380 0.617197
vt 0.216997 0.735800
vt 0.753343 0.209003
vt 0.737818 0.224630
vt 0.629427 0.178861
vt 0.708479 0.099290
vt 0.011240 0.855092
vt 0.218020 0.852825
vt 0.320884 0.552131
vt 0.320884 0.640900
vt 0.503432 0.552131
vt 0.503432 0.640900
vt 0.389420 0.552131
vt 0.389420 0.640900
vt 0.419443 0.805601
vt 0.476140 0.946222
vt 0.361219 0.943952
vt 0.281538 0.861203
vt 0.362746 0.664980
vt 0.281538 0.746328
vt 0.479163 0.666647
vt 0.558843 0.749396
vt 0.558843 0.864272
vt 0.775669 0.209002
vt 0.822159 0.099282
vt 0.737444 0.246654
vt 0.753012 0.262657
vt 0.706791 0.372493
vt 0.627523 0.291008
vt 0.775052 0.262657
vt 0.819021 0.372493
vt 0.011031 0.145038
vt 0.012520 0.027244
vt 0.219342 0.030237
vt 0.218008 0.147241
vt 0.239397 0.147456
vt 0.238384 0.264538
vt 0.237576 0.500139
vt 0.237759 0.617126
vt 0.216192 0.500137
vt 0.237767 0.383133
vt 0.238367 0.735654
vt 0.239376 0.852610
vt 0.240723 0.030480
vt 0.240723 0.969423
vt 0.219384 0.969671
vt 0.791038 0.224799
vt 0.900422 0.179722
vt 0.009134 0.500172
vt 0.790663 0.247116
vt 0.898510 0.293358
vt 0.012779 0.972756
vt 0.790786 0.246825
vt 0.899135 0.291878
vt 0.366374 0.490445
vt 0.389420 0.490445
vt 0.412158 0.490445
vt 0.480694 0.490445
vt 0.503432 0.490445
vt 0.320884 0.490445
vt 0.343622 0.490445
vt 0.434896 0.490445
vt 0.457942 0.490445
vt 0.457942 0.387322
vt 0.480694 0.387322
vt 0.434896 0.387322
vt 0.343622 0.387322
vt 0.366374 0.387322
vt 0.412158 0.387322
vt 0.320884 0.387322
vt 0.503432 0.387322
vt 0.389420 0.387322
vt 0.366374 0.330532
vt 0.389420 0.330532
vt 0.412158 0.330532
vt 0.480694 0.330532
vt 0.503432 0.330532
vt 0.320884 0.330532
vt 0.343622 0.330532
vt 0.434896 0.330532
vt 0.457942 0.330532
vt 0.457942 0.286465
vt 0.480694 0.286465
vt 0.434896 0.286465
vt 0.343622 0.286465
vt 0.366374 0.286465
vt 0.412158 0.286465
vt 0.320884 0.286465
vt 0.503432 0.286465
vt 0.389420 0.286465
s 0
g lampa.001_Material.039
usemtl Material.039
f 13/1/1 14/2/1 4/3/1 3/4/1
f 9/5/2 10/6/2 8/7/2 7/8/2
f 15/9/3 16/10/3 6/11/3 5/12/3
f 11/13/4 12/14/4 2/15/4 1/16/4
f 17/17/5 15/18/5 5/19/5 11/20/5
f 6/21/6 16/22/6 22/23/6 23/24/6
f 14/25/7 2/26/7 25/27/7 18/28/7
f 13/29/5 17/17/5 11/20/5 1/30/5
f 5/12/8 6/11/8 12/31/8 11/32/8
f 3/4/9 4/3/9 10/6/9 9/5/9
f 3/33/5 9/34/5 17/17/5 13/29/5
f 16/22/10 8/35/10 21/36/10 22/23/10
f 8/35/11 10/37/11 20/38/11 21/36/11
f 9/34/5 7/39/5 15/18/5 17/17/5
f 7/8/12 8/7/12 16/10/12 15/9/12
f 1/16/13 2/15/13 14/2/13 13/1/13
f 63/40/14 64/41/14 34/42/14 27/43/14
f 62/44/15 63/40/15 27/43/15 28/45/15
f 59/46/16 60/47/16 31/48/16 32/49/16
f 61/50/17 62/44/17 28/45/17 29/51/17
f 12/52/18 6/21/18 23/24/18 24/53/18
f 10/37/19 4/54/19 19/55/19 20/38/19
f 4/54/20 14/25/20 18/28/20 19/55/20
f 2/26/21 12/56/21 24/57/21 25/27/21
f 37/58/22 38/59/22 52/60/22 53/61/22
f 26/62/23 35/63/23 51/64/23 55/65/23
f 30/66/24 29/67/24 45/68/24 46/69/24
f 41/70/25 26/62/25 55/65/25 58/71/25
f 65/72/26 59/46/26 32/49/26 33/73/26
f 64/41/27 65/74/27 33/75/27 34/42/27
f 66/76/28 61/50/28 29/51/28 30/77/28
f 60/47/29 66/76/29 30/77/29 31/48/29
f 42/78/30 26/79/30 41/80/30 40/81/30
f 38/82/31 42/78/31 40/81/31 39/83/31
f 37/84/32 36/85/32 42/78/32 38/82/32
f 36/85/33 35/86/33 26/79/33 42/78/33
f 31/87/34 30/66/34 46/69/34 47/88/34
f 28/89/35 27/90/35 43/91/35 44/92/35
f 27/90/36 34/93/36 50/94/36 43/91/36
f 39/95/37 40/96/37 57/97/37 56/98/37
f 48/99/3 47/100/3 52/60/3 56/98/3
f 45/101/9 44/102/9 51/64/9 54/103/9
f 47/100/12 46/104/12 53/61/12 52/60/12
f 46/104/2 45/101/2 54/103/2 53/61/2
f 44/102/1 43/105/1 55/65/1 51/64/1
f 43/105/13 50/106/13 58/71/13 55/65/13
f 49/107/8 48/99/8 56/98/8 57/97/8
f 50/106/4 49/108/4 57/109/4 58/71/4
f 32/110/38 31/87/38 47/88/38 48/111/38
f 36/112/39 37/58/39 53/61/39 54/103/39
f 34/93/40 33/113/40 49/114/40 50/94/40
f 38/59/41 39/95/41 56/98/41 52/60/41
f 29/67/42 28/89/42 44/92/42 45/68/42
f 40/115/43 41/70/43 58/71/43 57/109/43
f 33/116/44 32/110/44 48/111/44 49/117/44
f 35/63/45 36/112/45 54/103/45 51/64/45
f 71/118/46 70/119/46 66/76/46 60/47/46
f 70/119/47 68/120/47 61/50/47 66/76/47
f 74/121/48 69/122/48 65/74/48 64/41/48
f 69/123/49 67/124/49 59/46/49 65/72/49
f 68/120/50 72/125/50 62/44/50 61/50/50
f 67/124/51 71/118/51 60/47/51 59/46/51
f 72/125/52 73/126/52 63/40/52 62/44/52
f 73/126/53 74/121/53 64/41/53 63/40/53
f 81/127/54 82/128/54 74/121/54 73/126/54
f 80/129/55 81/127/55 73/126/55 72/125/55
f 75/130/56 79/131/56 71/118/56 67/124/56
f 76/132/57 80/129/57 72/125/57 68/120/57
f 77/133/58 75/130/58 67/124/58 69/123/58
f 82/128/59 77/134/59 69/122/59 74/121/59
f 78/135/60 76/132/60 68/120/60 70/119/60
f 79/131/61 78/135/61 70/119/61 71/118/61
f 87/136/62 86/137/62 78/135/62 79/131/62
f 86/137/63 84/138/63 76/132/63 78/135/63
f 90/139/64 85/140/64 77/134/64 82/128/64
f 85/141/65 83/142/65 75/130/65 77/133/65
f 84/138/66 88/143/66 80/129/66 76/132/66
f 83/142/67 87/136/67 79/131/67 75/130/67
f 88/143/68 89/144/68 81/127/68 80/129/68
f 89/144/69 90/139/69 82/128/69 81/127/69
f 18/145/70 25/146/70 90/139/70 89/144/70
f 19/147/71 18/145/71 89/144/71 88/143/71
f 23/148/72 22/149/72 87/136/72 83/142/72
f 20/150/73 19/147/73 88/143/73 84/138/73
f 24/151/74 23/148/74 83/142/74 85/141/74
f 25/146/75 24/152/75 85/140/75 90/139/75
f 21/153/76 20/150/76 84/138/76 86/137/76
f 22/149/77 21/153/77 86/137/77 87/136/77
