# Blender 4.1.0
# www.blender.org
mtllib svetlo sklep.mtl
o svetlo_ve_sklepe
v 164.256012 2.341630 -2.673257
v 164.260818 2.341630 -2.691412
v 164.244064 2.348838 -2.695862
v 164.239243 2.348838 -2.677708
v 164.262878 2.344405 -2.692950
v 164.262711 2.344405 -2.674167
v 164.262939 2.363187 -2.674165
v 164.263092 2.363187 -2.692948
v 164.741913 2.314612 -2.694726
v 164.746246 2.310665 -2.676881
v 164.763962 2.316118 -2.679975
v 164.759628 2.320065 -2.697820
v 164.246231 2.317837 -2.675882
v 164.250900 2.317310 -2.694070
v 164.233078 2.320996 -2.698743
v 164.228424 2.321523 -2.680556
v 164.729980 2.340486 -2.688699
v 164.732101 2.339837 -2.670047
v 164.741791 2.355919 -2.670589
v 164.739670 2.356568 -2.689241
v 164.219696 2.353917 -2.762336
v 164.227814 2.353917 -2.779276
v 164.211426 2.358711 -2.787122
v 164.203308 2.358711 -2.770182
v 164.227081 2.355893 -2.783008
v 164.226929 2.355893 -2.764225
v 164.227142 2.374675 -2.764224
v 164.227295 2.374675 -2.783006
v 164.774063 2.321959 -2.785848
v 164.777924 2.319920 -2.767577
v 164.794189 2.329002 -2.769990
v 164.790329 2.331041 -2.788261
v 164.213364 2.327626 -2.765380
v 164.221436 2.327385 -2.782340
v 164.204620 2.329812 -2.790371
v 164.196548 2.330054 -2.773412
v 164.760330 2.351182 -2.778168
v 164.762680 2.350478 -2.759546
v 164.772247 2.366634 -2.760141
v 164.769897 2.367338 -2.778764
v 164.244385 2.351213 -2.866279
v 164.253067 2.351213 -2.882938
v 164.236832 2.355382 -2.891399
v 164.228149 2.355382 -2.874740
v 164.251816 2.352953 -2.887191
v 164.251663 2.352953 -2.868408
v 164.251877 2.371735 -2.868406
v 164.252029 2.371735 -2.887189
v 164.751663 2.326712 -2.889249
v 164.755737 2.324689 -2.871026
v 164.773087 2.331137 -2.874195
v 164.769012 2.333160 -2.892417
v 164.239120 2.325334 -2.869040
v 164.247742 2.324976 -2.885725
v 164.231186 2.327180 -2.894325
v 164.222565 2.327538 -2.877641
v 164.736420 2.348434 -2.882820
v 164.738693 2.347850 -2.864183
v 164.747040 2.364668 -2.864670
v 164.744781 2.365252 -2.883307
v 164.491119 2.364383 -3.016799
v 164.509018 2.364383 -3.022466
v 164.504807 2.376944 -3.035780
v 164.486908 2.376944 -3.030113
v 164.509140 2.368287 -3.010767
v 164.490356 2.368287 -3.010988
v 164.490356 2.387070 -3.011054
v 164.509140 2.387070 -3.010833
v 164.497650 2.335392 -2.528195
v 164.479019 2.335828 -2.530455
v 164.477020 2.341932 -2.512803
v 164.495651 2.341496 -2.510544
v 164.484146 2.339651 -3.038787
v 164.502075 2.339757 -3.044393
v 164.496811 2.346495 -3.061116
v 164.478882 2.346389 -3.055510
v 164.503906 2.370716 -2.553982
v 164.485199 2.371036 -2.555576
v 164.484772 2.387858 -2.547231
v 164.503479 2.387538 -2.545637
v 164.244766 2.209667 -2.669833
v 164.249374 2.208593 -2.688011
v 164.231171 2.208618 -2.692624
v 164.226562 2.209692 -2.674445
v 164.212006 2.209692 -2.762632
v 164.220047 2.209205 -2.779593
v 164.203094 2.209226 -2.787651
v 164.195038 2.209713 -2.770689
v 164.236023 2.211839 -2.865725
v 164.244614 2.211119 -2.882411
v 164.227921 2.211333 -2.891019
v 164.219330 2.212053 -2.874334
v 164.742264 2.280876 -2.705794
v 164.746780 2.278158 -2.687766
v 164.765015 2.279068 -2.692196
v 164.760498 2.281787 -2.710224
v 164.742676 2.208849 -2.704988
v 164.747162 2.209100 -2.686752
v 164.765396 2.209147 -2.691243
v 164.760910 2.208896 -2.709480
v 164.794098 2.283713 -2.792935
v 164.797455 2.282758 -2.774480
v 164.815338 2.287651 -2.777487
v 164.811981 2.288606 -2.795942
v 164.796036 2.208637 -2.794693
v 164.799316 2.208281 -2.776202
v 164.817810 2.208891 -2.779469
v 164.814529 2.209246 -2.797960
v 164.753067 2.210687 -2.901481
v 164.757126 2.208811 -2.883237
v 164.775467 2.209529 -2.887238
v 164.771408 2.211405 -2.905482
v 164.500656 2.202651 -2.526324
v 164.481995 2.202211 -2.528432
v 164.479874 2.202502 -2.509770
v 164.498535 2.202942 -2.507663
v 164.485764 2.212752 -3.038823
v 164.503708 2.212981 -3.044406
v 164.498123 2.213006 -3.062340
v 164.480194 2.212776 -3.056757
v 164.252563 2.333057 -2.674171
v 164.257385 2.333057 -2.692326
v 164.240616 2.340266 -2.696776
v 164.235794 2.340266 -2.678622
v 164.216034 2.338547 -2.764089
v 164.224152 2.338547 -2.781029
v 164.207764 2.343341 -2.788875
v 164.199661 2.343341 -2.771935
v 164.218948 2.350773 -2.762695
v 164.227066 2.350772 -2.779635
v 164.210678 2.355567 -2.787481
v 164.202560 2.355567 -2.770541
v 164.731537 2.333936 -2.690256
v 164.735260 2.331583 -2.671997
v 164.751602 2.340577 -2.674169
v 164.747879 2.342931 -2.692429
v 164.737213 2.322990 -2.692825
v 164.740936 2.320637 -2.674566
v 164.757294 2.329631 -2.676738
v 164.753571 2.331985 -2.694998
v 164.272034 2.344296 -2.692874
v 164.271881 2.344296 -2.674091
v 164.272095 2.363078 -2.674089
v 164.272263 2.363078 -2.692872
v 164.290588 2.344077 -2.692720
v 164.290436 2.344077 -2.673938
v 164.290649 2.362859 -2.673936
v 164.290817 2.362859 -2.692719
v 164.309143 2.343858 -2.692567
v 164.308990 2.343858 -2.673784
v 164.309204 2.362639 -2.673782
v 164.309357 2.362639 -2.692565
v 164.327698 2.343638 -2.692413
v 164.327545 2.343638 -2.673631
v 164.327759 2.362420 -2.673629
v 164.327911 2.362420 -2.692411
v 164.346252 2.343419 -2.692260
v 164.346085 2.343419 -2.673477
v 164.346313 2.362201 -2.673476
v 164.346466 2.362201 -2.692258
v 164.364807 2.343199 -2.692106
v 164.364639 2.343199 -2.673324
v 164.364868 2.361981 -2.673322
v 164.365021 2.361981 -2.692105
v 164.383347 2.342980 -2.691953
v 164.383194 2.342980 -2.673170
v 164.383423 2.361762 -2.673168
v 164.383575 2.361762 -2.691951
v 164.401901 2.342761 -2.691799
v 164.401749 2.342761 -2.673017
v 164.401978 2.361543 -2.673015
v 164.402130 2.361543 -2.691797
v 164.420456 2.342541 -2.691646
v 164.420303 2.342541 -2.672863
v 164.420532 2.361323 -2.672861
v 164.420685 2.361323 -2.691644
v 164.439011 2.342322 -2.691492
v 164.438858 2.342322 -2.672710
v 164.439072 2.361104 -2.672708
v 164.439240 2.361104 -2.691490
v 164.457565 2.342103 -2.691339
v 164.457413 2.342103 -2.672556
v 164.457626 2.360884 -2.672554
v 164.457779 2.360884 -2.691337
v 164.476120 2.341883 -2.691185
v 164.475967 2.341883 -2.672403
v 164.476181 2.360665 -2.672401
v 164.476334 2.360665 -2.691184
v 164.494675 2.341664 -2.691032
v 164.494507 2.341664 -2.672249
v 164.494736 2.360445 -2.672247
v 164.494888 2.360445 -2.691030
v 164.513229 2.341444 -2.690878
v 164.513062 2.341444 -2.672096
v 164.513290 2.360226 -2.672094
v 164.513443 2.360226 -2.690876
v 164.531769 2.341225 -2.690725
v 164.531616 2.341225 -2.671942
v 164.531845 2.360007 -2.671940
v 164.531998 2.360007 -2.690723
v 164.550323 2.341006 -2.690571
v 164.550171 2.341006 -2.671788
v 164.550400 2.359787 -2.671787
v 164.550552 2.359787 -2.690569
v 164.568878 2.340786 -2.690418
v 164.568726 2.340786 -2.671635
v 164.568954 2.359568 -2.671633
v 164.569107 2.359568 -2.690416
v 164.587433 2.340567 -2.690264
v 164.587280 2.340567 -2.671481
v 164.587494 2.359349 -2.671480
v 164.587662 2.359349 -2.690262
v 164.605988 2.340347 -2.690110
v 164.605835 2.340347 -2.671328
v 164.606049 2.359129 -2.671326
v 164.606216 2.359129 -2.690109
v 164.624542 2.340128 -2.689957
v 164.624390 2.340128 -2.671175
v 164.624603 2.358910 -2.671173
v 164.624756 2.358910 -2.689955
v 164.643097 2.339909 -2.689803
v 164.642944 2.339909 -2.671021
v 164.643158 2.358691 -2.671019
v 164.643311 2.358691 -2.689802
v 164.661652 2.339689 -2.689650
v 164.661484 2.339689 -2.670867
v 164.661713 2.358471 -2.670866
v 164.661865 2.358471 -2.689648
v 164.680191 2.339470 -2.689497
v 164.680038 2.339470 -2.670714
v 164.680267 2.358252 -2.670712
v 164.680420 2.358252 -2.689495
v 164.698746 2.339251 -2.689343
v 164.698593 2.339251 -2.670560
v 164.698822 2.358032 -2.670559
v 164.698975 2.358032 -2.689341
v 164.717300 2.339031 -2.689189
v 164.717148 2.339031 -2.670407
v 164.717377 2.357813 -2.670405
v 164.717529 2.357813 -2.689188
v 164.762085 2.344417 -2.779963
v 164.766205 2.341860 -2.761817
v 164.782379 2.351114 -2.764189
v 164.778259 2.353670 -2.782335
v 164.768036 2.333274 -2.782884
v 164.772156 2.330718 -2.764739
v 164.788330 2.339971 -2.767111
v 164.784210 2.342528 -2.785256
v 164.235977 2.355788 -2.782934
v 164.235825 2.355788 -2.764152
v 164.236038 2.374569 -2.764150
v 164.236191 2.374569 -2.782933
v 164.254257 2.355571 -2.782783
v 164.254105 2.355571 -2.764001
v 164.254333 2.374353 -2.763999
v 164.254486 2.374353 -2.782781
v 164.272552 2.355355 -2.782632
v 164.272385 2.355355 -2.763849
v 164.272614 2.374137 -2.763848
v 164.272766 2.374137 -2.782630
v 164.290833 2.355139 -2.782481
v 164.290680 2.355139 -2.763698
v 164.290894 2.373921 -2.763696
v 164.291046 2.373921 -2.782479
v 164.309113 2.354923 -2.782329
v 164.308960 2.354923 -2.763547
v 164.309189 2.373704 -2.763545
v 164.309341 2.373704 -2.782327
v 164.327408 2.354706 -2.782178
v 164.327240 2.354706 -2.763396
v 164.327469 2.373488 -2.763394
v 164.327621 2.373488 -2.782176
v 164.345688 2.354490 -2.782027
v 164.345535 2.354490 -2.763244
v 164.345749 2.373272 -2.763242
v 164.345917 2.373272 -2.782025
v 164.363968 2.354274 -2.781875
v 164.363815 2.354274 -2.763093
v 164.364044 2.373056 -2.763091
v 164.364197 2.373056 -2.781874
v 164.382263 2.354058 -2.781724
v 164.382111 2.354058 -2.762942
v 164.382324 2.372839 -2.762940
v 164.382477 2.372839 -2.781722
v 164.400543 2.353842 -2.781573
v 164.400391 2.353842 -2.762790
v 164.400604 2.372623 -2.762789
v 164.400772 2.372623 -2.781571
v 164.418823 2.353625 -2.781421
v 164.418671 2.353625 -2.762639
v 164.418900 2.372407 -2.762637
v 164.419052 2.372407 -2.781420
v 164.437119 2.353409 -2.781270
v 164.436966 2.353409 -2.762488
v 164.437180 2.372191 -2.762486
v 164.437332 2.372191 -2.781269
v 164.455399 2.353193 -2.781119
v 164.455246 2.353193 -2.762336
v 164.455460 2.371975 -2.762335
v 164.455627 2.371975 -2.781117
v 164.473679 2.352977 -2.780967
v 164.473526 2.352977 -2.762185
v 164.473755 2.371758 -2.762183
v 164.473907 2.371758 -2.780966
v 164.491974 2.352760 -2.780816
v 164.491821 2.352760 -2.762034
v 164.492035 2.371542 -2.762032
v 164.492188 2.371542 -2.780814
v 164.510254 2.352544 -2.780665
v 164.510101 2.352544 -2.761883
v 164.510330 2.371326 -2.761881
v 164.510483 2.371326 -2.780663
v 164.528549 2.352328 -2.780514
v 164.528381 2.352328 -2.761731
v 164.528610 2.371110 -2.761729
v 164.528763 2.371110 -2.780512
v 164.546829 2.352112 -2.780362
v 164.546677 2.352112 -2.761580
v 164.546890 2.370893 -2.761578
v 164.547043 2.370893 -2.780361
v 164.565109 2.351895 -2.780211
v 164.564957 2.351895 -2.761429
v 164.565186 2.370677 -2.761427
v 164.565338 2.370677 -2.780209
v 164.583405 2.351679 -2.780060
v 164.583237 2.351679 -2.761277
v 164.583466 2.370461 -2.761276
v 164.583618 2.370461 -2.780058
v 164.601685 2.351463 -2.779908
v 164.601532 2.351463 -2.761126
v 164.601746 2.370245 -2.761124
v 164.601913 2.370245 -2.779907
v 164.619965 2.351247 -2.779757
v 164.619812 2.351247 -2.760975
v 164.620041 2.370029 -2.760973
v 164.620193 2.370029 -2.779756
v 164.638260 2.351030 -2.779606
v 164.638092 2.351030 -2.760823
v 164.638321 2.369812 -2.760822
v 164.638474 2.369812 -2.779604
v 164.656540 2.350814 -2.779454
v 164.656387 2.350814 -2.760672
v 164.656601 2.369596 -2.760670
v 164.656769 2.369596 -2.779453
v 164.674820 2.350598 -2.779303
v 164.674667 2.350598 -2.760521
v 164.674896 2.369380 -2.760519
v 164.675049 2.369380 -2.779302
v 164.693115 2.350382 -2.779152
v 164.692963 2.350382 -2.760370
v 164.693176 2.369164 -2.760368
v 164.693329 2.369164 -2.779150
v 164.711395 2.350166 -2.779001
v 164.711243 2.350166 -2.760218
v 164.711456 2.368948 -2.760216
v 164.711624 2.368948 -2.778999
v 164.729675 2.349949 -2.778849
v 164.729523 2.349949 -2.760067
v 164.729752 2.368731 -2.760065
v 164.729904 2.368731 -2.778848
v 164.747971 2.349733 -2.778698
v 164.747818 2.349733 -2.759916
v 164.748032 2.368515 -2.759914
v 164.748184 2.368515 -2.778696
v 164.242584 2.342272 -2.867220
v 164.251266 2.342272 -2.883878
v 164.235016 2.346441 -2.892339
v 164.226349 2.346441 -2.875681
v 164.742630 2.338043 -2.885839
v 164.746780 2.335889 -2.867646
v 164.761475 2.347433 -2.869628
v 164.757324 2.349586 -2.887820
v 164.260910 2.352846 -2.887115
v 164.260757 2.352846 -2.868333
v 164.260986 2.371628 -2.868331
v 164.261139 2.371628 -2.887114
v 164.279404 2.352627 -2.886962
v 164.279251 2.352627 -2.868180
v 164.279480 2.371409 -2.868178
v 164.279633 2.371409 -2.886961
v 164.297897 2.352408 -2.886810
v 164.297745 2.352408 -2.868027
v 164.297958 2.371190 -2.868025
v 164.298126 2.371190 -2.886807
v 164.316391 2.352190 -2.886657
v 164.316238 2.352190 -2.867874
v 164.316452 2.370971 -2.867872
v 164.316605 2.370971 -2.886654
v 164.334885 2.351971 -2.886503
v 164.334732 2.351971 -2.867721
v 164.334946 2.370753 -2.867719
v 164.335098 2.370753 -2.886501
v 164.353378 2.351752 -2.886350
v 164.353210 2.351752 -2.867568
v 164.353439 2.370534 -2.867566
v 164.353592 2.370534 -2.886348
v 164.371872 2.351534 -2.886197
v 164.371704 2.351534 -2.867415
v 164.371933 2.370316 -2.867413
v 164.372086 2.370316 -2.886195
v 164.390350 2.351315 -2.886045
v 164.390198 2.351315 -2.867262
v 164.390427 2.370097 -2.867260
v 164.390579 2.370097 -2.886043
v 164.408844 2.351096 -2.885891
v 164.408691 2.351096 -2.867109
v 164.408920 2.369878 -2.867107
v 164.409073 2.369878 -2.885890
v 164.427338 2.350878 -2.885738
v 164.427185 2.350878 -2.866956
v 164.427414 2.369660 -2.866954
v 164.427567 2.369660 -2.885736
v 164.445831 2.350659 -2.885586
v 164.445679 2.350659 -2.866803
v 164.445892 2.369441 -2.866801
v 164.446060 2.369441 -2.885584
v 164.464325 2.350440 -2.885432
v 164.464172 2.350440 -2.866650
v 164.464386 2.369222 -2.866648
v 164.464539 2.369222 -2.885431
v 164.482819 2.350222 -2.885279
v 164.482666 2.350222 -2.866497
v 164.482880 2.369004 -2.866495
v 164.483032 2.369004 -2.885278
v 164.501312 2.350003 -2.885127
v 164.501144 2.350003 -2.866344
v 164.501373 2.368785 -2.866342
v 164.501526 2.368785 -2.885125
v 164.519806 2.349784 -2.884974
v 164.519638 2.349784 -2.866191
v 164.519867 2.368566 -2.866189
v 164.520020 2.368566 -2.884971
v 164.538284 2.349566 -2.884820
v 164.538132 2.349566 -2.866038
v 164.538361 2.368348 -2.866036
v 164.538513 2.368348 -2.884818
v 164.556778 2.349347 -2.884668
v 164.556625 2.349347 -2.865885
v 164.556854 2.368129 -2.865883
v 164.557007 2.368129 -2.884665
v 164.575272 2.349128 -2.884514
v 164.575119 2.349128 -2.865732
v 164.575348 2.367910 -2.865730
v 164.575500 2.367910 -2.884512
v 164.593765 2.348910 -2.884361
v 164.593613 2.348910 -2.865579
v 164.593826 2.367692 -2.865577
v 164.593994 2.367692 -2.884359
v 164.612259 2.348691 -2.884208
v 164.612106 2.348691 -2.865426
v 164.612320 2.367473 -2.865424
v 164.612473 2.367473 -2.884207
v 164.630753 2.348472 -2.884055
v 164.630600 2.348472 -2.865273
v 164.630814 2.367254 -2.865271
v 164.630966 2.367254 -2.884053
v 164.649246 2.348253 -2.883902
v 164.649078 2.348253 -2.865120
v 164.649307 2.367035 -2.865118
v 164.649460 2.367035 -2.883900
v 164.667740 2.348035 -2.883749
v 164.667572 2.348035 -2.864967
v 164.667801 2.366817 -2.864965
v 164.667953 2.366817 -2.883748
v 164.686218 2.347816 -2.883596
v 164.686066 2.347816 -2.864814
v 164.686295 2.366598 -2.864812
v 164.686447 2.366598 -2.883595
v 164.704712 2.347598 -2.883443
v 164.704559 2.347598 -2.864661
v 164.704788 2.366379 -2.864659
v 164.704941 2.366379 -2.883441
v 164.723206 2.347379 -2.883290
v 164.723053 2.347379 -2.864508
v 164.723267 2.366161 -2.864506
v 164.723434 2.366161 -2.883288
v 164.486755 2.348316 -3.030577
v 164.504669 2.348316 -3.036245
v 164.500443 2.360878 -3.049559
v 164.482544 2.360878 -3.043891
v 164.489883 2.359841 -3.020694
v 164.507797 2.359841 -3.026362
v 164.503571 2.372402 -3.039675
v 164.485672 2.372402 -3.034008
v 164.501984 2.359481 -2.546702
v 164.483429 2.360702 -2.549371
v 164.482025 2.372010 -2.534439
v 164.500580 2.370789 -2.531770
v 164.499649 2.345939 -2.536666
v 164.481094 2.347160 -2.539336
v 164.479691 2.358468 -2.524404
v 164.498245 2.357247 -2.521734
v 164.509033 2.368317 -3.002093
v 164.490250 2.368317 -3.002314
v 164.490250 2.387100 -3.002379
v 164.509033 2.387100 -3.002159
v 164.508820 2.368380 -2.984028
v 164.490036 2.368380 -2.984249
v 164.490036 2.387163 -2.984314
v 164.508820 2.387163 -2.984094
v 164.508606 2.368443 -2.965963
v 164.489838 2.368443 -2.966183
v 164.489838 2.387227 -2.966249
v 164.508606 2.387227 -2.966028
v 164.508392 2.368506 -2.947898
v 164.489624 2.368506 -2.948118
v 164.489624 2.387290 -2.948184
v 164.508408 2.387290 -2.947963
v 164.508194 2.368570 -2.929832
v 164.489410 2.368570 -2.930053
v 164.489410 2.387353 -2.930119
v 164.508194 2.387353 -2.929898
v 164.507980 2.368633 -2.911767
v 164.489197 2.368633 -2.911988
v 164.489197 2.387416 -2.912053
v 164.507980 2.387416 -2.911833
v 164.507767 2.368696 -2.893702
v 164.488983 2.368696 -2.893923
v 164.488983 2.387479 -2.893988
v 164.507767 2.387479 -2.893768
v 164.507553 2.368759 -2.875637
v 164.488770 2.368759 -2.875858
v 164.488770 2.387542 -2.875923
v 164.507553 2.387542 -2.875702
v 164.507339 2.368822 -2.857571
v 164.488556 2.368822 -2.857792
v 164.488556 2.387605 -2.857858
v 164.507339 2.387605 -2.857637
v 164.507126 2.368886 -2.839506
v 164.488342 2.368886 -2.839727
v 164.488342 2.387669 -2.839792
v 164.507126 2.387669 -2.839572
v 164.506912 2.368948 -2.821441
v 164.488129 2.368948 -2.821662
v 164.488129 2.387732 -2.821727
v 164.506912 2.387732 -2.821507
v 164.506699 2.369012 -2.803376
v 164.487915 2.369012 -2.803596
v 164.487915 2.387795 -2.803662
v 164.506699 2.387795 -2.803442
v 164.506485 2.369075 -2.785311
v 164.487701 2.369075 -2.785532
v 164.487701 2.387858 -2.785597
v 164.506485 2.387858 -2.785376
v 164.506271 2.369138 -2.767246
v 164.487488 2.369138 -2.767466
v 164.487503 2.387921 -2.767532
v 164.506271 2.387921 -2.767311
v 164.506058 2.369201 -2.749180
v 164.487289 2.369201 -2.749401
v 164.487289 2.387984 -2.749467
v 164.506073 2.387984 -2.749246
v 164.505859 2.369264 -2.731115
v 164.487076 2.369264 -2.731336
v 164.487076 2.388047 -2.731401
v 164.505859 2.388047 -2.731181
v 164.505646 2.369327 -2.713050
v 164.486862 2.369327 -2.713271
v 164.486862 2.388110 -2.713336
v 164.505646 2.388110 -2.713116
v 164.505432 2.369390 -2.694985
v 164.486649 2.369390 -2.695205
v 164.486649 2.388174 -2.695271
v 164.505432 2.388174 -2.695050
v 164.505219 2.369454 -2.676919
v 164.486435 2.369454 -2.677140
v 164.486435 2.388237 -2.677206
v 164.505219 2.388237 -2.676985
v 164.505005 2.369517 -2.658854
v 164.486221 2.369517 -2.659075
v 164.486221 2.388300 -2.659141
v 164.505005 2.388300 -2.658920
v 164.504791 2.369580 -2.640789
v 164.486008 2.369580 -2.641010
v 164.486008 2.388363 -2.641076
v 164.504791 2.388363 -2.640855
v 164.504578 2.369643 -2.622724
v 164.485794 2.369643 -2.622945
v 164.485794 2.388426 -2.623010
v 164.504578 2.388426 -2.622790
v 164.504364 2.369706 -2.604659
v 164.485580 2.369706 -2.604880
v 164.485580 2.388489 -2.604945
v 164.504364 2.388489 -2.604724
v 164.504150 2.369769 -2.586593
v 164.485367 2.369769 -2.586814
v 164.485367 2.388552 -2.586880
v 164.504150 2.388552 -2.586659
v 164.503937 2.369833 -2.568528
v 164.485153 2.369833 -2.568749
v 164.485168 2.388616 -2.568815
v 164.503937 2.388616 -2.568594
v 164.245056 2.228046 -2.670847
v 164.249664 2.226972 -2.689025
v 164.231445 2.226997 -2.693638
v 164.226852 2.228071 -2.675459
v 164.245331 2.246425 -2.671861
v 164.249939 2.245351 -2.690040
v 164.231735 2.245376 -2.694652
v 164.227127 2.246450 -2.676473
v 164.245621 2.264804 -2.672875
v 164.250229 2.263730 -2.691054
v 164.232010 2.263755 -2.695666
v 164.227417 2.264829 -2.677487
v 164.245895 2.283183 -2.673889
v 164.250504 2.282109 -2.692068
v 164.232300 2.282134 -2.696680
v 164.227692 2.283208 -2.678501
v 164.246185 2.301562 -2.674903
v 164.250778 2.300488 -2.693082
v 164.232574 2.300513 -2.697694
v 164.227966 2.301587 -2.679516
v 164.212204 2.226729 -2.763022
v 164.220261 2.226242 -2.779984
v 164.203293 2.226263 -2.788042
v 164.195236 2.226750 -2.771080
v 164.212418 2.243766 -2.763413
v 164.220474 2.243279 -2.780375
v 164.203506 2.243300 -2.788432
v 164.195450 2.243787 -2.771470
v 164.212616 2.260803 -2.763804
v 164.220673 2.260316 -2.780766
v 164.203705 2.260338 -2.788823
v 164.195648 2.260824 -2.771861
v 164.212830 2.277840 -2.764194
v 164.220886 2.277354 -2.781156
v 164.203918 2.277375 -2.789213
v 164.195862 2.277862 -2.772252
v 164.213028 2.294878 -2.764585
v 164.221085 2.294391 -2.781547
v 164.204117 2.294412 -2.789604
v 164.196060 2.294899 -2.772642
v 164.213242 2.311915 -2.764976
v 164.221298 2.311428 -2.781938
v 164.204330 2.311449 -2.789995
v 164.196274 2.311936 -2.773033
v 164.236465 2.228221 -2.866198
v 164.245071 2.227501 -2.882884
v 164.228378 2.227715 -2.891492
v 164.219772 2.228435 -2.874807
v 164.236923 2.244602 -2.866671
v 164.245514 2.243882 -2.883357
v 164.228836 2.244096 -2.891965
v 164.220230 2.244816 -2.875280
v 164.237381 2.260984 -2.867144
v 164.245972 2.260264 -2.883830
v 164.229279 2.260478 -2.892438
v 164.220688 2.261198 -2.875752
v 164.237839 2.277365 -2.867617
v 164.246429 2.276645 -2.884302
v 164.229736 2.276859 -2.892911
v 164.221146 2.277580 -2.876225
v 164.238281 2.293747 -2.868090
v 164.246887 2.293027 -2.884776
v 164.230194 2.293241 -2.893384
v 164.221588 2.293961 -2.876698
v 164.238739 2.310128 -2.868563
v 164.247345 2.309408 -2.885248
v 164.230652 2.309623 -2.893857
v 164.222046 2.310342 -2.877172
v 164.741898 2.299598 -2.699726
v 164.746460 2.293986 -2.682391
v 164.764679 2.295739 -2.686620
v 164.760117 2.301351 -2.703954
v 164.742371 2.262079 -2.705648
v 164.746872 2.262331 -2.687411
v 164.765106 2.262378 -2.691902
v 164.760605 2.262127 -2.710139
v 164.742477 2.244336 -2.705428
v 164.746964 2.244587 -2.687191
v 164.765198 2.244634 -2.691682
v 164.760712 2.244383 -2.709919
v 164.742569 2.226592 -2.705208
v 164.747070 2.226844 -2.686972
v 164.765305 2.226891 -2.691463
v 164.760818 2.226640 -2.709699
v 164.781021 2.308518 -2.788314
v 164.784607 2.307002 -2.769937
v 164.800949 2.315910 -2.772385
v 164.797379 2.317427 -2.790762
v 164.787888 2.295252 -2.790744
v 164.791458 2.293736 -2.772367
v 164.807816 2.302644 -2.774816
v 164.804245 2.304161 -2.793193
v 164.794266 2.270171 -2.793197
v 164.797546 2.269816 -2.774706
v 164.816040 2.270425 -2.777973
v 164.812759 2.270781 -2.796464
v 164.794708 2.254788 -2.793571
v 164.797989 2.254432 -2.775080
v 164.816483 2.255042 -2.778347
v 164.813202 2.255397 -2.796838
v 164.795151 2.239404 -2.793945
v 164.798431 2.239048 -2.775454
v 164.816925 2.239658 -2.778721
v 164.813644 2.240014 -2.797212
v 164.795593 2.224020 -2.794319
v 164.798874 2.223665 -2.775828
v 164.817368 2.224274 -2.779095
v 164.814087 2.224630 -2.797586
v 164.751450 2.312530 -2.890649
v 164.755508 2.310654 -2.872405
v 164.773834 2.311372 -2.876405
v 164.769791 2.313248 -2.894650
v 164.751724 2.295556 -2.892454
v 164.755768 2.293680 -2.874210
v 164.774109 2.294398 -2.878211
v 164.770065 2.296274 -2.896455
v 164.751984 2.278582 -2.894259
v 164.756042 2.276706 -2.876015
v 164.774384 2.277424 -2.880016
v 164.770325 2.279300 -2.898260
v 164.752258 2.261608 -2.896065
v 164.756317 2.259732 -2.877821
v 164.774658 2.260451 -2.881822
v 164.770599 2.262326 -2.900066
v 164.752533 2.244634 -2.897870
v 164.756592 2.242759 -2.879626
v 164.774918 2.243477 -2.883627
v 164.770874 2.245353 -2.901871
v 164.752808 2.227661 -2.899676
v 164.756851 2.225785 -2.881431
v 164.775192 2.226503 -2.885432
v 164.771133 2.228379 -2.903677
v 164.498093 2.321726 -2.528470
v 164.479431 2.321286 -2.530577
v 164.477310 2.321577 -2.511916
v 164.495972 2.322016 -2.509808
v 164.498459 2.304715 -2.528163
v 164.479797 2.304275 -2.530271
v 164.477676 2.304566 -2.511609
v 164.496338 2.305006 -2.509501
v 164.498825 2.287704 -2.527857
v 164.480164 2.287265 -2.529964
v 164.478043 2.287555 -2.511302
v 164.496704 2.287995 -2.509195
v 164.499191 2.270694 -2.527550
v 164.480530 2.270254 -2.529658
v 164.478409 2.270545 -2.510996
v 164.497070 2.270984 -2.508889
v 164.499557 2.253683 -2.527244
v 164.480896 2.253243 -2.529351
v 164.478775 2.253534 -2.510690
v 164.497437 2.253974 -2.508582
v 164.499924 2.236672 -2.526937
v 164.481262 2.236233 -2.529045
v 164.479141 2.236523 -2.510383
v 164.497803 2.236963 -2.508276
v 164.500290 2.219662 -2.526631
v 164.481628 2.219222 -2.528738
v 164.479507 2.219513 -2.510077
v 164.498169 2.219952 -2.507969
v 164.485565 2.231351 -3.038733
v 164.503494 2.231581 -3.044316
v 164.497910 2.231604 -3.062250
v 164.479980 2.231375 -3.056667
v 164.485352 2.249950 -3.038643
v 164.503281 2.250180 -3.044226
v 164.497696 2.250204 -3.062160
v 164.479767 2.249974 -3.056577
v 164.485138 2.268549 -3.038553
v 164.503067 2.268779 -3.044136
v 164.497482 2.268803 -3.062070
v 164.479553 2.268573 -3.056487
v 164.484924 2.287149 -3.038463
v 164.502869 2.287378 -3.044046
v 164.497284 2.287402 -3.061980
v 164.479340 2.287173 -3.056397
v 164.484726 2.305748 -3.038373
v 164.502655 2.305978 -3.043956
v 164.497070 2.306001 -3.061890
v 164.479141 2.305772 -3.056307
v 164.484512 2.324347 -3.038283
v 164.502441 2.324577 -3.043866
v 164.496857 2.324600 -3.061800
v 164.478928 2.324371 -3.056217
v 164.360733 2.194136 -2.662131
v 164.360733 2.322490 -2.662131
v 164.360733 2.194136 -2.921879
v 164.360733 2.322490 -2.921879
v 164.620468 2.194136 -2.662131
v 164.620468 2.322490 -2.662131
v 164.620468 2.194136 -2.921879
v 164.620468 2.322490 -2.921879
v 164.317429 2.286588 -2.618840
v 164.317429 2.286588 -2.965170
v 164.663773 2.286588 -2.965170
v 164.663773 2.286588 -2.618839
v 164.317429 2.235236 -2.965170
v 164.663773 2.235236 -2.965170
v 164.663773 2.235236 -2.618839
v 164.317429 2.235236 -2.618840
v 164.332260 2.191080 -2.792005
v 164.324844 2.309196 -2.626255
v 164.332260 2.325058 -2.792005
v 164.324844 2.209754 -2.957755
v 164.490601 2.191080 -2.950339
v 164.490601 2.325058 -2.950339
v 164.656357 2.209754 -2.957755
v 164.648941 2.191080 -2.792005
v 164.648941 2.325058 -2.792005
v 164.656357 2.209754 -2.626255
v 164.490601 2.191080 -2.633671
v 164.490601 2.325058 -2.633671
v 164.317429 2.261469 -2.618839
v 164.324844 2.309196 -2.957755
v 164.656357 2.309196 -2.957755
v 164.656357 2.309196 -2.626255
v 164.490601 2.286588 -2.553902
v 164.728699 2.286588 -2.792005
v 164.490601 2.286588 -3.030107
v 164.252502 2.286588 -2.792005
v 164.317429 2.261469 -2.965170
v 164.663773 2.261469 -2.965170
v 164.663773 2.261469 -2.618839
v 164.324844 2.209754 -2.626255
v 164.252502 2.235236 -2.792005
v 164.490601 2.235236 -3.030107
v 164.728699 2.235236 -2.792005
v 164.490601 2.235236 -2.553902
v 164.262512 2.309449 -2.792005
v 164.490601 2.309449 -3.020086
v 164.718674 2.309449 -2.792005
v 164.490601 2.309449 -2.563923
v 164.490601 2.184667 -2.792005
v 164.490601 2.330446 -2.792005
v 164.490601 2.261469 -2.553902
v 164.728699 2.261469 -2.792005
v 164.490601 2.261469 -3.030107
v 164.252502 2.261469 -2.792005
v 164.262512 2.209453 -2.792005
v 164.490601 2.209453 -3.020086
v 164.718674 2.209453 -2.792005
v 164.490601 2.209453 -2.563923
v 164.186951 2.191838 -2.451435
v 164.186951 2.238124 -2.451435
v 164.186951 2.191838 -3.110404
v 164.186951 2.238124 -3.110404
v 164.845917 2.191838 -2.451435
v 164.845917 2.238124 -2.451435
v 164.845917 2.191838 -3.110404
v 164.845917 2.238124 -3.110404
v 164.183212 2.174645 -3.114136
v 164.183212 2.174645 -2.447702
v 164.849655 2.174645 -3.114136
v 164.849655 2.174645 -2.447702
v 164.183212 2.142408 -3.114136
v 164.183212 2.142408 -2.447702
v 164.849655 2.142408 -3.114136
v 164.849655 2.142408 -2.447702
vn 0.5482 -0.8331 0.0738
vn 0.1330 -0.0844 -0.9875
vn -0.5482 0.8331 -0.0738
vn -0.1330 0.0844 0.9875
vn 0.5990 -0.7887 0.1387
vn 0.2224 -0.1672 -0.9605
vn -0.5990 0.7887 -0.1387
vn -0.2224 0.1672 0.9605
vn 0.6111 -0.7768 0.1523
vn 0.2376 -0.1855 -0.9535
vn -0.6111 0.7768 -0.1523
vn -0.2376 0.1856 0.9535
vn 0.0606 -0.9108 0.4084
vn 0.9867 0.0701 -0.1465
vn -0.0606 0.9108 -0.4084
vn -0.9867 -0.0701 0.1465
vn -0.0153 -0.9984 0.0551
vn -0.0121 -0.9997 0.0229
vn -0.0277 -0.9992 0.0289
vn 0.0056 -0.9999 0.0124
vn 0.0287 -0.9993 -0.0243
vn 0.0159 -0.9943 -0.1058
vn 0.0215 -0.9996 0.0180
vn 0.0113 -0.9999 -0.0049
vn 0.8881 -0.3936 0.2374
vn 0.2552 0.0004 -0.9669
vn -0.8954 0.3756 -0.2390
vn -0.2553 -0.0008 0.9669
vn 0.8925 -0.3838 0.2369
vn 0.2566 -0.0000 -0.9665
vn -0.8925 0.3838 -0.2369
vn -0.2566 -0.0000 0.9665
vn 0.8702 -0.2618 0.4174
vn 0.4316 -0.0000 -0.9021
vn -0.8731 0.2498 -0.4186
vn -0.4316 -0.0002 0.9020
vn 0.8720 -0.2552 0.4177
vn 0.4320 -0.0000 -0.9019
vn -0.8720 0.2552 -0.4177
vn -0.4320 -0.0000 0.9019
vn -0.9372 -0.3268 0.1218
vn 0.2096 -0.1125 0.9713
vn 0.8365 0.5408 -0.0884
vn -0.2184 0.1220 -0.9682
vn -0.8702 -0.4789 0.1156
vn 0.1981 -0.1253 0.9721
vn 0.8702 0.4789 -0.1157
vn -0.1981 0.1253 -0.9721
vn -0.8626 -0.4946 0.1061
vn 0.2035 -0.1258 0.9710
vn 0.8773 0.4661 -0.1144
vn -0.2011 0.1197 -0.9722
vn -0.0118 -0.9999 -0.0001
vn -0.0083 -0.0000 1.0000
vn 0.0118 0.9999 0.0001
vn 0.0083 -0.0000 -1.0000
vn 0.0822 -0.9964 -0.0216
vn -0.0040 0.0166 0.9999
vn 0.0673 0.9976 0.0138
vn 0.0127 -0.0191 -0.9997
vn -0.9263 -0.3530 0.1318
vn 0.2314 -0.1217 0.9652
vn 0.8289 0.5509 -0.0971
vn -0.2418 0.1327 -0.9612
vn -0.8610 -0.4927 0.1263
vn 0.2196 -0.1361 0.9661
vn 0.8610 0.4927 -0.1263
vn -0.2196 0.1361 -0.9661
vn -0.8610 -0.4927 0.1264
vn 0.2197 -0.1365 0.9660
vn 0.8610 0.4926 -0.1264
vn -0.2193 0.1358 -0.9662
vn 0.0810 -0.9964 -0.0235
vn -0.0031 0.0179 0.9998
vn 0.0666 0.9977 0.0149
vn 0.0138 -0.0208 -0.9997
vn 0.8639 -0.2249 0.4506
vn 0.4615 -0.0000 -0.8871
vn -0.8651 0.2193 -0.4512
vn -0.4615 -0.0002 0.8871
vn 0.8648 -0.2220 0.4505
vn 0.4620 -0.0000 -0.8869
vn -0.8648 0.2220 -0.4505
vn -0.4620 -0.0000 0.8869
vn -0.8241 -0.5571 0.1020
vn 0.2295 -0.1021 0.9679
vn 0.7586 0.6461 -0.0840
vn -0.2370 0.1085 -0.9654
vn -0.7631 -0.6386 0.0992
vn 0.2203 -0.1151 0.9686
vn 0.7945 0.5971 -0.1110
vn -0.2203 0.1150 -0.9686
vn 0.0533 -0.9984 -0.0186
vn -0.0037 0.0145 0.9999
vn 0.0532 0.9985 0.0126
vn 0.0131 -0.0168 -0.9998
vn 0.2145 -0.7059 0.6751
vn 0.9535 -0.0004 -0.3013
vn -0.2313 0.6440 -0.7293
vn -0.9535 0.0004 0.3013
vn 0.2243 -0.6688 0.7088
vn 0.9534 -0.0000 -0.3017
vn -0.2243 0.6688 -0.7088
vn -0.9534 -0.0000 0.3017
vn 0.0739 -0.5377 -0.8399
vn -0.9867 0.0606 -0.1507
vn -0.0614 0.6382 0.7674
vn 0.9872 -0.0584 0.1482
vn 0.0748 -0.6020 -0.7950
vn -0.9877 0.0650 -0.1421
vn -0.0748 0.6020 0.7950
vn 0.9877 -0.0650 0.1421
vn 0.0747 -0.6282 -0.7745
vn -0.9881 0.0667 -0.1388
vn -0.0811 0.5836 0.8080
vn 0.9879 -0.0679 0.1394
vn -0.0000 -1.0000 0.0035
vn -0.9999 -0.0000 -0.0118
vn -0.0000 1.0000 -0.0035
vn 0.9999 -0.0000 0.0118
vn -0.9999 -0.0000 -0.0117
vn 0.9999 -0.0000 0.0117
vn -0.0121 -0.9971 0.0751
vn -0.9999 -0.0095 -0.0101
vn 0.0065 0.9991 0.0413
vn 0.9999 0.0088 0.0132
vn 0.9694 -0.0013 0.2456
vn 0.2451 -0.0572 -0.9678
vn -0.9694 0.0013 -0.2456
vn -0.2451 0.0572 0.9678
vn 0.9691 0.0096 0.2465
vn 0.2437 -0.0569 -0.9682
vn -0.9689 0.0102 -0.2473
vn -0.2436 0.0574 0.9682
vn 0.9033 -0.0011 0.4290
vn 0.4288 -0.0259 -0.9030
vn -0.9033 0.0011 -0.4290
vn -0.4288 0.0259 0.9030
vn 0.9032 0.0038 0.4293
vn 0.4284 -0.0259 -0.9032
vn -0.9031 0.0054 -0.4294
vn -0.4284 0.0260 0.9032
vn 0.8887 -0.0114 0.4583
vn 0.4576 -0.0383 -0.8883
vn -0.8887 0.0114 -0.4583
vn -0.4576 0.0383 0.8883
vn 0.8886 -0.0079 0.4587
vn 0.4572 -0.0382 -0.8886
vn -0.8884 0.0144 -0.4588
vn -0.4572 0.0384 0.8886
vn -0.9713 -0.0801 0.2239
vn 0.2475 -0.2963 0.9225
vn 0.9707 0.1014 -0.2180
vn -0.2480 0.3005 -0.9210
vn -0.9694 -0.0944 0.2267
vn 0.2412 -0.3055 0.9211
vn 0.9694 0.0933 -0.2270
vn -0.2412 0.2934 -0.9251
vn -0.9705 -0.0019 0.2409
vn 0.2371 0.0206 0.9713
vn 0.9706 0.0031 -0.2409
vn -0.2374 -0.0072 -0.9714
vn -0.9710 -0.0025 0.2391
vn 0.2390 0.0134 0.9709
vn 0.9710 0.0025 -0.2391
vn -0.2390 -0.0134 -0.9709
vn -0.8707 -0.4743 0.1305
vn 0.1902 -0.0805 0.9784
vn 0.8706 0.4743 -0.1304
vn -0.1905 0.0810 -0.9783
vn -0.8707 -0.4743 0.1304
vn 0.1905 -0.0807 0.9784
vn 0.8707 0.4743 -0.1304
vn -0.1905 0.0807 -0.9784
vn -0.8614 -0.4912 0.1294
vn 0.1890 -0.0819 0.9786
vn 0.8768 0.4617 -0.1343
vn -0.1887 0.0813 -0.9787
vn -0.9842 -0.0136 0.1765
vn 0.1727 -0.0187 0.9848
vn 0.9834 0.0467 -0.1752
vn -0.1728 0.0193 -0.9848
vn -0.9842 -0.0325 0.1739
vn 0.1746 -0.0189 0.9845
vn 0.9842 0.0325 -0.1739
vn -0.1746 0.0189 -0.9845
vn 0.9842 0.0324 -0.1739
vn -0.9761 -0.0061 0.2171
vn 0.2152 -0.0999 0.9715
vn 0.9756 0.0611 -0.2110
vn -0.2152 0.0999 -0.9714
vn -0.9763 -0.0382 0.2130
vn 0.2158 -0.0999 0.9713
vn 0.9763 0.0382 -0.2130
vn -0.2158 0.0999 -0.9713
vn 0.1163 0.0175 -0.9931
vn -0.9938 -0.0227 -0.1085
vn -0.1162 0.0386 0.9925
vn 0.9938 0.0240 0.1083
vn 0.1126 -0.0155 -0.9935
vn -0.9934 -0.0234 -0.1122
vn -0.1126 0.0155 0.9935
vn 0.9934 0.0234 0.1122
vn 0.2973 -0.0013 0.9548
vn 0.9547 0.0122 -0.2972
vn -0.2973 0.0013 -0.9548
vn -0.9547 -0.0122 0.2972
vn 0.2973 0.0394 0.9540
vn 0.9549 0.0122 -0.2966
vn -0.2980 0.0295 -0.9541
vn -0.9549 -0.0122 0.2966
vn -0.8642 0.3844 0.3248
vn -0.2370 0.9680 0.0820
vn -0.2370 0.9680 -0.0820
vn -0.8642 0.3844 -0.3248
vn -0.3248 0.3844 -0.8642
vn -0.0820 0.9680 -0.2370
vn 0.0820 0.9680 -0.2370
vn 0.3248 0.3844 -0.8642
vn 0.8642 0.3844 -0.3248
vn 0.2370 0.9680 -0.0820
vn 0.2370 0.9680 0.0820
vn 0.8642 0.3844 0.3248
vn 0.3248 0.3844 0.8642
vn 0.0820 0.9680 0.2370
vn -0.0820 0.9680 0.2370
vn -0.3248 0.3844 0.8642
vn -0.0364 -0.9987 -0.0364
vn 0.0364 -0.9987 -0.0364
vn 0.0364 -0.9987 0.0364
vn -0.0364 -0.9987 0.0364
vn 0.0306 0.9991 -0.0306
vn -0.0306 0.9991 -0.0306
vn -0.0306 0.9991 0.0306
vn 0.0306 0.9991 0.0306
vn 0.3511 -0.0000 0.9363
vn -0.3511 -0.0000 0.9363
vn 0.9363 -0.0000 -0.3511
vn 0.9363 -0.0000 0.3511
vn -0.3511 -0.0000 -0.9363
vn 0.3511 -0.0000 -0.9363
vn -0.9363 -0.0000 0.3511
vn -0.9363 -0.0000 -0.3511
vn -0.2754 -0.9566 0.0955
vn -0.8781 -0.3464 0.3301
vn -0.8781 -0.3464 -0.3301
vn -0.2754 -0.9566 -0.0955
vn -0.0955 -0.9566 -0.2754
vn -0.3301 -0.3464 -0.8781
vn 0.3301 -0.3464 -0.8781
vn 0.0955 -0.9566 -0.2754
vn 0.2754 -0.9566 -0.0955
vn 0.8781 -0.3464 -0.3301
vn 0.8781 -0.3464 0.3301
vn 0.2754 -0.9566 0.0955
vn 0.0955 -0.9566 0.2754
vn 0.3301 -0.3464 0.8781
vn -0.3301 -0.3464 0.8781
vn -0.0955 -0.9566 0.2754
vn -1.0000 -0.0000 -0.0000
vn -0.0000 -0.0000 -1.0000
vn 1.0000 -0.0000 -0.0000
vn -0.0000 -0.0000 1.0000
vn -0.0000 0.2122 0.9772
vn -0.0000 1.0000 -0.0000
vn -0.0000 0.2122 -0.9772
vn -0.9772 0.2122 -0.0000
vn 0.9772 0.2121 -0.0000
vn -0.0000 -1.0000 -0.0000
vt 0.956776 0.835581
vt 0.930439 0.832910
vt 0.928520 0.828254
vt 0.955281 0.826432
vt 0.909115 0.840824
vt 0.907937 0.819966
vt 0.892191 0.842815
vt 0.891544 0.817758
vt 0.977126 0.842356
vt 0.974468 0.816451
vt 0.905279 0.342593
vt 0.929581 0.347521
vt 0.934897 0.350138
vt 0.908603 0.350815
vt 0.950464 0.340963
vt 0.952958 0.358690
vt 0.966613 0.337706
vt 0.967997 0.361063
vt 0.887151 0.335429
vt 0.890894 0.360624
vt 0.957007 0.845951
vt 0.932372 0.841924
vt 0.926141 0.839675
vt 0.952808 0.837659
vt 0.911014 0.849851
vt 0.907350 0.831228
vt 0.894816 0.853875
vt 0.891681 0.829398
vt 0.975107 0.853586
vt 0.970643 0.827540
vt 0.943816 0.817476
vt 0.922110 0.819372
vt 0.923103 0.806727
vt 0.944866 0.809106
vt 0.904973 0.822362
vt 0.906959 0.802033
vt 0.889740 0.820946
vt 0.891155 0.801951
vt 0.963373 0.822304
vt 0.964407 0.804173
vt 0.907244 0.309063
vt 0.921891 0.309063
vt 0.921891 0.323710
vt 0.907244 0.323710
vt 0.936538 0.309063
vt 0.936538 0.294416
vt 0.951185 0.294416
vt 0.951184 0.309063
vt 0.951184 0.309063
vt 0.951184 0.323710
vt 0.936538 0.323710
vt 0.892597 0.294416
vt 0.907244 0.294416
vt 0.907244 0.309063
vt 0.892597 0.309063
vt 0.921891 0.309063
vt 0.936538 0.309063
vt 0.936538 0.323710
vt 0.921891 0.323710
vt 0.907244 0.294416
vt 0.921891 0.294416
vt 0.907244 0.309063
vt 0.907244 0.323710
vt 0.892597 0.323710
vt 0.892597 0.309063
vt 0.907244 0.309063
vt 0.921891 0.294416
vt 0.936538 0.294416
vt 0.936538 0.309063
vt 0.921891 0.309063
vt 0.953422 0.867220
vt 0.931431 0.866554
vt 0.931092 0.845537
vt 0.954693 0.847241
vt 0.911956 0.868003
vt 0.910839 0.849044
vt 0.895478 0.869425
vt 0.893456 0.851496
vt 0.973768 0.870032
vt 0.974959 0.851193
vt 0.910170 0.313785
vt 0.929511 0.315220
vt 0.929107 0.327700
vt 0.908815 0.325390
vt 0.947615 0.314159
vt 0.948190 0.326420
vt 0.963221 0.312941
vt 0.964503 0.324286
vt 0.892507 0.310686
vt 0.891322 0.322113
vt 0.929248 0.343149
vt 0.906340 0.339175
vt 0.949786 0.337921
vt 0.966117 0.334817
vt 0.888256 0.332469
vt 0.930630 0.378391
vt 0.953808 0.379259
vt 0.955383 0.389766
vt 0.928740 0.387822
vt 0.973002 0.377257
vt 0.975749 0.391889
vt 0.891279 0.372335
vt 0.908959 0.374931
vt 0.905774 0.388759
vt 0.889481 0.389202
vt 0.931786 0.363263
vt 0.953774 0.364607
vt 0.973036 0.365488
vt 0.892393 0.360535
vt 0.910734 0.361977
vt 0.932323 0.351327
vt 0.954895 0.351823
vt 0.974509 0.351379
vt 0.893360 0.345854
vt 0.911119 0.348530
vt 0.929878 0.816222
vt 0.952433 0.815278
vt 0.971280 0.808439
vt 0.892775 0.809134
vt 0.910014 0.811844
vt 0.930696 0.795490
vt 0.949800 0.794984
vt 0.967412 0.792328
vt 0.894994 0.792568
vt 0.912252 0.794224
vt 0.930866 0.777313
vt 0.948661 0.776881
vt 0.965768 0.775781
vt 0.896104 0.775947
vt 0.913275 0.776841
vt 0.930890 0.759933
vt 0.948116 0.759753
vt 0.965037 0.759239
vt 0.896755 0.759358
vt 0.913696 0.759766
vt 0.930873 0.743014
vt 0.947873 0.742900
vt 0.964702 0.742677
vt 0.897005 0.742758
vt 0.913899 0.742954
vt 0.930861 0.726263
vt 0.947742 0.726212
vt 0.964572 0.726102
vt 0.897140 0.726158
vt 0.913971 0.726236
vt 0.930846 0.709596
vt 0.947687 0.709564
vt 0.964496 0.709511
vt 0.897183 0.709560
vt 0.914006 0.709592
vt 0.930835 0.692965
vt 0.947654 0.692946
vt 0.964463 0.692917
vt 0.897202 0.692961
vt 0.914012 0.692968
vt 0.930823 0.676350
vt 0.947636 0.676336
vt 0.964442 0.676319
vt 0.897202 0.676361
vt 0.914011 0.676358
vt 0.930813 0.659743
vt 0.947622 0.659731
vt 0.964429 0.659719
vt 0.897196 0.659760
vt 0.914003 0.659752
vt 0.930803 0.643137
vt 0.947611 0.643127
vt 0.964419 0.643117
vt 0.897185 0.643158
vt 0.913994 0.643147
vt 0.930793 0.626532
vt 0.947602 0.626522
vt 0.964411 0.626513
vt 0.897175 0.626554
vt 0.913983 0.626543
vt 0.930782 0.609927
vt 0.947593 0.609917
vt 0.964402 0.609908
vt 0.897162 0.609949
vt 0.913972 0.609937
vt 0.930772 0.593320
vt 0.947584 0.593310
vt 0.964395 0.593302
vt 0.897150 0.593344
vt 0.913960 0.593331
vt 0.930762 0.576711
vt 0.947575 0.576702
vt 0.964388 0.576694
vt 0.897136 0.576737
vt 0.913948 0.576723
vt 0.930751 0.560101
vt 0.947567 0.560092
vt 0.964382 0.560086
vt 0.897122 0.560129
vt 0.913936 0.560113
vt 0.930740 0.543487
vt 0.947560 0.543478
vt 0.964378 0.543476
vt 0.897105 0.543521
vt 0.913920 0.543501
vt 0.930728 0.526864
vt 0.947557 0.526860
vt 0.964379 0.526865
vt 0.897081 0.526913
vt 0.913900 0.526884
vt 0.930716 0.510230
vt 0.947560 0.510231
vt 0.964389 0.510252
vt 0.897045 0.510303
vt 0.913873 0.510257
vt 0.930704 0.493569
vt 0.947579 0.493582
vt 0.964421 0.493640
vt 0.896989 0.493693
vt 0.913826 0.493608
vt 0.930692 0.476832
vt 0.947646 0.476897
vt 0.964502 0.477036
vt 0.896862 0.477088
vt 0.913741 0.476919
vt 0.930682 0.459994
vt 0.947808 0.460111
vt 0.964685 0.460451
vt 0.896650 0.460475
vt 0.913566 0.460128
vt 0.930662 0.442785
vt 0.948180 0.443135
vt 0.965208 0.443901
vt 0.896114 0.443886
vt 0.913216 0.443144
vt 0.930648 0.424891
vt 0.948957 0.425570
vt 0.966357 0.427314
vt 0.895195 0.427285
vt 0.912367 0.425884
vt 0.930388 0.405559
vt 0.951047 0.406776
vt 0.968402 0.410982
vt 0.893167 0.410752
vt 0.910761 0.407957
vt 0.929684 0.830255
vt 0.908927 0.829932
vt 0.907066 0.819812
vt 0.931467 0.821268
vt 0.891323 0.832700
vt 0.888142 0.818521
vt 0.965355 0.837363
vt 0.949043 0.833995
vt 0.952611 0.821137
vt 0.967884 0.821338
vt 0.928631 0.843922
vt 0.909713 0.843383
vt 0.892020 0.844065
vt 0.963538 0.848638
vt 0.946747 0.845990
vt 0.927886 0.856737
vt 0.909677 0.855813
vt 0.891889 0.855489
vt 0.961933 0.859895
vt 0.945315 0.858214
vt 0.933037 0.360767
vt 0.911419 0.361608
vt 0.893823 0.367734
vt 0.966733 0.368684
vt 0.951082 0.365915
vt 0.931536 0.380175
vt 0.913656 0.380351
vt 0.896837 0.382710
vt 0.964645 0.383564
vt 0.948841 0.381838
vt 0.931113 0.397021
vt 0.914444 0.397230
vt 0.898120 0.398150
vt 0.963594 0.398704
vt 0.947666 0.397776
vt 0.930966 0.413175
vt 0.914759 0.413201
vt 0.898687 0.413598
vt 0.962934 0.413953
vt 0.947101 0.413468
vt 0.930861 0.428858
vt 0.914873 0.428878
vt 0.898931 0.429047
vt 0.962662 0.429269
vt 0.946823 0.429029
vt 0.930802 0.444412
vt 0.914902 0.444396
vt 0.899045 0.444442
vt 0.962499 0.444625
vt 0.946680 0.444497
vt 0.930753 0.459875
vt 0.914896 0.459846
vt 0.899053 0.459843
vt 0.962419 0.460000
vt 0.946604 0.459933
vt 0.930714 0.475313
vt 0.914868 0.475277
vt 0.899032 0.475246
vt 0.962379 0.475390
vt 0.946556 0.475352
vt 0.930679 0.490741
vt 0.914831 0.490705
vt 0.898987 0.490662
vt 0.962361 0.490796
vt 0.946524 0.490774
vt 0.930646 0.506175
vt 0.914791 0.506137
vt 0.898937 0.506090
vt 0.962350 0.506220
vt 0.946500 0.506203
vt 0.930614 0.521616
vt 0.914749 0.521579
vt 0.898884 0.521530
vt 0.962341 0.521658
vt 0.946478 0.521643
vt 0.930583 0.537068
vt 0.914707 0.537030
vt 0.898831 0.536981
vt 0.962334 0.537108
vt 0.946458 0.537094
vt 0.930552 0.552530
vt 0.914665 0.552493
vt 0.898777 0.552444
vt 0.962326 0.552570
vt 0.946439 0.552556
vt 0.930521 0.568004
vt 0.914623 0.567967
vt 0.898724 0.567918
vt 0.962318 0.568044
vt 0.946420 0.568029
vt 0.930491 0.583488
vt 0.914582 0.583451
vt 0.898672 0.583403
vt 0.962310 0.583528
vt 0.946400 0.583514
vt 0.930461 0.598982
vt 0.914541 0.598946
vt 0.898620 0.598899
vt 0.962300 0.599024
vt 0.946380 0.599008
vt 0.930430 0.614487
vt 0.914500 0.614451
vt 0.898570 0.614404
vt 0.962290 0.614529
vt 0.946360 0.614513
vt 0.930400 0.630002
vt 0.914460 0.629965
vt 0.898520 0.629919
vt 0.962280 0.630043
vt 0.946340 0.630027
vt 0.930370 0.645526
vt 0.914420 0.645489
vt 0.898470 0.645443
vt 0.962269 0.645567
vt 0.946319 0.645551
vt 0.930339 0.661060
vt 0.914379 0.661023
vt 0.898420 0.660975
vt 0.962258 0.661100
vt 0.946299 0.661085
vt 0.930309 0.676605
vt 0.914337 0.676566
vt 0.898370 0.676516
vt 0.962249 0.676642
vt 0.946280 0.676630
vt 0.930277 0.692164
vt 0.914293 0.692122
vt 0.898313 0.692064
vt 0.962243 0.692191
vt 0.946264 0.692185
vt 0.930245 0.707741
vt 0.914240 0.707692
vt 0.898249 0.707620
vt 0.962249 0.707748
vt 0.946254 0.707758
vt 0.930211 0.723351
vt 0.914171 0.723285
vt 0.898165 0.723179
vt 0.962279 0.723316
vt 0.946256 0.723359
vt 0.930167 0.739022
vt 0.914066 0.738925
vt 0.898039 0.738739
vt 0.962342 0.738895
vt 0.946293 0.738994
vt 0.930123 0.754814
vt 0.913868 0.754634
vt 0.897813 0.754273
vt 0.962481 0.754478
vt 0.946402 0.754719
vt 0.930080 0.770894
vt 0.913512 0.770523
vt 0.897280 0.769792
vt 0.962863 0.770055
vt 0.946650 0.770615
vt 0.930025 0.787512
vt 0.912741 0.786851
vt 0.896392 0.785318
vt 0.963676 0.785655
vt 0.947210 0.786812
vt 0.930149 0.805378
vt 0.910880 0.804219
vt 0.894563 0.800462
vt 0.965051 0.801216
vt 0.948548 0.803419
vt 0.952684 0.874866
vt 0.933325 0.874183
vt 0.932818 0.854111
vt 0.954759 0.856488
vt 0.915205 0.875760
vt 0.913180 0.857949
vt 0.899485 0.877679
vt 0.896721 0.861688
vt 0.970574 0.877339
vt 0.972487 0.861016
vt 0.931839 0.378878
vt 0.953806 0.379226
vt 0.955283 0.396375
vt 0.930357 0.395178
vt 0.972402 0.378803
vt 0.975106 0.398203
vt 0.895234 0.375699
vt 0.912092 0.377691
vt 0.908715 0.395457
vt 0.892628 0.395541
vt 0.931910 0.361372
vt 0.954595 0.361781
vt 0.974684 0.360874
vt 0.896826 0.358122
vt 0.912546 0.359718
vt 0.928036 0.827993
vt 0.950010 0.827057
vt 0.967559 0.820382
vt 0.892741 0.821189
vt 0.909059 0.823471
vt 0.928993 0.808113
vt 0.947219 0.807614
vt 0.964379 0.804943
vt 0.894412 0.805276
vt 0.911042 0.806689
vt 0.929104 0.790450
vt 0.946277 0.790199
vt 0.962746 0.789218
vt 0.895403 0.789209
vt 0.912039 0.789997
vt 0.929178 0.773723
vt 0.945860 0.773648
vt 0.962285 0.773305
vt 0.895933 0.773056
vt 0.912471 0.773480
vt 0.929252 0.757330
vt 0.945749 0.757353
vt 0.962156 0.757267
vt 0.896250 0.756892
vt 0.912720 0.757158
vt 0.929341 0.741073
vt 0.945772 0.741152
vt 0.962152 0.741187
vt 0.896476 0.740765
vt 0.912889 0.740941
vt 0.929442 0.724890
vt 0.945853 0.724990
vt 0.962232 0.725083
vt 0.896619 0.724633
vt 0.913025 0.724770
vt 0.929551 0.708727
vt 0.945959 0.708840
vt 0.962348 0.708959
vt 0.896739 0.708497
vt 0.913141 0.708612
vt 0.929666 0.692567
vt 0.946077 0.692687
vt 0.962483 0.692819
vt 0.896839 0.692347
vt 0.913251 0.692453
vt 0.929781 0.676401
vt 0.946203 0.676524
vt 0.962624 0.676660
vt 0.896935 0.676185
vt 0.913358 0.676288
vt 0.929898 0.660225
vt 0.946332 0.660350
vt 0.962764 0.660487
vt 0.897029 0.660010
vt 0.913464 0.660112
vt 0.930015 0.644038
vt 0.946461 0.644163
vt 0.962906 0.644301
vt 0.897123 0.643823
vt 0.913569 0.643925
vt 0.930132 0.627840
vt 0.946590 0.627965
vt 0.963048 0.628102
vt 0.897217 0.627625
vt 0.913675 0.627726
vt 0.930250 0.611630
vt 0.946719 0.611755
vt 0.963189 0.611891
vt 0.897312 0.611415
vt 0.913781 0.611516
vt 0.930367 0.595409
vt 0.946848 0.595534
vt 0.963328 0.595670
vt 0.897407 0.595193
vt 0.913887 0.595296
vt 0.930484 0.579177
vt 0.946976 0.579302
vt 0.963467 0.579437
vt 0.897502 0.578962
vt 0.913993 0.579064
vt 0.930601 0.562935
vt 0.947104 0.563059
vt 0.963605 0.563195
vt 0.897598 0.562720
vt 0.914099 0.562822
vt 0.930719 0.546680
vt 0.947233 0.546805
vt 0.963745 0.546944
vt 0.897692 0.546470
vt 0.914204 0.546568
vt 0.930836 0.530411
vt 0.947364 0.530539
vt 0.963887 0.530683
vt 0.897781 0.530209
vt 0.914306 0.530302
vt 0.930955 0.514123
vt 0.947502 0.514258
vt 0.964037 0.514417
vt 0.897865 0.513938
vt 0.914403 0.514019
vt 0.931076 0.497803
vt 0.947657 0.497956
vt 0.964206 0.498147
vt 0.897924 0.497658
vt 0.914490 0.497709
vt 0.931200 0.481425
vt 0.947850 0.481618
vt 0.964417 0.481878
vt 0.897953 0.481363
vt 0.914547 0.481356
vt 0.931334 0.464948
vt 0.948125 0.465191
vt 0.964714 0.465622
vt 0.897904 0.465072
vt 0.914539 0.464921
vt 0.931472 0.448158
vt 0.948572 0.448599
vt 0.965301 0.449394
vt 0.897596 0.448785
vt 0.914385 0.448333
vt 0.931577 0.430954
vt 0.949485 0.431541
vt 0.966231 0.433219
vt 0.896995 0.432464
vt 0.913884 0.431408
vt 0.931539 0.412175
vt 0.951360 0.413460
vt 0.968633 0.417378
vt 0.895422 0.416234
vt 0.912577 0.414045
vt 0.943969 0.855145
vt 0.922035 0.855252
vt 0.923008 0.841800
vt 0.943224 0.841722
vt 0.903361 0.856126
vt 0.905046 0.840850
vt 0.888093 0.856658
vt 0.888523 0.840075
vt 0.963071 0.856086
vt 0.960903 0.841203
vt 0.922822 0.825846
vt 0.943299 0.824476
vt 0.905128 0.827444
vt 0.889234 0.826507
vt 0.962237 0.827944
vt 0.925145 0.374149
vt 0.945658 0.373870
vt 0.947549 0.388772
vt 0.923830 0.389170
vt 0.964020 0.371789
vt 0.968622 0.389034
vt 0.890600 0.373413
vt 0.906897 0.372891
vt 0.905861 0.389956
vt 0.891070 0.390625
vt 0.925099 0.356093
vt 0.945158 0.355806
vt 0.963495 0.356409
vt 0.889577 0.358630
vt 0.906432 0.357381
vt 0.923837 0.340457
vt 0.945981 0.339863
vt 0.965496 0.338799
vt 0.888093 0.340550
vt 0.904191 0.340481
vt 0.924543 0.797917
vt 0.944137 0.799135
vt 0.962866 0.796167
vt 0.891377 0.794377
vt 0.907616 0.794951
vt 0.925846 0.780358
vt 0.943651 0.780654
vt 0.961371 0.779653
vt 0.892034 0.778601
vt 0.908634 0.779265
vt 0.926289 0.763557
vt 0.943502 0.763647
vt 0.960742 0.763219
vt 0.892490 0.762649
vt 0.909218 0.763079
vt 0.926468 0.747082
vt 0.943462 0.747127
vt 0.960422 0.746974
vt 0.892777 0.746603
vt 0.909552 0.746860
vt 0.926575 0.730787
vt 0.943458 0.730828
vt 0.960313 0.730789
vt 0.892948 0.730509
vt 0.909731 0.730662
vt 0.926650 0.714573
vt 0.943482 0.714618
vt 0.960294 0.714631
vt 0.893056 0.714391
vt 0.909840 0.714491
vt 0.926712 0.698398
vt 0.943518 0.698446
vt 0.960317 0.698479
vt 0.893130 0.698259
vt 0.909914 0.698332
vt 0.926766 0.682239
vt 0.943561 0.682288
vt 0.960353 0.682330
vt 0.893190 0.682121
vt 0.909975 0.682181
vt 0.926817 0.666087
vt 0.943607 0.666137
vt 0.960396 0.666183
vt 0.893245 0.665978
vt 0.910029 0.666034
vt 0.926867 0.649939
vt 0.943654 0.649989
vt 0.960441 0.650037
vt 0.893295 0.649836
vt 0.910080 0.649887
vt 0.926915 0.633792
vt 0.943702 0.633843
vt 0.960488 0.633892
vt 0.893344 0.633691
vt 0.910129 0.633742
vt 0.926964 0.617647
vt 0.943750 0.617697
vt 0.960536 0.617747
vt 0.893392 0.617546
vt 0.910178 0.617596
vt 0.927012 0.601501
vt 0.943799 0.601551
vt 0.960585 0.601602
vt 0.893440 0.601401
vt 0.910226 0.601451
vt 0.927061 0.585355
vt 0.943847 0.585405
vt 0.960634 0.585456
vt 0.893488 0.585255
vt 0.910274 0.585305
vt 0.927109 0.569208
vt 0.943896 0.569259
vt 0.960684 0.569310
vt 0.893535 0.569109
vt 0.910322 0.569158
vt 0.927157 0.553061
vt 0.943946 0.553111
vt 0.960734 0.553164
vt 0.893582 0.552963
vt 0.910369 0.553011
vt 0.927204 0.536911
vt 0.943996 0.536962
vt 0.960786 0.537017
vt 0.893628 0.536818
vt 0.910414 0.536864
vt 0.927250 0.520758
vt 0.944047 0.520809
vt 0.960841 0.520867
vt 0.893671 0.520674
vt 0.910457 0.520714
vt 0.927293 0.504596
vt 0.944099 0.504647
vt 0.960905 0.504717
vt 0.893708 0.504533
vt 0.910492 0.504563
vt 0.927327 0.488418
vt 0.944157 0.488472
vt 0.960982 0.488557
vt 0.893732 0.488399
vt 0.910514 0.488404
vt 0.927345 0.472209
vt 0.944225 0.472263
vt 0.961084 0.472385
vt 0.893731 0.472281
vt 0.910504 0.472235
vt 0.927325 0.455929
vt 0.944320 0.455986
vt 0.961242 0.456194
vt 0.893671 0.456198
vt 0.910427 0.456041
vt 0.927246 0.439466
vt 0.944460 0.439523
vt 0.961596 0.439978
vt 0.893487 0.440189
vt 0.910174 0.439826
vt 0.926944 0.422672
vt 0.944767 0.422687
vt 0.962203 0.423629
vt 0.893097 0.424323
vt 0.909615 0.423567
vt 0.925992 0.405035
vt 0.945507 0.404825
vt 0.963480 0.407293
vt 0.892341 0.408644
vt 0.908485 0.407552
vt 0.948480 0.972562
vt 0.931172 0.972196
vt 0.931498 0.955198
vt 0.948866 0.955570
vt 0.913859 0.971892
vt 0.914138 0.954908
vt 0.896560 0.971620
vt 0.896819 0.954663
vt 0.965803 0.972987
vt 0.966219 0.956009
vt 0.931813 0.938115
vt 0.949277 0.938516
vt 0.914384 0.937876
vt 0.897030 0.937707
vt 0.966676 0.939026
vt 0.932095 0.920907
vt 0.949765 0.921322
vt 0.914533 0.920771
vt 0.897162 0.920768
vt 0.967239 0.922035
vt 0.932307 0.903295
vt 0.950406 0.903846
vt 0.914419 0.903575
vt 0.897082 0.903904
vt 0.968202 0.905060
vt 0.932162 0.885047
vt 0.951521 0.885596
vt 0.913859 0.886291
vt 0.896639 0.887190
vt 0.969679 0.887955
vt 0.916359 0.211345
vt 0.932003 0.211852
vt 0.931560 0.226064
vt 0.915886 0.225551
vt 0.947647 0.212321
vt 0.947238 0.226524
vt 0.963293 0.212758
vt 0.962895 0.226955
vt 0.900715 0.210815
vt 0.900236 0.225010
vt 0.931114 0.240310
vt 0.915392 0.239785
vt 0.946840 0.240764
vt 0.962525 0.241153
vt 0.899741 0.239195
vt 0.930666 0.254643
vt 0.914851 0.254068
vt 0.946491 0.255043
vt 0.962193 0.255355
vt 0.899165 0.253363
vt 0.930227 0.269115
vt 0.914207 0.268458
vt 0.946211 0.269429
vt 0.961991 0.269560
vt 0.898440 0.267526
vt 0.929835 0.283906
vt 0.913360 0.283069
vt 0.946084 0.283987
vt 0.962015 0.283781
vt 0.897414 0.281690
vt 0.929530 0.299341
vt 0.912127 0.298327
vt 0.946402 0.298662
vt 0.962330 0.297976
vt 0.895757 0.295893
vt 0.950202 0.975157
vt 0.934282 0.975144
vt 0.934274 0.961229
vt 0.950233 0.961251
vt 0.918359 0.975174
vt 0.918322 0.961264
vt 0.902439 0.975226
vt 0.902390 0.961330
vt 0.966124 0.975207
vt 0.966167 0.961310
vt 0.934264 0.947279
vt 0.950275 0.947303
vt 0.918265 0.947329
vt 0.902328 0.947437
vt 0.966241 0.947412
vt 0.934246 0.933243
vt 0.950351 0.933299
vt 0.918164 0.933357
vt 0.902201 0.933557
vt 0.966383 0.933505
vt 0.934197 0.919080
vt 0.950517 0.919200
vt 0.917988 0.919290
vt 0.901957 0.919677
vt 0.966614 0.919581
vt 0.934103 0.904663
vt 0.950796 0.904801
vt 0.917597 0.905139
vt 0.901564 0.905835
vt 0.967164 0.905641
vt 0.933862 0.889603
vt 0.951483 0.889998
vt 0.916852 0.890825
vt 0.900742 0.892043
vt 0.968086 0.891675
vt 0.934033 0.332754
vt 0.953687 0.332763
vt 0.972044 0.331848
vt 0.897991 0.326073
vt 0.915510 0.330224
vt 0.934764 0.313770
vt 0.953427 0.315063
vt 0.972425 0.315540
vt 0.901860 0.309703
vt 0.918548 0.311926
vt 0.937217 0.296754
vt 0.954986 0.298847
vt 0.972834 0.300021
vt 0.902529 0.293800
vt 0.919969 0.294840
vt 0.938887 0.280207
vt 0.956504 0.281905
vt 0.974180 0.283399
vt 0.903827 0.277111
vt 0.921379 0.278527
vt 0.940422 0.263591
vt 0.958021 0.265208
vt 0.975641 0.266770
vt 0.905237 0.260459
vt 0.922842 0.261992
vt 0.941929 0.246967
vt 0.959522 0.248567
vt 0.977126 0.250139
vt 0.906709 0.243818
vt 0.924323 0.245375
vt 0.926901 0.871325
vt 0.908871 0.870149
vt 0.891356 0.868947
vt 0.961083 0.873143
vt 0.944288 0.872203
vt 0.926295 0.885922
vt 0.907670 0.884876
vt 0.890074 0.882590
vt 0.960345 0.886565
vt 0.943833 0.885757
vt 0.926283 0.899317
vt 0.906115 0.898209
vt 0.887151 0.897303
vt 0.959541 0.901382
vt 0.943806 0.900394
vt 0.924771 0.912844
vt 0.906320 0.911871
vt 0.888623 0.912505
vt 0.958435 0.916394
vt 0.941988 0.915096
vt 0.923609 0.927400
vt 0.906079 0.926621
vt 0.888717 0.926527
vt 0.957494 0.929967
vt 0.940797 0.928791
vt 0.922813 0.941595
vt 0.905629 0.940882
vt 0.888546 0.940458
vt 0.956644 0.943662
vt 0.939828 0.942628
vt 0.922121 0.955597
vt 0.905120 0.954878
vt 0.888164 0.954320
vt 0.955852 0.957416
vt 0.939034 0.956475
vt 0.921472 0.969460
vt 0.904592 0.968751
vt 0.887690 0.968173
vt 0.955116 0.971191
vt 0.938310 0.970292
vt 0.933478 0.345527
vt 0.953040 0.345647
vt 0.970985 0.343646
vt 0.898789 0.341122
vt 0.915447 0.342955
vt 0.934532 0.328550
vt 0.952491 0.328887
vt 0.970047 0.328166
vt 0.900084 0.326047
vt 0.916894 0.327313
vt 0.935104 0.312486
vt 0.952511 0.312796
vt 0.969673 0.312711
vt 0.900936 0.310855
vt 0.917875 0.311741
vt 0.935579 0.296785
vt 0.952703 0.297161
vt 0.969708 0.297335
vt 0.901607 0.295566
vt 0.918503 0.296218
vt 0.935997 0.281282
vt 0.952995 0.281670
vt 0.969930 0.281974
vt 0.902115 0.280246
vt 0.919019 0.280786
vt 0.936396 0.265861
vt 0.953330 0.266261
vt 0.970235 0.266620
vt 0.902571 0.264902
vt 0.919471 0.265396
vt 0.936787 0.250492
vt 0.953679 0.250892
vt 0.970575 0.251263
vt 0.903010 0.249551
vt 0.919900 0.250034
vt 0.924746 0.324962
vt 0.943928 0.324371
vt 0.961497 0.321642
vt 0.889334 0.322306
vt 0.906439 0.323530
vt 0.924900 0.308233
vt 0.942768 0.307723
vt 0.959889 0.306476
vt 0.890159 0.307035
vt 0.907299 0.307764
vt 0.924861 0.292233
vt 0.942151 0.291960
vt 0.959093 0.291310
vt 0.890663 0.291794
vt 0.907627 0.292123
vt 0.924773 0.276662
vt 0.941822 0.276459
vt 0.958674 0.276115
vt 0.890833 0.276557
vt 0.907749 0.276677
vt 0.924681 0.261266
vt 0.941608 0.261109
vt 0.958460 0.260896
vt 0.890876 0.261302
vt 0.907756 0.261316
vt 0.924587 0.245939
vt 0.941460 0.245813
vt 0.958305 0.245654
vt 0.890867 0.246058
vt 0.907713 0.246017
vt 0.924496 0.230662
vt 0.941342 0.230544
vt 0.958173 0.230411
vt 0.890813 0.230811
vt 0.907651 0.230746
vt 0.924408 0.215406
vt 0.941232 0.215296
vt 0.958057 0.215168
vt 0.890749 0.215562
vt 0.907580 0.215491
vt 0.944789 0.970100
vt 0.928571 0.970805
vt 0.927861 0.954727
vt 0.944107 0.954032
vt 0.912351 0.971533
vt 0.911616 0.955464
vt 0.896136 0.972284
vt 0.895388 0.956228
vt 0.961004 0.969418
vt 0.960329 0.953360
vt 0.927153 0.938612
vt 0.943439 0.937930
vt 0.910860 0.939369
vt 0.894622 0.940169
vt 0.959682 0.937303
vt 0.926439 0.922419
vt 0.942834 0.921786
vt 0.910065 0.923211
vt 0.893785 0.924112
vt 0.959080 0.921258
vt 0.925730 0.906063
vt 0.942324 0.905495
vt 0.909169 0.906971
vt 0.892807 0.908053
vt 0.958656 0.905217
vt 0.924989 0.889361
vt 0.942037 0.888846
vt 0.908062 0.890585
vt 0.891574 0.891961
vt 0.958602 0.889174
vt 0.923970 0.871814
vt 0.942514 0.871481
vt 0.906611 0.873993
vt 0.889967 0.875782
vt 0.959146 0.873356
vt 0.537368 0.757453
vt 0.537232 0.766020
vt 0.476948 0.765800
vt 0.477023 0.756946
vt 0.536905 0.787116
vt 0.476771 0.792222
vt 0.416135 0.786485
vt 0.416182 0.765030
vt 0.416205 0.756357
vt 0.355355 0.765442
vt 0.355324 0.756529
vt 0.355449 0.792039
vt 0.294672 0.786932
vt 0.294406 0.765489
vt 0.294307 0.756779
vt 0.233002 0.767033
vt 0.232627 0.758009
vt 0.234359 0.793547
vt 0.174920 0.792653
vt 0.163700 0.771617
vt 0.161336 0.761234
vt 0.666979 0.762233
vt 0.664659 0.772320
vt 0.597282 0.767677
vt 0.597671 0.758872
vt 0.653723 0.792746
vt 0.595920 0.793547
vt 0.335315 0.882645
vt 0.335316 0.933069
vt 0.276675 0.920260
vt 0.289484 0.861620
vt 0.314290 0.978900
vt 0.263866 0.978900
vt 0.218035 0.957875
vt 0.218035 0.907451
vt 0.239060 0.861620
vt 0.380532 0.977943
vt 0.359494 0.932131
vt 0.418125 0.919312
vt 0.430944 0.977943
vt 0.359494 0.881719
vt 0.405306 0.860681
vt 0.455717 0.860681
vt 0.476756 0.906493
vt 0.476756 0.956905
vt 0.667438 0.741357
vt 0.667305 0.752211
vt 0.597973 0.750354
vt 0.598129 0.741451
vt 0.537541 0.749150
vt 0.537654 0.740489
vt 0.294222 0.739530
vt 0.294259 0.748332
vt 0.232441 0.749014
vt 0.232422 0.739890
vt 0.160965 0.750496
vt 0.160814 0.739666
vt 0.416332 0.739186
vt 0.416268 0.747953
vt 0.355319 0.747986
vt 0.355312 0.739080
vt 0.477129 0.748462
vt 0.477223 0.739414
vt 0.538200 0.709431
vt 0.537820 0.731012
vt 0.477337 0.729540
vt 0.477698 0.702700
vt 0.416365 0.729585
vt 0.416453 0.707609
vt 0.355284 0.729132
vt 0.355210 0.702103
vt 0.294147 0.729895
vt 0.294004 0.707946
vt 0.232515 0.729844
vt 0.233041 0.702902
vt 0.162756 0.727990
vt 0.173258 0.706028
vt 0.655578 0.708806
vt 0.665607 0.730067
vt 0.598104 0.731652
vt 0.597822 0.705413
vt 0.016333 0.994174
vt 0.000000 0.990622
vt 0.053170 0.743244
vt 0.070084 0.745672
vt 0.070935 0.498545
vt 0.087749 0.498540
vt 0.052971 0.254865
vt 0.070310 0.252348
vt 0.000000 0.009291
vt 0.017249 0.005571
vt 0.023966 0.002572
vt 0.077143 0.251405
vt 0.585343 0.249713
vt 0.335630 0.249713
vt 0.335630 0.000000
vt 0.585343 0.000000
vt 0.036044 0.000000
vt 0.089213 0.249678
vt 0.093929 0.498540
vt 0.076954 0.746626
vt 0.023095 0.997212
vt 0.300586 0.291550
vt 0.553128 0.291550
vt 0.553128 0.544092
vt 0.300586 0.544092
vt 0.106421 0.498474
vt 0.089528 0.748341
vt 0.036090 1.000000
s 0
g svetlo_ve_sklepe_Material.067
usemtl Material.067
f 84/41/17 83/42/17 82/43/17 81/44/17
f 88/45/18 87/46/18 86/47/18 85/48/18
f 92/45/19 91/49/19 90/50/19 89/51/19
f 100/52/20 99/53/20 98/54/20 97/55/20
f 108/56/21 107/57/21 106/58/21 105/59/21
f 112/60/22 111/61/22 110/56/22 109/62/22
f 116/63/23 115/64/23 114/65/23 113/66/23
f 120/67/24 119/68/24 118/69/24 117/70/24
f 785/1001/212 794/1002/212 821/1003/212 812/1004/212
f 794/1002/213 778/1005/213 795/1006/213 821/1003/213
f 821/1003/214 795/1006/214 780/1007/214 806/1008/214
f 812/1004/215 821/1003/215 806/1008/215 786/1009/215
f 786/1009/216 806/1008/216 822/1010/216 811/1011/216
f 806/1008/217 780/1007/217 798/1012/217 822/1010/217
f 822/1010/218 798/1012/218 784/1013/218 807/1014/218
f 811/1011/219 822/1010/219 807/1014/219 787/1015/219
f 787/1015/220 807/1014/220 823/1016/220 810/1017/220
f 807/1014/221 784/1013/221 801/1018/221 823/1016/221
f 823/1016/222 801/1018/222 782/1019/222 808/1020/222
f 810/1017/223 823/1016/223 808/1020/223 788/1021/223
f 788/1022/224 808/1023/224 824/1024/224 809/1025/224
f 808/1023/225 782/1026/225 804/1027/225 824/1024/225
f 824/1024/226 804/1027/226 778/1005/226 794/1002/226
f 809/1025/227 824/1024/227 794/1002/227 785/1001/227
f 779/1028/228 797/1029/228 825/1030/228 793/1031/228
f 797/1029/229 783/1032/229 800/1033/229 825/1030/229
f 825/1030/230 800/1033/230 781/1034/230 803/1035/230
f 793/1031/231 825/1030/231 803/1035/231 777/1036/231
f 784/1037/232 798/1038/232 826/1039/232 801/1040/232
f 798/1038/233 780/1041/233 795/1042/233 826/1039/233
f 826/1039/234 795/1042/234 778/1043/234 804/1044/234
f 801/1040/235 826/1039/235 804/1044/235 782/1045/235
f 791/1046/236 815/1047/236 827/1048/236 820/1049/236
f 815/1047/236 788/1022/236 809/1025/236 827/1048/236
f 827/1048/237 809/1025/237 785/1001/237 805/1050/237
f 820/1049/237 827/1048/237 805/1050/237 792/1051/237
f 790/1052/238 814/1053/238 828/1054/238 819/1055/238
f 814/1053/238 787/1015/238 810/1017/238 828/1054/238
f 828/1054/239 810/1017/239 788/1021/239 815/1056/239
f 819/1055/239 828/1054/239 815/1056/239 791/1057/239
f 789/1058/240 813/1059/240 829/1060/240 818/1061/240
f 813/1059/240 786/1009/240 811/1011/240 829/1060/240
f 829/1060/241 811/1011/241 787/1015/241 814/1053/241
f 818/1061/241 829/1060/241 814/1053/241 790/1052/241
f 792/1051/242 805/1050/242 830/1062/242 817/1063/242
f 805/1050/242 785/1001/242 812/1004/242 830/1062/242
f 830/1062/243 812/1004/243 786/1009/243 813/1059/243
f 817/1063/243 830/1062/243 813/1059/243 789/1058/243
f 777/1064/244 816/1065/244 831/1066/244 793/1067/244
f 816/1065/245 792/1051/245 817/1063/245 831/1066/245
f 831/1066/246 817/1063/246 789/1058/246 796/1068/246
f 793/1067/247 831/1066/247 796/1068/247 779/1069/247
f 779/1069/248 796/1068/248 832/1070/248 797/1071/248
f 796/1068/249 789/1058/249 818/1061/249 832/1070/249
f 832/1070/250 818/1061/250 790/1052/250 799/1072/250
f 797/1071/251 832/1070/251 799/1072/251 783/1073/251
f 783/1073/252 799/1072/252 833/1074/252 800/1075/252
f 799/1072/253 790/1052/253 819/1055/253 833/1074/253
f 833/1074/254 819/1055/254 791/1057/254 802/1076/254
f 800/1075/255 833/1074/255 802/1076/255 781/1077/255
f 781/1078/256 802/1079/256 834/1080/256 803/1081/256
f 802/1079/257 791/1046/257 820/1049/257 834/1080/257
f 834/1080/258 820/1049/258 792/1051/258 816/1065/258
f 803/1081/259 834/1080/259 816/1065/259 777/1064/259
g svetlo_ve_sklepe_Material.066
usemtl Material.066
f 1/1/1 2/2/1 5/3/1 6/4/1
f 2/2/2 3/5/2 8/6/2 5/3/2
f 3/5/3 4/7/3 7/8/3 8/6/3
f 4/9/4 1/1/4 6/4/4 7/10/4
f 21/11/5 22/12/5 25/13/5 26/14/5
f 22/12/6 23/15/6 28/16/6 25/13/6
f 23/15/7 24/17/7 27/18/7 28/16/7
f 24/19/8 21/11/8 26/14/8 27/20/8
f 41/21/9 42/22/9 45/23/9 46/24/9
f 42/22/10 43/25/10 48/26/10 45/23/10
f 43/25/11 44/27/11 47/28/11 48/26/11
f 44/29/12 41/21/12 46/24/12 47/30/12
f 61/31/13 62/32/13 65/33/13 66/34/13
f 62/32/14 63/35/14 68/36/14 65/33/14
f 63/35/15 64/37/15 67/38/15 68/36/15
f 64/39/16 61/31/16 66/34/16 67/40/16
f 13/71/25 14/72/25 122/73/25 121/74/25
f 14/72/26 15/75/26 123/76/26 122/73/26
f 15/75/27 16/77/27 124/78/27 123/76/27
f 16/79/28 13/71/28 121/74/28 124/80/28
f 121/74/29 122/73/29 2/2/29 1/1/29
f 122/73/30 123/76/30 3/5/30 2/2/30
f 123/76/31 124/78/31 4/7/31 3/5/31
f 124/80/32 121/74/32 1/1/32 4/9/32
f 33/81/33 34/82/33 126/83/33 125/84/33
f 34/82/34 35/85/34 127/86/34 126/83/34
f 35/85/35 36/87/35 128/88/35 127/86/35
f 36/89/36 33/81/36 125/84/36 128/90/36
f 125/84/37 126/83/37 130/91/37 129/92/37
f 126/83/38 127/86/38 131/93/38 130/91/38
f 127/86/39 128/88/39 132/94/39 131/93/39
f 128/90/40 125/84/40 129/92/40 132/95/40
f 129/92/37 130/91/37 22/12/37 21/11/37
f 130/91/38 131/93/38 23/15/38 22/12/38
f 131/93/39 132/94/39 24/17/39 23/15/39
f 132/95/40 129/92/40 21/11/40 24/19/40
f 133/96/41 134/97/41 18/98/41 17/99/41
f 134/97/42 135/100/42 19/101/42 18/98/42
f 135/102/43 136/103/43 20/104/43 19/105/43
f 136/103/44 133/96/44 17/99/44 20/104/44
f 137/106/45 138/107/45 134/97/45 133/96/45
f 138/107/46 139/108/46 135/100/46 134/97/46
f 139/109/47 140/110/47 136/103/47 135/102/47
f 140/110/48 137/106/48 133/96/48 136/103/48
f 9/111/49 10/112/49 138/107/49 137/106/49
f 10/112/50 11/113/50 139/108/50 138/107/50
f 11/114/51 12/115/51 140/110/51 139/109/51
f 12/115/52 9/111/52 137/106/52 140/110/52
f 141/116/53 142/117/53 6/4/53 5/3/53
f 142/117/54 143/118/54 7/10/54 6/4/54
f 143/119/55 144/120/55 8/6/55 7/8/55
f 144/120/56 141/116/56 5/3/56 8/6/56
f 145/121/53 146/122/53 142/117/53 141/116/53
f 146/122/54 147/123/54 143/118/54 142/117/54
f 147/124/55 148/125/55 144/120/55 143/119/55
f 148/125/56 145/121/56 141/116/56 144/120/56
f 149/126/53 150/127/53 146/122/53 145/121/53
f 150/127/54 151/128/54 147/123/54 146/122/54
f 151/129/55 152/130/55 148/125/55 147/124/55
f 152/130/56 149/126/56 145/121/56 148/125/56
f 153/131/53 154/132/53 150/127/53 149/126/53
f 154/132/54 155/133/54 151/128/54 150/127/54
f 155/134/55 156/135/55 152/130/55 151/129/55
f 156/135/56 153/131/56 149/126/56 152/130/56
f 157/136/53 158/137/53 154/132/53 153/131/53
f 158/137/54 159/138/54 155/133/54 154/132/54
f 159/139/55 160/140/55 156/135/55 155/134/55
f 160/140/56 157/136/56 153/131/56 156/135/56
f 161/141/53 162/142/53 158/137/53 157/136/53
f 162/142/54 163/143/54 159/138/54 158/137/54
f 163/144/55 164/145/55 160/140/55 159/139/55
f 164/145/56 161/141/56 157/136/56 160/140/56
f 165/146/53 166/147/53 162/142/53 161/141/53
f 166/147/54 167/148/54 163/143/54 162/142/54
f 167/149/55 168/150/55 164/145/55 163/144/55
f 168/150/56 165/146/56 161/141/56 164/145/56
f 169/151/53 170/152/53 166/147/53 165/146/53
f 170/152/54 171/153/54 167/148/54 166/147/54
f 171/154/55 172/155/55 168/150/55 167/149/55
f 172/155/56 169/151/56 165/146/56 168/150/56
f 173/156/53 174/157/53 170/152/53 169/151/53
f 174/157/54 175/158/54 171/153/54 170/152/54
f 175/159/55 176/160/55 172/155/55 171/154/55
f 176/160/56 173/156/56 169/151/56 172/155/56
f 177/161/53 178/162/53 174/157/53 173/156/53
f 178/162/54 179/163/54 175/158/54 174/157/54
f 179/164/55 180/165/55 176/160/55 175/159/55
f 180/165/56 177/161/56 173/156/56 176/160/56
f 181/166/53 182/167/53 178/162/53 177/161/53
f 182/167/54 183/168/54 179/163/54 178/162/54
f 183/169/55 184/170/55 180/165/55 179/164/55
f 184/170/56 181/166/56 177/161/56 180/165/56
f 185/171/53 186/172/53 182/167/53 181/166/53
f 186/172/54 187/173/54 183/168/54 182/167/54
f 187/174/55 188/175/55 184/170/55 183/169/55
f 188/175/56 185/171/56 181/166/56 184/170/56
f 189/176/53 190/177/53 186/172/53 185/171/53
f 190/177/54 191/178/54 187/173/54 186/172/54
f 191/179/55 192/180/55 188/175/55 187/174/55
f 192/180/56 189/176/56 185/171/56 188/175/56
f 193/181/53 194/182/53 190/177/53 189/176/53
f 194/182/54 195/183/54 191/178/54 190/177/54
f 195/184/55 196/185/55 192/180/55 191/179/55
f 196/185/56 193/181/56 189/176/56 192/180/56
f 197/186/53 198/187/53 194/182/53 193/181/53
f 198/187/54 199/188/54 195/183/54 194/182/54
f 199/189/55 200/190/55 196/185/55 195/184/55
f 200/190/56 197/186/56 193/181/56 196/185/56
f 201/191/53 202/192/53 198/187/53 197/186/53
f 202/192/54 203/193/54 199/188/54 198/187/54
f 203/194/55 204/195/55 200/190/55 199/189/55
f 204/195/56 201/191/56 197/186/56 200/190/56
f 205/196/53 206/197/53 202/192/53 201/191/53
f 206/197/54 207/198/54 203/193/54 202/192/54
f 207/199/55 208/200/55 204/195/55 203/194/55
f 208/200/56 205/196/56 201/191/56 204/195/56
f 209/201/53 210/202/53 206/197/53 205/196/53
f 210/202/54 211/203/54 207/198/54 206/197/54
f 211/204/55 212/205/55 208/200/55 207/199/55
f 212/205/56 209/201/56 205/196/56 208/200/56
f 213/206/53 214/207/53 210/202/53 209/201/53
f 214/207/54 215/208/54 211/203/54 210/202/54
f 215/209/55 216/210/55 212/205/55 211/204/55
f 216/210/56 213/206/56 209/201/56 212/205/56
f 217/211/53 218/212/53 214/207/53 213/206/53
f 218/212/54 219/213/54 215/208/54 214/207/54
f 219/214/55 220/215/55 216/210/55 215/209/55
f 220/215/56 217/211/56 213/206/56 216/210/56
f 221/216/53 222/217/53 218/212/53 217/211/53
f 222/217/54 223/218/54 219/213/54 218/212/54
f 223/219/55 224/220/55 220/215/55 219/214/55
f 224/220/56 221/216/56 217/211/56 220/215/56
f 225/221/53 226/222/53 222/217/53 221/216/53
f 226/222/54 227/223/54 223/218/54 222/217/54
f 227/224/55 228/225/55 224/220/55 223/219/55
f 228/225/56 225/221/56 221/216/56 224/220/56
f 229/226/53 230/227/53 226/222/53 225/221/53
f 230/227/54 231/228/54 227/223/54 226/222/54
f 231/229/55 232/230/55 228/225/55 227/224/55
f 232/230/56 229/226/56 225/221/56 228/225/56
f 233/231/53 234/232/53 230/227/53 229/226/53
f 234/232/54 235/233/54 231/228/54 230/227/54
f 235/234/55 236/235/55 232/230/55 231/229/55
f 236/235/56 233/231/56 229/226/56 232/230/56
f 237/236/53 238/237/53 234/232/53 233/231/53
f 238/237/54 239/238/54 235/233/54 234/232/54
f 239/239/55 240/240/55 236/235/55 235/234/55
f 240/240/56 237/236/56 233/231/56 236/235/56
f 17/99/57 18/98/57 238/237/57 237/236/57
f 18/98/58 19/101/58 239/238/58 238/237/58
f 19/105/59 20/104/59 240/240/59 239/239/59
f 20/104/60 17/99/60 237/236/60 240/240/60
f 241/241/61 242/242/61 38/243/61 37/244/61
f 242/242/62 243/245/62 39/246/62 38/243/62
f 243/247/63 244/248/63 40/249/63 39/250/63
f 244/248/64 241/241/64 37/244/64 40/249/64
f 245/251/65 246/252/65 242/242/65 241/241/65
f 246/252/66 247/253/66 243/245/66 242/242/66
f 247/254/67 248/255/67 244/248/67 243/247/67
f 248/255/68 245/251/68 241/241/68 244/248/68
f 29/256/69 30/257/69 246/252/69 245/251/69
f 30/257/70 31/258/70 247/253/70 246/252/70
f 31/259/71 32/260/71 248/255/71 247/254/71
f 32/260/72 29/256/72 245/251/72 248/255/72
f 249/261/53 250/262/53 26/14/53 25/13/53
f 250/262/54 251/263/54 27/20/54 26/14/54
f 251/264/55 252/265/55 28/16/55 27/18/55
f 252/265/56 249/261/56 25/13/56 28/16/56
f 253/266/53 254/267/53 250/262/53 249/261/53
f 254/267/54 255/268/54 251/263/54 250/262/54
f 255/269/55 256/270/55 252/265/55 251/264/55
f 256/270/56 253/266/56 249/261/56 252/265/56
f 257/271/53 258/272/53 254/267/53 253/266/53
f 258/272/54 259/273/54 255/268/54 254/267/54
f 259/274/55 260/275/55 256/270/55 255/269/55
f 260/275/56 257/271/56 253/266/56 256/270/56
f 261/276/53 262/277/53 258/272/53 257/271/53
f 262/277/54 263/278/54 259/273/54 258/272/54
f 263/279/55 264/280/55 260/275/55 259/274/55
f 264/280/56 261/276/56 257/271/56 260/275/56
f 265/281/53 266/282/53 262/277/53 261/276/53
f 266/282/54 267/283/54 263/278/54 262/277/54
f 267/284/55 268/285/55 264/280/55 263/279/55
f 268/285/56 265/281/56 261/276/56 264/280/56
f 269/286/53 270/287/53 266/282/53 265/281/53
f 270/287/54 271/288/54 267/283/54 266/282/54
f 271/289/55 272/290/55 268/285/55 267/284/55
f 272/290/56 269/286/56 265/281/56 268/285/56
f 273/291/53 274/292/53 270/287/53 269/286/53
f 274/292/54 275/293/54 271/288/54 270/287/54
f 275/294/55 276/295/55 272/290/55 271/289/55
f 276/295/56 273/291/56 269/286/56 272/290/56
f 277/296/53 278/297/53 274/292/53 273/291/53
f 278/297/54 279/298/54 275/293/54 274/292/54
f 279/299/55 280/300/55 276/295/55 275/294/55
f 280/300/56 277/296/56 273/291/56 276/295/56
f 281/301/53 282/302/53 278/297/53 277/296/53
f 282/302/54 283/303/54 279/298/54 278/297/54
f 283/304/55 284/305/55 280/300/55 279/299/55
f 284/305/56 281/301/56 277/296/56 280/300/56
f 285/306/53 286/307/53 282/302/53 281/301/53
f 286/307/54 287/308/54 283/303/54 282/302/54
f 287/309/55 288/310/55 284/305/55 283/304/55
f 288/310/56 285/306/56 281/301/56 284/305/56
f 289/311/53 290/312/53 286/307/53 285/306/53
f 290/312/54 291/313/54 287/308/54 286/307/54
f 291/314/55 292/315/55 288/310/55 287/309/55
f 292/315/56 289/311/56 285/306/56 288/310/56
f 293/316/53 294/317/53 290/312/53 289/311/53
f 294/317/54 295/318/54 291/313/54 290/312/54
f 295/319/55 296/320/55 292/315/55 291/314/55
f 296/320/56 293/316/56 289/311/56 292/315/56
f 297/321/53 298/322/53 294/317/53 293/316/53
f 298/322/54 299/323/54 295/318/54 294/317/54
f 299/324/55 300/325/55 296/320/55 295/319/55
f 300/325/56 297/321/56 293/316/56 296/320/56
f 301/326/53 302/327/53 298/322/53 297/321/53
f 302/327/54 303/328/54 299/323/54 298/322/54
f 303/329/55 304/330/55 300/325/55 299/324/55
f 304/330/56 301/326/56 297/321/56 300/325/56
f 305/331/53 306/332/53 302/327/53 301/326/53
f 306/332/54 307/333/54 303/328/54 302/327/54
f 307/334/55 308/335/55 304/330/55 303/329/55
f 308/335/56 305/331/56 301/326/56 304/330/56
f 309/336/53 310/337/53 306/332/53 305/331/53
f 310/337/54 311/338/54 307/333/54 306/332/54
f 311/339/55 312/340/55 308/335/55 307/334/55
f 312/340/56 309/336/56 305/331/56 308/335/56
f 313/341/53 314/342/53 310/337/53 309/336/53
f 314/342/54 315/343/54 311/338/54 310/337/54
f 315/344/55 316/345/55 312/340/55 311/339/55
f 316/345/56 313/341/56 309/336/56 312/340/56
f 317/346/53 318/347/53 314/342/53 313/341/53
f 318/347/54 319/348/54 315/343/54 314/342/54
f 319/349/55 320/350/55 316/345/55 315/344/55
f 320/350/56 317/346/56 313/341/56 316/345/56
f 321/351/53 322/352/53 318/347/53 317/346/53
f 322/352/54 323/353/54 319/348/54 318/347/54
f 323/354/55 324/355/55 320/350/55 319/349/55
f 324/355/56 321/351/56 317/346/56 320/350/56
f 325/356/53 326/357/53 322/352/53 321/351/53
f 326/357/54 327/358/54 323/353/54 322/352/54
f 327/359/55 328/360/55 324/355/55 323/354/55
f 328/360/56 325/356/56 321/351/56 324/355/56
f 329/361/53 330/362/53 326/357/53 325/356/53
f 330/362/54 331/363/54 327/358/54 326/357/54
f 331/364/55 332/365/55 328/360/55 327/359/55
f 332/365/56 329/361/56 325/356/56 328/360/56
f 333/366/53 334/367/53 330/362/53 329/361/53
f 334/367/54 335/368/54 331/363/54 330/362/54
f 335/369/55 336/370/55 332/365/55 331/364/55
f 336/370/56 333/366/56 329/361/56 332/365/56
f 337/371/53 338/372/53 334/367/53 333/366/53
f 338/372/54 339/373/54 335/368/54 334/367/54
f 339/374/55 340/375/55 336/370/55 335/369/55
f 340/375/56 337/371/56 333/366/56 336/370/56
f 341/376/53 342/377/53 338/372/53 337/371/53
f 342/377/54 343/378/54 339/373/54 338/372/54
f 343/379/55 344/380/55 340/375/55 339/374/55
f 344/380/56 341/376/56 337/371/56 340/375/56
f 345/381/53 346/382/53 342/377/53 341/376/53
f 346/382/54 347/383/54 343/378/54 342/377/54
f 347/384/55 348/385/55 344/380/55 343/379/55
f 348/385/56 345/381/56 341/376/56 344/380/56
f 349/386/53 350/387/53 346/382/53 345/381/53
f 350/387/54 351/388/54 347/383/54 346/382/54
f 351/389/55 352/390/55 348/385/55 347/384/55
f 352/390/56 349/386/56 345/381/56 348/385/56
f 353/391/53 354/392/53 350/387/53 349/386/53
f 354/392/54 355/393/54 351/388/54 350/387/54
f 355/394/55 356/395/55 352/390/55 351/389/55
f 356/395/56 353/391/56 349/386/56 352/390/56
f 357/396/53 358/397/53 354/392/53 353/391/53
f 358/397/54 359/398/54 355/393/54 354/392/54
f 359/399/55 360/400/55 356/395/55 355/394/55
f 360/400/56 357/396/56 353/391/56 356/395/56
f 361/401/53 362/402/53 358/397/53 357/396/53
f 362/402/54 363/403/54 359/398/54 358/397/54
f 363/404/55 364/405/55 360/400/55 359/399/55
f 364/405/56 361/401/56 357/396/56 360/400/56
f 37/244/73 38/243/73 362/402/73 361/401/73
f 38/243/74 39/246/74 363/403/74 362/402/74
f 39/250/75 40/249/75 364/405/75 363/404/75
f 40/249/76 37/244/76 361/401/76 364/405/76
f 53/406/77 54/407/77 366/408/77 365/409/77
f 54/407/78 55/410/78 367/411/78 366/408/78
f 55/410/79 56/412/79 368/413/79 367/411/79
f 56/414/80 53/406/80 365/409/80 368/415/80
f 365/409/81 366/408/81 42/22/81 41/21/81
f 366/408/82 367/411/82 43/25/82 42/22/82
f 367/411/83 368/413/83 44/27/83 43/25/83
f 368/415/84 365/409/84 41/21/84 44/29/84
f 369/416/85 370/417/85 58/418/85 57/419/85
f 370/417/86 371/420/86 59/421/86 58/418/86
f 371/422/87 372/423/87 60/424/87 59/425/87
f 372/423/88 369/416/88 57/419/88 60/424/88
f 49/426/89 50/427/89 370/417/89 369/416/89
f 50/427/90 51/428/90 371/420/90 370/417/90
f 51/429/91 52/430/91 372/423/91 371/422/91
f 52/430/92 49/426/92 369/416/92 372/423/92
f 373/431/53 374/432/53 46/24/53 45/23/53
f 374/432/54 375/433/54 47/30/54 46/24/54
f 375/434/55 376/435/55 48/26/55 47/28/55
f 376/435/56 373/431/56 45/23/56 48/26/56
f 377/436/53 378/437/53 374/432/53 373/431/53
f 378/437/54 379/438/54 375/433/54 374/432/54
f 379/439/55 380/440/55 376/435/55 375/434/55
f 380/440/56 377/436/56 373/431/56 376/435/56
f 381/441/53 382/442/53 378/437/53 377/436/53
f 382/442/54 383/443/54 379/438/54 378/437/54
f 383/444/55 384/445/55 380/440/55 379/439/55
f 384/445/56 381/441/56 377/436/56 380/440/56
f 385/446/53 386/447/53 382/442/53 381/441/53
f 386/447/54 387/448/54 383/443/54 382/442/54
f 387/449/55 388/450/55 384/445/55 383/444/55
f 388/450/56 385/446/56 381/441/56 384/445/56
f 389/451/53 390/452/53 386/447/53 385/446/53
f 390/452/54 391/453/54 387/448/54 386/447/54
f 391/454/55 392/455/55 388/450/55 387/449/55
f 392/455/56 389/451/56 385/446/56 388/450/56
f 393/456/53 394/457/53 390/452/53 389/451/53
f 394/457/54 395/458/54 391/453/54 390/452/54
f 395/459/55 396/460/55 392/455/55 391/454/55
f 396/460/56 393/456/56 389/451/56 392/455/56
f 397/461/53 398/462/53 394/457/53 393/456/53
f 398/462/54 399/463/54 395/458/54 394/457/54
f 399/464/55 400/465/55 396/460/55 395/459/55
f 400/465/56 397/461/56 393/456/56 396/460/56
f 401/466/53 402/467/53 398/462/53 397/461/53
f 402/467/54 403/468/54 399/463/54 398/462/54
f 403/469/55 404/470/55 400/465/55 399/464/55
f 404/470/56 401/466/56 397/461/56 400/465/56
f 405/471/53 406/472/53 402/467/53 401/466/53
f 406/472/54 407/473/54 403/468/54 402/467/54
f 407/474/55 408/475/55 404/470/55 403/469/55
f 408/475/56 405/471/56 401/466/56 404/470/56
f 409/476/53 410/477/53 406/472/53 405/471/53
f 410/477/54 411/478/54 407/473/54 406/472/54
f 411/479/55 412/480/55 408/475/55 407/474/55
f 412/480/56 409/476/56 405/471/56 408/475/56
f 413/481/53 414/482/53 410/477/53 409/476/53
f 414/482/54 415/483/54 411/478/54 410/477/54
f 415/484/55 416/485/55 412/480/55 411/479/55
f 416/485/56 413/481/56 409/476/56 412/480/56
f 417/486/53 418/487/53 414/482/53 413/481/53
f 418/487/54 419/488/54 415/483/54 414/482/54
f 419/489/55 420/490/55 416/485/55 415/484/55
f 420/490/56 417/486/56 413/481/56 416/485/56
f 421/491/53 422/492/53 418/487/53 417/486/53
f 422/492/54 423/493/54 419/488/54 418/487/54
f 423/494/55 424/495/55 420/490/55 419/489/55
f 424/495/56 421/491/56 417/486/56 420/490/56
f 425/496/53 426/497/53 422/492/53 421/491/53
f 426/497/54 427/498/54 423/493/54 422/492/54
f 427/499/55 428/500/55 424/495/55 423/494/55
f 428/500/56 425/496/56 421/491/56 424/495/56
f 429/501/53 430/502/53 426/497/53 425/496/53
f 430/502/54 431/503/54 427/498/54 426/497/54
f 431/504/55 432/505/55 428/500/55 427/499/55
f 432/505/56 429/501/56 425/496/56 428/500/56
f 433/506/53 434/507/53 430/502/53 429/501/53
f 434/507/54 435/508/54 431/503/54 430/502/54
f 435/509/55 436/510/55 432/505/55 431/504/55
f 436/510/56 433/506/56 429/501/56 432/505/56
f 437/511/53 438/512/53 434/507/53 433/506/53
f 438/512/54 439/513/54 435/508/54 434/507/54
f 439/514/55 440/515/55 436/510/55 435/509/55
f 440/515/56 437/511/56 433/506/56 436/510/56
f 441/516/53 442/517/53 438/512/53 437/511/53
f 442/517/54 443/518/54 439/513/54 438/512/54
f 443/519/55 444/520/55 440/515/55 439/514/55
f 444/520/56 441/516/56 437/511/56 440/515/56
f 445/521/53 446/522/53 442/517/53 441/516/53
f 446/522/54 447/523/54 443/518/54 442/517/54
f 447/524/55 448/525/55 444/520/55 443/519/55
f 448/525/56 445/521/56 441/516/56 444/520/56
f 449/526/53 450/527/53 446/522/53 445/521/53
f 450/527/54 451/528/54 447/523/54 446/522/54
f 451/529/55 452/530/55 448/525/55 447/524/55
f 452/530/56 449/526/56 445/521/56 448/525/56
f 453/531/53 454/532/53 450/527/53 449/526/53
f 454/532/54 455/533/54 451/528/54 450/527/54
f 455/534/55 456/535/55 452/530/55 451/529/55
f 456/535/56 453/531/56 449/526/56 452/530/56
f 457/536/53 458/537/53 454/532/53 453/531/53
f 458/537/54 459/538/54 455/533/54 454/532/54
f 459/539/55 460/540/55 456/535/55 455/534/55
f 460/540/56 457/536/56 453/531/56 456/535/56
f 461/541/53 462/542/53 458/537/53 457/536/53
f 462/542/54 463/543/54 459/538/54 458/537/54
f 463/544/55 464/545/55 460/540/55 459/539/55
f 464/545/56 461/541/56 457/536/56 460/540/56
f 465/546/53 466/547/53 462/542/53 461/541/53
f 466/547/54 467/548/54 463/543/54 462/542/54
f 467/549/55 468/550/55 464/545/55 463/544/55
f 468/550/56 465/546/56 461/541/56 464/545/56
f 469/551/53 470/552/53 466/547/53 465/546/53
f 470/552/54 471/553/54 467/548/54 466/547/54
f 471/554/55 472/555/55 468/550/55 467/549/55
f 472/555/56 469/551/56 465/546/56 468/550/56
f 473/556/53 474/557/53 470/552/53 469/551/53
f 474/557/54 475/558/54 471/553/54 470/552/54
f 475/559/55 476/560/55 472/555/55 471/554/55
f 476/560/56 473/556/56 469/551/56 472/555/56
f 57/419/93 58/418/93 474/557/93 473/556/93
f 58/418/94 59/421/94 475/558/94 474/557/94
f 59/425/95 60/424/95 476/560/95 475/559/95
f 60/424/96 57/419/96 473/556/96 476/560/96
f 73/561/97 74/562/97 478/563/97 477/564/97
f 74/562/98 75/565/98 479/566/98 478/563/98
f 75/565/99 76/567/99 480/568/99 479/566/99
f 76/569/100 73/561/100 477/564/100 480/570/100
f 477/564/101 478/563/101 482/571/101 481/572/101
f 478/563/102 479/566/102 483/573/102 482/571/102
f 479/566/103 480/568/103 484/574/103 483/573/103
f 480/570/104 477/564/104 481/572/104 484/575/104
f 481/572/101 482/571/101 62/32/101 61/31/101
f 482/571/102 483/573/102 63/35/102 62/32/102
f 483/573/103 484/574/103 64/37/103 63/35/103
f 484/575/104 481/572/104 61/31/104 64/39/104
f 485/576/105 486/577/105 78/578/105 77/579/105
f 486/577/106 487/580/106 79/581/106 78/578/106
f 487/582/107 488/583/107 80/584/107 79/585/107
f 488/583/108 485/576/108 77/579/108 80/584/108
f 489/586/109 490/587/109 486/577/109 485/576/109
f 490/587/110 491/588/110 487/580/110 486/577/110
f 491/589/111 492/590/111 488/583/111 487/582/111
f 492/590/112 489/586/112 485/576/112 488/583/112
f 69/591/113 70/592/113 490/587/113 489/586/113
f 70/592/114 71/593/114 491/588/114 490/587/114
f 71/594/115 72/595/115 492/590/115 491/589/115
f 72/595/116 69/591/116 489/586/116 492/590/116
f 493/596/117 494/597/117 66/34/117 65/33/117
f 494/597/118 495/598/118 67/40/118 66/34/118
f 495/599/119 496/600/119 68/36/119 67/38/119
f 496/600/120 493/596/120 65/33/120 68/36/120
f 497/601/117 498/602/117 494/597/117 493/596/117
f 498/602/118 499/603/118 495/598/118 494/597/118
f 499/604/119 500/605/119 496/600/119 495/599/119
f 500/605/120 497/601/120 493/596/120 496/600/120
f 501/606/117 502/607/117 498/602/117 497/601/117
f 502/607/121 503/608/121 499/603/121 498/602/121
f 503/609/119 504/610/119 500/605/119 499/604/119
f 504/610/122 501/606/122 497/601/122 500/605/122
f 505/611/117 506/612/117 502/607/117 501/606/117
f 506/612/121 507/613/121 503/608/121 502/607/121
f 507/614/119 508/615/119 504/610/119 503/609/119
f 508/615/122 505/611/122 501/606/122 504/610/122
f 509/616/117 510/617/117 506/612/117 505/611/117
f 510/617/118 511/618/118 507/613/118 506/612/118
f 511/619/119 512/620/119 508/615/119 507/614/119
f 512/620/120 509/616/120 505/611/120 508/615/120
f 513/621/117 514/622/117 510/617/117 509/616/117
f 514/622/121 515/623/121 511/618/121 510/617/121
f 515/624/119 516/625/119 512/620/119 511/619/119
f 516/625/122 513/621/122 509/616/122 512/620/122
f 517/626/117 518/627/117 514/622/117 513/621/117
f 518/627/118 519/628/118 515/623/118 514/622/118
f 519/629/119 520/630/119 516/625/119 515/624/119
f 520/630/120 517/626/120 513/621/120 516/625/120
f 521/631/117 522/632/117 518/627/117 517/626/117
f 522/632/121 523/633/121 519/628/121 518/627/121
f 523/634/119 524/635/119 520/630/119 519/629/119
f 524/635/122 521/631/122 517/626/122 520/630/122
f 525/636/117 526/637/117 522/632/117 521/631/117
f 526/637/118 527/638/118 523/633/118 522/632/118
f 527/639/119 528/640/119 524/635/119 523/634/119
f 528/640/120 525/636/120 521/631/120 524/635/120
f 529/641/117 530/642/117 526/637/117 525/636/117
f 530/642/121 531/643/121 527/638/121 526/637/121
f 531/644/119 532/645/119 528/640/119 527/639/119
f 532/645/122 529/641/122 525/636/122 528/640/122
f 533/646/117 534/647/117 530/642/117 529/641/117
f 534/647/118 535/648/118 531/643/118 530/642/118
f 535/649/119 536/650/119 532/645/119 531/644/119
f 536/650/120 533/646/120 529/641/120 532/645/120
f 537/651/117 538/652/117 534/647/117 533/646/117
f 538/652/121 539/653/121 535/648/121 534/647/121
f 539/654/119 540/655/119 536/650/119 535/649/119
f 540/655/122 537/651/122 533/646/122 536/650/122
f 541/656/117 542/657/117 538/652/117 537/651/117
f 542/657/118 543/658/118 539/653/118 538/652/118
f 543/659/119 544/660/119 540/655/119 539/654/119
f 544/660/120 541/656/120 537/651/120 540/655/120
f 545/661/117 546/662/117 542/657/117 541/656/117
f 546/662/121 547/663/121 543/658/121 542/657/121
f 547/664/119 548/665/119 544/660/119 543/659/119
f 548/665/122 545/661/122 541/656/122 544/660/122
f 549/666/117 550/667/117 546/662/117 545/661/117
f 550/667/121 551/668/121 547/663/121 546/662/121
f 551/669/119 552/670/119 548/665/119 547/664/119
f 552/670/122 549/666/122 545/661/122 548/665/122
f 553/671/117 554/672/117 550/667/117 549/666/117
f 554/672/118 555/673/118 551/668/118 550/667/118
f 555/674/119 556/675/119 552/670/119 551/669/119
f 556/675/120 553/671/120 549/666/120 552/670/120
f 557/676/117 558/677/117 554/672/117 553/671/117
f 558/677/118 559/678/118 555/673/118 554/672/118
f 559/679/119 560/680/119 556/675/119 555/674/119
f 560/680/120 557/676/120 553/671/120 556/675/120
f 561/681/117 562/682/117 558/677/117 557/676/117
f 562/682/121 563/683/121 559/678/121 558/677/121
f 563/684/119 564/685/119 560/680/119 559/679/119
f 564/685/122 561/681/122 557/676/122 560/680/122
f 565/686/117 566/687/117 562/682/117 561/681/117
f 566/687/121 567/688/121 563/683/121 562/682/121
f 567/689/119 568/690/119 564/685/119 563/684/119
f 568/690/122 565/686/122 561/681/122 564/685/122
f 569/691/117 570/692/117 566/687/117 565/686/117
f 570/692/121 571/693/121 567/688/121 566/687/121
f 571/694/119 572/695/119 568/690/119 567/689/119
f 572/695/122 569/691/122 565/686/122 568/690/122
f 573/696/117 574/697/117 570/692/117 569/691/117
f 574/697/121 575/698/121 571/693/121 570/692/121
f 575/699/119 576/700/119 572/695/119 571/694/119
f 576/700/122 573/696/122 569/691/122 572/695/122
f 577/701/117 578/702/117 574/697/117 573/696/117
f 578/702/118 579/703/118 575/698/118 574/697/118
f 579/704/119 580/705/119 576/700/119 575/699/119
f 580/705/120 577/701/120 573/696/120 576/700/120
f 581/706/117 582/707/117 578/702/117 577/701/117
f 582/707/121 583/708/121 579/703/121 578/702/121
f 583/709/119 584/710/119 580/705/119 579/704/119
f 584/710/122 581/706/122 577/701/122 580/705/122
f 585/711/117 586/712/117 582/707/117 581/706/117
f 586/712/121 587/713/121 583/708/121 582/707/121
f 587/714/119 588/715/119 584/710/119 583/709/119
f 588/715/122 585/711/122 581/706/122 584/710/122
f 589/716/117 590/717/117 586/712/117 585/711/117
f 590/717/118 591/718/118 587/713/118 586/712/118
f 591/719/119 592/720/119 588/715/119 587/714/119
f 592/720/120 589/716/120 585/711/120 588/715/120
f 77/579/123 78/578/123 590/717/123 589/716/123
f 78/578/124 79/581/124 591/718/124 590/717/124
f 79/585/125 80/584/125 592/720/125 591/719/125
f 80/584/126 77/579/126 589/716/126 592/720/126
f 81/721/127 82/722/127 594/723/127 593/724/127
f 82/722/128 83/725/128 595/726/128 594/723/128
f 83/725/129 84/727/129 596/728/129 595/726/129
f 84/729/130 81/721/130 593/724/130 596/730/130
f 593/724/127 594/723/127 598/731/127 597/732/127
f 594/723/128 595/726/128 599/733/128 598/731/128
f 595/726/129 596/728/129 600/734/129 599/733/129
f 596/730/130 593/724/130 597/732/130 600/735/130
f 597/732/127 598/731/127 602/736/127 601/737/127
f 598/731/128 599/733/128 603/738/128 602/736/128
f 599/733/129 600/734/129 604/739/129 603/738/129
f 600/735/130 597/732/130 601/737/130 604/740/130
f 601/737/127 602/736/127 606/741/127 605/742/127
f 602/736/128 603/738/128 607/743/128 606/741/128
f 603/738/129 604/739/129 608/744/129 607/743/129
f 604/740/130 601/737/130 605/742/130 608/745/130
f 605/742/127 606/741/127 610/746/127 609/747/127
f 606/741/128 607/743/128 611/748/128 610/746/128
f 607/743/129 608/744/129 612/749/129 611/748/129
f 608/745/130 605/742/130 609/747/130 612/750/130
f 609/747/131 610/746/131 14/72/131 13/71/131
f 610/746/132 611/748/132 15/75/132 14/72/132
f 611/748/133 612/749/133 16/77/133 15/75/133
f 612/750/134 609/747/134 13/71/134 16/79/134
f 85/751/135 86/752/135 614/753/135 613/754/135
f 86/752/136 87/755/136 615/756/136 614/753/136
f 87/755/137 88/757/137 616/758/137 615/756/137
f 88/759/138 85/751/138 613/754/138 616/760/138
f 613/754/135 614/753/135 618/761/135 617/762/135
f 614/753/136 615/756/136 619/763/136 618/761/136
f 615/756/137 616/758/137 620/764/137 619/763/137
f 616/760/138 613/754/138 617/762/138 620/765/138
f 617/762/135 618/761/135 622/766/135 621/767/135
f 618/761/136 619/763/136 623/768/136 622/766/136
f 619/763/137 620/764/137 624/769/137 623/768/137
f 620/765/138 617/762/138 621/767/138 624/770/138
f 621/767/135 622/766/135 626/771/135 625/772/135
f 622/766/136 623/768/136 627/773/136 626/771/136
f 623/768/137 624/769/137 628/774/137 627/773/137
f 624/770/138 621/767/138 625/772/138 628/775/138
f 625/772/135 626/771/135 630/776/135 629/777/135
f 626/771/136 627/773/136 631/778/136 630/776/136
f 627/773/137 628/774/137 632/779/137 631/778/137
f 628/775/138 625/772/138 629/777/138 632/780/138
f 629/777/135 630/776/135 634/781/135 633/782/135
f 630/776/136 631/778/136 635/783/136 634/781/136
f 631/778/137 632/779/137 636/784/137 635/783/137
f 632/780/138 629/777/138 633/782/138 636/785/138
f 633/782/139 634/781/139 34/82/139 33/81/139
f 634/781/140 635/783/140 35/85/140 34/82/140
f 635/783/141 636/784/141 36/87/141 35/85/141
f 636/785/142 633/782/142 33/81/142 36/89/142
f 89/786/143 90/787/143 638/788/143 637/789/143
f 90/787/144 91/790/144 639/791/144 638/788/144
f 91/790/145 92/792/145 640/793/145 639/791/145
f 92/794/146 89/786/146 637/789/146 640/795/146
f 637/789/143 638/788/143 642/796/143 641/797/143
f 638/788/144 639/791/144 643/798/144 642/796/144
f 639/791/145 640/793/145 644/799/145 643/798/145
f 640/795/146 637/789/146 641/797/146 644/800/146
f 641/797/143 642/796/143 646/801/143 645/802/143
f 642/796/144 643/798/144 647/803/144 646/801/144
f 643/798/145 644/799/145 648/804/145 647/803/145
f 644/800/146 641/797/146 645/802/146 648/805/146
f 645/802/143 646/801/143 650/806/143 649/807/143
f 646/801/144 647/803/144 651/808/144 650/806/144
f 647/803/145 648/804/145 652/809/145 651/808/145
f 648/805/146 645/802/146 649/807/146 652/810/146
f 649/807/143 650/806/143 654/811/143 653/812/143
f 650/806/144 651/808/144 655/813/144 654/811/144
f 651/808/145 652/809/145 656/814/145 655/813/145
f 652/810/146 649/807/146 653/812/146 656/815/146
f 653/812/143 654/811/143 658/816/143 657/817/143
f 654/811/144 655/813/144 659/818/144 658/816/144
f 655/813/145 656/814/145 660/819/145 659/818/145
f 656/815/146 653/812/146 657/817/146 660/820/146
f 657/817/147 658/816/147 54/407/147 53/406/147
f 658/816/148 659/818/148 55/410/148 54/407/148
f 659/818/149 660/819/149 56/412/149 55/410/149
f 660/820/150 657/817/150 53/406/150 56/414/150
f 661/821/151 662/822/151 10/112/151 9/111/151
f 662/822/152 663/823/152 11/113/152 10/112/152
f 663/824/153 664/825/153 12/115/153 11/114/153
f 664/825/154 661/821/154 9/111/154 12/115/154
f 93/826/155 94/827/155 662/822/155 661/821/155
f 94/827/156 95/828/156 663/823/156 662/822/156
f 95/829/157 96/830/157 664/825/157 663/824/157
f 96/830/158 93/826/158 661/821/158 664/825/158
f 665/831/159 666/832/159 94/827/159 93/826/159
f 666/832/160 667/833/160 95/828/160 94/827/160
f 667/834/161 668/835/161 96/830/161 95/829/161
f 668/835/162 665/831/162 93/826/162 96/830/162
f 669/836/163 670/837/163 666/832/163 665/831/163
f 670/837/164 671/838/164 667/833/164 666/832/164
f 671/839/165 672/840/165 668/835/165 667/834/165
f 672/840/166 669/836/166 665/831/166 668/835/166
f 673/841/163 674/842/163 670/837/163 669/836/163
f 674/842/164 675/843/164 671/838/164 670/837/164
f 675/844/165 676/845/165 672/840/165 671/839/165
f 676/845/166 673/841/166 669/836/166 672/840/166
f 97/846/163 98/847/163 674/842/163 673/841/163
f 98/847/164 99/848/164 675/843/164 674/842/164
f 99/849/165 100/850/165 676/845/165 675/844/165
f 100/850/166 97/846/166 673/841/166 676/845/166
f 677/851/167 678/852/167 30/257/167 29/256/167
f 678/852/168 679/853/168 31/258/168 30/257/168
f 679/854/169 680/855/169 32/260/169 31/259/169
f 680/855/170 677/851/170 29/256/170 32/260/170
f 681/856/171 682/857/171 678/852/171 677/851/171
f 682/857/172 683/858/172 679/853/172 678/852/172
f 683/859/173 684/860/173 680/855/173 679/854/173
f 684/860/174 681/856/174 677/851/174 680/855/174
f 101/861/175 102/862/175 682/857/175 681/856/175
f 102/862/176 103/863/176 683/858/176 682/857/176
f 103/864/177 104/865/177 684/860/177 683/859/177
f 104/865/178 101/861/178 681/856/178 684/860/178
f 685/866/179 686/867/179 102/862/179 101/861/179
f 686/867/180 687/868/180 103/863/180 102/862/180
f 687/869/181 688/870/181 104/865/181 103/864/181
f 688/870/182 685/866/182 101/861/182 104/865/182
f 689/871/183 690/872/183 686/867/183 685/866/183
f 690/872/184 691/873/184 687/868/184 686/867/184
f 691/874/185 692/875/185 688/870/185 687/869/185
f 692/875/186 689/871/186 685/866/186 688/870/186
f 693/876/183 694/877/183 690/872/183 689/871/183
f 694/877/184 695/878/184 691/873/184 690/872/184
f 695/879/185 696/880/185 692/875/185 691/874/185
f 696/880/186 693/876/186 689/871/186 692/875/186
f 697/881/183 698/882/183 694/877/183 693/876/183
f 698/882/184 699/883/184 695/878/184 694/877/184
f 699/884/185 700/885/185 696/880/185 695/879/185
f 700/885/186 697/881/186 693/876/186 696/880/186
f 105/886/183 106/887/183 698/882/183 697/881/183
f 106/887/184 107/888/184 699/883/184 698/882/184
f 107/889/187 108/890/187 700/885/187 699/884/187
f 108/890/186 105/886/186 697/881/186 700/885/186
f 701/891/188 702/892/188 50/427/188 49/426/188
f 702/892/189 703/893/189 51/428/189 50/427/189
f 703/894/190 704/895/190 52/430/190 51/429/190
f 704/895/191 701/891/191 49/426/191 52/430/191
f 705/896/192 706/897/192 702/892/192 701/891/192
f 706/897/193 707/898/193 703/893/193 702/892/193
f 707/899/194 708/900/194 704/895/194 703/894/194
f 708/900/195 705/896/195 701/891/195 704/895/195
f 709/901/192 710/902/192 706/897/192 705/896/192
f 710/902/193 711/903/193 707/898/193 706/897/193
f 711/904/194 712/905/194 708/900/194 707/899/194
f 712/905/195 709/901/195 705/896/195 708/900/195
f 713/906/192 714/907/192 710/902/192 709/901/192
f 714/907/193 715/908/193 711/903/193 710/902/193
f 715/909/194 716/910/194 712/905/194 711/904/194
f 716/910/195 713/906/195 709/901/195 712/905/195
f 717/911/192 718/912/192 714/907/192 713/906/192
f 718/912/193 719/913/193 715/908/193 714/907/193
f 719/914/194 720/915/194 716/910/194 715/909/194
f 720/915/195 717/911/195 713/906/195 716/910/195
f 721/916/192 722/917/192 718/912/192 717/911/192
f 722/917/193 723/918/193 719/913/193 718/912/193
f 723/919/194 724/920/194 720/915/194 719/914/194
f 724/920/195 721/916/195 717/911/195 720/915/195
f 109/921/192 110/922/192 722/917/192 721/916/192
f 110/922/193 111/923/193 723/918/193 722/917/193
f 111/924/194 112/925/194 724/920/194 723/919/194
f 112/925/195 109/921/195 721/916/195 724/920/195
f 725/926/196 726/927/196 70/592/196 69/591/196
f 726/927/197 727/928/197 71/593/197 70/592/197
f 727/929/198 728/930/198 72/595/198 71/594/198
f 728/930/199 725/926/199 69/591/199 72/595/199
f 729/931/200 730/932/200 726/927/200 725/926/200
f 730/932/201 731/933/201 727/928/201 726/927/201
f 731/934/202 732/935/202 728/930/202 727/929/202
f 732/935/203 729/931/203 725/926/203 728/930/203
f 733/936/200 734/937/200 730/932/200 729/931/200
f 734/937/201 735/938/201 731/933/201 730/932/201
f 735/939/202 736/940/202 732/935/202 731/934/202
f 736/940/203 733/936/203 729/931/203 732/935/203
f 737/941/200 738/942/200 734/937/200 733/936/200
f 738/942/201 739/943/201 735/938/201 734/937/201
f 739/944/202 740/945/202 736/940/202 735/939/202
f 740/945/203 737/941/203 733/936/203 736/940/203
f 741/946/200 742/947/200 738/942/200 737/941/200
f 742/947/201 743/948/201 739/943/201 738/942/201
f 743/949/202 744/950/202 740/945/202 739/944/202
f 744/950/203 741/946/203 737/941/203 740/945/203
f 745/951/200 746/952/200 742/947/200 741/946/200
f 746/952/201 747/953/201 743/948/201 742/947/201
f 747/954/202 748/955/202 744/950/202 743/949/202
f 748/955/203 745/951/203 741/946/203 744/950/203
f 749/956/200 750/957/200 746/952/200 745/951/200
f 750/957/201 751/958/201 747/953/201 746/952/201
f 751/959/202 752/960/202 748/955/202 747/954/202
f 752/960/203 749/956/203 745/951/203 748/955/203
f 113/961/200 114/962/200 750/957/200 749/956/200
f 114/962/201 115/963/201 751/958/201 750/957/201
f 115/964/202 116/965/202 752/960/202 751/959/202
f 116/965/203 113/961/203 749/956/203 752/960/203
f 117/966/204 118/967/204 754/968/204 753/969/204
f 118/967/205 119/970/205 755/971/205 754/968/205
f 119/970/206 120/972/206 756/973/206 755/971/206
f 120/974/207 117/966/207 753/969/207 756/975/207
f 753/969/204 754/968/204 758/976/204 757/977/204
f 754/968/205 755/971/205 759/978/205 758/976/205
f 755/971/206 756/973/206 760/979/206 759/978/206
f 756/975/207 753/969/207 757/977/207 760/980/207
f 757/977/204 758/976/204 762/981/204 761/982/204
f 758/976/205 759/978/205 763/983/205 762/981/205
f 759/978/206 760/979/206 764/984/206 763/983/206
f 760/980/207 757/977/207 761/982/207 764/985/207
f 761/982/204 762/981/204 766/986/204 765/987/204
f 762/981/205 763/983/205 767/988/205 766/986/205
f 763/983/206 764/984/206 768/989/206 767/988/206
f 764/985/207 761/982/207 765/987/207 768/990/207
f 765/987/204 766/986/204 770/991/204 769/992/204
f 766/986/205 767/988/205 771/993/205 770/991/205
f 767/988/206 768/989/206 772/994/206 771/993/206
f 768/990/207 765/987/207 769/992/207 772/995/207
f 769/992/204 770/991/204 774/996/204 773/997/204
f 770/991/205 771/993/205 775/998/205 774/996/205
f 771/993/206 772/994/206 776/999/206 775/998/206
f 772/995/207 769/992/207 773/997/207 776/1000/207
f 773/997/208 774/996/208 74/562/208 73/561/208
f 774/996/209 775/998/209 75/565/209 74/562/209
f 775/998/210 776/999/210 76/567/210 75/565/210
f 776/1000/211 773/997/211 73/561/211 76/569/211
f 835/1082/260 836/1083/260 838/1084/260 837/1085/260
f 837/1085/261 838/1084/261 842/1086/261 841/1087/261
f 841/1087/262 842/1086/262 840/1088/262 839/1089/262
f 839/1089/263 840/1088/263 836/1090/263 835/1091/263
f 839/1089/264 835/1091/264 844/1092/264 846/1093/264
f 842/1094/265 838/1095/265 836/1096/265 840/1097/265
f 846/1093/263 844/1092/263 848/1098/263 850/1099/263
f 837/1085/266 841/1087/266 845/1100/266 843/1101/266
f 835/1082/267 837/1085/267 843/1101/267 844/1102/267
f 841/1087/268 839/1089/268 846/1093/268 845/1100/268
f 847/1103/269 849/1104/269 850/1105/269 848/1106/269
f 843/1101/261 845/1100/261 849/1107/261 847/1108/261
f 845/1100/262 846/1093/262 850/1099/262 849/1107/262
f 844/1102/260 843/1101/260 847/1108/260 848/1109/260
