# Blender 4.1.0
# www.blender.org
mtllib svetlejsi dvere.mtl
o dvere_svetlejsi_drevo
v 177.122238 2.219036 -3.555763
v 177.122238 2.308968 -3.555763
v 177.144928 2.241722 -3.524368
v 177.144928 2.286282 -3.524368
v 177.212173 2.219036 -3.555763
v 177.212173 2.308968 -3.555763
v 177.189484 2.241722 -3.524368
v 177.189484 2.286282 -3.524368
v 177.122238 2.308968 -3.524368
v 177.122238 2.219036 -3.524368
v 177.212173 2.219036 -3.524368
v 177.212173 2.308968 -3.524368
v 177.144928 2.286282 -3.424686
v 177.144928 2.241722 -3.424686
v 177.189484 2.241722 -3.424686
v 177.189484 2.286282 -3.424686
v 177.189484 2.286282 -3.465596
v 177.144928 2.286282 -3.465596
v 177.144928 2.241722 -3.465596
v 177.189484 2.241722 -3.465596
v 177.324417 2.286282 -3.424686
v 177.324417 2.241722 -3.424686
v 177.324417 2.286282 -3.465596
v 177.324417 2.241722 -3.465596
v 177.048309 1.128870 -3.544951
v 177.048309 3.310196 -3.544951
v 177.048309 1.128870 -3.629899
v 177.048309 3.310196 -3.629899
v 178.245651 1.128870 -3.544951
v 178.245651 3.310196 -3.544951
v 178.245651 1.128870 -3.629899
v 178.245651 3.310196 -3.629899
v 177.122238 2.219036 -3.619750
v 177.122238 2.308968 -3.619750
v 177.144928 2.241722 -3.651144
v 177.144928 2.286282 -3.651144
v 177.212173 2.219036 -3.619750
v 177.212173 2.308968 -3.619750
v 177.189484 2.241722 -3.651144
v 177.189484 2.286282 -3.651144
v 177.122238 2.308968 -3.651144
v 177.122238 2.219036 -3.651144
v 177.212173 2.219036 -3.651144
v 177.212173 2.308968 -3.651144
v 177.144928 2.286282 -3.750826
v 177.144928 2.241722 -3.750826
v 177.189484 2.241722 -3.750826
v 177.189484 2.286282 -3.750826
v 177.189484 2.286282 -3.709916
v 177.144928 2.286282 -3.709916
v 177.144928 2.241722 -3.709916
v 177.189484 2.241722 -3.709916
v 177.324417 2.286282 -3.750826
v 177.324417 2.241722 -3.750826
v 177.324417 2.286282 -3.709916
v 177.324417 2.241722 -3.709916
vn 1.0000 -0.0000 -0.0000
vn -0.0000 -1.0000 -0.0000
vn -1.0000 -0.0000 -0.0000
vn -0.0000 -0.0000 1.0000
vn -0.0000 1.0000 -0.0000
vn -0.0000 -0.0000 -1.0000
vt 0.087274 0.250000
vt 0.087274 0.500000
vt 0.000000 0.500000
vt 0.000000 0.250000
vt 0.572611 0.000000
vt 0.572611 0.123870
vt 0.458885 0.123870
vt 0.458885 0.000000
vt 0.000000 1.000000
vt 0.000000 0.750000
vt 0.087274 0.750000
vt 0.087274 1.000000
vt 0.958885 0.498968
vt 0.958885 0.748968
vt 0.708885 0.748968
vt 0.708885 0.498968
vt 0.000000 0.000000
vt 0.087274 0.000000
vt 0.521950 0.562033
vt 0.521950 0.685903
vt 0.458885 0.748968
vt 0.458885 0.498968
vt 0.645820 0.685903
vt 0.708885 0.748968
vt 0.645820 0.562033
vt 0.708885 0.498968
vt 0.398079 0.601542
vt 0.398079 0.725412
vt 0.335015 0.788477
vt 0.335015 0.538477
vt 0.211144 0.498968
vt 0.087274 0.498968
vt 0.087274 0.375097
vt 0.211144 0.375097
vt 0.211144 0.612694
vt 0.087274 0.612694
vt 0.324870 0.375097
vt 0.211144 -0.000000
vt 0.324870 -0.000000
vt 0.849716 0.000000
vt 0.849716 0.123870
vt 0.735990 0.123870
vt 0.735990 0.000000
vt 0.335015 0.776073
vt 0.211144 0.776073
vt 0.335015 0.612694
vt 0.458885 0.538477
vt 0.335015 0.538477
vt 0.335015 0.375098
vt 0.458885 0.375098
vt 0.087274 0.776073
vt 0.735990 -0.000000
vt 0.735990 0.123870
vt 0.735990 0.247741
vt 0.735990 0.123870
vt 0.849716 0.247741
vt 0.087274 -0.000000
vt 0.572611 0.498968
vt 0.458885 0.498968
vt 0.335015 0.000000
vt 0.458885 0.000000
vt 0.737193 0.809430
vt 0.737193 0.177230
vt 0.749762 0.177230
vt 0.754139 0.190967
vt 0.628500 0.190805
vt 0.624124 0.857586
vt 0.249753 0.857586
vt 0.254129 0.190805
vt 0.754139 0.368138
vt 0.749762 0.999941
vt 0.737193 0.999941
vt 0.737193 0.986601
vt 0.252540 0.857597
vt 0.252540 0.192193
vt 0.625056 0.192193
vt 0.625056 0.857597
vt 0.749762 0.000059
vt 0.737193 0.000059
s 0
g dvere_svetlejsi_drevo_Material.084
usemtl Material.084
f 1/1/1 2/2/1 9/3/1 10/4/1
f 18/5/2 17/6/2 16/7/2 13/8/2
f 11/9/3 12/10/3 6/11/3 5/12/3
f 5/13/4 6/14/4 2/15/4 1/16/4
f 10/4/5 11/17/5 5/18/5 1/1/5
f 12/10/2 9/3/2 2/2/2 6/11/2
f 4/19/6 3/20/6 10/21/6 9/22/6
f 3/20/6 7/23/6 11/24/6 10/21/6
f 8/25/6 4/19/6 9/22/6 12/26/6
f 7/27/6 8/28/6 12/29/6 11/30/6
f 14/31/6 13/32/6 16/33/6 15/34/6
f 19/35/1 18/36/1 13/32/1 14/31/1
f 20/37/5 15/34/5 22/38/5 24/39/5
f 20/40/5 19/41/5 14/42/5 15/43/5
f 7/44/5 3/45/5 19/35/5 20/46/5
f 8/47/3 7/48/3 20/49/3 17/50/3
f 3/45/1 4/51/1 18/36/1 19/35/1
f 4/52/2 8/53/2 17/6/2 18/5/2
f 23/54/3 24/55/3 22/41/3 21/56/3
f 15/34/6 16/33/6 21/57/6 22/38/6
f 16/7/2 17/6/2 23/58/2 21/59/2
f 17/50/4 20/49/4 24/60/4 23/61/4
f 33/1/3 34/2/3 41/3/3 42/4/3
f 50/5/5 49/6/5 48/7/5 45/8/5
f 43/9/1 44/10/1 38/11/1 37/12/1
f 37/13/4 38/14/4 34/15/4 33/16/4
f 42/4/2 43/17/2 37/18/2 33/1/2
f 44/10/5 41/3/5 34/2/5 38/11/5
f 36/19/6 35/20/6 42/21/6 41/22/6
f 35/20/6 39/23/6 43/24/6 42/21/6
f 40/25/6 36/19/6 41/22/6 44/26/6
f 39/27/6 40/28/6 44/29/6 43/30/6
f 46/31/6 45/32/6 48/33/6 47/34/6
f 51/35/3 50/36/3 45/32/3 46/31/3
f 52/37/2 47/34/2 54/38/2 56/39/2
f 52/40/2 51/41/2 46/42/2 47/43/2
f 39/44/2 35/45/2 51/35/2 52/46/2
f 40/47/1 39/48/1 52/49/1 49/50/1
f 35/45/3 36/51/3 50/36/3 51/35/3
f 36/52/5 40/53/5 49/6/5 50/5/5
f 55/54/1 56/55/1 54/41/1 53/56/1
f 47/34/6 48/33/6 53/57/6 54/38/6
f 48/7/5 49/6/5 55/58/5 53/59/5
f 49/50/4 52/49/4 56/60/4 55/61/4
g dvere_svetlejsi_drevo_Material.074
usemtl Material.074
f 25/62/3 26/63/3 28/64/3 27/65/3
f 27/66/6 28/67/6 32/68/6 31/69/6
f 31/70/1 32/71/1 30/72/1 29/73/1
f 29/74/4 30/75/4 26/76/4 25/77/4
f 27/65/2 31/70/2 29/73/2 25/62/2
f 32/78/5 28/64/5 26/63/5 30/79/5
