# Blender 4.1.0
# www.blender.org
mtllib kanal.mtl
o kanal
v 102.463280 1.175576 -1.329232
v 102.463280 1.175576 -0.709616
v 101.843666 1.175576 -0.709616
v 101.843666 1.175576 -1.329232
v 102.446236 1.115531 -1.312186
v 101.860710 1.115531 -1.312186
v 101.860710 1.115531 -0.726663
v 102.446236 1.115531 -0.726663
v 102.153473 1.115322 -1.422281
v 102.579788 1.175716 -1.019424
v 102.153473 1.187328 -1.019424
v 101.727158 1.175716 -1.019424
v 102.153473 1.175716 -0.593110
v 102.153473 1.175716 -1.445738
v 102.153473 1.097333 -1.019424
v 101.750618 1.115322 -1.019424
v 102.556328 1.115322 -1.019424
v 102.153473 1.115322 -0.616567
v 102.450539 1.145556 -1.316487
v 101.856407 1.145556 -1.316487
v 101.856407 1.145556 -0.722362
v 102.450539 1.145556 -0.722362
v 102.153473 1.145517 -1.428199
v 101.744698 1.145517 -1.019424
v 102.562248 1.145517 -1.019424
v 102.153473 1.145517 -0.610649
vn -0.3462 -0.1809 -0.9205
vn 0.3462 -0.1809 -0.9205
vn 0.9205 -0.1809 -0.3462
vn 0.9205 -0.1809 0.3462
vn 0.3462 -0.1809 0.9205
vn -0.3462 -0.1809 0.9205
vn -0.9205 -0.1809 0.3462
vn -0.0311 -0.9990 -0.0311
vn 0.0190 0.9996 0.0190
vn 0.0190 0.9996 -0.0190
vn -0.0190 0.9996 -0.0190
vn -0.0190 0.9996 0.0190
vn 0.0311 -0.9990 -0.0311
vn -0.0311 -0.9990 0.0311
vn 0.0311 -0.9990 0.0311
vn -0.9205 -0.1809 -0.3462
vn -0.8218 -0.4787 -0.3090
vn -0.8218 -0.4787 0.3090
vn -0.3090 -0.4787 0.8218
vn 0.3090 -0.4787 0.8218
vn 0.8218 -0.4787 0.3090
vn 0.8218 -0.4787 -0.3090
vn 0.3090 -0.4787 -0.8218
vn -0.3090 -0.4787 -0.8218
vt 0.011479 0.288568
vt 0.001833 0.288568
vt 0.001904 0.182852
vt 0.011492 0.182852
vt 0.011492 0.394284
vt 0.001904 0.394284
vt 0.011479 0.500000
vt 0.001833 0.500000
vt 0.011492 0.605716
vt 0.001904 0.605716
vt 0.011479 0.711432
vt 0.001833 0.711432
vt 0.011492 0.817148
vt 0.001904 0.817148
vt 0.011479 0.922864
vt 0.001833 0.922864
vt 0.194605 0.094069
vt 0.194605 0.140372
vt 0.159777 0.170884
vt 0.138784 0.115063
vt 0.108113 0.672992
vt 0.524685 0.516333
vt 0.681344 0.932905
vt 0.335804 0.932905
vt 0.108112 0.327452
vt 0.368026 0.099760
vt 0.713566 0.099760
vt 0.941257 0.359673
vt 0.941257 0.705213
vt 0.113474 0.170884
vt 0.082963 0.136056
vt 0.164093 0.059241
vt 0.117791 0.059241
vt 0.082963 0.089753
vt 0.001833 0.077136
vt 0.011479 0.077136
vt 0.021080 0.182852
vt 0.021125 0.077136
vt 0.021124 0.922864
vt 0.021080 0.817148
vt 0.021125 0.711432
vt 0.021080 0.605716
vt 0.021125 0.500000
vt 0.021080 0.394284
vt 0.021125 0.288568
s 0
usemtl Material.009
f 23/1/1 9/2/1 6/3/1 20/4/1
f 19/5/2 5/6/2 9/2/2 23/1/2
f 25/7/3 17/8/3 5/6/3 19/5/3
f 22/9/4 8/10/4 17/8/4 25/7/4
f 26/11/5 18/12/5 8/10/5 22/9/5
f 21/13/6 7/14/6 18/12/6 26/11/6
f 24/15/7 16/16/7 7/14/7 21/13/7
f 16/17/8 6/18/8 9/19/8 15/20/8
f 10/21/9 11/22/9 13/23/9 2/24/9
f 1/25/10 14/26/10 11/22/10 10/21/10
f 4/27/11 12/28/11 11/22/11 14/26/11
f 12/28/12 3/29/12 13/23/12 11/22/12
f 15/20/13 9/19/13 5/30/13 17/31/13
f 7/32/14 16/17/14 15/20/14 18/33/14
f 17/31/15 8/34/15 18/33/15 15/20/15
f 20/4/16 6/3/16 16/35/16 24/36/16
f 4/37/17 20/4/17 24/36/17 12/38/17
f 12/39/18 24/15/18 21/13/18 3/40/18
f 3/40/19 21/13/19 26/11/19 13/41/19
f 13/41/20 26/11/20 22/9/20 2/42/20
f 2/42/21 22/9/21 25/7/21 10/43/21
f 10/43/22 25/7/22 19/5/22 1/44/22
f 1/44/23 19/5/23 23/1/23 14/45/23
f 14/45/24 23/1/24 20/4/24 4/37/24
