# Blender 4.1.0
# www.blender.org
mtllib maso.mtl
o maso
v 189.731949 2.066950 -3.004075
v 189.725159 2.123149 -3.005227
v 189.741409 2.066950 -3.059899
v 189.734619 2.123149 -3.061051
v 190.314407 2.055196 -2.988101
v 190.346039 2.111072 -2.988101
v 190.291931 2.045020 -3.077028
v 190.323578 2.119290 -3.077028
v 190.016464 1.984929 -3.181526
v 190.016464 2.259238 -3.154492
v 190.016464 2.007014 -2.883683
v 190.016464 2.259028 -2.910531
v 189.736679 2.066950 -3.031987
v 189.729889 2.123149 -3.033139
v 190.303177 2.057090 -3.032564
v 190.334808 2.115181 -3.032564
v 190.016464 2.284627 -3.032563
v 190.016464 1.956266 -3.032563
v 189.728561 2.095050 -3.004651
v 189.738022 2.095050 -3.060475
v 190.307755 2.076049 -3.077028
v 190.330215 2.067832 -2.988101
v 190.016464 2.142408 -2.846421
v 190.016464 2.142408 -3.218705
v 190.318985 2.071940 -3.032564
v 189.733292 2.095050 -3.032563
v 190.105392 2.258150 -3.153405
v 190.105392 2.008101 -2.884770
v 190.105392 1.986017 -3.180438
v 190.105392 2.257941 -2.911619
v 190.105392 2.283540 -3.032563
v 190.105392 1.957353 -3.032563
v 190.105392 2.142408 -2.847508
v 190.105392 2.142408 -3.217618
v 190.225571 2.229138 -3.114594
v 190.225571 2.061338 -2.923581
v 190.225571 2.254527 -3.032563
v 190.225571 2.142408 -3.178807
v 190.225571 2.024827 -3.141628
v 190.225571 2.228928 -2.950429
v 190.225571 1.996164 -3.032563
v 190.225571 2.142408 -2.886319
v 189.920807 1.987255 -3.179199
v 189.920807 2.239577 -2.912857
v 189.920807 2.239786 -3.152166
v 189.920807 2.009340 -2.886009
v 189.920807 1.958592 -3.032563
v 189.920807 2.265175 -3.032563
v 189.920807 2.142408 -3.216379
v 189.920807 2.142408 -2.848747
v 189.829803 2.022970 -3.143485
v 189.829803 2.189249 -2.948572
v 189.829803 1.994307 -3.032563
v 189.829803 2.142408 -2.884461
v 189.829803 2.189459 -3.116452
v 189.829803 2.045054 -2.921723
v 189.829803 2.214848 -3.032563
v 189.829803 2.142408 -3.180664
vn -0.9786 -0.1217 -0.1659
vn 0.7265 0.2313 -0.6471
vn 0.9069 -0.3318 -0.2597
vn -0.7122 0.4399 0.5470
vn 0.4065 -0.8548 0.3227
vn -0.6297 0.7627 0.1479
vn 0.0132 0.9784 0.2062
vn -0.0269 -0.9454 0.3248
vn 0.0137 0.4834 0.8753
vn -0.0729 0.5128 -0.8554
vn -0.0262 -0.9814 -0.1903
vn 0.0132 0.9787 -0.2047
vn -0.6498 0.7349 -0.1944
vn 0.5302 -0.8380 -0.1294
vn -0.9786 -0.1217 -0.1658
vn 0.8132 -0.5608 -0.1552
vn -0.0265 -0.2313 -0.9725
vn 0.0134 -0.2663 0.9638
vn -0.6811 -0.2224 0.6976
vn 0.6410 -0.7378 -0.2117
vn 0.6887 -0.2441 -0.6827
vn 0.0133 -0.2305 -0.9730
vn 0.3533 -0.3059 0.8841
vn 0.0132 -0.9818 -0.1896
vn 0.2637 0.9357 -0.2342
vn 0.3197 0.5077 0.8000
vn 0.2639 0.9353 0.2358
vn 0.0135 -0.9461 0.3237
vn 0.0137 0.4833 -0.8753
vn 0.7493 0.6564 0.0876
vn 0.6616 0.2658 0.7012
vn 0.7700 0.6145 -0.1717
vn 0.5004 -0.3915 0.7722
vn 0.3337 -0.2469 -0.9098
vn 0.3307 -0.9211 -0.2055
vn 0.3837 -0.8417 0.3800
vn 0.3197 0.5075 -0.8001
vn -0.0267 -0.2674 0.9632
vn -0.3951 -0.2401 -0.8867
vn -0.1975 0.9593 -0.2017
vn -0.3917 -0.8981 -0.1999
vn -0.4306 0.5997 -0.6745
vn -0.4005 -0.8524 0.3361
vn -0.1975 0.9590 0.2031
vn -0.0730 0.5130 0.8553
vn -0.5191 -0.8083 0.2779
vn -0.7442 0.4117 -0.5260
vn -0.5900 -0.7865 -0.1825
vn -0.7348 -0.1840 -0.6528
vn -0.3980 -0.2823 0.8729
vn -0.5044 0.8378 -0.2091
vn -0.5044 0.8374 0.2105
vn -0.4305 0.6002 0.6741
vt 0.223460 0.171144
vt 0.223383 0.146126
vt 0.248403 0.146100
vt 0.248343 0.170946
vt 0.677026 0.130027
vt 0.696939 0.047844
vt 0.790280 0.135542
vt 0.784085 0.174547
vt 0.224560 0.963218
vt 0.187110 0.981381
vt 0.170352 0.943418
vt 0.206391 0.930917
vt 0.153501 0.495175
vt 0.094837 0.467034
vt 0.154753 0.359837
vt 0.180750 0.359716
vt 0.846525 0.858904
vt 0.843445 0.939025
vt 0.805445 0.943543
vt 0.744744 0.874427
vt 0.498153 0.482447
vt 0.497191 0.367223
vt 0.521572 0.364166
vt 0.571851 0.471132
vt 0.497871 0.721288
vt 0.497980 0.648015
vt 0.602850 0.645455
vt 0.602850 0.722763
vt 0.853048 0.615620
vt 0.852210 0.690476
vt 0.725514 0.688506
vt 0.728836 0.609498
vt 0.158114 0.716233
vt 0.047945 0.724374
vt 0.044641 0.645295
vt 0.158227 0.645163
vt 0.442746 0.143011
vt 0.429756 0.048916
vt 0.511815 0.029933
vt 0.515661 0.139583
vt 0.972751 0.612945
vt 0.974063 0.691983
vt 0.393209 0.722489
vt 0.393319 0.645268
vt 0.424648 0.471085
vt 0.472826 0.370401
vt 0.938100 0.870861
vt 0.881152 0.926737
vt 0.829469 0.141990
vt 0.823020 0.181179
vt 0.154689 0.333808
vt 0.180718 0.333744
vt 0.206706 0.359759
vt 0.206721 0.333744
vt 0.776911 0.203557
vt 0.817701 0.199171
vt 0.439916 0.267985
vt 0.519599 0.267985
vt 0.272554 0.720769
vt 0.274230 0.644425
vt 0.238448 0.474455
vt 0.241213 0.955865
vt 0.220545 0.923374
vt 0.698093 0.226410
vt 0.223750 0.196154
vt 0.248759 0.195864
vt 0.583850 0.137240
vt 0.592904 0.263707
vt 0.226220 0.831246
vt 0.153139 0.813881
vt 0.971665 0.765192
vt 0.851322 0.760212
vt 0.425302 0.831456
vt 0.497570 0.822043
vt 0.068616 0.835842
vt 0.570550 0.832025
vt 0.725514 0.762050
vt 0.588425 0.030530
vt 0.498184 0.973691
vt 0.538284 0.983115
vt 0.457085 0.964258
vt 0.158783 0.569201
vt 0.270975 0.561714
vt 0.354593 0.239869
vt 0.371669 0.140774
vt 0.396045 0.561266
vt 0.498069 0.567997
vt 0.945236 0.529343
vt 0.852204 0.539745
vt 0.341865 0.085977
vt 0.753580 0.525056
vt 0.600264 0.561407
vt 0.060861 0.559819
vt 0.849476 0.443296
vt 0.825671 0.440822
vt 0.873258 0.445991
s 0
g maso_Material.075
usemtl Material.075
f 26/1/1 14/2/1 4/3/1 20/4/1
f 38/5/2 35/6/2 8/7/2 21/8/2
f 25/9/3 16/10/3 6/11/3 22/12/3
f 54/13/4 52/14/4 2/15/4 19/16/4
f 41/17/5 15/18/5 5/19/5 36/20/5
f 57/21/6 14/22/6 2/23/6 52/24/6
f 31/25/7 17/26/7 12/27/7 30/28/7
f 47/29/8 18/30/8 11/31/8 46/32/8
f 33/33/9 30/34/9 12/35/9 23/36/9
f 49/37/10 45/38/10 10/39/10 24/40/10
f 43/41/11 9/42/11 18/30/11 47/29/11
f 27/43/12 10/44/12 17/26/12 31/25/12
f 55/45/13 4/46/13 14/22/13 57/21/13
f 39/47/14 7/48/14 15/18/14 41/17/14
f 21/8/3 8/7/3 16/49/3 25/50/3
f 19/16/15 2/15/15 14/51/15 26/52/15
f 1/53/1 19/16/1 26/52/1 13/54/1
f 7/55/16 21/8/16 25/50/16 15/56/16
f 43/57/17 49/37/17 24/40/17 9/58/17
f 28/59/18 33/33/18 23/36/18 11/60/18
f 56/61/19 54/13/19 19/16/19 1/53/19
f 15/62/20 25/9/20 22/12/20 5/63/20
f 39/64/21 38/5/21 21/8/21 7/55/21
f 13/65/15 26/1/15 20/4/15 3/66/15
f 9/58/22 24/40/22 34/67/22 29/68/22
f 36/69/23 42/70/23 33/33/23 28/59/23
f 9/42/24 29/71/24 32/72/24 18/30/24
f 35/73/25 27/43/25 31/25/25 37/74/25
f 42/70/26 40/75/26 30/34/26 33/33/26
f 37/74/27 31/25/27 30/28/27 40/76/27
f 18/30/28 32/72/28 28/77/28 11/31/28
f 24/40/29 10/39/29 27/78/29 34/67/29
f 16/79/30 37/74/30 40/76/30 6/80/30
f 22/12/31 6/11/31 40/75/31 42/70/31
f 8/81/32 35/73/32 37/74/32 16/79/32
f 5/63/33 22/12/33 42/70/33 36/69/33
f 29/68/34 34/67/34 38/5/34 39/64/34
f 29/71/35 39/47/35 41/17/35 32/72/35
f 32/72/36 41/17/36 36/20/36 28/77/36
f 34/67/37 27/78/37 35/6/37 38/5/37
f 11/60/38 23/36/38 50/82/38 46/83/38
f 51/84/39 58/85/39 49/37/39 43/57/39
f 10/44/40 45/86/40 48/87/40 17/26/40
f 51/88/41 43/41/41 47/29/41 53/89/41
f 58/85/42 55/90/42 45/38/42 49/37/42
f 53/89/43 47/29/43 46/32/43 56/91/43
f 17/26/44 48/87/44 44/92/44 12/27/44
f 23/36/45 12/35/45 44/93/45 50/82/45
f 13/94/46 53/89/46 56/91/46 1/95/46
f 20/4/47 4/3/47 55/90/47 58/85/47
f 3/96/48 51/88/48 53/89/48 13/94/48
f 3/66/49 20/4/49 58/85/49 51/84/49
f 46/83/50 50/82/50 54/13/50 56/61/50
f 45/86/51 55/45/51 57/21/51 48/87/51
f 48/87/52 57/21/52 52/24/52 44/92/52
f 50/82/53 44/93/53 52/14/53 54/13/53
