# Blender 4.1.0
# www.blender.org
mtllib bordel pod plachtou.mtl
o vec_pod_plachtou_
v 158.379959 1.195783 -2.576121
v 158.379959 1.195783 -4.403383
v 160.207214 1.195783 -2.576121
v 160.207214 1.195783 -4.403383
v 158.574448 1.303188 -2.770605
v 158.574448 1.303188 -4.208899
v 160.012741 1.303188 -4.208899
v 160.012741 1.303188 -2.770605
v 158.740921 1.660178 -2.937089
v 158.740921 1.660178 -4.042416
v 159.846252 1.660178 -4.042416
v 159.846252 1.660178 -2.937089
v 158.896652 2.049904 -3.092818
v 158.823227 1.992443 -3.019388
v 158.896652 2.049904 -3.886686
v 158.823227 1.992443 -3.960117
v 159.690521 2.049904 -3.092818
v 159.763947 1.992443 -3.019388
v 159.690521 2.049904 -3.886686
v 159.763947 1.992443 -3.960117
v 158.092773 1.195783 -2.929339
v 160.353088 1.195783 -3.469748
v 160.012741 1.303188 -3.532706
v 158.574448 1.303188 -3.204051
v 159.846252 1.660178 -3.522762
v 158.740921 1.660178 -3.270191
v 158.896652 2.049904 -3.332059
v 158.823227 1.992443 -3.302887
v 159.690521 2.049904 -3.332059
v 159.763947 1.992443 -3.302887
v 159.664551 1.195783 -4.657196
v 158.942703 1.195783 -2.308711
v 159.017395 1.303188 -2.770605
v 159.017395 1.303188 -4.208899
v 159.081345 1.660178 -2.937089
v 159.081345 1.660178 -4.042416
v 159.141144 2.049904 -3.886686
v 159.112946 1.992443 -3.960117
v 159.141144 2.049904 -3.092818
v 159.112946 1.992443 -3.019388
v 158.788895 1.195783 -3.095772
v 159.141144 2.049904 -3.332059
vn -0.0000 1.0000 -0.0000
vn 0.9707 0.2404 -0.0000
vn -0.9707 0.2404 -0.0000
vn -0.0000 -1.0000 -0.0000
vn -0.0000 0.2404 -0.9707
vn -0.0750 0.9564 0.2822
vn 0.3594 0.9327 0.0317
vn 0.0437 0.9633 -0.2647
vn -0.3064 0.9512 -0.0355
vn -0.0000 0.4227 0.9063
vn 0.9063 0.4227 -0.0000
vn -0.0000 0.4227 -0.9063
vn -0.9063 0.4227 -0.0000
vn -0.6163 0.7875 -0.0000
vn -0.0000 0.7875 -0.6163
vn 0.6163 0.7875 -0.0000
vn -0.0000 0.7875 0.6163
vn -0.0000 0.2404 0.9707
vn -0.2447 0.9655 0.0893
vn 0.3655 0.9302 -0.0331
vn -0.0512 0.9358 -0.3488
vn 0.0361 0.9517 0.3049
vt 0.900727 0.766737
vt 0.900727 0.673919
vt 0.959323 0.673919
vt 0.959323 0.766737
vt 0.373777 0.636706
vt 0.346319 0.559751
vt 0.362739 0.511348
vt 0.412987 0.517644
vt 0.286191 0.270300
vt 0.272382 0.343224
vt 0.181716 0.321445
vt 0.177491 0.244570
vt 0.752358 0.217906
vt 0.763281 0.645128
vt 0.617768 0.561036
vt 0.614812 0.217466
vt 0.226913 0.749034
vt 0.227840 0.675506
vt 0.307921 0.671423
vt 0.332367 0.733136
vt 0.466207 0.239558
vt 0.410534 0.299068
vt 0.376490 0.198906
vt 0.403458 0.140027
vt 0.465933 0.708015
vt 0.420388 0.681701
vt 0.483516 0.521982
vt 0.527505 0.525597
vt 0.309417 0.920029
vt 0.221241 0.831226
vt 0.367102 0.820938
vt 0.387539 0.880567
vt 0.353181 0.079971
vt 0.306679 0.184078
vt 0.161710 0.153895
vt 0.137487 0.099800
vt 0.364326 0.356771
vt 0.335643 0.288974
vt 0.266812 0.362097
vt 0.189920 0.343918
vt 0.230952 0.656637
vt 0.300681 0.653454
vt 0.333720 0.556111
vt 0.348712 0.511769
vt 0.313251 0.413645
vt 0.299443 0.367069
vt 0.307880 0.348887
vt 0.322513 0.399982
vt 0.985973 0.526744
vt 0.925225 0.655196
vt 0.764884 0.766737
vt 0.764884 0.673919
vt 0.764884 0.975299
vt 0.900727 0.975299
vt 0.985973 0.178637
vt 0.747497 0.027778
vt 0.198557 0.659135
vt 0.189402 0.679406
vt 0.161962 0.835331
vt 0.181109 0.752625
vt 0.137487 0.882628
vt 0.678516 0.084477
vt 0.959323 0.975299
s 0
g vec_pod_plachtou__Material.070
usemtl Material.070
f 42/1/1 27/2/1 13/3/1 39/4/1
f 25/5/2 30/6/2 18/7/2 12/8/2
f 26/9/3 28/10/3 16/11/3 10/12/3
f 41/13/4 22/14/4 3/15/4 32/16/4
f 36/17/5 38/18/5 20/19/5 11/20/5
f 32/21/6 33/22/6 5/23/6 1/24/6
f 22/25/7 23/26/7 8/27/7 3/28/7
f 31/29/8 34/30/8 7/31/8 4/32/8
f 21/33/9 24/34/9 6/35/9 2/36/9
f 33/22/10 35/37/10 9/38/10 5/23/10
f 23/26/11 25/5/11 12/8/11 8/27/11
f 34/30/12 36/17/12 11/20/12 7/31/12
f 24/34/13 26/9/13 10/12/13 6/35/13
f 27/39/14 15/40/14 16/11/14 28/10/14
f 37/41/15 19/42/15 20/19/15 38/18/15
f 29/43/16 17/44/16 18/7/16 30/6/16
f 39/45/17 13/46/17 14/47/17 40/48/17
f 35/37/18 40/48/18 14/47/18 9/38/18
f 19/42/16 29/43/16 30/6/16 20/19/16
f 13/46/14 27/39/14 28/10/14 14/47/14
f 5/23/13 9/38/13 26/9/13 24/34/13
f 7/31/11 11/20/11 25/5/11 23/26/11
f 1/24/19 5/23/19 24/34/19 21/33/19
f 4/32/20 7/31/20 23/26/20 22/25/20
f 31/49/4 4/50/4 22/14/4 41/13/4
f 9/38/3 14/47/3 28/10/3 26/9/3
f 11/20/2 20/19/2 30/6/2 25/5/2
f 37/51/1 15/52/1 27/2/1 42/1/1
f 19/53/1 37/51/1 42/1/1 29/54/1
f 2/55/4 31/49/4 41/13/4 21/56/4
f 12/8/18 18/7/18 40/48/18 35/37/18
f 17/44/17 39/45/17 40/48/17 18/7/17
f 15/57/15 37/41/15 38/18/15 16/58/15
f 6/59/12 10/60/12 36/17/12 34/30/12
f 8/27/10 12/8/10 35/37/10 33/22/10
f 2/61/21 6/59/21 34/30/21 31/29/21
f 3/28/22 8/27/22 33/22/22 32/21/22
f 10/60/5 16/58/5 38/18/5 36/17/5
f 21/56/4 41/13/4 32/16/4 1/62/4
f 29/54/1 42/1/1 39/4/1 17/63/1
