# Blender 4.1.0
# www.blender.org
mtllib mys.mtl
o pc_mys
v 129.842865 1.132824 -1.567343
v 129.842865 1.178917 -1.567343
v 129.842865 1.132824 -1.697106
v 129.842865 1.178917 -1.697106
v 129.940292 1.132824 -1.567343
v 129.940292 1.178917 -1.567343
v 129.940292 1.132824 -1.697106
v 129.940292 1.178917 -1.697106
vn -1.0000 -0.0000 -0.0000
vn -0.0000 -0.0000 -1.0000
vn 1.0000 -0.0000 -0.0000
vn -0.0000 -0.0000 1.0000
vn -0.0000 -1.0000 -0.0000
vn -0.0000 1.0000 -0.0000
vt 0.101442 0.785584
vt -0.000000 0.785584
vt 0.000000 0.500000
vt 0.101442 0.500000
vt 0.000000 0.285584
vt 0.101442 0.285584
vt 0.000000 0.000000
vt 0.101442 -0.000000
vt 0.101442 1.000000
vt 0.000000 1.000000
vt 0.101443 0.214416
vt 0.101443 0.000000
vt 0.387026 -0.000000
vt 0.387026 0.214416
vt 0.387026 0.214416
vt 0.387026 0.428833
vt 0.101442 0.428833
vt 0.101443 0.214416
s 0
usemtl Material.035
f 1/1/1 2/2/1 4/3/1 3/4/1
f 3/4/2 4/3/2 8/5/2 7/6/2
f 7/6/3 8/5/3 6/7/3 5/8/3
f 5/9/4 6/10/4 2/2/4 1/1/4
f 3/11/5 7/12/5 5/13/5 1/14/5
f 8/15/6 4/16/6 2/17/6 6/18/6
