# Blender 4.1.0
# www.blender.org
mtllib obraz.mtl
o obraz_1
v 93.684357 1.841892 -1.660137
v 93.684357 2.239232 -1.660137
v 93.647789 1.805325 -1.712777
v 93.647789 2.275799 -1.712777
v 94.081696 1.841892 -1.660137
v 94.081696 2.239232 -1.660137
v 94.118263 1.805325 -1.712777
v 94.118263 2.275799 -1.712777
v 93.647789 1.805325 -1.660137
v 93.647789 2.275799 -1.660137
v 94.118263 2.275799 -1.660137
v 94.118263 1.805325 -1.660137
v 93.684357 1.841892 -1.672180
v 93.684357 2.239232 -1.672180
v 94.081696 2.239232 -1.672180
v 94.081696 1.841892 -1.672180
vn -1.0000 -0.0000 -0.0000
vn -0.0000 -0.0000 -1.0000
vn 1.0000 -0.0000 -0.0000
vn -0.0000 -1.0000 -0.0000
vn -0.0000 1.0000 -0.0000
vn -0.0000 -0.0000 1.0000
vt 0.219562 0.500000
vt 0.219562 0.299423
vt 0.242004 0.299423
vt 0.242004 0.500000
vt 0.694362 0.289228
vt 0.694362 0.050616
vt 0.932975 0.050616
vt 0.932975 0.289228
vt 0.242004 0.700577
vt 0.242004 0.901153
vt 0.219562 0.901153
vt 0.219562 0.700577
vt 0.353980 0.092901
vt 0.353980 0.257588
vt 0.348988 0.257588
vt 0.348988 0.092901
vt 0.242004 0.098847
vt 0.219562 0.098847
vt 0.676336 0.040402
vt 0.676336 0.307254
vt 0.651778 0.331813
vt 0.651778 0.015844
vt 0.943188 0.307254
vt 0.943188 0.040402
vt 0.967747 0.015844
vt 0.967747 0.331812
vt 0.943188 0.307254
vt 0.967747 0.331813
vt 0.984808 0.372029
vt 0.984808 0.983639
vt 0.373198 0.983639
vt 0.373198 0.372029
vt 0.353980 0.586962
vt 0.353980 0.751649
vt 0.348988 0.751649
vt 0.348988 0.586962
vt 0.353980 0.422275
vt 0.348988 0.422275
s 0
usemtl Material.046
f 9/1/1 10/2/1 4/3/1 3/4/1
f 3/5/2 4/6/2 8/7/2 7/8/2
f 7/9/3 8/10/3 11/11/3 12/12/3
f 6/13/4 2/14/4 14/15/4 15/16/4
f 3/4/4 7/9/4 12/12/4 9/1/4
f 8/17/5 4/3/5 10/2/5 11/18/5
f 1/19/6 2/20/6 10/21/6 9/22/6
f 6/23/6 5/24/6 12/25/6 11/26/6
f 5/24/6 1/19/6 9/22/6 12/25/6
f 2/20/6 6/27/6 11/28/6 10/21/6
f 16/29/6 15/30/6 14/31/6 13/32/6
f 5/33/1 6/34/1 15/35/1 16/36/1
f 1/37/5 5/33/5 16/36/5 13/38/5
f 2/14/3 1/37/3 13/38/3 14/15/3
