# Blender 4.1.0
# www.blender.org
mtllib pani eva.mtl
o npc_typecka_2
v 131.136673 1.197088 -2.475405
v 131.217407 1.833947 -2.519276
v 131.137238 1.197088 -2.616913
v 131.217407 1.833947 -2.555042
v 131.396820 1.202498 -2.480891
v 131.303452 1.833947 -2.519276
v 131.396820 1.202498 -2.619304
v 131.303452 1.833947 -2.555042
v 131.135208 1.320534 -2.471518
v 131.155701 1.745819 -2.486073
v 131.155701 1.745819 -2.588245
v 131.135208 1.320534 -2.602800
v 131.369583 1.745819 -2.586216
v 131.385651 1.328034 -2.602800
v 131.369583 1.745819 -2.488101
v 131.385651 1.328034 -2.471518
v 131.260437 1.185077 -2.619304
v 131.260437 1.833947 -2.580001
v 131.260437 1.185077 -2.489168
v 131.260437 1.833947 -2.493003
v 131.260422 1.288466 -2.464344
v 131.260773 1.752895 -2.466865
v 131.260422 1.322586 -2.602800
v 131.260773 1.745819 -2.605309
v 131.110886 0.518418 -2.565893
v 131.101517 0.517400 -2.404301
v 131.170807 0.518418 -2.565893
v 131.180176 0.517400 -2.404301
v 131.421677 0.508076 -2.415964
v 131.411652 0.508076 -2.566320
v 131.350693 0.508076 -2.415964
v 131.360718 0.508076 -2.566320
v 131.178055 1.812564 -2.498389
v 131.178055 1.812564 -2.600437
v 131.260239 1.833947 -2.594400
v 131.340607 1.816824 -2.579878
v 131.340607 1.816824 -2.494440
v 131.260239 1.833947 -2.479918
v 131.220688 1.903074 -2.520638
v 131.220688 1.903074 -2.553680
v 131.260437 1.903074 -2.577051
v 131.300171 1.903074 -2.553680
v 131.300171 1.903074 -2.520638
v 131.260437 1.903074 -2.495953
v 131.198196 1.926975 -2.499141
v 131.203079 1.924699 -2.574753
v 131.260468 1.917696 -2.612333
v 131.320450 1.923496 -2.573770
v 131.311951 1.926341 -2.503561
v 131.260468 1.920435 -2.467276
v 131.182541 2.083294 -2.491726
v 131.175186 2.083294 -2.581912
v 131.260117 2.083294 -2.618026
v 131.338303 2.083294 -2.571082
v 131.335312 2.083294 -2.491726
v 131.260117 2.083294 -2.449462
v 131.193222 2.097867 -2.509454
v 131.193222 2.097867 -2.564864
v 131.259857 2.097867 -2.597155
v 131.326508 2.097867 -2.564864
v 131.326508 2.097867 -2.509454
v 131.259857 2.097867 -2.477163
v 131.119690 0.902165 -2.503913
v 131.183121 0.902165 -2.503913
v 131.183121 0.902165 -2.570405
v 131.119690 0.902165 -2.570405
v 131.404099 0.897131 -2.503907
v 131.404099 0.897131 -2.570411
v 131.340668 0.897131 -2.570411
v 131.340668 0.897131 -2.503907
v 131.120560 0.682795 -2.513394
v 131.165909 0.682795 -2.560924
v 131.165909 0.682795 -2.513394
v 131.120560 0.682795 -2.560924
v 131.408096 0.592594 -2.515432
v 131.366653 0.592594 -2.515432
v 131.408096 0.592594 -2.558886
v 131.366653 0.592594 -2.558886
v 131.122650 0.591603 -2.506630
v 131.161240 0.591603 -2.558405
v 131.161133 0.591603 -2.506630
v 131.122543 0.591603 -2.558405
v 131.405396 0.689469 -2.567545
v 131.359818 0.689469 -2.567545
v 131.405396 0.689469 -2.513263
v 131.359818 0.689469 -2.513263
v 131.418915 0.821342 -2.584702
v 131.335098 0.818811 -2.587960
v 131.408096 0.818811 -2.492187
v 131.338303 0.818811 -2.492187
v 131.185394 0.826117 -2.494409
v 131.099426 0.826117 -2.586119
v 131.103851 0.826117 -2.494409
v 131.191376 0.826117 -2.586119
v 131.150925 1.731300 -2.497964
v 131.132339 1.814398 -2.484700
v 131.132339 1.814398 -2.584861
v 131.142960 1.731300 -2.588363
v 131.090790 1.725416 -2.505977
v 131.107880 1.783004 -2.490901
v 131.107880 1.783004 -2.577092
v 131.083023 1.725416 -2.563304
v 131.118088 1.329531 -2.512906
v 131.115509 1.332496 -2.546697
v 131.073608 1.336403 -2.511617
v 131.073608 1.340064 -2.555451
v 131.391846 1.820759 -2.573119
v 131.391846 1.820759 -2.495535
v 131.374161 1.730633 -2.574164
v 131.374161 1.730633 -2.494491
v 131.420837 1.797011 -2.573015
v 131.420837 1.797011 -2.495639
v 131.444290 1.736337 -2.566321
v 131.444290 1.736337 -2.502333
v 131.398102 1.340080 -2.557100
v 131.398102 1.340080 -2.511554
v 131.444489 1.344073 -2.557100
v 131.444489 1.344073 -2.511554
v 131.443680 1.646998 -2.565275
v 131.375488 1.640650 -2.587141
v 131.443680 1.646998 -2.503379
v 131.375488 1.640650 -2.513495
v 131.152145 1.632910 -2.509726
v 131.144028 1.632910 -2.571436
v 131.087769 1.645651 -2.506946
v 131.084793 1.645651 -2.574026
v 131.169357 1.984594 -2.580097
v 131.260422 1.984594 -2.640100
v 131.348877 1.984594 -2.581804
v 131.342133 1.984594 -2.492514
v 131.171158 1.984594 -2.494221
v 131.260422 1.974827 -2.449569
v 131.224884 2.107016 -2.522426
v 131.224884 2.107016 -2.551892
v 131.260330 2.107016 -2.569064
v 131.295761 2.107016 -2.551892
v 131.295761 2.107016 -2.522426
v 131.260330 2.107016 -2.505254
v 131.120773 1.242710 -2.518269
v 131.118561 1.251233 -2.541524
v 131.081177 1.249996 -2.516903
v 131.081177 1.253879 -2.541649
v 131.072449 1.315054 -2.511905
v 131.125458 1.302636 -2.514234
v 131.120819 1.307993 -2.538477
v 131.072464 1.321671 -2.554297
v 131.395218 1.313657 -2.560699
v 131.395218 1.313657 -2.508792
v 131.444382 1.319888 -2.560699
v 131.444382 1.319888 -2.508792
v 131.410995 1.243886 -2.552851
v 131.410995 1.243886 -2.520440
v 131.447281 1.266382 -2.552851
v 131.447281 1.266382 -2.520440
v 131.103561 0.551569 -2.410909
v 131.167587 0.551569 -2.564178
v 131.179138 0.551569 -2.410909
v 131.115112 0.551569 -2.564178
v 131.420578 0.533220 -2.415137
v 131.349030 0.533220 -2.415137
v 131.411514 0.531786 -2.564818
v 131.358093 0.531786 -2.564818
v 131.405273 1.135764 -2.611911
v 131.296295 1.126417 -2.611911
v 131.405273 1.141244 -2.488691
v 131.296295 1.131897 -2.488691
v 131.234177 1.128020 -2.496874
v 131.128952 1.132521 -2.607605
v 131.128952 1.138968 -2.483234
v 131.234177 1.121574 -2.607605
v 131.166351 1.669733 -2.457469
v 131.157578 1.632032 -2.590973
v 131.366272 1.634072 -2.589827
v 131.356888 1.671596 -2.461932
v 131.260773 1.626785 -2.600615
v 131.260559 1.664942 -2.461581
v 131.142120 1.369689 -2.591449
v 131.379196 1.376184 -2.591257
v 131.379196 1.376184 -2.475683
v 131.260483 1.352985 -2.593061
v 131.260483 1.352985 -2.465700
v 131.142120 1.369689 -2.475492
v 131.159973 1.441902 -2.484297
v 131.159973 1.441902 -2.576074
v 131.361298 1.446635 -2.575664
v 131.361298 1.446635 -2.484708
v 131.260254 1.429729 -2.579528
v 131.260254 1.429729 -2.466578
v 131.122009 1.440389 -2.509968
v 131.067398 1.450610 -2.507885
v 131.119675 1.442463 -2.576273
v 131.066132 1.453171 -2.575164
v 131.456741 1.463834 -2.568921
v 131.456741 1.463834 -2.499733
v 131.401581 1.448696 -2.571265
v 131.399200 1.454992 -2.497389
v 131.166138 2.030740 -2.584286
v 131.348358 2.030740 -2.578317
v 131.168121 2.030740 -2.489923
v 131.260437 2.030740 -2.635713
v 131.345291 2.030740 -2.489013
v 131.260437 2.033857 -2.445014
v 131.260452 1.956693 -2.631725
v 131.329315 1.956693 -2.496186
v 131.260452 1.962350 -2.453756
v 131.182266 1.956693 -2.577471
v 131.337234 1.956693 -2.577924
v 131.183960 1.956693 -2.496639
v 131.212494 1.189751 -2.618373
v 131.228256 1.825625 -2.487106
v 131.211700 1.295974 -2.467227
v 131.219879 1.752895 -2.473505
v 131.228256 1.825625 -2.596750
v 131.212265 1.189751 -2.483812
v 131.211700 1.321787 -2.602800
v 131.219879 1.745819 -2.598668
v 131.147476 0.518418 -2.565893
v 131.149567 0.517400 -2.404301
v 131.243683 1.833947 -2.503228
v 131.243683 1.833947 -2.570287
v 131.244965 1.903074 -2.505560
v 131.244965 1.903074 -2.567956
v 131.235855 1.924747 -2.473264
v 131.235229 1.917696 -2.604258
v 131.237061 2.083294 -2.459308
v 131.227066 2.083294 -2.603971
v 131.240280 2.097867 -2.483932
v 131.233917 2.097867 -2.584588
v 131.158432 0.902165 -2.570405
v 131.158432 0.902165 -2.503913
v 131.148254 0.682795 -2.560924
v 131.148254 0.682795 -2.513394
v 131.146179 0.591603 -2.558405
v 131.146149 0.591603 -2.506630
v 131.153656 0.826117 -2.494409
v 131.155594 0.826117 -2.586119
v 131.232086 1.983172 -2.448521
v 131.224976 1.984594 -2.616748
v 131.246536 2.107016 -2.511937
v 131.246536 2.107016 -2.562381
v 131.147171 0.551569 -2.564178
v 131.149734 0.551569 -2.410909
v 131.193222 1.132281 -2.491566
v 131.193222 1.125834 -2.607605
v 131.220612 1.628827 -2.596863
v 131.223892 1.666807 -2.452092
v 131.214417 1.359486 -2.470724
v 131.214417 1.359486 -2.592433
v 131.221237 1.434467 -2.471055
v 131.221237 1.434467 -2.578184
v 131.241165 2.033629 -2.450752
v 131.223740 2.030740 -2.615699
v 131.230026 1.956693 -2.610610
v 131.217285 1.967194 -2.456457
v 131.280106 1.829717 -2.590813
v 131.294128 1.189380 -2.487123
v 131.291367 1.323932 -2.602800
v 131.287643 1.745819 -2.600593
v 131.294128 1.189380 -2.619304
v 131.280106 1.829717 -2.483505
v 131.291367 1.295084 -2.467649
v 131.287643 1.752895 -2.471581
v 131.368225 0.508076 -2.415964
v 131.373291 0.508076 -2.566320
v 131.271057 1.833947 -2.573835
v 131.271057 1.833947 -2.499493
v 131.270248 1.903074 -2.571278
v 131.270248 1.903074 -2.502051
v 131.276459 1.917696 -2.610915
v 131.283859 1.925692 -2.472757
v 131.280807 2.083294 -2.609105
v 131.281250 2.083294 -2.459903
v 131.276321 2.097867 -2.589178
v 131.276321 2.097867 -2.485140
v 131.356339 0.897131 -2.503907
v 131.356339 0.897131 -2.570411
v 131.376892 0.592594 -2.515432
v 131.376892 0.592594 -2.558886
v 131.371078 0.689469 -2.567545
v 131.371078 0.689469 -2.513263
v 131.355545 0.818811 -2.492187
v 131.355804 0.819437 -2.587155
v 131.282272 1.984594 -2.625699
v 131.282700 1.982841 -2.445443
v 131.269089 2.107016 -2.564822
v 131.269089 2.107016 -2.509496
v 131.366699 0.533220 -2.415137
v 131.371292 0.531786 -2.564818
v 131.323227 1.128726 -2.611911
v 131.323227 1.134207 -2.488691
v 131.284363 1.666586 -2.454515
v 131.286835 1.628585 -2.597950
v 131.289810 1.358716 -2.592615
v 131.289810 1.358716 -2.465579
v 131.285217 1.433906 -2.578574
v 131.285217 1.433906 -2.467075
v 131.283234 2.030740 -2.623234
v 131.283295 2.033453 -2.450086
v 131.291824 1.966885 -2.452823
v 131.279419 1.956693 -2.618434
v 131.173126 1.554352 -2.477385
v 131.169403 1.538356 -2.577104
v 131.352448 1.541443 -2.576425
v 131.348465 1.557364 -2.479471
v 131.260254 1.530417 -2.582816
v 131.260162 1.546606 -2.470813
v 131.226288 1.549621 -2.468889
v 131.224899 1.533507 -2.580593
v 131.283035 1.533140 -2.581237
v 131.281982 1.549263 -2.468049
v 131.180740 1.896720 -2.451058
v 131.191284 2.124652 -2.451058
v 131.158661 1.884059 -2.638217
v 131.178467 2.124225 -2.631453
v 131.342239 1.901340 -2.459383
v 131.325470 2.125428 -2.459818
v 131.356140 1.880396 -2.638217
v 131.321182 2.120031 -2.624135
v 131.332352 1.880396 -2.654315
v 131.187271 1.884059 -2.658758
v 131.201416 2.134130 -2.638217
v 131.303635 2.135546 -2.635325
v 131.195648 1.896720 -2.451058
v 131.333130 1.901340 -2.451058
v 131.314423 2.140176 -2.454719
v 131.216522 2.140176 -2.451058
v 131.150330 1.871307 -2.472791
v 131.183929 2.132532 -2.472791
v 131.358917 1.878986 -2.472791
v 131.332504 2.135040 -2.472791
v 131.319397 2.150555 -2.472791
v 131.205719 2.150555 -2.472791
v 131.180740 2.093155 -2.451058
v 131.172470 2.087656 -2.635050
v 131.326691 2.087656 -2.638217
v 131.338043 2.082396 -2.459383
v 131.325607 2.076988 -2.451058
v 131.205460 2.118034 -2.452256
v 131.191864 2.087656 -2.658758
v 131.308151 2.087656 -2.647212
v 131.347168 2.082625 -2.472791
v 131.164093 2.095963 -2.472791
v 131.182800 1.884384 -2.599967
v 131.340317 1.880374 -2.599967
v 131.315765 2.098851 -2.597802
v 131.199402 2.098851 -2.597802
v 131.196365 1.879154 -2.452737
v 131.331131 1.890919 -2.448220
v 131.376053 1.884549 -2.598347
v 131.151169 1.888212 -2.598963
v 131.162994 2.091809 -2.598547
v 131.172852 2.123278 -2.598071
v 131.201401 2.146401 -2.597391
v 131.302963 2.146401 -2.600264
v 131.342804 2.130886 -2.598120
v 131.350296 2.091809 -2.597601
v 131.257721 1.884059 -2.681263
v 131.255859 2.140913 -2.639514
v 131.265472 2.140176 -2.457775
v 131.262558 2.150555 -2.472791
v 131.258774 2.092826 -2.667915
v 131.267136 2.088895 -2.451058
v 131.259262 1.884384 -2.639664
v 131.257584 2.098851 -2.634060
v 131.258133 2.146401 -2.598828
v 131.144058 1.880755 -2.516326
v 131.345078 2.132963 -2.522377
v 131.311172 2.148478 -2.523450
v 131.203568 2.148478 -2.522013
v 131.358215 2.093886 -2.522118
v 131.342178 1.886288 -2.518084
v 131.184647 1.890298 -2.517170
v 131.377167 1.886626 -2.522491
v 131.159912 2.093886 -2.522591
v 131.176697 2.121278 -2.522353
v 131.260345 2.148478 -2.522731
v 131.189255 1.693270 -2.661418
v 131.160645 1.763956 -2.640877
v 131.378036 1.764446 -2.601007
v 131.358124 1.760293 -2.640877
v 131.334335 1.689606 -2.656975
v 131.259705 1.693270 -2.683923
v 131.146042 1.825296 -2.503913
v 131.152328 1.843483 -2.475451
v 131.259903 1.743916 -2.642995
v 131.340958 1.739905 -2.603299
v 131.344162 1.803237 -2.520744
v 131.186630 1.834840 -2.504757
v 131.198349 1.851330 -2.455397
v 131.360916 1.828087 -2.475451
v 131.333130 1.840021 -2.450880
v 131.379150 1.803575 -2.525151
v 131.183441 1.743916 -2.603299
v 131.153152 1.768109 -2.601623
v 131.161758 1.718403 -2.457207
v 131.152039 1.768088 -2.472602
v 131.202362 1.727946 -2.458051
v 131.198059 1.775935 -2.452548
v 131.147202 1.876031 -2.494559
v 131.338791 2.134001 -2.497584
v 131.315277 2.149517 -2.498120
v 131.204636 2.149517 -2.497402
v 131.352692 2.088255 -2.497455
v 131.190506 1.884726 -2.484954
v 131.261444 2.149517 -2.497761
v 131.336655 1.888603 -2.483152
v 131.368042 1.882806 -2.497641
v 131.162003 2.094924 -2.497691
v 131.180313 2.126905 -2.497572
v 131.149185 1.834390 -2.489682
v 131.192490 1.843085 -2.480077
v 131.338638 1.821629 -2.485812
v 131.370026 1.815831 -2.500301
v 131.156891 1.743245 -2.464905
v 131.200211 1.751940 -2.455300
v 131.364410 1.752553 -2.454142
v 131.336609 1.764486 -2.429570
v 131.342133 1.746094 -2.464503
v 131.373520 1.740297 -2.478992
v 131.362366 1.693873 -2.447042
v 131.347366 1.700318 -2.433771
v 131.350342 1.690385 -2.452637
v 131.367294 1.687254 -2.460462
vn 0.0374 -0.0073 0.9993
vn 0.1858 0.1449 -0.9718
vn 0.3306 0.0663 -0.9414
vn -0.2370 0.2277 0.9444
vn 0.9976 0.0281 -0.0635
vn 0.9961 0.0887 -0.0000
vn -0.1494 0.2791 0.9486
vn -0.0110 0.1253 -0.9921
vn 0.9954 -0.0790 0.0544
vn -0.9999 -0.0140 -0.0021
vn 0.1380 0.0017 -0.9904
vn 0.0539 -0.2063 0.9770
vn -0.9971 -0.0594 0.0466
vn -0.1278 -0.0277 -0.9914
vn -0.0501 0.1280 0.9905
vn -0.0048 0.1182 -0.9930
vn -0.0000 0.1899 0.9818
vn 0.1869 0.1628 0.9688
vn -0.0676 0.0791 -0.9946
vn -0.0000 -1.0000 -0.0063
vn -0.0000 0.0517 -0.9987
vn -0.9939 0.0880 -0.0658
vn 0.9961 0.0579 -0.0660
vn -0.0000 -1.0000 -0.0000
vn -0.0000 0.0632 -0.9980
vn -0.0000 -0.0329 0.9995
vn -0.9944 -0.0845 -0.0628
vn -0.5039 0.0397 -0.8629
vn -0.4774 0.8787 -0.0000
vn 0.2110 0.9451 -0.2495
vn 0.4185 0.9082 -0.0000
vn -0.2711 0.9058 0.3257
vn -0.1857 0.9743 -0.1275
vn 0.1667 0.9817 0.0921
vn 0.4354 -0.7476 0.5015
vn 0.9989 0.0473 -0.0000
vn -0.9989 0.0474 -0.0000
vn 0.5239 0.0396 0.8509
vn -0.5240 0.0373 0.8509
vn 0.5039 0.0373 -0.8629
vn -0.4325 0.1697 -0.8855
vn -0.2788 -0.8271 0.4880
vn 0.0988 -0.9298 -0.3547
vn -0.3823 -0.8525 -0.3564
vn 0.8063 -0.5858 0.0826
vn -0.7502 -0.6609 -0.0199
vn -0.1833 0.8632 0.4704
vn 0.9820 0.1857 0.0353
vn -0.9749 0.2173 0.0493
vn 0.5163 0.1635 0.8406
vn -0.3440 0.1070 0.9329
vn 0.4248 0.2724 -0.8633
vn -0.1189 0.9481 0.2950
vn 0.2474 0.8018 -0.5440
vn -0.2292 0.8304 -0.5078
vn 0.8130 0.5820 0.0180
vn -0.7116 0.7017 0.0359
vn 0.2604 0.8356 0.4836
vn 0.9748 -0.2230 0.0081
vn -0.9992 0.0396 -0.0013
vn -0.0106 -0.1636 -0.9865
vn 0.0754 -0.0774 0.9941
vn -0.9822 -0.1875 0.0054
vn 0.0035 -0.0638 0.9980
vn 0.0094 -0.1732 -0.9848
vn 1.0000 -0.0049 0.0001
vn 0.9872 -0.1539 0.0423
vn -0.9910 -0.1302 0.0314
vn -0.0000 -0.1731 -0.9849
vn -0.0000 -0.1313 0.9913
vn -0.9975 -0.0704 -0.0000
vn -0.0000 -0.0224 0.9997
vn -0.0000 -0.0890 -0.9960
vn 0.9996 0.0279 -0.0000
vn 0.9987 -0.0516 0.0012
vn -0.9998 -0.0222 0.0012
vn -0.0000 -0.0276 -0.9996
vn -0.0000 0.0740 0.9973
vn 0.9954 -0.0629 0.0723
vn 0.0276 -0.1388 -0.9899
vn -0.0000 -0.1608 0.9870
vn -0.9842 -0.1759 0.0211
vn -0.9986 0.0498 0.0198
vn -0.0000 0.1480 0.9890
vn 0.0182 0.1998 -0.9797
vn 0.9904 0.1197 0.0693
vn -0.0000 0.1240 0.9923
vn -0.0000 0.2024 -0.9793
vn -0.9728 0.2299 0.0272
vn 0.9970 0.0675 0.0376
vn 0.9978 -0.0427 -0.0511
vn -0.2480 -0.0367 -0.9681
vn 0.0401 0.9992 -0.0000
vn 0.8621 -0.5055 -0.0357
vn -0.9386 0.3413 0.0508
vn -0.7888 0.6147 -0.0000
vn -0.3496 -0.0331 -0.9363
vn -0.0771 -0.1977 0.9772
vn 0.0246 -0.0713 0.9972
vn 0.0289 -0.0293 0.9992
vn 0.0370 -0.2151 -0.9759
vn -0.9982 -0.0595 0.0079
vn 0.0736 -0.0345 -0.9967
vn -0.9573 -0.2892 -0.0000
vn 0.1436 0.0553 0.9881
vn -0.0766 0.9971 -0.0000
vn 0.9328 0.3605 -0.0000
vn 0.0736 -0.0345 0.9967
vn 0.6337 0.7736 -0.0000
vn 0.0448 -0.1160 -0.9922
vn -0.0152 0.1417 -0.9898
vn 0.9948 -0.1017 -0.0000
vn -0.9996 0.0205 -0.0210
vn 0.0362 -0.1120 0.9930
vn -0.0067 -0.1111 0.9938
vn -0.9999 -0.0147 -0.0000
vn 1.0000 -0.0068 -0.0000
vn 0.2041 0.0658 -0.9767
vn -0.9963 0.0015 0.0860
vn -0.1872 -0.0372 -0.9816
vn -0.0458 -0.0707 0.9964
vn 0.9944 0.0088 -0.1052
vn 0.5433 -0.2521 -0.8008
vn -0.0865 -0.3521 0.9320
vn 0.6518 -0.2366 0.7206
vn -0.9081 -0.4183 0.0191
vn 0.9132 -0.3999 0.0783
vn -0.5344 -0.2962 -0.7917
vn 0.0084 -0.0887 0.9960
vn -0.0000 1.0000 -0.0000
vn 0.1495 0.9394 -0.3084
vn -0.1473 0.9412 -0.3041
vn 0.2853 0.9584 -0.0000
vn -0.2775 0.9607 -0.0000
vn 0.1494 0.9394 0.3084
vn -0.1280 -0.9616 -0.2426
vn 0.9864 -0.0493 -0.1568
vn 0.1701 -0.0670 -0.9832
vn -0.9911 -0.1312 -0.0207
vn -0.9983 0.0579 0.0068
vn 0.2165 -0.1883 -0.9579
vn 0.9698 0.2276 -0.0880
vn 0.0313 -0.0294 0.9991
vn 0.0404 -0.1202 -0.9919
vn -0.9941 0.1084 -0.0000
vn -0.0117 0.1092 0.9939
vn 1.0000 -0.0049 -0.0000
vn 0.5268 -0.8500 -0.0000
vn -0.9754 -0.2205 -0.0000
vn 0.0594 -0.1767 0.9825
vn 0.9985 0.0543 -0.0000
vn 0.9706 0.2345 -0.0541
vn -0.9644 0.2589 -0.0538
vn -0.0000 0.1427 -0.9898
vn -0.0000 0.9226 0.3859
vn -0.9831 0.1769 -0.0474
vn -0.0000 0.8605 0.5094
vn -0.0000 0.0971 -0.9953
vn 0.9944 0.0944 -0.0473
vn 0.9914 0.1310 -0.0027
vn 0.0122 -0.1117 -0.9937
vn -0.0306 -0.0284 0.9991
vn -0.8420 -0.5393 0.0117
vn 0.1019 -0.1561 0.9825
vn -0.0268 -0.1643 -0.9860
vn -0.9916 0.1294 -0.0052
vn 0.9169 -0.3989 0.0107
vn -0.2015 -0.0918 0.9752
vn -0.0895 -0.1760 -0.9803
vn -0.9931 -0.0905 0.0740
vn 0.1007 -0.1665 -0.9809
vn 0.9905 -0.1083 0.0846
vn -0.1336 -0.1597 0.9781
vn -0.0443 0.0699 0.9966
vn 0.9911 0.1330 -0.0000
vn -0.0224 0.2514 -0.9676
vn -0.9903 0.1392 -0.0000
vn 0.0107 0.2828 -0.9591
vn 0.0538 -0.0049 0.9985
vn -0.1225 0.0819 0.9891
vn 0.9692 0.2461 -0.0000
vn -0.0108 0.1978 -0.9802
vn -0.9707 0.2401 -0.0000
vn 0.0010 0.1801 -0.9837
vn 0.0040 0.0158 0.9999
vn -0.9944 0.1000 0.0332
vn 0.0160 0.0138 -0.9998
vn 0.0393 -0.0082 0.9992
vn 0.9868 -0.1393 -0.0830
vn -0.0672 0.0467 0.9966
vn -0.9912 -0.1316 -0.0104
vn 0.9975 0.0711 -0.0000
vn 0.1945 -0.0117 -0.9808
vn 0.5149 0.0581 -0.8553
vn -0.1002 -0.0128 0.9949
vn 0.5779 -0.0128 0.8160
vn -0.9975 -0.0675 0.0210
vn 0.9980 -0.0327 0.0549
vn -0.5144 -0.0539 -0.8558
vn -0.6025 -0.3147 -0.7335
vn 0.8739 -0.4750 0.1034
vn -0.8695 -0.4939 -0.0105
vn 0.6343 -0.4614 0.6203
vn -0.1668 -0.3659 0.9156
vn 0.3680 -0.3156 -0.8746
vn -0.5812 -0.4463 0.6805
vn -0.4418 -0.3078 -0.8426
vn -0.5147 0.0436 -0.8563
vn -0.5352 0.0154 0.8446
vn 0.0033 0.1968 -0.9804
vn -0.1093 0.0127 0.9939
vn 0.0081 0.2417 -0.9703
vn -0.0773 0.0394 0.9962
vn 0.1516 -0.1073 0.9826
vn -0.0889 -0.1642 -0.9824
vn -0.0253 -0.1490 -0.9885
vn 0.1001 -0.1719 0.9800
vn 0.0007 -0.1938 0.9810
vn -0.5406 -0.2573 -0.8009
vn -0.6589 -0.1440 0.7383
vn 0.0768 -0.0568 0.9954
vn -0.0104 -0.1607 -0.9869
vn -0.2446 0.8040 -0.5420
vn -0.1492 0.9469 0.2847
vn -0.4872 0.1365 0.8625
vn -0.2750 0.8318 0.4821
vn -0.1503 -0.9222 -0.3564
vn -0.3462 -0.8063 0.4797
vn -0.4244 0.2552 -0.8688
vn -0.5239 0.0400 0.8508
vn -0.1987 0.9499 -0.2412
vn -0.2203 0.9628 0.1565
vn -0.5039 0.0376 -0.8629
vn -0.0520 -0.0590 -0.9969
vn -0.0049 0.1154 -0.9933
vn -0.1271 0.0025 -0.9919
vn 0.0399 0.1524 0.9875
vn -0.2030 0.1773 0.9630
vn 0.5917 -0.2838 -0.7545
vn 0.1440 -0.3813 0.9131
vn 0.0209 0.0007 0.9998
vn 0.5583 0.0507 -0.8281
vn 0.1479 0.0939 0.9845
vn -0.0072 0.1783 -0.9839
vn 0.0694 0.0237 0.9973
vn -0.0272 0.2916 -0.9561
vn 0.1016 -0.1784 -0.9787
vn 0.1458 -0.1383 0.9796
vn -0.0240 -0.0879 0.9958
vn 0.0127 -0.1162 -0.9931
vn 0.1495 0.9394 0.3084
vn 0.1494 0.9394 -0.3084
vn 0.0007 -0.3766 0.9264
vn 0.5360 -0.2971 -0.7902
vn 0.0179 0.2140 -0.9767
vn 0.0278 -0.1483 -0.9886
vn 0.0095 -0.1757 -0.9844
vn 0.0034 -0.0629 0.9980
vn 0.2222 0.8631 0.4535
vn 0.3445 0.7262 -0.5950
vn 0.5454 0.2287 -0.8063
vn 0.3303 0.1420 0.9331
vn 0.3359 -0.8698 -0.3614
vn 0.5039 0.0394 -0.8629
vn 0.5240 0.0370 0.8509
vn 0.3010 -0.8167 0.4923
vn 0.2141 0.9439 0.2514
vn 0.1640 0.9827 -0.0862
vn 0.2095 0.1707 0.9628
vn 0.1517 0.2429 0.9581
vn 0.0168 -0.1228 0.9923
vn 0.1391 -0.0312 -0.9898
vn -0.0105 0.1203 -0.9927
vn 0.1846 0.1259 -0.9747
vn 0.2003 -0.0042 0.9797
vn 0.0572 -0.0291 -0.9979
vn -0.0494 -0.0143 -0.9987
vn -0.0340 0.0096 0.9994
vn -0.1891 -0.0240 0.9817
vn 0.9944 0.1047 0.0122
vn 0.0551 -0.0145 -0.9984
vn -0.9942 0.1072 0.0104
vn -0.0508 -0.0275 -0.9983
vn -0.0516 0.0217 0.9984
vn -0.9480 0.2341 -0.2155
vn 0.5632 0.3173 -0.7630
vn 0.7901 0.2283 0.5689
vn 0.0621 -0.0473 0.9969
vn -0.5014 0.7027 0.5047
vn 0.6907 0.4565 0.5608
vn 0.0307 0.8751 0.4829
vn 0.5353 0.1518 0.8309
vn 0.0671 0.0662 0.9955
vn -0.6013 0.3248 -0.7301
vn 0.2680 0.3905 -0.8807
vn -0.0647 0.9754 -0.2107
vn 0.5042 0.7445 -0.4377
vn -0.5462 0.8209 -0.1667
vn 0.7737 0.2511 -0.5817
vn -0.7814 0.3489 0.5173
vn -0.6842 0.0224 0.7289
vn 0.8686 0.1166 -0.4816
vn 0.3620 0.0658 -0.9299
vn -0.6772 0.0363 -0.7349
vn 0.6081 0.0200 0.7936
vn 0.0288 0.0022 0.9996
vn 0.7326 0.0303 0.6799
vn 0.5082 0.0805 -0.8575
vn -0.9724 0.0632 -0.2246
vn 0.4910 -0.0329 0.8705
vn -0.9958 -0.0915 0.0077
vn 0.9958 -0.0701 -0.0586
vn -0.2255 -0.9735 0.0381
vn 0.6759 0.0660 0.7341
vn -0.9849 -0.0095 0.1730
vn -0.9971 -0.0265 -0.0714
vn 0.9395 0.0163 0.3421
vn -0.9993 -0.0127 0.0361
vn -0.2592 -0.3177 0.9121
vn 0.9996 0.0201 -0.0200
vn -0.9911 0.0646 0.1163
vn -0.9109 0.4126 0.0043
vn -0.6606 0.7498 -0.0384
vn -0.0005 0.9996 -0.0274
vn 0.3892 0.9197 -0.0518
vn 0.9646 0.2537 -0.0720
vn 0.9923 0.1072 -0.0622
vn -0.0006 0.9996 -0.0271
vn 0.9993 0.0118 -0.0342
vn -0.0729 -0.9931 -0.0915
vn -0.4794 -0.0448 0.8765
vn -0.2257 0.0346 -0.9736
vn 0.0628 0.9753 -0.2118
vn -0.1212 0.4630 -0.8780
vn -0.0186 0.0882 0.9959
vn -0.0153 0.8474 0.5307
vn -0.0004 0.9992 -0.0412
vn 0.9518 0.0787 0.2965
vn 0.9227 0.2953 0.2479
vn 0.4758 0.8794 -0.0157
vn -0.0004 0.9991 -0.0418
vn -0.6724 0.7398 0.0263
vn -0.8604 0.5087 0.0307
vn -0.9959 0.0652 -0.0619
vn 0.8933 0.0247 -0.4488
vn 0.6591 -0.0135 0.7520
vn -0.9903 -0.0783 -0.1152
vn 0.8323 -0.5481 0.0829
vn 0.2929 -0.6601 0.6917
vn -0.8112 -0.5500 0.1987
vn -0.1425 -0.7914 0.5944
vn -0.3307 -0.6333 0.6997
vn 0.0727 -0.3903 -0.9178
vn 0.2934 -0.8063 0.5136
vn -0.5778 0.0066 -0.8162
vn 0.4606 -0.0189 0.8874
vn -0.4406 -0.0233 0.8974
vn -0.9825 -0.0121 -0.1860
vn 0.5383 0.0213 -0.8425
vn 0.9778 0.0494 -0.2035
vn 0.3403 0.0166 -0.9402
vn -0.3043 0.0101 -0.9525
vn -0.9885 -0.0209 -0.1500
vn -0.3803 -0.1149 0.9177
vn -0.1213 0.0828 0.9892
vn -0.9899 -0.0735 0.1208
vn -0.4044 0.0361 0.9139
vn 0.9878 0.0184 -0.1549
vn 0.9809 0.0480 -0.1887
vn -0.9987 -0.0474 -0.0173
vn -0.3229 0.0493 0.9451
vn -0.9886 -0.0267 -0.1483
vn 0.9794 0.0041 -0.2017
vn 0.0604 -0.8822 0.4670
vn -0.8732 0.4860 0.0352
vn -0.0001 0.9991 -0.0418
vn 0.6466 0.7628 -0.0034
vn 0.9302 0.2712 0.2474
vn 0.9537 0.0630 0.2941
vn -0.0001 0.9991 -0.0412
vn -0.6969 0.7165 -0.0304
vn -0.9905 0.0728 0.1169
vn 0.9394 0.0127 0.3426
vn -0.9828 -0.0505 0.1777
vn 0.9401 0.0087 0.3407
vn -0.4439 -0.2622 -0.8568
vn 0.9498 0.1249 0.2869
vn 0.6978 0.2242 0.6803
vn 0.0409 -0.8850 0.4637
vn 0.6766 0.0653 0.7335
vn -0.4434 -0.2488 -0.8611
vn -0.9845 -0.1603 -0.0711
vt 0.844458 0.532028
vt 0.869044 0.548480
vt 0.853462 0.560643
vt 0.837049 0.528966
vt 0.515185 0.655133
vt 0.518716 0.705226
vt 0.482150 0.697698
vt 0.465923 0.654937
vt 0.227304 0.602497
vt 0.247790 0.627455
vt 0.227688 0.635758
vt 0.220302 0.597929
vt 0.685733 0.790836
vt 0.691034 0.835077
vt 0.659962 0.828976
vt 0.646536 0.788554
vt 0.105088 0.105538
vt 0.020663 0.101211
vt 0.021952 0.087075
vt 0.106739 0.092248
vt 0.457559 0.600421
vt 0.404330 0.597019
vt 0.400675 0.542052
vt 0.453706 0.542468
vt 0.687948 0.738368
vt 0.653846 0.740371
vt 0.514408 0.401629
vt 0.458275 0.403670
vt 0.452108 0.328304
vt 0.513258 0.320944
vt 0.274204 0.600645
vt 0.224353 0.561432
vt 0.254979 0.547976
vt 0.967923 0.374295
vt 0.967665 0.425428
vt 0.913352 0.423444
vt 0.909379 0.372153
vt 0.516130 0.585881
vt 0.468713 0.588510
vt 0.729438 0.452419
vt 0.727663 0.516104
vt 0.709224 0.512408
vt 0.709386 0.449569
vt 0.967923 0.571638
vt 0.954621 0.602861
vt 0.912358 0.601146
vt 0.913139 0.554027
vt 0.555578 0.586180
vt 0.555706 0.655509
vt 0.531270 0.655190
vt 0.531675 0.585054
vt 0.724949 0.738020
vt 0.727117 0.790229
vt 0.710673 0.789798
vt 0.710277 0.737088
vt 0.561827 0.321520
vt 0.561835 0.400647
vt 0.532826 0.400947
vt 0.533322 0.318523
vt 0.399158 0.035419
vt 0.372497 0.032508
vt 0.373507 0.012280
vt 0.401254 0.015309
vt 0.722886 0.836853
vt 0.710797 0.839098
vt 0.549923 0.702835
vt 0.530758 0.707664
vt 0.135770 0.047242
vt 0.133850 0.032984
vt 0.231880 0.013952
vt 0.234400 0.032668
vt 0.771683 0.046085
vt 0.760660 0.046051
vt 0.758983 0.028129
vt 0.771569 0.028168
vt 0.226109 0.109420
vt 0.139684 0.115585
vt 0.137560 0.096841
vt 0.228543 0.089919
vt 0.595028 0.032691
vt 0.535297 0.027488
vt 0.533853 0.013983
vt 0.596727 0.019793
vt 0.111161 0.042670
vt 0.108153 0.066142
vt 0.015363 0.060481
vt 0.019553 0.027780
vt 0.646017 0.046293
vt 0.624967 0.046342
vt 0.624867 0.033913
vt 0.644936 0.033866
vt 0.276285 0.030674
vt 0.266093 0.031924
vt 0.265277 0.017299
vt 0.275387 0.016059
vt 0.533853 0.023748
vt 0.475508 0.027991
vt 0.474100 0.018774
vt 0.532686 0.013983
vt 0.908147 0.509025
vt 0.900103 0.515376
vt 0.896687 0.503234
vt 0.897763 0.502077
vt 0.887266 0.513600
vt 0.913235 0.533997
vt 0.876725 0.527687
vt 0.911146 0.499957
vt 0.905480 0.487897
vt 0.916672 0.475990
vt 0.916835 0.498190
vt 0.893131 0.486098
vt 0.887440 0.470452
vt 0.882183 0.503983
vt 0.875446 0.508278
vt 0.911702 0.503737
vt 0.916516 0.504453
vt 0.915672 0.516093
vt 0.883094 0.494188
vt 0.880965 0.497512
vt 0.876683 0.496282
vt 0.878949 0.490423
vt 0.373083 0.701721
vt 0.415691 0.691826
vt 0.425639 0.729232
vt 0.381934 0.741377
vt 0.897646 0.498653
vt 0.896077 0.498201
vt 0.895194 0.502772
vt 0.894768 0.499686
vt 0.894375 0.500204
vt 0.894603 0.501253
vt 0.898349 0.501304
vt 0.898247 0.500607
vt 0.917343 0.706959
vt 0.921073 0.687758
vt 0.935305 0.693479
vt 0.933125 0.709519
vt 0.338158 0.697725
vt 0.359598 0.706363
vt 0.358236 0.746200
vt 0.333268 0.739658
vt 0.857719 0.724873
vt 0.860146 0.718038
vt 0.880300 0.718031
vt 0.880023 0.724005
vt 0.857501 0.706223
vt 0.860230 0.687791
vt 0.879033 0.689753
vt 0.879112 0.708283
vt 0.854447 0.766591
vt 0.860628 0.747295
vt 0.878698 0.746253
vt 0.866480 0.781442
vt 0.854447 0.668194
vt 0.870154 0.649699
vt 0.338603 0.901104
vt 0.359213 0.896103
vt 0.359434 0.923848
vt 0.339280 0.929281
vt 0.931405 0.789476
vt 0.919317 0.750060
vt 0.936138 0.745725
vt 0.958053 0.771789
vt 0.936583 0.644558
vt 0.965085 0.666381
vt 0.381918 0.853798
vt 0.459443 0.855202
vt 0.444130 0.916416
vt 0.378709 0.901006
vt 0.339415 0.854369
vt 0.358970 0.853826
vt 0.916326 0.725985
vt 0.915703 0.718705
vt 0.930375 0.719081
vt 0.931586 0.725124
vt 0.360429 0.955879
vt 0.343500 0.962257
vt 0.937498 0.719382
vt 0.939212 0.724785
vt 0.943785 0.696565
vt 0.940799 0.711008
vt 0.941841 0.742615
vt 0.958963 0.759171
vt 0.965103 0.680726
vt 0.437813 0.944686
vt 0.376824 0.930261
vt 0.594360 0.259212
vt 0.551109 0.258015
vt 0.561457 0.168240
vt 0.587302 0.170426
vt 0.205924 0.445492
vt 0.135733 0.446777
vt 0.147556 0.315669
vt 0.184947 0.313046
vt 0.745839 0.359930
vt 0.723737 0.357591
vt 0.751682 0.237558
vt 0.765005 0.237600
vt 0.383647 0.411792
vt 0.345791 0.411900
vt 0.355554 0.274016
vt 0.377932 0.276468
vt 0.523097 0.261908
vt 0.475014 0.263631
vt 0.483918 0.171533
vt 0.509779 0.169473
vt 0.297964 0.415102
vt 0.282272 0.415665
vt 0.291233 0.276833
vt 0.300268 0.275725
vt 0.669704 0.362766
vt 0.626731 0.365918
vt 0.628744 0.239210
vt 0.653732 0.239484
vt 0.109064 0.448178
vt 0.039568 0.446048
vt 0.058443 0.309468
vt 0.095826 0.312280
vt 0.595999 0.141231
vt 0.560264 0.138355
vt 0.571632 0.082595
vt 0.590127 0.083903
vt 0.187226 0.268988
vt 0.135559 0.272048
vt 0.145470 0.189751
vt 0.172226 0.188330
vt 0.766671 0.195690
vt 0.747357 0.195630
vt 0.761348 0.117127
vt 0.770872 0.117157
vt 0.380007 0.231893
vt 0.351236 0.228751
vt 0.370009 0.146312
vt 0.386003 0.148058
vt 0.500023 0.088219
vt 0.478903 0.089745
vt 0.479543 0.051716
vt 0.496450 0.050494
vt 0.293899 0.153450
vt 0.287405 0.154246
vt 0.284495 0.097887
vt 0.290400 0.097163
vt 0.646321 0.129145
vt 0.628363 0.129186
vt 0.626832 0.078303
vt 0.643161 0.078265
vt 0.101656 0.194448
vt 0.071105 0.192740
vt 0.075375 0.138263
vt 0.099832 0.139630
vt 0.571513 0.046876
vt 0.591659 0.048303
vt 0.144161 0.138330
vt 0.173306 0.136781
vt 0.764016 0.067894
vt 0.772147 0.067920
vt 0.376981 0.093633
vt 0.390553 0.095115
vt 0.107489 0.269573
vt 0.055171 0.264890
vt 0.654470 0.197902
vt 0.621417 0.198779
vt 0.294214 0.230116
vt 0.284273 0.231335
vt 0.511909 0.138641
vt 0.474641 0.141551
vt 0.071113 0.648638
vt 0.033663 0.639911
vt 0.054729 0.573476
vt 0.075350 0.580685
vt 0.903495 0.572932
vt 0.911877 0.609130
vt 0.887275 0.584643
vt 0.949446 0.608983
vt 0.133198 0.810525
vt 0.137230 0.842630
vt 0.093196 0.840417
vt 0.101778 0.807632
vt 0.142916 0.865390
vt 0.085011 0.861847
vt 0.065593 0.816857
vt 0.168292 0.820840
vt 0.157202 0.558617
vt 0.126842 0.571858
vt 0.122206 0.532264
vt 0.145715 0.522043
vt 0.166716 0.644230
vt 0.135223 0.651478
vt 0.128664 0.584743
vt 0.155466 0.576490
vt 0.099519 0.655061
vt 0.101765 0.588457
vt 0.927863 0.298624
vt 0.899686 0.337981
vt 0.894668 0.320305
vt 0.892211 0.292940
vt 0.217906 0.564583
vt 0.257039 0.662093
vt 0.254844 0.694307
vt 0.253855 0.701415
vt 0.236087 0.667212
vt 0.862687 0.319241
vt 0.864521 0.292157
vt 0.857898 0.338821
vt 0.828690 0.298070
vt 0.931740 0.153336
vt 0.902683 0.159971
vt 0.905697 0.093722
vt 0.932730 0.091496
vt 0.907147 0.080229
vt 0.931967 0.076761
vt 0.869270 0.156479
vt 0.879142 0.091709
vt 0.971985 0.153367
vt 0.958332 0.089512
vt 0.840668 0.147999
vt 0.853449 0.085698
vt 0.824828 0.247062
vt 0.862369 0.249299
vt 0.971985 0.305353
vt 0.930764 0.250809
vt 0.969061 0.253911
vt 0.894780 0.250259
vt 0.095689 0.762429
vt 0.136650 0.763782
vt 0.059627 0.757206
vt 0.176510 0.760229
vt 0.011559 0.812845
vt 0.022692 0.754599
vt 0.893628 0.725510
vt 0.894912 0.718212
vt 0.903283 0.718338
vt 0.902756 0.725825
vt 0.316260 0.789326
vt 0.358170 0.787298
vt 0.358194 0.798739
vt 0.331034 0.805987
vt 0.388523 0.789136
vt 0.446895 0.765763
vt 0.459443 0.800764
vt 0.379132 0.805605
vt 0.894531 0.684925
vt 0.889527 0.645352
vt 0.907250 0.642976
vt 0.906119 0.684162
vt 0.886252 0.789188
vt 0.893169 0.750001
vt 0.904151 0.750553
vt 0.903583 0.792690
vt 0.893478 0.706260
vt 0.903140 0.705886
vt 0.680352 0.516787
vt 0.634906 0.531326
vt 0.635624 0.458100
vt 0.680607 0.453000
vt 0.974768 0.713636
vt 0.949599 0.714979
vt 0.952629 0.705877
vt 0.966475 0.702065
vt 0.947104 0.720070
vt 0.948525 0.723375
vt 0.951036 0.734541
vt 0.964382 0.739860
vt 0.404794 0.969565
vt 0.371079 0.959737
vt 0.441874 0.096758
vt 0.457108 0.094952
vt 0.457108 0.119806
vt 0.441655 0.119877
vt 0.073666 0.563521
vt 0.059133 0.556445
vt 0.070637 0.519769
vt 0.083919 0.528447
vt 0.102730 0.577547
vt 0.106508 0.535598
vt 0.905973 0.050706
vt 0.927989 0.039503
vt 0.959038 0.075139
vt 0.854116 0.070638
vt 0.879747 0.078540
vt 0.441655 0.121294
vt 0.421660 0.121294
vt 0.421660 0.094952
vt 0.441655 0.094952
vt 0.946505 0.036084
vt 0.869844 0.033444
vt 0.887603 0.049278
vt 0.110389 0.486302
vt 0.032582 0.480479
vt 0.684552 0.394910
vt 0.630738 0.401096
vt 0.285045 0.448979
vt 0.265277 0.448829
vt 0.524728 0.286878
vt 0.474100 0.290592
vt 0.390650 0.446558
vt 0.346264 0.446258
vt 0.735331 0.394883
vt 0.709445 0.392393
vt 0.212627 0.478156
vt 0.133053 0.483749
vt 0.596727 0.286299
vt 0.546130 0.282190
vt 0.722732 0.667759
vt 0.709664 0.666173
vt 0.553454 0.528598
vt 0.532224 0.526799
vt 0.961661 0.523489
vt 0.920644 0.515238
vt 0.518534 0.528245
vt 0.476944 0.532726
vt 0.312952 0.592003
vt 0.303449 0.551849
vt 0.689492 0.668126
vt 0.657164 0.670624
vt 0.681898 0.554609
vt 0.638828 0.560582
vt 0.383668 0.593538
vt 0.380450 0.545148
vt 0.515230 0.423212
vt 0.461921 0.433151
vt 0.965271 0.445904
vt 0.917298 0.444151
vt 0.560098 0.423920
vt 0.532708 0.419936
vt 0.726899 0.553924
vt 0.709453 0.550607
vt 0.686128 0.599275
vt 0.648933 0.603803
vt 0.352800 0.589033
vt 0.350268 0.550950
vt 0.517640 0.468856
vt 0.472178 0.476183
vt 0.960504 0.476546
vt 0.922534 0.475159
vt 0.555869 0.469406
vt 0.532567 0.466436
vt 0.724478 0.598745
vt 0.709557 0.596314
vt 0.280792 0.732356
vt 0.263498 0.768733
vt 0.251524 0.803211
vt 0.251444 0.857134
vt 0.603129 0.430133
vt 0.592379 0.474037
vt 0.607372 0.400133
vt 0.586627 0.531485
vt 0.593140 0.587986
vt 0.775957 0.398797
vt 0.780528 0.363599
vt 0.418934 0.446758
vt 0.407771 0.411732
vt 0.399200 0.096059
vt 0.416146 0.037273
vt 0.784909 0.067959
vt 0.788982 0.046139
vt 0.978153 0.721831
vt 0.975402 0.726741
vt 0.785915 0.237665
vt 0.796984 0.195784
vt 0.392192 0.278016
vt 0.398336 0.233893
vt 0.396193 0.149170
vt 0.785819 0.117203
vt 0.281774 0.946066
vt 0.316474 0.970775
vt 0.272972 0.917458
vt 0.304039 0.686779
vt 0.791324 0.028229
vt 0.138783 0.069619
vt 0.238355 0.062044
vt 0.594327 0.655625
vt 0.579925 0.695555
vt 0.418934 0.017239
vt 0.606566 0.326208
vt 0.780270 0.563980
vt 0.770889 0.606296
vt 0.783689 0.535306
vt 0.763312 0.671999
vt 0.768076 0.740972
vt 0.345295 0.449516
vt 0.345791 0.413322
vt 0.702207 0.392881
vt 0.683802 0.361731
vt 0.648518 0.078253
vt 0.652922 0.046277
vt 0.308397 0.094955
vt 0.307351 0.026864
vt 0.661930 0.239575
vt 0.665314 0.197614
vt 0.327813 0.272348
vt 0.324516 0.226400
vt 0.313692 0.151023
vt 0.652213 0.129131
vt 0.306202 0.012280
vt 0.651520 0.033851
vt 0.112148 0.034969
vt 0.020927 0.017052
vt 0.777222 0.787597
vt 0.759810 0.830103
vt 0.790230 0.460792
vt 0.247886 0.472038
vt 0.302994 0.472038
vt 0.302994 0.526276
vt 0.247886 0.526276
vt 0.302994 0.282990
vt 0.247886 0.282990
vt 0.247886 0.240426
vt 0.302994 0.240426
vt 0.302994 0.978992
vt 0.247886 0.978992
vt 0.247886 0.946546
vt 0.302994 0.946546
vt 0.302994 0.759793
vt 0.247886 0.759793
vt 0.247886 0.714934
vt 0.302994 0.714934
vt 0.204691 0.682487
vt 0.247886 0.682487
vt 0.204691 0.714934
vt 0.024864 0.682487
vt 0.065849 0.682487
vt 0.065849 0.714934
vt 0.024864 0.714934
vt 0.133703 0.682487
vt 0.133703 0.714934
vt 0.247886 0.903982
vt 0.302994 0.903982
vt 0.302994 0.833515
vt 0.247886 0.833515
vt 0.247886 0.427179
vt 0.302994 0.427179
vt 0.302994 0.353457
vt 0.247886 0.353457
vt 0.839874 0.851559
vt 0.840400 0.904720
vt 0.800807 0.905421
vt 0.800285 0.850697
vt 0.836818 0.767901
vt 0.843182 0.804723
vt 0.800153 0.807233
vt 0.797468 0.765819
vt 0.803553 0.938004
vt 0.842690 0.939231
vt 0.247886 0.186188
vt 0.302994 0.186188
vt 0.302994 0.682487
vt 0.044391 0.117581
vt 0.289752 0.112826
vt 0.294041 0.162812
vt 0.030760 0.163687
vt 0.284993 0.653234
vt 0.290222 0.713431
vt 0.029328 0.709831
vt 0.024119 0.652716
vt 0.024095 0.519260
vt 0.291602 0.519631
vt 0.285095 0.604890
vt 0.024193 0.615901
vt 0.023438 0.379374
vt 0.284309 0.378033
vt 0.284477 0.428674
vt 0.023570 0.424505
vt 0.049006 0.919685
vt 0.289911 0.922466
vt 0.289490 0.958992
vt 0.048726 0.937620
vt 0.039535 0.085973
vt 0.288904 0.070312
vt 0.033182 0.872638
vt 0.294041 0.875494
vt 0.028522 0.328146
vt 0.289400 0.326707
vt 0.798872 0.652890
vt 0.802066 0.761022
vt 0.767499 0.762304
vt 0.759193 0.654336
vt 0.912409 0.663047
vt 0.910715 0.758245
vt 0.836633 0.759740
vt 0.838549 0.651366
vt 0.876246 0.654700
vt 0.895105 0.656093
vt 0.913963 0.657487
vt 0.693102 0.765582
vt 0.685186 0.666698
vt 0.685704 0.662388
vt 0.703529 0.661202
vt 0.721353 0.660017
vt 0.436105 0.883884
vt 0.458535 0.883883
vt 0.465162 0.949608
vt 0.439116 0.965828
vt 0.034931 0.932534
vt 0.030742 0.196514
vt 0.030724 0.229340
vt 0.032201 0.840243
vt 0.028003 0.088850
vt 0.031219 0.807848
vt 0.292819 0.195410
vt 0.247886 0.617359
vt 0.302994 0.617359
vt 0.703958 0.906247
vt 0.705915 0.939499
vt 0.681794 0.939499
vt 0.680002 0.906127
vt 0.726480 0.851264
vt 0.727914 0.906368
vt 0.723894 0.765604
vt 0.725329 0.801834
vt 0.247886 0.095105
vt 0.302994 0.095105
vt 0.292089 0.810700
vt 0.413676 0.883883
vt 0.413069 0.949608
vt 0.700539 0.798847
vt 0.702192 0.851121
vt 0.293065 0.843097
vt 0.247886 0.062541
vt 0.302994 0.062541
vt 0.699773 0.765204
vt 0.730037 0.939499
vt 0.247886 0.649923
vt 0.302994 0.649923
vt 0.291596 0.228009
vt 0.911891 0.828453
vt 0.910272 0.793300
vt 0.956777 0.790639
vt 0.944233 0.810720
vt 0.976862 0.731821
vt 0.938041 0.734695
vt 0.906094 0.678259
vt 0.956222 0.674481
vt 0.938451 0.651532
vt 0.905744 0.646395
vt 0.842639 0.638795
vt 0.843698 0.681769
vt 0.849701 0.838832
vt 0.848582 0.797137
vt 0.703529 0.661202
vt 0.822216 0.644142
vt 0.815310 0.688509
vt 0.030742 0.196514
vt 0.703529 0.661202
vt 0.801793 0.649489
vt 0.786922 0.695248
vt 0.829078 0.835809
vt 0.817752 0.798989
vt 0.677904 0.850979
vt 0.675652 0.764804
vt 0.675748 0.795860
vt 0.247886 0.029977
vt 0.302994 0.029977
vt 0.808454 0.832786
vt 0.786922 0.800840
s 0
usemtl Material.088
f 10/1/1 33/2/1 96/3/1 95/4/1
f 258/5/2 255/6/2 36/7/2 13/8/2
f 13/9/3 36/10/3 107/11/3 109/12/3
f 212/13/4 210/14/4 33/15/4 10/16/4
f 161/17/5 159/18/5 29/19/5 30/20/5
f 7/21/6 14/22/6 16/23/6 5/24/6
f 246/25/7 212/13/7 10/16/7 171/26/7
f 257/27/8 14/28/8 7/29/8 259/30/8
f 173/31/9 13/9/9 15/32/9 174/33/9
f 1/34/10 9/35/10 12/36/10 3/37/10
f 292/38/11 258/5/11 13/8/11 173/39/11
f 256/40/12 261/41/12 21/42/12 19/43/12
f 171/44/13 10/45/13 11/46/13 172/47/13
f 245/48/14 216/49/14 24/50/14 175/51/14
f 291/52/15 262/53/15 22/54/15 176/55/15
f 209/56/16 215/57/16 23/58/16 17/59/16
f 242/60/17 155/61/17 26/62/17 218/63/17
f 262/53/18 260/64/18 38/65/18 22/54/18
f 216/49/19 213/66/19 35/67/19 24/50/19
f 217/68/20 27/69/20 28/70/20 218/71/20
f 241/72/21 156/73/21 27/74/21 217/75/21
f 155/76/22 158/77/22 25/78/22 26/79/22
f 156/80/23 157/81/23 28/82/23 27/83/23
f 264/84/24 30/85/24 29/86/24 263/87/24
f 288/88/25 161/89/25 30/90/25 264/91/25
f 287/92/26 160/93/26 31/94/26 263/95/26
f 160/96/27 162/97/27 32/98/27 31/99/27
f 220/100/28 4/101/28 40/102/28 222/103/28
f 2/104/29 4/101/29 34/105/29 33/106/29
f 265/107/30 8/108/30 36/109/30 255/110/30
f 8/108/31 6/111/31 37/112/31 36/109/31
f 219/113/32 2/104/32 33/106/32 210/114/32
f 220/100/33 18/115/33 35/116/33 213/117/33
f 266/118/34 20/119/34 38/120/34 260/121/34
f 268/122/35 43/123/35 49/124/35 270/125/35
f 6/111/36 8/108/36 42/126/36 43/127/36
f 4/101/37 2/104/37 39/128/37 40/102/37
f 266/118/38 6/111/38 43/127/38 268/129/38
f 219/113/39 20/119/39 44/130/39 221/131/39
f 265/107/40 18/115/40 41/132/40 267/133/40
f 252/134/41 197/135/41 52/136/41 226/137/41
f 221/138/42 44/139/42 50/140/42 223/141/42
f 267/142/43 41/143/43 47/144/43 269/145/43
f 222/146/44 40/147/44 46/148/44 224/149/44
f 43/150/45 42/151/45 48/152/45 49/153/45
f 40/147/46 39/154/46 45/155/46 46/148/46
f 225/156/47 56/157/47 62/158/47 227/159/47
f 201/160/48 198/161/48 54/162/48 55/163/48
f 197/135/49 199/164/49 51/165/49 52/136/49
f 298/166/50 201/167/50 55/168/50 272/169/50
f 251/170/51 202/171/51 56/157/51 225/156/51
f 297/172/52 200/173/52 53/174/52 271/175/52
f 227/159/53 62/158/53 138/176/53 239/177/53
f 271/175/54 53/174/54 59/178/54 273/179/54
f 226/137/55 52/136/55 58/180/55 228/181/55
f 55/163/56 54/162/56 60/182/56 61/183/56
f 52/136/57 51/165/57 57/184/57 58/180/57
f 272/169/58 55/168/58 61/185/58 274/186/58
f 170/187/59 167/188/59 64/189/59 65/190/59
f 169/191/60 168/192/60 66/193/60 63/194/60
f 244/195/61 170/196/61 65/197/61 229/198/61
f 243/199/62 169/200/62 63/201/62 230/202/62
f 166/203/63 164/204/63 69/205/63 70/206/63
f 290/207/64 166/208/64 70/209/64 275/210/64
f 289/211/65 163/212/65 68/213/65 276/214/65
f 163/215/66 165/216/66 67/217/66 68/218/66
f 94/219/67 91/220/67 73/221/67 72/222/67
f 93/223/68 92/224/68 74/225/68 71/226/68
f 236/227/69 94/228/69 72/229/69 231/230/69
f 235/231/70 93/232/70 71/233/70 232/234/70
f 86/235/71 84/236/71 78/237/71 76/238/71
f 280/239/72 86/240/72 76/241/72 277/242/72
f 279/243/73 83/244/73 77/245/73 278/246/73
f 83/247/74 85/248/74 75/249/74 77/250/74
f 72/222/75 73/221/75 81/251/75 80/252/75
f 71/226/76 74/225/76 82/253/76 79/254/76
f 231/230/77 72/229/77 80/255/77 233/256/77
f 232/234/78 71/233/78 79/257/78 234/258/78
f 87/259/79 89/260/79 85/248/79 83/247/79
f 282/261/80 87/262/80 83/244/80 279/243/80
f 281/263/81 90/264/81 86/240/81 280/239/81
f 90/265/82 88/266/82 84/236/82 86/235/82
f 70/206/83 69/205/83 88/266/83 90/265/83
f 275/210/84 70/209/84 90/264/84 281/263/84
f 276/214/85 68/213/85 87/262/85 282/261/85
f 68/218/86 67/217/86 89/260/86 87/259/86
f 230/202/87 63/201/87 93/232/87 235/231/87
f 229/198/88 65/197/88 94/228/88 236/227/88
f 63/194/89 66/193/89 92/224/89 93/223/89
f 65/190/90 64/189/90 91/220/90 94/219/90
f 191/267/91 189/268/91 103/269/91 104/270/91
f 34/271/92 11/46/92 98/272/92 97/273/92
f 33/2/93 34/271/93 97/273/93 96/3/93
f 11/46/94 10/45/94 95/274/94 98/272/94
f 99/275/95 100/276/95 101/277/95 102/278/95
f 96/279/96 97/280/96 101/277/96 100/276/96
f 97/280/97 98/281/97 102/278/97 101/277/97
f 95/282/98 96/279/98 100/276/98 99/275/98
f 144/283/99 143/284/99 141/285/99 139/286/99
f 189/287/100 190/288/100 105/289/100 103/290/100
f 192/291/101 191/267/101 104/270/101 106/292/101
f 190/288/102 192/291/102 106/292/102 105/289/102
f 109/293/103 107/294/103 111/295/103 113/296/103
f 15/32/104 13/9/104 109/12/104 110/297/104
f 37/298/105 15/299/105 110/300/105 108/301/105
f 36/10/106 37/298/106 108/301/106 107/11/106
f 113/296/107 111/295/107 112/302/107 114/303/107
f 108/304/108 110/305/108 114/303/108 112/302/108
f 107/294/109 108/304/109 112/302/109 111/295/109
f 195/306/110 193/307/110 117/308/110 115/309/110
f 115/309/111 117/308/111 149/310/111 147/311/111
f 193/307/112 194/312/112 118/313/112 117/308/112
f 196/314/113 195/306/113 115/309/113 116/315/113
f 194/312/114 196/316/114 116/317/114 118/313/114
f 114/303/115 110/305/115 122/318/115 121/319/115
f 110/320/116 109/293/116 120/321/116 122/322/116
f 113/296/117 114/303/117 121/319/117 119/323/117
f 109/293/118 113/296/118 119/323/118 120/321/118
f 99/275/119 102/278/119 126/324/119 125/325/119
f 102/278/120 98/281/120 124/326/120 126/324/120
f 95/282/121 99/275/121 125/325/121 123/327/121
f 98/281/122 95/328/122 123/329/122 124/326/122
f 300/330/123 203/331/123 128/332/123 283/333/123
f 254/334/124 205/335/124 132/336/124 237/337/124
f 299/338/125 204/339/125 130/340/125 284/341/125
f 206/342/126 208/343/126 131/344/126 127/345/126
f 204/346/127 207/347/127 129/348/127 130/349/127
f 253/350/128 206/342/128 127/345/128 238/351/128
f 211/352/129 9/353/129 1/354/129 214/355/129
f 239/356/130 240/357/130 134/358/130 133/359/130
f 273/179/131 59/178/131 135/360/131 285/361/131
f 228/181/132 58/180/132 134/358/132 240/357/132
f 61/183/133 60/182/133 136/362/133 137/363/133
f 58/180/134 57/184/134 133/359/134 134/358/134
f 274/186/135 61/185/135 137/364/135 286/365/135
f 140/366/136 139/367/136 141/368/136 142/369/136
f 145/370/137 144/371/137 139/372/137 140/373/137
f 146/374/138 145/370/138 140/373/138 142/375/138
f 143/284/139 146/374/139 142/375/139 141/285/139
f 105/289/140 106/292/140 146/374/140 143/284/140
f 106/292/141 104/270/141 145/370/141 146/374/141
f 104/270/142 103/269/142 144/371/142 145/370/142
f 103/290/143 105/289/143 143/284/143 144/283/143
f 147/311/144 149/310/144 153/376/144 151/377/144
f 116/315/145 115/309/145 147/311/145 148/378/145
f 118/313/146 116/317/146 148/379/146 150/380/146
f 117/308/147 118/313/147 150/380/147 149/310/147
f 152/381/148 151/382/148 153/383/148 154/384/148
f 148/378/149 147/311/149 151/377/149 152/385/149
f 150/380/150 148/379/150 152/386/150 154/387/150
f 149/310/151 150/380/151 154/387/151 153/376/151
f 80/252/152 81/251/152 157/81/152 156/80/152
f 79/254/153 82/253/153 158/77/153 155/76/153
f 233/256/154 80/255/154 156/73/154 241/72/154
f 234/258/155 79/257/155 155/61/155 242/60/155
f 76/238/156 78/237/156 162/97/156 160/96/156
f 277/242/157 76/241/157 160/93/157 287/92/157
f 278/246/158 77/245/158 161/89/158 288/88/158
f 77/250/159 75/249/159 159/18/159 161/17/159
f 7/388/160 5/389/160 165/216/160 163/215/160
f 259/390/161 7/391/161 163/212/161 289/211/161
f 256/392/162 19/393/162 166/208/162 290/207/162
f 19/394/163 17/395/163 164/204/163 166/203/163
f 214/396/164 1/397/164 169/200/164 243/199/164
f 209/398/165 17/399/165 170/196/165 244/195/165
f 1/400/166 3/401/166 168/192/166 169/191/166
f 17/402/167 19/403/167 167/188/167 170/187/167
f 310/404/168 291/52/168 176/55/168 306/405/168
f 308/406/169 245/48/169 175/51/169 305/407/169
f 301/408/170 171/44/170 172/47/170 302/409/170
f 309/410/171 292/38/171 173/39/171 303/411/171
f 303/412/172 173/31/172 174/33/172 304/413/172
f 307/414/173 246/25/173 171/26/173 301/415/173
f 211/352/174 247/416/174 182/417/174 9/353/174
f 14/22/175 178/418/175 179/419/175 16/23/175
f 257/27/176 293/420/176 178/421/176 14/28/176
f 9/35/177 182/422/177 177/423/177 12/36/177
f 215/57/178 248/424/178 180/425/178 23/58/178
f 261/41/179 294/426/179 181/427/179 21/42/179
f 247/416/180 249/428/180 183/429/180 182/417/180
f 178/418/181 185/430/181 186/431/181 179/419/181
f 293/420/182 295/432/182 185/433/182 178/421/182
f 182/422/183 183/434/183 184/435/183 177/423/183
f 248/424/184 250/436/184 187/437/184 180/425/184
f 294/426/185 296/438/185 188/439/185 181/427/185
f 125/325/186 126/324/186 192/291/186 190/288/186
f 126/324/187 124/326/187 191/267/187 192/291/187
f 123/327/188 125/325/188 190/288/188 189/287/188
f 124/326/189 123/329/189 189/268/189 191/267/189
f 121/319/190 122/318/190 196/316/190 194/312/190
f 122/322/191 120/321/191 195/306/191 196/314/191
f 119/323/192 121/319/192 194/312/192 193/307/192
f 120/321/193 119/323/193 193/307/193 195/306/193
f 283/333/194 128/332/194 200/173/194 297/172/194
f 237/337/195 132/336/195 202/171/195 251/170/195
f 284/341/196 130/340/196 201/167/196 298/166/196
f 127/345/197 131/344/197 199/164/197 197/135/197
f 130/349/198 129/348/198 198/161/198 201/160/198
f 238/351/199 127/345/199 197/135/199 252/134/199
f 224/149/200 46/148/200 206/342/200 253/350/200
f 49/153/201 48/152/201 207/347/201 204/346/201
f 46/148/202 45/155/202 208/343/202 206/342/202
f 270/125/203 49/124/203 204/339/203 299/338/203
f 223/141/204 50/140/204 205/335/204 254/334/204
f 269/145/205 47/144/205 203/331/205 300/330/205
f 45/440/206 223/141/206 254/334/206 208/441/206
f 47/144/207 224/149/207 253/350/207 203/331/207
f 128/332/208 238/351/208 252/134/208 200/173/208
f 131/442/209 237/337/209 251/170/209 199/443/209
f 177/444/210 184/445/210 250/436/210 248/424/210
f 181/427/211 188/439/211 249/428/211 247/416/211
f 12/446/212 177/444/212 248/424/212 215/57/212
f 21/42/213 181/427/213 247/416/213 211/352/213
f 306/405/214 176/55/214 246/25/214 307/414/214
f 302/447/215 172/448/215 245/48/215 308/406/215
f 3/449/216 209/398/216 244/195/216 168/450/216
f 19/451/217 214/396/217 243/199/217 167/452/217
f 81/453/155 234/258/155 242/60/155 157/454/155
f 82/455/154 233/256/154 241/72/154 158/456/154
f 59/178/132 228/181/132 240/357/132 135/360/132
f 285/361/130 135/360/130 240/357/130 239/356/130 138/457/130 286/458/130
f 21/42/218 211/352/218 214/355/218 19/43/218
f 203/331/219 253/350/219 238/351/219 128/332/219
f 208/441/220 254/334/220 237/337/220 131/442/220
f 66/459/88 229/198/88 236/227/88 92/460/88
f 64/461/87 230/202/87 235/231/87 91/462/87
f 73/463/78 232/234/78 234/258/78 81/453/78
f 74/464/77 231/230/77 233/256/77 82/455/77
f 91/462/70 235/231/70 232/234/70 73/463/70
f 92/460/69 236/227/69 231/230/69 74/464/69
f 167/452/221 243/199/221 230/202/221 64/461/221
f 168/450/222 244/195/222 229/198/222 66/459/222
f 53/174/223 226/137/223 228/181/223 59/178/223
f 57/465/224 227/159/224 239/177/224 133/466/224
f 199/443/225 251/170/225 225/156/225 51/467/225
f 51/467/226 225/156/226 227/159/226 57/465/226
f 41/143/227 222/146/227 224/149/227 47/144/227
f 39/468/228 221/138/228 223/141/228 45/440/228
f 200/173/229 252/134/229 226/137/229 53/174/229
f 2/104/230 219/113/230 221/131/230 39/128/230
f 4/101/231 220/100/231 213/117/231 34/105/231
f 20/119/232 219/113/232 210/114/232 38/120/232
f 18/115/233 220/100/233 222/103/233 41/132/233
f 158/456/21 241/72/21 217/75/21 25/469/21
f 25/470/20 217/68/20 218/71/20 26/471/20
f 11/472/234 34/473/234 213/66/234 216/49/234
f 157/454/17 242/60/17 218/63/17 28/474/17
f 3/475/235 12/446/235 215/57/235 209/56/235
f 172/448/236 11/472/236 216/49/236 245/48/236
f 176/55/237 22/54/237 212/13/237 246/25/237
f 22/54/238 38/65/238 210/14/238 212/13/238
f 136/362/130 285/361/130 286/458/130 137/363/130
f 48/152/239 269/145/239 300/330/239 207/347/239
f 50/140/240 270/125/240 299/338/240 205/335/240
f 132/336/241 284/341/241 298/166/241 202/171/241
f 129/348/242 283/333/242 297/172/242 198/161/242
f 179/476/243 186/477/243 296/438/243 294/426/243
f 180/425/244 187/437/244 295/432/244 293/420/244
f 16/478/245 179/476/245 294/426/245 261/41/245
f 23/58/246 180/425/246 293/420/246 257/27/246
f 305/407/247 175/51/247 292/38/247 309/410/247
f 304/479/248 174/480/248 291/52/248 310/404/248
f 5/481/249 256/392/249 290/207/249 165/482/249
f 17/483/250 259/390/250 289/211/250 164/484/250
f 78/485/158 278/246/158 288/88/158 162/486/158
f 75/487/157 277/242/157 287/92/157 159/488/157
f 62/158/251 274/186/251 286/365/251 138/176/251
f 60/182/252 273/179/252 285/361/252 136/362/252
f 205/335/253 299/338/253 284/341/253 132/336/253
f 207/347/254 300/330/254 283/333/254 129/348/254
f 69/489/255 276/214/255 282/261/255 88/490/255
f 67/491/84 275/210/84 281/263/84 89/492/84
f 89/492/81 281/263/81 280/239/81 85/493/81
f 88/490/256 282/261/256 279/243/256 84/494/256
f 84/494/73 279/243/73 278/246/73 78/485/73
f 85/493/72 280/239/72 277/242/72 75/487/72
f 164/484/257 289/211/257 276/214/257 69/489/257
f 165/482/258 290/207/258 275/210/258 67/491/258
f 56/157/259 272/169/259 274/186/259 62/158/259
f 54/162/260 271/175/260 273/179/260 60/182/260
f 198/161/261 297/172/261 271/175/261 54/162/261
f 202/171/262 298/166/262 272/169/262 56/157/262
f 42/151/263 267/142/263 269/145/263 48/152/263
f 8/108/264 265/107/264 267/133/264 42/126/264
f 20/119/265 266/118/265 268/129/265 44/130/265
f 44/139/266 268/122/266 270/125/266 50/140/266
f 6/111/267 266/118/267 260/121/267 37/112/267
f 18/115/268 265/107/268 255/110/268 35/116/268
f 159/488/26 287/92/26 263/95/26 29/495/26
f 162/486/25 288/88/25 264/91/25 32/496/25
f 32/497/24 264/84/24 263/87/24 31/498/24
f 15/499/269 37/500/269 260/64/269 262/53/269
f 174/480/270 15/499/270 262/53/270 291/52/270
f 5/501/271 16/478/271 261/41/271 256/40/271
f 175/51/272 24/50/272 258/5/272 292/38/272
f 23/58/273 257/27/273 259/30/273 17/59/273
f 24/50/274 35/67/274 255/6/274 258/5/274
f 186/477/275 304/479/275 310/404/275 296/438/275
f 187/437/276 305/407/276 309/410/276 295/432/276
f 184/445/277 302/447/277 308/406/277 250/436/277
f 188/439/278 306/405/278 307/414/278 249/428/278
f 249/428/279 307/414/279 301/415/279 183/429/279
f 185/430/280 303/412/280 304/413/280 186/431/280
f 295/432/281 309/410/281 303/411/281 185/433/281
f 183/434/282 301/408/282 302/409/282 184/435/282
f 250/436/283 308/406/283 305/407/283 187/437/283
f 296/438/284 310/404/284 306/405/284 188/439/284
usemtl Material.087
f 314/502/285 334/503/285 351/504/285 352/505/285
f 340/506/286 322/507/286 318/508/286 335/509/286
f 341/510/287 330/511/287 316/512/287 336/513/287
f 338/514/288 326/515/288 312/516/288 333/517/288
f 332/518/289 328/519/289 312/516/289 326/520/289
f 330/521/290 331/522/290 325/523/290 316/524/290
f 360/525/291 332/518/291 326/520/291 359/526/291
f 336/513/292 316/512/292 325/527/292 337/528/292
f 362/529/293 359/530/293 326/515/293 338/514/293
f 334/503/294 314/502/294 321/531/294 339/532/294
f 361/533/295 358/534/295 322/507/295 340/506/295
f 358/535/296 321/536/296 353/537/296 365/538/296
f 318/539/297 322/540/297 354/541/297 355/542/297
f 352/543/298 353/537/298 321/536/298 314/544/298
f 335/509/299 318/508/299 355/545/299 356/546/299
f 333/517/300 312/516/300 328/519/300 342/547/300
f 311/548/301 333/549/301 342/550/301 327/551/301
f 335/552/302 356/553/302 349/554/302 317/555/302
f 357/556/303 361/557/303 340/558/303 319/559/303
f 313/560/304 334/561/304 339/562/304 320/563/304
f 315/564/305 336/565/305 337/566/305 324/567/305
f 323/568/306 338/569/306 333/549/306 311/548/306
f 329/570/307 341/571/307 336/565/307 315/564/307
f 319/559/308 340/558/308 335/552/308 317/555/308
f 334/561/309 313/560/309 350/572/309 351/573/309
f 363/574/310 364/575/310 346/576/310 343/577/310
f 324/578/311 337/579/311 345/580/311 344/581/311 371/582/311 406/583/311 348/584/311
f 338/585/312 323/586/312 347/587/312 404/588/312 372/589/312 343/577/312 346/576/312
f 362/590/313 338/591/313 346/592/313 364/593/313
f 324/567/314 348/594/314 329/570/314 315/564/314
f 399/595/315 366/596/315 383/596/315 410/595/315
f 366/596/316 350/572/316 394/572/316 383/596/316
f 407/597/317 329/570/317 390/570/317 413/597/317
f 371/582/318 344/581/318 386/581/318 387/582/318
f 311/548/319 327/551/319 347/598/319 323/568/319
f 349/554/320 373/599/320 392/599/320 379/554/320
f 399/595/321 327/551/321 342/550/321 408/600/321
f 375/601/322 352/505/322 351/504/322 374/602/322
f 402/603/323 409/604/323 328/605/323 332/606/323
f 376/607/324 365/538/324 353/537/324 369/608/324
f 367/609/325 355/542/325 354/541/325 368/610/325
f 367/611/326 370/612/326 356/546/326 355/545/326
f 370/613/327 373/599/327 349/554/327 356/553/327
f 368/610/328 354/541/328 365/538/328 376/607/328
f 343/577/329 372/589/329 388/589/329 393/577/329
f 337/614/330 362/590/330 364/593/330 345/615/330
f 344/581/331 345/580/331 364/575/331 363/574/331
f 320/563/332 339/562/332 361/557/332 357/556/332
f 322/540/333 358/535/333 365/538/333 354/541/333
f 339/532/334 321/531/334 358/534/334 361/533/334
f 337/528/335 325/527/335 359/530/335 362/529/335
f 331/522/336 360/525/336 359/526/336 325/523/336
f 401/616/337 368/610/337 376/607/337 405/617/337
f 403/618/338 407/597/338 373/599/338 370/613/338
f 400/619/339 403/620/339 370/612/339 367/611/339
f 400/621/340 367/609/340 368/610/340 401/616/340
f 405/617/341 376/607/341 369/608/341 402/603/341
f 353/537/342 352/543/342 375/622/342 369/608/342
f 409/623/343 375/601/343 374/602/343 408/624/343
f 350/572/344 366/596/344 374/625/344 351/573/344
f 317/555/345 349/554/345 379/554/345 380/555/345
f 329/570/346 348/594/346 391/594/346 390/570/346
f 391/584/347 412/583/347 418/583/347 417/584/347
f 379/626/348 386/627/348 381/628/348 380/629/348
f 382/630/349 385/631/349 393/632/349 377/633/349
f 378/634/350 377/633/350 393/632/350 394/635/350
f 383/636/351 394/635/351 393/632/351 388/637/351
f 381/628/352 386/627/352 385/631/352 382/630/352
f 383/636/353 388/637/353 397/637/353 395/636/353
f 386/627/354 379/626/354 392/638/354 387/639/354
f 313/560/355 320/563/355 377/563/355 378/560/355
f 363/574/356 343/577/356 393/577/356 385/574/356
f 344/581/357 363/574/357 385/574/357 386/581/357
f 350/572/358 313/560/358 378/560/358 394/572/358
f 319/559/359 317/555/359 380/555/359 381/559/359
f 404/588/360 347/587/360 389/587/360 411/640/360
f 357/556/361 319/559/361 381/559/361 382/556/361
f 320/563/362 357/556/362 382/556/362 377/563/362
f 406/583/363 371/582/363 387/582/363 412/583/363
f 347/598/364 327/551/364 384/551/364 389/598/364
f 414/641/365 395/636/365 397/637/365 415/642/365
f 410/595/366 383/596/366 395/596/366 414/643/366
f 389/598/367 384/551/367 396/551/367 398/598/367
f 411/640/368 389/587/368 398/587/368 415/644/368
f 388/589/369 411/640/369 415/644/369 397/589/369
f 384/551/370 410/595/370 414/643/370 396/551/370
f 396/645/371 414/641/371 415/642/371 398/646/371
f 348/584/372 406/583/372 412/583/372 391/584/372
f 372/589/373 404/588/373 411/640/373 388/589/373
f 387/639/374 392/638/374 413/647/374 412/648/374
f 328/519/375 409/623/375 408/624/375 342/547/375
f 360/649/376 405/617/376 402/603/376 332/606/376
f 330/650/377 400/621/377 401/616/377 331/651/377
f 330/652/378 341/653/378 403/620/378 400/619/378
f 341/571/379 329/570/379 407/597/379 403/618/379
f 331/651/380 401/616/380 405/617/380 360/649/380
f 369/608/381 375/622/381 409/604/381 402/603/381
f 366/596/382 399/595/382 408/600/382 374/625/382
f 373/599/383 407/597/383 413/597/383 392/599/383
f 327/551/384 399/595/384 410/595/384 384/551/384
f 419/597/385 416/570/385 420/570/385 423/597/385
f 412/648/386 413/647/386 419/647/386 418/648/386
f 413/597/387 390/570/387 416/570/387 419/597/387
f 390/570/388 391/594/388 417/594/388 416/570/388
f 422/648/389 423/647/389 420/654/389 421/655/389
f 416/570/390 417/594/390 421/594/390 420/570/390
f 418/648/391 419/647/391 423/647/391 422/648/391
f 417/584/392 418/583/392 422/583/392 421/584/392
