# Blender 4.1.0
# www.blender.org
mtllib fotka.mtl
o polaroid_foto_
v 58.919865 1.774102 1.305854
v 58.934349 1.779683 1.260611
v 58.919865 1.774102 1.120818
v 58.934349 1.779683 1.135301
v 59.076443 1.774102 1.305854
v 59.061958 1.779683 1.260611
v 59.076443 1.774102 1.120818
v 59.061958 1.779683 1.135301
v 58.919865 1.779683 1.305854
v 58.919865 1.779683 1.120818
v 59.076443 1.779683 1.120818
v 59.076443 1.779683 1.305854
vn -1.0000 -0.0000 -0.0000
vn -0.0000 -0.0000 -1.0000
vn 1.0000 -0.0000 -0.0000
vn -0.0000 -0.0000 1.0000
vn -0.0000 -1.0000 -0.0000
vn -0.0000 1.0000 -0.0000
vt 0.000000 0.229174
vt 0.008167 0.229174
vt 0.008167 0.500000
vt 0.000000 0.500000
vt 0.008167 0.729174
vt 0.000000 0.729174
vt 0.008167 1.000000
vt 0.000000 1.000000
vt 0.000000 -0.000000
vt 0.008167 -0.000000
vt 0.278993 0.229175
vt 0.278993 0.458349
vt 0.008167 0.458349
vt 0.008167 0.229175
vt 0.700589 0.648569
vt 0.505905 0.648569
vt 0.505905 0.457398
vt 0.700589 0.457398
vt 0.212775 0.515710
vt 0.029365 0.515710
vt 0.008167 0.494513
vt 0.278993 0.494513
vt 0.029365 0.702490
vt 0.008168 0.723687
vt 0.212775 0.702490
vt 0.278993 0.723687
vt 0.212775 0.702489
vt 0.278993 0.723687
s 0
usemtl Material.028
f 1/1/1 9/2/1 10/3/1 3/4/1
f 3/4/2 10/3/2 11/5/2 7/6/2
f 7/6/3 11/5/3 12/7/3 5/8/3
f 5/9/4 12/10/4 9/2/4 1/1/4
f 3/11/5 7/12/5 5/13/5 1/14/5
f 8/15/6 4/16/6 2/17/6 6/18/6
f 2/19/6 4/20/6 10/21/6 9/22/6
f 4/20/6 8/23/6 11/24/6 10/21/6
f 8/23/6 6/25/6 12/26/6 11/24/6
f 6/27/6 2/19/6 9/22/6 12/28/6
