# Blender 4.1.0
# www.blender.org
mtllib plank.mtl
o plank
v 148.046478 0.741427 -1.558589
v 148.046478 0.783977 -1.558589
v 148.046478 0.741427 -1.805534
v 148.046478 0.783977 -1.805534
v 149.520477 0.741427 -1.558589
v 149.520477 0.783977 -1.558589
v 149.520477 0.741427 -1.805534
v 149.520477 0.783977 -1.805534
vn -1.0000 -0.0000 -0.0000
vn -0.0000 -0.0000 -1.0000
vn 1.0000 -0.0000 -0.0000
vn -0.0000 -0.0000 1.0000
vn -0.0000 -1.0000 -0.0000
vn -0.0000 1.0000 -0.0000
vt 0.311271 0.369081
vt 0.332722 0.369081
vt 0.332722 0.500000
vt 0.311271 0.500000
vt 0.332722 0.832880
vt 0.311271 0.832880
vt 0.332722 0.963798
vt 0.311271 0.963798
vt 0.311272 0.036202
vt 0.332722 0.036202
vt 0.524663 0.450287
vt 0.524663 0.117407
vt 0.655581 0.117407
vt 0.655581 0.450287
vt 0.786500 0.117407
vt 0.786500 0.450287
s 0
g plank_Material.042
usemtl Material.042
f 1/1/1 2/2/1 4/3/1 3/4/1
f 3/4/2 4/3/2 8/5/2 7/6/2
f 7/6/3 8/5/3 6/7/3 5/8/3
f 5/9/4 6/10/4 2/2/4 1/1/4
f 3/11/5 7/12/5 5/13/5 1/14/5
f 8/15/6 4/16/6 2/14/6 6/13/6
