# Blender 4.1.0
# www.blender.org
mtllib plastova zidle.mtl
g plastova_zidla__Plane.007
v 267.124542 1.201478 -0.023225
v 267.713074 1.201478 -0.023225
v 267.198883 1.201478 -0.497542
v 267.647064 1.201478 -0.497542
v 267.207733 1.201478 -0.023225
v 267.632324 1.201478 -0.023225
v 267.585571 1.201478 -0.497542
v 267.262238 1.201478 -0.497542
v 267.735138 0.784989 0.124947
v 267.654388 0.784989 0.124947
v 267.087006 0.816970 0.133594
v 267.170197 0.816970 0.133594
v 267.164612 0.842286 -0.628835
v 267.227966 0.842286 -0.628835
v 267.643372 0.839498 -0.618650
v 267.581879 0.839498 -0.618650
v 267.135498 1.673836 -0.598814
v 267.704834 1.673836 -0.598814
v 267.623230 1.690707 -0.598814
v 267.215424 1.690707 -0.598814
v 267.222473 1.604544 -0.567070
v 267.617554 1.604544 -0.567070
v 267.703247 1.604544 -0.567070
v 267.145050 1.604544 -0.567070
v 267.080505 1.624666 -0.577387
v 267.087250 1.566621 -0.530032
v 267.026093 1.530674 -0.397164
v 267.050079 1.484358 -0.377539
v 267.027679 1.374423 -0.144821
v 267.071259 1.318495 -0.155891
v 267.064301 1.325674 -0.050800
v 267.092438 1.283157 -0.065897
v 267.726898 1.628135 -0.524913
v 267.726776 1.574743 -0.516654
v 267.794617 1.524783 -0.371243
v 267.780060 1.473143 -0.362078
v 267.770111 1.361361 -0.139189
v 267.748138 1.303386 -0.142810
v 267.736969 1.288718 -0.039208
v 267.712921 1.257379 -0.056673
v 267.292664 1.201478 -0.008700
v 267.377563 1.201478 -0.008700
v 267.462494 1.201478 -0.008700
v 267.547394 1.201478 -0.008700
v 267.520905 1.201478 -0.497542
v 267.456238 1.201478 -0.497542
v 267.391571 1.201478 -0.497542
v 267.326904 1.201478 -0.497542
v 267.541656 1.699648 -0.598814
v 267.460083 1.699648 -0.598814
v 267.378540 1.699648 -0.598814
v 267.296967 1.699648 -0.598814
v 267.538544 1.604544 -0.567070
v 267.459503 1.604544 -0.567070
v 267.380493 1.604544 -0.567070
v 267.301483 1.604544 -0.567070
v 267.254303 1.282989 -0.510277
v 267.656189 1.282989 -0.510277
v 267.591980 1.282989 -0.510277
v 267.188110 1.282989 -0.510277
v 267.321838 1.282989 -0.510277
v 267.389374 1.282989 -0.510277
v 267.456909 1.282989 -0.510277
v 267.524445 1.282989 -0.510277
v 267.262238 1.198726 -0.509696
v 267.198883 1.198726 -0.509696
v 267.647064 1.198726 -0.509696
v 267.585571 1.198726 -0.509696
v 267.326904 1.198726 -0.509696
v 267.215424 1.687955 -0.610968
v 267.135498 1.671084 -0.610968
v 267.701691 1.671084 -0.610968
v 267.623230 1.687955 -0.610968
v 267.296967 1.696896 -0.610968
v 267.254303 1.280237 -0.522431
v 267.617554 1.601792 -0.579224
v 267.656189 1.280237 -0.522431
v 267.145050 1.601792 -0.579224
v 267.222473 1.601792 -0.579224
v 267.591980 1.280237 -0.522431
v 267.697906 1.601792 -0.579224
v 267.188110 1.280237 -0.522431
v 267.301483 1.601792 -0.579224
v 267.520905 1.198726 -0.509696
v 267.456238 1.198726 -0.509696
v 267.391571 1.198726 -0.509696
v 267.541656 1.696896 -0.610968
v 267.460114 1.696896 -0.610968
v 267.378540 1.696896 -0.610968
v 267.538544 1.601792 -0.579224
v 267.459503 1.601792 -0.579224
v 267.380493 1.601792 -0.579224
v 267.321838 1.280237 -0.522431
v 267.389374 1.280237 -0.522431
v 267.456909 1.280237 -0.522431
v 267.524445 1.280237 -0.522431
v 267.165527 0.839540 -0.643515
v 267.231689 0.839548 -0.646848
v 267.644775 0.837548 -0.636297
v 267.578857 0.838265 -0.639902
v 267.632324 1.207841 0.009217
v 267.713074 1.207841 0.009217
v 267.124542 1.207841 0.009217
v 267.207733 1.207841 0.009217
v 267.654388 0.785858 0.144517
v 267.735138 0.785858 0.144517
v 267.087006 0.816820 0.157720
v 267.170197 0.816820 0.157720
v 267.745972 0.785534 0.124871
v 267.723938 1.202023 -0.023301
v 267.745972 0.786403 0.144441
v 267.723938 1.208386 0.009141
v 267.117310 1.202149 -0.023299
v 267.079773 0.817640 0.133520
v 267.117310 1.208512 0.009143
v 267.079773 0.817491 0.157646
v 267.714661 1.672197 -0.603420
v 267.713074 1.602905 -0.571676
v 267.736633 1.626344 -0.529677
v 267.736359 1.572723 -0.521653
v 267.804443 1.522211 -0.375419
v 267.790283 1.469970 -0.364527
v 267.780304 1.357339 -0.139986
v 267.758087 1.298776 -0.143003
v 267.722656 1.252288 -0.056345
v 267.746704 1.283626 -0.038881
v 267.138702 1.600817 -0.573026
v 267.128662 1.670109 -0.604770
v 267.083191 1.562749 -0.534276
v 267.079315 1.620771 -0.583112
v 267.044708 1.480608 -0.380126
v 267.020935 1.527015 -0.400220
v 267.065582 1.314451 -0.156860
v 267.022064 1.370456 -0.146305
v 267.086761 1.279035 -0.065991
v 267.058624 1.321551 -0.050894
v 267.648010 1.209917 -0.498861
v 267.197784 1.209917 -0.498861
v 267.261414 1.207165 -0.511015
v 267.648010 1.207165 -0.511015
v 267.586243 1.207165 -0.511015
v 267.197784 1.207165 -0.511015
v 267.326385 1.207165 -0.511015
v 267.391357 1.207165 -0.511015
v 267.456299 1.207165 -0.511015
v 267.521271 1.207165 -0.511015
v 267.586243 1.209917 -0.498861
v 267.521271 1.209917 -0.498861
v 267.456299 1.209917 -0.498861
v 267.391357 1.209917 -0.498861
v 267.326385 1.209917 -0.498861
v 267.261414 1.209917 -0.498861
v 267.291473 1.204599 0.015683
v 267.379028 1.205953 0.017041
v 267.463379 1.206365 0.016265
v 267.548889 1.196346 0.006398
vn -0.0000 -1.0000 -0.0000
vn -0.9987 -0.0502 0.0070
vn 0.9957 -0.0924 0.0101
vn -0.0000 -0.3433 0.9392
vn -0.0000 -0.3173 0.9483
vn -0.0000 0.9753 -0.2208
vn -0.9914 -0.1277 0.0287
vn 0.1063 0.9698 -0.2196
vn -0.9420 0.1691 0.2898
vn -0.0000 -0.9753 0.2208
vn -0.5381 0.6463 0.5411
vn 0.1559 -0.2373 0.9589
vn -0.7171 0.2040 0.6664
vn 0.5702 -0.8210 0.0294
vn 0.8917 0.4475 0.0678
vn 0.3370 0.7045 0.6246
vn 0.3469 0.8399 0.4173
vn 0.3703 0.8377 0.4015
vn 0.4439 0.3648 0.8185
vn -0.9287 0.2954 0.2241
vn -0.9969 0.0762 -0.0175
vn 0.9991 -0.0421 0.0097
vn -1.0000 0.0078 -0.0020
vn 0.9919 0.1240 -0.0279
vn -0.9916 -0.1265 0.0284
vn 0.9996 0.0265 -0.0058
vn 0.9939 -0.1074 0.0245
vn -0.9981 -0.0607 0.0135
vn 0.9707 -0.1649 -0.1749
vn -0.0184 -0.3297 -0.9439
vn -0.0399 -0.3757 -0.9259
vn 0.0401 -0.3741 -0.9265
vn -0.0000 -0.1739 -0.9848
vn 0.0183 -0.3295 -0.9440
vn -0.0000 -0.3166 -0.9486
vn -0.0000 -0.1544 -0.9880
vn -0.2017 0.9553 -0.2163
vn 0.2002 0.9497 -0.2409
vn -0.1063 0.9698 -0.2196
vn 0.9953 0.0947 -0.0212
vn -0.9917 0.1147 -0.0575
vn -0.0241 0.3547 -0.9347
vn 0.9786 -0.1434 0.1475
vn -0.9956 -0.0177 0.0920
vn -0.0079 -0.9966 0.0819
vn 0.0043 -0.9861 0.1660
vn 0.9984 -0.0257 0.0508
vn 0.0285 0.3348 -0.9419
vn -0.0000 0.3053 0.9523
vn -0.0000 0.3550 0.9349
vn -0.0000 0.9813 -0.1925
vn -0.0000 -0.9990 0.0444
vn 0.0232 0.3530 0.9353
vn -0.0000 -1.0000 -0.0062
vn -0.0087 0.3049 0.9523
vn -0.0000 -0.3352 -0.9422
vn -0.0000 -0.3776 -0.9260
vn -0.0000 0.1544 0.9880
vn -0.0401 0.3741 0.9265
vn -0.0183 0.3295 0.9440
vn -0.0000 0.3166 0.9486
vn 0.0184 0.3297 0.9439
vn 0.0379 0.3763 0.9257
vn -0.0000 0.1739 0.9848
vn 0.9987 0.0502 -0.0070
vn -0.0506 0.9800 -0.1922
vn 0.0102 -0.3347 -0.9423
vn 0.0504 -0.9977 0.0443
vn -0.9957 0.0924 -0.0101
vn -0.0923 -0.9957 -0.0062
vn -0.0254 -0.3754 -0.9265
vn 0.0926 0.9771 -0.1916
vn 0.8956 -0.1492 -0.4192
vn 0.8596 -0.2012 -0.4697
vn 0.9410 -0.3173 -0.1173
vn 0.8861 -0.4626 0.0297
vn -0.3656 -0.7501 -0.5510
vn -0.3541 -0.7141 -0.6039
vn -0.3737 -0.8294 -0.4153
vn 0.2121 0.3466 -0.9137
vn -0.3415 -0.8684 -0.3594
vn 0.3814 0.7374 0.5575
vn 0.9280 -0.3009 -0.2196
vn 0.1002 0.5011 0.8596
vn -0.1065 -0.5288 -0.8420
vn -0.0487 -0.9694 0.2408
vn 0.0524 0.9710 -0.2334
vn 0.4598 -0.3845 -0.8005
vn -0.0375 -0.5373 -0.8425
vn -0.7251 -0.5027 -0.4707
vn -0.7748 -0.5397 -0.3293
vn -0.8104 -0.5858 -0.0140
vn -0.6357 0.6551 0.4082
vn -0.7975 0.6000 0.0625
vn 0.5569 -0.7209 -0.4125
vn -0.6869 0.7268 -0.0018
vn 0.5996 -0.6132 -0.5143
vn 0.6994 -0.6873 -0.1960
vn -0.8955 0.1491 0.4193
vn -0.8605 0.1981 0.4694
vn -0.9402 0.3195 0.1183
vn -0.8856 0.4634 -0.0298
vn -0.8899 -0.4518 -0.0623
vn -0.1208 0.4083 0.9048
vn 0.3423 -0.9164 0.2075
vn -0.3216 0.9235 -0.2092
vn -0.5943 -0.4028 -0.6961
vn 0.8099 0.5864 0.0134
vn 0.7749 0.5394 0.3294
vn 0.0298 0.5302 0.8474
vn 0.7189 0.5127 0.4695
vn 0.9819 -0.1313 -0.1367
vn -0.9763 -0.1529 -0.1531
vn -0.0000 0.9998 0.0177
vn -0.0017 0.9998 0.0173
vn -0.0000 0.9999 0.0172
vn 0.0017 0.9998 0.0173
vn 0.0393 0.9857 -0.1637
vn -0.0066 0.9887 -0.1498
vn -0.0032 0.9834 -0.1814
vn 0.0588 0.9983 0.0026
vn -0.0697 0.9973 -0.0236
vt 0.583492 0.702631
vt 0.279507 0.672667
vt 0.279507 0.712079
vt 0.583492 0.754386
vt 0.583492 0.377193
vt 0.279508 0.424847
vt 0.279508 0.465451
vt 0.583492 0.430515
vt 0.592801 0.648207
vt 0.279507 0.631224
vt 0.727605 0.287118
vt 0.731996 0.003488
vt 0.744056 0.000000
vt 0.748607 0.284320
vt 0.844982 0.005685
vt 0.849070 0.272871
vt 0.828215 0.269131
vt 0.830602 0.000000
vt 0.645310 0.996759
vt 0.645310 0.750611
vt 0.607262 0.765211
vt 0.600026 1.000000
vt 0.983126 0.912757
vt 0.982083 0.678428
vt 0.943085 0.664587
vt 0.943085 0.913144
vt 0.602247 0.637066
vt 0.594339 0.637661
vt 0.592901 0.585493
vt 0.600965 0.585375
vt 0.273984 0.720788
vt 0.273147 0.931868
vt 0.265171 0.931458
vt 0.266008 0.720377
vt 0.607140 0.687991
vt 0.599388 0.689213
vt 0.792664 0.335787
vt 0.800742 0.337403
vt 0.801205 0.288499
vt 0.792664 0.286929
vt 0.880384 0.781811
vt 0.872398 0.781811
vt 0.872389 0.823254
vt 0.880376 0.823254
vt 0.017569 0.036593
vt 0.006582 0.104640
vt 0.002228 0.104450
vt 0.013417 0.036002
vt 0.048444 0.031900
vt 0.045743 0.000172
vt 0.049949 0.000000
vt 0.052649 0.031728
vt 0.393057 0.803660
vt 0.399336 0.803653
vt 0.399336 0.754386
vt 0.393260 0.754431
vt 0.049142 0.446331
vt 0.036433 0.392092
vt 0.041058 0.390616
vt 0.053727 0.443051
vt 0.350546 0.759333
vt 0.348316 0.821830
vt 0.370722 0.847510
vt 0.371148 0.754386
vt 0.124727 0.367136
vt 0.139905 0.446738
vt 0.133262 0.448405
vt 0.117853 0.368009
vt 0.143774 0.001317
vt 0.135789 0.057095
vt 0.128974 0.055888
vt 0.136976 0.000000
vt 0.109999 0.182824
vt 0.102965 0.181940
vt 0.393057 0.754386
vt 0.386028 0.754792
vt 0.386028 0.803649
vt 0.393057 0.803243
vt 0.237439 0.464362
vt 0.260684 0.449343
vt 0.257573 0.407710
vt 0.237158 0.402039
vt 0.279507 0.754386
vt 0.279508 0.964312
vt 0.287590 0.952497
vt 0.289851 0.768286
vt 0.181776 0.441529
vt 0.181776 0.482133
vt 0.173790 0.482132
vt 0.173790 0.441527
vt 0.872381 0.864698
vt 0.880367 0.864698
vt 0.345636 0.759358
vt 0.336099 0.768629
vt 0.340654 0.953569
vt 0.348316 0.962224
vt 0.872372 0.906141
vt 0.880358 0.906141
vt 0.803839 0.950519
vt 0.811987 0.938791
vt 0.814083 0.754387
vt 0.803839 0.740368
vt 0.279508 0.506895
vt 0.592801 0.484938
vt 0.279507 0.548338
vt 0.592801 0.539361
vt 0.279507 0.589781
vt 0.592801 0.593784
vt 0.738854 0.308470
vt 0.731035 0.310098
vt 0.731035 0.359327
vt 0.738854 0.357699
vt 0.273234 0.672992
vt 0.265258 0.672582
vt 0.872363 0.947584
vt 0.880350 0.947584
vt 0.870063 0.746648
vt 0.860376 0.755815
vt 0.864727 0.940967
vt 0.872363 0.949720
vt 0.265966 0.407949
vt 0.266057 0.402443
vt 0.274034 0.402039
vt 0.273942 0.407546
vt 0.793802 0.935286
vt 0.803839 0.944145
vt 0.799413 0.740368
vt 0.792046 0.749290
vt 0.265171 0.667062
vt 0.265171 0.455631
vt 0.273147 0.455227
vt 0.273811 0.666198
vt 0.593842 0.104698
vt 0.658100 0.102724
vt 0.652689 0.050418
vt 0.593840 0.054058
vt 0.593692 0.002548
vt 0.642532 0.000000
vt 0.593745 0.307255
vt 0.593692 0.356870
vt 0.642512 0.363207
vt 0.652590 0.311843
vt 0.209270 0.554005
vt 0.209270 0.511598
vt 0.000000 0.483998
vt 0.000000 0.533612
vt 0.209270 0.811579
vt 0.209270 0.770418
vt 0.000000 0.786810
vt 0.000000 0.838320
vt 0.209270 0.597287
vt 0.000000 0.584252
vt 0.000000 0.634891
vt 0.209270 0.640570
vt 0.209270 0.683853
vt 0.000000 0.685531
vt 0.000000 0.736170
vt 0.209270 0.727135
vt 0.658025 0.259539
vt 0.593769 0.256616
vt 0.658050 0.207267
vt 0.593794 0.205976
vt 0.658075 0.154996
vt 0.593818 0.155337
vt 0.256669 0.683476
vt 0.256669 0.725110
vt 0.256669 0.641843
vt 0.256669 0.600209
vt 0.256669 0.558576
vt 0.256669 0.766744
vt 0.256669 0.806336
vt 0.256669 0.517785
vt 0.189763 0.441529
vt 0.189763 0.480940
vt 0.181776 0.480939
vt 0.181776 0.441527
vt 0.880393 0.740368
vt 0.872407 0.740368
vt 0.592801 0.532842
vt 0.600810 0.532915
vt 0.593919 0.480475
vt 0.601889 0.480984
vt 0.740655 0.938005
vt 0.729997 0.951783
vt 0.613205 0.378633
vt 0.606084 0.429841
vt 0.598296 0.428693
vt 0.605404 0.377193
vt 0.738990 0.740368
vt 0.746740 0.752169
vt 0.615012 0.740246
vt 0.606707 0.739829
vt 0.950586 0.382057
vt 0.952157 0.628133
vt 0.958851 0.623777
vt 0.958851 0.377193
vt 0.687695 0.742981
vt 0.645310 0.740368
vt 0.647219 0.986945
vt 0.687695 0.990162
vt 0.597514 0.756935
vt 0.592801 0.995034
vt 0.990980 0.907930
vt 0.994181 0.668577
vt 0.947630 0.650271
vt 0.640374 0.740368
vt 0.965618 0.626723
vt 0.969152 0.382108
vt 0.958851 0.377193
vt 0.958851 0.622481
vt 0.729997 0.740963
vt 0.687695 0.740368
vt 0.690586 0.986014
vt 0.729997 0.986250
vt 0.800298 0.284356
vt 0.748607 0.286929
vt 0.748607 0.002573
vt 0.800298 0.000000
vt 0.964512 0.273906
vt 0.911403 0.269141
vt 0.911403 0.000000
vt 0.964512 0.004764
vt 0.792664 0.286929
vt 0.792664 0.338684
vt 0.771476 0.338684
vt 0.771476 0.286929
vt 0.681781 0.367186
vt 0.681781 0.315430
vt 0.694335 0.315430
vt 0.694335 0.367186
vt 0.906749 0.269144
vt 0.906749 0.000003
vt 0.709847 0.361792
vt 0.709847 0.308470
vt 0.731035 0.308470
vt 0.731035 0.361792
vt 0.709798 0.313123
vt 0.709797 0.366445
vt 0.694335 0.366445
vt 0.694335 0.313123
vt 0.807259 0.000001
vt 0.807259 0.284358
vt 0.675960 0.283739
vt 0.680352 0.000109
vt 0.898008 0.000074
vt 0.902096 0.267261
vt 0.922182 0.705697
vt 0.874554 0.710873
vt 0.874642 0.669551
vt 0.922250 0.665923
vt 0.274034 0.650998
vt 0.279507 0.650574
vt 0.279507 0.609131
vt 0.274034 0.609365
vt 0.279507 0.567688
vt 0.274034 0.567731
vt 0.279507 0.526244
vt 0.274034 0.526097
vt 0.279507 0.484801
vt 0.274034 0.484464
vt 0.279507 0.443358
vt 0.274034 0.442830
vt 0.922050 0.456614
vt 0.874349 0.452198
vt 0.874144 0.409532
vt 0.921883 0.415553
vt 0.664327 0.433122
vt 0.663109 0.383085
vt 0.664928 0.483736
vt 0.665027 0.534133
vt 0.665207 0.584641
vt 0.665428 0.635037
vt 0.665066 0.685530
vt 0.664118 0.740368
vt 0.874676 0.582655
vt 0.874686 0.626106
vt 0.874514 0.495707
vt 0.874622 0.539191
vt 0.828215 0.003674
vt 0.828215 0.287339
vt 0.807259 0.284215
vt 0.816211 0.000000
vt 0.196703 0.462735
vt 0.196703 0.441547
vt 0.203663 0.441527
vt 0.203663 0.462715
vt 0.669000 0.283630
vt 0.673392 0.000000
vt 0.681748 0.308470
vt 0.694302 0.308470
vt 0.922290 0.923393
vt 0.922290 0.656175
vt 0.936581 0.650271
vt 0.943085 0.919334
vt 0.694385 0.308470
vt 0.709847 0.308470
vt 0.902661 0.000000
vt 0.906749 0.267187
vt 0.203663 0.462715
vt 0.203663 0.441527
vt 0.208317 0.441564
vt 0.208317 0.462752
vt 0.053727 0.042892
vt 0.077122 0.000000
vt 0.085085 0.056852
vt 0.061564 0.082429
vt 0.102965 0.182535
vt 0.077072 0.206650
vt 0.092107 0.367069
vt 0.056715 0.386107
vt 0.081159 0.449377
vt 0.053727 0.453031
vt 0.279508 0.002104
vt 0.255221 0.064038
vt 0.248377 0.062385
vt 0.272788 -0.000000
vt 0.237547 0.242056
vt 0.230507 0.242106
vt 0.266922 0.361874
vt 0.260132 0.363736
vt 0.189763 0.469202
vt 0.196703 0.470390
vt 0.196703 0.442715
vt 0.189763 0.441527
vt 0.279507 0.400320
vt 0.272680 0.402039
vt 0.681748 0.308470
vt 0.661503 0.314720
vt 0.658100 0.353130
vt 0.681748 0.367507
vt 0.230507 0.404091
vt 0.230507 0.463129
vt 0.166834 0.441527
vt 0.166834 0.483277
vt 0.173240 0.480356
vt 0.173790 0.441799
vt 0.208793 0.441527
vt 0.215358 0.450198
vt 0.208317 0.450198
vt 0.215358 0.449765
vt 0.215358 0.441527
vt 0.222243 0.442999
vt 0.386028 0.804182
vt 0.376423 0.803228
vt 0.375190 0.754386
vt 0.386028 0.755276
vt 0.187461 0.441527
vt 0.166834 0.396786
vt 0.191086 0.353324
vt 0.207429 0.399164
vt 0.204579 0.239493
vt 0.230507 0.264197
vt 0.170868 0.063833
vt 0.215776 0.073586
vt 0.166834 0.000000
vt 0.200819 0.002549
vt 0.004468 0.293187
vt -0.000000 0.293336
vt 0.008252 0.440961
vt 0.003988 0.442338
vt 0.049349 0.092653
vt 0.053727 0.092704
vt 0.028434 0.483998
vt 0.022841 0.483066
vt 0.028369 0.269564
vt 0.032662 0.269548
vt 0.166834 0.044039
vt 0.157520 0.082937
vt 0.136408 0.206738
vt 0.160468 0.384214
vt 0.166834 0.448828
vt 0.748607 0.377172
vt 0.771476 0.351904
vt 0.769107 0.292286
vt 0.748607 0.286929
vt 0.375190 0.846936
vt 0.375190 0.756693
vt 0.222912 0.447806
vt 0.222393 0.453859
vt 0.228122 0.453859
vt 0.222243 0.441527
vt 0.228122 0.446933
vt 0.222243 0.447806
vt 0.739089 0.308470
vt 0.738854 0.357736
vt 0.744561 0.359397
vt 0.744561 0.310168
vt 0.279507 0.402754
vt 0.274034 0.402039
vt 0.922181 0.498512
vt 0.922260 0.540393
vt 0.922290 0.582252
vt 0.922290 0.624091
vt 0.279507 0.689985
vt 0.274034 0.690591
vt 0.262143 0.559104
vt 0.262143 0.518499
vt 0.262143 0.805731
vt 0.262143 0.766319
vt 0.262143 0.724876
vt 0.262143 0.600547
vt 0.262143 0.641990
vt 0.262143 0.683433
vt 0.273147 0.667473
vt 0.265171 0.667062
vt 0.669000 0.000850
vt 0.663559 -0.000000
vt 0.663559 0.307716
vt 0.658100 0.308470
vt 0.663559 0.307649
vt 0.658100 0.000000
vt 0.584385 0.377193
vt 0.584385 0.323871
vt 0.279508 0.289462
vt 0.279508 0.330254
vt 0.593692 0.269448
vt 0.279508 0.247829
vt 0.593692 0.215025
vt 0.279508 0.206195
vt 0.593692 0.160602
vt 0.279508 0.164562
vt 0.593692 0.106179
vt 0.279508 0.122928
vt 0.584385 0.051755
vt 0.279508 0.081295
vt 0.584385 -0.000000
vt 0.279507 0.041702
vt 0.943474 0.650271
vt 0.948218 0.596607
vt 0.932478 0.595595
vt 0.922290 0.649861
vt 0.950142 0.540511
vt 0.933385 0.541180
vt 0.950586 0.486461
vt 0.934276 0.486764
vt 0.945359 0.431170
vt 0.935163 0.432348
vt 0.943427 0.377193
vt 0.922290 0.378656
s 0
g plastova_zidla__Material.003
usemtl Material.003
f 6/1/1 7/2/1 4/3/1 2/4/1
f 1/5/1 3/6/1 8/7/1 5/8/1
f 44/9/1 45/10/1 7/2/1 6/1/1
f 6/11/2 10/12/2 105/13/2 101/14/2
f 12/15/3 5/16/3 104/17/3 108/18/3
f 3/19/4 13/20/4 14/21/4 8/22/4
f 7/23/5 16/24/5 15/25/5 4/26/5
f 49/27/6 87/28/6 88/29/6 50/30/6
f 60/31/7 24/32/7 78/33/7 82/34/7
f 19/35/8 73/36/8 87/28/8 49/27/8
f 18/37/9 72/38/9 81/39/9 23/40/9
f 48/41/10 69/42/10 86/43/10 47/44/10
f 31/45/11 29/46/11 134/47/11 136/48/11
f 32/49/12 31/50/12 136/51/12 135/52/12
f 17/53/13 128/54/13 127/55/13 24/56/13
f 24/57/14 26/58/14 129/59/14 127/60/14
f 1/61/15 32/62/15 31/63/15 103/64/15
f 37/65/16 39/66/16 126/67/16 123/68/16
f 18/69/17 33/70/17 119/71/17 117/72/17
f 33/70/18 35/73/18 121/74/18 119/71/18
f 23/75/19 118/76/19 117/77/19 18/78/19
f 39/79/20 40/80/20 2/81/20 102/82/20
f 59/83/21 22/84/21 76/85/21 80/86/21
f 8/87/10 3/88/10 66/89/10 65/90/10
f 47/44/10 86/43/10 85/91/10 46/92/10
f 64/93/22 96/94/22 90/95/22 53/96/22
f 46/92/10 85/91/10 84/97/10 45/98/10
f 54/99/23 91/100/23 95/101/23 63/102/23
f 5/8/1 8/7/1 48/103/1 41/104/1
f 41/104/1 48/103/1 47/105/1 42/106/1
f 42/106/1 47/105/1 46/107/1 43/108/1
f 43/108/1 46/107/1 45/10/1 44/9/1
f 24/109/24 78/110/24 71/111/24 17/112/24
f 138/113/25 60/31/25 82/34/25 142/114/25
f 45/98/10 84/97/10 68/115/10 7/116/10
f 62/117/26 94/118/26 92/119/26 55/120/26
f 137/121/27 4/122/27 67/123/27 140/124/27
f 56/125/28 83/126/28 93/127/28 61/128/28
f 23/129/29 58/130/29 77/131/29 81/132/29
f 90/133/30 87/134/30 73/135/30 76/136/30
f 81/137/31 76/136/31 73/135/31 72/138/31
f 79/139/32 78/140/32 71/141/32 70/142/32
f 75/143/33 82/144/33 78/145/33 79/146/33
f 77/147/33 80/148/33 76/149/33 81/150/33
f 93/151/33 83/152/33 92/153/33 94/154/33
f 95/155/33 91/156/33 90/157/33 96/158/33
f 79/139/34 70/142/34 74/159/34 83/160/34
f 83/160/35 74/159/35 89/161/35 92/162/35
f 92/162/35 89/161/35 88/163/35 91/164/35
f 91/164/35 88/163/35 87/134/35 90/133/35
f 145/165/36 95/155/36 96/158/36 146/166/36
f 144/167/36 94/154/36 95/155/36 145/165/36
f 143/168/36 93/151/36 94/154/36 144/167/36
f 139/169/36 75/143/36 93/151/36 143/168/36
f 146/166/36 96/158/36 80/148/36 141/170/36
f 140/171/36 141/170/36 80/148/36 77/147/36
f 139/169/36 142/172/36 82/144/36 75/143/36
f 4/173/10 7/174/10 68/175/10 67/176/10
f 8/177/10 65/178/10 69/42/10 48/41/10
f 50/30/6 88/29/6 89/179/6 51/180/6
f 63/102/6 95/101/6 94/118/6 62/117/6
f 51/180/6 89/179/6 74/181/6 52/182/6
f 21/183/10 79/184/10 83/126/10 56/125/10
f 17/185/37 20/186/37 70/187/37 71/188/37
f 53/96/10 90/95/10 76/85/10 22/84/10
f 61/128/6 93/127/6 75/189/6 57/190/6
f 19/35/38 18/191/38 72/192/38 73/36/38
f 59/83/6 80/86/6 96/94/6 64/93/6
f 52/182/39 74/181/39 70/187/39 20/186/39
f 55/120/10 92/119/10 91/100/10 54/99/10
f 21/183/40 57/190/40 75/189/40 79/184/40
f 13/193/41 3/194/41 66/195/41 97/196/41
f 98/197/42 97/198/42 66/199/42 65/200/42
f 8/22/43 14/21/43 98/201/43 65/202/43
f 16/24/44 7/23/44 68/203/44 100/204/44
f 100/204/45 99/205/45 15/25/45 16/24/45
f 13/20/46 97/206/46 98/201/46 14/21/46
f 4/207/47 15/208/47 99/209/47 67/210/47
f 99/211/48 100/212/48 68/213/48 67/214/48
f 102/215/49 101/216/49 105/217/49 106/218/49
f 104/219/50 103/220/50 107/221/50 108/222/50
f 2/223/51 6/224/51 101/225/51 102/226/51
f 10/227/52 9/228/52 106/229/52 105/230/52
f 107/221/53 103/220/53 115/231/53 116/232/53
f 5/233/51 1/234/51 103/235/51 104/236/51
f 11/237/54 12/238/54 108/239/54 107/240/54
f 102/215/55 106/218/55 111/241/55 112/242/55
f 10/12/56 6/11/56 2/243/56 9/244/56
f 11/245/57 1/246/57 5/16/57 12/15/57
f 137/247/58 58/248/58 59/249/58 147/250/58
f 147/251/36 7/252/36 45/253/36 148/254/36
f 148/254/36 45/253/36 46/255/36 149/256/36
f 149/256/36 46/255/36 47/257/36 150/258/36
f 150/258/36 47/257/36 48/259/36 151/260/36
f 151/260/36 48/259/36 8/261/36 152/262/36
f 152/263/58 57/264/58 60/265/58 138/266/58
f 21/267/59 20/186/59 17/185/59 24/268/59
f 20/186/60 21/267/60 56/269/60 52/182/60
f 52/182/61 56/269/61 55/270/61 51/180/61
f 51/180/61 55/270/61 54/271/61 50/30/61
f 50/30/61 54/271/61 53/272/61 49/27/61
f 49/27/62 53/272/62 22/273/62 19/35/62
f 18/191/63 19/35/63 22/273/63 23/274/63
f 59/249/64 58/248/64 23/274/64 22/273/64
f 54/271/64 63/275/64 64/276/64 53/272/64
f 56/269/64 61/277/64 62/278/64 55/270/64
f 60/265/64 57/264/64 21/267/64 24/268/64
f 109/279/65 110/280/65 112/281/65 111/282/65
f 2/283/66 102/284/66 112/285/66 110/286/66
f 9/244/67 2/243/67 110/287/67 109/288/67
f 106/229/68 9/228/68 109/289/68 111/290/68
f 113/291/69 114/292/69 116/293/69 115/294/69
f 11/237/70 107/240/70 116/295/70 114/296/70
f 1/246/71 11/245/71 114/297/71 113/298/71
f 103/299/72 1/300/72 113/301/72 115/302/72
f 118/303/73 117/304/73 119/305/73 120/306/73
f 120/306/74 119/305/74 121/307/74 122/308/74
f 122/308/75 121/307/75 123/309/75 124/310/75
f 124/310/76 123/309/76 126/311/76 125/312/76
f 40/313/77 38/314/77 124/315/77 125/316/77
f 38/314/78 36/317/78 122/318/78 124/315/78
f 36/317/79 34/319/79 120/320/79 122/318/79
f 39/321/80 126/322/80 125/323/80 40/324/80
f 34/319/81 23/325/81 118/326/81 120/320/81
f 35/73/82 37/65/82 123/68/82 121/74/82
f 112/327/83 110/328/83 125/329/83 126/330/83
f 39/79/84 102/82/84 112/331/84 126/332/84
f 2/333/85 40/334/85 125/335/85 110/336/85
f 81/337/86 118/338/86 23/339/86
f 72/340/87 18/341/87 117/342/87
f 72/343/88 117/344/88 118/345/88 81/346/88
f 128/347/89 127/348/89 129/349/89 130/350/89
f 130/350/90 129/349/90 131/351/90 132/352/90
f 132/352/91 131/351/91 133/353/91 134/354/91
f 134/354/92 133/353/92 135/355/92 136/356/92
f 29/46/93 27/357/93 132/358/93 134/47/93
f 27/357/94 25/359/94 130/360/94 132/358/94
f 30/361/95 32/49/95 135/52/95 133/362/95
f 25/359/96 17/363/96 128/364/96 130/360/96
f 28/365/97 30/361/97 133/362/97 131/366/97
f 26/58/98 28/365/98 131/366/98 129/59/98
f 33/70/99 18/69/99 23/367/99 34/368/99
f 36/369/100 35/73/100 33/70/100 34/368/100
f 38/370/101 37/65/101 35/73/101 36/369/101
f 38/370/102 40/371/102 39/66/102 37/65/102
f 136/372/103 135/373/103 113/374/103 115/375/103
f 136/376/104 115/377/104 103/64/104 31/63/104
f 24/378/105 127/379/105 78/380/105
f 17/381/106 71/382/106 128/383/106
f 127/384/107 128/385/107 71/386/107 78/387/107
f 32/49/108 30/361/108 29/46/108 31/45/108
f 29/46/109 30/361/109 28/365/109 27/357/109
f 26/58/110 24/57/110 17/363/110 25/359/110
f 27/357/111 28/365/111 26/58/111 25/359/111
f 8/261/36 3/388/36 138/389/36 152/262/36
f 61/277/58 57/264/58 152/263/58 151/390/58
f 62/278/58 61/277/58 151/390/58 150/391/58
f 63/275/58 62/278/58 150/391/58 149/392/58
f 64/276/58 63/275/58 149/392/58 148/393/58
f 59/249/58 64/276/58 148/393/58 147/250/58
f 4/394/36 7/252/36 147/251/36 137/395/36
f 65/396/36 66/397/36 142/172/36 139/169/36
f 67/398/36 68/399/36 141/170/36 140/171/36
f 84/400/36 146/166/36 141/170/36 68/399/36
f 65/396/36 139/169/36 143/168/36 69/401/36
f 69/401/36 143/168/36 144/167/36 86/402/36
f 86/402/36 144/167/36 145/165/36 85/403/36
f 85/403/36 145/165/36 146/166/36 84/400/36
f 58/130/27 137/121/27 140/124/27 77/131/27
f 3/404/25 138/113/25 142/114/25 66/405/25
f 4/406/112 137/407/112 2/408/112
f 138/409/113 3/410/113 1/411/113
f 1/412/114 5/413/114 152/414/114 138/415/114
f 5/413/115 41/416/115 151/417/115 152/414/115
f 41/416/116 42/418/116 150/419/116 151/417/116
f 42/418/116 43/420/116 149/421/116 150/419/116
f 43/420/116 44/422/116 148/423/116 149/421/116
f 44/422/117 6/424/117 147/425/117 148/423/117
f 6/424/114 2/426/114 137/427/114 147/425/114
f 104/428/118 153/429/118 41/430/118 5/431/118
f 153/429/119 154/432/119 42/433/119 41/430/119
f 154/432/120 155/434/120 43/435/120 42/433/120
f 155/434/121 156/436/121 44/437/121 43/435/121
f 156/436/122 101/438/122 6/439/122 44/437/122
