# Blender 4.1.0
# www.blender.org
mtllib polaroid fotak.mtl
o polaroid
v 146.468216 1.287917 -2.423088
v 146.468216 1.296178 -2.423088
v 146.459824 1.282413 -2.548950
v 146.459824 1.312383 -2.548950
v 146.577286 1.287917 -2.423088
v 146.577286 1.296178 -2.423088
v 146.585678 1.282413 -2.548950
v 146.585678 1.312383 -2.548950
v 146.459824 1.340814 -2.463206
v 146.459824 1.339996 -2.548950
v 146.585678 1.339996 -2.548950
v 146.585678 1.340814 -2.463206
v 146.459824 1.386767 -2.463996
v 146.459824 1.386350 -2.497222
v 146.585678 1.384470 -2.497222
v 146.585678 1.386767 -2.463996
v 146.461029 1.407338 -2.463785
v 146.459824 1.405468 -2.496248
v 146.585678 1.405468 -2.496248
v 146.584641 1.407338 -2.463785
v 146.459824 1.282413 -2.423088
v 146.459824 1.312383 -2.423088
v 146.585678 1.312383 -2.423088
v 146.585678 1.282413 -2.423088
v 146.550400 1.282413 -2.548950
v 146.550400 1.312383 -2.548950
v 146.550400 1.282413 -2.423088
v 146.550400 1.312383 -2.423088
v 146.550400 1.339996 -2.548950
v 146.545807 1.345412 -2.463285
v 146.550400 1.384997 -2.497222
v 146.545807 1.382169 -2.463917
v 146.550400 1.405468 -2.496248
v 146.550003 1.407338 -2.463785
v 146.546722 1.287917 -2.423088
v 146.546722 1.296178 -2.423088
v 146.548645 1.385552 -2.520900
v 146.587463 1.384972 -2.520900
v 146.548645 1.408083 -2.519828
v 146.587463 1.408083 -2.519828
v 146.546692 1.384308 -2.527672
v 146.588745 1.383680 -2.527672
v 146.546692 1.408719 -2.526510
v 146.588745 1.408719 -2.526510
v 146.492584 1.282413 -2.548950
v 146.492584 1.312383 -2.423088
v 146.497192 1.345412 -2.463285
v 146.497192 1.382169 -2.463917
v 146.493210 1.407338 -2.463785
v 146.496613 1.296178 -2.423088
v 146.492584 1.312383 -2.548950
v 146.492584 1.282413 -2.423088
v 146.492584 1.339996 -2.548950
v 146.492584 1.385861 -2.497222
v 146.492584 1.405468 -2.496248
v 146.496613 1.287917 -2.423088
v 146.550400 1.340814 -2.463206
v 146.550400 1.386767 -2.463996
v 146.492584 1.340814 -2.463206
v 146.492584 1.386767 -2.463996
v 146.545807 1.345303 -2.469622
v 146.545807 1.382060 -2.470254
v 146.497192 1.345303 -2.469622
v 146.497192 1.382060 -2.470254
vn -1.0000 -0.0000 -0.0000
vn -0.0000 -0.0000 -1.0000
vn 1.0000 -0.0000 -0.0000
vn -0.0000 -0.0000 1.0000
vn -0.0000 -1.0000 -0.0000
vn 0.0056 0.7465 -0.6654
vn -0.0000 0.8159 0.5782
vn 0.9996 0.0246 0.0143
vn -0.0000 0.0172 0.9999
vn -0.0000 0.9983 -0.0575
vn -0.9994 0.0301 0.0174
vn -0.0000 -0.0102 0.9999
vn 0.0004 0.0502 -0.9987
vn -0.0000 0.9939 0.1102
vn -0.0000 -0.9999 0.0172
vn 0.0057 0.7564 -0.6541
vn -0.0147 -0.9827 0.1848
vn -0.9972 -0.0035 0.0741
vn -0.0149 -0.9996 -0.0223
vn 0.9972 -0.0035 0.0751
vn 0.0004 0.0469 -0.9989
vn -0.9600 -0.0133 0.2797
vn -0.0000 0.9955 0.0947
vn 0.9822 -0.0087 0.1878
vn 0.0004 0.0486 -0.9988
vn 0.0056 0.7513 -0.6599
vn -0.0000 0.9999 -0.0172
vt 0.018054 0.431711
vt 0.103420 0.431711
vt 0.103420 0.790215
vt 0.018054 0.790215
vt 0.276079 0.417688
vt 0.276139 0.332322
vt 0.376616 0.332393
vt 0.376556 0.417759
vt 0.746653 0.003441
vt 0.746653 0.087174
vt 0.395006 0.087174
vt 0.395006 0.003441
vt 0.961737 0.256232
vt 0.985267 0.256232
vt 0.985267 0.337117
vt 0.961737 0.337117
vt 0.477290 0.718297
vt 0.376813 0.718297
vt 0.376813 0.359793
vt 0.477290 0.359793
vt 0.184402 0.545981
vt 0.182073 0.790215
vt 0.111499 0.253554
vt 0.018166 0.253491
vt 0.018290 0.055646
vt 0.111629 0.056635
vt 0.624396 0.751518
vt 0.724874 0.751518
vt 0.724874 0.891574
vt 0.624396 0.891574
vt 0.111445 0.332207
vt 0.018113 0.332144
vt 0.746653 0.164323
vt 0.507091 0.166607
vt 0.509299 0.294998
vt 0.602130 0.288578
vt 0.599408 0.347246
vt 0.508668 0.352542
vt 0.315296 0.548232
vt 0.314108 0.642873
vt 0.958046 0.632656
vt 0.958046 0.733134
vt 0.827133 0.733134
vt 0.827133 0.632656
vt 0.841470 0.273914
vt 0.841470 0.367247
vt 0.748851 0.363785
vt 0.748851 0.272125
vt 0.373990 0.547574
vt 0.368563 0.640098
vt 0.768538 0.730170
vt 0.768538 0.631494
vt 0.018054 0.001121
vt 0.111386 0.000717
vt 0.991274 0.035643
vt 0.975590 0.035643
vt 0.944823 0.019706
vt 1.001724 0.019706
vt 0.975703 0.328202
vt 0.996544 0.328202
vt 1.010430 0.349378
vt 0.934817 0.349378
vt 0.986706 0.111789
vt 0.986706 0.038505
vt 1.000911 0.016844
vt 1.000911 0.101407
vt 0.981855 0.251074
vt 0.981855 0.328202
vt 0.940969 0.349378
vt 0.940969 0.260380
vt 0.979548 0.111789
vt 0.979548 0.241105
vt 0.937726 0.250624
vt 0.937726 0.101407
vt 0.986706 0.319999
vt 0.986706 0.241105
vt 1.000911 0.250624
vt 1.000911 0.341660
vt 0.841470 0.109221
vt 0.841470 0.008743
vt 0.909047 0.003657
vt 0.909047 0.114241
vt 0.827133 0.467963
vt 0.768538 0.469752
vt 0.748851 0.110383
vt 0.748851 0.011707
vt 0.018054 0.104715
vt 0.018054 0.243211
vt 0.000000 0.243211
vt 0.000000 0.104715
vt 0.276195 0.253669
vt 0.376672 0.253740
vt 0.516869 0.811630
vt 0.516869 0.976324
vt 0.376813 0.976324
vt 0.376813 0.811630
vt 0.276331 0.058375
vt 0.376813 0.059431
vt 0.641984 0.718297
vt 0.641984 0.359793
vt 0.961737 0.026429
vt 0.985267 0.026429
vt 0.985267 0.113505
vt 0.961737 0.113505
vt 0.111386 0.417573
vt 0.580485 0.901025
vt 0.593805 0.788075
vt 0.614553 0.786560
vt 0.598765 0.906933
vt 0.523854 0.792488
vt 0.516869 0.736815
vt 0.580827 0.723099
vt 0.516869 0.890284
vt 0.668472 0.289991
vt 0.665476 0.354560
vt 0.365097 0.694777
vt 0.363190 0.822531
vt 0.288966 0.822531
vt 0.288966 0.694777
vt 0.599334 0.718297
vt 0.928168 -0.000000
vt 0.928168 0.119811
vt 0.687732 0.286396
vt 0.684487 0.356352
vt 0.018054 0.417509
vt 0.735317 0.718297
vt 0.735317 0.359793
vt 0.516869 0.737983
vt 0.516869 0.831316
vt 0.376813 0.831316
vt 0.376813 0.737983
vt 0.958046 0.374630
vt 0.958046 0.467963
vt 0.827133 0.374630
vt 0.768538 0.378092
vt 0.981013 0.038505
vt 0.981013 0.111789
vt 0.939191 0.101407
vt 0.939191 0.016844
vt 0.276077 -0.000000
vt 0.853131 0.738850
vt 0.748416 0.738851
vt 0.735317 0.725752
vt 0.866230 0.725751
vt 0.748416 0.877346
vt 0.735317 0.890445
vt 0.853131 0.877346
vt 0.866230 0.890445
vt 0.018054 0.914759
vt 0.018054 0.776263
vt 0.122769 0.776263
vt 0.122769 0.914759
vt 0.018054 0.000000
vt 0.000000 0.000000
vt 0.018054 0.347926
vt 0.000000 0.347926
vt 0.018054 0.486422
vt 0.000000 0.486422
s 0
usemtl Material.040
f 21/1/1 22/2/1 4/3/1 3/4/1
f 25/5/2 26/6/2 8/7/2 7/8/2
f 7/9/3 8/10/3 23/11/3 24/12/3
f 56/13/4 50/14/4 2/15/4 1/16/4
f 25/17/5 7/18/5 24/19/5 27/20/5
f 4/3/1 22/2/1 9/21/1 10/22/1
f 53/23/6 10/24/6 14/25/6 54/26/6
f 28/27/7 23/28/7 12/29/7 57/30/7
f 51/31/2 4/32/2 10/24/2 53/23/2
f 23/11/3 8/10/3 11/33/3 12/34/3
f 16/35/8 15/36/8 19/37/8 20/38/8
f 12/34/3 11/33/3 15/36/3 16/35/3
f 10/22/1 9/21/1 13/39/1 14/40/1
f 57/41/9 12/42/9 16/43/9 58/44/9
f 55/45/10 18/46/10 17/47/10 49/48/10
f 14/40/11 13/39/11 17/49/11 18/50/11
f 58/44/12 16/43/12 20/51/12 34/52/12
f 54/26/13 14/25/13 18/53/13 55/54/13
f 1/55/4 2/56/4 22/57/4 21/58/4
f 6/59/4 5/60/4 24/61/4 23/62/4
f 56/63/4 1/64/4 21/65/4 52/66/4
f 36/67/4 6/68/4 23/69/4 28/70/4
f 50/71/4 36/72/4 28/73/4 46/74/4
f 5/75/4 35/76/4 27/77/4 24/78/4
f 33/79/14 19/80/14 40/81/14 39/82/14
f 60/83/12 58/44/12 34/52/12 49/84/12
f 19/80/10 33/79/10 34/85/10 20/86/10
f 32/87/15 48/88/15 64/89/15 62/90/15
f 8/7/2 26/6/2 29/91/2 11/92/2
f 46/93/7 28/94/7 57/95/7 59/96/7
f 11/92/16 29/91/16 31/97/16 15/98/16
f 45/99/5 25/17/5 27/20/5 52/100/5
f 5/101/4 6/102/4 36/103/4 35/104/4
f 45/105/2 51/31/2 26/6/2 25/5/2
f 38/106/17 37/107/17 41/108/17 42/109/17
f 31/110/18 33/111/18 39/112/18 37/107/18
f 15/113/19 31/110/19 37/107/19 38/106/19
f 19/37/20 15/36/20 38/114/20 40/115/20
f 42/116/21 41/117/21 43/118/21 44/119/21
f 37/107/22 39/112/22 43/120/22 41/108/22
f 39/82/23 40/81/23 44/121/23 43/122/23
f 40/115/24 38/114/24 42/123/24 44/124/24
f 3/125/2 4/32/2 51/31/2 45/105/2
f 3/126/5 45/99/5 52/100/5 21/127/5
f 22/128/7 46/129/7 59/130/7 9/131/7
f 9/132/9 59/133/9 60/83/9 13/134/9
f 13/134/12 60/83/12 49/84/12 17/135/12
f 2/136/4 50/137/4 46/138/4 22/139/4
f 35/76/4 56/63/4 52/66/4 27/77/4
f 31/97/25 54/26/25 55/54/25 33/140/25
f 33/79/10 55/45/10 49/48/10 34/85/10
f 26/6/2 51/31/2 53/23/2 29/91/2
f 29/91/26 53/23/26 54/26/26 31/97/26
f 35/104/4 36/103/4 50/14/4 56/13/4
f 32/141/9 30/142/9 57/143/9 58/144/9
f 30/142/9 47/145/9 59/146/9 57/143/9
f 48/147/9 32/141/9 58/144/9 60/148/9
f 47/145/9 48/147/9 60/148/9 59/146/9
f 63/149/9 61/150/9 62/151/9 64/152/9
f 30/153/1 32/87/1 62/90/1 61/154/1
f 48/88/3 47/155/3 63/156/3 64/89/3
f 47/155/27 30/157/27 61/158/27 63/156/27
