# Blender 4.1.0
# www.blender.org
mtllib policie cedule.mtl
o policie_cedule
v 185.796310 1.738351 -2.348897
v 185.796310 2.546466 -2.348897
v 185.774139 1.715183 -2.516769
v 185.774139 2.569634 -2.516769
v 188.427658 1.738351 -2.348897
v 188.427658 2.546466 -2.348897
v 188.451828 1.715183 -2.516769
v 188.451828 2.569634 -2.516769
v 185.773132 1.715183 -2.348897
v 185.773132 2.569634 -2.348897
v 188.450836 2.569634 -2.348897
v 188.450836 1.715183 -2.348897
vn -1.0000 -0.0000 -0.0060
vn -0.0000 -0.0000 -1.0000
vn 1.0000 -0.0000 0.0060
vn -0.0000 -0.0000 1.0000
vn -0.0000 -1.0000 -0.0000
vn -0.0000 1.0000 -0.0000
vt 0.026022 0.500000
vt 0.026022 0.620955
vt 0.002258 0.620955
vt 0.002258 0.500000
vt 0.821609 0.638664
vt 0.700654 0.638664
vt 0.700654 0.259613
vt 0.821609 0.259613
vt 0.000000 0.120955
vt 0.000000 0.000000
vt 0.023764 0.000000
vt 0.023764 0.120955
vt 0.382377 0.026389
vt 0.670936 0.026389
vt 0.670936 0.965986
vt 0.382377 0.965986
vt -0.000000 1.000000
vt 0.023764 1.000000
vt 0.212600 0.460985
vt 0.098204 0.460985
vt 0.094924 0.457706
vt 0.215880 0.457706
vt 0.098204 0.833477
vt 0.212600 0.833477
vt 0.215880 0.836757
vt 0.094924 0.836757
s 0
g policie_cedule_Material.079
usemtl Material.079
f 9/1/1 10/2/1 4/3/1 3/4/1
f 3/5/2 4/6/2 8/7/2 7/8/2
f 7/9/3 8/10/3 11/11/3 12/12/3
f 5/13/4 6/14/4 2/15/4 1/16/4
f 3/4/5 7/9/5 12/12/5 9/1/5
f 8/17/6 4/3/6 10/2/6 11/18/6
f 1/19/4 2/20/4 10/21/4 9/22/4
f 6/23/4 5/24/4 12/25/4 11/26/4
f 5/24/4 1/19/4 9/22/4 12/25/4
f 2/20/4 6/23/4 11/26/4 10/21/4
