# Blender 4.1.0
# www.blender.org
mtllib cesta zahla.mtl
o silnica_45
v 118.540741 0.876002 -0.388264
v 118.540741 1.089421 -0.388264
v 120.575745 0.876002 -4.806135
v 120.575745 1.089421 -4.806135
v 125.117592 0.876002 -0.401191
v 125.117592 1.089421 -0.401191
vn -0.9083 -0.0000 -0.4184
vn 0.6962 -0.0000 -0.7178
vn 0.0020 -0.0000 1.0000
vn -0.0000 -1.0000 -0.0000
vn -0.0000 1.0000 -0.0000
vt 0.023838 0.629828
vt 0.000076 0.629828
vt 0.000076 0.356116
vt 0.023838 0.356116
vt 0.000076 0.000076
vt 0.023838 0.000076
vt 0.023838 0.999924
vt 0.000076 0.999924
vt 0.889880 0.464113
vt 0.774460 0.793476
vt 0.610653 0.464483
vt 0.498722 0.410703
vt 0.332807 0.749272
vt 0.209527 0.409384
s 0
usemtl Material.147
f 1/1/1 2/2/1 4/3/1 3/4/1
f 3/4/2 4/3/2 6/5/2 5/6/2
f 1/1/3 5/7/3 6/8/3 2/2/3
f 3/9/4 5/10/4 1/11/4
f 2/12/5 6/13/5 4/14/5
