# Blender 4.1.0
# www.blender.org
mtllib cesta.mtl
o silnica
v 110.552322 0.897707 1.788694
v 117.042107 0.897707 1.788694
v 110.552322 0.897707 -4.701090
v 117.042107 0.897707 -4.701090
v 110.552322 1.114041 -4.701090
v 110.552322 1.114041 1.788694
v 117.042107 1.114041 1.788694
v 117.042107 1.114041 -4.701090
vn -0.0000 -1.0000 -0.0000
vn -0.0000 1.0000 -0.0000
vn -0.0000 -0.0000 1.0000
vn 1.0000 -0.0000 -0.0000
vn -1.0000 -0.0000 -0.0000
vn -0.0000 -0.0000 -1.0000
vt 0.958349 0.770844
vt 0.551499 0.770844
vt 0.551499 0.363994
vt 0.958349 0.363994
vt 0.169087 0.744668
vt 0.169087 0.394423
vt 0.519332 0.394423
vt 0.519332 0.744668
vt 0.008392 0.749970
vt 0.008392 0.999941
vt 0.000059 0.999941
vt 0.000059 0.749970
vt 0.008392 0.000059
vt 0.008392 0.250030
vt 0.000059 0.250030
vt 0.000059 0.000059
vt 0.008392 0.500000
vt 0.000059 0.500000
s 0
usemtl Material.023
f 1/1/1 3/2/1 4/3/1 2/4/1
f 6/5/2 7/6/2 8/7/2 5/8/2
f 1/9/3 2/10/3 7/11/3 6/12/3
f 2/13/4 4/14/4 8/15/4 7/16/4
f 3/17/5 1/9/5 6/12/5 5/18/5
f 4/14/6 3/17/6 5/18/6 8/15/6
