# Blender 4.1.0
# www.blender.org
mtllib schlatt.mtl
o npc_chlap_1
v 60.682022 1.593748 0.466243
v 60.770428 2.291114 0.418204
v 60.682640 1.593748 0.311291
v 60.770428 2.291114 0.379040
v 60.966888 1.599672 0.460236
v 60.864635 2.291114 0.418204
v 60.966888 1.599672 0.308673
v 60.864635 2.291114 0.379040
v 60.680412 1.728922 0.470499
v 60.702854 2.194613 0.454562
v 60.702854 2.194613 0.342682
v 60.680412 1.728922 0.326744
v 60.937050 2.194613 0.344904
v 60.954651 1.737135 0.326744
v 60.937050 2.194613 0.452340
v 60.954651 1.737135 0.470499
v 60.817532 1.580596 0.308673
v 60.817532 2.291114 0.351709
v 60.817532 1.580596 0.451172
v 60.817532 2.291114 0.446973
v 60.817532 1.693808 0.478355
v 60.817902 2.194613 0.473247
v 60.817532 1.731170 0.326744
v 60.817902 2.194613 0.323997
v 60.653778 0.850599 0.367157
v 60.643517 0.849484 0.544103
v 60.719387 0.850599 0.367157
v 60.729649 0.849484 0.544103
v 60.994091 0.839274 0.531331
v 60.983128 0.839274 0.366691
v 60.916378 0.839274 0.531331
v 60.927345 0.839274 0.366691
v 60.727325 2.267699 0.441076
v 60.727325 2.267699 0.329331
v 60.817329 2.291114 0.335943
v 60.905334 2.272364 0.351844
v 60.905334 2.272364 0.445400
v 60.817329 2.291114 0.461301
v 60.774017 2.366809 0.416713
v 60.774017 2.366809 0.380531
v 60.817535 2.366809 0.354940
v 60.861050 2.366809 0.380531
v 60.861050 2.366809 0.416713
v 60.817535 2.366809 0.443743
v 60.749378 2.392981 0.440253
v 60.754730 2.390489 0.357456
v 60.817581 2.382819 0.316306
v 60.883255 2.389171 0.358533
v 60.873940 2.392286 0.435412
v 60.817581 2.378098 0.486640
v 60.732243 2.564151 0.448371
v 60.724190 2.564151 0.349618
v 60.817188 2.564151 0.310072
v 60.902798 2.564151 0.361476
v 60.899532 2.564151 0.448371
v 60.817188 2.564151 0.494650
v 60.743935 2.580109 0.428959
v 60.743935 2.580109 0.368285
v 60.816910 2.580109 0.332926
v 60.889881 2.580109 0.368285
v 60.889881 2.580109 0.428959
v 60.816910 2.580109 0.464318
v 60.663425 1.270805 0.435027
v 60.732876 1.270805 0.435027
v 60.732876 1.270805 0.362217
v 60.663425 1.270805 0.362217
v 60.974854 1.265292 0.435033
v 60.974854 1.265292 0.362211
v 60.905392 1.265292 0.362211
v 60.905392 1.265292 0.435033
v 60.664379 1.030593 0.424645
v 60.714024 1.030593 0.372599
v 60.714024 1.030593 0.424645
v 60.664379 1.030593 0.372599
v 60.979229 0.931822 0.422413
v 60.933842 0.931822 0.422413
v 60.979229 0.931822 0.374830
v 60.933842 0.931822 0.374830
v 60.666668 0.930737 0.432051
v 60.708923 0.930737 0.375358
v 60.708797 0.930737 0.432051
v 60.666538 0.930737 0.375358
v 60.976273 1.037901 0.365348
v 60.926357 1.037901 0.365348
v 60.976273 1.037901 0.424788
v 60.926357 1.037901 0.424788
v 60.991077 1.182303 0.346562
v 60.899292 1.179532 0.342994
v 60.979229 1.179532 0.447867
v 60.902809 1.179532 0.447867
v 60.735371 1.187532 0.445433
v 60.641235 1.187532 0.345011
v 60.646069 1.187532 0.445433
v 60.741913 1.187532 0.345011
v 60.697624 2.178714 0.441541
v 60.677277 2.269708 0.456065
v 60.677277 2.269708 0.346388
v 60.688896 2.178714 0.342553
v 60.631771 2.172271 0.432766
v 60.650490 2.235331 0.449274
v 60.650490 2.235331 0.354895
v 60.623272 2.172271 0.369993
v 60.661659 1.738775 0.425179
v 60.658844 1.742021 0.388178
v 60.612957 1.746299 0.426590
v 60.612961 1.750308 0.378592
v 60.961437 2.276673 0.359245
v 60.961437 2.276673 0.444201
v 60.942074 2.177984 0.358101
v 60.942074 2.177984 0.445344
v 60.993183 2.250669 0.359359
v 60.993183 2.250669 0.444087
v 61.018860 2.184230 0.366689
v 61.018860 2.184230 0.436757
v 60.968288 1.750325 0.376787
v 60.968288 1.750325 0.426659
v 61.019085 1.754698 0.376787
v 61.019085 1.754698 0.426659
v 61.018196 2.086403 0.367834
v 60.943523 2.079452 0.343891
v 61.018196 2.086403 0.435611
v 60.943523 2.079452 0.424534
v 60.698963 2.070976 0.428661
v 60.690063 2.070976 0.361089
v 60.628464 2.084929 0.431705
v 60.625210 2.084929 0.358252
v 60.717800 2.456074 0.351605
v 60.817528 2.456074 0.285901
v 60.914387 2.456074 0.349735
v 60.906994 2.456074 0.447508
v 60.719776 2.456074 0.445639
v 60.817528 2.445379 0.502174
v 60.778614 2.590127 0.414755
v 60.778614 2.590127 0.382489
v 60.817421 2.590127 0.363685
v 60.856228 2.590127 0.382489
v 60.856228 2.590127 0.414755
v 60.817421 2.590127 0.433559
v 60.664604 1.643704 0.419306
v 60.662178 1.653037 0.393842
v 60.621243 1.651683 0.420803
v 60.621246 1.655934 0.393706
v 60.611698 1.722921 0.426275
v 60.669743 1.709324 0.423725
v 60.664658 1.715190 0.397179
v 60.611706 1.730168 0.379855
v 60.965134 1.721392 0.372845
v 60.965134 1.721392 0.429684
v 61.018955 1.728215 0.372845
v 61.018955 1.728215 0.429684
v 60.982399 1.644992 0.381440
v 60.982399 1.644992 0.416929
v 61.022141 1.669625 0.381440
v 61.022141 1.669625 0.416929
v 60.645763 0.886899 0.536867
v 60.715870 0.886899 0.369036
v 60.728523 0.886899 0.536867
v 60.658413 0.886899 0.369036
v 60.992897 0.866806 0.532237
v 60.914547 0.866806 0.532237
v 60.982975 0.865236 0.368335
v 60.924469 0.865236 0.368335
v 60.976143 1.526597 0.316768
v 60.856812 1.516362 0.316768
v 60.976143 1.532599 0.451695
v 60.856812 1.522364 0.451695
v 60.788792 1.518118 0.442734
v 60.673561 1.523047 0.321482
v 60.673561 1.530105 0.457670
v 60.788792 1.511060 0.321482
v 60.704906 2.070015 0.466079
v 60.704906 2.070015 0.339695
v 60.933430 2.072250 0.340950
v 60.933430 2.072250 0.464823
v 60.817902 2.064270 0.329137
v 60.817902 2.064270 0.468487
v 60.687977 1.782747 0.339175
v 60.947578 1.789860 0.339384
v 60.947578 1.789860 0.465939
v 60.817585 1.764457 0.337409
v 60.817585 1.764457 0.476870
v 60.687977 1.782747 0.466148
v 60.695633 1.862380 0.461612
v 60.695633 1.862380 0.349926
v 60.940632 1.868139 0.350425
v 60.940632 1.868139 0.461112
v 60.817673 1.847566 0.345723
v 60.817673 1.847566 0.483174
v 60.665966 1.860165 0.428397
v 60.606159 1.871356 0.430677
v 60.663399 1.862435 0.355791
v 60.604782 1.874161 0.357006
v 61.032497 1.885837 0.363842
v 61.032497 1.885837 0.439604
v 60.972103 1.869262 0.361276
v 60.969490 1.876155 0.442170
v 60.714287 2.506604 0.347017
v 60.913822 2.506604 0.353553
v 60.716457 2.506604 0.450346
v 60.817543 2.506604 0.290704
v 60.910454 2.506604 0.451342
v 60.817543 2.510017 0.499522
v 60.817554 2.425521 0.295072
v 60.892963 2.425521 0.443488
v 60.817554 2.431716 0.501445
v 60.731934 2.425521 0.354480
v 60.901634 2.425521 0.353984
v 60.733795 2.425521 0.442992
v 60.765034 1.585714 0.309691
v 60.782303 2.282001 0.453430
v 60.764168 1.702029 0.475198
v 60.773129 2.194613 0.465975
v 60.782303 2.282001 0.333370
v 60.764793 1.585714 0.457038
v 60.764168 1.730295 0.326744
v 60.773129 2.194613 0.331269
v 60.693855 0.850599 0.367157
v 60.696129 0.849484 0.544103
v 60.799202 2.291114 0.435777
v 60.799202 2.291114 0.362346
v 60.800598 2.366809 0.433223
v 60.800598 2.366809 0.364899
v 60.790619 2.382819 0.468587
v 60.789944 2.382819 0.325148
v 60.791935 2.564151 0.483870
v 60.780994 2.564151 0.325462
v 60.795471 2.580109 0.456905
v 60.788509 2.580109 0.346687
v 60.705845 1.270805 0.362217
v 60.705845 1.270805 0.435027
v 60.694706 1.030593 0.372599
v 60.694706 1.030593 0.424645
v 60.692429 0.930737 0.375358
v 60.692402 0.930737 0.432051
v 60.700619 1.187532 0.445433
v 60.702728 1.187532 0.345011
v 60.786503 2.454517 0.495682
v 60.778717 2.456074 0.311471
v 60.802315 2.590127 0.426241
v 60.802315 2.590127 0.371003
v 60.693508 0.886899 0.369036
v 60.696316 0.886899 0.536867
v 60.743946 1.522784 0.448547
v 60.743946 1.515725 0.321482
v 60.773926 2.066506 0.333246
v 60.773926 2.066506 0.472528
v 60.767143 1.771575 0.471369
v 60.767143 1.771575 0.338096
v 60.770176 1.853331 0.477726
v 60.770176 1.853331 0.347358
v 60.796432 2.509768 0.493238
v 60.777359 2.506604 0.312620
v 60.784233 2.425521 0.318192
v 60.770283 2.437021 0.486992
v 60.839069 2.286483 0.339871
v 60.854427 1.585308 0.453411
v 60.851406 1.732643 0.326744
v 60.847336 2.194613 0.329162
v 60.854427 1.585308 0.308673
v 60.839069 2.286483 0.457373
v 60.851406 1.701055 0.474736
v 60.847336 2.194613 0.468082
v 60.935577 0.839274 0.531331
v 60.941124 0.839274 0.366691
v 60.829170 2.291114 0.358461
v 60.829170 2.291114 0.439866
v 60.828285 2.366809 0.361261
v 60.828285 2.366809 0.437066
v 60.835087 2.382819 0.317858
v 60.843185 2.383854 0.469142
v 60.839855 2.564151 0.319841
v 60.840328 2.564151 0.483218
v 60.834934 2.580109 0.341661
v 60.834934 2.580109 0.455583
v 60.922550 1.265292 0.435033
v 60.922550 1.265292 0.362211
v 60.945053 0.931822 0.422413
v 60.945053 0.931822 0.374830
v 60.938686 1.037901 0.365348
v 60.938686 1.037901 0.424788
v 60.921688 1.179532 0.447867
v 60.921967 1.180217 0.343876
v 60.841457 2.456074 0.301670
v 60.841927 2.454154 0.499052
v 60.827007 2.590127 0.368330
v 60.827007 2.590127 0.428913
v 60.933903 0.866806 0.532237
v 60.938923 0.865236 0.368335
v 60.886292 1.518891 0.316768
v 60.886292 1.524892 0.451695
v 60.846439 2.066241 0.473718
v 60.846439 2.066241 0.332055
v 60.849697 1.770732 0.337897
v 60.849697 1.770732 0.477003
v 60.848045 1.852648 0.346884
v 60.848045 1.852648 0.482569
v 60.842506 2.506604 0.304370
v 60.842579 2.509574 0.493967
v 60.851902 2.436682 0.490971
v 60.838326 2.425521 0.309625
vn 0.0374 -0.0073 0.9993
vn 0.1858 0.1449 -0.9718
vn 0.3306 0.0663 -0.9414
vn -0.2045 0.1984 0.9585
vn 0.9976 0.0281 -0.0635
vn 0.9961 0.0887 -0.0000
vn -0.1252 0.0694 0.9897
vn -0.0110 0.1253 -0.9921
vn 0.9996 -0.0296 -0.0000
vn -0.9999 -0.0140 -0.0021
vn 0.1380 0.0017 -0.9904
vn 0.0539 -0.2063 0.9770
vn -0.9999 -0.0165 -0.0000
vn -0.1278 -0.0277 -0.9914
vn -0.0013 0.0034 1.0000
vn -0.0048 0.1182 -0.9930
vn -0.0000 0.1899 0.9818
vn 0.1846 0.1259 0.9747
vn -0.0676 0.0791 -0.9946
vn -0.0000 -1.0000 -0.0063
vn -0.0000 0.0517 -0.9987
vn -0.9939 0.0880 -0.0658
vn 0.9961 0.0579 -0.0660
vn -0.0000 -1.0000 -0.0000
vn -0.0000 0.0632 -0.9980
vn -0.0000 -0.0329 0.9995
vn -0.9944 -0.0845 -0.0628
vn -0.5039 0.0397 -0.8629
vn -0.4773 0.8787 -0.0000
vn 0.2110 0.9451 -0.2495
vn 0.4185 0.9082 -0.0000
vn -0.2711 0.9058 0.3257
vn -0.1857 0.9743 -0.1275
vn 0.1667 0.9817 0.0921
vn 0.4554 -0.7893 0.4118
vn 0.9989 0.0473 -0.0000
vn -0.9989 0.0474 -0.0000
vn 0.5239 0.0396 0.8509
vn -0.5240 0.0373 0.8509
vn 0.5039 0.0373 -0.8629
vn -0.4325 0.1697 -0.8855
vn -0.2832 -0.9162 0.2837
vn 0.0988 -0.9298 -0.3547
vn -0.3823 -0.8525 -0.3564
vn 0.8063 -0.5858 0.0826
vn -0.7502 -0.6609 -0.0199
vn -0.1833 0.8632 0.4704
vn 0.9820 0.1857 0.0353
vn -0.9749 0.2173 0.0493
vn 0.5163 0.1635 0.8406
vn -0.3440 0.1070 0.9329
vn 0.4247 0.2724 -0.8633
vn -0.1189 0.9481 0.2950
vn 0.2474 0.8018 -0.5440
vn -0.2292 0.8304 -0.5078
vn 0.8130 0.5820 0.0180
vn -0.7116 0.7017 0.0359
vn 0.2604 0.8356 0.4836
vn 0.9748 -0.2230 0.0081
vn -0.9992 0.0396 -0.0013
vn -0.0106 -0.1636 -0.9865
vn 0.0754 -0.0774 0.9941
vn -0.9822 -0.1875 0.0054
vn 0.0035 -0.0638 0.9980
vn 0.0094 -0.1732 -0.9848
vn 1.0000 -0.0049 0.0001
vn 0.9872 -0.1539 0.0423
vn -0.9910 -0.1302 0.0314
vn -0.0000 -0.1731 -0.9849
vn -0.0000 -0.1313 0.9913
vn -0.9975 -0.0704 -0.0000
vn -0.0000 -0.0224 0.9997
vn -0.0000 -0.0890 -0.9960
vn 0.9996 0.0279 -0.0000
vn 0.9987 -0.0516 0.0012
vn -0.9998 -0.0222 0.0012
vn -0.0000 -0.0276 -0.9996
vn -0.0000 0.0740 0.9973
vn 0.9954 -0.0629 0.0723
vn 0.0276 -0.1388 -0.9899
vn -0.0000 -0.1608 0.9870
vn -0.9842 -0.1759 0.0211
vn -0.9986 0.0498 0.0198
vn -0.0000 0.1480 0.9890
vn 0.0182 0.1998 -0.9797
vn 0.9904 0.1197 0.0693
vn -0.0000 0.1240 0.9923
vn -0.0000 0.2024 -0.9793
vn -0.9728 0.2299 0.0272
vn 0.9970 0.0675 0.0376
vn 0.9978 -0.0427 -0.0511
vn -0.2480 -0.0367 -0.9681
vn 0.0401 0.9992 -0.0000
vn 0.8621 -0.5054 -0.0357
vn -0.9386 0.3413 0.0508
vn -0.7888 0.6147 -0.0000
vn -0.3496 -0.0331 -0.9363
vn -0.0771 -0.1977 0.9772
vn 0.0246 -0.0713 0.9972
vn 0.0289 -0.0293 0.9992
vn 0.0370 -0.2151 -0.9759
vn -0.9982 -0.0595 0.0079
vn 0.0736 -0.0345 -0.9967
vn -0.9573 -0.2892 -0.0000
vn 0.1436 0.0553 0.9881
vn -0.0766 0.9971 -0.0000
vn 0.9328 0.3605 -0.0000
vn 0.0736 -0.0345 0.9967
vn 0.6337 0.7736 -0.0000
vn 0.0448 -0.1160 -0.9922
vn -0.0152 0.1417 -0.9898
vn 0.9948 -0.1017 -0.0000
vn -0.9996 0.0205 -0.0210
vn 0.0362 -0.1120 0.9930
vn -0.0067 -0.1111 0.9938
vn -0.9999 -0.0147 -0.0000
vn 1.0000 -0.0068 -0.0000
vn 0.2041 0.0658 -0.9767
vn -0.9963 0.0015 0.0860
vn -0.1872 -0.0372 -0.9816
vn -0.0458 -0.0707 0.9964
vn 0.9944 0.0088 -0.1052
vn 0.5433 -0.2521 -0.8008
vn -0.2801 -0.1414 0.9495
vn 0.6518 -0.2366 0.7206
vn -0.9081 -0.4183 0.0191
vn 0.9132 -0.3999 0.0783
vn -0.5344 -0.2962 -0.7917
vn 0.0084 -0.0887 0.9960
vn -0.0000 1.0000 -0.0000
vn 0.1495 0.9394 -0.3084
vn -0.1473 0.9412 -0.3041
vn 0.2853 0.9584 -0.0000
vn -0.2775 0.9607 -0.0000
vn 0.1495 0.9394 0.3084
vn -0.1280 -0.9616 -0.2426
vn 0.9864 -0.0493 -0.1568
vn 0.1701 -0.0670 -0.9832
vn -0.9911 -0.1312 -0.0207
vn -0.9983 0.0579 0.0068
vn 0.2165 -0.1883 -0.9579
vn 0.9698 0.2276 -0.0880
vn 0.0313 -0.0294 0.9991
vn 0.0404 -0.1202 -0.9919
vn -0.9941 0.1084 -0.0000
vn -0.0117 0.1092 0.9939
vn 1.0000 -0.0049 -0.0000
vn 0.5268 -0.8500 -0.0000
vn -0.9754 -0.2205 -0.0000
vn 0.0594 -0.1767 0.9825
vn 0.9985 0.0543 -0.0000
vn 0.9706 0.2345 -0.0541
vn -0.9644 0.2589 -0.0538
vn -0.0000 0.1427 -0.9898
vn -0.0000 0.9226 0.3859
vn -0.9831 0.1769 -0.0474
vn -0.0000 0.8605 0.5094
vn -0.0000 0.0971 -0.9953
vn 0.9944 0.0944 -0.0473
vn 0.9914 0.1310 -0.0027
vn 0.0122 -0.1117 -0.9937
vn -0.0306 -0.0284 0.9991
vn -0.8420 -0.5393 0.0117
vn 0.1019 -0.1561 0.9825
vn -0.0268 -0.1643 -0.9860
vn -0.9916 0.1294 -0.0052
vn 0.9169 -0.3989 0.0107
vn -0.0846 0.0542 0.9949
vn -0.0687 -0.0704 -0.9952
vn -0.9990 0.0446 -0.0000
vn 0.0757 -0.0563 -0.9955
vn 0.9994 0.0353 -0.0000
vn -0.1547 0.0065 0.9879
vn -0.0443 0.0699 0.9966
vn 0.9911 0.1330 -0.0000
vn -0.0224 0.2514 -0.9676
vn -0.9903 0.1392 -0.0000
vn 0.0107 0.2828 -0.9591
vn 0.0538 -0.0049 0.9985
vn -0.1377 -0.0020 0.9905
vn 0.9961 0.0884 -0.0000
vn 0.0036 0.1242 -0.9922
vn -0.9954 0.0957 -0.0000
vn -0.0096 0.1062 -0.9943
vn 0.0205 -0.0715 0.9972
vn -0.9944 0.1000 0.0332
vn 0.0160 0.0138 -0.9998
vn 0.0393 -0.0082 0.9992
vn 0.9868 -0.1393 -0.0830
vn -0.0672 0.0467 0.9966
vn -0.9912 -0.1316 -0.0104
vn 0.9975 0.0711 -0.0000
vn 0.1945 -0.0117 -0.9808
vn 0.5149 0.0581 -0.8553
vn -0.2279 0.0602 0.9718
vn 0.5779 -0.0128 0.8160
vn -0.9975 -0.0675 0.0210
vn 0.9980 -0.0328 0.0549
vn -0.5144 -0.0539 -0.8558
vn -0.6025 -0.3147 -0.7335
vn 0.8739 -0.4750 0.1034
vn -0.8695 -0.4939 -0.0105
vn 0.6702 -0.4269 0.6070
vn -0.4154 -0.3385 0.8443
vn 0.3680 -0.3156 -0.8746
vn -0.6151 -0.4177 0.6687
vn -0.4418 -0.3078 -0.8426
vn -0.5147 0.0436 -0.8563
vn -0.5352 0.0154 0.8446
vn -0.0073 0.1235 -0.9923
vn -0.1204 -0.0738 0.9900
vn 0.0081 0.2417 -0.9703
vn -0.0773 0.0394 0.9962
vn -0.0113 0.0463 0.9989
vn -0.0674 -0.0555 -0.9962
vn -0.0253 -0.1490 -0.9885
vn 0.1001 -0.1719 0.9800
vn 0.0007 -0.1938 0.9810
vn -0.5406 -0.2573 -0.8009
vn -0.6589 -0.1440 0.7383
vn 0.0768 -0.0568 0.9954
vn -0.0104 -0.1607 -0.9869
vn -0.2446 0.8040 -0.5420
vn -0.1492 0.9469 0.2847
vn -0.4872 0.1365 0.8625
vn -0.2750 0.8318 0.4821
vn -0.1503 -0.9222 -0.3564
vn -0.3786 -0.8433 0.3814
vn -0.4244 0.2552 -0.8688
vn -0.5239 0.0400 0.8508
vn -0.1987 0.9499 -0.2412
vn -0.2203 0.9628 0.1565
vn -0.5039 0.0376 -0.8629
vn -0.0520 -0.0590 -0.9969
vn -0.0049 0.1154 -0.9933
vn -0.1271 0.0025 -0.9919
vn -0.0362 0.0068 0.9993
vn -0.1999 0.1385 0.9700
vn 0.5917 -0.2838 -0.7545
vn 0.4470 -0.3235 0.8340
vn 0.1623 0.0626 0.9848
vn 0.5583 0.0507 -0.8281
vn 0.1675 0.0044 0.9859
vn 0.0073 0.1043 -0.9945
vn 0.0694 0.0237 0.9973
vn -0.0272 0.2916 -0.9561
vn 0.0775 -0.0723 -0.9944
vn 0.1648 0.0156 0.9862
vn -0.0240 -0.0879 0.9958
vn 0.0127 -0.1162 -0.9931
vn 0.1494 0.9394 0.3084
vn 0.2623 -0.1838 0.9473
vn 0.5360 -0.2971 -0.7902
vn 0.0179 0.2140 -0.9767
vn 0.0278 -0.1483 -0.9886
vn 0.0095 -0.1757 -0.9844
vn 0.0034 -0.0629 0.9980
vn 0.2222 0.8631 0.4535
vn 0.3445 0.7262 -0.5950
vn 0.5454 0.2287 -0.8063
vn 0.3303 0.1420 0.9331
vn 0.3359 -0.8698 -0.3614
vn 0.5039 0.0394 -0.8629
vn 0.5240 0.0370 0.8509
vn 0.3269 -0.9038 0.2764
vn 0.2141 0.9439 0.2514
vn 0.1640 0.9827 -0.0862
vn 0.1858 0.1449 0.9718
vn 0.1355 0.0690 0.9884
vn 0.0168 -0.1228 0.9923
vn 0.1391 -0.0312 -0.9898
vn -0.0105 0.1203 -0.9927
vn 0.1846 0.1259 -0.9747
vt 0.912488 0.680026
vt 0.936857 0.661030
vt 0.943818 0.680468
vt 0.907024 0.686372
vt 0.697133 0.435472
vt 0.700287 0.478822
vt 0.668635 0.472383
vt 0.654501 0.435426
vt 0.642048 0.474239
vt 0.648132 0.427401
vt 0.668166 0.771030
vt 0.671106 0.806371
vt 0.648482 0.801019
vt 0.639715 0.770967
vt 0.097935 0.135409
vt 0.058750 0.135409
vt 0.058750 0.124834
vt 0.097935 0.124834
vt 0.923831 0.082398
vt 0.919898 0.138865
vt 0.861543 0.142410
vt 0.862306 0.086135
vt 0.669194 0.719782
vt 0.641445 0.720915
vt 0.696051 0.217355
vt 0.647541 0.219253
vt 0.642048 0.154113
vt 0.694898 0.147625
vt 0.922417 0.275618
vt 0.923831 0.325409
vt 0.880218 0.328058
vt 0.872133 0.278673
vt 0.928898 0.442823
vt 0.927926 0.496224
vt 0.871228 0.493406
vt 0.867783 0.439782
vt 0.697786 0.375435
vt 0.656731 0.377959
vt 0.704714 0.526541
vt 0.702544 0.573746
vt 0.688927 0.570756
vt 0.689879 0.524162
vt 0.919473 0.631103
vt 0.868361 0.677833
vt 0.869627 0.628625
vt 0.732040 0.375654
vt 0.732218 0.435729
vt 0.711062 0.435488
vt 0.711277 0.374625
vt 0.698470 0.720051
vt 0.698097 0.771358
vt 0.686216 0.771045
vt 0.686865 0.719111
vt 0.736881 0.148031
vt 0.737033 0.216418
vt 0.711966 0.216728
vt 0.712236 0.145494
vt 0.393929 0.125635
vt 0.367952 0.125635
vt 0.367952 0.107792
vt 0.393929 0.107792
vt 0.694458 0.808235
vt 0.685551 0.809787
vt 0.727289 0.476696
vt 0.710713 0.480910
vt 0.093745 0.576197
vt 0.104218 0.576197
vt 0.108427 0.648774
vt 0.094678 0.648774
vt 0.466306 0.125635
vt 0.450532 0.125635
vt 0.450532 0.107792
vt 0.466306 0.107792
vt 0.533113 0.125635
vt 0.492284 0.125635
vt 0.492284 0.107792
vt 0.533113 0.107792
vt 0.409703 0.125635
vt 0.409703 0.107792
vt 0.133655 0.578905
vt 0.151349 0.578905
vt 0.155968 0.648262
vt 0.131318 0.648262
vt 0.127780 0.135409
vt 0.127780 0.124834
vt 0.187079 0.135409
vt 0.177022 0.135409
vt 0.177022 0.124834
vt 0.187079 0.124834
vt 0.137837 0.135409
vt 0.137837 0.124834
vt 0.678573 0.897905
vt 0.678573 0.937055
vt 0.635585 0.925644
vt 0.633930 0.919852
vt 0.571476 0.678644
vt 0.553255 0.677338
vt 0.530573 0.652936
vt 0.584156 0.656209
vt 0.541581 0.704701
vt 0.550517 0.721962
vt 0.536149 0.742346
vt 0.532162 0.709186
vt 0.568867 0.723041
vt 0.580995 0.744817
vt 0.579320 0.692514
vt 0.588827 0.684116
vt 0.544329 0.690410
vt 0.538648 0.698917
vt 0.531020 0.698319
vt 0.530573 0.680687
vt 0.580403 0.707053
vt 0.584194 0.701686
vt 0.591131 0.701995
vt 0.588655 0.712605
vt 0.124019 0.758478
vt 0.156746 0.750878
vt 0.165538 0.780748
vt 0.132112 0.790037
vt 0.575993 0.903332
vt 0.603103 0.869334
vt 0.622575 0.913450
vt 0.617952 0.917699
vt 0.650159 0.974312
vt 0.631071 0.929652
vt 0.578190 0.951329
vt 0.620179 0.924888
vt 0.607337 0.976605
vt 0.587269 0.961733
vt 0.621078 0.927192
vt 0.624937 0.928551
vt 0.653086 0.871516
vt 0.663664 0.879698
vt 0.632575 0.916420
vt 0.630104 0.915366
vt 0.866343 0.869867
vt 0.872005 0.840722
vt 0.893607 0.849407
vt 0.890298 0.873753
vt 0.097194 0.755409
vt 0.113662 0.762044
vt 0.113986 0.793726
vt 0.094890 0.788722
vt 0.777045 0.897802
vt 0.780744 0.887384
vt 0.810115 0.886674
vt 0.809695 0.895741
vt 0.776713 0.869372
vt 0.780873 0.841276
vt 0.808191 0.843750
vt 0.808312 0.871877
vt 0.772057 0.961396
vt 0.781480 0.931981
vt 0.807682 0.929512
vt 0.789137 0.982927
vt 0.772057 0.811403
vt 0.794713 0.782952
vt 0.098970 0.912202
vt 0.114734 0.908377
vt 0.114903 0.929597
vt 0.099488 0.933753
vt 0.887688 0.995121
vt 0.869339 0.935291
vt 0.894872 0.928711
vt 0.928137 0.968274
vt 0.895548 0.775148
vt 0.938811 0.808274
vt 0.132099 0.876021
vt 0.191393 0.877094
vt 0.179681 0.923913
vt 0.129645 0.912127
vt 0.099591 0.876458
vt 0.114548 0.876042
vt 0.864798 0.898747
vt 0.863853 0.887696
vt 0.886123 0.888267
vt 0.887963 0.897440
vt 0.115663 0.954096
vt 0.102716 0.958974
vt 0.896937 0.888724
vt 0.899537 0.896925
vt 0.906479 0.854090
vt 0.901947 0.876014
vt 0.903529 0.923990
vt 0.929518 0.949121
vt 0.938838 0.830048
vt 0.174850 0.945535
vt 0.128203 0.934502
vt 0.449162 0.415269
vt 0.398188 0.415269
vt 0.398188 0.315325
vt 0.449162 0.315325
vt 0.552263 0.415269
vt 0.501288 0.415269
vt 0.501288 0.315325
vt 0.552263 0.315325
vt 0.468856 0.415269
vt 0.468856 0.315325
vt 0.378495 0.415269
vt 0.346062 0.415269
vt 0.346062 0.315325
vt 0.378495 0.315325
vt 0.210253 0.449325
vt 0.155041 0.449325
vt 0.155041 0.341891
vt 0.210253 0.341891
vt 0.224423 0.449325
vt 0.224423 0.341891
vt 0.140871 0.449325
vt 0.098820 0.449325
vt 0.098820 0.341891
vt 0.140871 0.341891
vt 0.043608 0.449325
vt 0.043608 0.341891
vt 0.449162 0.281784
vt 0.398188 0.281784
vt 0.398188 0.218930
vt 0.449162 0.218930
vt 0.552263 0.281784
vt 0.501288 0.281784
vt 0.501288 0.218930
vt 0.552263 0.218930
vt 0.468856 0.281784
vt 0.468856 0.218930
vt 0.378495 0.281784
vt 0.346062 0.281784
vt 0.346062 0.218930
vt 0.378495 0.218930
vt 0.210253 0.247103
vt 0.155041 0.247103
vt 0.155041 0.203605
vt 0.210253 0.203605
vt 0.224423 0.247103
vt 0.224423 0.203605
vt 0.140871 0.247103
vt 0.098820 0.247103
vt 0.098820 0.203605
vt 0.140871 0.203605
vt 0.043608 0.247103
vt 0.043608 0.203605
vt 0.398188 0.179612
vt 0.449162 0.179612
vt 0.501288 0.179612
vt 0.552263 0.179612
vt 0.468856 0.179612
vt 0.346062 0.179612
vt 0.378495 0.179612
vt 0.098820 0.306387
vt 0.043608 0.306387
vt 0.140871 0.306387
vt 0.224423 0.306387
vt 0.210253 0.306387
vt 0.155041 0.306387
vt 0.387929 0.820442
vt 0.357173 0.819410
vt 0.357515 0.766877
vt 0.373631 0.768380
vt 0.753234 0.470350
vt 0.765638 0.435787
vt 0.772105 0.428249
vt 0.778068 0.470936
vt 0.972394 0.634869
vt 0.978697 0.654791
vt 0.867783 0.686167
vt 0.319110 0.942944
vt 0.320405 0.967828
vt 0.286620 0.963631
vt 0.295141 0.938894
vt 0.323514 0.985678
vt 0.279084 0.979684
vt 0.266681 0.943854
vt 0.345498 0.952770
vt 0.359051 0.754171
vt 0.336496 0.760491
vt 0.338633 0.730496
vt 0.358110 0.727083
vt 0.332497 0.821451
vt 0.336330 0.770127
vt 0.304239 0.820107
vt 0.281839 0.811461
vt 0.297647 0.760118
vt 0.315805 0.769501
vt 0.475167 0.942539
vt 0.457048 0.977053
vt 0.450329 0.963133
vt 0.445667 0.939694
vt 0.918902 0.332786
vt 0.883487 0.334937
vt 0.863379 0.298216
vt 0.847787 0.314973
vt 0.834978 0.272897
vt 0.821997 0.291982
vt 0.419014 0.969120
vt 0.419507 0.940053
vt 0.519229 0.986515
vt 0.509187 0.948145
vt 0.539752 0.948629
vt 0.531087 0.975502
vt 0.423108 0.986515
vt 0.483539 0.827302
vt 0.459744 0.830251
vt 0.469380 0.778668
vt 0.490254 0.780023
vt 0.471855 0.768540
vt 0.491044 0.768548
vt 0.431884 0.824371
vt 0.449495 0.774626
vt 0.514235 0.829936
vt 0.510135 0.780232
vt 0.538713 0.832154
vt 0.530080 0.780859
vt 0.507585 0.908586
vt 0.537043 0.910144
vt 0.477799 0.905183
vt 0.422376 0.901497
vt 0.448649 0.903940
vt 0.293256 0.903723
vt 0.324399 0.907554
vt 0.265812 0.897242
vt 0.354530 0.907586
vt 0.387929 0.955623
vt 0.383095 0.909086
vt 0.830346 0.898026
vt 0.832294 0.886949
vt 0.845000 0.887140
vt 0.844201 0.898505
vt 0.081882 0.826710
vt 0.113936 0.825159
vt 0.113955 0.833910
vt 0.093181 0.839453
vt 0.137151 0.826565
vt 0.181796 0.808688
vt 0.191393 0.835459
vt 0.129968 0.839161
vt 0.831716 0.836421
vt 0.824120 0.776352
vt 0.851022 0.772746
vt 0.849305 0.835263
vt 0.819149 0.994685
vt 0.829648 0.935202
vt 0.846319 0.936040
vt 0.845456 1.000000
vt 0.830118 0.868806
vt 0.844783 0.868238
vt 0.667479 0.573612
vt 0.633610 0.583863
vt 0.635050 0.529541
vt 0.668489 0.526328
vt 0.953509 0.880002
vt 0.915304 0.882041
vt 0.919904 0.868225
vt 0.940921 0.862439
vt 0.911517 0.889768
vt 0.913674 0.894785
vt 0.917486 0.911734
vt 0.937743 0.919808
vt 0.149596 0.964563
vt 0.123810 0.957046
vt 0.564886 0.510927
vt 0.580494 0.509076
vt 0.580494 0.534539
vt 0.564662 0.534612
vt 0.369982 0.756755
vt 0.369828 0.730197
vt 0.318009 0.761491
vt 0.298563 0.747309
vt 0.310385 0.722511
vt 0.326475 0.730796
vt 0.474741 0.745446
vt 0.493351 0.739981
vt 0.509982 0.769807
vt 0.529576 0.770822
vt 0.450230 0.764368
vt 0.585147 0.509076
vt 0.564662 0.509076
vt 0.564662 0.482089
vt 0.585146 0.482089
vt 0.507957 0.740205
vt 0.526838 0.746223
vt 0.460585 0.741933
vt 0.450532 0.163779
vt 0.409703 0.163779
vt 0.533113 0.163779
vt 0.492284 0.163779
vt 0.466306 0.163779
vt 0.393929 0.163779
vt 0.367952 0.163779
vt 0.177022 0.173965
vt 0.137837 0.173965
vt 0.187079 0.173965
vt 0.127780 0.173965
vt 0.097935 0.173965
vt 0.058750 0.173965
vt 0.098820 0.478656
vt 0.043608 0.478656
vt 0.140871 0.478656
vt 0.224423 0.478656
vt 0.210253 0.478656
vt 0.155041 0.478656
vt 0.378495 0.442986
vt 0.346062 0.442986
vt 0.468856 0.442986
vt 0.449162 0.442986
vt 0.552263 0.442986
vt 0.501288 0.442986
vt 0.398188 0.442986
vt 0.700277 0.634646
vt 0.688173 0.632436
vt 0.734093 0.275223
vt 0.711706 0.272444
vt 0.921787 0.549040
vt 0.877737 0.546851
vt 0.697376 0.274779
vt 0.653764 0.281889
vt 0.913535 0.192945
vt 0.868603 0.195674
vt 0.669022 0.634467
vt 0.638438 0.637704
vt 0.668119 0.601594
vt 0.636223 0.605618
vt 0.916079 0.160771
vt 0.864706 0.163892
vt 0.696810 0.236003
vt 0.650766 0.244730
vt 0.925145 0.517577
vt 0.875065 0.515087
vt 0.735570 0.236531
vt 0.711900 0.233132
vt 0.701447 0.601780
vt 0.688567 0.599077
vt 0.054755 0.783138
vt 0.041528 0.810960
vt 0.032369 0.837330
vt 0.032309 0.878572
vt 0.772755 0.241839
vt 0.769154 0.279576
vt 0.776381 0.215906
vt 0.764554 0.377282
vt 0.958648 0.892442
vt 0.954472 0.899895
vt 0.055506 0.946591
vt 0.082045 0.965489
vt 0.048773 0.924710
vt 0.070988 0.747001
vt 0.077308 0.576197
vt 0.073100 0.648774
vt 0.775561 0.152006
vt 0.740924 0.609993
vt 0.738134 0.641486
vt 0.743856 0.588771
vt 0.733415 0.723145
vt 0.266474 0.478656
vt 0.266474 0.449325
vt 0.216924 0.173965
vt 0.216924 0.135409
vt 0.266474 0.341891
vt 0.266474 0.306387
vt 0.266474 0.247103
vt 0.266474 0.203605
vt 0.216924 0.124834
vt 0.127850 0.578905
vt 0.123231 0.648262
vt 0.734441 0.772347
vt 0.721542 0.803469
vt 0.749712 0.533565
s 0
usemtl Material.080
f 10/1/1 33/2/1 96/3/1 95/4/1
f 258/5/2 255/6/2 36/7/2 13/8/2
f 13/8/3 36/7/3 107/9/3 109/10/3
f 212/11/4 210/12/4 33/13/4 10/14/4
f 161/15/5 159/16/5 29/17/5 30/18/5
f 7/19/6 14/20/6 16/21/6 5/22/6
f 246/23/7 212/11/7 10/14/7 171/24/7
f 257/25/8 14/26/8 7/27/8 259/28/8
f 173/29/9 13/30/9 15/31/9 174/32/9
f 1/33/10 9/34/10 12/35/10 3/36/10
f 292/37/11 258/5/11 13/8/11 173/38/11
f 256/39/12 261/40/12 21/41/12 19/42/12
f 171/43/13 10/1/13 11/44/13 172/45/13
f 245/46/14 216/47/14 24/48/14 175/49/14
f 291/50/15 262/51/15 22/52/15 176/53/15
f 209/54/16 215/55/16 23/56/16 17/57/16
f 242/58/17 155/59/17 26/60/17 218/61/17
f 262/51/18 260/62/18 38/63/18 22/52/18
f 216/47/19 213/64/19 35/65/19 24/48/19
f 217/66/20 27/67/20 28/68/20 218/69/20
f 241/70/21 156/71/21 27/72/21 217/73/21
f 155/74/22 158/75/22 25/76/22 26/77/22
f 156/71/23 157/78/23 28/79/23 27/72/23
f 264/80/24 30/81/24 29/82/24 263/83/24
f 288/84/25 161/15/25 30/18/25 264/85/25
f 287/86/26 160/87/26 31/88/26 263/89/26
f 160/87/27 162/90/27 32/91/27 31/88/27
f 220/92/28 4/93/28 40/94/28 222/95/28
f 2/96/29 4/97/29 34/98/29 33/99/29
f 265/100/30 8/101/30 36/102/30 255/103/30
f 8/101/31 6/104/31 37/105/31 36/102/31
f 219/106/32 2/96/32 33/99/32 210/107/32
f 220/108/33 18/109/33 35/110/33 213/111/33
f 266/112/34 20/113/34 38/114/34 260/115/34
f 268/116/35 43/117/35 49/118/35 270/119/35
f 6/120/36 8/121/36 42/122/36 43/123/36
f 4/93/37 2/124/37 39/125/37 40/94/37
f 266/126/38 6/120/38 43/123/38 268/127/38
f 219/128/39 20/129/39 44/130/39 221/131/39
f 265/132/40 18/133/40 41/134/40 267/135/40
f 252/136/41 197/137/41 52/138/41 226/139/41
f 221/140/42 44/141/42 50/142/42 223/143/42
f 267/144/43 41/145/43 47/146/43 269/147/43
f 222/148/44 40/149/44 46/150/44 224/151/44
f 43/152/45 42/153/45 48/154/45 49/155/45
f 40/149/46 39/156/46 45/157/46 46/150/46
f 225/158/47 56/159/47 62/160/47 227/161/47
f 201/162/48 198/163/48 54/164/48 55/165/48
f 197/137/49 199/166/49 51/167/49 52/138/49
f 298/168/50 201/169/50 55/170/50 272/171/50
f 251/172/51 202/173/51 56/159/51 225/158/51
f 297/174/52 200/175/52 53/176/52 271/177/52
f 227/161/53 62/160/53 138/178/53 239/179/53
f 271/177/54 53/176/54 59/180/54 273/181/54
f 226/139/55 52/138/55 58/182/55 228/183/55
f 55/165/56 54/164/56 60/184/56 61/185/56
f 52/138/57 51/167/57 57/186/57 58/182/57
f 272/171/58 55/170/58 61/187/58 274/188/58
f 170/189/59 167/190/59 64/191/59 65/192/59
f 169/193/60 168/194/60 66/195/60 63/196/60
f 244/197/61 170/189/61 65/192/61 229/198/61
f 243/199/62 169/200/62 63/201/62 230/202/62
f 166/203/63 164/204/63 69/205/63 70/206/63
f 290/207/64 166/203/64 70/206/64 275/208/64
f 289/209/65 163/210/65 68/211/65 276/212/65
f 163/210/66 165/213/66 67/214/66 68/211/66
f 94/215/67 91/216/67 73/217/67 72/218/67
f 93/219/68 92/220/68 74/221/68 71/222/68
f 236/223/69 94/215/69 72/218/69 231/224/69
f 235/225/70 93/226/70 71/227/70 232/228/70
f 86/229/71 84/230/71 78/231/71 76/232/71
f 280/233/72 86/229/72 76/232/72 277/234/72
f 279/235/73 83/236/73 77/237/73 278/238/73
f 83/236/74 85/239/74 75/240/74 77/237/74
f 72/218/75 73/217/75 81/241/75 80/242/75
f 71/222/76 74/221/76 82/243/76 79/244/76
f 231/224/77 72/218/77 80/242/77 233/245/77
f 232/228/78 71/227/78 79/246/78 234/247/78
f 87/248/79 89/249/79 85/239/79 83/236/79
f 282/250/80 87/248/80 83/236/80 279/235/80
f 281/251/81 90/252/81 86/229/81 280/233/81
f 90/252/82 88/253/82 84/230/82 86/229/82
f 70/206/83 69/205/83 88/253/83 90/252/83
f 275/208/84 70/206/84 90/252/84 281/251/84
f 276/212/85 68/211/85 87/248/85 282/250/85
f 68/211/86 67/214/86 89/249/86 87/248/86
f 230/202/87 63/201/87 93/226/87 235/225/87
f 229/198/88 65/192/88 94/215/88 236/223/88
f 63/196/89 66/195/89 92/220/89 93/219/89
f 65/192/90 64/191/90 91/216/90 94/215/90
f 191/254/91 189/255/91 103/256/91 104/257/91
f 34/258/92 11/259/92 98/260/92 97/261/92
f 33/2/93 34/262/93 97/263/93 96/3/93
f 11/44/94 10/1/94 95/4/94 98/264/94
f 99/265/95 100/266/95 101/267/95 102/268/95
f 96/269/96 97/270/96 101/267/96 100/266/96
f 97/270/97 98/271/97 102/268/97 101/267/97
f 95/272/98 96/269/98 100/266/98 99/265/98
f 144/273/99 143/274/99 141/275/99 139/276/99
f 189/255/100 190/277/100 105/278/100 103/256/100
f 192/279/101 191/280/101 104/281/101 106/282/101
f 190/277/102 192/279/102 106/282/102 105/278/102
f 109/283/103 107/284/103 111/285/103 113/286/103
f 15/31/104 13/30/104 109/287/104 110/288/104
f 37/289/105 15/31/105 110/288/105 108/290/105
f 36/291/106 37/289/106 108/290/106 107/292/106
f 113/286/107 111/285/107 112/293/107 114/294/107
f 108/295/108 110/296/108 114/297/108 112/298/108
f 107/284/109 108/299/109 112/293/109 111/285/109
f 195/300/110 193/301/110 117/302/110 115/303/110
f 115/303/111 117/302/111 149/304/111 147/305/111
f 193/301/112 194/306/112 118/307/112 117/302/112
f 196/308/113 195/300/113 115/303/113 116/309/113
f 194/310/114 196/308/114 116/309/114 118/311/114
f 114/297/115 110/296/115 122/312/115 121/313/115
f 110/296/116 109/283/116 120/314/116 122/312/116
f 113/286/117 114/294/117 121/315/117 119/316/117
f 109/283/118 113/286/118 119/316/118 120/314/118
f 99/265/119 102/268/119 126/317/119 125/318/119
f 102/268/120 98/271/120 124/319/120 126/317/120
f 95/272/121 99/265/121 125/318/121 123/320/121
f 98/321/122 95/272/122 123/320/122 124/322/122
f 300/323/123 203/324/123 128/325/123 283/326/123
f 254/327/124 205/328/124 132/329/124 237/330/124
f 299/331/125 204/332/125 130/333/125 284/334/125
f 206/335/126 208/336/126 131/337/126 127/338/126
f 204/339/127 207/340/127 129/341/127 130/342/127
f 253/343/128 206/335/128 127/338/128 238/344/128
f 211/345/129 9/346/129 1/347/129 214/348/129
f 239/349/130 240/350/130 134/351/130 133/352/130
f 273/181/131 59/180/131 135/353/131 285/354/131
f 228/183/132 58/182/132 134/351/132 240/350/132
f 61/185/133 60/184/133 136/355/133 137/356/133
f 58/182/134 57/186/134 133/352/134 134/351/134
f 274/188/135 61/187/135 137/357/135 286/358/135
f 140/359/136 139/360/136 141/361/136 142/362/136
f 145/363/137 144/273/137 139/276/137 140/364/137
f 146/365/138 145/366/138 140/367/138 142/368/138
f 143/274/139 146/365/139 142/368/139 141/275/139
f 105/278/140 106/282/140 146/365/140 143/274/140
f 106/282/141 104/281/141 145/366/141 146/365/141
f 104/257/142 103/256/142 144/273/142 145/363/142
f 103/256/143 105/278/143 143/274/143 144/273/143
f 147/305/144 149/304/144 153/369/144 151/370/144
f 116/309/145 115/303/145 147/305/145 148/371/145
f 118/311/146 116/309/146 148/371/146 150/372/146
f 117/302/147 118/307/147 150/373/147 149/304/147
f 152/374/148 151/375/148 153/376/148 154/377/148
f 148/371/149 147/305/149 151/370/149 152/378/149
f 150/372/150 148/371/150 152/378/150 154/379/150
f 149/304/151 150/373/151 154/380/151 153/369/151
f 80/381/152 81/382/152 157/78/152 156/71/152
f 79/383/153 82/384/153 158/75/153 155/74/153
f 233/385/154 80/381/154 156/71/154 241/70/154
f 234/386/155 79/387/155 155/59/155 242/58/155
f 76/388/156 78/389/156 162/90/156 160/87/156
f 277/390/157 76/388/157 160/87/157 287/86/157
f 278/391/158 77/392/158 161/15/158 288/84/158
f 77/392/159 75/393/159 159/16/159 161/15/159
f 7/394/160 5/395/160 165/213/160 163/210/160
f 259/396/161 7/394/161 163/210/161 289/209/161
f 256/397/162 19/398/162 166/203/162 290/207/162
f 19/398/163 17/399/163 164/204/163 166/203/163
f 214/400/164 1/401/164 169/200/164 243/199/164
f 209/402/165 17/403/165 170/189/165 244/197/165
f 1/404/166 3/405/166 168/194/166 169/193/166
f 17/403/167 19/406/167 167/190/167 170/189/167
f 296/407/168 291/50/168 176/53/168 188/408/168
f 250/409/169 245/46/169 175/49/169 187/410/169
f 183/411/170 171/43/170 172/45/170 184/412/170
f 295/413/171 292/37/171 173/38/171 185/414/171
f 185/415/172 173/29/172 174/32/172 186/416/172
f 249/417/173 246/23/173 171/24/173 183/418/173
f 211/345/174 247/419/174 182/420/174 9/346/174
f 14/20/175 178/421/175 179/422/175 16/21/175
f 257/25/176 293/423/176 178/424/176 14/26/176
f 9/34/177 182/425/177 177/426/177 12/35/177
f 215/55/178 248/427/178 180/428/178 23/56/178
f 261/40/179 294/429/179 181/430/179 21/41/179
f 247/419/180 249/417/180 183/418/180 182/420/180
f 178/421/181 185/415/181 186/416/181 179/422/181
f 293/423/182 295/413/182 185/414/182 178/424/182
f 182/425/183 183/411/183 184/412/183 177/426/183
f 248/427/184 250/409/184 187/410/184 180/428/184
f 294/429/185 296/407/185 188/408/185 181/430/185
f 125/318/186 126/317/186 192/279/186 190/277/186
f 126/317/187 124/319/187 191/280/187 192/279/187
f 123/320/188 125/318/188 190/277/188 189/255/188
f 124/322/189 123/320/189 189/255/189 191/254/189
f 121/313/190 122/312/190 196/308/190 194/310/190
f 122/312/191 120/314/191 195/300/191 196/308/191
f 119/316/192 121/315/192 194/306/192 193/301/192
f 120/314/193 119/316/193 193/301/193 195/300/193
f 283/326/194 128/325/194 200/175/194 297/174/194
f 237/330/195 132/329/195 202/173/195 251/172/195
f 284/334/196 130/333/196 201/169/196 298/168/196
f 127/338/197 131/337/197 199/166/197 197/137/197
f 130/342/198 129/341/198 198/163/198 201/162/198
f 238/344/199 127/338/199 197/137/199 252/136/199
f 224/151/200 46/150/200 206/335/200 253/343/200
f 49/155/201 48/154/201 207/340/201 204/339/201
f 46/150/202 45/157/202 208/336/202 206/335/202
f 270/119/203 49/118/203 204/332/203 299/331/203
f 223/143/204 50/142/204 205/328/204 254/327/204
f 269/147/205 47/146/205 203/324/205 300/323/205
f 45/431/206 223/143/206 254/327/206 208/432/206
f 47/146/207 224/151/207 253/343/207 203/324/207
f 128/325/208 238/344/208 252/136/208 200/175/208
f 131/433/209 237/330/209 251/172/209 199/434/209
f 177/435/210 184/436/210 250/409/210 248/427/210
f 181/430/211 188/408/211 249/417/211 247/419/211
f 12/437/212 177/435/212 248/427/212 215/55/212
f 21/41/213 181/430/213 247/419/213 211/345/213
f 188/408/214 176/53/214 246/23/214 249/417/214
f 184/436/215 172/438/215 245/46/215 250/409/215
f 3/405/216 209/402/216 244/197/216 168/194/216
f 19/406/217 214/400/217 243/199/217 167/190/217
f 81/382/155 234/386/155 242/58/155 157/78/155
f 82/384/154 233/385/154 241/70/154 158/75/154
f 59/180/132 228/183/132 240/350/132 135/353/132
f 285/354/130 135/353/130 240/350/130 239/349/130 138/439/130 286/440/130
f 21/41/218 211/345/218 214/348/218 19/42/218
f 203/324/219 253/343/219 238/344/219 128/325/219
f 208/432/220 254/327/220 237/330/220 131/433/220
f 66/195/88 229/198/88 236/223/88 92/220/88
f 64/191/87 230/202/87 235/225/87 91/216/87
f 73/217/78 232/228/78 234/247/78 81/241/78
f 74/221/77 231/224/77 233/245/77 82/243/77
f 91/216/70 235/225/70 232/228/70 73/217/70
f 92/220/69 236/223/69 231/224/69 74/221/69
f 167/190/221 243/199/221 230/202/221 64/191/221
f 168/194/222 244/197/222 229/198/222 66/195/222
f 53/176/223 226/139/223 228/183/223 59/180/223
f 57/441/224 227/161/224 239/179/224 133/442/224
f 199/434/225 251/172/225 225/158/225 51/443/225
f 51/443/226 225/158/226 227/161/226 57/441/226
f 41/145/227 222/148/227 224/151/227 47/146/227
f 39/444/228 221/140/228 223/143/228 45/431/228
f 200/175/229 252/136/229 226/139/229 53/176/229
f 2/124/230 219/128/230 221/131/230 39/125/230
f 4/97/231 220/108/231 213/111/231 34/98/231
f 20/113/232 219/106/232 210/107/232 38/114/232
f 18/133/233 220/92/233 222/95/233 41/134/233
f 158/75/21 241/70/21 217/73/21 25/76/21
f 25/445/20 217/66/20 218/69/20 26/446/20
f 11/259/234 34/258/234 213/64/234 216/47/234
f 157/78/17 242/58/17 218/61/17 28/79/17
f 3/447/235 12/437/235 215/55/235 209/54/235
f 172/438/236 11/259/236 216/47/236 245/46/236
f 176/53/237 22/52/237 212/11/237 246/23/237
f 22/52/238 38/63/238 210/12/238 212/11/238
f 136/355/130 285/354/130 286/440/130 137/356/130
f 48/154/239 269/147/239 300/323/239 207/340/239
f 50/142/240 270/119/240 299/331/240 205/328/240
f 132/329/241 284/334/241 298/168/241 202/173/241
f 129/341/242 283/326/242 297/174/242 198/163/242
f 179/448/243 186/449/243 296/407/243 294/429/243
f 180/428/244 187/410/244 295/413/244 293/423/244
f 16/450/245 179/448/245 294/429/245 261/40/245
f 23/56/246 180/428/246 293/423/246 257/25/246
f 187/410/247 175/49/247 292/37/247 295/413/247
f 186/449/248 174/451/248 291/50/248 296/407/248
f 5/452/249 256/397/249 290/207/249 165/453/249
f 17/399/250 259/396/250 289/209/250 164/204/250
f 78/389/158 278/391/158 288/84/158 162/90/158
f 75/454/157 277/390/157 287/86/157 159/455/157
f 62/160/251 274/188/251 286/358/251 138/178/251
f 60/184/131 273/181/131 285/354/131 136/355/131
f 205/328/252 299/331/252 284/334/252 132/329/252
f 207/340/253 300/323/253 283/326/253 129/341/253
f 69/205/254 276/212/254 282/250/254 88/253/254
f 67/456/84 275/208/84 281/251/84 89/457/84
f 89/457/81 281/251/81 280/233/81 85/458/81
f 88/253/255 282/250/255 279/235/255 84/230/255
f 84/230/73 279/235/73 278/238/73 78/231/73
f 85/458/72 280/233/72 277/234/72 75/459/72
f 164/204/256 289/209/256 276/212/256 69/205/256
f 165/453/257 290/207/257 275/208/257 67/456/257
f 56/159/258 272/171/258 274/188/258 62/160/258
f 54/164/259 271/177/259 273/181/259 60/184/259
f 198/163/260 297/174/260 271/177/260 54/164/260
f 202/173/261 298/168/261 272/171/261 56/159/261
f 42/153/262 267/144/262 269/147/262 48/154/262
f 8/121/263 265/132/263 267/135/263 42/122/263
f 20/129/264 266/126/264 268/127/264 44/130/264
f 44/141/265 268/116/265 270/119/265 50/142/265
f 6/104/266 266/112/266 260/115/266 37/105/266
f 18/109/267 265/100/267 255/103/267 35/110/267
f 159/455/26 287/86/26 263/89/26 29/460/26
f 162/90/25 288/84/25 264/85/25 32/91/25
f 32/461/24 264/80/24 263/83/24 31/462/24
f 15/463/268 37/464/268 260/62/268 262/51/268
f 174/451/269 15/463/269 262/51/269 291/50/269
f 5/465/270 16/450/270 261/40/270 256/39/270
f 175/49/271 24/48/271 258/5/271 292/37/271
f 23/56/272 257/25/272 259/28/272 17/57/272
f 24/48/273 35/65/273 255/6/273 258/5/273
