# Blender 4.1.0
# www.blender.org
mtllib bouda.mtl
g bouda_Cube.052
v 318.870392 1.296881 -3.335066
v 318.871857 0.401825 -3.338016
v 318.587189 0.964343 -2.350514
v 318.587189 0.437123 -2.350514
v 317.885834 1.296881 -3.335066
v 317.885834 0.401825 -3.335066
v 318.169037 0.964343 -2.350514
v 318.169037 0.437123 -2.350514
v 318.871857 0.401825 -2.347564
v 318.870392 1.296881 -2.350514
v 317.885834 1.296881 -2.350514
v 317.885834 0.401825 -2.350514
v 318.806000 0.467028 -3.290247
v 318.806000 1.254632 -3.290247
v 317.926483 1.254632 -3.290247
v 317.926483 0.467028 -3.290247
v 317.926483 0.467028 -2.447799
v 318.806000 0.467028 -2.447799
v 318.806000 1.254632 -2.447799
v 317.926483 1.254632 -2.447799
v 318.378113 1.987802 -2.350514
v 318.376648 0.401825 -2.347564
v 318.378113 1.987802 -3.335066
v 318.376648 0.401825 -3.338016
v 318.378113 0.964343 -2.350514
v 318.378113 0.437123 -2.350514
v 318.366241 1.254632 -3.290247
v 318.366241 0.467028 -3.290247
v 318.366241 1.254632 -2.447799
v 318.366241 0.467028 -2.447799
vn 1.0000 0.0016 -0.0000
vn -0.0000 1.0000 -0.0000
vn -1.0000 -0.0000 -0.0000
vn 0.0017 0.0024 -1.0000
vn -0.8144 0.5803 -0.0000
vn -0.0000 -1.0000 -0.0000
vn -0.0063 0.0021 1.0000
vn -0.0000 -0.0000 1.0000
vn -0.0000 0.0833 0.9965
vn 1.0000 -0.0000 -0.0000
vn -0.0000 -0.3178 -0.9482
vn 0.3723 -0.0000 -0.9281
vn -0.4063 -0.0000 -0.9137
vn -0.0000 0.9559 0.2938
vn -0.0042 0.0587 0.9983
vn 0.8144 0.5803 -0.0000
vn -0.0038 0.0012 -1.0000
vt 0.212650 0.800733
vt 0.038596 0.800733
vt 0.038596 0.958966
vt 0.212650 0.958966
vt 0.623935 0.538699
vt 0.787178 0.538699
vt 0.787178 0.453487
vt 0.623935 0.453487
vt 0.038596 0.500779
vt 0.212650 0.500779
vt 0.212650 0.342547
vt 0.038596 0.342547
vt 0.506946 0.672310
vt 0.412432 0.804963
vt 0.412432 0.976810
vt 0.506946 0.976810
vt 0.038596 0.650756
vt 0.212650 0.650756
vt 0.843398 0.214219
vt 0.843398 0.018717
vt 0.745647 0.018717
vt 0.745647 0.214219
vt 0.408740 0.686567
vt 0.447163 0.692308
vt 0.469261 0.540695
vt 0.423264 0.597679
vt 0.374134 0.588887
vt 0.374134 0.394153
vt 0.280468 0.525615
vt 0.334350 0.588887
vt 0.374134 0.689201
vt 0.374134 0.695918
vt 0.467799 0.695918
vt 0.413917 0.689201
vt 0.280468 0.695918
vt 0.334350 0.689201
vt 0.700243 0.955858
vt 0.785455 0.955858
vt 0.785455 0.803242
vt 0.700243 0.803242
vt 0.789165 0.775256
vt 0.963288 0.775256
vt 0.963288 0.612469
vt 0.789165 0.612469
vt 0.771237 0.952267
vt 0.934481 0.952267
vt 0.934481 0.799651
vt 0.771237 0.799651
vt 0.623935 0.709124
vt 0.787178 0.709124
vt 0.787178 0.623912
vt 0.623935 0.623912
vt 0.266774 0.719938
vt 0.212650 0.717838
vt 0.212650 0.795580
vt 0.266774 0.756902
vt 0.480060 0.216472
vt 0.504800 0.216472
vt 0.506893 0.082902
vt 0.481055 0.082902
vt 0.477922 0.503403
vt 0.500303 0.503403
vt 0.502397 0.369833
vt 0.478917 0.369833
vt 0.525230 0.337682
vt 0.524936 0.320245
vt 0.469517 0.320310
vt 0.469819 0.338202
vt 0.469120 0.322285
vt 0.469499 0.340789
vt 0.530007 0.340498
vt 0.529617 0.321496
vt 0.266774 0.682974
vt 0.212650 0.640096
vt 0.623935 0.794337
vt 0.787178 0.794337
vt 0.615030 0.955858
vt 0.615030 0.803242
vt 0.413917 0.588887
vt 0.467799 0.525615
vt 0.941148 0.214219
vt 0.941148 0.018717
vt 0.601461 0.804963
vt 0.601461 0.976810
vt 0.623935 0.623912
s 0
g bouda_Material.049
usemtl Material.049
f 1/1/1 10/2/1 9/3/1 2/4/1
f 30/5/2 28/6/2 16/7/2 17/8/2
f 11/9/3 5/10/3 6/11/3 12/12/3
f 23/13/4 1/14/4 2/15/4 24/16/4
f 21/17/5 23/18/5 5/10/5 11/9/5
f 22/19/6 24/20/6 2/21/6 9/22/6
f 4/23/7 9/24/7 10/25/7 3/26/7
f 25/27/8 21/28/8 11/29/8 7/30/8
f 26/31/9 22/32/9 9/33/9 4/34/9
f 7/30/8 11/29/8 12/35/8 8/36/8
f 27/37/8 15/38/8 16/39/8 28/40/8
f 19/41/3 14/42/3 13/43/3 18/44/3
f 17/45/10 16/46/10 15/47/10 20/48/10
f 29/49/6 27/50/6 14/51/6 19/52/6
f 25/53/11 29/54/11 19/55/11 3/56/11
f 8/57/12 17/58/12 20/59/12 7/60/12
f 3/61/13 19/62/13 18/63/13 4/64/13
f 26/65/14 30/66/14 17/67/14 8/68/14
f 4/69/14 18/70/14 30/71/14 26/72/14
f 7/73/11 20/74/11 29/54/11 25/53/11
f 20/75/6 15/76/6 27/50/6 29/49/6
f 14/77/8 27/37/8 28/40/8 13/78/8
f 8/36/15 12/35/15 22/32/15 26/31/15
f 3/79/8 10/80/8 21/28/8 25/27/8
f 12/81/6 6/82/6 24/20/6 22/19/6
f 10/2/16 1/1/16 23/18/16 21/17/16
f 5/83/17 23/13/17 24/16/17 6/84/17
f 18/85/2 13/51/2 28/6/2 30/5/2
