# Blender 4.1.0
# www.blender.org
mtllib brokovnice.mtl
o zbran
v 157.393494 1.257321 -1.311188
v 157.402481 1.349043 -1.311188
v 157.393494 1.257321 -1.353612
v 157.402481 1.349043 -1.353612
v 157.588135 1.284422 -1.311188
v 157.583954 1.359364 -1.311188
v 157.588135 1.284422 -1.353612
v 157.583954 1.359364 -1.353612
v 157.782791 1.359619 -1.348050
v 157.782791 1.298981 -1.347816
v 157.782791 1.298981 -1.318239
v 157.782791 1.359619 -1.318678
v 157.323471 1.240855 -1.353612
v 157.323471 1.240855 -1.311188
v 157.323471 1.352783 -1.311188
v 157.323471 1.352783 -1.353612
v 157.402481 1.300088 -1.311188
v 157.402481 1.300088 -1.353612
v 157.584290 1.330129 -1.353612
v 157.584290 1.330129 -1.311188
v 157.782791 1.339739 -1.348050
v 157.782791 1.339739 -1.318678
v 157.323471 1.290564 -1.311188
v 157.323471 1.290564 -1.353612
v 157.397675 1.211728 -1.353612
v 157.397675 1.211728 -1.311188
v 157.576309 1.258067 -1.353612
v 157.576309 1.258067 -1.311188
v 157.323654 1.181830 -1.353612
v 157.323654 1.181830 -1.311188
v 157.782791 1.365277 -1.353612
v 157.782791 1.365277 -1.311188
v 157.782791 1.322935 -1.347816
v 157.782791 1.322935 -1.318239
v 157.782791 1.330129 -1.353612
v 157.782791 1.291029 -1.353612
v 157.782791 1.291029 -1.311188
v 157.782791 1.330129 -1.311188
v 158.359787 1.359619 -1.348050
v 158.359787 1.359619 -1.318678
v 158.359787 1.339739 -1.348050
v 158.359787 1.339739 -1.318678
v 158.089981 1.322935 -1.347816
v 158.089981 1.298981 -1.347816
v 158.089981 1.298981 -1.318239
v 158.089981 1.322935 -1.318239
v 158.091797 1.327353 -1.353272
v 158.091797 1.294563 -1.353272
v 158.091797 1.294563 -1.312783
v 158.091797 1.327353 -1.312783
v 158.232620 1.319972 -1.345891
v 158.232620 1.301944 -1.345891
v 158.232620 1.301944 -1.320164
v 158.232620 1.319972 -1.320164
v 158.232620 1.327353 -1.353272
v 158.232620 1.294563 -1.353272
v 158.232620 1.294563 -1.312783
v 158.232620 1.327353 -1.312783
v 158.267746 1.319972 -1.345891
v 158.267746 1.301944 -1.345891
v 158.267746 1.301944 -1.320164
v 158.267746 1.319972 -1.320164
v 157.639877 1.286178 -1.311188
v 157.636810 1.360935 -1.311188
v 157.639877 1.286178 -1.353612
v 157.636810 1.360935 -1.353612
v 157.637054 1.330129 -1.353612
v 157.637054 1.330129 -1.311188
v 157.600647 1.260812 -1.311188
v 157.600647 1.260812 -1.353612
v 157.632248 1.268792 -1.311188
v 157.632248 1.268792 -1.353612
vn -0.0000 -0.0000 -1.0000
vn -0.0000 -0.0000 1.0000
vn 0.9124 -0.4094 -0.0000
vn -0.0568 0.9984 -0.0000
vn 0.0339 -0.9994 -0.0000
vn -0.0297 0.9996 -0.0000
vn -1.0000 -0.0000 -0.0000
vn 0.0473 0.9989 -0.0000
vn -1.0000 -0.0031 -0.0000
vn 0.2511 -0.9680 -0.0000
vn 0.3745 -0.9272 -0.0000
vn 1.0000 -0.0000 -0.0000
vn -0.9489 -0.0000 0.3156
vn -0.0000 1.0000 -0.0000
vn -0.0000 -1.0000 -0.0000
vn -0.9489 -0.0000 -0.3156
vn -0.9251 0.3798 -0.0000
vn -0.9251 -0.3798 -0.0000
vn 0.9158 -0.4016 -0.0000
vn 0.2448 -0.9696 -0.0000
vn -0.8837 -0.4680 -0.0000
vt 0.247209 0.598912
vt 0.306191 0.612988
vt 0.326389 0.710728
vt 0.257439 0.708852
vt 0.179306 0.597064
vt 0.171838 0.344945
vt 0.212401 0.345586
vt 0.481861 0.519602
vt 0.544276 0.521910
vt 0.542910 0.724684
vt 0.487481 0.726192
vt 0.479827 0.444807
vt 0.438370 0.445461
vt 0.446002 0.187787
vt 0.515402 0.185899
vt 0.058104 0.483888
vt 0.120057 0.483888
vt 0.120057 0.526071
vt 0.058104 0.526071
vt 0.722044 0.494787
vt 0.722044 0.792536
vt 0.652553 0.792536
vt 0.652553 0.494787
vt 0.120057 0.369542
vt 0.058104 0.369542
vt 0.058104 0.160736
vt 0.120057 0.160736
vt 0.722044 0.408181
vt 0.652553 0.408181
vt 0.652553 0.168971
vt 0.722044 0.168971
vt 0.214392 0.272403
vt 0.171652 0.271580
vt 0.171138 0.068940
vt 0.219890 0.070266
vt 0.967047 0.351115
vt 0.967048 0.422362
vt 0.918466 0.422362
vt 0.918466 0.351115
vt 0.437654 0.075935
vt 0.525857 0.073536
vt 0.722044 0.922085
vt 0.652553 0.922085
vt 0.967047 0.294192
vt 0.918466 0.294192
vt 0.918466 0.226602
vt 0.967047 0.226602
vt 0.575683 0.171512
vt 0.596326 0.071619
vt 0.275461 0.270144
vt 0.274124 0.071741
vt 0.544770 0.448496
vt 0.438180 0.520443
vt 0.437654 0.727548
vt 0.275944 0.341976
vt 0.171138 0.706505
vt 0.780871 0.633751
vt 0.752717 0.633751
vt 0.752717 0.063272
vt 0.780870 0.063272
vt 0.898122 0.965801
vt 0.864506 0.965801
vt 0.864506 0.696298
vt 0.898122 0.696298
vt 0.058104 0.795560
vt 0.120057 0.795560
vt 0.120057 0.912146
vt 0.058104 0.912146
vt 0.680007 0.069599
vt 0.640478 0.175695
vt 0.581676 0.430715
vt 0.312054 0.359374
vt 0.369589 0.608896
vt 0.408266 0.712705
vt 0.109119 0.060575
vt 0.066226 0.060575
vt 0.058104 0.052313
vt 0.120057 0.052313
vt 0.066226 0.089605
vt 0.058104 0.103639
vt 0.109119 0.089605
vt 0.120057 0.103639
vt 0.066568 0.114145
vt 0.066568 0.149124
vt 0.109760 0.149124
vt 0.109760 0.114145
vt 0.540621 0.873378
vt 0.511804 0.873378
vt 0.511804 0.830800
vt 0.540621 0.830800
vt 0.422418 0.886345
vt 0.456858 0.881922
vt 0.464272 0.889372
vt 0.417127 0.895427
vt 0.822998 0.965801
vt 0.822998 0.696298
vt 0.822468 0.633751
vt 0.822468 0.063272
vt 0.939630 0.965801
vt 0.939630 0.696298
vt 0.892219 0.633751
vt 0.850622 0.633751
vt 0.850622 0.063272
vt 0.892219 0.063272
vt 0.973246 0.965801
vt 0.973246 0.696298
vt 0.182433 0.843230
vt 0.182433 0.790206
vt 0.366868 0.790206
vt 0.366868 0.843230
vt 0.454121 0.839134
vt 0.419399 0.839134
vt 0.412994 0.830800
vt 0.460526 0.830800
vt 0.416662 0.881922
vt 0.409248 0.889372
vt 0.749286 0.961560
vt 0.749286 0.932031
vt 0.806821 0.932031
vt 0.806821 0.961560
vt 0.182433 0.939196
vt 0.182433 0.886172
vt 0.366868 0.886172
vt 0.366868 0.939196
vt 0.182433 0.982138
vt 0.366868 0.982138
vt 0.474971 0.878792
vt 0.501105 0.878792
vt 0.511804 0.889492
vt 0.464272 0.889492
vt 0.501105 0.841500
vt 0.511804 0.830800
vt 0.474971 0.841500
vt 0.464272 0.830800
vt 0.474971 0.841500
vt 0.464272 0.830800
vt 0.566755 0.868093
vt 0.540621 0.868093
vt 0.540621 0.830800
vt 0.566755 0.830800
vt 0.749286 0.889891
vt 0.749286 0.860362
vt 0.806821 0.860362
vt 0.806821 0.889891
vt 0.749286 0.818222
vt 0.806821 0.818222
vt 0.120057 0.397265
vt 0.058104 0.397265
vt 0.120057 0.444874
vt 0.058104 0.444874
vt 0.299289 0.281375
vt 0.309164 0.325522
vt 0.578722 0.465312
vt 0.568629 0.510432
s 0
g zbran_Material.044
usemtl Material.044
f 18/1/1 3/2/1 13/3/1 24/4/1
f 18/1/1 4/5/1 8/6/1 19/7/1
f 68/8/2 63/9/2 37/10/2 38/11/2
f 20/12/2 6/13/2 2/14/2 17/15/2
f 7/16/3 5/17/3 28/18/3 27/19/3
f 8/20/4 4/21/4 2/22/4 6/23/4
f 63/24/5 65/25/5 36/26/5 37/27/5
f 66/28/6 64/29/6 32/30/6 31/31/6
f 67/32/1 66/33/1 31/34/1 35/35/1
f 23/36/7 15/37/7 16/38/7 24/39/7
f 17/15/2 2/14/2 15/40/2 23/41/2
f 2/22/8 4/21/8 16/42/8 15/43/8
f 14/44/9 13/45/9 29/46/9 30/47/9
f 1/48/2 17/15/2 23/41/2 14/49/2
f 14/44/7 23/36/7 24/39/7 13/45/7
f 65/50/1 67/32/1 35/35/1 36/51/1
f 5/52/2 20/12/2 17/15/2 1/48/2
f 64/53/2 68/8/2 38/11/2 32/54/2
f 3/2/1 18/1/1 19/7/1 7/55/1
f 4/5/1 18/1/1 24/4/1 16/56/1
f 12/57/2 22/58/2 42/59/2 40/60/2
f 10/61/1 33/62/1 43/63/1 44/64/1
f 25/65/10 27/19/10 28/18/10 26/66/10
f 25/65/11 26/66/11 30/67/11 29/68/11
f 1/48/2 14/49/2 30/69/2 26/70/2
f 5/52/2 1/48/2 26/70/2 28/71/2
f 3/2/1 7/55/1 27/72/1 25/73/1
f 13/3/1 3/2/1 25/73/1 29/74/1
f 12/75/12 9/76/12 31/77/12 32/78/12
f 9/76/12 21/79/12 35/80/12 31/77/12
f 22/81/12 12/75/12 32/78/12 38/82/12
f 21/79/12 22/81/12 38/82/12 35/80/12
f 33/83/12 10/84/12 36/26/12 35/80/12
f 10/84/12 11/85/12 37/27/12 36/26/12
f 11/85/12 34/86/12 38/82/12 37/27/12
f 34/86/12 33/83/12 35/80/12 38/82/12
f 40/87/12 42/88/12 41/89/12 39/90/12
f 46/91/13 45/92/13 49/93/13 50/94/13
f 33/62/14 34/95/14 46/96/14 43/63/14
f 9/97/14 12/57/14 40/60/14 39/98/14
f 11/99/15 10/61/15 44/64/15 45/100/15
f 22/101/15 21/102/15 41/103/15 42/104/15
f 21/102/1 9/97/1 39/98/1 41/103/1
f 34/105/2 11/99/2 45/100/2 46/106/2
f 47/107/14 50/108/14 58/109/14 55/110/14
f 44/111/16 43/112/16 47/113/16 48/114/16
f 43/112/17 46/115/17 50/116/17 47/113/17
f 45/92/18 44/111/18 48/114/18 49/93/18
f 54/117/2 53/118/2 61/119/2 62/120/2
f 49/121/15 48/122/15 56/123/15 57/124/15
f 50/125/2 49/121/2 57/124/2 58/126/2
f 48/122/1 47/107/1 55/110/1 56/123/1
f 51/127/12 52/128/12 56/129/12 55/130/12
f 52/128/12 53/131/12 57/132/12 56/129/12
f 53/131/12 54/133/12 58/134/12 57/132/12
f 54/135/12 51/127/12 55/130/12 58/136/12
f 60/137/12 59/138/12 62/139/12 61/140/12
f 52/141/1 51/142/1 59/143/1 60/144/1
f 51/142/14 54/145/14 62/146/14 59/143/14
f 53/118/15 52/141/15 60/144/15 61/119/15
f 6/13/2 20/12/2 68/8/2 64/53/2
f 7/55/1 19/7/1 67/32/1 65/50/1
f 19/7/1 8/6/1 66/33/1 67/32/1
f 8/20/6 6/23/6 64/29/6 66/28/6
f 65/25/19 63/24/19 71/147/19 72/148/19
f 20/12/2 5/52/2 63/9/2 68/8/2
f 69/149/20 70/150/20 72/148/20 71/147/20
f 5/17/21 7/16/21 70/150/21 69/149/21
f 7/55/1 65/50/1 72/151/1 70/152/1
f 63/9/2 5/52/2 69/153/2 71/154/2
