# Blender 4.1.0
# www.blender.org
mtllib znacka stop.mtl
o stop_cedula
v 163.046066 2.934510 -1.620423
v 163.456558 3.104541 -1.620423
v 163.626587 3.515031 -1.620423
v 163.456558 3.925521 -1.620423
v 163.046066 4.095552 -1.620423
v 162.635574 3.925521 -1.620423
v 162.465546 3.515031 -1.620423
v 162.635574 3.104541 -1.620423
v 163.502762 3.058340 -1.685508
v 163.046066 2.869172 -1.685508
v 163.691925 3.515031 -1.685508
v 163.502762 3.971723 -1.685508
v 163.046066 4.160890 -1.685508
v 162.589371 3.971722 -1.685508
v 162.400208 3.515031 -1.685508
v 162.589371 3.058339 -1.685508
v 163.058594 2.939696 -1.620423
v 163.081696 2.883927 -1.685508
v 163.030823 2.940825 -1.620423
v 163.007721 2.885055 -1.685508
v 163.081696 1.150073 -1.620423
v 163.046066 1.135317 -1.620423
v 163.081696 1.150073 -1.685508
v 163.046066 1.135317 -1.685508
v 163.007721 1.151201 -1.620423
v 163.007721 1.151201 -1.685508
v 163.081696 2.883927 -1.620423
v 163.046066 2.869172 -1.620423
v 163.691925 3.515031 -1.620423
v 163.502762 3.058340 -1.620423
v 163.502762 3.971723 -1.620423
v 163.046066 4.160890 -1.620423
v 162.589371 3.971722 -1.620423
v 162.400208 3.515031 -1.620423
v 162.589371 3.058339 -1.620423
v 163.007721 2.885055 -1.620423
vn -0.0000 -0.0000 -1.0000
vn -0.0000 -0.0000 1.0000
vn 0.9239 -0.3827 -0.0000
vn -0.3827 -0.9239 -0.0000
vn -0.9239 0.3827 -0.0000
vn 0.9239 0.3827 -0.0000
vn 0.3827 -0.9239 -0.0000
vn -0.9239 -0.3827 -0.0000
vn -0.3827 0.9239 -0.0000
vn 1.0000 -0.0000 -0.0000
vn 0.3827 0.9239 -0.0000
vn -1.0000 -0.0000 -0.0000
vt 0.000000 0.000000
s 0
g stop_cedula_Material.062
usemtl Material.062
f 9/1/2 11/1/2 12/1/2 13/1/2 14/1/2 15/1/2 16/1/2 20/1/2 10/1/2 18/1/2
f 36/1/1 28/1/1 22/1/1 25/1/1
f 33/1/3 34/1/3 15/1/3 14/1/3
f 31/1/4 32/1/4 13/1/4 12/1/4
f 30/1/5 29/1/5 11/1/5 9/1/5
f 34/1/6 35/1/6 16/1/6 15/1/6
f 32/1/7 33/1/7 14/1/7 13/1/7
f 29/1/8 31/1/8 12/1/8 11/1/8
f 27/1/9 30/1/9 9/1/9 18/1/9
f 20/1/10 36/1/10 25/1/10 26/1/10
f 35/1/11 36/1/11 20/1/11 16/1/11
f 25/1/11 22/1/11 24/1/11 26/1/11
f 22/1/9 21/1/9 23/1/9 24/1/9
f 18/1/2 10/1/2 24/1/2 23/1/2
f 10/1/2 20/1/2 26/1/2 24/1/2
f 27/1/12 18/1/12 23/1/12 21/1/12
f 28/1/1 27/1/1 21/1/1 22/1/1
g stop_cedula_Material.203
usemtl Material.203
f 2/1/1 17/1/1 1/1/1 19/1/1 8/1/1 7/1/1 6/1/1 5/1/1 4/1/1 3/1/1
g stop_cedula_Material.064
usemtl Material.064
f 1/1/1 17/1/1 27/1/1 28/1/1
f 2/1/1 3/1/1 29/1/1 30/1/1
f 3/1/1 4/1/1 31/1/1 29/1/1
f 4/1/1 5/1/1 32/1/1 31/1/1
f 5/1/1 6/1/1 33/1/1 32/1/1
f 6/1/1 7/1/1 34/1/1 33/1/1
f 7/1/1 8/1/1 35/1/1 34/1/1
f 8/1/1 19/1/1 36/1/1 35/1/1
f 17/1/1 2/1/1 30/1/1 27/1/1
f 19/1/1 1/1/1 28/1/1 36/1/1
