# Blender 4.1.0
# www.blender.org
mtllib umyvadlo.mtl
o umyvadlo
v 128.714355 1.278612 -1.091989
v 128.774323 1.513295 -1.151962
v 128.714355 1.278612 -1.519024
v 128.774323 1.513295 -1.459051
v 129.320984 1.278612 -1.091989
v 129.261017 1.513295 -1.151962
v 129.320984 1.278612 -1.519024
v 129.261017 1.513295 -1.459051
v 128.714355 1.513295 -1.091989
v 128.714355 1.513295 -1.519024
v 129.320984 1.513295 -1.519024
v 129.320984 1.513295 -1.091989
v 128.774323 1.335927 -1.151962
v 128.774323 1.335927 -1.459051
v 129.261017 1.335927 -1.459051
v 129.261017 1.335927 -1.151962
v 129.138321 1.274745 -1.560320
v 128.897003 1.274745 -1.560320
v 128.960022 1.543316 -1.561351
v 129.078110 1.543316 -1.561351
v 128.897003 1.274745 -1.050693
v 129.138321 1.274745 -1.050693
v 129.138321 1.533219 -1.050693
v 128.897003 1.533219 -1.050693
v 128.973953 1.539454 -1.519043
v 129.064178 1.539454 -1.519043
v 129.114471 1.533219 -1.122265
v 128.920868 1.533219 -1.122265
v 128.920868 1.321546 -1.488748
v 129.114471 1.321546 -1.488748
v 129.114471 1.321546 -1.122265
v 128.920868 1.321546 -1.122265
v 128.750992 1.499606 -1.577340
v 128.750992 1.293270 -1.577340
v 128.911575 1.289871 -1.613648
v 129.071915 1.537781 -1.583354
v 129.284348 1.499606 -1.577340
v 129.284348 1.293270 -1.577340
v 129.123749 1.289871 -1.613648
v 128.966217 1.537781 -1.583354
v 128.920868 1.533219 -1.488748
v 129.114471 1.533219 -1.488748
v 128.897003 1.533219 -1.560320
v 129.138321 1.533219 -1.560320
v 128.911575 1.523550 -1.613648
v 129.123749 1.523550 -1.613648
v 128.973953 1.733128 -1.522391
v 129.064178 1.733128 -1.522391
v 128.960022 1.736990 -1.564700
v 129.078110 1.736990 -1.564700
v 128.966217 1.731455 -1.586702
v 129.071915 1.731455 -1.586702
v 128.966217 1.684162 -1.585884
v 129.071915 1.684162 -1.585884
v 129.078110 1.689697 -1.563882
v 129.064178 1.685835 -1.521574
v 128.973953 1.685835 -1.521574
v 128.960022 1.689697 -1.563882
v 128.973953 1.734608 -1.367761
v 129.064178 1.734608 -1.367761
v 129.064178 1.687315 -1.366943
v 128.973953 1.687315 -1.366943
vn -1.0000 -0.0000 -0.0000
vn 0.8468 -0.0000 -0.5320
vn 1.0000 -0.0000 -0.0000
vn -0.2205 -0.0000 0.9754
vn 0.0212 -0.9998 -0.0000
vn -0.1986 -0.0000 -0.9801
vn -0.0000 1.0000 -0.0000
vn 0.1056 0.9921 0.0673
vn -0.1056 0.9921 -0.0673
vn 0.0977 0.9952 -0.0000
vn 0.1986 -0.0000 0.9801
vn -0.1986 -0.0000 0.9801
vn -0.0000 -0.0000 1.0000
vn -0.0977 0.9952 -0.0000
vn 0.1056 0.9921 -0.0673
vn -0.1056 0.9921 0.0673
vn 0.1986 -0.0000 -0.9801
vn -0.0000 -0.0000 -1.0000
vn -0.0212 -0.9998 -0.0000
vn -0.0000 -1.0000 -0.0000
vn 0.2205 -0.0000 0.9754
vn 0.0865 -0.9520 -0.2937
vn -0.1840 0.9418 -0.2814
vn 0.2205 -0.0000 -0.9754
vn -0.2205 -0.0000 -0.9754
vn -0.0865 -0.9520 -0.2937
vn -0.0000 -0.9621 -0.2729
vn 0.1840 0.9418 -0.2814
vn -0.8468 -0.0000 -0.5320
vn -0.0000 -0.0173 -0.9999
vn -0.0000 0.9795 0.2016
vn -0.1195 0.9901 0.0732
vn 0.1250 0.9893 0.0750
vn -0.1410 0.9622 -0.2331
vn -0.0000 0.9051 -0.4252
vn 0.1474 0.9609 -0.2346
vn -0.0000 0.9995 -0.0316
vn 0.9497 0.0054 0.3132
vn 0.9628 -0.0047 -0.2700
vn -0.9628 -0.0047 -0.2700
vn -0.9497 0.0054 0.3132
vn -0.0000 0.0173 0.9999
vn -0.0000 -1.0000 0.0096
vn -0.0000 1.0000 -0.0096
vt 0.188782 0.713440
vt 0.079583 0.713440
vt 0.079583 0.514739
vt 0.188782 0.514739
vt 0.079583 0.198701
vt 0.188782 0.198701
vt 0.181962 0.230747
vt 0.085952 0.230747
vt 0.079583 0.000000
vt 0.188782 0.000000
vt 0.190581 0.800577
vt 0.070313 0.800577
vt 0.752764 0.797944
vt 0.771513 0.712892
vt 0.970353 0.712641
vt 0.989690 0.797686
vt 0.323998 0.302225
vt 0.254426 0.292955
vt 0.254426 0.210425
vt 0.323998 0.203733
vt 0.442166 0.368505
vt 0.442166 0.511395
vt 0.414260 0.539301
vt 0.414260 0.340599
vt 0.600679 0.524941
vt 0.669399 0.510670
vt 0.697305 0.538576
vt 0.611904 0.558202
vt 0.669399 0.367781
vt 0.697305 0.339875
vt 0.510887 0.354234
vt 0.499662 0.320973
vt 0.505178 0.191007
vt 0.436664 0.177189
vt 0.436664 0.034299
vt 0.505178 0.020481
vt 0.696118 0.302225
vt 0.626546 0.292955
vt 0.626546 0.210425
vt 0.696118 0.203733
vt 0.998666 0.292955
vt 0.855776 0.292955
vt 0.855776 0.210425
vt 0.998666 0.210425
vt 0.483656 0.292955
vt 0.483656 0.210425
vt 0.786204 0.302225
vt 0.786204 0.203733
vt 0.663777 0.177189
vt 0.595263 0.191007
vt 0.595263 0.020481
vt 0.663777 0.034299
vt 0.669798 0.367656
vt 0.600972 0.353898
vt 0.611949 0.320554
vt 0.697495 0.339542
vt 0.510887 0.525665
vt 0.499662 0.558927
vt 0.414084 0.302225
vt 0.414084 0.203733
vt 0.771305 0.994923
vt 0.752671 0.909969
vt 0.989690 0.910247
vt 0.970260 0.995457
vt 0.188782 1.000000
vt 0.079583 1.000000
vt 0.070312 0.912864
vt 0.190581 0.912864
vt 0.726940 0.804592
vt 0.743336 0.729731
vt 0.505721 0.584328
vt 0.430069 0.567894
vt 0.183543 0.307358
vt 0.074811 0.307358
vt 0.181962 0.482693
vt 0.085952 0.482693
vt 0.074811 0.406082
vt 0.183543 0.406082
vt 0.743181 0.978067
vt 0.726913 0.903305
vt 0.681497 0.567169
vt 0.605845 0.583604
vt 0.595695 0.896481
vt 0.595695 0.827211
vt 0.623187 0.842877
vt 0.620059 0.881543
vt 0.457995 0.870524
vt 0.457991 0.828648
vt 0.472281 0.803606
vt 0.472613 0.894406
vt 0.438503 0.822338
vt 0.438160 0.792728
vt 0.438689 0.877496
vt 0.438014 0.905681
vt 0.428076 0.825121
vt 0.412636 0.799647
vt 0.428214 0.874159
vt 0.412636 0.898470
vt 0.627958 0.889179
vt 0.630527 0.835786
vt 0.654877 0.833107
vt 0.656794 0.892505
vt 0.641745 0.927597
vt 0.610211 0.910040
vt 0.569082 0.694305
vt 0.568912 0.716314
vt 0.496959 0.716314
vt 0.497129 0.694305
vt 0.611988 0.813363
vt 0.643013 0.798885
vt 0.967418 0.548569
vt 0.969555 0.569263
vt 0.901434 0.569263
vt 0.899297 0.548569
vt 0.969817 0.537891
vt 0.901695 0.537891
vt 0.967418 0.631940
vt 0.969817 0.642618
vt 0.901695 0.642618
vt 0.899297 0.631940
vt 0.969555 0.611246
vt 0.901434 0.611246
vt 0.969817 0.488710
vt 0.901695 0.488710
vt 0.454236 0.712254
vt 0.454236 0.670271
vt 0.476245 0.670271
vt 0.476245 0.712254
vt 0.568912 0.758297
vt 0.496959 0.758297
vt 0.568912 0.630314
vt 0.569082 0.652322
vt 0.497129 0.652322
vt 0.496959 0.630314
s 0
usemtl Material.032
f 1/1/1 9/2/1 10/3/1 3/4/1
f 11/5/2 7/6/2 38/7/2 37/8/2
f 7/6/3 11/5/3 12/9/3 5/10/3
f 21/11/4 24/12/4 9/2/4 1/1/4
f 17/13/5 7/14/5 5/15/5 22/16/5
f 27/17/6 6/18/6 16/19/6 31/20/6
f 2/21/7 4/22/7 10/23/7 9/24/7
f 42/25/8 8/26/8 11/27/8 44/28/8
f 8/26/7 6/29/7 12/30/7 11/27/7
f 28/31/9 2/21/9 9/24/9 24/32/9
f 29/33/10 14/34/10 13/35/10 32/36/10
f 41/37/11 4/38/11 14/39/11 29/40/11
f 6/41/1 8/42/1 15/43/1 16/44/1
f 4/38/3 2/45/3 13/46/3 14/39/3
f 8/42/12 42/47/12 30/48/12 15/43/12
f 42/47/13 41/37/13 29/40/13 30/48/13
f 15/49/14 30/50/14 31/51/14 16/52/14
f 30/50/7 29/33/7 32/36/7 31/51/7
f 6/53/15 27/54/15 23/55/15 12/56/15
f 27/54/7 28/31/7 24/32/7 23/55/7
f 4/22/16 41/57/16 43/58/16 10/23/16
f 2/45/17 28/59/17 32/60/17 13/46/17
f 28/59/18 27/17/18 31/20/18 32/60/18
f 3/61/19 18/62/19 21/63/19 1/64/19
f 18/62/20 17/13/20 22/16/20 21/63/20
f 5/65/21 12/66/21 23/67/21 22/68/21
f 22/68/13 23/67/13 24/12/13 21/11/13
f 7/14/22 17/13/22 39/69/22 38/70/22
f 10/23/23 43/58/23 45/71/23 33/72/23
f 39/73/24 46/74/24 37/8/24 38/7/24
f 34/75/25 33/76/25 45/77/25 35/78/25
f 35/78/18 45/77/18 46/74/18 39/73/18
f 18/62/26 3/61/26 34/79/26 35/80/26
f 17/13/27 18/62/27 35/80/27 39/69/27
f 44/28/28 11/27/28 37/81/28 46/82/28
f 3/4/29 10/3/29 33/76/29 34/75/29
f 54/83/30 53/84/30 51/85/30 52/86/30
f 26/87/31 25/88/31 41/89/31 42/90/31
f 25/88/32 19/91/32 43/92/32 41/89/32
f 20/93/33 26/87/33 42/90/33 44/94/33
f 19/91/34 40/95/34 45/96/34 43/92/34
f 40/95/35 36/97/35 46/98/35 45/96/35
f 36/97/36 20/93/36 44/94/36 46/98/36
f 50/99/37 52/86/37 51/85/37 49/100/37 47/101/37 48/102/37
f 56/103/38 55/104/38 50/99/38 48/102/38
f 47/105/1 57/106/1 62/107/1 59/108/1
f 55/104/39 54/83/39 52/86/39 50/99/39
f 53/84/40 58/109/40 49/100/40 51/85/40
f 58/109/41 57/110/41 47/101/41 49/100/41
f 19/111/41 25/112/41 57/113/41 58/114/41
f 40/115/40 19/111/40 58/114/40 53/116/40
f 20/117/39 36/118/39 54/119/39 55/120/39
f 25/112/42 26/121/42 56/122/42 57/113/42
f 26/121/38 20/117/38 55/120/38 56/122/38
f 36/123/30 40/115/30 53/116/30 54/124/30
f 62/125/42 61/126/42 60/127/42 59/128/42
f 57/106/43 56/129/43 61/130/43 62/107/43
f 56/131/3 48/132/3 60/133/3 61/134/3
f 48/132/44 47/105/44 59/108/44 60/133/44
