# Blender 4.1.0
# www.blender.org
mtllib skrin1.mtl
o skrin
v 169.899353 1.278406 -2.557150
v 169.882339 3.440619 -2.557150
v 169.802414 1.181460 -3.291212
v 169.802414 3.520544 -3.291212
v 171.453354 1.278406 -2.557150
v 171.464661 3.434896 -2.557150
v 171.550308 1.181460 -3.291212
v 171.550308 3.520544 -3.291212
v 169.882339 1.764636 -2.557150
v 169.802414 1.684711 -3.291212
v 171.550308 1.684711 -3.291212
v 171.464661 1.770358 -2.557150
v 170.676361 1.181460 -3.291212
v 170.676361 3.520544 -3.291212
v 170.676361 1.278406 -2.557150
v 170.762009 3.434896 -2.557150
v 170.762009 1.770358 -2.557150
v 170.676361 1.684711 -3.291212
v 171.550308 3.520544 -2.557150
v 171.453354 1.587765 -2.557150
v 170.596436 3.440619 -2.557150
v 170.596436 1.764636 -2.557150
v 169.899353 1.587765 -2.557150
v 169.802414 3.520544 -2.557150
v 170.676361 3.520544 -2.557150
v 170.676361 1.587765 -2.557150
v 171.550308 1.684711 -2.557150
v 171.550308 1.181460 -2.557150
v 170.676361 1.181460 -2.557150
v 169.802414 1.181460 -2.557150
v 169.802414 1.684711 -2.557150
v 170.676361 1.684711 -2.557150
v 171.079895 1.461003 -2.507452
v 171.079895 1.405168 -2.507452
v 170.676376 1.405168 -2.507452
v 170.272842 1.405168 -2.507452
v 170.272842 1.461003 -2.507452
v 170.676376 1.461003 -2.507452
v 170.939514 2.427922 -2.511135
v 170.939514 2.312669 -2.511135
v 170.834839 2.427922 -2.511135
v 170.834839 2.312669 -2.511135
v 170.428940 2.297886 -2.511135
v 170.428940 2.413836 -2.511135
v 170.533997 2.413836 -2.511135
v 170.533997 2.297886 -2.511135
v 169.882339 1.764636 -2.511135
v 169.882339 3.440619 -2.511135
v 170.596436 3.440619 -2.511135
v 170.596436 1.764636 -2.511135
v 170.428940 2.297886 -2.441725
v 170.428940 2.413836 -2.441725
v 170.533997 2.413836 -2.441725
v 170.533997 2.297886 -2.441725
v 171.464661 3.434896 -2.511135
v 171.464661 1.770358 -2.511135
v 170.762009 3.434896 -2.511135
v 170.762009 1.770358 -2.511135
v 170.939514 2.427922 -2.451248
v 170.939514 2.312669 -2.451248
v 170.834839 2.427922 -2.451248
v 170.834839 2.312669 -2.451248
v 171.453354 1.587765 -2.507452
v 171.453354 1.278406 -2.507452
v 170.676361 1.278406 -2.507452
v 169.899353 1.278406 -2.507452
v 169.899353 1.587765 -2.507452
v 170.676361 1.587765 -2.507452
v 171.079895 1.461003 -2.454221
v 171.079895 1.405168 -2.454221
v 170.676376 1.405168 -2.454221
v 170.272842 1.405168 -2.454221
v 170.272842 1.461003 -2.454221
v 170.676376 1.461003 -2.454221
vn -1.0000 -0.0000 -0.0000
vn -0.0000 -0.0000 -1.0000
vn 1.0000 -0.0000 -0.0000
vn -0.0000 -1.0000 -0.0000
vn -0.0000 1.0000 -0.0000
vn -0.0000 -0.0000 1.0000
vt 0.442565 0.081389
vt 0.442565 0.321028
vt 0.346745 0.321028
vt 0.346745 0.081389
vt 0.166332 0.862706
vt 0.166332 0.985194
vt 0.108022 0.985194
vt 0.108022 0.862706
vt 0.791284 0.082481
vt 0.791284 0.321606
vt 0.695670 0.321606
vt 0.695670 0.082481
vt 0.653201 0.007674
vt 0.653201 0.293959
vt 0.643395 0.285642
vt 0.645059 0.019658
vt 0.408477 0.982761
vt 0.323240 0.983599
vt 0.322536 0.912006
vt 0.407772 0.911168
vt 0.033022 0.635375
vt 0.033022 0.492853
vt 0.152732 0.492852
vt 0.152732 0.635375
vt 0.791284 0.016931
vt 0.695670 0.016931
vt 0.166332 0.829129
vt 0.108022 0.829129
vt 0.442565 0.015697
vt 0.346745 0.015697
vt 0.224643 0.829129
vt 0.224643 0.862706
vt 0.033022 0.777897
vt 0.152732 0.777897
vt 0.493713 0.981923
vt 0.493009 0.910329
vt 0.506816 0.010384
vt 0.652176 0.018709
vt 0.643853 0.029222
vt 0.516686 0.019991
vt 0.224642 0.985194
vt 0.030450 0.037569
vt 0.170790 0.020622
vt 0.171173 0.030244
vt 0.041607 0.045407
vt 0.323239 0.444753
vt 0.317710 0.134785
vt 0.333148 0.118485
vt 0.339502 0.460541
vt 0.192019 0.446324
vt 0.176152 0.462468
vt 0.191916 0.140031
vt 0.176407 0.125238
vt 0.028651 0.134089
vt 0.027148 0.447478
vt 0.012102 0.462468
vt 0.013731 0.118506
vt 0.161337 0.447553
vt 0.161648 0.139370
vt 0.316878 0.101424
vt 0.317809 0.037541
vt 0.337721 0.020316
vt 0.170770 0.006021
vt 0.032486 0.100711
vt 0.013596 0.021534
vt 0.176481 0.111154
vt 0.727141 0.947022
vt 0.819121 0.947074
vt 0.819115 0.959207
vt 0.727134 0.959156
vt 0.039894 0.092731
vt 0.305994 0.093033
vt 0.309930 0.045333
vt 0.176267 0.101734
vt 0.581083 0.975395
vt 0.602949 0.975362
vt 0.602969 0.988452
vt 0.581102 0.988484
vt 0.666178 0.988357
vt 0.644443 0.988389
vt 0.644426 0.977095
vt 0.666161 0.977063
vt 0.652176 0.304057
vt 0.642306 0.294451
vt 0.625966 0.294159
vt 0.476212 0.304523
vt 0.484707 0.292600
vt 0.616248 0.285537
vt 0.506816 0.295732
vt 0.515140 0.285219
vt 0.482659 0.015329
vt 0.632414 0.004964
vt 0.623919 0.016887
vt 0.492377 0.023951
vt 0.537652 0.520822
vt 0.537652 0.557573
vt 0.364397 0.883025
vt 0.364397 0.351801
vt 0.570948 0.557573
vt 0.590740 0.883025
vt 0.570948 0.520822
vt 0.590740 0.351801
vt 0.990122 0.968175
vt 0.990122 0.991104
vt 0.969349 0.991104
vt 0.969349 0.968175
vt 0.519595 0.975487
vt 0.539405 0.975457
vt 0.539425 0.988547
vt 0.519615 0.988577
vt 0.561272 0.975424
vt 0.561292 0.988514
vt 0.707968 0.564961
vt 0.707968 0.528428
vt 0.874430 0.356527
vt 0.874430 0.884149
vt 0.674791 0.564961
vt 0.651703 0.884149
vt 0.674791 0.528428
vt 0.651703 0.356527
vt 0.989981 0.939427
vt 0.989981 0.962219
vt 0.969283 0.962219
vt 0.969283 0.939427
vt 0.685917 0.988327
vt 0.685900 0.977033
vt 0.624704 0.988419
vt 0.624687 0.977125
vt 0.602952 0.977158
vt 0.112888 0.064158
vt 0.112914 0.072351
vt 0.058170 0.091128
vt 0.058025 0.045732
vt 0.172130 0.072161
vt 0.172191 0.090763
vt 0.231345 0.071971
vt 0.231319 0.063778
vt 0.286067 0.045001
vt 0.286213 0.090397
vt 0.172103 0.063968
vt 0.172046 0.045366
vt 0.709218 0.993863
vt 0.709168 0.978587
vt 0.819573 0.978222
vt 0.929978 0.977858
vt 0.930028 0.993135
vt 0.819623 0.993499
vt 0.714414 0.947015
vt 0.714407 0.959149
vt 0.911102 0.947125
vt 0.923829 0.947132
vt 0.923822 0.959265
vt 0.911095 0.959258
vt 0.530454 0.946913
vt 0.622434 0.946964
vt 0.622427 0.959098
vt 0.530447 0.959047
s 0
usemtl Material.099
f 31/1/1 24/2/1 4/3/1 10/4/1
f 18/5/2 14/6/2 8/7/2 11/8/2
f 11/9/3 8/10/3 19/11/3 27/12/3
f 22/13/3 21/14/3 49/15/3 50/16/3
f 13/17/4 7/18/4 28/19/4 29/20/4
f 14/21/5 4/22/5 24/23/5 25/24/5
f 7/25/3 11/9/3 27/12/3 28/26/3
f 13/27/2 18/5/2 11/8/2 7/28/2
f 30/29/1 31/1/1 10/4/1 3/30/1
f 3/31/2 10/32/2 18/5/2 13/27/2
f 8/33/5 14/21/5 25/24/5 19/34/5
f 3/35/4 13/17/4 29/20/4 30/36/4
f 17/37/4 12/38/4 56/39/4 58/40/4
f 10/32/2 4/41/2 14/6/2 18/5/2
f 1/42/4 15/43/4 65/44/4 66/45/4
f 6/46/6 12/47/6 27/48/6 19/49/6
f 16/50/6 6/46/6 19/49/6 25/51/6
f 12/47/6 17/52/6 32/53/6 27/48/6
f 17/52/6 16/50/6 25/51/6 32/53/6
f 9/54/6 2/55/6 24/56/6 31/57/6
f 2/55/6 21/58/6 25/51/6 24/56/6
f 22/59/6 9/54/6 31/57/6 32/53/6
f 21/58/6 22/59/6 32/53/6 25/51/6
f 20/60/6 5/61/6 28/62/6 27/48/6
f 5/61/6 15/43/6 29/63/6 28/62/6
f 1/42/6 23/64/6 31/57/6 30/65/6
f 23/64/6 26/66/6 32/53/6 31/57/6
f 15/43/6 1/42/6 30/65/6 29/63/6
f 26/66/6 20/60/6 27/48/6 32/53/6
f 23/64/1 1/42/1 66/45/1 67/71/1
f 5/61/3 20/60/3 63/72/3 64/73/3
f 20/60/5 26/66/5 68/74/5 63/72/5
f 26/66/5 23/64/5 67/71/5 68/74/5
f 15/43/4 5/61/4 64/73/4 65/44/4
f 12/38/3 6/83/3 55/84/3 56/39/3
f 21/85/5 2/86/5 48/87/5 49/88/5
f 16/89/1 17/37/1 58/40/1 57/90/1
f 6/83/5 16/89/5 57/90/5 55/84/5
f 9/91/4 22/92/4 50/93/4 47/94/4
f 2/86/1 9/91/1 47/94/1 48/87/1
usemtl Material.100
f 43/95/6 44/96/6 48/97/6 47/98/6
f 44/96/6 45/99/6 49/100/6 48/97/6
f 46/101/6 43/95/6 47/98/6 50/102/6
f 45/99/6 46/101/6 50/102/6 49/100/6
f 39/113/6 40/114/6 56/115/6 55/116/6
f 41/117/6 39/113/6 55/116/6 57/118/6
f 40/114/6 42/119/6 58/120/6 56/115/6
f 42/119/6 41/117/6 57/118/6 58/120/6
f 33/130/6 34/131/6 64/132/6 63/133/6
f 34/131/6 35/134/6 65/135/6 64/132/6
f 36/136/6 37/137/6 67/138/6 66/139/6
f 37/137/6 38/140/6 68/141/6 67/138/6
f 35/134/6 36/136/6 66/139/6 65/135/6
f 38/140/6 33/130/6 63/133/6 68/141/6
usemtl Material.090
f 36/67/4 35/68/4 71/69/4 72/70/4
f 46/75/3 45/76/3 53/77/3 54/78/3
f 41/79/1 42/80/1 62/81/1 61/82/1
f 54/103/6 53/104/6 52/105/6 51/106/6
f 45/107/5 44/108/5 52/109/5 53/110/5
f 43/111/4 46/75/4 54/78/4 51/112/4
f 44/108/1 43/111/1 51/112/1 52/109/1
f 60/121/6 59/122/6 61/123/6 62/124/6
f 39/125/5 41/79/5 61/82/5 59/126/5
f 42/80/4 40/127/4 60/128/4 62/81/4
f 40/127/3 39/77/3 59/129/3 60/128/3
f 70/142/6 69/143/6 74/144/6 73/145/6 72/146/6 71/147/6
f 37/148/1 36/67/1 72/70/1 73/149/1
f 34/150/3 33/151/3 69/152/3 70/153/3
f 33/154/5 38/155/5 74/156/5 69/157/5
f 38/155/5 37/148/5 73/149/5 74/156/5
f 35/68/4 34/150/4 70/153/4 71/69/4
