# Blender 4.1.0
# www.blender.org
mtllib mydlo.mtl
o mydlo
v 103.270866 1.346847 -1.516667
v 103.270866 1.356567 -1.505933
v 103.261314 1.356567 -1.508712
v 103.270866 1.366325 -1.505933
v 103.270866 1.373544 -1.516667
v 103.261314 1.366325 -1.508712
v 103.270866 1.346847 -1.558726
v 103.261314 1.356567 -1.567455
v 103.270866 1.356567 -1.570890
v 103.270866 1.373544 -1.558726
v 103.270866 1.366325 -1.570890
v 103.261314 1.366325 -1.567455
v 103.378059 1.346847 -1.516667
v 103.387611 1.356567 -1.508712
v 103.378059 1.356567 -1.505933
v 103.378059 1.373544 -1.516667
v 103.378059 1.366325 -1.505933
v 103.387611 1.366325 -1.508712
v 103.378059 1.346847 -1.558907
v 103.378059 1.356567 -1.571072
v 103.387611 1.356567 -1.567637
v 103.378059 1.373544 -1.558907
v 103.387611 1.366325 -1.567637
v 103.378059 1.366325 -1.571072
vn -0.0000 -0.0000 1.0000
vn 1.0000 -0.0000 -0.0000
vn -0.0000 1.0000 -0.0000
vn -1.0000 -0.0000 -0.0000
vn -0.0017 -0.0000 -1.0000
vn -0.1917 -0.7275 0.6588
vn -0.1603 0.8190 0.5509
vn -0.2191 -0.7623 -0.6091
vn -0.1805 0.8458 -0.5020
vn 0.1916 -0.7275 0.6588
vn 0.1602 0.8191 0.5509
vn 0.2190 -0.7623 -0.6091
vn 0.1805 0.8458 -0.5020
vn -0.7133 -0.7009 -0.0000
vn -0.2794 -0.0000 0.9602
vn -0.6030 0.7977 -0.0000
vn -0.3384 -0.0000 -0.9410
vn -0.0011 -0.7812 -0.6242
vn -0.0009 0.8599 -0.5104
vn 0.3383 -0.0000 -0.9410
vn 0.7132 -0.7010 -0.0000
vn 0.6029 0.7978 -0.0000
vn 0.2793 -0.0000 0.9602
vn -0.0000 -0.7413 0.6712
vn -0.0000 0.8298 0.5581
vn -0.0000 -1.0000 -0.0000
vt 0.086634 0.353781
vt 0.065279 0.355100
vt 0.045720 0.121863
vt 0.068328 0.119765
vt 0.091534 0.482250
vt 0.072417 0.483236
vt 0.068186 0.372248
vt 0.085483 0.370902
vt 0.572259 0.265833
vt 0.571329 0.814318
vt 0.356127 0.814318
vt 0.356127 0.265833
vt 0.075551 0.904268
vt 0.045045 0.901595
vt 0.063640 0.759513
vt 0.081680 0.759518
vt 0.084860 0.740653
vt 0.062708 0.739796
vt 0.069825 0.502746
vt 0.092908 0.503399
vt 0.102820 0.114085
vt 0.067603 0.095732
vt 0.014251 0.121223
vt 0.042610 0.097561
vt 0.120683 0.761746
vt 0.028710 0.757416
vt 0.118762 0.368854
vt 0.039028 0.373965
vt 0.134051 0.482341
vt 0.035252 0.482700
vt 0.115752 0.882942
vt 0.014251 0.875200
vt 0.919161 0.374343
vt 0.919693 0.688153
vt 0.796035 0.688153
vt 0.796035 0.374343
s 0
usemtl Material.017
f 15/1/1 17/2/1 4/3/1 2/4/1
f 21/5/2 23/6/2 18/7/2 14/8/2
f 22/9/3 10/10/3 5/11/3 16/12/3
f 3/13/4 6/14/4 12/15/4 8/16/4
f 9/17/5 11/18/5 24/19/5 20/20/5
f 1/21/6 2/4/6 3/22/6
f 4/3/7 5/23/7 6/24/7
f 7/25/8 8/16/8 9/17/8
f 10/26/9 11/18/9 12/15/9
f 13/27/10 14/8/10 15/1/10
f 16/28/11 17/2/11 18/7/11
f 19/29/12 20/20/12 21/5/12
f 22/30/13 23/6/13 24/19/13
f 7/25/14 1/31/14 3/13/14 8/16/14
f 2/4/15 4/3/15 6/24/15 3/22/15
f 5/32/16 10/26/16 12/15/16 6/14/16
f 11/18/17 9/17/17 8/16/17 12/15/17
f 19/29/18 7/25/18 9/17/18 20/20/18
f 10/26/19 22/30/19 24/19/19 11/18/19
f 23/6/20 21/5/20 20/20/20 24/19/20
f 13/27/21 19/29/21 21/5/21 14/8/21
f 22/30/22 16/28/22 18/7/22 23/6/22
f 17/2/23 15/1/23 14/8/23 18/7/23
f 1/21/24 13/27/24 15/1/24 2/4/24
f 16/28/25 5/23/25 4/3/25 17/2/25
f 7/33/26 19/34/26 13/35/26 1/36/26
