# Blender 4.1.0
# www.blender.org
mtllib stul.mtl
o kuchynsky_stul
v 158.634048 1.769166 -0.512398
v 158.634048 1.769166 -1.363401
v 160.298538 1.769166 -0.512398
v 160.298538 1.769166 -1.363401
v 158.634048 1.822667 -0.512398
v 158.634048 1.822667 -1.363401
v 160.298538 1.822667 -1.363401
v 160.298538 1.822667 -0.512398
v 158.729492 1.769166 -1.363401
v 160.214828 1.769166 -1.363401
v 160.214828 1.769166 -0.512398
v 158.729492 1.769166 -0.512398
v 158.729492 1.822667 -1.363401
v 160.214828 1.822667 -1.363401
v 160.214828 1.822667 -0.512398
v 158.729492 1.822667 -0.512398
v 158.634048 1.769166 -0.585234
v 158.634048 1.769166 -1.268480
v 160.298538 1.769166 -1.268480
v 160.298538 1.769166 -0.585234
v 158.634048 1.822667 -0.585234
v 158.634048 1.822667 -1.268480
v 160.298538 1.822667 -1.268480
v 160.298538 1.822667 -0.585234
v 160.214828 1.822667 -1.268480
v 160.214828 1.822667 -0.585234
v 158.729492 1.822667 -1.268480
v 158.729492 1.822667 -0.585234
v 160.214828 1.769166 -0.585234
v 160.214828 1.769166 -1.268480
v 158.729492 1.769166 -0.585234
v 158.729492 1.769166 -1.268480
v 158.634048 1.175700 -1.268480
v 158.634048 1.175700 -1.363401
v 160.214828 1.175700 -1.363401
v 160.298538 1.175700 -1.363401
v 160.298538 1.175700 -0.585234
v 160.298538 1.175700 -0.512398
v 158.729492 1.175700 -0.512398
v 158.634048 1.175700 -0.512398
v 158.729492 1.175700 -1.363401
v 160.214828 1.175700 -0.512398
v 160.214828 1.175700 -1.268480
v 158.729492 1.175700 -1.268480
v 158.634048 1.175700 -0.585234
v 160.298538 1.175700 -1.268480
v 160.214828 1.175700 -0.585234
v 158.729492 1.175700 -0.585234
vn 1.0000 -0.0000 -0.0000
vn -0.0000 -0.0000 1.0000
vn -0.0000 1.0000 -0.0000
vn -0.0000 -0.0000 -1.0000
vn -1.0000 -0.0000 -0.0000
vn -0.0000 -1.0000 -0.0000
vt 0.017858 0.579895
vt 0.017858 0.555583
vt 0.215948 0.555583
vt 0.215948 0.579895
vt 0.466456 0.055186
vt 0.466456 0.030292
vt 0.482366 0.030292
vt 0.482366 0.055186
vt 0.958155 0.387260
vt 0.958155 0.351091
vt 0.985756 0.351091
vt 0.985756 0.387260
vt 0.406216 0.060157
vt 0.406216 0.031963
vt 0.422019 0.031963
vt 0.422019 0.060157
vt 0.017858 0.807952
vt 0.017858 0.839635
vt 0.000000 0.839635
vt 0.000000 0.807952
vt 0.414038 0.579895
vt 0.414038 0.555583
vt 0.431896 0.555583
vt 0.431896 0.579895
vt 0.406216 0.523620
vt 0.406216 0.498894
vt 0.422019 0.498894
vt 0.422019 0.523620
vt 0.958155 0.981836
vt 0.958155 0.950115
vt 0.985755 0.950115
vt 0.985755 0.981836
vt 0.466456 0.525291
vt 0.466456 0.496906
vt 0.482367 0.496906
vt 0.482367 0.525291
vt 0.759740 0.288830
vt 0.731800 0.288830
vt 0.731800 0.090740
vt 0.759740 0.090740
vt 0.201228 0.430566
vt 0.201228 0.111910
vt 0.221592 0.111910
vt 0.221592 0.430566
vt 0.039023 0.430566
vt 0.039023 0.111910
vt 0.054648 0.111910
vt 0.054648 0.430566
vt 0.230919 0.523620
vt 0.230919 0.498894
vt 0.054648 0.448525
vt 0.201228 0.448525
vt 0.663276 0.950115
vt 0.663276 0.387260
vt 0.699245 0.387260
vt 0.699245 0.950115
vt 0.663276 0.981836
vt 0.699245 0.981836
vt 0.414038 0.839635
vt 0.414038 0.807952
vt 0.431896 0.807952
vt 0.431896 0.839635
vt 0.000000 0.579895
vt 0.000000 0.555583
vt 0.663276 0.351091
vt 0.699245 0.351091
vt 0.215948 0.807952
vt 0.215948 0.839635
vt 0.054648 0.091434
vt 0.201228 0.091434
vt 0.614612 0.213787
vt 0.614612 0.245645
vt 0.582929 0.245645
vt 0.582929 0.213787
vt 0.582929 0.245470
vt 0.554988 0.245470
vt 0.554988 0.213787
vt 0.582929 0.213787
vt 0.647864 0.116130
vt 0.647864 0.144071
vt 0.623553 0.144071
vt 0.623553 0.116130
vt 0.672176 0.116130
vt 0.672176 0.147989
vt 0.647864 0.147989
vt 0.647864 0.116130
vt 0.555062 0.978835
vt 0.527121 0.978835
vt 0.527121 0.780745
vt 0.555062 0.780745
vt 0.593341 0.975144
vt 0.569030 0.975144
vt 0.569030 0.777054
vt 0.593341 0.777054
vt 0.289967 0.525291
vt 0.289967 0.496906
vt 0.495438 0.978835
vt 0.495438 0.780745
vt 0.230919 0.060157
vt 0.230919 0.031963
vt 0.463755 0.978835
vt 0.463755 0.780745
vt 0.617653 0.975144
vt 0.593341 0.975144
vt 0.593341 0.777054
vt 0.617653 0.777054
vt 0.215948 0.579895
vt 0.215948 0.555583
vt 0.649512 0.975144
vt 0.649512 0.777054
vt 0.289967 0.055186
vt 0.289967 0.030292
vt 0.553573 0.753673
vt 0.521714 0.753673
vt 0.521714 0.555583
vt 0.553573 0.555583
vt 0.215948 0.839635
vt 0.215948 0.807952
s 0
g kuchynsky_stul_Material.078
usemtl Material.078
f 20/1/1 3/2/1 38/3/1 37/4/1
f 11/5/2 3/6/2 8/7/2 15/8/2
f 28/9/3 21/10/3 5/11/3 16/12/3
f 9/13/4 2/14/4 6/15/4 13/16/4
f 19/17/1 4/18/1 7/19/1 23/20/1
f 17/21/5 1/22/5 5/23/5 21/24/5
f 4/25/4 10/26/4 14/27/4 7/28/4
f 10/26/4 9/13/4 13/16/4 14/27/4
f 24/29/3 26/30/3 15/31/3 8/32/3
f 26/30/3 28/9/3 16/12/3 15/31/3
f 1/33/2 12/34/2 16/35/2 5/36/2
f 12/34/2 11/5/2 15/8/2 16/35/2
f 29/37/4 20/38/4 37/39/4 47/40/4
f 30/41/6 32/42/6 9/43/6 10/44/6
f 11/45/6 12/46/6 31/47/6 29/48/6
f 29/48/6 31/47/6 32/42/6 30/41/6
f 10/26/4 4/25/4 36/49/4 35/50/4
f 20/51/6 29/48/6 30/41/6 19/52/6
f 14/53/3 13/54/3 27/55/3 25/56/3
f 25/56/3 27/55/3 28/9/3 26/30/3
f 7/57/3 14/53/3 25/56/3 23/58/3
f 23/58/3 25/56/3 26/30/3 24/29/3
f 2/59/5 18/60/5 22/61/5 6/62/5
f 18/60/5 17/21/5 21/24/5 22/61/5
f 3/2/1 20/1/1 24/63/1 8/64/1
f 20/1/1 19/17/1 23/20/1 24/63/1
f 13/54/3 6/65/3 22/66/3 27/55/3
f 27/55/3 22/66/3 21/10/3 28/9/3
f 4/18/1 19/17/1 46/67/1 36/68/1
f 31/47/6 17/69/6 18/70/6 32/42/6
f 44/71/6 33/72/6 34/73/6 41/74/6
f 46/75/6 43/76/6 35/77/6 36/78/6
f 38/79/6 42/80/6 47/81/6 37/82/6
f 39/83/6 40/84/6 45/85/6 48/86/6
f 19/87/2 30/88/2 43/89/2 46/90/2
f 11/91/5 29/92/5 47/93/5 42/94/5
f 12/34/2 1/33/2 40/95/2 39/96/2
f 30/88/5 10/97/5 35/98/5 43/89/5
f 2/14/4 9/13/4 41/99/4 34/100/4
f 9/97/1 32/101/1 44/102/1 41/98/1
f 31/103/1 12/104/1 39/105/1 48/106/1
f 1/22/5 17/21/5 45/107/5 40/108/5
f 17/109/4 31/103/4 48/106/4 45/110/4
f 3/6/2 11/5/2 42/111/2 38/112/2
f 32/113/2 18/114/2 33/115/2 44/116/2
f 18/60/5 2/59/5 34/117/5 33/118/5
