# Blender 4.1.0
# www.blender.org
mtllib odpadkac.mtl
o odpadkac
v 152.357605 0.606966 -2.376519
v 152.410004 1.129505 -2.428915
v 152.357605 0.606966 -2.774968
v 152.410004 1.129505 -2.722572
v 152.756058 0.606966 -2.376519
v 152.703659 1.129505 -2.428915
v 152.756058 0.606966 -2.774968
v 152.703659 1.129505 -2.722572
v 152.357605 1.129505 -2.376519
v 152.357605 1.129505 -2.774968
v 152.756058 1.129505 -2.774968
v 152.756058 1.129505 -2.376519
v 152.410004 0.660419 -2.428915
v 152.410004 0.660419 -2.722572
v 152.703659 0.660419 -2.722572
v 152.703659 0.660419 -2.428915
v 152.690353 0.606966 -2.774968
v 152.420166 0.606966 -2.774968
v 152.420166 1.129505 -2.774968
v 152.690353 1.129505 -2.774968
v 152.420166 0.606966 -2.376519
v 152.690353 0.606966 -2.376519
v 152.690353 1.129505 -2.376519
v 152.420166 1.129505 -2.376519
v 152.437637 1.129505 -2.722572
v 152.672882 1.129505 -2.722572
v 152.672882 1.129505 -2.428915
v 152.437637 1.129505 -2.428915
v 152.437637 0.660419 -2.722572
v 152.672882 0.660419 -2.722572
v 152.672882 0.660419 -2.428915
v 152.437637 0.660419 -2.428915
v 152.756058 0.499372 -2.376519
v 152.756058 0.499372 -2.774968
v 152.690353 0.499372 -2.376519
v 152.690353 0.499372 -2.774968
v 152.357605 0.509787 -2.774968
v 152.357605 0.509787 -2.376519
v 152.420166 0.509787 -2.774968
v 152.420166 0.509787 -2.376519
v 152.357605 0.606966 -2.718047
v 152.357605 0.606966 -2.661126
v 152.357605 0.606966 -2.604204
v 152.357605 0.606966 -2.547283
v 152.357605 0.606966 -2.490362
v 152.357605 0.606966 -2.433440
v 152.357605 1.129505 -2.433440
v 152.357605 1.129505 -2.490362
v 152.357605 1.129505 -2.547283
v 152.357605 1.129505 -2.604204
v 152.357605 1.129505 -2.661126
v 152.357605 1.129505 -2.718047
v 152.756058 0.606966 -2.433440
v 152.756058 0.606966 -2.490362
v 152.756058 0.606966 -2.547283
v 152.756058 0.606966 -2.604204
v 152.756058 0.606966 -2.661126
v 152.756058 0.606966 -2.718047
v 152.756058 1.129505 -2.718047
v 152.756058 1.129505 -2.661126
v 152.756058 1.129505 -2.604204
v 152.756058 1.129505 -2.547283
v 152.756058 1.129505 -2.490362
v 152.756058 1.129505 -2.433440
v 152.410004 1.129505 -2.470866
v 152.410004 1.129505 -2.512817
v 152.410004 1.129505 -2.554768
v 152.410004 1.129505 -2.596719
v 152.410004 1.129505 -2.638670
v 152.410004 1.129505 -2.680621
v 152.703659 1.129505 -2.680621
v 152.703659 1.129505 -2.638670
v 152.703659 1.129505 -2.596719
v 152.703659 1.129505 -2.554768
v 152.703659 1.129505 -2.512817
v 152.703659 1.129505 -2.470866
v 152.410004 0.660419 -2.470866
v 152.410004 0.660419 -2.512817
v 152.410004 0.660419 -2.554768
v 152.410004 0.660419 -2.596719
v 152.410004 0.660419 -2.638670
v 152.410004 0.660419 -2.680621
v 152.703659 0.660419 -2.680621
v 152.703659 0.660419 -2.638670
v 152.703659 0.660419 -2.596719
v 152.703659 0.660419 -2.554768
v 152.703659 0.660419 -2.512817
v 152.703659 0.660419 -2.470866
v 152.672882 0.660419 -2.680621
v 152.672882 0.660419 -2.638670
v 152.672882 0.660419 -2.596719
v 152.672882 0.660419 -2.554768
v 152.672882 0.660419 -2.512817
v 152.672882 0.660419 -2.470866
v 152.437637 0.660419 -2.680621
v 152.437637 0.660419 -2.638670
v 152.437637 0.660419 -2.596719
v 152.437637 0.660419 -2.554768
v 152.437637 0.660419 -2.512817
v 152.437637 0.660419 -2.470866
v 152.420166 0.606966 -2.718047
v 152.420166 0.606966 -2.661126
v 152.420166 0.606966 -2.604204
v 152.420166 0.606966 -2.547283
v 152.420166 0.606966 -2.490362
v 152.420166 0.606966 -2.433440
v 152.690353 0.606966 -2.718047
v 152.690353 0.606966 -2.661126
v 152.690353 0.606966 -2.604204
v 152.690353 0.606966 -2.547283
v 152.690353 0.606966 -2.490362
v 152.690353 0.606966 -2.433440
v 152.756058 0.499372 -2.433440
v 152.756058 0.499372 -2.490362
v 152.756058 0.499372 -2.547283
v 152.756058 0.499372 -2.604204
v 152.756058 0.499372 -2.661126
v 152.756058 0.499372 -2.718047
v 152.690353 0.499372 -2.718047
v 152.690353 0.499372 -2.661126
v 152.690353 0.499372 -2.604204
v 152.690353 0.499372 -2.547283
v 152.690353 0.499372 -2.490362
v 152.690353 0.499372 -2.433440
v 152.357605 0.509787 -2.718047
v 152.357605 0.509787 -2.661126
v 152.357605 0.509787 -2.604204
v 152.357605 0.509787 -2.547283
v 152.357605 0.509787 -2.490362
v 152.357605 0.509787 -2.433440
v 152.420166 0.509787 -2.718047
v 152.420166 0.509787 -2.661126
v 152.420166 0.509787 -2.604204
v 152.420166 0.509787 -2.547283
v 152.420166 0.509787 -2.490362
v 152.420166 0.509787 -2.433440
v 152.645325 0.606966 -2.774968
v 152.600296 0.606966 -2.774968
v 152.555267 0.606966 -2.774968
v 152.510239 0.606966 -2.774968
v 152.465210 0.606966 -2.774968
v 152.465210 1.129505 -2.774968
v 152.510239 1.129505 -2.774968
v 152.555267 1.129505 -2.774968
v 152.600296 1.129505 -2.774968
v 152.645325 1.129505 -2.774968
v 152.465210 0.606966 -2.376519
v 152.510239 0.606966 -2.376519
v 152.555267 0.606966 -2.376519
v 152.600296 0.606966 -2.376519
v 152.645325 0.606966 -2.376519
v 152.645325 1.129505 -2.376519
v 152.600296 1.129505 -2.376519
v 152.555267 1.129505 -2.376519
v 152.510239 1.129505 -2.376519
v 152.465210 1.129505 -2.376519
v 152.476852 1.129505 -2.722572
v 152.516052 1.129505 -2.722572
v 152.555267 1.129505 -2.722572
v 152.594467 1.129505 -2.722572
v 152.633682 1.129505 -2.722572
v 152.633682 1.129505 -2.428915
v 152.594467 1.129505 -2.428915
v 152.555267 1.129505 -2.428915
v 152.516052 1.129505 -2.428915
v 152.476852 1.129505 -2.428915
v 152.476852 0.660419 -2.722572
v 152.516052 0.660419 -2.722572
v 152.555267 0.660419 -2.722572
v 152.594467 0.660419 -2.722572
v 152.633682 0.660419 -2.722572
v 152.633682 0.660419 -2.428915
v 152.594467 0.660419 -2.428915
v 152.555267 0.660419 -2.428915
v 152.516052 0.660419 -2.428915
v 152.476852 0.660419 -2.428915
v 152.645325 0.606966 -2.718047
v 152.600296 0.606966 -2.718047
v 152.555267 0.606966 -2.718047
v 152.510239 0.606966 -2.718047
v 152.465210 0.606966 -2.718047
v 152.645325 0.606966 -2.661126
v 152.600296 0.606966 -2.661126
v 152.555267 0.606966 -2.661126
v 152.510239 0.606966 -2.661126
v 152.465210 0.606966 -2.661126
v 152.645325 0.606966 -2.604204
v 152.600296 0.606966 -2.604204
v 152.555267 0.606966 -2.604204
v 152.510239 0.606966 -2.604204
v 152.465210 0.606966 -2.604204
v 152.645325 0.606966 -2.547283
v 152.600296 0.606966 -2.547283
v 152.555267 0.606966 -2.547283
v 152.510239 0.606966 -2.547283
v 152.465210 0.606966 -2.547283
v 152.645325 0.606966 -2.490362
v 152.600296 0.606966 -2.490362
v 152.555267 0.606966 -2.490362
v 152.510239 0.606966 -2.490362
v 152.465210 0.606966 -2.490362
v 152.645325 0.606966 -2.433440
v 152.600296 0.606966 -2.433440
v 152.555267 0.606966 -2.433440
v 152.510239 0.606966 -2.433440
v 152.465210 0.606966 -2.433440
v 152.476852 0.660419 -2.680621
v 152.516052 0.660419 -2.680621
v 152.555267 0.660419 -2.680621
v 152.594467 0.660419 -2.680621
v 152.633682 0.660419 -2.680621
v 152.476852 0.660419 -2.638670
v 152.516052 0.660419 -2.638670
v 152.555267 0.660419 -2.638670
v 152.594467 0.660419 -2.638670
v 152.633682 0.660419 -2.638670
v 152.476852 0.660419 -2.596719
v 152.516052 0.660419 -2.596719
v 152.555267 0.660419 -2.596719
v 152.594467 0.660419 -2.596719
v 152.633682 0.660419 -2.596719
v 152.476852 0.660419 -2.554768
v 152.516052 0.660419 -2.554768
v 152.555267 0.660419 -2.554768
v 152.594467 0.660419 -2.554768
v 152.633682 0.660419 -2.554768
v 152.476852 0.660419 -2.512817
v 152.516052 0.660419 -2.512817
v 152.555267 0.660419 -2.512817
v 152.594467 0.660419 -2.512817
v 152.633682 0.660419 -2.512817
v 152.476852 0.660419 -2.470866
v 152.516052 0.660419 -2.470866
v 152.555267 0.660419 -2.470866
v 152.594467 0.660419 -2.470866
v 152.633682 0.660419 -2.470866
v 152.357605 1.081338 -2.376519
v 152.357605 1.081338 -2.774968
v 152.756058 1.081338 -2.774968
v 152.756058 1.081338 -2.376519
v 152.690353 1.081338 -2.376519
v 152.420166 1.081338 -2.376519
v 152.420166 1.081338 -2.774968
v 152.690353 1.081338 -2.774968
v 152.756058 1.081338 -2.718047
v 152.756058 1.081338 -2.661126
v 152.756058 1.081338 -2.604204
v 152.756058 1.081338 -2.547283
v 152.756058 1.081338 -2.490362
v 152.756058 1.081338 -2.433440
v 152.357605 1.081338 -2.433440
v 152.357605 1.081338 -2.490362
v 152.357605 1.081338 -2.547283
v 152.357605 1.081338 -2.604204
v 152.357605 1.081338 -2.661126
v 152.357605 1.081338 -2.718047
v 152.465210 1.081338 -2.774968
v 152.510239 1.081338 -2.774968
v 152.555267 1.081338 -2.774968
v 152.600296 1.081338 -2.774968
v 152.645325 1.081338 -2.774968
v 152.645325 1.081338 -2.376519
v 152.600296 1.081338 -2.376519
v 152.555267 1.081338 -2.376519
v 152.510239 1.081338 -2.376519
v 152.465210 1.081338 -2.376519
v 152.357605 0.667853 -2.774968
v 152.756058 0.667853 -2.774968
v 152.756058 0.667853 -2.376519
v 152.690353 0.667853 -2.376519
v 152.420166 0.667853 -2.376519
v 152.420166 0.667853 -2.774968
v 152.690353 0.667853 -2.774968
v 152.756058 0.667853 -2.718047
v 152.756058 0.667853 -2.661126
v 152.756058 0.667853 -2.604204
v 152.756058 0.667853 -2.547283
v 152.756058 0.667853 -2.490362
v 152.756058 0.667853 -2.433440
v 152.357605 0.667853 -2.433440
v 152.357605 0.667853 -2.490362
v 152.357605 0.667853 -2.547283
v 152.357605 0.667853 -2.604204
v 152.357605 0.667853 -2.661126
v 152.357605 0.667853 -2.718047
v 152.465210 0.667853 -2.774968
v 152.510239 0.667853 -2.774968
v 152.555267 0.667853 -2.774968
v 152.600296 0.667853 -2.774968
v 152.645325 0.667853 -2.774968
v 152.645325 0.667853 -2.376519
v 152.600296 0.667853 -2.376519
v 152.555267 0.667853 -2.376519
v 152.510239 0.667853 -2.376519
v 152.465210 0.667853 -2.376519
v 152.357605 0.667853 -2.376519
v 152.703659 1.090264 -2.722572
v 152.703659 1.090264 -2.428915
v 152.410004 1.090264 -2.428915
v 152.410004 1.090264 -2.722572
v 152.672882 1.090264 -2.722572
v 152.437637 1.090264 -2.722572
v 152.437637 1.090264 -2.428915
v 152.672882 1.090264 -2.428915
v 152.410004 1.090264 -2.680621
v 152.410004 1.090264 -2.638670
v 152.410004 1.090264 -2.596719
v 152.410004 1.090264 -2.554768
v 152.410004 1.090264 -2.512817
v 152.410004 1.090264 -2.470866
v 152.703659 1.090264 -2.470866
v 152.703659 1.090264 -2.512817
v 152.703659 1.090264 -2.554768
v 152.703659 1.090264 -2.596719
v 152.703659 1.090264 -2.638670
v 152.703659 1.090264 -2.680621
v 152.476852 1.090264 -2.428915
v 152.516052 1.090264 -2.428915
v 152.555267 1.090264 -2.428915
v 152.594467 1.090264 -2.428915
v 152.633682 1.090264 -2.428915
v 152.633682 1.090264 -2.722572
v 152.594467 1.090264 -2.722572
v 152.555267 1.090264 -2.722572
v 152.516052 1.090264 -2.722572
v 152.476852 1.090264 -2.722572
v 152.703659 0.673867 -2.722572
v 152.410004 0.672136 -2.428915
v 152.672882 0.673196 -2.722572
v 152.437637 0.666792 -2.722572
v 152.437637 0.673809 -2.428915
v 152.672882 0.671999 -2.428915
v 152.410004 0.671425 -2.680621
v 152.410004 0.670001 -2.638670
v 152.410004 0.669387 -2.596719
v 152.410004 0.669861 -2.554768
v 152.410004 0.667636 -2.512817
v 152.410004 0.669663 -2.470866
v 152.703659 0.671231 -2.470866
v 152.703659 0.671673 -2.512817
v 152.703659 0.672527 -2.554768
v 152.703659 0.672972 -2.596719
v 152.703659 0.666789 -2.638670
v 152.703659 0.669538 -2.679609
v 152.476852 0.674296 -2.428915
v 152.516052 0.674296 -2.428915
v 152.555267 0.671785 -2.428915
v 152.594467 0.671785 -2.428915
v 152.633682 0.671999 -2.428915
v 152.633682 0.669803 -2.722572
v 152.594467 0.669950 -2.722572
v 152.555267 0.668016 -2.722572
v 152.516052 0.668145 -2.722572
v 152.476852 0.667789 -2.722572
v 152.703659 0.680098 -2.428915
v 152.410004 0.676521 -2.722572
vn -1.0000 -0.0000 -0.0000
vn -0.0000 -0.0000 -1.0000
vn 1.0000 -0.0000 -0.0000
vn -0.0000 -0.0000 1.0000
vn -0.0000 1.0000 -0.0000
vn -0.0000 -1.0000 -0.0000
vn -0.0000 0.9969 0.0789
vn -0.0000 0.9972 0.0748
vn -0.0000 0.9925 0.1220
vn 0.1679 -0.9858 -0.0000
vn -0.5812 -0.0000 -0.8137
vn 0.9762 -0.0000 0.2169
vn -0.0000 -0.9858 -0.1679
vn 0.9762 -0.0000 -0.2169
vn -0.0338 0.9994 -0.0048
vn -0.0269 0.9994 -0.0205
vn -0.0185 0.9962 0.0850
vn 0.0660 0.9978 0.0045
vn 0.3939 -0.0000 0.9191
vn -0.0069 0.9937 -0.1123
vn 0.0222 0.9994 0.0281
vn -0.0627 0.9979 0.0144
vn -0.0118 0.9998 0.0140
vn 0.0015 1.0000 -0.0044
vn -0.9939 -0.0000 0.1104
vn -0.9939 -0.0000 -0.1104
vn 0.0017 0.9993 -0.0383
vn 0.0931 0.9957 0.0045
vn -0.9487 -0.0000 -0.3162
vn 0.7071 -0.0000 0.7071
vn -0.9487 -0.0000 0.3162
vn 0.5812 -0.0000 -0.8137
vn -0.3939 -0.0000 0.9191
vn -0.1679 -0.9858 -0.0000
vn 0.1414 -0.0000 -0.9899
vn 0.1414 -0.0000 0.9899
vn -0.3939 -0.0000 -0.9191
vn 0.5865 0.0010 0.8100
vn -0.7071 -0.0000 -0.7071
vn -0.0000 -0.9858 0.1679
vn 0.9487 -0.0000 0.3162
vn -0.9762 -0.0000 -0.2169
vn 0.9939 -0.0000 0.1104
vn 0.9939 -0.0000 -0.1104
vn -0.9762 -0.0000 0.2169
vn 0.9487 -0.0000 -0.3162
vn -0.5812 -0.0000 0.8137
vn 0.3939 -0.0000 -0.9191
vn -0.1414 -0.0000 0.9899
vn -0.1414 -0.0000 -0.9899
vt 0.159599 0.345613
vt 0.159599 0.316444
vt 0.186199 0.316444
vt 0.186199 0.345613
vt 0.186438 0.029169
vt 0.186438 0.000000
vt 0.223253 0.000000
vt 0.223253 0.029169
vt 0.606281 0.029197
vt 0.606281 0.000028
vt 0.632910 0.000032
vt 0.632910 0.029201
vt 0.411449 0.029169
vt 0.411449 -0.000000
vt 0.446507 0.000000
vt 0.446507 0.029169
vt 0.415894 0.717514
vt 0.415894 0.744143
vt 0.350737 0.744154
vt 0.350737 0.717525
vt 0.745699 0.595027
vt 0.765776 0.592405
vt 0.765776 0.600549
vt 0.746172 0.600549
vt 0.243334 0.348174
vt 0.217929 0.348174
vt 0.186199 0.316444
vt 0.220670 0.316444
vt 0.217929 0.507372
vt 0.217929 0.526010
vt 0.186199 0.557740
vt 0.186199 0.517949
vt 0.370359 0.526010
vt 0.395764 0.526010
vt 0.427494 0.557740
vt 0.393023 0.557740
vt 0.395764 0.364911
vt 0.395764 0.348174
vt 0.427494 0.316444
vt 0.427494 0.354334
vt 0.598937 0.617310
vt 0.598937 0.600573
vt 0.624342 0.600573
vt 0.624342 0.617310
vt 0.564261 0.594971
vt 0.583886 0.593477
vt 0.583886 0.600573
vt 0.564261 0.600570
vt 0.333493 0.834800
vt 0.350737 0.829895
vt 0.350737 0.841813
vt 0.333493 0.841813
vt 0.781963 0.280214
vt 0.797448 0.274322
vt 0.797448 0.284073
vt 0.781963 0.284073
vt 0.632910 0.275929
vt 0.650154 0.276335
vt 0.650154 0.284073
vt 0.632910 0.284073
vt 0.759994 0.279610
vt 0.759994 0.284073
vt 0.186199 0.834717
vt 0.201684 0.833704
vt 0.201684 0.841813
vt 0.186199 0.841813
vt 0.311525 0.834800
vt 0.311525 0.841813
vt 0.598937 0.778409
vt 0.598937 0.759771
vt 0.624342 0.759771
vt 0.624342 0.778409
vt 0.598937 0.641053
vt 0.624342 0.641053
vt 0.395764 0.507372
vt 0.427494 0.517949
vt 0.395764 0.388654
vt 0.427494 0.381603
vt 0.217929 0.364911
vt 0.186199 0.354334
vt 0.217929 0.483629
vt 0.186199 0.490680
vt 0.797448 0.255807
vt 0.832505 0.255807
vt 0.832505 0.314658
vt 0.797448 0.314658
vt 0.655816 0.635020
vt 0.628547 0.635020
vt 0.628547 0.600549
vt 0.655816 0.600549
vt 0.223253 0.029169
vt 0.223253 -0.000000
vt 0.260069 -0.000000
vt 0.260069 0.029169
vt 0.386219 0.029169
vt 0.386219 -0.000000
vt 0.000000 0.029169
vt 0.000000 0.000000
vt 0.035057 0.000000
vt 0.035057 0.029169
vt 0.161208 0.029169
vt 0.161208 0.000000
vt 0.831953 0.635020
vt 0.792162 0.635020
vt 0.792162 0.600549
vt 0.831953 0.600549
vt 0.483322 0.778409
vt 0.520138 0.778409
vt 0.520138 0.843566
vt 0.483322 0.843566
vt 0.446507 0.778409
vt 0.483322 0.843566
vt 0.446507 0.843566
vt 0.065157 0.792486
vt 0.065157 0.819086
vt 0.000000 0.819086
vt 0.000000 0.792486
vt 0.869843 0.635020
vt 0.869843 0.600549
vt 0.124008 0.792662
vt 0.124008 0.819291
vt 0.065157 0.819301
vt 0.065157 0.792672
vt 0.555195 0.778409
vt 0.555195 0.837259
vt 0.520138 0.837259
vt 0.124008 0.659487
vt 0.124008 0.632887
vt 0.182858 0.632887
vt 0.182858 0.659487
vt 0.124008 0.819086
vt 0.124008 0.792486
vt 0.182858 0.792486
vt 0.182858 0.819086
vt 0.124008 0.765887
vt 0.182858 0.765887
vt 0.124008 0.739287
vt 0.182858 0.739287
vt 0.124008 0.712687
vt 0.182858 0.712687
vt 0.124008 0.686087
vt 0.182858 0.686087
vt 0.124008 0.632888
vt 0.124008 0.659517
vt 0.065157 0.659527
vt 0.065157 0.632898
vt 0.124008 0.686146
vt 0.065157 0.686156
vt 0.124008 0.712775
vt 0.065157 0.712785
vt 0.124008 0.739404
vt 0.065157 0.739414
vt 0.124008 0.766033
vt 0.065157 0.766043
vt 0.869843 0.841845
vt 0.831953 0.841845
vt 0.831953 0.807374
vt 0.869843 0.807374
vt 0.831953 0.772904
vt 0.869843 0.772904
vt 0.831953 0.738433
vt 0.869843 0.738433
vt 0.831953 0.703962
vt 0.869843 0.703962
vt 0.831953 0.669491
vt 0.869843 0.669491
vt 0.065157 0.632887
vt 0.065157 0.659487
vt 0.000000 0.659487
vt -0.000000 0.632887
vt 0.065157 0.686087
vt 0.000000 0.686087
vt 0.065157 0.712687
vt 0.000000 0.712687
vt 0.065157 0.739287
vt 0.000000 0.739287
vt 0.065157 0.765887
vt 0.000000 0.765887
vt 0.831952 0.841845
vt 0.792162 0.841845
vt 0.792162 0.807374
vt 0.792162 0.772904
vt 0.792162 0.738433
vt 0.792162 0.703962
vt 0.792162 0.669491
vt 0.655816 0.841845
vt 0.628547 0.841845
vt 0.628547 0.807374
vt 0.655816 0.807374
vt 0.628547 0.772904
vt 0.655816 0.772904
vt 0.628547 0.738433
vt 0.655816 0.738433
vt 0.628547 0.703962
vt 0.655816 0.703962
vt 0.628547 0.669491
vt 0.655816 0.669491
vt 0.446507 0.641054
vt 0.446507 0.617310
vt 0.471912 0.617310
vt 0.471912 0.641054
vt 0.497317 0.617310
vt 0.497317 0.641054
vt 0.522722 0.617310
vt 0.522722 0.641054
vt 0.548127 0.617310
vt 0.548127 0.641054
vt 0.573532 0.617310
vt 0.573532 0.641053
vt 0.446507 0.778409
vt 0.446507 0.759771
vt 0.471912 0.759771
vt 0.471912 0.778409
vt 0.497317 0.759771
vt 0.497317 0.778409
vt 0.522722 0.759771
vt 0.522722 0.778409
vt 0.548127 0.759771
vt 0.548127 0.778409
vt 0.573532 0.759771
vt 0.573532 0.778409
vt 0.446507 0.590798
vt 0.466132 0.593887
vt 0.466132 0.600553
vt 0.446507 0.600549
vt 0.485758 0.594753
vt 0.485758 0.600556
vt 0.505384 0.595128
vt 0.505384 0.600559
vt 0.525009 0.594845
vt 0.525009 0.600563
vt 0.544635 0.596195
vt 0.544635 0.600566
vt 0.446507 0.600573
vt 0.471912 0.600573
vt 0.497317 0.600573
vt 0.522722 0.600573
vt 0.548127 0.600573
vt 0.573532 0.600573
vt 0.243334 0.526010
vt 0.220670 0.557740
vt 0.268739 0.526010
vt 0.255140 0.557740
vt 0.294144 0.526010
vt 0.289611 0.557740
vt 0.319549 0.526010
vt 0.324082 0.557740
vt 0.344954 0.526010
vt 0.358553 0.557740
vt 0.370359 0.348174
vt 0.393023 0.316444
vt 0.344954 0.348174
vt 0.358553 0.316444
vt 0.319549 0.348174
vt 0.324082 0.316444
vt 0.294144 0.348174
vt 0.289611 0.316444
vt 0.268739 0.348174
vt 0.255140 0.316444
vt 0.628547 0.588631
vt 0.648151 0.594001
vt 0.648151 0.600549
vt 0.628547 0.600549
vt 0.667755 0.593734
vt 0.667755 0.600549
vt 0.687359 0.593216
vt 0.687359 0.600549
vt 0.706963 0.592947
vt 0.706963 0.600549
vt 0.726567 0.596691
vt 0.726567 0.600549
vt 0.415894 0.557740
vt 0.415894 0.584369
vt 0.350737 0.584380
vt 0.350737 0.557751
vt 0.415894 0.610998
vt 0.350737 0.611009
vt 0.415894 0.637627
vt 0.350737 0.637638
vt 0.415894 0.664256
vt 0.350737 0.664267
vt 0.415894 0.690885
vt 0.350737 0.690896
vt 0.446507 0.029169
vt 0.446507 0.000000
vt 0.473136 0.000005
vt 0.473136 0.029174
vt 0.499765 0.000009
vt 0.499765 0.029178
vt 0.526394 0.000014
vt 0.526394 0.029183
vt 0.553023 0.000018
vt 0.553023 0.029187
vt 0.579652 0.000023
vt 0.579652 0.029192
vt 0.000000 0.345613
vt 0.000000 0.316444
vt 0.026600 0.316444
vt 0.026600 0.345613
vt 0.053200 0.316444
vt 0.053200 0.345613
vt 0.079800 0.316444
vt 0.079800 0.345613
vt 0.106399 0.316444
vt 0.106399 0.345613
vt 0.132999 0.316444
vt 0.132999 0.345613
vt 0.573532 0.736028
vt 0.598937 0.736028
vt 0.573532 0.712284
vt 0.598937 0.712284
vt 0.573532 0.688541
vt 0.598937 0.688541
vt 0.573532 0.664797
vt 0.598937 0.664797
vt 0.548127 0.736028
vt 0.548127 0.712284
vt 0.548127 0.688541
vt 0.548127 0.664797
vt 0.522722 0.736028
vt 0.522722 0.712284
vt 0.522722 0.688541
vt 0.522722 0.664797
vt 0.497317 0.736028
vt 0.497317 0.712284
vt 0.497317 0.688541
vt 0.497317 0.664797
vt 0.471912 0.736028
vt 0.471912 0.712284
vt 0.471912 0.688541
vt 0.471912 0.664797
vt 0.446507 0.736028
vt 0.446507 0.712284
vt 0.446507 0.688541
vt 0.446507 0.664797
vt 0.764893 0.669491
vt 0.764893 0.635020
vt 0.737623 0.669491
vt 0.737623 0.635020
vt 0.710354 0.669491
vt 0.710354 0.635020
vt 0.683085 0.669491
vt 0.683085 0.635020
vt 0.764893 0.703962
vt 0.737623 0.703962
vt 0.710354 0.703962
vt 0.683085 0.703962
vt 0.764893 0.738433
vt 0.737623 0.738433
vt 0.710354 0.738433
vt 0.683085 0.738433
vt 0.764893 0.772904
vt 0.737623 0.772904
vt 0.710354 0.772904
vt 0.683085 0.772904
vt 0.764893 0.807374
vt 0.737623 0.807374
vt 0.710354 0.807374
vt 0.683085 0.807374
vt 0.764893 0.841845
vt 0.737623 0.841845
vt 0.710354 0.841845
vt 0.683085 0.841845
vt 0.060287 0.000000
vt 0.060287 0.029169
vt 0.085517 0.000000
vt 0.085517 0.029169
vt 0.110748 0.000000
vt 0.110748 0.029169
vt 0.135978 0.000000
vt 0.135978 0.029169
vt 0.285299 -0.000000
vt 0.285299 0.029169
vt 0.310529 -0.000000
vt 0.310529 0.029169
vt 0.335759 -0.000000
vt 0.335759 0.029169
vt 0.360989 -0.000000
vt 0.360989 0.029169
vt 0.764893 0.600549
vt 0.737623 0.600549
vt 0.710354 0.600549
vt 0.683085 0.600549
vt 0.217929 0.388655
vt 0.186199 0.381603
vt 0.217929 0.412398
vt 0.186199 0.408873
vt 0.217929 0.436142
vt 0.186199 0.436142
vt 0.217929 0.459885
vt 0.186199 0.463411
vt 0.395764 0.483629
vt 0.427494 0.490680
vt 0.395764 0.459885
vt 0.427494 0.463411
vt 0.395764 0.436142
vt 0.427494 0.436142
vt 0.395764 0.412398
vt 0.427494 0.408872
vt 0.624342 0.736028
vt 0.624342 0.712284
vt 0.624342 0.688541
vt 0.624342 0.664797
vt 0.223652 0.833409
vt 0.223652 0.841813
vt 0.245621 0.833409
vt 0.245621 0.841813
vt 0.267589 0.834930
vt 0.267589 0.841813
vt 0.289557 0.834930
vt 0.289557 0.841813
vt 0.672122 0.278390
vt 0.672122 0.284073
vt 0.694090 0.278301
vt 0.694090 0.284073
vt 0.716058 0.279473
vt 0.716058 0.284073
vt 0.738026 0.279394
vt 0.738026 0.284073
vt 0.308009 0.874324
vt 0.281389 0.880239
vt 0.284831 0.846964
vt 0.308009 0.841813
vt 0.335759 0.279571
vt 0.360989 0.279571
vt 0.660179 0.315809
vt 0.632910 0.315810
vt 0.636436 0.284074
vt 0.660179 0.284073
vt 0.285299 0.279571
vt 0.310529 0.279571
vt 0.708889 0.876790
vt 0.681786 0.873780
vt 0.681786 0.841845
vt 0.705385 0.844466
vt 0.180108 0.839122
vt 0.172731 0.872846
vt 0.152058 0.858080
vt 0.152058 0.819086
vt 0.110748 0.279571
vt 0.135978 0.279571
vt 0.026600 0.596015
vt 0.064271 0.340208
vt 0.064271 0.594919
vt 0.060287 0.279571
vt 0.085517 0.279571
vt 0.444883 0.813550
vt 0.415894 0.809645
vt 0.415894 0.557740
vt 0.444884 0.563148
vt 0.687448 0.284073
vt 0.687448 0.315803
vt 0.663705 0.315803
vt 0.660179 0.284073
vt 0.106399 0.596015
vt 0.132999 0.596015
vt 0.655167 0.847761
vt 0.655167 0.880265
vt 0.631988 0.875114
vt 0.628547 0.841845
vt 0.053200 0.596015
vt 0.079799 0.596015
vt 0.393014 0.999967
vt 0.372980 0.997450
vt 0.372980 0.744154
vt 0.393014 0.749565
vt 0.000000 0.596015
vt 0.281389 0.841813
vt 0.281389 0.876284
vt 0.249659 0.871748
vt 0.249659 0.846344
vt 0.553023 0.279590
vt 0.579652 0.279594
vt 0.583244 0.862499
vt 0.555195 0.882537
vt 0.555195 0.843542
vt 0.575864 0.828776
vt 0.499765 0.279580
vt 0.526394 0.279585
vt 0.859301 0.312520
vt 0.832505 0.285730
vt 0.847466 0.255807
vt 0.859301 0.267642
vt 0.446507 0.279571
vt 0.473136 0.279576
vt 0.161208 0.279571
vt 0.186438 0.279571
vt 0.000000 0.279571
vt 0.035057 0.279571
vt 0.386219 0.279571
vt 0.411449 0.279571
vt 0.223253 0.279571
vt 0.260069 0.279571
vt 0.028048 0.872852
vt 0.000000 0.852813
vt 0.007376 0.819086
vt 0.028048 0.833855
vt 0.606281 0.279599
vt 0.632910 0.279603
vt 0.575289 0.596061
vt 0.544635 0.340257
vt 0.575289 0.345659
vt 0.159599 0.596015
vt 0.186199 0.596015
vt 0.159599 0.632888
vt 0.186199 0.632888
vt 0.186438 0.316444
vt 0.223253 0.279571
vt 0.223253 0.316444
vt 0.606281 0.316471
vt 0.632910 0.316476
vt 0.411449 0.316444
vt 0.446507 0.279571
vt 0.446507 0.316444
vt 0.223253 0.316444
vt 0.260069 0.316444
vt 0.386219 0.316444
vt 0.000000 0.316444
vt 0.035057 0.316444
vt 0.161208 0.316444
vt 0.446507 0.316444
vt 0.473136 0.316448
vt 0.499765 0.316453
vt 0.526394 0.316458
vt 0.553023 0.316462
vt 0.579652 0.316467
vt -0.000000 0.632888
vt 0.026600 0.632888
vt 0.053200 0.632888
vt 0.079799 0.632888
vt 0.106399 0.632888
vt 0.132999 0.632888
vt 0.060287 0.316444
vt 0.085517 0.316444
vt 0.110748 0.316444
vt 0.135978 0.316444
vt 0.285299 0.316444
vt 0.310529 0.316444
vt 0.335759 0.316444
vt 0.360989 0.316444
vt 0.738026 -0.000000
vt 0.759994 -0.000000
vt 0.759994 0.023764
vt 0.738026 0.023764
vt 0.716058 -0.000000
vt 0.716058 0.023764
vt 0.694090 -0.000000
vt 0.694090 0.023764
vt 0.672122 -0.000000
vt 0.672122 0.023764
vt 0.650154 -0.000000
vt 0.650154 0.023764
vt 0.289557 0.557740
vt 0.311525 0.557740
vt 0.311525 0.581504
vt 0.289557 0.581504
vt 0.267589 0.557740
vt 0.267589 0.581504
vt 0.245621 0.557740
vt 0.245621 0.581504
vt 0.223652 0.557740
vt 0.223652 0.581504
vt 0.201684 0.557740
vt 0.201684 0.581504
vt 0.726567 0.316476
vt 0.746172 0.316476
vt 0.746172 0.340240
vt 0.726567 0.340240
vt 0.706963 0.316476
vt 0.706963 0.340240
vt 0.687359 0.316476
vt 0.687359 0.340240
vt 0.667755 0.316476
vt 0.667755 0.340240
vt 0.648151 0.316476
vt 0.648151 0.340240
vt 0.628547 0.316476
vt 0.628547 0.340240
vt 0.544635 0.316493
vt 0.564261 0.316496
vt 0.564261 0.340260
vt 0.525009 0.316489
vt 0.525009 0.340253
vt 0.505384 0.316486
vt 0.505384 0.340250
vt 0.485758 0.316483
vt 0.485758 0.340247
vt 0.466132 0.316479
vt 0.466132 0.340243
vt 0.446507 0.316476
vt 0.446507 0.340240
vt 0.333493 0.557740
vt 0.333493 0.581504
vt 0.186199 0.557740
vt 0.186199 0.581504
vt 0.781963 -0.000000
vt 0.781963 0.023764
vt 0.632910 -0.000000
vt 0.632910 0.023764
vt 0.797448 -0.000000
vt 0.797448 0.023764
vt 0.350737 0.557740
vt 0.350737 0.581504
vt 0.583886 0.316500
vt 0.583886 0.340264
vt 0.765776 0.316476
vt 0.765776 0.340240
vt 0.763094 0.841845
vt 0.759590 0.874160
vt 0.735991 0.876782
vt 0.735991 0.844857
vt 0.444884 0.813550
vt 0.444884 0.858424
vt 0.433049 0.870258
vt 0.418091 0.840343
vt 0.586925 0.828777
vt 0.586925 0.788986
vt 0.618647 0.778409
vt 0.618646 0.797046
vt 0.590852 0.849165
vt 0.618647 0.828777
vt 0.618647 0.868128
vt 0.598653 0.882794
vt 0.093207 0.819301
vt 0.121259 0.839334
vt 0.113883 0.873056
vt 0.093207 0.858291
vt 0.655167 0.847761
vt 0.681786 0.841845
vt 0.678345 0.875116
vt 0.655167 0.880265
vt 0.714717 0.284073
vt 0.741986 0.284073
vt 0.738461 0.315803
vt 0.714717 0.315803
vt 0.982254 0.255811
vt 0.957742 0.253426
vt 0.957742 0.000000
vt 0.982254 0.005409
vt 0.350737 0.999962
vt 0.350737 0.749560
vt 0.372980 0.744154
vt 0.372980 0.997580
vt 0.941631 0.572283
vt 0.941631 0.321881
vt 0.968359 0.316476
vt 0.968359 0.568381
vt 0.763094 0.841845
vt 0.790196 0.844857
vt 0.790196 0.876779
vt 0.766598 0.874157
vt 0.520138 0.871730
vt 0.520138 0.837259
vt 0.551869 0.841784
vt 0.551868 0.867190
vt 0.869922 0.255807
vt 0.869922 0.005405
vt 0.901134 0.000000
vt 0.901134 0.252200
vt 0.628547 0.596070
vt 0.628547 0.345668
vt 0.281894 0.023764
vt 0.281894 0.277060
vt 0.835405 0.255807
vt 0.797448 0.253761
vt 0.797448 -0.000000
vt 0.835405 0.005405
vt 0.835405 0.255807
vt 0.835405 0.005405
vt 0.869922 0.000000
vt 0.869922 0.253494
vt 0.093207 0.819301
vt 0.093207 0.858294
vt 0.072534 0.873061
vt 0.065157 0.839337
vt 0.186199 0.841813
vt 0.217929 0.846346
vt 0.217929 0.871751
vt 0.186199 0.876284
vt 0.913994 0.572283
vt 0.882916 0.569452
vt 0.882916 0.316476
vt 0.913994 0.321881
vt 0.913994 0.572283
vt 0.913994 0.321881
vt 0.941631 0.316476
vt 0.941631 0.569183
vt 0.757242 0.596047
vt 0.757242 0.345645
vt 0.037107 0.852810
vt 0.044484 0.819086
vt 0.065157 0.833853
vt 0.065157 0.872846
vt 0.510793 0.023766
vt 0.511266 0.278553
vt 0.810442 0.596047
vt 0.810442 0.345645
vt 0.586925 0.828776
vt 0.555195 0.797046
vt 0.555195 0.778409
vt 0.586925 0.788985
vt 0.869843 0.856354
vt 0.869843 0.605952
vt 0.901071 0.600549
vt 0.901071 0.853120
vt 0.930104 0.255807
vt 0.901134 0.254626
vt 0.901134 0.000000
vt 0.930104 0.005405
vt 0.932149 0.856353
vt 0.932149 0.605951
vt 0.958899 0.600549
vt 0.958899 0.855086
vt 0.708889 0.876782
vt 0.712393 0.844467
vt 0.735991 0.841845
vt 0.735991 0.873771
vt 0.983384 0.856356
vt 0.958899 0.856258
vt 0.958899 0.600549
vt 0.983384 0.605954
vt 0.687448 0.315803
vt 0.711192 0.284073
vt 0.714717 0.315803
vt 0.968359 0.572278
vt 0.968359 0.321876
vt 0.990632 0.316476
vt 0.990632 0.572106
vt 0.415894 0.999962
vt 0.395894 1.000000
vt 0.395894 0.744154
vt 0.415894 0.749559
vt 0.308009 0.874317
vt 0.308009 0.841813
vt 0.331187 0.846964
vt 0.334629 0.880233
vt 0.056882 0.023764
vt 0.056882 0.280214
vt 0.848399 0.572283
vt 0.810442 0.570120
vt 0.810442 0.316476
vt 0.848399 0.321881
vt 0.124008 0.872846
vt 0.124008 0.833853
vt 0.144681 0.819086
vt 0.152058 0.852810
vt 0.848399 0.572283
vt 0.848399 0.321881
vt 0.882916 0.570982
vt 0.932149 0.856356
vt 0.901071 0.855427
vt 0.901071 0.600549
vt 0.932149 0.605954
vt 0.249659 0.876284
vt 0.217929 0.871751
vt 0.217929 0.846346
vt 0.249659 0.841813
vt 0.930104 0.255807
vt 0.930104 0.005405
vt 0.957742 0.000000
vt 0.957742 0.254591
s 0
g odpadkac_Material.165
usemtl Material.165
f 256/1/1 52/2/1 10/3/1 238/4/1
f 244/5/2 20/6/2 11/7/2 239/8/2
f 250/9/3 64/10/3 12/11/3 240/12/3
f 242/13/4 24/14/4 9/15/4 237/16/4
f 344/21/1 327/22/1 15/23/1 83/24/1
f 70/25/5 4/26/5 10/27/5 52/28/5
f 26/29/5 8/30/5 11/31/5 20/32/5
f 76/33/5 6/34/5 12/35/5 64/36/5
f 28/37/5 2/38/5 9/39/5 24/40/5
f 100/41/5 77/42/5 13/43/5 32/44/5
f 338/45/3 328/46/3 13/47/3 77/48/3
f 332/49/2 355/50/2 16/51/2 31/52/2
f 330/53/4 356/54/4 14/55/4 29/56/4
f 327/57/4 329/58/4 30/59/4 15/60/4
f 354/61/4 330/53/4 29/56/4 167/62/4
f 328/63/2 331/64/2 32/65/2 13/66/2
f 349/67/2 332/49/2 31/52/2 172/68/2
f 88/69/5 94/70/5 31/71/5 16/72/5
f 232/73/5 100/41/5 32/44/5 176/74/5
f 6/34/5 27/75/5 23/76/5 12/35/5
f 166/77/5 28/37/5 24/40/5 156/78/5
f 4/26/5 25/79/5 19/80/5 10/27/5
f 161/81/5 26/29/5 20/32/5 146/82/5
f 202/87/6 112/88/6 22/89/6 151/90/6
f 240/91/4 12/92/4 23/93/4 241/94/4
f 266/95/4 156/96/4 24/14/4 242/13/4
f 238/97/2 10/98/2 19/99/2 243/100/2
f 261/101/2 146/102/2 20/6/2 244/5/2
f 137/186/6 17/187/6 107/188/6 177/189/6
f 177/189/6 107/188/6 108/190/6 182/191/6
f 182/191/6 108/190/6 109/192/6 187/193/6
f 187/193/6 109/192/6 110/194/6 192/195/6
f 192/195/6 110/194/6 111/196/6 197/197/6
f 197/197/6 111/196/6 112/88/6 202/87/6
f 167/198/5 29/199/5 95/200/5 207/201/5
f 207/201/5 95/200/5 96/202/5 212/203/5
f 212/203/5 96/202/5 97/204/5 217/205/5
f 217/205/5 97/204/5 98/206/5 222/207/5
f 222/207/5 98/206/5 99/208/5 227/209/5
f 227/209/5 99/208/5 100/41/5 232/73/5
f 15/210/5 30/211/5 89/212/5 83/213/5
f 83/213/5 89/212/5 90/214/5 84/215/5
f 84/215/5 90/214/5 91/216/5 85/217/5
f 85/217/5 91/216/5 92/218/5 86/219/5
f 86/219/5 92/218/5 93/220/5 87/221/5
f 87/221/5 93/220/5 94/70/5 88/69/5
f 356/222/3 333/223/3 82/224/3 14/225/3
f 333/223/3 334/226/3 81/227/3 82/224/3
f 334/226/3 335/228/3 80/229/3 81/227/3
f 335/228/3 336/230/3 79/231/3 80/229/3
f 336/230/3 337/232/3 78/233/3 79/231/3
f 337/232/3 338/45/3 77/48/3 78/233/3
f 29/199/5 14/234/5 82/235/5 95/200/5
f 95/200/5 82/235/5 81/236/5 96/202/5
f 96/202/5 81/236/5 80/237/5 97/204/5
f 97/204/5 80/237/5 79/238/5 98/206/5
f 98/206/5 79/238/5 78/239/5 99/208/5
f 99/208/5 78/239/5 77/42/5 100/41/5
f 8/30/5 71/240/5 59/241/5 11/31/5
f 71/240/5 72/242/5 60/243/5 59/241/5
f 72/242/5 73/244/5 61/245/5 60/243/5
f 73/244/5 74/246/5 62/247/5 61/245/5
f 74/246/5 75/248/5 63/249/5 62/247/5
f 75/248/5 76/33/5 64/36/5 63/249/5
f 2/38/5 65/250/5 47/251/5 9/39/5
f 65/250/5 66/252/5 48/253/5 47/251/5
f 66/252/5 67/254/5 49/255/5 48/253/5
f 67/254/5 68/256/5 50/257/5 49/255/5
f 68/256/5 69/258/5 51/259/5 50/257/5
f 69/258/5 70/25/5 52/28/5 51/259/5
f 355/260/1 339/261/1 88/262/1 16/263/1
f 339/261/1 340/264/1 87/265/1 88/262/1
f 340/264/1 341/266/1 86/267/1 87/265/1
f 341/266/1 342/268/1 85/269/1 86/267/1
f 342/268/1 343/270/1 84/271/1 85/269/1
f 343/270/1 344/21/1 83/24/1 84/271/1
f 239/284/3 11/285/3 59/286/3 245/287/3
f 245/287/3 59/286/3 60/288/3 246/289/3
f 246/289/3 60/288/3 61/290/3 247/291/3
f 247/291/3 61/290/3 62/292/3 248/293/3
f 248/293/3 62/292/3 63/294/3 249/295/3
f 249/295/3 63/294/3 64/10/3 250/9/3
f 237/296/1 9/297/1 47/298/1 251/299/1
f 251/299/1 47/298/1 48/300/1 252/301/1
f 252/301/1 48/300/1 49/302/1 253/303/1
f 253/303/1 49/302/1 50/304/1 254/305/1
f 254/305/1 50/304/1 51/306/1 255/307/1
f 255/307/1 51/306/1 52/2/1 256/1/1
f 93/220/5 231/308/5 236/309/5 94/70/5
f 231/308/5 230/310/5 235/311/5 236/309/5
f 230/310/5 229/312/5 234/313/5 235/311/5
f 229/312/5 228/314/5 233/315/5 234/313/5
f 228/314/5 227/209/5 232/73/5 233/315/5
f 92/218/5 226/316/5 231/308/5 93/220/5
f 226/316/5 225/317/5 230/310/5 231/308/5
f 225/317/5 224/318/5 229/312/5 230/310/5
f 224/318/5 223/319/5 228/314/5 229/312/5
f 223/319/5 222/207/5 227/209/5 228/314/5
f 91/216/5 221/320/5 226/316/5 92/218/5
f 221/320/5 220/321/5 225/317/5 226/316/5
f 220/321/5 219/322/5 224/318/5 225/317/5
f 219/322/5 218/323/5 223/319/5 224/318/5
f 218/323/5 217/205/5 222/207/5 223/319/5
f 90/214/5 216/324/5 221/320/5 91/216/5
f 216/324/5 215/325/5 220/321/5 221/320/5
f 215/325/5 214/326/5 219/322/5 220/321/5
f 214/326/5 213/327/5 218/323/5 219/322/5
f 213/327/5 212/203/5 217/205/5 218/323/5
f 89/212/5 211/328/5 216/324/5 90/214/5
f 211/328/5 210/329/5 215/325/5 216/324/5
f 210/329/5 209/330/5 214/326/5 215/325/5
f 209/330/5 208/331/5 213/327/5 214/326/5
f 208/331/5 207/201/5 212/203/5 213/327/5
f 30/211/5 171/332/5 211/328/5 89/212/5
f 171/332/5 170/333/5 210/329/5 211/328/5
f 170/333/5 169/334/5 209/330/5 210/329/5
f 169/334/5 168/335/5 208/331/5 209/330/5
f 168/335/5 167/198/5 207/201/5 208/331/5
f 105/185/6 201/336/6 206/337/6 106/104/6
f 201/336/6 200/338/6 205/339/6 206/337/6
f 200/338/6 199/340/6 204/341/6 205/339/6
f 199/340/6 198/342/6 203/343/6 204/341/6
f 198/342/6 197/197/6 202/87/6 203/343/6
f 104/184/6 196/344/6 201/336/6 105/185/6
f 196/344/6 195/345/6 200/338/6 201/336/6
f 195/345/6 194/346/6 199/340/6 200/338/6
f 194/346/6 193/347/6 198/342/6 199/340/6
f 193/347/6 192/195/6 197/197/6 198/342/6
f 103/183/6 191/348/6 196/344/6 104/184/6
f 191/348/6 190/349/6 195/345/6 196/344/6
f 190/349/6 189/350/6 194/346/6 195/345/6
f 189/350/6 188/351/6 193/347/6 194/346/6
f 188/351/6 187/193/6 192/195/6 193/347/6
f 102/182/6 186/352/6 191/348/6 103/183/6
f 186/352/6 185/353/6 190/349/6 191/348/6
f 185/353/6 184/354/6 189/350/6 190/349/6
f 184/354/6 183/355/6 188/351/6 189/350/6
f 183/355/6 182/191/6 187/193/6 188/351/6
f 101/181/6 181/356/6 186/352/6 102/182/6
f 181/356/6 180/357/6 185/353/6 186/352/6
f 180/357/6 179/358/6 184/354/6 185/353/6
f 179/358/6 178/359/6 183/355/6 184/354/6
f 178/359/6 177/189/6 182/191/6 183/355/6
f 18/180/6 141/360/6 181/356/6 101/181/6
f 141/360/6 140/361/6 180/357/6 181/356/6
f 140/361/6 139/362/6 179/358/6 180/357/6
f 139/362/6 138/363/6 178/359/6 179/358/6
f 138/363/6 137/186/6 177/189/6 178/359/6
f 243/100/2 19/99/2 142/364/2 257/365/2
f 257/365/2 142/364/2 143/366/2 258/367/2
f 258/367/2 143/366/2 144/368/2 259/369/2
f 259/369/2 144/368/2 145/370/2 260/371/2
f 260/371/2 145/370/2 146/102/2 261/101/2
f 241/94/4 23/93/4 152/372/4 262/373/4
f 262/373/4 152/372/4 153/374/4 263/375/4
f 263/375/4 153/374/4 154/376/4 264/377/4
f 264/377/4 154/376/4 155/378/4 265/379/4
f 265/379/4 155/378/4 156/96/4 266/95/4
f 106/104/6 206/337/6 147/380/6 21/105/6
f 206/337/6 205/339/6 148/381/6 147/380/6
f 205/339/6 204/341/6 149/382/6 148/381/6
f 204/341/6 203/343/6 150/383/6 149/382/6
f 203/343/6 202/87/6 151/90/6 150/383/6
f 25/79/5 157/384/5 142/385/5 19/80/5
f 157/384/5 158/386/5 143/387/5 142/385/5
f 158/386/5 159/388/5 144/389/5 143/387/5
f 159/388/5 160/390/5 145/391/5 144/389/5
f 160/390/5 161/81/5 146/82/5 145/391/5
f 27/75/5 162/392/5 152/393/5 23/76/5
f 162/392/5 163/394/5 153/395/5 152/393/5
f 163/394/5 164/396/5 154/397/5 153/395/5
f 164/396/5 165/398/5 155/399/5 154/397/5
f 165/398/5 166/77/5 156/78/5 155/399/5
f 94/70/5 236/309/5 172/400/5 31/71/5
f 236/309/5 235/311/5 173/401/5 172/400/5
f 235/311/5 234/313/5 174/402/5 173/401/5
f 234/313/5 233/315/5 175/403/5 174/402/5
f 233/315/5 232/73/5 176/74/5 175/403/5
f 331/64/2 345/404/2 176/405/2 32/65/2
f 345/404/2 346/406/2 175/407/2 176/405/2
f 346/406/2 347/408/2 174/409/2 175/407/2
f 347/408/2 348/410/2 173/411/2 174/409/2
f 348/410/2 349/67/2 172/68/2 173/411/2
f 329/58/4 350/412/4 171/413/4 30/59/4
f 350/412/4 351/414/4 170/415/4 171/413/4
f 351/414/4 352/416/4 169/417/4 170/415/4
f 352/416/4 353/418/4 168/419/4 169/417/4
f 353/418/4 354/61/4 167/62/4 168/419/4
f 291/420/7 270/421/7 332/422/7 349/423/7
f 293/424/4 264/377/4 265/379/4 294/425/4
f 293/426/8 292/427/8 348/428/8 347/429/8
f 291/430/4 262/373/4 263/375/4 292/431/4
f 295/432/9 294/433/9 346/434/9 345/435/9
f 252/436/10 309/437/10 310/438/10 251/439/10
f 288/440/2 259/369/2 260/371/2 289/441/2
f 280/442/11 251/299/11 310/443/11 338/444/11
f 286/445/2 257/365/2 258/367/2 287/446/2
f 295/447/12 345/448/12 317/449/12 266/450/12
f 264/451/13 319/452/13 320/453/13 263/454/13
f 283/455/1 254/305/1 255/307/1 284/456/1
f 262/457/13 321/458/13 304/459/13 241/460/13
f 281/461/1 252/301/1 253/303/1 282/462/1
f 291/463/14 349/464/14 321/465/14 262/466/14
f 296/467/1 237/296/1 251/299/1 280/442/1
f 283/468/15 282/469/15 336/470/15 335/471/15
f 277/472/3 248/293/3 249/295/3 278/473/3
f 281/474/16 280/475/16 338/476/16 337/477/16
f 275/478/3 246/289/3 247/291/3 276/479/3
f 296/480/17 271/481/17 331/482/17 328/483/17
f 268/484/3 239/284/3 245/287/3 274/485/3
f 290/486/2 261/101/2 244/5/2 273/487/2
f 267/488/2 238/97/2 243/100/2 272/489/2
f 295/490/4 266/95/4 242/13/4 271/491/4
f 269/492/4 240/91/4 241/94/4 270/493/4
f 279/494/18 278/495/18 340/496/18 339/497/18
f 279/498/3 250/9/3 240/12/3 269/499/3
f 281/500/19 337/232/19 309/501/19 252/502/19
f 285/503/1 256/1/1 238/4/1 267/504/1
f 41/505/1 285/503/1 267/504/1 3/506/1
f 17/507/2 273/487/2 268/508/2 7/509/2
f 53/510/3 279/498/3 269/499/3 5/511/3
f 21/512/4 271/491/4 296/513/4 1/514/4
f 5/515/4 269/492/4 270/493/4 22/516/4
f 147/517/4 295/490/4 271/491/4 21/512/4
f 3/518/2 267/488/2 272/489/2 18/519/2
f 137/520/2 290/486/2 273/487/2 17/507/2
f 7/521/3 268/484/3 274/485/3 58/522/3
f 58/522/3 274/485/3 275/478/3 57/523/3
f 57/523/3 275/478/3 276/479/3 56/524/3
f 56/524/3 276/479/3 277/472/3 55/525/3
f 55/525/3 277/472/3 278/473/3 54/526/3
f 54/526/3 278/473/3 279/498/3 53/510/3
f 1/527/1 296/467/1 280/442/1 46/528/1
f 46/528/1 280/442/1 281/461/1 45/529/1
f 45/529/1 281/461/1 282/462/1 44/530/1
f 44/530/1 282/462/1 283/455/1 43/531/1
f 43/531/1 283/455/1 284/456/1 42/532/1
f 42/532/1 284/456/1 285/503/1 41/505/1
f 18/519/2 272/489/2 286/445/2 141/533/2
f 141/533/2 286/445/2 287/446/2 140/534/2
f 140/534/2 287/446/2 288/440/2 139/535/2
f 139/535/2 288/440/2 289/441/2 138/536/2
f 138/536/2 289/441/2 290/486/2 137/520/2
f 22/516/4 270/493/4 291/430/4 151/537/4
f 151/537/4 291/430/4 292/431/4 150/538/4
f 150/538/4 292/431/4 293/424/4 149/539/4
f 149/539/4 293/424/4 294/425/4 148/540/4
f 148/540/4 294/425/4 295/490/4 147/517/4
f 158/541/4 157/542/4 326/543/4 325/544/4
f 159/545/4 158/541/4 325/544/4 324/546/4
f 160/547/4 159/545/4 324/546/4 323/548/4
f 161/549/4 160/547/4 323/548/4 322/550/4
f 26/551/4 161/549/4 322/550/4 301/552/4
f 163/553/2 162/554/2 321/555/2 320/556/2
f 164/557/2 163/553/2 320/556/2 319/558/2
f 165/559/2 164/557/2 319/558/2 318/560/2
f 166/561/2 165/559/2 318/560/2 317/562/2
f 28/563/2 166/561/2 317/562/2 303/564/2
f 72/565/1 71/566/1 316/567/1 315/568/1
f 73/569/1 72/565/1 315/568/1 314/570/1
f 74/571/1 73/569/1 314/570/1 313/572/1
f 75/573/1 74/571/1 313/572/1 312/574/1
f 76/575/1 75/573/1 312/574/1 311/576/1
f 6/577/1 76/575/1 311/576/1 298/578/1
f 66/579/3 65/580/3 310/581/3 309/501/3
f 67/582/3 66/579/3 309/501/3 308/583/3
f 68/584/3 67/582/3 308/583/3 307/585/3
f 69/586/3 68/584/3 307/585/3 306/587/3
f 70/588/3 69/586/3 306/587/3 305/589/3
f 4/590/3 70/588/3 305/589/3 300/591/3
f 162/554/2 27/592/2 304/593/2 321/555/2
f 2/594/2 28/563/2 303/564/2 299/595/2
f 157/542/4 25/596/4 302/597/4 326/543/4
f 8/598/4 26/551/4 301/552/4 297/599/4
f 25/596/4 4/600/4 300/601/4 302/597/4
f 27/592/2 6/602/2 298/603/2 304/593/2
f 65/580/3 2/604/3 299/605/3 310/581/3
f 71/566/1 8/606/1 297/607/1 316/567/1
f 325/544/4 326/543/4 354/61/4 353/418/4
f 266/608/13 317/609/13 318/610/13 265/611/13
f 323/548/4 324/546/4 352/416/4 351/414/4
f 237/612/13 299/613/13 303/614/13 242/615/13
f 301/552/4 322/550/4 350/412/4 329/58/4
f 320/556/2 321/555/2 349/67/2 348/410/2
f 268/616/20 273/617/20 329/618/20 327/619/20
f 318/560/2 319/558/2 347/408/2 346/406/2
f 275/620/21 274/621/21 344/622/21 343/623/21
f 303/564/2 317/562/2 345/404/2 331/64/2
f 285/624/22 284/625/22 334/626/22 333/627/22
f 314/570/1 315/568/1 343/270/1 342/268/1
f 286/628/23 272/629/23 330/630/23 354/631/23
f 312/574/1 313/572/1 341/266/1 340/264/1
f 288/632/24 287/633/24 353/634/24 352/635/24
f 298/578/1 311/576/1 339/261/1 355/260/1
f 293/636/3 347/637/3 319/638/3 264/639/3
f 308/583/3 309/501/3 337/232/3 336/230/3
f 292/640/25 263/641/25 320/642/25 348/643/25
f 306/587/3 307/585/3 335/228/3 334/226/3
f 294/644/26 265/645/26 318/646/26 346/647/26
f 300/591/3 305/589/3 333/223/3 356/222/3
f 290/648/27 289/649/27 351/650/27 350/651/27
f 277/652/28 276/653/28 342/654/28 341/655/28
f 271/656/29 242/657/29 303/658/29 331/659/29
f 296/660/30 328/46/30 299/605/30 237/661/30
f 302/597/4 300/601/4 356/54/4 330/53/4
f 304/593/2 298/603/2 355/50/2 332/49/2
f 310/581/3 299/605/3 328/46/3 338/45/3
f 316/567/1 297/607/1 327/22/1 344/21/1
f 270/493/31 241/94/31 304/662/31 332/663/31
f 279/664/32 339/665/32 311/666/32 250/667/32
f 278/668/33 249/669/33 312/670/33 340/671/33
f 250/672/34 311/673/34 312/674/34 249/675/34
f 248/676/34 313/677/34 314/678/34 247/679/34
f 277/680/35 341/681/35 313/682/35 248/683/35
f 276/684/36 247/685/36 314/686/36 342/687/36
f 275/688/37 343/270/37 315/568/37 246/689/37
f 246/690/34 315/691/34 316/692/34 245/693/34
f 274/485/38 245/287/38 316/694/38 344/695/38
f 268/696/39 327/22/39 297/607/39 239/697/39
f 239/698/40 297/699/40 301/700/40 244/701/40
f 273/702/41 244/703/41 301/704/41 329/705/41
f 290/706/42 350/707/42 322/708/42 261/709/42
f 289/710/43 260/711/43 323/712/43 351/713/43
f 261/714/40 322/715/40 323/716/40 260/717/40
f 288/718/1 352/719/1 324/720/1 259/721/1
f 259/722/40 324/451/40 325/723/40 258/724/40
f 287/725/44 258/726/44 325/727/44 353/728/44
f 286/729/45 354/730/45 326/731/45 257/732/45
f 257/733/40 326/734/40 302/735/40 243/736/40
f 272/489/46 243/100/46 302/737/46 330/738/46
f 285/739/47 333/740/47 305/741/47 256/742/47
f 256/743/10 305/744/10 306/745/10 255/746/10
f 284/747/48 255/748/48 306/682/48 334/749/48
f 283/750/49 335/751/49 307/752/49 254/753/49
f 254/754/10 307/755/10 308/756/10 253/757/10
f 282/758/50 253/759/50 308/760/50 336/761/50
g odpadkac_Material.058
usemtl Material.058
f 53/17/3 5/18/3 33/19/3 113/20/3
f 21/83/4 1/84/4 38/85/4 40/86/4
f 124/103/6 113/104/6 33/105/6 35/106/6
f 5/107/4 22/108/4 35/109/4 33/110/4
f 17/111/2 7/107/2 34/112/2 36/113/2
f 107/114/1 17/115/1 36/116/1 119/117/1
f 130/118/6 136/103/6 40/106/6 38/119/6
f 106/120/3 21/121/3 40/122/3 136/123/3
f 3/108/2 18/124/2 39/125/2 37/126/2
f 41/127/1 3/128/1 37/129/1 125/130/1
f 1/131/1 46/132/1 130/133/1 38/134/1
f 46/132/1 45/135/1 129/136/1 130/133/1
f 45/135/1 44/137/1 128/138/1 129/136/1
f 44/137/1 43/139/1 127/140/1 128/138/1
f 43/139/1 42/141/1 126/142/1 127/140/1
f 42/141/1 41/127/1 125/130/1 126/142/1
f 18/143/3 101/144/3 131/145/3 39/146/3
f 101/144/3 102/147/3 132/148/3 131/145/3
f 102/147/3 103/149/3 133/150/3 132/148/3
f 103/149/3 104/151/3 134/152/3 133/150/3
f 104/151/3 105/153/3 135/154/3 134/152/3
f 105/153/3 106/120/3 136/123/3 135/154/3
f 37/155/6 39/156/6 131/157/6 125/158/6
f 125/158/6 131/157/6 132/159/6 126/160/6
f 126/160/6 132/159/6 133/161/6 127/162/6
f 127/162/6 133/161/6 134/163/6 128/164/6
f 128/164/6 134/163/6 135/165/6 129/166/6
f 129/166/6 135/165/6 136/103/6 130/118/6
f 22/167/1 112/168/1 124/169/1 35/170/1
f 112/168/1 111/171/1 123/172/1 124/169/1
f 111/171/1 110/173/1 122/174/1 123/172/1
f 110/173/1 109/175/1 121/176/1 122/174/1
f 109/175/1 108/177/1 120/178/1 121/176/1
f 108/177/1 107/114/1 119/117/1 120/178/1
f 36/179/6 34/180/6 118/181/6 119/157/6
f 119/157/6 118/181/6 117/182/6 120/159/6
f 120/159/6 117/182/6 116/183/6 121/161/6
f 121/161/6 116/183/6 115/184/6 122/163/6
f 122/163/6 115/184/6 114/185/6 123/165/6
f 123/165/6 114/185/6 113/104/6 124/103/6
f 7/272/3 58/273/3 118/274/3 34/275/3
f 58/273/3 57/276/3 117/277/3 118/274/3
f 57/276/3 56/278/3 116/279/3 117/277/3
f 56/278/3 55/280/3 115/281/3 116/279/3
f 55/280/3 54/282/3 114/283/3 115/281/3
f 54/282/3 53/17/3 113/20/3 114/283/3
