# Blender 4.1.0
# www.blender.org
mtllib strom listnaty.mtl
o stromovi_1
v 109.836578 7.705385 -3.046887
v 109.836578 5.114480 -3.046887
v 109.836578 7.705385 -0.455983
v 109.836578 5.114480 -0.455983
v 107.245674 7.705385 -3.046887
v 107.245674 5.114481 -3.046887
v 107.245674 7.705385 -0.455983
v 107.245674 5.114481 -0.455983
v 108.541122 7.989264 -0.172104
v 110.120453 6.409932 -0.172104
v 110.120453 7.989264 -1.751435
v 108.541122 4.830600 -0.172104
v 108.541122 4.830601 -3.330767
v 110.120453 4.830601 -1.751435
v 108.541122 7.989264 -3.330767
v 110.120453 6.409932 -3.330767
v 106.961792 4.830601 -1.751435
v 106.961792 6.409932 -0.172104
v 106.961792 6.409932 -3.330767
v 106.961792 7.989264 -1.751435
v 108.541122 4.234852 -1.751435
v 108.541122 8.585012 -1.751435
v 106.366043 6.409932 -1.751435
v 108.541122 6.409932 0.423645
v 108.541122 6.409932 -3.926515
v 110.716202 6.409933 -1.751435
v 108.541122 1.333466 -2.312336
v 108.541122 4.742761 -2.012676
v 109.026878 1.333466 -2.031886
v 108.767365 4.742761 -1.882056
v 109.026878 1.333466 -1.470985
v 108.767365 4.742761 -1.620815
v 108.541122 1.333466 -1.190534
v 108.541122 4.742761 -1.490195
v 108.055367 1.333466 -1.470985
v 108.314880 4.742761 -1.620815
v 108.055367 1.333466 -2.031886
v 108.314880 4.742761 -1.882056
v 108.541122 2.185790 -2.111853
v 108.541122 3.038113 -2.017659
v 108.541122 3.890437 -1.960701
v 108.722351 3.890437 -1.856068
v 108.771675 3.038113 -1.884547
v 108.853256 2.185790 -1.931644
v 108.722351 3.890437 -1.646802
v 108.771675 3.038113 -1.618323
v 108.853256 2.185790 -1.571226
v 108.541122 3.890437 -1.542169
v 108.541122 3.038113 -1.485211
v 108.541122 2.185790 -1.391017
v 108.359894 3.890437 -1.646802
v 108.310570 3.038113 -1.618323
v 108.228989 2.185790 -1.571226
v 108.359894 3.890437 -1.856068
v 108.310570 3.038113 -1.884547
v 108.228989 2.185790 -1.931644
vn -0.3061 -0.9015 -0.3061
vn 0.3061 -0.9015 -0.3061
vn 0.3061 -0.9015 0.3061
vn -0.3061 -0.9015 0.3061
vn 0.3061 0.9015 -0.3061
vn -0.3061 0.9015 -0.3061
vn -0.3061 0.9015 0.3061
vn 0.3061 0.9015 0.3061
vn -0.9015 -0.3061 0.3061
vn -0.9015 0.3061 0.3061
vn -0.9015 0.3061 -0.3061
vn -0.9015 -0.3061 -0.3061
vn 0.3061 -0.3061 0.9015
vn 0.3061 0.3061 0.9015
vn -0.3061 0.3061 0.9015
vn -0.3061 -0.3061 0.9015
vn -0.3061 -0.3061 -0.9015
vn -0.3061 0.3061 -0.9015
vn 0.3061 0.3061 -0.9015
vn 0.3061 -0.3061 -0.9015
vn 0.9015 -0.3061 -0.3061
vn 0.9015 0.3061 -0.3061
vn 0.9015 0.3061 0.3061
vn 0.9015 -0.3061 0.3061
vn 0.4993 -0.0527 -0.8648
vn 0.9986 -0.0527 -0.0000
vn 0.4993 -0.0527 0.8648
vn -0.4993 -0.0527 0.8648
vn -0.0000 1.0000 -0.0000
vn -0.9986 -0.0527 -0.0000
vn -0.4993 -0.0527 -0.8648
vn -0.0000 -1.0000 -0.0000
vn -0.4899 0.1996 -0.8486
vn -0.4977 0.0953 -0.8621
vn -0.4992 0.0578 -0.8646
vn -0.9799 0.1996 -0.0000
vn -0.9955 0.0953 -0.0000
vn -0.9983 0.0578 -0.0000
vn -0.4899 0.1996 0.8486
vn -0.4977 0.0953 0.8621
vn -0.4992 0.0578 0.8646
vn 0.4899 0.1996 0.8486
vn 0.4977 0.0953 0.8621
vn 0.4992 0.0578 0.8646
vn 0.9799 0.1996 -0.0000
vn 0.9955 0.0953 -0.0000
vn 0.9983 0.0578 -0.0000
vn 0.4899 0.1996 -0.8486
vn 0.4977 0.0953 -0.8621
vn 0.4992 0.0578 -0.8646
vt 0.701148 0.124072
vt 0.653766 0.207562
vt 0.500100 0.139798
vt 0.653054 0.000100
vt 0.624072 0.298853
vt 0.500100 0.346946
vt 0.139798 0.000100
vt 0.346946 0.000100
vt 0.298852 0.124072
vt 0.207562 0.153766
vt 0.000100 0.153054
vt 0.124072 0.201148
vt 0.798853 0.375928
vt 0.846234 0.292438
vt 0.999900 0.360202
vt 0.846946 0.499900
vt 0.875928 0.201148
vt 0.999900 0.153054
vt 0.360202 0.499900
vt 0.153054 0.499900
vt 0.201148 0.375928
vt 0.292438 0.346234
vt 0.499900 0.346946
vt 0.375928 0.298853
vt 0.153766 0.292438
vt 0.000100 0.360202
vt 0.860202 0.000100
vt 0.792438 0.153766
vt 0.346234 0.207562
vt 0.250000 0.250000
vt 0.750000 0.250000
vt 0.707562 0.346234
vt 0.639798 0.499900
vt 0.499900 0.139798
vt 0.400522 0.859534
vt 0.400522 0.973614
vt 0.338423 0.973614
vt 0.338423 0.859534
vt 0.276324 0.973614
vt 0.276324 0.859534
vt 0.214225 0.973614
vt 0.214225 0.859534
vt 0.152126 0.973614
vt 0.152126 0.859534
vt 0.975279 0.972499
vt 0.955987 0.983637
vt 0.936695 0.972499
vt 0.936695 0.950222
vt 0.955987 0.939084
vt 0.975279 0.950222
vt 0.090027 0.973614
vt 0.090027 0.859534
vt 0.027928 0.973614
vt 0.027928 0.859534
vt 0.920036 0.903649
vt 0.854071 0.865564
vt 0.854071 0.789393
vt 0.920036 0.751308
vt 0.986002 0.789393
vt 0.986002 0.865564
vt 0.090027 0.513875
vt 0.090027 0.630851
vt 0.027928 0.630851
vt 0.027928 0.513875
vt 0.090027 0.745412
vt 0.027928 0.745412
vt 0.152126 0.513875
vt 0.152126 0.630851
vt 0.152126 0.745412
vt 0.214225 0.513875
vt 0.214225 0.630851
vt 0.214225 0.745412
vt 0.276324 0.513875
vt 0.276324 0.630851
vt 0.276324 0.745412
vt 0.338423 0.513875
vt 0.338423 0.630851
vt 0.338423 0.745412
vt 0.400522 0.513875
vt 0.400522 0.630851
vt 0.400522 0.745412
s 0
usemtl stromik.001
f 6/1/1 13/2/1 21/3/1 17/4/1
f 13/2/2 2/5/2 14/6/2 21/3/2
f 21/7/3 14/8/3 4/9/3 12/10/3
f 17/11/4 21/7/4 12/10/4 8/12/4
f 1/13/5 15/14/5 22/15/5 11/16/5
f 15/14/6 5/17/6 20/18/6 22/15/6
f 22/19/7 20/20/7 7/21/7 9/22/7
f 11/23/8 22/19/8 9/22/8 3/24/8
f 8/12/9 18/25/9 23/26/9 17/11/9
f 18/25/10 7/21/10 20/20/10 23/26/10
f 23/27/11 20/18/11 5/17/11 19/28/11
f 17/4/12 23/27/12 19/28/12 6/1/12
f 4/9/13 10/29/13 24/30/13 12/10/13
f 10/29/14 3/24/14 9/22/14 24/30/14
f 24/30/15 9/22/15 7/21/15 18/25/15
f 12/10/16 24/30/16 18/25/16 8/12/16
f 6/1/17 19/28/17 25/31/17 13/2/17
f 19/28/18 5/17/18 15/14/18 25/31/18
f 25/31/19 15/14/19 1/13/19 16/32/19
f 13/2/20 25/31/20 16/32/20 2/5/20
f 2/5/21 16/32/21 26/33/21 14/6/21
f 16/32/22 1/13/22 11/16/22 26/33/22
f 26/34/23 11/23/23 3/24/23 10/29/23
f 14/8/24 26/34/24 10/29/24 4/9/24
usemtl Material
f 41/35/25 28/36/25 30/37/25 42/38/25
f 42/38/26 30/37/26 32/39/26 45/40/26
f 45/40/27 32/39/27 34/41/27 48/42/27
f 48/42/28 34/41/28 36/43/28 51/44/28
f 30/45/29 28/46/29 38/47/29 36/48/29 34/49/29 32/50/29
f 51/44/30 36/43/30 38/51/30 54/52/30
f 54/52/31 38/51/31 28/53/31 41/54/31
f 27/55/32 29/56/32 31/57/32 33/58/32 35/59/32 37/60/32
f 37/61/33 56/62/33 39/63/33 27/64/33
f 56/62/34 55/65/34 40/66/34 39/63/34
f 55/65/35 54/52/35 41/54/35 40/66/35
f 35/67/36 53/68/36 56/62/36 37/61/36
f 53/68/37 52/69/37 55/65/37 56/62/37
f 52/69/38 51/44/38 54/52/38 55/65/38
f 33/70/39 50/71/39 53/68/39 35/67/39
f 50/71/40 49/72/40 52/69/40 53/68/40
f 49/72/41 48/42/41 51/44/41 52/69/41
f 31/73/42 47/74/42 50/71/42 33/70/42
f 47/74/43 46/75/43 49/72/43 50/71/43
f 46/75/44 45/40/44 48/42/44 49/72/44
f 29/76/45 44/77/45 47/74/45 31/73/45
f 44/77/46 43/78/46 46/75/46 47/74/46
f 43/78/47 42/38/47 45/40/47 46/75/47
f 27/79/48 39/80/48 44/77/48 29/76/48
f 39/80/49 40/81/49 43/78/49 44/77/49
f 40/81/50 41/35/50 42/38/50 43/78/50
