# Blender 4.1.0
# www.blender.org
mtllib zed s oknem tm drevo.mtl
o zed_tm_drevo_okno
v 159.784790 2.363999 -3.055885
v 159.784943 3.216389 -3.055885
v 159.771194 2.350408 -3.152028
v 159.769165 3.232168 -3.152028
v 160.744232 2.367305 -3.055885
v 160.749512 3.218517 -3.055885
v 160.761841 2.349689 -3.152028
v 160.762650 3.231657 -3.152028
v 159.647614 2.226823 -3.055885
v 159.647614 3.353720 -3.055885
v 160.884705 3.353720 -3.055885
v 160.884705 2.226823 -3.055885
v 159.784943 2.814587 -3.055885
v 160.744232 2.762806 -3.055885
v 160.293625 2.367305 -3.055885
v 160.288345 3.218517 -3.055885
v 160.293625 2.762806 -3.055885
v 160.749512 2.812459 -3.055885
v 160.771698 2.339839 -3.055885
v 160.242004 2.363999 -3.055885
v 160.288345 2.812459 -3.055885
v 160.771698 3.240704 -3.055885
v 160.771698 2.790272 -3.055885
v 160.241852 3.216389 -3.055885
v 160.241852 2.814587 -3.055885
v 159.784790 2.766112 -3.055885
v 159.760620 3.240704 -3.055885
v 160.266159 3.240704 -3.055885
v 160.242004 2.766112 -3.055885
v 159.760620 2.339839 -3.055885
v 159.760620 2.790272 -3.055885
v 160.266159 2.339839 -3.055885
v 160.266159 2.790272 -3.055885
v 159.647614 3.353720 -3.152028
v 159.647614 2.226823 -3.152028
v 160.884705 2.226823 -3.152028
v 160.884705 3.353720 -3.152028
v 159.771194 2.764881 -3.152028
v 160.240768 2.350408 -3.152028
v 160.242798 3.232168 -3.152028
v 160.762650 2.814140 -3.152028
v 160.240768 2.764881 -3.152028
v 159.769165 2.813629 -3.152028
v 159.745804 2.325017 -3.152028
v 160.290833 2.349689 -3.152028
v 160.242798 2.813629 -3.152028
v 159.745804 3.255526 -3.152028
v 159.745804 2.790272 -3.152028
v 160.290024 3.231657 -3.152028
v 160.290024 2.814140 -3.152028
v 160.266159 3.255526 -3.152028
v 160.786514 3.255526 -3.152028
v 160.761841 2.765601 -3.152028
v 160.290833 2.765601 -3.152028
v 160.786514 2.790272 -3.152028
v 160.786514 2.325017 -3.152028
v 160.266159 2.325017 -3.152028
v 160.266159 2.790272 -3.152028
v 158.726929 1.180504 -3.137820
v 158.726929 1.180504 -3.062369
v 158.726929 4.270797 -3.137820
v 158.726929 4.270797 -3.062369
v 161.817215 1.180504 -3.137820
v 161.817215 1.180504 -3.062369
v 161.817215 4.270797 -3.137820
v 161.817215 4.270797 -3.062369
v 160.887833 4.270797 -3.137820
v 159.651306 4.270797 -3.137820
v 159.651306 4.270797 -3.062369
v 160.887833 4.270797 -3.062369
v 159.651306 1.180504 -3.137820
v 160.887833 1.180504 -3.137820
v 160.887833 1.180504 -3.062369
v 159.651306 1.180504 -3.062369
v 158.726929 2.220875 -3.137820
v 158.726929 2.220875 -3.062369
v 161.817215 2.220875 -3.137820
v 161.817215 2.220875 -3.062369
v 160.887833 2.220875 -3.062369
v 159.651306 2.220875 -3.062369
v 159.651306 2.220875 -3.137820
v 160.887833 2.220875 -3.137820
v 158.726929 3.356369 -3.062369
v 161.817215 3.356369 -3.137820
v 158.726929 3.356369 -3.137820
v 161.817215 3.356369 -3.062369
v 160.887833 3.356369 -3.062369
v 159.651306 3.356369 -3.062369
v 159.651306 3.356369 -3.137820
v 160.887833 3.356369 -3.137820
vn -1.0000 -0.0000 -0.0000
vn -0.0000 -0.0000 -1.0000
vn 1.0000 -0.0000 -0.0000
vn -0.0000 -0.0000 1.0000
vn -0.0000 -1.0000 -0.0000
vn -0.0000 1.0000 -0.0000
vt 0.046881 0.314886
vt 0.046881 0.500000
vt 0.031087 0.500000
vt 0.031087 0.314886
vt 0.760512 0.975892
vt 0.760512 0.778950
vt 0.983446 0.778950
vt 0.983446 0.975892
vt 0.031087 0.888331
vt 0.031087 0.703217
vt 0.046881 0.703217
vt 0.046880 0.888331
vt 0.760512 0.972437
vt 0.760512 0.782907
vt 0.976034 0.782907
vt 0.976034 0.972437
vt 0.031087 0.111669
vt 0.046881 0.111669
vt 0.518297 0.078211
vt 0.518297 0.260267
vt 0.518297 0.442323
vt 0.472618 0.488002
vt 0.472618 0.032532
vt 0.926951 0.442323
vt 0.926951 0.260267
vt 0.926952 0.078211
vt 0.972630 0.032532
vt 0.972630 0.488002
vt 0.926951 0.078211
vt 0.722624 0.078211
vt 0.972630 0.032532
vt 0.722624 0.442323
vt 0.760512 0.972244
vt 0.760512 0.782568
vt 0.976180 0.782568
vt 0.976180 0.972244
vt 0.973061 0.783101
vt 0.973061 0.969658
vt 0.760512 0.969658
vt 0.760512 0.783101
vt 0.978041 0.780367
vt 0.978041 0.971904
vt 0.760512 0.971904
vt 0.760512 0.780367
vt 0.698305 0.603359
vt 0.439433 0.603359
vt 0.421456 0.585381
vt 0.716282 0.585382
vt 0.439433 0.603359
vt 0.439433 0.898296
vt 0.421456 0.916273
vt 0.421456 0.585382
vt 0.698304 0.898296
vt 0.716282 0.916274
vt 0.401555 0.603104
vt 0.135774 0.603104
vt 0.121251 0.588582
vt 0.416077 0.588582
vt 0.401555 0.904951
vt 0.401555 0.603104
vt 0.416077 0.588581
vt 0.416077 0.919474
vt 0.135774 0.904951
vt 0.121251 0.919474
vt 0.703002 0.601867
vt 0.440007 0.601867
vt 0.424092 0.585952
vt 0.718918 0.585952
vt 0.440007 0.601868
vt 0.440007 0.900929
vt 0.424092 0.916844
vt 0.424092 0.585952
vt 0.703002 0.900929
vt 0.718918 0.916844
vt 0.439412 0.901756
vt 0.702611 0.901756
vt 0.718424 0.917570
vt 0.423599 0.917569
vt 0.439412 0.602491
vt 0.423599 0.586677
vt 0.702611 0.602491
vt 0.718424 0.586678
vt 0.930591 0.449996
vt 0.930591 0.261949
vt 0.930591 0.073903
vt 0.970279 0.034214
vt 0.970279 0.489684
vt 0.720273 0.073902
vt 0.509955 0.073902
vt 0.470267 0.034214
vt 0.509956 0.449996
vt 0.720273 0.449996
vt 0.470267 0.489684
vt 0.509955 0.073903
vt 0.509955 0.261949
vt 0.470267 0.034215
vt 0.760512 0.974509
vt 0.760512 0.778324
vt 0.982689 0.778324
vt 0.982689 0.974509
vt 0.982010 0.779685
vt 0.982010 0.975191
vt 0.760512 0.975191
vt 0.760512 0.779685
vt 0.983928 0.779094
vt 0.983928 0.976519
vt 0.760512 0.976519
vt 0.760512 0.779094
vt 0.430544 0.903462
vt 0.701833 0.903462
vt 0.718452 0.920081
vt 0.413925 0.920081
vt 0.701833 0.903462
vt 0.701833 0.596107
vt 0.718452 0.579488
vt 0.718452 0.920081
vt 0.430544 0.596107
vt 0.413925 0.579488
vt 0.707139 0.594776
vt 0.433189 0.594776
vt 0.417900 0.579488
vt 0.722427 0.579488
vt 0.707139 0.904793
vt 0.707139 0.594776
vt 0.722427 0.579488
vt 0.722427 0.920081
vt 0.433189 0.904793
vt 0.417900 0.920081
vt 0.128996 0.595111
vt 0.128997 0.904458
vt 0.113373 0.920081
vt 0.113373 0.579488
vt 0.402277 0.595111
vt 0.128996 0.595111
vt 0.113373 0.579488
vt 0.417900 0.579488
vt 0.402277 0.904458
vt 0.417900 0.920081
vt 0.125546 0.903933
vt 0.397776 0.903933
vt 0.413925 0.920081
vt 0.109398 0.920081
vt 0.125546 0.595636
vt 0.125546 0.903933
vt 0.109398 0.920081
vt 0.109398 0.579488
vt 0.397777 0.595636
vt 0.413925 0.579488
vt 0.130145 0.723530
vt 0.122037 0.723530
vt 0.122037 0.625269
vt 0.130145 0.625269
vt 0.192827 0.592607
vt 0.182394 0.592607
vt 0.182394 0.464100
vt 0.192827 0.464100
vt 0.228805 0.648626
vt 0.219959 0.648626
vt 0.219959 0.526657
vt 0.228805 0.526657
vt 0.091001 0.421634
vt 0.079467 0.421634
vt 0.079467 0.280331
vt 0.091001 0.280331
vt 0.678540 0.463031
vt 0.825189 0.463031
vt 0.825189 0.627192
vt 0.678540 0.627192
vt 0.482575 0.295658
vt 0.337277 0.295657
vt 0.337277 0.132128
vt 0.482575 0.132128
vt 0.823021 0.295658
vt 0.676935 0.295658
vt 0.676935 0.132128
vt 0.823021 0.132128
vt 0.337569 0.463031
vt 0.483428 0.463031
vt 0.483428 0.627192
vt 0.337569 0.627192
vt 0.219959 0.417699
vt 0.228805 0.417699
vt 0.219959 0.272735
vt 0.228805 0.272735
vt 0.122037 0.525938
vt 0.130145 0.525938
vt 0.192827 0.763581
vt 0.182394 0.763581
vt 0.091001 0.469348
vt 0.102535 0.280331
vt 0.102535 0.469348
vt 0.337569 0.283860
vt 0.483428 0.283860
vt 0.237650 0.720534
vt 0.228805 0.720534
vt 0.228805 0.587413
vt 0.237650 0.587413
vt 0.823021 0.474139
vt 0.676935 0.474139
vt 0.482575 0.474139
vt 0.337277 0.474139
vt 0.678540 0.283861
vt 0.825189 0.283861
vt 0.228805 0.781746
vt 0.219959 0.781746
vt 0.130145 0.957340
vt 0.122037 0.957340
vt 0.122037 0.845545
vt 0.130145 0.845545
vt 0.182394 0.337662
vt 0.192827 0.337662
vt 0.678540 0.139572
vt 0.825189 0.139572
vt 0.482575 0.617872
vt 0.337277 0.617872
vt 0.823021 0.617872
vt 0.676935 0.617872
vt 0.337569 0.139572
vt 0.483428 0.139572
vt 0.228805 0.442449
vt 0.237650 0.442449
vt 0.237650 0.309329
vt 0.228805 0.309329
s 0
g zed_tm_drevo_okno_Material.072
usemtl Material.072
f 9/1/1 10/2/1 34/3/1 35/4/1
f 36/9/3 37/10/3 11/11/3 12/12/3
f 35/4/5 36/17/5 12/18/5 9/1/5
f 37/10/6 34/3/6 10/2/6 11/11/6
f 30/19/4 31/20/4 27/21/4 10/22/4 9/23/4
f 22/24/4 23/25/4 19/26/4 12/27/4 11/28/4
f 19/29/4 32/30/4 30/19/4 9/23/4 12/31/4
f 27/21/4 28/32/4 22/24/4 11/28/4 10/22/4
f 14/45/4 5/46/4 19/47/4 23/48/4
f 5/49/4 15/50/4 32/51/4 19/52/4
f 17/53/4 14/45/4 23/48/4 33/54/4
f 15/50/4 17/53/4 33/54/4 32/51/4
f 6/55/4 18/56/4 23/57/4 22/58/4
f 16/59/4 6/60/4 22/61/4 28/62/4
f 18/56/4 21/63/4 33/64/4 23/57/4
f 21/63/4 16/59/4 28/62/4 33/64/4
f 13/65/4 2/66/4 27/67/4 31/68/4
f 2/69/4 24/70/4 28/71/4 27/72/4
f 25/73/4 13/65/4 31/68/4 33/74/4
f 24/70/4 25/73/4 33/74/4 28/71/4
f 1/75/4 26/76/4 31/77/4 30/78/4
f 20/79/4 1/75/4 30/78/4 32/80/4
f 26/76/4 29/81/4 33/82/4 31/77/4
f 29/81/4 20/79/4 32/80/4 33/82/4
f 47/83/2 48/84/2 44/85/2 35/86/2 34/87/2
f 44/85/2 57/88/2 56/89/2 36/90/2 35/86/2
f 52/91/2 51/92/2 47/83/2 34/87/2 37/93/2
f 56/94/2 55/95/2 52/91/2 37/93/2 36/96/2
f 38/109/2 3/110/2 44/111/2 48/112/2
f 3/113/2 39/114/2 57/115/2 44/116/2
f 42/117/2 38/109/2 48/112/2 58/118/2
f 39/114/2 42/117/2 58/118/2 57/115/2
f 4/119/2 43/120/2 48/121/2 47/122/2
f 40/123/2 4/124/2 47/125/2 51/126/2
f 43/120/2 46/127/2 58/128/2 48/121/2
f 46/127/2 40/123/2 51/126/2 58/128/2
f 8/129/2 49/130/2 51/131/2 52/132/2
f 41/133/2 8/134/2 52/135/2 55/136/2
f 50/137/2 41/133/2 55/136/2 58/138/2
f 49/130/2 50/137/2 58/138/2 51/131/2
f 7/139/2 53/140/2 55/141/2 56/142/2
f 45/143/2 7/144/2 56/145/2 57/146/2
f 53/140/2 54/147/2 58/148/2 55/141/2
f 54/147/2 45/143/2 57/146/2 58/148/2
g zed_tm_drevo_okno_Material.077
usemtl Material.077
f 50/5/2 49/6/2 8/7/2 41/8/2
f 25/13/4 24/14/4 2/15/4 13/16/4
f 20/33/4 29/34/4 26/35/4 1/36/4
f 5/37/4 14/38/4 17/39/4 15/40/4
f 18/41/4 6/42/4 16/43/4 21/44/4
f 45/97/2 54/98/2 53/99/2 7/100/2
f 3/101/2 38/102/2 42/103/2 39/104/2
f 43/105/2 4/106/2 40/107/2 46/108/2
g zed_tm_drevo_okno_Material.191
usemtl Material.191
f 85/149/1 83/150/1 62/151/1 61/152/1
f 67/153/6 70/154/6 66/155/6 65/156/6
f 77/157/3 78/158/3 64/159/3 63/160/3
f 71/161/5 74/162/5 60/163/5 59/164/5
f 82/165/2 77/166/2 63/167/2 72/168/2
f 80/169/4 76/170/4 60/171/4 74/172/4
f 78/173/4 79/174/4 73/175/4 64/176/4
f 79/174/4 80/169/4 74/172/4 73/175/4
f 75/177/2 81/178/2 71/179/2 59/180/2
f 81/178/2 82/165/2 72/168/2 71/179/2
f 63/160/5 64/159/5 73/181/5 72/182/5
f 72/182/5 73/181/5 74/183/5 71/184/5
f 61/152/6 62/151/6 69/185/6 68/186/6
f 68/187/6 69/188/6 70/154/6 67/153/6
f 82/189/6 81/164/6 80/190/6 79/191/6
f 85/192/2 89/193/2 81/178/2 75/177/2
f 80/194/3 81/195/3 89/196/3 88/197/3
f 86/198/4 87/199/4 79/174/4 78/173/4
f 88/200/4 83/201/4 76/170/4 80/169/4
f 90/202/2 84/203/2 77/166/2 82/165/2
f 84/204/3 86/205/3 78/158/3 77/157/3
f 59/206/1 60/207/1 76/208/1 75/209/1
f 65/156/3 66/155/3 86/210/3 84/211/3
f 67/212/2 65/213/2 84/203/2 90/202/2
f 69/214/4 62/215/4 83/201/4 88/200/4
f 66/216/4 70/217/4 87/199/4 86/198/4
f 70/217/4 69/214/4 88/200/4 87/199/4
f 61/218/2 68/219/2 89/193/2 85/192/2
f 68/219/2 67/212/2 90/202/2 89/193/2
f 75/209/1 76/208/1 83/150/1 85/149/1
f 88/197/5 89/196/5 90/220/5 87/221/5
f 79/222/1 87/221/1 90/220/1 82/223/1
