# Blender 4.1.0
# www.blender.org
mtllib penezenka.mtl
o penezenka
v 102.572006 1.570466 -1.008522
v 102.638710 1.570466 -1.008522
v 102.572006 1.635976 -1.010432
v 102.638710 1.635976 -1.010432
v 102.572006 1.636106 -1.008294
v 102.572006 1.570595 -1.006383
v 102.638710 1.570595 -1.006383
v 102.638710 1.636106 -1.008294
v 102.518326 1.565580 -0.996286
v 102.518326 1.574516 -0.987349
v 102.509392 1.574516 -0.996286
v 102.518326 1.631106 -0.987349
v 102.518326 1.640043 -0.996286
v 102.509392 1.631106 -0.996286
v 102.518326 1.561697 -1.024385
v 102.505508 1.574516 -1.024385
v 102.518326 1.574516 -1.037204
v 102.518326 1.643926 -1.024385
v 102.518326 1.631106 -1.037204
v 102.505508 1.631106 -1.024385
v 102.605072 1.565580 -0.996286
v 102.614006 1.574516 -0.996286
v 102.605072 1.574516 -0.987349
v 102.605072 1.640043 -0.996286
v 102.605072 1.631106 -0.987349
v 102.614006 1.631106 -0.996286
v 102.605072 1.561697 -1.024385
v 102.605072 1.574516 -1.037204
v 102.617889 1.574516 -1.024385
v 102.605072 1.643926 -1.024385
v 102.617889 1.631106 -1.024385
v 102.605072 1.631106 -1.037204
vn -0.0000 -0.0291 -0.9996
vn -0.0000 0.0291 0.9996
vn -1.0000 -0.0000 -0.0000
vn -0.0000 0.9982 -0.0605
vn -0.0000 -0.9982 0.0605
vn 1.0000 -0.0000 -0.0000
vn -0.0000 -0.0000 1.0000
vn 0.9906 -0.0000 0.1369
vn -0.0000 0.9906 0.1369
vn -0.9906 -0.0000 0.1369
vn -0.0000 -0.0000 -1.0000
vn -0.5774 -0.5774 0.5774
vn -0.5774 0.5773 0.5774
vn -0.5773 -0.5774 -0.5774
vn -0.5774 0.5774 -0.5774
vn 0.5773 -0.5774 0.5774
vn 0.5774 0.5774 0.5774
vn 0.5774 -0.5774 -0.5774
vn 0.5774 0.5774 -0.5774
vn -0.7038 -0.7038 0.0972
vn -0.7071 -0.0000 0.7071
vn -0.7038 0.7038 0.0972
vn -0.7071 -0.0000 -0.7071
vn -0.0000 -0.7071 -0.7071
vn -0.0000 0.7071 -0.7071
vn 0.7071 -0.0000 -0.7071
vn 0.7038 -0.7038 0.0972
vn 0.7038 0.7038 0.0972
vn 0.7071 -0.0000 0.7071
vn -0.0000 -0.7071 0.7071
vn -0.0000 0.7071 0.7071
vn -0.0000 -0.9906 0.1369
vt 0.263724 0.252271
vt 0.015874 0.252271
vt 0.015874 0.000000
vt 0.263724 0.000000
vt 0.015874 0.504543
vt 0.015874 0.252271
vt 0.263724 0.252271
vt 0.263724 0.504543
vt 0.007771 0.747729
vt 0.000000 0.500000
vt 0.008103 0.500000
vt 0.015874 0.747729
vt 0.007771 1.000000
vt 0.015874 1.000000
vt 0.000000 0.247729
vt 0.008103 0.247729
vt 0.007771 -0.000000
vt 0.015874 -0.000000
vt 0.339018 0.433326
vt 0.339018 0.576079
vt 0.120213 0.576079
vt 0.120213 0.433326
vt 0.801538 0.268741
vt 0.800535 0.111069
vt 0.935660 0.110209
vt 0.936663 0.267881
vt 0.676543 0.827040
vt 0.935279 0.827040
vt 0.935279 0.971706
vt 0.676543 0.971706
vt 0.666583 0.142233
vt 0.666583 0.284986
vt 0.551466 0.284986
vt 0.551466 0.142233
vt 0.337573 0.764497
vt 0.337573 0.907250
vt 0.118767 0.907250
vt 0.118767 0.764497
vt 0.682623 0.745181
vt 0.682632 0.771560
vt 0.656244 0.745190
vt 0.935279 0.998363
vt 0.961936 0.971706
vt 0.682574 0.602022
vt 0.644734 0.602035
vt 0.682561 0.564182
vt 0.935279 0.788802
vt 0.973517 0.827040
vt 0.938664 0.745094
vt 0.965043 0.745084
vt 0.938673 0.771472
vt 0.676543 0.998363
vt 0.649886 0.971706
vt 0.938615 0.601935
vt 0.938602 0.564095
vt 0.976455 0.601922
vt 0.638304 0.827040
vt 0.676542 0.788802
vt 0.097670 0.576079
vt 0.097670 0.433326
vt 0.369910 0.764497
vt 0.369910 0.907250
vt 0.765821 0.268968
vt 0.764818 0.111296
vt 0.960559 0.110051
vt 0.961561 0.267723
vt 0.938673 0.771472
vt 0.935279 0.998363
s 0
usemtl Material.030
f 1/1/1 3/2/1 4/3/1 2/4/1
f 6/5/2 7/6/2 8/7/2 5/8/2
f 3/9/3 1/10/3 6/11/3 5/12/3
f 4/13/4 3/9/4 5/12/4 8/14/4
f 1/10/5 2/15/5 7/16/5 6/11/5
f 2/15/6 4/17/6 8/18/6 7/16/6
usemtl Material.025
f 23/19/7 25/20/7 12/21/7 10/22/7
f 29/23/8 31/24/8 26/25/8 22/26/8
f 30/27/9 18/28/9 13/29/9 24/30/9
f 11/31/10 14/32/10 20/33/10 16/34/10
f 17/35/11 19/36/11 32/37/11 28/38/11
f 9/39/12 10/40/12 11/41/12
f 12/42/13 13/29/13 14/43/13
f 15/44/14 16/45/14 17/46/14
f 18/28/15 19/47/15 20/48/15
f 21/49/16 22/50/16 23/51/16
f 24/30/17 25/52/17 26/53/17
f 27/54/18 28/55/18 29/56/18
f 30/27/19 31/57/19 32/58/19
f 15/44/20 9/39/20 11/41/20 16/45/20
f 10/22/21 12/21/21 14/59/21 11/60/21
f 13/29/22 18/28/22 20/48/22 14/43/22
f 19/36/23 17/35/23 16/61/23 20/62/23
f 27/54/24 15/44/24 17/46/24 28/55/24
f 18/28/25 30/27/25 32/58/25 19/47/25
f 31/24/26 29/23/26 28/63/26 32/64/26
f 21/49/27 27/54/27 29/56/27 22/50/27
f 30/27/28 24/30/28 26/53/28 31/57/28
f 25/65/29 23/66/29 22/26/29 26/25/29
f 9/39/30 21/49/30 23/67/30 10/40/30
f 24/30/31 13/29/31 12/68/31 25/52/31
f 15/44/32 27/54/32 21/49/32 9/39/32
