# Blender 4.1.0
# www.blender.org
mtllib zed tmave drevo.mtl
o zed_tmave_drevo_
v 155.367783 1.118367 -3.074999
v 155.367783 1.118367 -2.997027
v 155.367783 4.311910 -3.074999
v 155.367783 4.311910 -2.997027
v 158.561325 1.118367 -3.074999
v 158.561325 1.118367 -2.997027
v 158.561325 4.311910 -3.074999
v 158.561325 4.311910 -2.997027
vn -1.0000 -0.0000 -0.0000
vn -0.0000 1.0000 -0.0000
vn 1.0000 -0.0000 -0.0000
vn -0.0000 -1.0000 -0.0000
vn -0.0000 -0.0000 -1.0000
vn -0.0000 -0.0000 1.0000
vt 0.491043 0.955383
vt 0.485484 0.955383
vt 0.485484 0.727692
vt 0.491043 0.727692
vt 0.485484 0.500000
vt 0.491043 0.500000
vt 0.485484 0.272308
vt 0.491043 0.272308
vt 0.485484 0.044617
vt 0.491043 0.044617
vt 0.115083 0.340049
vt 0.526186 0.340049
vt 0.526186 0.751151
vt 0.115083 0.751151
vt 0.973714 0.740560
vt 0.573650 0.740560
vt 0.573650 0.340495
vt 0.973714 0.340495
s 0
g zed_tmave_drevo__Material.189
usemtl Material.189
f 1/1/1 2/2/1 4/3/1 3/4/1
f 3/4/2 4/3/2 8/5/2 7/6/2
f 7/6/3 8/5/3 6/7/3 5/8/3
f 5/8/4 6/7/4 2/9/4 1/10/4
f 3/11/5 7/12/5 5/13/5 1/14/5
f 8/15/6 4/16/6 2/17/6 6/18/6
