# Blender 4.1.0
# www.blender.org
mtllib bile drevo zed.mtl
o zed_bezova_
v 158.719971 1.122362 -3.459326
v 158.719971 1.122362 -3.381814
v 158.719971 4.297085 -3.459326
v 158.719971 4.297085 -3.381814
v 161.894699 1.122362 -3.459326
v 161.894699 1.122362 -3.381814
v 161.894699 4.297085 -3.459326
v 161.894699 4.297085 -3.381814
vn -1.0000 -0.0000 -0.0000
vn -0.0000 1.0000 -0.0000
vn 1.0000 -0.0000 -0.0000
vn -0.0000 -1.0000 -0.0000
vn -0.0000 -0.0000 -1.0000
vn -0.0000 -0.0000 1.0000
vt 0.491043 0.955383
vt 0.485484 0.955383
vt 0.485484 0.727692
vt 0.491043 0.727692
vt 0.485484 0.500000
vt 0.491043 0.500000
vt 0.485484 0.272308
vt 0.491043 0.272308
vt 0.485484 0.044617
vt 0.491043 0.044617
vt 0.113526 0.646484
vt 0.363526 0.646484
vt 0.363526 0.896484
vt 0.113526 0.896484
vt 0.896729 0.355469
vt 0.646729 0.355469
vt 0.646729 0.105469
vt 0.896729 0.105469
s 0
g zed_bezova__Material.069
usemtl Material.069
f 1/1/1 2/2/1 4/3/1 3/4/1
f 3/4/2 4/3/2 8/5/2 7/6/2
f 7/6/3 8/5/3 6/7/3 5/8/3
f 5/8/4 6/7/4 2/9/4 1/10/4
f 3/11/5 7/12/5 5/13/5 1/14/5
f 8/15/6 4/16/6 2/17/6 6/18/6
