# Blender 4.1.0
# www.blender.org
mtllib pracovni stul.mtl
o psaci_stul
v 143.197037 1.084008 -1.553417
v 143.197037 1.158489 -1.553417
v 143.197037 1.084008 -2.302954
v 143.197037 1.158489 -2.302954
v 145.581268 1.084008 -1.553417
v 145.581268 1.158489 -1.553417
v 145.581268 1.084008 -2.302954
v 145.581268 1.158489 -2.302954
v 144.937424 1.084008 -2.302954
v 144.937424 1.158489 -2.302954
v 144.937424 1.084008 -1.553417
v 144.937424 1.158489 -1.553417
v 144.937424 1.158489 -3.123608
v 145.581268 1.158489 -3.123608
v 145.581268 1.084008 -3.123608
v 144.937424 1.084008 -3.123608
v 145.495178 1.158489 -2.302954
v 145.495178 1.084008 -1.553417
v 145.495178 1.084008 -2.302954
v 145.495178 1.158489 -1.553417
v 145.495178 1.158489 -3.123608
v 145.495178 1.084008 -3.123608
v 143.197037 1.084008 -1.644058
v 143.197037 1.158489 -1.644058
v 145.581268 1.084008 -1.644058
v 145.581268 1.158489 -1.644058
v 144.937424 1.158489 -1.644058
v 144.937424 1.084008 -1.644058
v 145.495178 1.158489 -1.644058
v 145.495178 1.084008 -1.644058
v 143.269104 1.084008 -2.302954
v 143.269104 1.158489 -1.553417
v 143.269104 1.158489 -2.302954
v 143.269104 1.084008 -1.553417
v 143.269104 1.084008 -1.644058
v 143.269104 1.158489 -1.644058
v 143.197037 0.515078 -1.644058
v 143.197037 0.515078 -1.553417
v 143.269104 0.515078 -2.302954
v 143.197037 0.515078 -2.302954
v 145.581268 0.515078 -1.644058
v 145.581268 0.515078 -2.302954
v 145.495178 0.515078 -1.553417
v 145.581268 0.515078 -1.553417
v 143.269104 0.515078 -1.553417
v 144.937424 0.515078 -1.553417
v 144.937424 0.515078 -1.644058
v 145.581268 0.515078 -3.123608
v 145.495178 0.515078 -2.302954
v 145.495178 0.515078 -3.123608
v 145.495178 0.515078 -1.644058
v 143.269104 0.515078 -1.644058
vn -1.0000 -0.0000 -0.0000
vn 1.0000 -0.0000 -0.0000
vn -0.0000 -0.0000 1.0000
vn -0.0000 -0.0000 -1.0000
vn -0.0000 1.0000 -0.0000
vn -0.0000 -1.0000 -0.0000
vt 0.677169 0.209132
vt 0.711229 0.209132
vt 0.711229 0.510444
vt 0.677169 0.510444
vt 0.977314 0.337378
vt 0.948121 0.337378
vt 0.948121 0.015729
vt 0.977314 0.015729
vt 0.948121 0.595628
vt 0.977314 0.595628
vt 0.977314 0.631154
vt 0.948121 0.631154
vt 0.700257 0.948729
vt 0.730093 0.948729
vt 0.730093 0.977603
vt 0.700257 0.977603
vt 0.118943 0.232330
vt 0.118943 0.549606
vt 0.010745 0.549606
vt 0.010745 0.232330
vt 0.716062 0.647679
vt 0.716062 0.628831
vt 0.739764 0.628831
vt 0.739764 0.647679
vt 0.654327 0.918054
vt 0.654327 0.772202
vt 0.678029 0.772202
vt 0.678029 0.918054
vt 0.677169 0.167683
vt 0.416999 0.209132
vt 0.416999 0.167683
vt 0.700257 0.057003
vt 0.730093 0.057003
vt 0.730093 0.280432
vt 0.700257 0.280432
vt 0.118943 0.357638
vt 0.133108 0.357638
vt 0.133108 0.674914
vt 0.118943 0.674914
vt 0.118943 0.937057
vt 0.133108 0.937057
vt 0.133108 0.953430
vt 0.118943 0.953430
vt 0.437327 0.712754
vt 0.437327 0.735267
vt 0.222729 0.735267
vt 0.222729 0.712754
vt 0.427760 0.666851
vt 0.357237 0.666851
vt 0.357237 0.563087
vt 0.427760 0.563087
vt 0.133108 0.830984
vt 0.118943 0.830984
vt 0.472354 0.977603
vt 0.472354 0.948729
vt 0.437327 0.566902
vt 0.222729 0.566902
vt 0.700257 0.022517
vt 0.730093 0.022517
vt 0.654327 0.940566
vt 0.678029 0.940566
vt 0.725133 0.595628
vt 0.725133 0.337378
vt 0.427760 0.750162
vt 0.357237 0.750162
vt 0.482027 0.940566
vt 0.482027 0.918054
vt 0.146295 0.666851
vt 0.146295 0.750162
vt 0.482027 0.772202
vt 0.543763 0.647680
vt 0.543763 0.628831
vt 0.472354 0.280432
vt 0.472354 0.057003
vt 0.711229 0.167683
vt 0.570831 0.987967
vt 0.570831 0.551709
vt 0.743131 0.551709
vt 0.743131 0.987967
vt 0.118943 0.343930
vt 0.133108 0.343930
vt 0.725133 0.631154
vt 0.716062 0.985506
vt 0.716062 0.549248
vt 0.739764 0.549248
vt 0.739764 0.985506
vt 0.324783 0.209996
vt 0.313897 0.209996
vt 0.313897 0.198536
vt 0.324783 0.198536
vt 0.606248 0.209996
vt 0.395306 0.209996
vt 0.395306 0.198536
vt 0.606248 0.198536
vt 0.313897 0.293307
vt 0.324783 0.293307
vt 0.324783 0.397071
vt 0.313897 0.397071
vt 0.615362 0.293307
vt 0.606248 0.293307
vt 0.615362 0.209996
vt 0.615362 0.198536
vt 0.725133 0.015729
vt 0.472354 0.022517
vt 0.118943 0.655680
vt 0.118943 0.780987
vt 0.010745 0.780987
vt 0.010745 0.655680
vt 0.416999 0.510444
vt 0.010745 0.953430
vt 0.010745 0.937057
vt 0.118943 0.482945
vt 0.010745 0.482945
vt 0.010745 0.357638
vt 0.010745 0.343930
s 0
usemtl Material.043
f 23/1/1 24/2/1 4/3/1 3/4/1
f 8/5/2 7/6/2 15/7/2 14/8/2
f 25/9/2 26/10/2 6/11/2 5/12/2
f 34/13/3 32/14/3 2/15/3 1/16/3
f 35/17/4 28/18/4 47/19/4 52/20/4
f 36/21/5 24/22/5 2/23/5 32/24/5
f 29/25/5 27/26/5 12/27/5 20/28/5
f 1/29/1 23/1/1 37/30/1 38/31/1
f 18/32/3 20/33/3 12/34/3 11/35/3
f 31/36/4 33/37/4 10/38/4 9/39/4
f 22/40/4 21/41/4 14/42/4 15/43/4
f 17/44/5 8/45/5 14/46/5 21/47/5
f 19/48/6 9/49/6 16/50/6 22/51/6
f 9/39/1 10/38/1 13/52/1 16/53/1
f 34/13/3 1/16/3 38/54/3 45/55/3
f 10/56/5 17/44/5 21/47/5 13/57/5
f 16/53/4 13/52/4 21/41/4 22/40/4
f 5/58/3 6/59/3 20/33/3 18/32/3
f 26/60/5 29/25/5 20/28/5 6/61/5
f 7/6/2 25/9/2 41/62/2 42/63/2
f 9/49/6 19/48/6 30/64/6 28/65/6
f 8/66/5 17/67/5 29/25/5 26/60/5
f 31/68/6 9/49/6 28/65/6 35/69/6
f 17/67/5 10/70/5 27/26/5 29/25/5
f 33/71/5 4/72/5 24/22/5 36/21/5
f 18/32/3 11/35/3 46/73/3 43/74/3
f 7/6/2 8/5/2 26/10/2 25/9/2
f 1/29/1 2/75/1 24/2/1 23/1/1
f 10/76/5 33/77/5 36/78/5 27/79/5
f 11/35/3 34/13/3 45/55/3 46/73/3
f 3/80/4 4/81/4 33/37/4 31/36/4
f 25/9/2 5/12/2 44/82/2 41/62/2
f 27/83/5 36/84/5 32/85/5 12/86/5
f 11/35/3 12/34/3 32/14/3 34/13/3
f 51/87/6 41/88/6 44/89/6 43/90/6
f 52/91/6 47/92/6 46/93/6 45/94/6
f 42/95/6 49/96/6 50/97/6 48/98/6
f 47/92/6 51/87/6 43/90/6 46/93/6
f 49/96/6 42/95/6 41/88/6 51/87/6
f 40/99/6 39/100/6 52/91/6 37/101/6
f 37/101/6 52/91/6 45/94/6 38/102/6
f 15/7/2 7/6/2 42/63/2 48/103/2
f 5/58/3 18/32/3 43/74/3 44/104/3
f 30/105/1 19/106/1 49/107/1 51/108/1
f 23/1/1 3/4/1 40/109/1 37/30/1
f 22/40/4 15/43/4 48/110/4 50/111/4
f 28/18/4 30/105/4 51/108/4 47/19/4
f 31/36/2 35/112/2 52/113/2 39/114/2
f 3/80/4 31/36/4 39/114/4 40/115/4
f 19/106/1 22/40/1 50/111/1 49/107/1
