{
	"asset":{
		"generator":"Khronos glTF Blender I/O v5.0.21",
		"version":"2.0"
	},
	"extensionsUsed":[
		"KHR_materials_specular",
		"KHR_materials_ior"
	],
	"scene":0,
	"scenes":[
		{
			"name":"Scene",
			"nodes":[
				0
			]
		}
	],
	"nodes":[
		{
			"mesh":0,
			"name":"SM_TI_Column_6m_0",
			"translation":[
				75.48051452636719,
				7.8022260665893555,
				-377.5747375488281
			]
		}
	],
	"materials":[
		{
			"doubleSided":true,
			"extensions":{
				"KHR_materials_specular":{
					"specularColorFactor":[
						0.4000000059604645,
						0.4000000059604645,
						0.4000000059604645
					]
				},
				"KHR_materials_ior":{
					"ior":1
				}
			},
			"name":"M_TI_Columns_0",
			"pbrMetallicRoughness":{
				"baseColorTexture":{
					"index":0
				},
				"metallicFactor":0
			}
		}
	],
	"meshes":[
		{
			"name":"SM_TI_Column_6m_0",
			"primitives":[
				{
					"attributes":{
						"POSITION":0,
						"NORMAL":1,
						"TEXCOORD_0":2
					},
					"indices":3,
					"material":0
				}
			]
		}
	],
	"textures":[
		{
			"sampler":0,
			"source":0
		}
	],
	"images":[
		{
			"mimeType":"image/png",
			"name":"T_TI_Columns_0.png",
			"uri":"T_TI_Columns_0.png.png"
		}
	],
	"accessors":[
		{
			"bufferView":0,
			"componentType":5126,
			"count":541,
			"max":[
				0.9095180034637451,
				2.6869375705718994,
				1.075507402420044
			],
			"min":[
				-1.02530837059021,
				-3.6018457412719727,
				-1.1263337135314941
			],
			"type":"VEC3"
		},
		{
			"bufferView":1,
			"componentType":5126,
			"count":541,
			"type":"VEC3"
		},
		{
			"bufferView":2,
			"componentType":5126,
			"count":541,
			"type":"VEC2"
		},
		{
			"bufferView":3,
			"componentType":5123,
			"count":2940,
			"type":"SCALAR"
		}
	],
	"bufferViews":[
		{
			"buffer":0,
			"byteLength":6492,
			"byteOffset":0,
			"target":34962
		},
		{
			"buffer":0,
			"byteLength":6492,
			"byteOffset":6492,
			"target":34962
		},
		{
			"buffer":0,
			"byteLength":4328,
			"byteOffset":12984,
			"target":34962
		},
		{
			"buffer":0,
			"byteLength":5880,
			"byteOffset":17312,
			"target":34963
		}
	],
	"samplers":[
		{
			"magFilter":9728,
			"minFilter":9984
		}
	],
	"buffers":[
		{
			"byteLength":23192,
			"uri":"SM_TI_Column_6m_0.bin"
		}
	]
}
