{
	"asset":{
		"generator":"Khronos glTF Blender I/O v5.0.21",
		"version":"2.0"
	},
	"extensionsUsed":[
		"KHR_materials_specular",
		"KHR_materials_ior"
	],
	"scene":0,
	"scenes":[
		{
			"name":"Scene",
			"nodes":[
				0
			]
		}
	],
	"nodes":[
		{
			"mesh":0,
			"name":"SM_TI_RockBlock_1",
			"translation":[
				50.96488952636719,
				5.18006706237793,
				-374.6294860839844
			]
		}
	],
	"materials":[
		{
			"doubleSided":true,
			"extensions":{
				"KHR_materials_specular":{
					"specularColorFactor":[
						0.4000000059604645,
						0.4000000059604645,
						0.4000000059604645
					]
				},
				"KHR_materials_ior":{
					"ior":1
				}
			},
			"name":"M_TI_RockBlock_1",
			"pbrMetallicRoughness":{
				"baseColorTexture":{
					"index":0
				},
				"metallicFactor":0
			}
		}
	],
	"meshes":[
		{
			"name":"SM_TI_RockBlock_1",
			"primitives":[
				{
					"attributes":{
						"POSITION":0,
						"NORMAL":1,
						"TEXCOORD_0":2
					},
					"indices":3,
					"material":0
				}
			]
		}
	],
	"textures":[
		{
			"sampler":0,
			"source":0
		}
	],
	"images":[
		{
			"mimeType":"image/png",
			"name":"T_TI_RockBlock_1.png",
			"uri":"T_TI_RockBlock_1.png.png"
		}
	],
	"accessors":[
		{
			"bufferView":0,
			"componentType":5126,
			"count":892,
			"max":[
				9.2869873046875,
				5.4345221519470215,
				4.488981246948242
			],
			"min":[
				-9.062934875488281,
				-2.374875068664551,
				-4.518284320831299
			],
			"type":"VEC3"
		},
		{
			"bufferView":1,
			"componentType":5126,
			"count":892,
			"type":"VEC3"
		},
		{
			"bufferView":2,
			"componentType":5126,
			"count":892,
			"type":"VEC2"
		},
		{
			"bufferView":3,
			"componentType":5123,
			"count":4632,
			"type":"SCALAR"
		}
	],
	"bufferViews":[
		{
			"buffer":0,
			"byteLength":10704,
			"byteOffset":0,
			"target":34962
		},
		{
			"buffer":0,
			"byteLength":10704,
			"byteOffset":10704,
			"target":34962
		},
		{
			"buffer":0,
			"byteLength":7136,
			"byteOffset":21408,
			"target":34962
		},
		{
			"buffer":0,
			"byteLength":9264,
			"byteOffset":28544,
			"target":34963
		}
	],
	"samplers":[
		{
			"magFilter":9728,
			"minFilter":9984
		}
	],
	"buffers":[
		{
			"byteLength":37808,
			"uri":"SM_TI_RockBlock_1.bin"
		}
	]
}
