{
	"asset":{
		"generator":"Khronos glTF Blender I/O v5.0.21",
		"version":"2.0"
	},
	"scene":0,
	"scenes":[
		{
			"name":"Scene",
			"nodes":[
				0
			]
		}
	],
	"nodes":[
		{
			"mesh":0,
			"name":"SM_TI_Slab_1",
			"translation":[
				67.43244934082031,
				2.8664121627807617,
				-414.85577392578125
			]
		}
	],
	"materials":[
		{
			"doubleSided":true,
			"name":"M_TI_Slab_0",
			"pbrMetallicRoughness":{
				"baseColorTexture":{
					"index":0
				},
				"metallicFactor":0
			}
		}
	],
	"meshes":[
		{
			"name":"SM_TI_Slab_1",
			"primitives":[
				{
					"attributes":{
						"POSITION":0,
						"NORMAL":1,
						"TEXCOORD_0":2
					},
					"indices":3,
					"material":0
				}
			]
		}
	],
	"textures":[
		{
			"sampler":0,
			"source":0
		}
	],
	"images":[
		{
			"mimeType":"image/png",
			"name":"T_TI_Slab_0.png",
			"uri":"T_TI_Slab_0.png.png"
		}
	],
	"accessors":[
		{
			"bufferView":0,
			"componentType":5126,
			"count":145,
			"max":[
				1.2195378541946411,
				0.058748021721839905,
				1.1640143394470215
			],
			"min":[
				-1.1917645931243896,
				-0.20828580856323242,
				-1.2357124090194702
			],
			"type":"VEC3"
		},
		{
			"bufferView":1,
			"componentType":5126,
			"count":145,
			"type":"VEC3"
		},
		{
			"bufferView":2,
			"componentType":5126,
			"count":145,
			"type":"VEC2"
		},
		{
			"bufferView":3,
			"componentType":5123,
			"count":147,
			"type":"SCALAR"
		}
	],
	"bufferViews":[
		{
			"buffer":0,
			"byteLength":1740,
			"byteOffset":0,
			"target":34962
		},
		{
			"buffer":0,
			"byteLength":1740,
			"byteOffset":1740,
			"target":34962
		},
		{
			"buffer":0,
			"byteLength":1160,
			"byteOffset":3480,
			"target":34962
		},
		{
			"buffer":0,
			"byteLength":294,
			"byteOffset":4640,
			"target":34963
		}
	],
	"samplers":[
		{
			"magFilter":9728,
			"minFilter":9984
		}
	],
	"buffers":[
		{
			"byteLength":4936,
			"uri":"SM_TI_Slab_1.bin"
		}
	]
}
