{
	"asset":{
		"generator":"Khronos glTF Blender I/O v5.0.21",
		"version":"2.0"
	},
	"extensionsUsed":[
		"KHR_materials_unlit"
	],
	"scene":0,
	"scenes":[
		{
			"name":"Scene",
			"nodes":[
				0
			]
		}
	],
	"nodes":[
		{
			"mesh":0,
			"name":"SM_TI_Ground_2",
			"translation":[
				34.646026611328125,
				1.6076364517211914,
				-435.1235656738281
			]
		}
	],
	"materials":[
		{
			"doubleSided":true,
			"extensions":{
				"KHR_materials_unlit":{}
			},
			"name":"M_TI_Ground_0",
			"pbrMetallicRoughness":{
				"baseColorTexture":{
					"index":0
				},
				"metallicFactor":0,
				"roughnessFactor":0.9
			}
		}
	],
	"meshes":[
		{
			"name":"SM_TI_Ground_2",
			"primitives":[
				{
					"attributes":{
						"POSITION":0,
						"NORMAL":1,
						"TEXCOORD_0":2
					},
					"indices":3,
					"material":0
				}
			]
		}
	],
	"textures":[
		{
			"sampler":0,
			"source":0
		}
	],
	"images":[
		{
			"mimeType":"image/png",
			"name":"T_TI_Ground_0",
			"uri":"T_TI_Ground_0.png"
		}
	],
	"accessors":[
		{
			"bufferView":0,
			"componentType":5126,
			"count":1652,
			"max":[
				9.083516120910645,
				0.8143753409385681,
				9.171309471130371
			],
			"min":[
				-9.083515167236328,
				-0.8143753409385681,
				-9.171308517456055
			],
			"type":"VEC3"
		},
		{
			"bufferView":1,
			"componentType":5126,
			"count":1652,
			"type":"VEC3"
		},
		{
			"bufferView":2,
			"componentType":5126,
			"count":1652,
			"type":"VEC2"
		},
		{
			"bufferView":3,
			"componentType":5123,
			"count":9732,
			"type":"SCALAR"
		}
	],
	"bufferViews":[
		{
			"buffer":0,
			"byteLength":19824,
			"byteOffset":0,
			"target":34962
		},
		{
			"buffer":0,
			"byteLength":19824,
			"byteOffset":19824,
			"target":34962
		},
		{
			"buffer":0,
			"byteLength":13216,
			"byteOffset":39648,
			"target":34962
		},
		{
			"buffer":0,
			"byteLength":19464,
			"byteOffset":52864,
			"target":34963
		}
	],
	"samplers":[
		{
			"magFilter":9728,
			"minFilter":9984
		}
	],
	"buffers":[
		{
			"byteLength":72328,
			"uri":"SM_TI_Ground_2.bin"
		}
	]
}
