{
	"asset":{
		"generator":"Khronos glTF Blender I/O v5.0.21",
		"version":"2.0"
	},
	"extensionsUsed":[
		"KHR_materials_specular",
		"KHR_materials_ior"
	],
	"scene":0,
	"scenes":[
		{
			"name":"Scene",
			"nodes":[
				0
			]
		}
	],
	"nodes":[
		{
			"mesh":0,
			"name":"SM_TI_Rock_2",
			"translation":[
				-106.25867462158203,
				10.265869140625,
				-390.5892639160156
			]
		}
	],
	"materials":[
		{
			"doubleSided":true,
			"extensions":{
				"KHR_materials_specular":{
					"specularColorFactor":[
						0.4000000059604645,
						0.4000000059604645,
						0.4000000059604645
					]
				},
				"KHR_materials_ior":{
					"ior":1
				}
			},
			"name":"M_TI_Rock_2",
			"pbrMetallicRoughness":{
				"baseColorTexture":{
					"index":0
				},
				"metallicFactor":0,
				"roughnessFactor":0
			}
		}
	],
	"meshes":[
		{
			"name":"SM_TI_Rock_2",
			"primitives":[
				{
					"attributes":{
						"POSITION":0,
						"NORMAL":1,
						"TEXCOORD_0":2
					},
					"indices":3,
					"material":0
				}
			]
		}
	],
	"textures":[
		{
			"sampler":0,
			"source":0
		}
	],
	"images":[
		{
			"mimeType":"image/png",
			"name":"T_TI_Rock_2.png",
			"uri":"T_TI_Rock_2.png.png"
		}
	],
	"accessors":[
		{
			"bufferView":0,
			"componentType":5126,
			"count":259,
			"max":[
				3.836472511291504,
				3.1813747882843018,
				3.775360584259033
			],
			"min":[
				-3.8499772548675537,
				-3.1653640270233154,
				-3.7749176025390625
			],
			"type":"VEC3"
		},
		{
			"bufferView":1,
			"componentType":5126,
			"count":259,
			"type":"VEC3"
		},
		{
			"bufferView":2,
			"componentType":5126,
			"count":259,
			"type":"VEC2"
		},
		{
			"bufferView":3,
			"componentType":5123,
			"count":1290,
			"type":"SCALAR"
		}
	],
	"bufferViews":[
		{
			"buffer":0,
			"byteLength":3108,
			"byteOffset":0,
			"target":34962
		},
		{
			"buffer":0,
			"byteLength":3108,
			"byteOffset":3108,
			"target":34962
		},
		{
			"buffer":0,
			"byteLength":2072,
			"byteOffset":6216,
			"target":34962
		},
		{
			"buffer":0,
			"byteLength":2580,
			"byteOffset":8288,
			"target":34963
		}
	],
	"samplers":[
		{
			"magFilter":9728,
			"minFilter":9984
		}
	],
	"buffers":[
		{
			"byteLength":10868,
			"uri":"SM_TI_Rock_2.bin"
		}
	]
}
