{
	"asset":{
		"generator":"Khronos glTF Blender I/O v5.0.21",
		"version":"2.0"
	},
	"scene":0,
	"scenes":[
		{
			"name":"Scene",
			"nodes":[
				0
			]
		}
	],
	"nodes":[
		{
			"mesh":0,
			"name":"SM_TI_Palm_SpikyTrunk_0",
			"translation":[
				25.28580093383789,
				2.1730101108551025,
				-463.3861389160156
			]
		}
	],
	"materials":[
		{
			"doubleSided":true,
			"name":"M_TI_Palm_0",
			"pbrMetallicRoughness":{
				"baseColorTexture":{
					"index":0
				},
				"metallicFactor":0
			}
		},
		{
			"alphaMode":"BLEND",
			"doubleSided":true,
			"name":"M_TI_PalmLeaves_0",
			"pbrMetallicRoughness":{
				"baseColorTexture":{
					"index":1
				},
				"metallicFactor":0
			}
		}
	],
	"meshes":[
		{
			"name":"SM_TI_Palm_SpikyTrunk_0",
			"primitives":[
				{
					"attributes":{
						"POSITION":0,
						"NORMAL":1,
						"TEXCOORD_0":2,
						"COLOR_0":3,
						"COLOR_1":4
					},
					"indices":5,
					"material":0
				},
				{
					"attributes":{
						"POSITION":6,
						"NORMAL":7,
						"TEXCOORD_0":8,
						"COLOR_0":9,
						"COLOR_1":10
					},
					"indices":11,
					"material":1
				}
			]
		}
	],
	"textures":[
		{
			"sampler":0,
			"source":0
		},
		{
			"sampler":0,
			"source":1
		}
	],
	"images":[
		{
			"mimeType":"image/png",
			"name":"T_TI_Palm_0.png",
			"uri":"T_TI_Palm_0.png.png"
		},
		{
			"mimeType":"image/png",
			"name":"T_TI_PalmLeaves_0.png",
			"uri":"T_TI_PalmLeaves_0.png.png"
		}
	],
	"accessors":[
		{
			"bufferView":0,
			"componentType":5126,
			"count":477,
			"max":[
				0.6153371334075928,
				1.535704493522644,
				0.5902941823005676
			],
			"min":[
				-0.5885332226753235,
				-0.00031242670956999063,
				-0.5991032123565674
			],
			"type":"VEC3"
		},
		{
			"bufferView":1,
			"componentType":5126,
			"count":477,
			"type":"VEC3"
		},
		{
			"bufferView":2,
			"componentType":5126,
			"count":477,
			"type":"VEC2"
		},
		{
			"bufferView":3,
			"componentType":5121,
			"count":477,
			"normalized":true,
			"type":"VEC4"
		},
		{
			"bufferView":4,
			"componentType":5123,
			"count":477,
			"normalized":true,
			"type":"VEC4"
		},
		{
			"bufferView":5,
			"componentType":5123,
			"count":1368,
			"type":"SCALAR"
		},
		{
			"bufferView":6,
			"componentType":5126,
			"count":1525,
			"max":[
				4.015872001647949,
				4.923666477203369,
				4.059340000152588
			],
			"min":[
				-3.768796920776367,
				0.1770523637533188,
				-4.294034004211426
			],
			"type":"VEC3"
		},
		{
			"bufferView":7,
			"componentType":5126,
			"count":1525,
			"type":"VEC3"
		},
		{
			"bufferView":8,
			"componentType":5126,
			"count":1525,
			"type":"VEC2"
		},
		{
			"bufferView":9,
			"componentType":5121,
			"count":1525,
			"normalized":true,
			"type":"VEC4"
		},
		{
			"bufferView":10,
			"componentType":5123,
			"count":1525,
			"normalized":true,
			"type":"VEC4"
		},
		{
			"bufferView":11,
			"componentType":5123,
			"count":6180,
			"type":"SCALAR"
		}
	],
	"bufferViews":[
		{
			"buffer":0,
			"byteLength":5724,
			"byteOffset":0,
			"target":34962
		},
		{
			"buffer":0,
			"byteLength":5724,
			"byteOffset":5724,
			"target":34962
		},
		{
			"buffer":0,
			"byteLength":3816,
			"byteOffset":11448,
			"target":34962
		},
		{
			"buffer":0,
			"byteLength":1908,
			"byteOffset":15264,
			"target":34962
		},
		{
			"buffer":0,
			"byteLength":3816,
			"byteOffset":17172,
			"target":34962
		},
		{
			"buffer":0,
			"byteLength":2736,
			"byteOffset":20988,
			"target":34963
		},
		{
			"buffer":0,
			"byteLength":18300,
			"byteOffset":23724,
			"target":34962
		},
		{
			"buffer":0,
			"byteLength":18300,
			"byteOffset":42024,
			"target":34962
		},
		{
			"buffer":0,
			"byteLength":12200,
			"byteOffset":60324,
			"target":34962
		},
		{
			"buffer":0,
			"byteLength":6100,
			"byteOffset":72524,
			"target":34962
		},
		{
			"buffer":0,
			"byteLength":12200,
			"byteOffset":78624,
			"target":34962
		},
		{
			"buffer":0,
			"byteLength":12360,
			"byteOffset":90824,
			"target":34963
		}
	],
	"samplers":[
		{
			"magFilter":9728,
			"minFilter":9984
		}
	],
	"buffers":[
		{
			"byteLength":103184,
			"uri":"SM_TI_Palm_SpikyTrunk_0.bin"
		}
	]
}
