{
	"asset":{
		"generator":"Khronos glTF Blender I/O v5.0.21",
		"version":"2.0"
	},
	"extensionsUsed":[
		"KHR_materials_specular",
		"KHR_materials_ior"
	],
	"scene":0,
	"scenes":[
		{
			"name":"Scene",
			"nodes":[
				0
			]
		}
	],
	"nodes":[
		{
			"mesh":0,
			"name":"SM_TI_Rock_0",
			"translation":[
				-27.4029598236084,
				4.552522659301758,
				-390.12603759765625
			]
		}
	],
	"materials":[
		{
			"doubleSided":true,
			"extensions":{
				"KHR_materials_specular":{
					"specularColorFactor":[
						0.4000000059604645,
						0.4000000059604645,
						0.4000000059604645
					]
				},
				"KHR_materials_ior":{
					"ior":1
				}
			},
			"name":"M_TI_Rock_0",
			"pbrMetallicRoughness":{
				"baseColorTexture":{
					"index":0
				},
				"metallicFactor":0,
				"roughnessFactor":0
			}
		}
	],
	"meshes":[
		{
			"name":"SM_TI_Rock_0",
			"primitives":[
				{
					"attributes":{
						"POSITION":0,
						"NORMAL":1,
						"TEXCOORD_0":2
					},
					"indices":3,
					"material":0
				}
			]
		}
	],
	"textures":[
		{
			"sampler":0,
			"source":0
		}
	],
	"images":[
		{
			"mimeType":"image/png",
			"name":"T_TI_Rock_0.png",
			"uri":"T_TI_Rock_0.png.png"
		}
	],
	"accessors":[
		{
			"bufferView":0,
			"componentType":5126,
			"count":1058,
			"max":[
				4.277303695678711,
				4.218850135803223,
				4.109576225280762
			],
			"min":[
				-4.170403480529785,
				-4.218849182128906,
				-3.947355270385742
			],
			"type":"VEC3"
		},
		{
			"bufferView":1,
			"componentType":5126,
			"count":1058,
			"type":"VEC3"
		},
		{
			"bufferView":2,
			"componentType":5126,
			"count":1058,
			"type":"VEC2"
		},
		{
			"bufferView":3,
			"componentType":5123,
			"count":5928,
			"type":"SCALAR"
		}
	],
	"bufferViews":[
		{
			"buffer":0,
			"byteLength":12696,
			"byteOffset":0,
			"target":34962
		},
		{
			"buffer":0,
			"byteLength":12696,
			"byteOffset":12696,
			"target":34962
		},
		{
			"buffer":0,
			"byteLength":8464,
			"byteOffset":25392,
			"target":34962
		},
		{
			"buffer":0,
			"byteLength":11856,
			"byteOffset":33856,
			"target":34963
		}
	],
	"samplers":[
		{
			"magFilter":9728,
			"minFilter":9984
		}
	],
	"buffers":[
		{
			"byteLength":45712,
			"uri":"SM_TI_Rock_0.bin"
		}
	]
}
