{
	"asset":{
		"generator":"Khronos glTF Blender I/O v5.0.21",
		"version":"2.0"
	},
	"extensionsUsed":[
		"KHR_materials_unlit"
	],
	"scene":0,
	"scenes":[
		{
			"name":"Scene",
			"nodes":[
				0
			]
		}
	],
	"nodes":[
		{
			"mesh":0,
			"name":"SM_TI_Island_0",
			"translation":[
				-51.578369140625,
				0,
				25.69036865234375
			]
		}
	],
	"materials":[
		{
			"doubleSided":true,
			"extensions":{
				"KHR_materials_unlit":{}
			},
			"name":"M_TI_Terrain_0",
			"pbrMetallicRoughness":{
				"baseColorTexture":{
					"index":0
				},
				"metallicFactor":0,
				"roughnessFactor":0.9
			}
		},
		{
			"doubleSided":true,
			"extensions":{
				"KHR_materials_unlit":{}
			},
			"name":"M_TI_Terrain_Grass_0",
			"pbrMetallicRoughness":{
				"baseColorTexture":{
					"index":1
				},
				"metallicFactor":0,
				"roughnessFactor":0.9
			}
		}
	],
	"meshes":[
		{
			"name":"SM_TI_Island_0",
			"primitives":[
				{
					"attributes":{
						"POSITION":0,
						"NORMAL":1,
						"TEXCOORD_0":2
					},
					"indices":3,
					"material":0
				},
				{
					"attributes":{
						"POSITION":4,
						"NORMAL":5,
						"TEXCOORD_0":6
					},
					"indices":7,
					"material":1
				}
			]
		}
	],
	"textures":[
		{
			"sampler":0,
			"source":0
		},
		{
			"sampler":0,
			"source":1
		}
	],
	"images":[
		{
			"mimeType":"image/png",
			"name":"T_TI_Terrain_0",
			"uri":"T_TI_Terrain_0.png"
		},
		{
			"mimeType":"image/png",
			"name":"T_TI_Terrain_Grass_0",
			"uri":"T_TI_Terrain_Grass_0.png"
		}
	],
	"accessors":[
		{
			"bufferView":0,
			"componentType":5126,
			"count":32940,
			"max":[
				264.1733703613281,
				16.421802520751953,
				264.1564025878906
			],
			"min":[
				-264.1564025878906,
				-16.421781539916992,
				-264.17340087890625
			],
			"type":"VEC3"
		},
		{
			"bufferView":1,
			"componentType":5126,
			"count":32940,
			"type":"VEC3"
		},
		{
			"bufferView":2,
			"componentType":5126,
			"count":32940,
			"type":"VEC2"
		},
		{
			"bufferView":3,
			"componentType":5123,
			"count":126720,
			"type":"SCALAR"
		},
		{
			"bufferView":4,
			"componentType":5126,
			"count":12792,
			"max":[
				149.61297607421875,
				16.421802520751953,
				149.5388641357422
			],
			"min":[
				-149.53884887695312,
				16.421794891357422,
				-149.5624542236328
			],
			"type":"VEC3"
		},
		{
			"bufferView":5,
			"componentType":5126,
			"count":12792,
			"type":"VEC3"
		},
		{
			"bufferView":6,
			"componentType":5126,
			"count":12792,
			"type":"VEC2"
		},
		{
			"bufferView":7,
			"componentType":5123,
			"count":75306,
			"type":"SCALAR"
		}
	],
	"bufferViews":[
		{
			"buffer":0,
			"byteLength":395280,
			"byteOffset":0,
			"target":34962
		},
		{
			"buffer":0,
			"byteLength":395280,
			"byteOffset":395280,
			"target":34962
		},
		{
			"buffer":0,
			"byteLength":263520,
			"byteOffset":790560,
			"target":34962
		},
		{
			"buffer":0,
			"byteLength":253440,
			"byteOffset":1054080,
			"target":34963
		},
		{
			"buffer":0,
			"byteLength":153504,
			"byteOffset":1307520,
			"target":34962
		},
		{
			"buffer":0,
			"byteLength":153504,
			"byteOffset":1461024,
			"target":34962
		},
		{
			"buffer":0,
			"byteLength":102336,
			"byteOffset":1614528,
			"target":34962
		},
		{
			"buffer":0,
			"byteLength":150612,
			"byteOffset":1716864,
			"target":34963
		}
	],
	"samplers":[
		{
			"magFilter":9728,
			"minFilter":9984
		}
	],
	"buffers":[
		{
			"byteLength":1867476,
			"uri":"SM_TI_Island_0.bin"
		}
	]
}
