{
	"asset":{
		"generator":"Khronos glTF Blender I/O v5.0.21",
		"version":"2.0"
	},
	"scene":0,
	"scenes":[
		{
			"name":"Scene",
			"nodes":[
				0
			]
		}
	],
	"nodes":[
		{
			"mesh":0,
			"name":"SM_TI_Palm_ChunkyLeaves_1",
			"translation":[
				21.393112182617188,
				1.9038528203964233,
				-474.6561584472656
			]
		}
	],
	"materials":[
		{
			"doubleSided":true,
			"name":"M_TI_Palm_0",
			"pbrMetallicRoughness":{
				"baseColorTexture":{
					"index":0
				},
				"metallicFactor":0
			}
		},
		{
			"alphaMode":"BLEND",
			"doubleSided":true,
			"name":"M_TI_PalmLeaves_0",
			"pbrMetallicRoughness":{
				"baseColorTexture":{
					"index":1
				},
				"metallicFactor":0
			}
		}
	],
	"meshes":[
		{
			"name":"SM_TI_Palm_ChunkyLeaves_1",
			"primitives":[
				{
					"attributes":{
						"POSITION":0,
						"NORMAL":1,
						"TEXCOORD_0":2,
						"COLOR_0":3,
						"COLOR_1":4
					},
					"indices":5,
					"material":0
				},
				{
					"attributes":{
						"POSITION":6,
						"NORMAL":7,
						"TEXCOORD_0":8,
						"COLOR_0":9,
						"COLOR_1":10
					},
					"indices":11,
					"material":1
				}
			]
		}
	],
	"textures":[
		{
			"sampler":0,
			"source":0
		},
		{
			"sampler":0,
			"source":1
		}
	],
	"images":[
		{
			"mimeType":"image/png",
			"name":"T_TI_Palm_0.png",
			"uri":"T_TI_Palm_0.png.png"
		},
		{
			"mimeType":"image/png",
			"name":"T_TI_PalmLeaves_0.png",
			"uri":"T_TI_PalmLeaves_0.png.png"
		}
	],
	"accessors":[
		{
			"bufferView":0,
			"componentType":5126,
			"count":66,
			"max":[
				0.4920772910118103,
				3.301129102706909,
				0.512880802154541
			],
			"min":[
				-0.5053507089614868,
				-0.04271424934267998,
				-0.4649520516395569
			],
			"type":"VEC3"
		},
		{
			"bufferView":1,
			"componentType":5126,
			"count":66,
			"type":"VEC3"
		},
		{
			"bufferView":2,
			"componentType":5126,
			"count":66,
			"type":"VEC2"
		},
		{
			"bufferView":3,
			"componentType":5121,
			"count":66,
			"normalized":true,
			"type":"VEC4"
		},
		{
			"bufferView":4,
			"componentType":5123,
			"count":66,
			"normalized":true,
			"type":"VEC4"
		},
		{
			"bufferView":5,
			"componentType":5123,
			"count":252,
			"type":"SCALAR"
		},
		{
			"bufferView":6,
			"componentType":5126,
			"count":2560,
			"max":[
				6.309953689575195,
				9.132904052734375,
				6.164183139801025
			],
			"min":[
				-7.192080497741699,
				1.2653802633285522,
				-6.561994552612305
			],
			"type":"VEC3"
		},
		{
			"bufferView":7,
			"componentType":5126,
			"count":2560,
			"type":"VEC3"
		},
		{
			"bufferView":8,
			"componentType":5126,
			"count":2560,
			"type":"VEC2"
		},
		{
			"bufferView":9,
			"componentType":5121,
			"count":2560,
			"normalized":true,
			"type":"VEC4"
		},
		{
			"bufferView":10,
			"componentType":5123,
			"count":2560,
			"normalized":true,
			"type":"VEC4"
		},
		{
			"bufferView":11,
			"componentType":5123,
			"count":9600,
			"type":"SCALAR"
		}
	],
	"bufferViews":[
		{
			"buffer":0,
			"byteLength":792,
			"byteOffset":0,
			"target":34962
		},
		{
			"buffer":0,
			"byteLength":792,
			"byteOffset":792,
			"target":34962
		},
		{
			"buffer":0,
			"byteLength":528,
			"byteOffset":1584,
			"target":34962
		},
		{
			"buffer":0,
			"byteLength":264,
			"byteOffset":2112,
			"target":34962
		},
		{
			"buffer":0,
			"byteLength":528,
			"byteOffset":2376,
			"target":34962
		},
		{
			"buffer":0,
			"byteLength":504,
			"byteOffset":2904,
			"target":34963
		},
		{
			"buffer":0,
			"byteLength":30720,
			"byteOffset":3408,
			"target":34962
		},
		{
			"buffer":0,
			"byteLength":30720,
			"byteOffset":34128,
			"target":34962
		},
		{
			"buffer":0,
			"byteLength":20480,
			"byteOffset":64848,
			"target":34962
		},
		{
			"buffer":0,
			"byteLength":10240,
			"byteOffset":85328,
			"target":34962
		},
		{
			"buffer":0,
			"byteLength":20480,
			"byteOffset":95568,
			"target":34962
		},
		{
			"buffer":0,
			"byteLength":19200,
			"byteOffset":116048,
			"target":34963
		}
	],
	"samplers":[
		{
			"magFilter":9728,
			"minFilter":9984
		}
	],
	"buffers":[
		{
			"byteLength":135248,
			"uri":"SM_TI_Palm_ChunkyLeaves_1.bin"
		}
	]
}
