{
	"asset":{
		"generator":"Khronos glTF Blender I/O v5.0.21",
		"version":"2.0"
	},
	"scene":0,
	"scenes":[
		{
			"name":"Scene",
			"nodes":[
				0
			]
		}
	],
	"nodes":[
		{
			"mesh":0,
			"name":"SM_TI_Sea_0",
			"scale":[
				300,
				86.57561492919922,
				300
			],
			"translation":[
				-51.578369140625,
				-15.736499786376953,
				25.69036865234375
			]
		}
	],
	"materials":[
		{
			"doubleSided":true,
			"name":"M_TI_Sea_0",
			"pbrMetallicRoughness":{
				"baseColorFactor":[
					0.18922871351242065,
					0.5942153930664062,
					1,
					1
				],
				"metallicFactor":0
			}
		}
	],
	"meshes":[
		{
			"name":"SM_TI_Sea_0",
			"primitives":[
				{
					"attributes":{
						"POSITION":0,
						"NORMAL":1,
						"TEXCOORD_0":2
					},
					"indices":3,
					"material":0
				}
			]
		}
	],
	"accessors":[
		{
			"bufferView":0,
			"componentType":5126,
			"count":5041,
			"max":[
				1,
				0,
				1
			],
			"min":[
				-1,
				0,
				-1
			],
			"type":"VEC3"
		},
		{
			"bufferView":1,
			"componentType":5126,
			"count":5041,
			"type":"VEC3"
		},
		{
			"bufferView":2,
			"componentType":5126,
			"count":5041,
			"type":"VEC2"
		},
		{
			"bufferView":3,
			"componentType":5123,
			"count":29400,
			"type":"SCALAR"
		}
	],
	"bufferViews":[
		{
			"buffer":0,
			"byteLength":60492,
			"byteOffset":0,
			"target":34962
		},
		{
			"buffer":0,
			"byteLength":60492,
			"byteOffset":60492,
			"target":34962
		},
		{
			"buffer":0,
			"byteLength":40328,
			"byteOffset":120984,
			"target":34962
		},
		{
			"buffer":0,
			"byteLength":58800,
			"byteOffset":161312,
			"target":34963
		}
	],
	"buffers":[
		{
			"byteLength":220112,
			"uri":"SM_TI_Sea_0.bin"
		}
	]
}
