{
	"asset":{
		"generator":"Khronos glTF Blender I/O v5.0.21",
		"version":"2.0"
	},
	"extensionsUsed":[
		"KHR_materials_specular",
		"KHR_materials_ior"
	],
	"scene":0,
	"scenes":[
		{
			"name":"Scene",
			"nodes":[
				0
			]
		}
	],
	"nodes":[
		{
			"mesh":0,
			"name":"SM_TI_Hill_1",
			"translation":[
				-86.7648696899414,
				17.799306869506836,
				-481.81024169921875
			]
		}
	],
	"materials":[
		{
			"doubleSided":true,
			"extensions":{
				"KHR_materials_specular":{
					"specularColorFactor":[
						0.4000000059604645,
						0.4000000059604645,
						0.4000000059604645
					]
				},
				"KHR_materials_ior":{
					"ior":1
				}
			},
			"name":"M_TI_Hill_1",
			"pbrMetallicRoughness":{
				"baseColorTexture":{
					"index":0
				},
				"metallicFactor":0
			}
		}
	],
	"meshes":[
		{
			"name":"SM_TI_Hill_1",
			"primitives":[
				{
					"attributes":{
						"POSITION":0,
						"NORMAL":1,
						"TEXCOORD_0":2
					},
					"indices":3,
					"material":0
				}
			]
		}
	],
	"textures":[
		{
			"sampler":0,
			"source":0
		}
	],
	"images":[
		{
			"mimeType":"image/png",
			"name":"T_TI_Hill_1.png",
			"uri":"T_TI_Hill_1.png.png"
		}
	],
	"accessors":[
		{
			"bufferView":0,
			"componentType":5126,
			"count":701,
			"max":[
				21.311323165893555,
				20.186626434326172,
				18.928211212158203
			],
			"min":[
				-17.956411361694336,
				-11.144829750061035,
				-20.632646560668945
			],
			"type":"VEC3"
		},
		{
			"bufferView":1,
			"componentType":5126,
			"count":701,
			"type":"VEC3"
		},
		{
			"bufferView":2,
			"componentType":5126,
			"count":701,
			"type":"VEC2"
		},
		{
			"bufferView":3,
			"componentType":5123,
			"count":3876,
			"type":"SCALAR"
		}
	],
	"bufferViews":[
		{
			"buffer":0,
			"byteLength":8412,
			"byteOffset":0,
			"target":34962
		},
		{
			"buffer":0,
			"byteLength":8412,
			"byteOffset":8412,
			"target":34962
		},
		{
			"buffer":0,
			"byteLength":5608,
			"byteOffset":16824,
			"target":34962
		},
		{
			"buffer":0,
			"byteLength":7752,
			"byteOffset":22432,
			"target":34963
		}
	],
	"samplers":[
		{
			"magFilter":9728,
			"minFilter":9984
		}
	],
	"buffers":[
		{
			"byteLength":30184,
			"uri":"SM_TI_Hill_1.bin"
		}
	]
}
