{
	"asset":{
		"generator":"Khronos glTF Blender I/O v5.0.21",
		"version":"2.0"
	},
	"extensionsUsed":[
		"KHR_materials_specular",
		"KHR_materials_ior"
	],
	"scene":0,
	"scenes":[
		{
			"name":"Scene",
			"nodes":[
				0
			]
		}
	],
	"nodes":[
		{
			"mesh":0,
			"name":"SM_TI_Rock_7",
			"translation":[
				-69.29114532470703,
				21.951107025146484,
				-429.0992431640625
			]
		}
	],
	"materials":[
		{
			"doubleSided":true,
			"extensions":{
				"KHR_materials_specular":{
					"specularColorFactor":[
						0.4000000059604645,
						0.4000000059604645,
						0.4000000059604645
					]
				},
				"KHR_materials_ior":{
					"ior":1
				}
			},
			"name":"M_TI_Rock_7",
			"pbrMetallicRoughness":{
				"baseColorTexture":{
					"index":0
				},
				"metallicFactor":0,
				"roughnessFactor":0
			}
		}
	],
	"meshes":[
		{
			"name":"SM_TI_Rock_7",
			"primitives":[
				{
					"attributes":{
						"POSITION":0,
						"NORMAL":1,
						"TEXCOORD_0":2
					},
					"indices":3,
					"material":0
				}
			]
		}
	],
	"textures":[
		{
			"sampler":0,
			"source":0
		}
	],
	"images":[
		{
			"mimeType":"image/png",
			"name":"T_TI_Rock_7",
			"uri":"T_TI_Rock_7.png"
		}
	],
	"accessors":[
		{
			"bufferView":0,
			"componentType":5126,
			"count":1404,
			"max":[
				10.583251953125,
				15.476800918579102,
				16.63433837890625
			],
			"min":[
				-10.5831298828125,
				-15.476800918579102,
				-16.63433837890625
			],
			"type":"VEC3"
		},
		{
			"bufferView":1,
			"componentType":5126,
			"count":1404,
			"type":"VEC3"
		},
		{
			"bufferView":2,
			"componentType":5126,
			"count":1404,
			"type":"VEC2"
		},
		{
			"bufferView":3,
			"componentType":5123,
			"count":7956,
			"type":"SCALAR"
		}
	],
	"bufferViews":[
		{
			"buffer":0,
			"byteLength":16848,
			"byteOffset":0,
			"target":34962
		},
		{
			"buffer":0,
			"byteLength":16848,
			"byteOffset":16848,
			"target":34962
		},
		{
			"buffer":0,
			"byteLength":11232,
			"byteOffset":33696,
			"target":34962
		},
		{
			"buffer":0,
			"byteLength":15912,
			"byteOffset":44928,
			"target":34963
		}
	],
	"samplers":[
		{
			"magFilter":9728,
			"minFilter":9984
		}
	],
	"buffers":[
		{
			"byteLength":60840,
			"uri":"SM_TI_Rock_7.bin"
		}
	]
}
