{
	"asset":{
		"generator":"Khronos glTF Blender I/O v5.0.21",
		"version":"2.0"
	},
	"extensionsUsed":[
		"KHR_materials_specular",
		"KHR_materials_ior"
	],
	"scene":0,
	"scenes":[
		{
			"name":"Scene",
			"nodes":[
				0
			]
		}
	],
	"nodes":[
		{
			"mesh":0,
			"name":"SM_TI_RockEntrance_1",
			"translation":[
				106.02580261230469,
				15.627487182617188,
				-395.940673828125
			]
		}
	],
	"materials":[
		{
			"doubleSided":true,
			"extensions":{
				"KHR_materials_specular":{
					"specularColorFactor":[
						0.4000000059604645,
						0.4000000059604645,
						0.4000000059604645
					]
				},
				"KHR_materials_ior":{
					"ior":1
				}
			},
			"name":"M_TI_RockEntrance_0",
			"pbrMetallicRoughness":{
				"baseColorTexture":{
					"index":0
				},
				"metallicFactor":0
			}
		}
	],
	"meshes":[
		{
			"name":"SM_TI_RockEntrance_1",
			"primitives":[
				{
					"attributes":{
						"POSITION":0,
						"NORMAL":1,
						"TEXCOORD_0":2
					},
					"indices":3,
					"material":0
				}
			]
		}
	],
	"textures":[
		{
			"sampler":0,
			"source":0
		}
	],
	"images":[
		{
			"mimeType":"image/png",
			"name":"T_TI_RockEntrance_0",
			"uri":"T_TI_RockEntrance_0.png"
		}
	],
	"accessors":[
		{
			"bufferView":0,
			"componentType":5126,
			"count":3465,
			"max":[
				10.827628135681152,
				13.471590042114258,
				5.039102077484131
			],
			"min":[
				-11.284185409545898,
				-13.471590042114258,
				-5.224606037139893
			],
			"type":"VEC3"
		},
		{
			"bufferView":1,
			"componentType":5126,
			"count":3465,
			"type":"VEC3"
		},
		{
			"bufferView":2,
			"componentType":5126,
			"count":3465,
			"type":"VEC2"
		},
		{
			"bufferView":3,
			"componentType":5123,
			"count":18816,
			"type":"SCALAR"
		}
	],
	"bufferViews":[
		{
			"buffer":0,
			"byteLength":41580,
			"byteOffset":0,
			"target":34962
		},
		{
			"buffer":0,
			"byteLength":41580,
			"byteOffset":41580,
			"target":34962
		},
		{
			"buffer":0,
			"byteLength":27720,
			"byteOffset":83160,
			"target":34962
		},
		{
			"buffer":0,
			"byteLength":37632,
			"byteOffset":110880,
			"target":34963
		}
	],
	"samplers":[
		{
			"magFilter":9728,
			"minFilter":9984
		}
	],
	"buffers":[
		{
			"byteLength":148512,
			"uri":"SM_TI_RockEntrance_1.bin"
		}
	]
}
