{
	"asset":{
		"generator":"Khronos glTF Blender I/O v5.0.21",
		"version":"2.0"
	},
	"scene":0,
	"scenes":[
		{
			"name":"Scene",
			"nodes":[
				0
			]
		}
	],
	"nodes":[
		{
			"mesh":0,
			"name":"SM_TI_Palm_Tree_ChunkyLeaves_0",
			"translation":[
				18.763425827026367,
				2.4808218479156494,
				-463.4132385253906
			]
		}
	],
	"materials":[
		{
			"doubleSided":true,
			"name":"M_TI_Palm_0",
			"pbrMetallicRoughness":{
				"baseColorTexture":{
					"index":0
				},
				"metallicFactor":0
			}
		},
		{
			"alphaMode":"BLEND",
			"doubleSided":true,
			"name":"M_TI_PalmLeaves_0",
			"pbrMetallicRoughness":{
				"baseColorTexture":{
					"index":1
				},
				"metallicFactor":0
			}
		}
	],
	"meshes":[
		{
			"name":"SM_TI_Palm_Tree_ChunkyLeaves_0",
			"primitives":[
				{
					"attributes":{
						"POSITION":0,
						"NORMAL":1,
						"TEXCOORD_0":2,
						"COLOR_0":3,
						"COLOR_1":4
					},
					"indices":5,
					"material":0
				},
				{
					"attributes":{
						"POSITION":6,
						"NORMAL":7,
						"TEXCOORD_0":8,
						"COLOR_0":9,
						"COLOR_1":10
					},
					"indices":11,
					"material":1
				}
			]
		}
	],
	"textures":[
		{
			"sampler":0,
			"source":0
		},
		{
			"sampler":0,
			"source":1
		}
	],
	"images":[
		{
			"mimeType":"image/png",
			"name":"T_TI_Palm_0.png",
			"uri":"T_TI_Palm_0.png.png"
		},
		{
			"mimeType":"image/png",
			"name":"T_TI_PalmLeaves_0.png",
			"uri":"T_TI_PalmLeaves_0.png.png"
		}
	],
	"accessors":[
		{
			"bufferView":0,
			"componentType":5126,
			"count":66,
			"max":[
				0.34068694710731506,
				7.892995834350586,
				0.3537692427635193
			],
			"min":[
				-0.3414938449859619,
				-0.0003010386717505753,
				-0.3207094967365265
			],
			"type":"VEC3"
		},
		{
			"bufferView":1,
			"componentType":5126,
			"count":66,
			"type":"VEC3"
		},
		{
			"bufferView":2,
			"componentType":5126,
			"count":66,
			"type":"VEC2"
		},
		{
			"bufferView":3,
			"componentType":5121,
			"count":66,
			"normalized":true,
			"type":"VEC4"
		},
		{
			"bufferView":4,
			"componentType":5123,
			"count":66,
			"normalized":true,
			"type":"VEC4"
		},
		{
			"bufferView":5,
			"componentType":5123,
			"count":252,
			"type":"SCALAR"
		},
		{
			"bufferView":6,
			"componentType":5126,
			"count":2688,
			"max":[
				3.4123964309692383,
				9.30333137512207,
				3.6453585624694824
			],
			"min":[
				-3.291116714477539,
				3.5262186527252197,
				-3.414477586746216
			],
			"type":"VEC3"
		},
		{
			"bufferView":7,
			"componentType":5126,
			"count":2688,
			"type":"VEC3"
		},
		{
			"bufferView":8,
			"componentType":5126,
			"count":2688,
			"type":"VEC2"
		},
		{
			"bufferView":9,
			"componentType":5121,
			"count":2688,
			"normalized":true,
			"type":"VEC4"
		},
		{
			"bufferView":10,
			"componentType":5123,
			"count":2688,
			"normalized":true,
			"type":"VEC4"
		},
		{
			"bufferView":11,
			"componentType":5123,
			"count":10944,
			"type":"SCALAR"
		}
	],
	"bufferViews":[
		{
			"buffer":0,
			"byteLength":792,
			"byteOffset":0,
			"target":34962
		},
		{
			"buffer":0,
			"byteLength":792,
			"byteOffset":792,
			"target":34962
		},
		{
			"buffer":0,
			"byteLength":528,
			"byteOffset":1584,
			"target":34962
		},
		{
			"buffer":0,
			"byteLength":264,
			"byteOffset":2112,
			"target":34962
		},
		{
			"buffer":0,
			"byteLength":528,
			"byteOffset":2376,
			"target":34962
		},
		{
			"buffer":0,
			"byteLength":504,
			"byteOffset":2904,
			"target":34963
		},
		{
			"buffer":0,
			"byteLength":32256,
			"byteOffset":3408,
			"target":34962
		},
		{
			"buffer":0,
			"byteLength":32256,
			"byteOffset":35664,
			"target":34962
		},
		{
			"buffer":0,
			"byteLength":21504,
			"byteOffset":67920,
			"target":34962
		},
		{
			"buffer":0,
			"byteLength":10752,
			"byteOffset":89424,
			"target":34962
		},
		{
			"buffer":0,
			"byteLength":21504,
			"byteOffset":100176,
			"target":34962
		},
		{
			"buffer":0,
			"byteLength":21888,
			"byteOffset":121680,
			"target":34963
		}
	],
	"samplers":[
		{
			"magFilter":9728,
			"minFilter":9984
		}
	],
	"buffers":[
		{
			"byteLength":143568,
			"uri":"SM_TI_Palm_Tree_ChunkyLeaves_0.bin"
		}
	]
}
