{
	"asset":{
		"generator":"Khronos glTF Blender I/O v5.0.21",
		"version":"2.0"
	},
	"extensionsUsed":[
		"KHR_materials_specular",
		"KHR_materials_ior"
	],
	"scene":0,
	"scenes":[
		{
			"name":"Scene",
			"nodes":[
				0
			]
		}
	],
	"nodes":[
		{
			"mesh":0,
			"name":"SM_TI_Column_12m_1",
			"translation":[
				79.97038269042969,
				10.968249320983887,
				-373.7215270996094
			]
		}
	],
	"materials":[
		{
			"doubleSided":true,
			"extensions":{
				"KHR_materials_specular":{
					"specularColorFactor":[
						0.4000000059604645,
						0.4000000059604645,
						0.4000000059604645
					]
				},
				"KHR_materials_ior":{
					"ior":1
				}
			},
			"name":"M_TI_Columns_1",
			"pbrMetallicRoughness":{
				"baseColorTexture":{
					"index":0
				},
				"metallicFactor":0
			}
		}
	],
	"meshes":[
		{
			"name":"SM_TI_Column_12m_1",
			"primitives":[
				{
					"attributes":{
						"POSITION":0,
						"NORMAL":1,
						"TEXCOORD_0":2
					},
					"indices":3,
					"material":0
				}
			]
		}
	],
	"textures":[
		{
			"sampler":0,
			"source":0
		}
	],
	"images":[
		{
			"mimeType":"image/png",
			"name":"T_TI_Columns_1.png",
			"uri":"T_TI_Columns_1.png.png"
		}
	],
	"accessors":[
		{
			"bufferView":0,
			"componentType":5126,
			"count":541,
			"max":[
				1.6919481754302979,
				4.99842643737793,
				2.0007314682006836
			],
			"min":[
				-1.907348871231079,
				-6.700399875640869,
				-2.0952816009521484
			],
			"type":"VEC3"
		},
		{
			"bufferView":1,
			"componentType":5126,
			"count":541,
			"type":"VEC3"
		},
		{
			"bufferView":2,
			"componentType":5126,
			"count":541,
			"type":"VEC2"
		},
		{
			"bufferView":3,
			"componentType":5123,
			"count":2940,
			"type":"SCALAR"
		}
	],
	"bufferViews":[
		{
			"buffer":0,
			"byteLength":6492,
			"byteOffset":0,
			"target":34962
		},
		{
			"buffer":0,
			"byteLength":6492,
			"byteOffset":6492,
			"target":34962
		},
		{
			"buffer":0,
			"byteLength":4328,
			"byteOffset":12984,
			"target":34962
		},
		{
			"buffer":0,
			"byteLength":5880,
			"byteOffset":17312,
			"target":34963
		}
	],
	"samplers":[
		{
			"magFilter":9728,
			"minFilter":9984
		}
	],
	"buffers":[
		{
			"byteLength":23192,
			"uri":"SM_TI_Column_12m_1.bin"
		}
	]
}
