{
	"asset":{
		"generator":"Khronos glTF Blender I/O v5.0.21",
		"version":"2.0"
	},
	"extensionsUsed":[
		"KHR_materials_unlit"
	],
	"scene":0,
	"scenes":[
		{
			"name":"Scene",
			"nodes":[
				0
			]
		}
	],
	"nodes":[
		{
			"mesh":0,
			"name":"SM_TI_Hill_0",
			"translation":[
				-33.710670471191406,
				24.182573318481445,
				-480.50274658203125
			]
		}
	],
	"materials":[
		{
			"doubleSided":true,
			"extensions":{
				"KHR_materials_unlit":{}
			},
			"name":"M_TI_Hill_0",
			"pbrMetallicRoughness":{
				"baseColorTexture":{
					"index":0
				},
				"metallicFactor":0,
				"roughnessFactor":0.9
			}
		}
	],
	"meshes":[
		{
			"name":"SM_TI_Hill_0",
			"primitives":[
				{
					"attributes":{
						"POSITION":0,
						"NORMAL":1,
						"TEXCOORD_0":2
					},
					"indices":3,
					"material":0
				}
			]
		}
	],
	"textures":[
		{
			"sampler":0,
			"source":0
		}
	],
	"images":[
		{
			"mimeType":"image/png",
			"name":"T_TI_Hill_0.png",
			"uri":"T_TI_Hill_0.png.png"
		}
	],
	"accessors":[
		{
			"bufferView":0,
			"componentType":5126,
			"count":1357,
			"max":[
				27.454849243164062,
				27.22180938720703,
				27.297237396240234
			],
			"min":[
				-27.34170150756836,
				-17.550386428833008,
				-30.907917022705078
			],
			"type":"VEC3"
		},
		{
			"bufferView":1,
			"componentType":5126,
			"count":1357,
			"type":"VEC3"
		},
		{
			"bufferView":2,
			"componentType":5126,
			"count":1357,
			"type":"VEC2"
		},
		{
			"bufferView":3,
			"componentType":5123,
			"count":7524,
			"type":"SCALAR"
		}
	],
	"bufferViews":[
		{
			"buffer":0,
			"byteLength":16284,
			"byteOffset":0,
			"target":34962
		},
		{
			"buffer":0,
			"byteLength":16284,
			"byteOffset":16284,
			"target":34962
		},
		{
			"buffer":0,
			"byteLength":10856,
			"byteOffset":32568,
			"target":34962
		},
		{
			"buffer":0,
			"byteLength":15048,
			"byteOffset":43424,
			"target":34963
		}
	],
	"samplers":[
		{
			"magFilter":9728,
			"minFilter":9984
		}
	],
	"buffers":[
		{
			"byteLength":58472,
			"uri":"SM_TI_Hill_0.bin"
		}
	]
}
