{
	"asset":{
		"generator":"Khronos glTF Blender I/O v5.0.21",
		"version":"2.0"
	},
	"extensionsUsed":[
		"KHR_materials_specular",
		"KHR_materials_ior"
	],
	"scene":0,
	"scenes":[
		{
			"name":"Scene",
			"nodes":[
				0
			]
		}
	],
	"nodes":[
		{
			"mesh":0,
			"name":"SM_TI_Rock_3",
			"translation":[
				-27.7762508392334,
				5.45137882232666,
				-408.9877624511719
			]
		}
	],
	"materials":[
		{
			"doubleSided":true,
			"extensions":{
				"KHR_materials_specular":{
					"specularColorFactor":[
						0.4000000059604645,
						0.4000000059604645,
						0.4000000059604645
					]
				},
				"KHR_materials_ior":{
					"ior":1
				}
			},
			"name":"M_TI_Rock_3",
			"pbrMetallicRoughness":{
				"baseColorTexture":{
					"index":0
				},
				"metallicFactor":0,
				"roughnessFactor":0
			}
		}
	],
	"meshes":[
		{
			"name":"SM_TI_Rock_3",
			"primitives":[
				{
					"attributes":{
						"POSITION":0,
						"NORMAL":1,
						"TEXCOORD_0":2
					},
					"indices":3,
					"material":0
				}
			]
		}
	],
	"textures":[
		{
			"sampler":0,
			"source":0
		}
	],
	"images":[
		{
			"mimeType":"image/png",
			"name":"T_TI_Rock_3.png",
			"uri":"T_TI_Rock_3.png.png"
		}
	],
	"accessors":[
		{
			"bufferView":0,
			"componentType":5126,
			"count":1170,
			"max":[
				8.745442390441895,
				8.437700271606445,
				8.768863677978516
			],
			"min":[
				-7.505228042602539,
				-8.437698364257812,
				-7.987526893615723
			],
			"type":"VEC3"
		},
		{
			"bufferView":1,
			"componentType":5126,
			"count":1170,
			"type":"VEC3"
		},
		{
			"bufferView":2,
			"componentType":5126,
			"count":1170,
			"type":"VEC2"
		},
		{
			"bufferView":3,
			"componentType":5123,
			"count":6576,
			"type":"SCALAR"
		}
	],
	"bufferViews":[
		{
			"buffer":0,
			"byteLength":14040,
			"byteOffset":0,
			"target":34962
		},
		{
			"buffer":0,
			"byteLength":14040,
			"byteOffset":14040,
			"target":34962
		},
		{
			"buffer":0,
			"byteLength":9360,
			"byteOffset":28080,
			"target":34962
		},
		{
			"buffer":0,
			"byteLength":13152,
			"byteOffset":37440,
			"target":34963
		}
	],
	"samplers":[
		{
			"magFilter":9728,
			"minFilter":9984
		}
	],
	"buffers":[
		{
			"byteLength":50592,
			"uri":"SM_TI_Rock_3.bin"
		}
	]
}
