{
	"asset":{
		"generator":"Khronos glTF Blender I/O v5.0.21",
		"version":"2.0"
	},
	"extensionsUsed":[
		"KHR_materials_specular",
		"KHR_materials_ior"
	],
	"scene":0,
	"scenes":[
		{
			"name":"Scene",
			"nodes":[
				0
			]
		}
	],
	"nodes":[
		{
			"mesh":0,
			"name":"SM_TI_Rock_5",
			"translation":[
				-104.37671661376953,
				13.235197067260742,
				-405.05194091796875
			]
		}
	],
	"materials":[
		{
			"doubleSided":true,
			"extensions":{
				"KHR_materials_specular":{
					"specularColorFactor":[
						0.4000000059604645,
						0.4000000059604645,
						0.4000000059604645
					]
				},
				"KHR_materials_ior":{
					"ior":1
				}
			},
			"name":"M_TI_Rock_5",
			"pbrMetallicRoughness":{
				"baseColorTexture":{
					"index":0
				},
				"metallicFactor":0,
				"roughnessFactor":0
			}
		}
	],
	"meshes":[
		{
			"name":"SM_TI_Rock_5",
			"primitives":[
				{
					"attributes":{
						"POSITION":0,
						"NORMAL":1,
						"TEXCOORD_0":2
					},
					"indices":3,
					"material":0
				}
			]
		}
	],
	"textures":[
		{
			"sampler":0,
			"source":0
		}
	],
	"images":[
		{
			"mimeType":"image/png",
			"name":"T_TI_Rock_5.png",
			"uri":"T_TI_Rock_5.png.png"
		}
	],
	"accessors":[
		{
			"bufferView":0,
			"componentType":5126,
			"count":945,
			"max":[
				7.67657470703125,
				6.358156681060791,
				7.549835205078125
			],
			"min":[
				-7.67657470703125,
				-6.358156681060791,
				-7.549835205078125
			],
			"type":"VEC3"
		},
		{
			"bufferView":1,
			"componentType":5126,
			"count":945,
			"type":"VEC3"
		},
		{
			"bufferView":2,
			"componentType":5126,
			"count":945,
			"type":"VEC2"
		},
		{
			"bufferView":3,
			"componentType":5123,
			"count":5166,
			"type":"SCALAR"
		}
	],
	"bufferViews":[
		{
			"buffer":0,
			"byteLength":11340,
			"byteOffset":0,
			"target":34962
		},
		{
			"buffer":0,
			"byteLength":11340,
			"byteOffset":11340,
			"target":34962
		},
		{
			"buffer":0,
			"byteLength":7560,
			"byteOffset":22680,
			"target":34962
		},
		{
			"buffer":0,
			"byteLength":10332,
			"byteOffset":30240,
			"target":34963
		}
	],
	"samplers":[
		{
			"magFilter":9728,
			"minFilter":9984
		}
	],
	"buffers":[
		{
			"byteLength":40572,
			"uri":"SM_TI_Rock_5.bin"
		}
	]
}
