{
	"asset":{
		"generator":"Khronos glTF Blender I/O v5.0.21",
		"version":"2.0"
	},
	"extensionsUsed":[
		"KHR_materials_specular",
		"KHR_materials_ior"
	],
	"scene":0,
	"scenes":[
		{
			"name":"Scene",
			"nodes":[
				0
			]
		}
	],
	"nodes":[
		{
			"mesh":0,
			"name":"SM_TI_RockBlock_0",
			"translation":[
				19.190231323242188,
				6.928823947906494,
				-374.4103698730469
			]
		}
	],
	"materials":[
		{
			"doubleSided":true,
			"extensions":{
				"KHR_materials_specular":{
					"specularColorFactor":[
						0.4000000059604645,
						0.4000000059604645,
						0.4000000059604645
					]
				},
				"KHR_materials_ior":{
					"ior":1
				}
			},
			"name":"M_TI_RockBlock_0",
			"pbrMetallicRoughness":{
				"baseColorTexture":{
					"index":0
				},
				"metallicFactor":0
			}
		}
	],
	"meshes":[
		{
			"name":"SM_TI_RockBlock_0",
			"primitives":[
				{
					"attributes":{
						"POSITION":0,
						"NORMAL":1,
						"TEXCOORD_0":2
					},
					"indices":3,
					"material":0
				}
			]
		}
	],
	"textures":[
		{
			"sampler":0,
			"source":0
		}
	],
	"images":[
		{
			"mimeType":"image/png",
			"name":"T_TI_RockBlock_0.png",
			"uri":"T_TI_RockBlock_0.png.png"
		}
	],
	"accessors":[
		{
			"bufferView":0,
			"componentType":5126,
			"count":876,
			"max":[
				9.29075813293457,
				3.802490711212158,
				4.514064788818359
			],
			"min":[
				-9.774709701538086,
				-4.669795513153076,
				-4.740193843841553
			],
			"type":"VEC3"
		},
		{
			"bufferView":1,
			"componentType":5126,
			"count":876,
			"type":"VEC3"
		},
		{
			"bufferView":2,
			"componentType":5126,
			"count":876,
			"type":"VEC2"
		},
		{
			"bufferView":3,
			"componentType":5123,
			"count":4602,
			"type":"SCALAR"
		}
	],
	"bufferViews":[
		{
			"buffer":0,
			"byteLength":10512,
			"byteOffset":0,
			"target":34962
		},
		{
			"buffer":0,
			"byteLength":10512,
			"byteOffset":10512,
			"target":34962
		},
		{
			"buffer":0,
			"byteLength":7008,
			"byteOffset":21024,
			"target":34962
		},
		{
			"buffer":0,
			"byteLength":9204,
			"byteOffset":28032,
			"target":34963
		}
	],
	"samplers":[
		{
			"magFilter":9728,
			"minFilter":9984
		}
	],
	"buffers":[
		{
			"byteLength":37236,
			"uri":"SM_TI_RockBlock_0.bin"
		}
	]
}
