{
	"asset":{
		"generator":"Khronos glTF Blender I/O v5.0.21",
		"version":"2.0"
	},
	"extensionsUsed":[
		"KHR_materials_specular",
		"KHR_materials_ior"
	],
	"scene":0,
	"scenes":[
		{
			"name":"Scene",
			"nodes":[
				0
			]
		}
	],
	"nodes":[
		{
			"mesh":0,
			"name":"SM_TI_Rock_4",
			"translation":[
				-69.29114532470703,
				15.610549926757812,
				-404.8670654296875
			]
		}
	],
	"materials":[
		{
			"doubleSided":true,
			"extensions":{
				"KHR_materials_specular":{
					"specularColorFactor":[
						0.4000000059604645,
						0.4000000059604645,
						0.4000000059604645
					]
				},
				"KHR_materials_ior":{
					"ior":1
				}
			},
			"name":"M_TI_Rock_4",
			"pbrMetallicRoughness":{
				"baseColorTexture":{
					"index":0
				},
				"metallicFactor":0,
				"roughnessFactor":0
			}
		}
	],
	"meshes":[
		{
			"name":"SM_TI_Rock_4",
			"primitives":[
				{
					"attributes":{
						"POSITION":0,
						"NORMAL":1,
						"TEXCOORD_0":2
					},
					"indices":3,
					"material":0
				}
			]
		}
	],
	"textures":[
		{
			"sampler":0,
			"source":0
		}
	],
	"images":[
		{
			"mimeType":"image/png",
			"name":"T_TI_Rock_4.png",
			"uri":"T_TI_Rock_4.png.png"
		}
	],
	"accessors":[
		{
			"bufferView":0,
			"componentType":5126,
			"count":1212,
			"max":[
				5.2916259765625,
				7.738400459289551,
				8.317169189453125
			],
			"min":[
				-5.29156494140625,
				-7.738400459289551,
				-8.317169189453125
			],
			"type":"VEC3"
		},
		{
			"bufferView":1,
			"componentType":5126,
			"count":1212,
			"type":"VEC3"
		},
		{
			"bufferView":2,
			"componentType":5126,
			"count":1212,
			"type":"VEC2"
		},
		{
			"bufferView":3,
			"componentType":5123,
			"count":6822,
			"type":"SCALAR"
		}
	],
	"bufferViews":[
		{
			"buffer":0,
			"byteLength":14544,
			"byteOffset":0,
			"target":34962
		},
		{
			"buffer":0,
			"byteLength":14544,
			"byteOffset":14544,
			"target":34962
		},
		{
			"buffer":0,
			"byteLength":9696,
			"byteOffset":29088,
			"target":34962
		},
		{
			"buffer":0,
			"byteLength":13644,
			"byteOffset":38784,
			"target":34963
		}
	],
	"samplers":[
		{
			"magFilter":9728,
			"minFilter":9984
		}
	],
	"buffers":[
		{
			"byteLength":52428,
			"uri":"SM_TI_Rock_4.bin"
		}
	]
}
