{
	"asset":{
		"generator":"Khronos glTF Blender I/O v5.0.21",
		"version":"2.0"
	},
	"extensionsUsed":[
		"KHR_materials_specular",
		"KHR_materials_ior"
	],
	"scene":0,
	"scenes":[
		{
			"name":"Scene",
			"nodes":[
				0
			]
		}
	],
	"nodes":[
		{
			"mesh":0,
			"name":"SM_TI_Rock_6",
			"translation":[
				-29.4346981048584,
				10.59515380859375,
				-435.21844482421875
			]
		}
	],
	"materials":[
		{
			"doubleSided":true,
			"extensions":{
				"KHR_materials_specular":{
					"specularColorFactor":[
						0.4000000059604645,
						0.4000000059604645,
						0.4000000059604645
					]
				},
				"KHR_materials_ior":{
					"ior":1
				}
			},
			"name":"M_TI_Rock_6",
			"pbrMetallicRoughness":{
				"baseColorTexture":{
					"index":0
				},
				"metallicFactor":0,
				"roughnessFactor":0
			}
		}
	],
	"meshes":[
		{
			"name":"SM_TI_Rock_6",
			"primitives":[
				{
					"attributes":{
						"POSITION":0,
						"NORMAL":1,
						"TEXCOORD_0":2
					},
					"indices":3,
					"material":0
				}
			]
		}
	],
	"textures":[
		{
			"sampler":0,
			"source":0
		}
	],
	"images":[
		{
			"mimeType":"image/png",
			"name":"T_TI_Rock_6",
			"uri":"T_TI_Rock_6.png"
		}
	],
	"accessors":[
		{
			"bufferView":0,
			"componentType":5126,
			"count":1572,
			"max":[
				14.65540599822998,
				17.044588088989258,
				17.31731414794922
			],
			"min":[
				-16.52825355529785,
				-16.489253997802734,
				-15.916744232177734
			],
			"type":"VEC3"
		},
		{
			"bufferView":1,
			"componentType":5126,
			"count":1572,
			"type":"VEC3"
		},
		{
			"bufferView":2,
			"componentType":5126,
			"count":1572,
			"type":"VEC2"
		},
		{
			"bufferView":3,
			"componentType":5123,
			"count":8946,
			"type":"SCALAR"
		}
	],
	"bufferViews":[
		{
			"buffer":0,
			"byteLength":18864,
			"byteOffset":0,
			"target":34962
		},
		{
			"buffer":0,
			"byteLength":18864,
			"byteOffset":18864,
			"target":34962
		},
		{
			"buffer":0,
			"byteLength":12576,
			"byteOffset":37728,
			"target":34962
		},
		{
			"buffer":0,
			"byteLength":17892,
			"byteOffset":50304,
			"target":34963
		}
	],
	"samplers":[
		{
			"magFilter":9728,
			"minFilter":9984
		}
	],
	"buffers":[
		{
			"byteLength":68196,
			"uri":"SM_TI_Rock_6.bin"
		}
	]
}
