{
	"asset":{
		"generator":"Khronos glTF Blender I/O v5.0.21",
		"version":"2.0"
	},
	"scene":0,
	"scenes":[
		{
			"name":"Scene",
			"nodes":[
				0
			]
		}
	],
	"nodes":[
		{
			"mesh":0,
			"name":"SM_TI_Fern_0",
			"translation":[
				30.544845581054688,
				2.643648862838745,
				-459.0222473144531
			]
		}
	],
	"materials":[
		{
			"alphaMode":"BLEND",
			"doubleSided":true,
			"name":"M_TI_Fern",
			"pbrMetallicRoughness":{
				"baseColorTexture":{
					"index":0
				},
				"metallicFactor":0
			}
		}
	],
	"meshes":[
		{
			"name":"SM_TI_Fern_0",
			"primitives":[
				{
					"attributes":{
						"POSITION":0,
						"NORMAL":1,
						"TEXCOORD_0":2,
						"COLOR_0":3,
						"COLOR_1":4
					},
					"indices":5,
					"material":0
				}
			]
		}
	],
	"textures":[
		{
			"sampler":0,
			"source":0
		}
	],
	"images":[
		{
			"mimeType":"image/png",
			"name":"T_TI_Fern_0",
			"uri":"T_TI_Fern_0.png"
		}
	],
	"accessors":[
		{
			"bufferView":0,
			"componentType":5126,
			"count":972,
			"max":[
				1.3873356580734253,
				1.1058145761489868,
				1.4218783378601074
			],
			"min":[
				-1.3826322555541992,
				-0.037204183638095856,
				-1.383527159690857
			],
			"type":"VEC3"
		},
		{
			"bufferView":1,
			"componentType":5126,
			"count":972,
			"type":"VEC3"
		},
		{
			"bufferView":2,
			"componentType":5126,
			"count":972,
			"type":"VEC2"
		},
		{
			"bufferView":3,
			"componentType":5121,
			"count":972,
			"normalized":true,
			"type":"VEC4"
		},
		{
			"bufferView":4,
			"componentType":5123,
			"count":972,
			"normalized":true,
			"type":"VEC4"
		},
		{
			"bufferView":5,
			"componentType":5123,
			"count":3456,
			"type":"SCALAR"
		}
	],
	"bufferViews":[
		{
			"buffer":0,
			"byteLength":11664,
			"byteOffset":0,
			"target":34962
		},
		{
			"buffer":0,
			"byteLength":11664,
			"byteOffset":11664,
			"target":34962
		},
		{
			"buffer":0,
			"byteLength":7776,
			"byteOffset":23328,
			"target":34962
		},
		{
			"buffer":0,
			"byteLength":3888,
			"byteOffset":31104,
			"target":34962
		},
		{
			"buffer":0,
			"byteLength":7776,
			"byteOffset":34992,
			"target":34962
		},
		{
			"buffer":0,
			"byteLength":6912,
			"byteOffset":42768,
			"target":34963
		}
	],
	"samplers":[
		{
			"magFilter":9728,
			"minFilter":9984
		}
	],
	"buffers":[
		{
			"byteLength":49680,
			"uri":"SM_TI_Fern_0.bin"
		}
	]
}
