{
	"asset":{
		"generator":"Khronos glTF Blender I/O v5.0.21",
		"version":"2.0"
	},
	"scene":0,
	"scenes":[
		{
			"name":"Scene",
			"nodes":[
				0
			]
		}
	],
	"nodes":[
		{
			"mesh":0,
			"name":"SM_TI_Palm_Tree_3",
			"translation":[
				29.757614135742188,
				2.4492037296295166,
				-473.6728820800781
			]
		}
	],
	"materials":[
		{
			"doubleSided":true,
			"name":"M_TI_Palm_0",
			"pbrMetallicRoughness":{
				"baseColorTexture":{
					"index":0
				},
				"metallicFactor":0
			}
		},
		{
			"alphaMode":"BLEND",
			"doubleSided":true,
			"name":"M_TI_PalmLeaves_0",
			"pbrMetallicRoughness":{
				"baseColorTexture":{
					"index":1
				},
				"metallicFactor":0
			}
		}
	],
	"meshes":[
		{
			"name":"SM_TI_Palm_Tree_3",
			"primitives":[
				{
					"attributes":{
						"POSITION":0,
						"NORMAL":1,
						"TEXCOORD_0":2,
						"COLOR_0":3,
						"COLOR_1":4
					},
					"indices":5,
					"material":0
				},
				{
					"attributes":{
						"POSITION":6,
						"NORMAL":7,
						"TEXCOORD_0":8,
						"COLOR_0":9,
						"COLOR_1":10
					},
					"indices":11,
					"material":1
				}
			]
		}
	],
	"textures":[
		{
			"sampler":0,
			"source":0
		},
		{
			"sampler":0,
			"source":1
		}
	],
	"images":[
		{
			"mimeType":"image/png",
			"name":"T_TI_Palm_0.png",
			"uri":"T_TI_Palm_0.png.png"
		},
		{
			"mimeType":"image/png",
			"name":"T_TI_PalmLeaves_0.png",
			"uri":"T_TI_PalmLeaves_0.png.png"
		}
	],
	"accessors":[
		{
			"bufferView":0,
			"componentType":5126,
			"count":96,
			"max":[
				0.8098322153091431,
				8.962370872497559,
				1.6148436069488525
			],
			"min":[
				-0.35779038071632385,
				-0.005650104954838753,
				-0.32367178797721863
			],
			"type":"VEC3"
		},
		{
			"bufferView":1,
			"componentType":5126,
			"count":96,
			"type":"VEC3"
		},
		{
			"bufferView":2,
			"componentType":5126,
			"count":96,
			"type":"VEC2"
		},
		{
			"bufferView":3,
			"componentType":5121,
			"count":96,
			"normalized":true,
			"type":"VEC4"
		},
		{
			"bufferView":4,
			"componentType":5123,
			"count":96,
			"normalized":true,
			"type":"VEC4"
		},
		{
			"bufferView":5,
			"componentType":5123,
			"count":396,
			"type":"SCALAR"
		},
		{
			"bufferView":6,
			"componentType":5126,
			"count":558,
			"max":[
				4.9029998779296875,
				9.017358779907227,
				5.158113479614258
			],
			"min":[
				-3.727983236312866,
				3.5878922939300537,
				-2.6287930011749268
			],
			"type":"VEC3"
		},
		{
			"bufferView":7,
			"componentType":5126,
			"count":558,
			"type":"VEC3"
		},
		{
			"bufferView":8,
			"componentType":5126,
			"count":558,
			"type":"VEC2"
		},
		{
			"bufferView":9,
			"componentType":5121,
			"count":558,
			"normalized":true,
			"type":"VEC4"
		},
		{
			"bufferView":10,
			"componentType":5123,
			"count":558,
			"normalized":true,
			"type":"VEC4"
		},
		{
			"bufferView":11,
			"componentType":5123,
			"count":1890,
			"type":"SCALAR"
		}
	],
	"bufferViews":[
		{
			"buffer":0,
			"byteLength":1152,
			"byteOffset":0,
			"target":34962
		},
		{
			"buffer":0,
			"byteLength":1152,
			"byteOffset":1152,
			"target":34962
		},
		{
			"buffer":0,
			"byteLength":768,
			"byteOffset":2304,
			"target":34962
		},
		{
			"buffer":0,
			"byteLength":384,
			"byteOffset":3072,
			"target":34962
		},
		{
			"buffer":0,
			"byteLength":768,
			"byteOffset":3456,
			"target":34962
		},
		{
			"buffer":0,
			"byteLength":792,
			"byteOffset":4224,
			"target":34963
		},
		{
			"buffer":0,
			"byteLength":6696,
			"byteOffset":5016,
			"target":34962
		},
		{
			"buffer":0,
			"byteLength":6696,
			"byteOffset":11712,
			"target":34962
		},
		{
			"buffer":0,
			"byteLength":4464,
			"byteOffset":18408,
			"target":34962
		},
		{
			"buffer":0,
			"byteLength":2232,
			"byteOffset":22872,
			"target":34962
		},
		{
			"buffer":0,
			"byteLength":4464,
			"byteOffset":25104,
			"target":34962
		},
		{
			"buffer":0,
			"byteLength":3780,
			"byteOffset":29568,
			"target":34963
		}
	],
	"samplers":[
		{
			"magFilter":9728,
			"minFilter":9984
		}
	],
	"buffers":[
		{
			"byteLength":33348,
			"uri":"SM_TI_Palm_Tree_3.bin"
		}
	]
}
