{
	"asset":{
		"generator":"Khronos glTF Blender I/O v5.0.21",
		"version":"2.0"
	},
	"scene":0,
	"scenes":[
		{
			"name":"Scene",
			"nodes":[
				0
			]
		}
	],
	"nodes":[
		{
			"mesh":0,
			"name":"SM_TI_Beach_Cabbage_0",
			"translation":[
				45.62126159667969,
				1.8383591175079346,
				-461.3013000488281
			]
		}
	],
	"materials":[
		{
			"alphaMode":"BLEND",
			"doubleSided":true,
			"name":"M_TI_Cabbage_0",
			"pbrMetallicRoughness":{
				"baseColorTexture":{
					"index":0
				},
				"metallicFactor":0
			}
		}
	],
	"meshes":[
		{
			"name":"SM_TI_Beach_Cabbage_0",
			"primitives":[
				{
					"attributes":{
						"POSITION":0,
						"NORMAL":1,
						"TEXCOORD_0":2,
						"COLOR_0":3,
						"COLOR_1":4
					},
					"indices":5,
					"material":0
				}
			]
		}
	],
	"textures":[
		{
			"sampler":0,
			"source":0
		}
	],
	"images":[
		{
			"mimeType":"image/png",
			"name":"T_TI_Cabbage_0.png",
			"uri":"T_TI_Cabbage_0.png.png"
		}
	],
	"accessors":[
		{
			"bufferView":0,
			"componentType":5126,
			"count":1068,
			"max":[
				2.3002846240997314,
				3.4017672538757324,
				2.486569404602051
			],
			"min":[
				-2.4648921489715576,
				-0.392265260219574,
				-2.2818288803100586
			],
			"type":"VEC3"
		},
		{
			"bufferView":1,
			"componentType":5126,
			"count":1068,
			"type":"VEC3"
		},
		{
			"bufferView":2,
			"componentType":5126,
			"count":1068,
			"type":"VEC2"
		},
		{
			"bufferView":3,
			"componentType":5121,
			"count":1068,
			"normalized":true,
			"type":"VEC4"
		},
		{
			"bufferView":4,
			"componentType":5123,
			"count":1068,
			"normalized":true,
			"type":"VEC4"
		},
		{
			"bufferView":5,
			"componentType":5123,
			"count":3582,
			"type":"SCALAR"
		}
	],
	"bufferViews":[
		{
			"buffer":0,
			"byteLength":12816,
			"byteOffset":0,
			"target":34962
		},
		{
			"buffer":0,
			"byteLength":12816,
			"byteOffset":12816,
			"target":34962
		},
		{
			"buffer":0,
			"byteLength":8544,
			"byteOffset":25632,
			"target":34962
		},
		{
			"buffer":0,
			"byteLength":4272,
			"byteOffset":34176,
			"target":34962
		},
		{
			"buffer":0,
			"byteLength":8544,
			"byteOffset":38448,
			"target":34962
		},
		{
			"buffer":0,
			"byteLength":7164,
			"byteOffset":46992,
			"target":34963
		}
	],
	"samplers":[
		{
			"magFilter":9728,
			"minFilter":9984
		}
	],
	"buffers":[
		{
			"byteLength":54156,
			"uri":"SM_TI_Beach_Cabbage_0.bin"
		}
	]
}
