{
	"asset":{
		"generator":"Khronos glTF Blender I/O v5.0.21",
		"version":"2.0"
	},
	"extensionsUsed":[
		"KHR_materials_specular",
		"KHR_materials_ior"
	],
	"scene":0,
	"scenes":[
		{
			"name":"Scene",
			"nodes":[
				0
			]
		}
	],
	"nodes":[
		{
			"mesh":0,
			"name":"SM_TI_Rock_8",
			"translation":[
				-99.48755645751953,
				19.08890724182129,
				-430.40594482421875
			]
		}
	],
	"materials":[
		{
			"doubleSided":true,
			"extensions":{
				"KHR_materials_specular":{
					"specularColorFactor":[
						0.4000000059604645,
						0.4000000059604645,
						0.4000000059604645
					]
				},
				"KHR_materials_ior":{
					"ior":1
				}
			},
			"name":"M_TI_Rock_8",
			"pbrMetallicRoughness":{
				"baseColorTexture":{
					"index":0
				},
				"metallicFactor":0,
				"roughnessFactor":0
			}
		}
	],
	"meshes":[
		{
			"name":"SM_TI_Rock_8",
			"primitives":[
				{
					"attributes":{
						"POSITION":0,
						"NORMAL":1,
						"TEXCOORD_0":2
					},
					"indices":3,
					"material":0
				}
			]
		}
	],
	"textures":[
		{
			"sampler":0,
			"source":0
		}
	],
	"images":[
		{
			"mimeType":"image/png",
			"name":"T_TI_Rock_8",
			"uri":"T_TI_Rock_8.png"
		}
	],
	"accessors":[
		{
			"bufferView":0,
			"componentType":5126,
			"count":1261,
			"max":[
				15.3531494140625,
				12.716313362121582,
				15.09967041015625
			],
			"min":[
				-15.3531494140625,
				-12.716313362121582,
				-15.09967041015625
			],
			"type":"VEC3"
		},
		{
			"bufferView":1,
			"componentType":5126,
			"count":1261,
			"type":"VEC3"
		},
		{
			"bufferView":2,
			"componentType":5126,
			"count":1261,
			"type":"VEC2"
		},
		{
			"bufferView":3,
			"componentType":5123,
			"count":7020,
			"type":"SCALAR"
		}
	],
	"bufferViews":[
		{
			"buffer":0,
			"byteLength":15132,
			"byteOffset":0,
			"target":34962
		},
		{
			"buffer":0,
			"byteLength":15132,
			"byteOffset":15132,
			"target":34962
		},
		{
			"buffer":0,
			"byteLength":10088,
			"byteOffset":30264,
			"target":34962
		},
		{
			"buffer":0,
			"byteLength":14040,
			"byteOffset":40352,
			"target":34963
		}
	],
	"samplers":[
		{
			"magFilter":9728,
			"minFilter":9984
		}
	],
	"buffers":[
		{
			"byteLength":54392,
			"uri":"SM_TI_Rock_8.bin"
		}
	]
}
