{
	"asset":{
		"generator":"Khronos glTF Blender I/O v5.0.21",
		"version":"2.0"
	},
	"extensionsUsed":[
		"KHR_materials_unlit"
	],
	"scene":0,
	"scenes":[
		{
			"name":"Scene",
			"nodes":[
				0
			]
		}
	],
	"nodes":[
		{
			"mesh":0,
			"name":"SM_TI_Ramp_0",
			"translation":[
				36.91215515136719,
				10.697757720947266,
				-394.0326232910156
			]
		}
	],
	"materials":[
		{
			"doubleSided":true,
			"extensions":{
				"KHR_materials_unlit":{}
			},
			"name":"M_TI_Ramp_0",
			"pbrMetallicRoughness":{
				"baseColorTexture":{
					"index":0
				},
				"metallicFactor":0,
				"roughnessFactor":0.9
			}
		}
	],
	"meshes":[
		{
			"name":"SM_TI_Ramp_0",
			"primitives":[
				{
					"attributes":{
						"POSITION":0,
						"NORMAL":1,
						"TEXCOORD_0":2
					},
					"indices":3,
					"material":0
				}
			]
		}
	],
	"textures":[
		{
			"sampler":0,
			"source":0
		}
	],
	"images":[
		{
			"mimeType":"image/png",
			"name":"T_TI_Ramp_0.png",
			"uri":"T_TI_Ramp_0.png.png"
		}
	],
	"accessors":[
		{
			"bufferView":0,
			"componentType":5126,
			"count":9987,
			"max":[
				22.661800384521484,
				8.055383682250977,
				11.362427711486816
			],
			"min":[
				-22.272592544555664,
				-8.24862289428711,
				-11.255661010742188
			],
			"type":"VEC3"
		},
		{
			"bufferView":1,
			"componentType":5126,
			"count":9987,
			"type":"VEC3"
		},
		{
			"bufferView":2,
			"componentType":5126,
			"count":9987,
			"type":"VEC2"
		},
		{
			"bufferView":3,
			"componentType":5123,
			"count":55857,
			"type":"SCALAR"
		}
	],
	"bufferViews":[
		{
			"buffer":0,
			"byteLength":119844,
			"byteOffset":0,
			"target":34962
		},
		{
			"buffer":0,
			"byteLength":119844,
			"byteOffset":119844,
			"target":34962
		},
		{
			"buffer":0,
			"byteLength":79896,
			"byteOffset":239688,
			"target":34962
		},
		{
			"buffer":0,
			"byteLength":111714,
			"byteOffset":319584,
			"target":34963
		}
	],
	"samplers":[
		{
			"magFilter":9728,
			"minFilter":9984
		}
	],
	"buffers":[
		{
			"byteLength":431300,
			"uri":"SM_TI_Ramp_0.bin"
		}
	]
}
