{
	"asset":{
		"generator":"Khronos glTF Blender I/O v5.0.21",
		"version":"2.0"
	},
	"extensionsUsed":[
		"KHR_materials_specular",
		"KHR_materials_ior"
	],
	"scene":0,
	"scenes":[
		{
			"name":"Scene",
			"nodes":[
				0
			]
		}
	],
	"nodes":[
		{
			"mesh":0,
			"name":"SM_TI_Column_2m_0",
			"translation":[
				70.27116394042969,
				5.384416580200195,
				-377.6685485839844
			]
		}
	],
	"materials":[
		{
			"doubleSided":true,
			"extensions":{
				"KHR_materials_specular":{
					"specularColorFactor":[
						0.4000000059604645,
						0.4000000059604645,
						0.4000000059604645
					]
				},
				"KHR_materials_ior":{
					"ior":1
				}
			},
			"name":"M_TI_Columns_0",
			"pbrMetallicRoughness":{
				"baseColorTexture":{
					"index":0
				},
				"metallicFactor":0
			}
		}
	],
	"meshes":[
		{
			"name":"SM_TI_Column_2m_0",
			"primitives":[
				{
					"attributes":{
						"POSITION":0,
						"NORMAL":1,
						"TEXCOORD_0":2
					},
					"indices":3,
					"material":0
				}
			]
		}
	],
	"textures":[
		{
			"sampler":0,
			"source":0
		}
	],
	"images":[
		{
			"mimeType":"image/png",
			"name":"T_TI_Columns_0.png",
			"uri":"T_TI_Columns_0.png.png"
		}
	],
	"accessors":[
		{
			"bufferView":0,
			"componentType":5126,
			"count":311,
			"max":[
				1.0850001573562622,
				0.8557496070861816,
				1.0164175033569336
			],
			"min":[
				-1.0430102348327637,
				-1.3228228092193604,
				-0.9894456267356873
			],
			"type":"VEC3"
		},
		{
			"bufferView":1,
			"componentType":5126,
			"count":311,
			"type":"VEC3"
		},
		{
			"bufferView":2,
			"componentType":5126,
			"count":311,
			"type":"VEC2"
		},
		{
			"bufferView":3,
			"componentType":5123,
			"count":1638,
			"type":"SCALAR"
		}
	],
	"bufferViews":[
		{
			"buffer":0,
			"byteLength":3732,
			"byteOffset":0,
			"target":34962
		},
		{
			"buffer":0,
			"byteLength":3732,
			"byteOffset":3732,
			"target":34962
		},
		{
			"buffer":0,
			"byteLength":2488,
			"byteOffset":7464,
			"target":34962
		},
		{
			"buffer":0,
			"byteLength":3276,
			"byteOffset":9952,
			"target":34963
		}
	],
	"samplers":[
		{
			"magFilter":9728,
			"minFilter":9984
		}
	],
	"buffers":[
		{
			"byteLength":13228,
			"uri":"SM_TI_Column_2m_0.bin"
		}
	]
}
