{
	"asset":{
		"generator":"Khronos glTF Blender I/O v5.0.21",
		"version":"2.0"
	},
	"scene":0,
	"scenes":[
		{
			"name":"Scene",
			"nodes":[
				0
			]
		}
	],
	"nodes":[
		{
			"mesh":0,
			"name":"SM_TI_Palm_Tree_6",
			"translation":[
				40.46916198730469,
				2.4467506408691406,
				-463.2412414550781
			]
		}
	],
	"materials":[
		{
			"doubleSided":true,
			"name":"M_TI_Palm_0",
			"pbrMetallicRoughness":{
				"baseColorTexture":{
					"index":0
				},
				"metallicFactor":0
			}
		},
		{
			"alphaMode":"BLEND",
			"doubleSided":true,
			"name":"M_TI_PalmLeaves_0",
			"pbrMetallicRoughness":{
				"baseColorTexture":{
					"index":1
				},
				"metallicFactor":0
			}
		}
	],
	"meshes":[
		{
			"name":"SM_TI_Palm_Tree_6",
			"primitives":[
				{
					"attributes":{
						"POSITION":0,
						"NORMAL":1,
						"TEXCOORD_0":2,
						"COLOR_0":3,
						"COLOR_1":4
					},
					"indices":5,
					"material":0
				},
				{
					"attributes":{
						"POSITION":6,
						"NORMAL":7,
						"TEXCOORD_0":8,
						"COLOR_0":9,
						"COLOR_1":10
					},
					"indices":11,
					"material":1
				}
			]
		}
	],
	"textures":[
		{
			"sampler":0,
			"source":0
		},
		{
			"sampler":0,
			"source":1
		}
	],
	"images":[
		{
			"mimeType":"image/png",
			"name":"T_TI_Palm_0.png",
			"uri":"T_TI_Palm_0.png.png"
		},
		{
			"mimeType":"image/png",
			"name":"T_TI_PalmLeaves_0.png",
			"uri":"T_TI_PalmLeaves_0.png.png"
		}
	],
	"accessors":[
		{
			"bufferView":0,
			"componentType":5126,
			"count":96,
			"max":[
				0.14120250940322876,
				6.601715087890625,
				0.6906261444091797
			],
			"min":[
				-0.45866110920906067,
				0.07704181224107742,
				-0.1472846269607544
			],
			"type":"VEC3"
		},
		{
			"bufferView":1,
			"componentType":5126,
			"count":96,
			"type":"VEC3"
		},
		{
			"bufferView":2,
			"componentType":5126,
			"count":96,
			"type":"VEC2"
		},
		{
			"bufferView":3,
			"componentType":5121,
			"count":96,
			"normalized":true,
			"type":"VEC4"
		},
		{
			"bufferView":4,
			"componentType":5123,
			"count":96,
			"normalized":true,
			"type":"VEC4"
		},
		{
			"bufferView":5,
			"componentType":5123,
			"count":432,
			"type":"SCALAR"
		},
		{
			"bufferView":6,
			"componentType":5126,
			"count":270,
			"max":[
				1.2145812511444092,
				8.234062194824219,
				1.86501145362854
			],
			"min":[
				-1.6002212762832642,
				5.831252098083496,
				-0.8592773079872131
			],
			"type":"VEC3"
		},
		{
			"bufferView":7,
			"componentType":5126,
			"count":270,
			"type":"VEC3"
		},
		{
			"bufferView":8,
			"componentType":5126,
			"count":270,
			"type":"VEC2"
		},
		{
			"bufferView":9,
			"componentType":5121,
			"count":270,
			"normalized":true,
			"type":"VEC4"
		},
		{
			"bufferView":10,
			"componentType":5123,
			"count":270,
			"normalized":true,
			"type":"VEC4"
		},
		{
			"bufferView":11,
			"componentType":5123,
			"count":891,
			"type":"SCALAR"
		}
	],
	"bufferViews":[
		{
			"buffer":0,
			"byteLength":1152,
			"byteOffset":0,
			"target":34962
		},
		{
			"buffer":0,
			"byteLength":1152,
			"byteOffset":1152,
			"target":34962
		},
		{
			"buffer":0,
			"byteLength":768,
			"byteOffset":2304,
			"target":34962
		},
		{
			"buffer":0,
			"byteLength":384,
			"byteOffset":3072,
			"target":34962
		},
		{
			"buffer":0,
			"byteLength":768,
			"byteOffset":3456,
			"target":34962
		},
		{
			"buffer":0,
			"byteLength":864,
			"byteOffset":4224,
			"target":34963
		},
		{
			"buffer":0,
			"byteLength":3240,
			"byteOffset":5088,
			"target":34962
		},
		{
			"buffer":0,
			"byteLength":3240,
			"byteOffset":8328,
			"target":34962
		},
		{
			"buffer":0,
			"byteLength":2160,
			"byteOffset":11568,
			"target":34962
		},
		{
			"buffer":0,
			"byteLength":1080,
			"byteOffset":13728,
			"target":34962
		},
		{
			"buffer":0,
			"byteLength":2160,
			"byteOffset":14808,
			"target":34962
		},
		{
			"buffer":0,
			"byteLength":1782,
			"byteOffset":16968,
			"target":34963
		}
	],
	"samplers":[
		{
			"magFilter":9728,
			"minFilter":9984
		}
	],
	"buffers":[
		{
			"byteLength":18752,
			"uri":"SM_TI_Palm_Tree_6.bin"
		}
	]
}
