{
	"asset":{
		"generator":"Khronos glTF Blender I/O v5.0.21",
		"version":"2.0"
	},
	"extensionsUsed":[
		"KHR_materials_unlit"
	],
	"scene":0,
	"scenes":[
		{
			"name":"Scene",
			"nodes":[
				0
			]
		}
	],
	"nodes":[
		{
			"mesh":0,
			"name":"SM_TI_Ground_0",
			"translation":[
				50.549835205078125,
				2.0674142837524414,
				-417.208984375
			]
		}
	],
	"materials":[
		{
			"doubleSided":true,
			"extensions":{
				"KHR_materials_unlit":{}
			},
			"name":"M_TI_Ground_0",
			"pbrMetallicRoughness":{
				"baseColorTexture":{
					"index":0
				},
				"metallicFactor":0,
				"roughnessFactor":0.9
			}
		}
	],
	"meshes":[
		{
			"name":"SM_TI_Ground_0",
			"primitives":[
				{
					"attributes":{
						"POSITION":0,
						"NORMAL":1,
						"TEXCOORD_0":2
					},
					"indices":3,
					"material":0
				}
			]
		}
	],
	"textures":[
		{
			"sampler":0,
			"source":0
		}
	],
	"images":[
		{
			"mimeType":"image/png",
			"name":"T_TI_Ground_0",
			"uri":"T_TI_Ground_0.png"
		}
	],
	"accessors":[
		{
			"bufferView":0,
			"componentType":5126,
			"count":1542,
			"max":[
				9.19644546508789,
				0.6880801916122437,
				9.15576171875
			],
			"min":[
				-9.19644546508789,
				-0.6880801916122437,
				-9.15576171875
			],
			"type":"VEC3"
		},
		{
			"bufferView":1,
			"componentType":5126,
			"count":1542,
			"type":"VEC3"
		},
		{
			"bufferView":2,
			"componentType":5126,
			"count":1542,
			"type":"VEC2"
		},
		{
			"bufferView":3,
			"componentType":5123,
			"count":9078,
			"type":"SCALAR"
		}
	],
	"bufferViews":[
		{
			"buffer":0,
			"byteLength":18504,
			"byteOffset":0,
			"target":34962
		},
		{
			"buffer":0,
			"byteLength":18504,
			"byteOffset":18504,
			"target":34962
		},
		{
			"buffer":0,
			"byteLength":12336,
			"byteOffset":37008,
			"target":34962
		},
		{
			"buffer":0,
			"byteLength":18156,
			"byteOffset":49344,
			"target":34963
		}
	],
	"samplers":[
		{
			"magFilter":9728,
			"minFilter":9984
		}
	],
	"buffers":[
		{
			"byteLength":67500,
			"uri":"SM_TI_Ground_0.bin"
		}
	]
}
