{
	"asset":{
		"generator":"Khronos glTF Blender I/O v5.0.21",
		"version":"2.0"
	},
	"scene":0,
	"scenes":[
		{
			"name":"Scene",
			"nodes":[
				0
			]
		}
	],
	"nodes":[
		{
			"mesh":0,
			"name":"SM_TI_Palm_Tree_7",
			"translation":[
				34.85197448730469,
				1.9301197528839111,
				-464.0444641113281
			]
		}
	],
	"materials":[
		{
			"doubleSided":true,
			"name":"M_TI_Palm_0",
			"pbrMetallicRoughness":{
				"baseColorTexture":{
					"index":0
				},
				"metallicFactor":0
			}
		},
		{
			"alphaMode":"BLEND",
			"doubleSided":true,
			"name":"M_TI_PalmLeaves_0",
			"pbrMetallicRoughness":{
				"baseColorTexture":{
					"index":1
				},
				"metallicFactor":0
			}
		}
	],
	"meshes":[
		{
			"name":"SM_TI_Palm_Tree_7",
			"primitives":[
				{
					"attributes":{
						"POSITION":0,
						"NORMAL":1,
						"TEXCOORD_0":2,
						"COLOR_0":3,
						"COLOR_1":4
					},
					"indices":5,
					"material":0
				},
				{
					"attributes":{
						"POSITION":6,
						"NORMAL":7,
						"TEXCOORD_0":8,
						"COLOR_0":9,
						"COLOR_1":10
					},
					"indices":11,
					"material":1
				}
			]
		}
	],
	"textures":[
		{
			"sampler":0,
			"source":0
		},
		{
			"sampler":0,
			"source":1
		}
	],
	"images":[
		{
			"mimeType":"image/png",
			"name":"T_TI_Palm_0.png",
			"uri":"T_TI_Palm_0.png.png"
		},
		{
			"mimeType":"image/png",
			"name":"T_TI_PalmLeaves_0.png",
			"uri":"T_TI_PalmLeaves_0.png.png"
		}
	],
	"accessors":[
		{
			"bufferView":0,
			"componentType":5126,
			"count":137,
			"max":[
				1.2479617595672607,
				5.363630771636963,
				0.1451209932565689
			],
			"min":[
				-1.0126599073410034,
				-0.0001282109587918967,
				-0.15519100427627563
			],
			"type":"VEC3"
		},
		{
			"bufferView":1,
			"componentType":5126,
			"count":137,
			"type":"VEC3"
		},
		{
			"bufferView":2,
			"componentType":5126,
			"count":137,
			"type":"VEC2"
		},
		{
			"bufferView":3,
			"componentType":5121,
			"count":137,
			"normalized":true,
			"type":"VEC4"
		},
		{
			"bufferView":4,
			"componentType":5123,
			"count":137,
			"normalized":true,
			"type":"VEC4"
		},
		{
			"bufferView":5,
			"componentType":5123,
			"count":594,
			"type":"SCALAR"
		},
		{
			"bufferView":6,
			"componentType":5126,
			"count":2322,
			"max":[
				2.408374547958374,
				6.934988021850586,
				1.6431961059570312
			],
			"min":[
				-2.2190239429473877,
				4.742066860198975,
				-1.4351235628128052
			],
			"type":"VEC3"
		},
		{
			"bufferView":7,
			"componentType":5126,
			"count":2322,
			"type":"VEC3"
		},
		{
			"bufferView":8,
			"componentType":5126,
			"count":2322,
			"type":"VEC2"
		},
		{
			"bufferView":9,
			"componentType":5121,
			"count":2322,
			"normalized":true,
			"type":"VEC4"
		},
		{
			"bufferView":10,
			"componentType":5123,
			"count":2322,
			"normalized":true,
			"type":"VEC4"
		},
		{
			"bufferView":11,
			"componentType":5123,
			"count":9801,
			"type":"SCALAR"
		}
	],
	"bufferViews":[
		{
			"buffer":0,
			"byteLength":1644,
			"byteOffset":0,
			"target":34962
		},
		{
			"buffer":0,
			"byteLength":1644,
			"byteOffset":1644,
			"target":34962
		},
		{
			"buffer":0,
			"byteLength":1096,
			"byteOffset":3288,
			"target":34962
		},
		{
			"buffer":0,
			"byteLength":548,
			"byteOffset":4384,
			"target":34962
		},
		{
			"buffer":0,
			"byteLength":1096,
			"byteOffset":4932,
			"target":34962
		},
		{
			"buffer":0,
			"byteLength":1188,
			"byteOffset":6028,
			"target":34963
		},
		{
			"buffer":0,
			"byteLength":27864,
			"byteOffset":7216,
			"target":34962
		},
		{
			"buffer":0,
			"byteLength":27864,
			"byteOffset":35080,
			"target":34962
		},
		{
			"buffer":0,
			"byteLength":18576,
			"byteOffset":62944,
			"target":34962
		},
		{
			"buffer":0,
			"byteLength":9288,
			"byteOffset":81520,
			"target":34962
		},
		{
			"buffer":0,
			"byteLength":18576,
			"byteOffset":90808,
			"target":34962
		},
		{
			"buffer":0,
			"byteLength":19602,
			"byteOffset":109384,
			"target":34963
		}
	],
	"samplers":[
		{
			"magFilter":9728,
			"minFilter":9984
		}
	],
	"buffers":[
		{
			"byteLength":128988,
			"uri":"SM_TI_Palm_Tree_7.bin"
		}
	]
}
