{
	"asset":{
		"generator":"Khronos glTF Blender I/O v5.0.21",
		"version":"2.0"
	},
	"extensionsUsed":[
		"KHR_materials_specular",
		"KHR_materials_ior"
	],
	"scene":0,
	"scenes":[
		{
			"name":"Scene",
			"nodes":[
				0
			]
		}
	],
	"nodes":[
		{
			"mesh":0,
			"name":"SM_TI_Hill_2",
			"translation":[
				-122.5566177368164,
				16.917068481445312,
				-480.82720947265625
			]
		}
	],
	"materials":[
		{
			"doubleSided":true,
			"extensions":{
				"KHR_materials_specular":{
					"specularColorFactor":[
						0.4000000059604645,
						0.4000000059604645,
						0.4000000059604645
					]
				},
				"KHR_materials_ior":{
					"ior":1
				}
			},
			"name":"M_TI_Hill_1",
			"pbrMetallicRoughness":{
				"baseColorTexture":{
					"index":0
				},
				"metallicFactor":0
			}
		}
	],
	"meshes":[
		{
			"name":"SM_TI_Hill_2",
			"primitives":[
				{
					"attributes":{
						"POSITION":0,
						"NORMAL":1,
						"TEXCOORD_0":2
					},
					"indices":3,
					"material":0
				}
			]
		}
	],
	"textures":[
		{
			"sampler":0,
			"source":0
		}
	],
	"images":[
		{
			"mimeType":"image/png",
			"name":"T_TI_Hill_1.png",
			"uri":"T_TI_Hill_1.png.png"
		}
	],
	"accessors":[
		{
			"bufferView":0,
			"componentType":5126,
			"count":467,
			"max":[
				16.72659683227539,
				15.206607818603516,
				15.143982887268066
			],
			"min":[
				-15.740509033203125,
				-10.23822021484375,
				-15.309022903442383
			],
			"type":"VEC3"
		},
		{
			"bufferView":1,
			"componentType":5126,
			"count":467,
			"type":"VEC3"
		},
		{
			"bufferView":2,
			"componentType":5126,
			"count":467,
			"type":"VEC2"
		},
		{
			"bufferView":3,
			"componentType":5123,
			"count":2514,
			"type":"SCALAR"
		}
	],
	"bufferViews":[
		{
			"buffer":0,
			"byteLength":5604,
			"byteOffset":0,
			"target":34962
		},
		{
			"buffer":0,
			"byteLength":5604,
			"byteOffset":5604,
			"target":34962
		},
		{
			"buffer":0,
			"byteLength":3736,
			"byteOffset":11208,
			"target":34962
		},
		{
			"buffer":0,
			"byteLength":5028,
			"byteOffset":14944,
			"target":34963
		}
	],
	"samplers":[
		{
			"magFilter":9728,
			"minFilter":9984
		}
	],
	"buffers":[
		{
			"byteLength":19972,
			"uri":"SM_TI_Hill_2.bin"
		}
	]
}
