{
	"asset":{
		"generator":"Khronos glTF Blender I/O v5.0.21",
		"version":"2.0"
	},
	"scene":0,
	"scenes":[
		{
			"name":"Scene",
			"nodes":[
				0
			]
		}
	],
	"nodes":[
		{
			"mesh":0,
			"name":"SM_TI_Wood_0_Pier_0",
			"translation":[
				88.37528991699219,
				9.833836555480957,
				-449.01910400390625
			]
		}
	],
	"materials":[
		{
			"doubleSided":true,
			"name":"M_TI_Wood_0",
			"pbrMetallicRoughness":{
				"baseColorTexture":{
					"index":0
				},
				"metallicFactor":0
			}
		}
	],
	"meshes":[
		{
			"name":"SM_TI_Wood_0_Pier_0",
			"primitives":[
				{
					"attributes":{
						"POSITION":0,
						"NORMAL":1,
						"TEXCOORD_0":2
					},
					"indices":3,
					"material":0
				}
			]
		}
	],
	"textures":[
		{
			"sampler":0,
			"source":0
		}
	],
	"images":[
		{
			"mimeType":"image/png",
			"name":"T_TI_Wood_0.png",
			"uri":"T_TI_Wood_0.png.png"
		}
	],
	"accessors":[
		{
			"bufferView":0,
			"componentType":5126,
			"count":402,
			"max":[
				4.344757556915283,
				1.1334381103515625,
				20.284353256225586
			],
			"min":[
				-5.68765115737915,
				-6.8665618896484375,
				-3.704990863800049
			],
			"type":"VEC3"
		},
		{
			"bufferView":1,
			"componentType":5126,
			"count":402,
			"type":"VEC3"
		},
		{
			"bufferView":2,
			"componentType":5126,
			"count":402,
			"type":"VEC2"
		},
		{
			"bufferView":3,
			"componentType":5123,
			"count":684,
			"type":"SCALAR"
		}
	],
	"bufferViews":[
		{
			"buffer":0,
			"byteLength":4824,
			"byteOffset":0,
			"target":34962
		},
		{
			"buffer":0,
			"byteLength":4824,
			"byteOffset":4824,
			"target":34962
		},
		{
			"buffer":0,
			"byteLength":3216,
			"byteOffset":9648,
			"target":34962
		},
		{
			"buffer":0,
			"byteLength":1368,
			"byteOffset":12864,
			"target":34963
		}
	],
	"samplers":[
		{
			"magFilter":9728,
			"minFilter":9984
		}
	],
	"buffers":[
		{
			"byteLength":14232,
			"uri":"SM_TI_Wood_0_Pier_0.bin"
		}
	]
}
