{
	"asset":{
		"generator":"Khronos glTF Blender I/O v5.0.21",
		"version":"2.0"
	},
	"scene":0,
	"scenes":[
		{
			"name":"Scene",
			"nodes":[
				0
			]
		}
	],
	"nodes":[
		{
			"mesh":0,
			"name":"SM_TI_Ground_6",
			"translation":[
				14.637849807739258,
				1.389594554901123,
				-436.4320983886719
			]
		}
	],
	"materials":[
		{
			"doubleSided":true,
			"name":"M_TI_Ground_1",
			"pbrMetallicRoughness":{
				"baseColorTexture":{
					"index":0
				},
				"metallicFactor":0
			}
		}
	],
	"meshes":[
		{
			"name":"SM_TI_Ground_6",
			"primitives":[
				{
					"attributes":{
						"POSITION":0,
						"NORMAL":1,
						"TEXCOORD_0":2
					},
					"indices":3,
					"material":0
				}
			]
		}
	],
	"textures":[
		{
			"sampler":0,
			"source":0
		}
	],
	"images":[
		{
			"mimeType":"image/png",
			"name":"T_TI_Ground_1.png",
			"uri":"T_TI_Ground_1.png.png"
		}
	],
	"accessors":[
		{
			"bufferView":0,
			"componentType":5126,
			"count":1310,
			"max":[
				4.915859222412109,
				0.793279767036438,
				9.143790245056152
			],
			"min":[
				-4.915859699249268,
				-0.793279767036438,
				-9.143789291381836
			],
			"type":"VEC3"
		},
		{
			"bufferView":1,
			"componentType":5126,
			"count":1310,
			"type":"VEC3"
		},
		{
			"bufferView":2,
			"componentType":5126,
			"count":1310,
			"type":"VEC2"
		},
		{
			"bufferView":3,
			"componentType":5123,
			"count":7080,
			"type":"SCALAR"
		}
	],
	"bufferViews":[
		{
			"buffer":0,
			"byteLength":15720,
			"byteOffset":0,
			"target":34962
		},
		{
			"buffer":0,
			"byteLength":15720,
			"byteOffset":15720,
			"target":34962
		},
		{
			"buffer":0,
			"byteLength":10480,
			"byteOffset":31440,
			"target":34962
		},
		{
			"buffer":0,
			"byteLength":14160,
			"byteOffset":41920,
			"target":34963
		}
	],
	"samplers":[
		{
			"magFilter":9728,
			"minFilter":9984
		}
	],
	"buffers":[
		{
			"byteLength":56080,
			"uri":"SM_TI_Ground_6.bin"
		}
	]
}
