{
	"asset":{
		"generator":"Khronos glTF Blender I/O v5.0.21",
		"version":"2.0"
	},
	"extensionsUsed":[
		"KHR_materials_specular",
		"KHR_materials_ior"
	],
	"scene":0,
	"scenes":[
		{
			"name":"Scene",
			"nodes":[
				0
			]
		}
	],
	"nodes":[
		{
			"mesh":0,
			"name":"SM_TI_RockEntrance_0",
			"translation":[
				80.83549499511719,
				10.865489959716797,
				-395.4169921875
			]
		}
	],
	"materials":[
		{
			"doubleSided":true,
			"extensions":{
				"KHR_materials_specular":{
					"specularColorFactor":[
						0.4000000059604645,
						0.4000000059604645,
						0.4000000059604645
					]
				},
				"KHR_materials_ior":{
					"ior":1
				}
			},
			"name":"M_TI_RockEntrance_0",
			"pbrMetallicRoughness":{
				"baseColorTexture":{
					"index":0
				},
				"metallicFactor":0
			}
		}
	],
	"meshes":[
		{
			"name":"SM_TI_RockEntrance_0",
			"primitives":[
				{
					"attributes":{
						"POSITION":0,
						"NORMAL":1,
						"TEXCOORD_0":2
					},
					"indices":3,
					"material":0
				}
			]
		}
	],
	"textures":[
		{
			"sampler":0,
			"source":0
		}
	],
	"images":[
		{
			"mimeType":"image/png",
			"name":"T_TI_RockEntrance_0",
			"uri":"T_TI_RockEntrance_0.png"
		}
	],
	"accessors":[
		{
			"bufferView":0,
			"componentType":5126,
			"count":1650,
			"max":[
				10.424187660217285,
				8.41635513305664,
				4.451467514038086
			],
			"min":[
				-10.42086410522461,
				-8.41635513305664,
				-4.669678688049316
			],
			"type":"VEC3"
		},
		{
			"bufferView":1,
			"componentType":5126,
			"count":1650,
			"type":"VEC3"
		},
		{
			"bufferView":2,
			"componentType":5126,
			"count":1650,
			"type":"VEC2"
		},
		{
			"bufferView":3,
			"componentType":5123,
			"count":9084,
			"type":"SCALAR"
		}
	],
	"bufferViews":[
		{
			"buffer":0,
			"byteLength":19800,
			"byteOffset":0,
			"target":34962
		},
		{
			"buffer":0,
			"byteLength":19800,
			"byteOffset":19800,
			"target":34962
		},
		{
			"buffer":0,
			"byteLength":13200,
			"byteOffset":39600,
			"target":34962
		},
		{
			"buffer":0,
			"byteLength":18168,
			"byteOffset":52800,
			"target":34963
		}
	],
	"samplers":[
		{
			"magFilter":9728,
			"minFilter":9984
		}
	],
	"buffers":[
		{
			"byteLength":70968,
			"uri":"SM_TI_RockEntrance_0.bin"
		}
	]
}
