{
	"asset":{
		"generator":"Khronos glTF Blender I/O v5.0.21",
		"version":"2.0"
	},
	"scene":0,
	"scenes":[
		{
			"name":"Scene",
			"nodes":[
				0
			]
		}
	],
	"nodes":[
		{
			"mesh":0,
			"name":"SM_TI_Palm_Tree_0",
			"translation":[
				56.15495300292969,
				2.4546585083007812,
				-473.4946594238281
			]
		}
	],
	"materials":[
		{
			"doubleSided":true,
			"name":"M_TI_Palm_0",
			"pbrMetallicRoughness":{
				"baseColorTexture":{
					"index":0
				},
				"metallicFactor":0
			}
		},
		{
			"alphaMode":"BLEND",
			"doubleSided":true,
			"name":"M_TI_PalmLeaves_0",
			"pbrMetallicRoughness":{
				"baseColorTexture":{
					"index":1
				},
				"metallicFactor":0
			}
		}
	],
	"meshes":[
		{
			"name":"SM_TI_Palm_Tree_0",
			"primitives":[
				{
					"attributes":{
						"POSITION":0,
						"NORMAL":1,
						"TEXCOORD_0":2,
						"COLOR_0":3,
						"COLOR_1":4
					},
					"indices":5,
					"material":0
				},
				{
					"attributes":{
						"POSITION":6,
						"NORMAL":7,
						"TEXCOORD_0":8,
						"COLOR_0":9,
						"COLOR_1":10
					},
					"indices":11,
					"material":1
				}
			]
		}
	],
	"textures":[
		{
			"sampler":0,
			"source":0
		},
		{
			"sampler":0,
			"source":1
		}
	],
	"images":[
		{
			"mimeType":"image/png",
			"name":"T_TI_Palm_0.png",
			"uri":"T_TI_Palm_0.png.png"
		},
		{
			"mimeType":"image/png",
			"name":"T_TI_PalmLeaves_0.png",
			"uri":"T_TI_PalmLeaves_0.png.png"
		}
	],
	"accessors":[
		{
			"bufferView":0,
			"componentType":5126,
			"count":144,
			"max":[
				2.051908254623413,
				8.697885513305664,
				0.3277135193347931
			],
			"min":[
				-2.8238675594329834,
				-0.005735119804739952,
				-1.284869909286499
			],
			"type":"VEC3"
		},
		{
			"bufferView":1,
			"componentType":5126,
			"count":144,
			"type":"VEC3"
		},
		{
			"bufferView":2,
			"componentType":5126,
			"count":144,
			"type":"VEC2"
		},
		{
			"bufferView":3,
			"componentType":5121,
			"count":144,
			"normalized":true,
			"type":"VEC4"
		},
		{
			"bufferView":4,
			"componentType":5123,
			"count":144,
			"normalized":true,
			"type":"VEC4"
		},
		{
			"bufferView":5,
			"componentType":5123,
			"count":558,
			"type":"SCALAR"
		},
		{
			"bufferView":6,
			"componentType":5126,
			"count":558,
			"max":[
				6.299481391906738,
				8.688114166259766,
				3.968083381652832
			],
			"min":[
				-5.862802028656006,
				3.640124559402466,
				-3.9957385063171387
			],
			"type":"VEC3"
		},
		{
			"bufferView":7,
			"componentType":5126,
			"count":558,
			"type":"VEC3"
		},
		{
			"bufferView":8,
			"componentType":5126,
			"count":558,
			"type":"VEC2"
		},
		{
			"bufferView":9,
			"componentType":5121,
			"count":558,
			"normalized":true,
			"type":"VEC4"
		},
		{
			"bufferView":10,
			"componentType":5123,
			"count":558,
			"normalized":true,
			"type":"VEC4"
		},
		{
			"bufferView":11,
			"componentType":5123,
			"count":1890,
			"type":"SCALAR"
		}
	],
	"bufferViews":[
		{
			"buffer":0,
			"byteLength":1728,
			"byteOffset":0,
			"target":34962
		},
		{
			"buffer":0,
			"byteLength":1728,
			"byteOffset":1728,
			"target":34962
		},
		{
			"buffer":0,
			"byteLength":1152,
			"byteOffset":3456,
			"target":34962
		},
		{
			"buffer":0,
			"byteLength":576,
			"byteOffset":4608,
			"target":34962
		},
		{
			"buffer":0,
			"byteLength":1152,
			"byteOffset":5184,
			"target":34962
		},
		{
			"buffer":0,
			"byteLength":1116,
			"byteOffset":6336,
			"target":34963
		},
		{
			"buffer":0,
			"byteLength":6696,
			"byteOffset":7452,
			"target":34962
		},
		{
			"buffer":0,
			"byteLength":6696,
			"byteOffset":14148,
			"target":34962
		},
		{
			"buffer":0,
			"byteLength":4464,
			"byteOffset":20844,
			"target":34962
		},
		{
			"buffer":0,
			"byteLength":2232,
			"byteOffset":25308,
			"target":34962
		},
		{
			"buffer":0,
			"byteLength":4464,
			"byteOffset":27540,
			"target":34962
		},
		{
			"buffer":0,
			"byteLength":3780,
			"byteOffset":32004,
			"target":34963
		}
	],
	"samplers":[
		{
			"magFilter":9728,
			"minFilter":9984
		}
	],
	"buffers":[
		{
			"byteLength":35784,
			"uri":"SM_TI_Palm_Tree_0.bin"
		}
	]
}
