{
	"asset":{
		"generator":"Khronos glTF Blender I/O v5.0.21",
		"version":"2.0"
	},
	"scene":0,
	"scenes":[
		{
			"name":"Scene",
			"nodes":[
				0
			]
		}
	],
	"nodes":[
		{
			"mesh":0,
			"name":"SM_TI_Palm_Plant_1",
			"translation":[
				37.50675964355469,
				2.473677158355713,
				-459.1809387207031
			]
		}
	],
	"materials":[
		{
			"alphaMode":"BLEND",
			"doubleSided":true,
			"name":"M_TI_PalmLeaves_0",
			"pbrMetallicRoughness":{
				"baseColorTexture":{
					"index":0
				},
				"metallicFactor":0
			}
		}
	],
	"meshes":[
		{
			"name":"SM_TI_Palm_Plant_1",
			"primitives":[
				{
					"attributes":{
						"POSITION":0,
						"NORMAL":1,
						"TEXCOORD_0":2,
						"COLOR_0":3,
						"COLOR_1":4
					},
					"indices":5,
					"material":0
				}
			]
		}
	],
	"textures":[
		{
			"sampler":0,
			"source":0
		}
	],
	"images":[
		{
			"mimeType":"image/png",
			"name":"T_TI_PalmLeaves_0.png",
			"uri":"T_TI_PalmLeaves_0.png.png"
		}
	],
	"accessors":[
		{
			"bufferView":0,
			"componentType":5126,
			"count":729,
			"max":[
				0.8371890187263489,
				0.774741530418396,
				0.7194941639900208
			],
			"min":[
				-0.8095769286155701,
				-0.025868292897939682,
				-0.877798318862915
			],
			"type":"VEC3"
		},
		{
			"bufferView":1,
			"componentType":5126,
			"count":729,
			"type":"VEC3"
		},
		{
			"bufferView":2,
			"componentType":5126,
			"count":729,
			"type":"VEC2"
		},
		{
			"bufferView":3,
			"componentType":5121,
			"count":729,
			"normalized":true,
			"type":"VEC4"
		},
		{
			"bufferView":4,
			"componentType":5123,
			"count":729,
			"normalized":true,
			"type":"VEC4"
		},
		{
			"bufferView":5,
			"componentType":5123,
			"count":2592,
			"type":"SCALAR"
		}
	],
	"bufferViews":[
		{
			"buffer":0,
			"byteLength":8748,
			"byteOffset":0,
			"target":34962
		},
		{
			"buffer":0,
			"byteLength":8748,
			"byteOffset":8748,
			"target":34962
		},
		{
			"buffer":0,
			"byteLength":5832,
			"byteOffset":17496,
			"target":34962
		},
		{
			"buffer":0,
			"byteLength":2916,
			"byteOffset":23328,
			"target":34962
		},
		{
			"buffer":0,
			"byteLength":5832,
			"byteOffset":26244,
			"target":34962
		},
		{
			"buffer":0,
			"byteLength":5184,
			"byteOffset":32076,
			"target":34963
		}
	],
	"samplers":[
		{
			"magFilter":9728,
			"minFilter":9984
		}
	],
	"buffers":[
		{
			"byteLength":37260,
			"uri":"SM_TI_Palm_Plant_1.bin"
		}
	]
}
